<?xml version="1.0" encoding="utf-8"?>
<!-- Generator: Adobe Illustrator 17.1.0, SVG Export Plug-In . SVG Version: 6.00 Build 0)  -->
<!DOCTYPE svg PUBLIC "-//W3C//DTD SVG 1.1//EN" "http://www.w3.org/Graphics/SVG/1.1/DTD/svg11.dtd">
<svg version="1.1" id="Calque_1" xmlns="http://www.w3.org/2000/svg" xmlns:xlink="http://www.w3.org/1999/xlink" x="0px" y="0px"
	 viewBox="330 7.4 189 184" enable-background="new 330 7.4 189 184" xml:space="preserve">
<g>
	<path fill="#668862" d="M429.6,42.2c-0.7,0.4-1.3,0.9-2.1,1.1c-1.7,0.3-3.4-0.4-4.2-1.9c-0.7-1.4-0.5-3.3,0.7-4.4
		c1.2-1.2,3.1-1.5,4.5-0.7c1.5,0.8,2.3,2.6,1.9,4.2c-0.3,1.1-0.3,1.1,0.8,0.8c0.7-0.1,1.3,0,1.9,0.4c0.3-0.3,0.1-0.6,0.1-0.9
		c-0.3-1.9,0.6-3.8,2.3-4.6c1.6-0.8,3.6-0.5,4.9,0.8c1.4,1.4,1.7,3.3,0.7,5.1c-1.3,2.5-4.6,2.9-6.8,0.9c-0.1-0.1-0.3-0.4-0.5-0.3
		c-0.3,0.1-0.1,0.4-0.1,0.5c-0.1,1.3-1.1,2.2-2.2,2.1c-1.3-0.1-2.1-1.3-1.9-2.5C429.6,42.7,429.8,42.5,429.6,42.2z"/>
	<path fill="#91AC76" d="M409.4,156.5c-0.1,0.2-0.5,0.1-0.5,0.3c-0.1,0.3,0.3,0.3,0.5,0.5c1.8,1.2,2.3,3.2,1.5,5
		c-0.3,0.5-0.7,0.9-1.1,1.3c-0.1,0.1-0.5,0.3-0.3,0.6c0.1,0.2,0.4,0.1,0.6,0.1c1.9-0.1,3.3,0.7,4.3,2.2c1.2,1.8,0.9,4.4-0.7,5.9
		c-1.7,1.6-4.2,1.9-6.1,0.5c-2.7-2-2.7-5.7-0.1-7.8c0.1-0.1,0.4-0.2,0.4-0.5c-0.1-0.3-0.3-0.2-0.5-0.2c-1.9-0.2-3.2-1.2-3.7-3.1
		c-0.5-2.2,1-4.4,3.4-4.6c0.3-0.1,0.6,0,0.5-0.5C408.3,156.1,408.9,156.2,409.4,156.5z"/>
	<path fill="#91AC75" d="M440.3,172.5c0.1-3.1,2.8-6,6.7-4.8c0.1,0,0.1,0.1,0.1,0.1c0.3,0,0.6,0.3,0.8,0.1c0.3-0.3-0.1-0.5-0.3-0.7
		c-0.3-0.7-0.2-1.3,0.4-1.9c0.5-0.5,1.4-0.5,1.9-0.2c0.6,0.4,0.9,1.2,0.7,1.9c-0.2,0.8-0.9,1.1-1.6,1.1c-0.3,0.1-0.7-0.3-0.8,0
		c-0.1,0.4,0.3,0.5,0.5,0.8c2.4,2.4,1.9,6.4-1.1,8C444.3,178.8,440.3,176.2,440.3,172.5z"/>
	<path fill="#678963" d="M400.4,174.8c-0.9-0.2-1.5-0.8-1.9-1.6c-0.1-0.1-0.1-0.4-0.4-0.3c-0.2,0-0.2,0.3-0.2,0.4
		c-0.3,0.7-0.7,1.1-1.5,1.2c-0.2,0-0.5-0.1-0.5,0.2c-0.1,0.3,0.2,0.3,0.3,0.5c0.9,0.9,1.3,2,1.2,3.3c-0.1,1.5-1,2.5-2.3,3
		c-1.4,0.6-2.7,0.5-4-0.4c-1.5-1.1-1.9-2.7-1.4-4.3c0.1-0.2,0.1-0.5,0.1-0.7c0.1-0.7,0.7-1.1,1.3-1.2c1.1-0.7,2.3-0.9,3.5-0.5
		c0.2,0.1,0.4,0.1,0.5-0.1c0.1-0.1-0.1-0.3-0.1-0.4c-0.5-0.9-0.3-1.7,0.3-2.2c0.7-0.5,1.5-0.3,2.2,0.4c0.1,0.1,0.2,0.2,0.5,0.4
		c-0.1-1.5,0.4-2.6,1.6-3.4c0.6-0.4,1.3-0.5,2-0.5c1.5,0.2,2.7,1.3,2.9,2.7c0.2,1.5-0.6,2.9-2.2,3.6
		C401.7,175.4,401.1,175.1,400.4,174.8z"/>
	<path fill="#92AE77" d="M362.3,150c-0.1,0.9-0.9,2.5-2.5,3.4c-1.9,1-3.9,0.9-5.6-0.6c-1.7-1.5-2.2-3.6-1.3-5.7
		c0.7-1.5,1.9-2.3,3.6-2.7c0.3-0.1,0.6,0.1,0.7-0.3c0.1-0.3-0.3-0.3-0.5-0.5c-0.6-0.6-0.7-1.4-0.4-2.1c0.3-0.7,1.1-1.1,1.9-1
		c0.7,0.1,1.4,0.7,1.5,1.4c0.1,0.7-0.1,1.3-0.7,1.8c-0.2,0.1-0.5,0.1-0.5,0.5c0.1,0.3,0.3,0.3,0.5,0.4
		C361.2,145.2,362.4,147.2,362.3,150z"/>
	<path fill="#91AB75" d="M446.4,24.1c-0.4,0.1-0.5,0.3,0,0.5c1,0.5,1.9,1.1,2.4,2.1c1,1.9,1,3.8-0.3,5.5c-1.2,1.6-2.9,2.1-4.8,1.9
		c-0.2,0-0.5-0.2-0.7,0c-0.3,0.3,0.1,0.5,0.1,0.7c0.3,0.9-0.1,1.6-0.9,1.9c-0.6,0.2-1.5-0.2-1.7-0.8c-0.3-0.8,0.1-1.6,0.9-1.9
		c0.3-0.1,0.7,0,0.7-0.4c0-0.3-0.3-0.4-0.5-0.5c-1.3-1-1.7-2.4-1.9-3.9c0-0.3,0.2-0.7-0.3-0.7c-0.3-0.6-0.1-1.2,0.2-1.8
		c0.2,0.2-0.1,0.7,0.3,0.8c0.4,0.1,0.4-0.5,0.5-0.7c0.9-1.6,2.4-2.3,4.2-2.5c0.3,0,0.6,0.1,0.6-0.3C445.6,23.7,446,23.5,446.4,24.1z
		"/>
	<path fill="#698C66" d="M468.5,171.1c0,2.7-2.2,5-5,5c-2.9,0-5.2-2.1-5.2-4.9c-0.1-2.7,2.2-5.1,5-5.1S468.4,168.3,468.5,171.1z"/>
	<path fill="#658861" d="M408.6,175.9c1.6-1.4,4-1.6,5.8-0.5c1.9,1.3,2.9,3.5,2.3,5.6c-0.6,2.1-2.5,3.6-4.6,3.7
		c-1.9,0.1-3.5-0.7-4.6-2.3c-1.1-1.7-1.1-3.5-0.1-5.2C407.6,176.5,408,176.1,408.6,175.9z"/>
	<path fill="#91AC76" d="M430.1,63.4c-0.1,0.5,0,0.7,0.7,0.8c1.1,0.1,1.6,1.4,0.9,2.3c-0.5,0.7-0.1,0.7,0.4,0.8
		c3.2,0.4,4.8,3.5,3.6,6.2c-0.7,1.7-2.1,2.5-4,2.6c-1.7,0.1-3.4-1.1-4.2-2.9c-0.6-1.5-0.2-3.4,0.9-4.6c0.3-0.3,0.7-0.7,1.1-0.9
		c0.5-0.2,0.6-0.5,0.1-0.8c-0.6-0.4-0.9-0.9-0.7-1.6c0.1-0.5-0.3-0.5-0.6-0.5c-0.7,0-1.3-0.3-1.6-0.9c-0.4-0.7-0.3-1.5,0.3-2.1
		c0.5-0.5,1.1-0.7,1.9-0.5C429.8,61.7,430.1,62.3,430.1,63.4z"/>
	<path fill="#688964" d="M473.6,32.3c2.3-1.6,5-1.5,6.8,0.3c2.5,2.5,1.5,7-1.9,8.2c-2,0.7-4.2,0.1-5.5-1.5c-1.4-1.7-1.6-3.6-0.5-5.6
		C472.7,33.2,473,32.6,473.6,32.3z"/>
	<path fill="#678A65" d="M431.4,91.5c-3.2,0.2-5.6-2.1-5.6-5c0-1.9,0.9-3.5,2.7-4.4s3.7-0.7,5.3,0.5c1.5,1.2,2.1,2.9,1.8,4.8
		c-0.3,1.4-0.9,2.5-2.1,3.3C433,91.6,432.3,91.8,431.4,91.5z"/>
	<path fill="#668863" d="M458.8,26.1c-1.1,2.1-3.8,3.1-6.1,2.2c-2.1-0.8-3.6-3.4-3.1-5.5c0.1-0.5,0-1.1,0.5-1.5
		c1.1-2.1,3.4-3.1,5.6-2.5c2.3,0.6,3.7,2.5,3.8,4.9c0,0.3,0,0.5,0,0.8C459.6,25.2,459.3,25.7,458.8,26.1z"/>
	<path fill="#678A65" d="M507.9,102.1c-2.7,0.7-5.2-0.5-6.2-3.1c-0.9-2.4,0.3-5.2,2.7-6.2c2.1-0.9,4.6-0.3,5.9,1.5
		c1.4,1.9,1.3,4.4-0.1,6.2c-0.1,0.1-0.2,0.2-0.3,0.3C509.7,101.8,509.2,102,507.9,102.1z"/>
	<path fill="#92AE78" d="M419.1,171.8c0.5,0.1,0.5-0.3,0.5-0.6c0.3-2.2,1.6-3.9,3.8-4.4c2.6-0.7,5.5,1.3,6,4
		c0.5,3.1-1.8,5.6-4.7,5.8c-1.8,0.1-3.3-0.7-4.2-2.2c-0.2-0.3-0.3-0.7-0.8-0.3C419.7,173.2,419.4,172.5,419.1,171.8z"/>
	<path fill="#93AC75" d="M472.9,63.8c1.7,0.2,3.2,1.1,4.1,2.9c0.2,0.5,0.3,1,0.8,0.1c0.3-0.5,0.8-0.6,1.3-0.2
		c0.5,0.3,0.6,0.8,0.3,1.3c-0.3,0.5-0.8,0.7-1.3,0.4c-0.8-0.6-0.8-0.1-0.8,0.5c-0.2,3.2-3.8,5.4-6.6,4.2c-2.2-0.9-3.3-3.3-2.9-5.1
		C468.2,65.5,470.2,63.8,472.9,63.8z"/>
	<path fill="#678A65" d="M375.5,156c0.1-0.3-0.2-0.5-0.4-0.7c-1.4-1.9-1.3-4.5,0.3-6.2c1.5-1.7,4.2-2.1,6.1-0.9
		c2.1,1.2,2.9,3.7,2.1,5.9c-0.5,1.2-1.3,2.1-2.4,2.7c-0.7,1-1.6,0.8-2.5,0.5c-0.9,0-1.8-0.3-2.5-0.9
		C375.9,156.1,375.7,155.9,375.5,156L375.5,156z"/>
	<path fill="#93AD75" d="M459,43.9c0.2,0.3,0.3,0.1,0.5,0c2.1-1.3,4-1.1,5.8,0.5c0.1,0.1,0.2,0.1,0.3,0.1c0.2-0.3,0-0.5,0-0.7
		c-0.1-0.7,0.3-1.5,1-1.7c0.7-0.3,1.3,0,1.9,0.5c0.5,0.6,0.4,1.2,0,1.9c-0.4,0.7-1.1,0.8-1.8,0.5c-0.2-0.1-0.5-0.3-0.7-0.1
		c-0.2,0.2,0.1,0.5,0.1,0.7c1.1,2.8-0.9,5.7-3.8,5.8c-0.1,0-0.1,0-0.3,0c-0.2,0.1-0.5-0.1-0.5,0.1c-0.1,0.3,0.2,0.3,0.4,0.4
		c0.5,0.4,0.9,1,0.8,1.7s-0.5,1.3-1.1,1.5c-0.7,0.3-1.3,0.1-1.9-0.4c-0.2-0.1-0.3-0.5-0.7-0.1c-0.3-0.1-0.3-0.3-0.3-0.6
		c0.4,0,0.3-0.4,0.4-0.6c0.1-1,0.7-1.5,1.7-1.7c0.2-0.1,0.5,0.1,0.5-0.2s-0.3-0.3-0.5-0.3c-1.2-0.5-2.1-1.3-2.5-2.5
		c-0.4-1.1-0.4-2.2,0.1-3.4c0.2-0.4,0.3-0.6-0.3-0.5C458.1,44.3,458.5,44,459,43.9z"/>
	<path fill="#698B65" d="M491.2,139.9c-2.7,1.5-5.4,1-7-1.3c-1.1-1.7-1-4,0.2-5.6c1.2-1.6,3.4-2.3,5.3-1.7c1.9,0.5,3.3,2.3,3.4,4.3
		c0.1,0.9-0.1,1.8-0.5,2.6C492.6,139.1,492.1,139.7,491.2,139.9z"/>
	<path fill="#6A9B84" d="M383.9,109.7c-2.6,0-4.9-2.2-4.9-4.8c0-2.6,2.1-4.8,4.8-4.8c2.8,0,5,2.1,5,4.9
		C388.9,107.5,386.6,109.7,383.9,109.7z"/>
	<path fill="#BE9A77" d="M395.1,113.5c0,2.6-2.2,4.9-4.8,4.8c-2.9-0.1-5-2-5-4.8c-0.1-2.6,2.3-4.8,5-4.8
		C392.9,108.7,395.1,110.9,395.1,113.5z"/>
	<path fill="#688A65" d="M439.9,105.3c3.3-0.3,5.3,2.3,5.2,4.8c0,0.7,0.3,0.6,0.7,0.3c0.5-0.3,1.1-0.4,1.7,0
		c0.5,0.3,0.7,0.9,0.6,1.5c-0.1,0.6-0.5,0.9-1,1.1c-0.7,0.2-1.4-0.1-1.8-0.9c-0.1-0.1-0.1-0.3-0.2-0.4c-0.3-0.1-0.3,0.2-0.4,0.3
		c-0.7,1.1-1.6,1.9-2.9,2.4c-0.7,0.2-1.3,0.1-1.9,0c-1.8-0.1-3.5-1.7-3.8-3.6c-0.4-2.1,0.6-4.1,2.4-5
		C438.8,105.4,439.3,105,439.9,105.3z"/>
	<path fill="#90AC75" d="M342.6,122.3c0.1-2.8,2.2-5,5.1-4.8c2.6,0.1,4.4,1.9,4.5,4.7c0.1,3-2.2,5-4.9,5
		C344.7,127.2,342.5,125,342.6,122.3z"/>
	<path fill="#839B6C" d="M391.3,174.8c-0.9,0.3-1.1,1.1-1.5,1.9c0-0.7-0.3-0.3-0.6-0.2c-1.7,1.1-3.9,1-5.4-0.1
		c-2-1.5-2.6-4.2-1.3-6.3c1.2-2.1,3.9-2.9,6.2-1.9c2.1,0.9,3.3,3.5,2.5,5.8C391.1,174.3,390.6,174.6,391.3,174.8z"/>
	<path fill="#95AF77" d="M453,123.5c-0.2-0.2-0.4-0.1-0.5,0.1c-0.1,0.1-0.3,0.3-0.4,0.3c-1.2,0-0.9,0.4-0.4,1.1
		c1.8,3.3-0.1,6.8-3.8,7.1c-1.9,0.1-3.8-1.1-4.4-2.7c-0.8-2-0.3-4.1,1.2-5.5c0.2-0.2,0.8-0.4,0.1-0.8c0.3-0.3,0.7-0.5,1.1-0.5
		c0,0.5,0.3,0.3,0.6,0.3c1.3-0.3,2.5-0.1,3.6,0.5c0.2,0.1,0.3,0.2,0.5,0.1c0.2-0.1,0.1-0.3,0.1-0.4c-0.1-0.5,0.1-0.9,0.5-1.1
		s0.7-0.3,1.1,0c0.3,0.3,0.5,0.2,0.7-0.1C453.4,122.4,453.2,122.9,453,123.5z"/>
	<path fill="#678963" d="M453.4,157.6c-2.7,1.8-5.2,0.7-6.6-0.7c-1.3-1.4-1.5-3.8-0.6-5.5c0.9-1.7,3-2.7,4.9-2.4
		c2.1,0.4,3.8,1.9,4.1,3.9c0.3,1.4-0.1,2.6-0.8,3.8C454.1,157.1,453.8,157.5,453.4,157.6z"/>
	<path fill="#678963" d="M370,42c-2.9,0.1-4.8-2.3-4.8-4.8c0-2.6,2.3-4.7,4.9-4.6c2.8,0.1,4.8,2.1,4.8,5C374.9,40.1,372.8,42,370,42
		z"/>
	<path fill="#688A63" d="M420.4,141c-2.5-0.5-4-2.9-3.7-5.4c0.3-2.3,2.8-4.3,5.2-4c2.7,0.3,4.6,2.4,4.4,5c-0.1,2.7-2.4,4.7-5.1,4.6
		C420.9,141,420.6,141.2,420.4,141z"/>
	<path fill="#6B9C84" d="M345.4,86.7c0,2.7-2,4.6-4.8,4.8c-2.7,0.1-4.8-2.1-4.8-4.8c0-2.6,2.1-4.7,4.8-4.7
		C343.3,82,345.4,84,345.4,86.7z"/>
	<path fill="#859D6E" d="M468.6,144.7c-0.1-0.5-0.5-0.3-0.7-0.3c-3.6-0.1-5.8-3.4-4.5-6.6c0.8-1.9,3.1-3.2,5.2-2.7
		c2.2,0.4,3.8,2.2,3.9,4.4c0.1,2.2-0.9,3.8-3,4.6c-0.3,0.1-0.7,0.1-0.3,0.5C469.1,145,468.9,144.9,468.6,144.7z"/>
	<path fill="#678963" d="M369.7,65.1c-3.2,0.7-5.3-1.6-5.8-3.8c-0.5-2.3,1.3-5,3.6-5.5c2.7-0.5,5.3,1.1,5.8,3.6
		c0.3,1.9-0.2,3.4-1.7,4.7C371.2,65,370.5,65.1,369.7,65.1z"/>
	<path fill="#678963" d="M392.5,28.6c-2.6,0-4.8-2.1-4.8-4.7c0-2.6,2.2-4.8,4.8-4.8c2.7,0.1,4.8,2.1,4.8,4.7
		C397.3,26.4,395.1,28.6,392.5,28.6z"/>
	<path fill="#688B65" d="M485.9,103c2,0,3.7,1.2,4.3,3.2c0.5,1.9-0.1,3.8-1.7,4.9c-0.1,0.1-0.2,0.1-0.3,0.2
		c-0.2,0.1-0.5,0.2-0.5,0.4c0,0.3,0.3,0.3,0.5,0.4c0.7,0.3,1.1,1.1,0.9,1.8c-0.2,0.7-0.7,1.1-1.5,1.1c-0.7,0-1.3-0.5-1.5-1.3
		c-0.1-0.5,0.1-0.9,0.4-1.3c0.1-0.2,0.5-0.3,0.3-0.5c-0.1-0.2-0.5-0.1-0.7,0c-3.2,0.1-5.4-2.7-4.5-5.8
		C482.2,104.2,483.9,103,485.9,103z"/>
	<path fill="#678A64" d="M400.5,159.9c-2.2,0.5-4.4-0.2-5.5-2c-1-1.5-0.9-3.8,0.2-5.4c1.1-1.5,3.2-2.2,5.2-1.7
		c1.7,0.5,3.2,2.1,3.4,4c0.3,1.9-0.7,3.8-2.5,4.8C401,159.7,400.9,160,400.5,159.9z"/>
	<path fill="#659881" d="M396.3,30.4c-0.4-2.6,1.5-5,4-5.4c3.6-0.5,5.4,2.3,5.5,4.5c0.1,2.3-1.7,4.4-4,4.8c-0.3,0.1-0.7,0.1-1,0.1
		c-0.9,0.3-1.4,0.2-2-0.7c-0.7-0.4-1.3-1-1.7-1.7C396.1,31.6,396.1,31,396.3,30.4z"/>
	<path fill="#839B6D" d="M500.1,64.9c2.3,0,4.3,1.7,4.6,4c0.3,2.3-1.3,4.5-3.6,5c-0.7,0.1-0.9,0.3-0.5,1c0.3,0.6,0.1,1.1-0.5,1.5
		c-0.6,0.3-1.2,0.3-1.7-0.3c-0.4-0.5-0.5-1.1,0-1.5c0.5-0.6,0.5-0.8-0.3-1.1c-1.7-0.8-2.7-2.6-2.5-4.4c0.1-1.9,1.5-3.5,3.3-4
		C499.3,65,499.7,65,500.1,64.9z"/>
	<path fill="#869E6F" d="M497.3,144.6c0.8,3.4,0.2,5.3-1.9,6.3c-2,0.9-4.2,0.4-5.5-1.3c-1.3-1.6-1.2-4.1,0.1-5.6
		c0.9-1,2-1.6,3.4-1.5c1.3,0,2.4,0.6,3.5,1.5c0.1-0.9,0.1-1.7,0.8-2.2c0.4-0.3,0.8-0.3,1.2-0.2c0.8,0.2,1.3,1.1,1.2,1.8
		C499.9,144.7,499.1,144.9,497.3,144.6z"/>
	<path fill="#94AF7A" d="M411.2,138.8c-2.6,0-4.8-2.3-4.8-4.5c0-2.7,2.1-4.9,4.8-4.9c2.6,0.1,4.6,1.9,4.7,4.8
		C415.9,136.8,413.7,138.8,411.2,138.8z"/>
	<path fill="#869D6E" d="M481.4,161.8c-0.9,2.1-2.7,3.4-4.8,3.2c-2-0.1-3.8-1.7-4.2-3.6c-0.6-2.6,1-5.1,3.6-5.6
		c2.6-0.5,5.1,1.2,5.6,3.8C482.1,160.6,482.1,160.8,481.4,161.8z"/>
	<path fill="#659781" d="M377.3,161.4c2.6,0,4.7,2.1,4.6,4.8c0,2.5-2.1,4.6-4.8,4.6c-2.4,0-4.6-2.3-4.5-4.8
		C372.6,163.4,374.7,161.4,377.3,161.4z"/>
	<path fill="#A5856B" d="M453.7,134.3c-0.1,0.3,0.1,0.5,0.3,0.7c1.5,1.2,2.1,3.2,1.7,4.9c-0.5,1.9-2,3.2-4,3.4
		c-1.7,0.2-3.8-0.8-4.6-2.3c-0.9-1.6-0.8-3.4,0.3-4.9c1-1.5,2.5-2.2,4.4-2c0.3,0,0.7,0.3,0.7-0.3
		C452.9,133.7,453.3,134.1,453.7,134.3z"/>
	<path fill="#658862" d="M459.5,76c0.7,1.4,0.7,2.8,0.1,4.2c-0.1,0.5-0.3,0.9-0.8,1.1c-0.5,0.5-1,0.9-1.7,1.1
		c-0.5,0.4-0.9,0.5-1.5,0.3c-2.4,0-4.2-1.5-4.7-3.9c-0.4-2,0.7-4.2,2.7-5c1.9-0.9,4-0.3,5.6,1.4C459.2,75.6,459.5,75.8,459.5,76z"/>
	<path fill="#688A64" d="M349.5,104.2c-2.6,0-4.7-2.1-4.7-4.7c0-2.5,2.1-4.6,4.7-4.6c2.5,0,4.6,2.1,4.6,4.6
		C354.2,102.1,352.1,104.2,349.5,104.2z"/>
	<path fill="#658661" d="M383.8,65.6c-1.8-1.6-1.9-4.6-0.3-6.4c1.8-1.9,4.8-2.1,6.6-0.4c1.5,1.5,1.9,3.6,1,5.5
		c-0.8,1.7-3,2.8-4.9,2.5c-0.5-0.1-1.1-0.3-1.5-0.6C384.2,66.2,384,65.9,383.8,65.6z"/>
	<path fill="#93AD75" d="M364.3,83.6c-0.3,0.5,0.1,0.4,0.4,0.5c1.9,0.4,3.4,1.3,3.9,3.3c0.5,1.9,0.1,3.5-1.3,4.8
		c-1.4,1.2-2.9,1.5-4.7,0.8c-1.9-0.8-2.9-2.2-2.9-4.2c0-1.8,0.9-3.2,2.5-4.1c0.3-0.1,0.7-0.3,0.3-0.7
		C363.1,83.9,363.7,84,364.3,83.6z"/>
	<path fill="#92AD75" d="M447.2,98.5c-0.1-2.5,1.7-4.8,4.4-4.8c2.5,0,4.7,1.5,4.8,4.6c0.1,2-1.7,4.4-4.2,4.6
		C449.4,103,447.3,101.1,447.2,98.5z"/>
	<path fill="#93AE77" d="M453.2,111.4c0.3,0.3,0.5,0.1,0.6-0.2c0.3-0.8,0.8-1.5,1.4-2.1c0.3-0.3,0.3-0.5,0.1-0.7
		c0-0.1,0.1-0.1,0.1-0.1c0.7,0.1,1.4-0.1,2-0.5c0.1,0.4,0.3,0.3,0.6,0.3c2.6,0,4.6,1.7,4.8,4.3c0.2,2.1-1.3,4.4-3.8,4.8
		c-2.8,0.4-5-1.4-5.3-4c-0.1-0.3-0.2-0.4-0.5-0.4C453,112.3,453,111.9,453.2,111.4z"/>
	<path fill="#829A6B" d="M386.6,51.4c0.3-0.4-0.1-0.5-0.3-0.8c-1.5-2.3-0.9-5.3,1.4-6.6c2.4-1.3,5.4-0.4,6.5,2
		c0.4,0.8,0.5,1.7,0.3,2.6c-0.1,0.4-0.3,0.8-0.1,1.2c-0.1,0.5-0.3,1-0.8,1.3c-0.9,0.3-1.5,1.1-2.4,1.3c-0.5,0.4-1.1,0.3-1.7,0
		c-0.7,0-1.3-0.3-1.9-0.6c-0.2-0.1-0.4-0.4-0.7-0.1C386.7,51.8,386.6,51.6,386.6,51.4z"/>
	<path fill="#559C90" d="M436,17.4c-0.1,2.5-2.1,4.6-4.6,4.6c-2.4,0-4.6-2.3-4.6-4.6c0.1-2.7,2.1-4.7,4.8-4.6
		C434,12.7,436.1,14.9,436,17.4z"/>
	<path fill="#93AD76" d="M428.7,97.1c0.2,0.7,0.5,0.1,0.7,0.1c1-0.5,2-0.7,3.1-0.4c1.9,0.4,3.5,2.3,3.6,4.3s-1.3,4-3.2,4.6
		c-2,0.6-4,0-5-1.6c-1.2-1.7-1.2-3.8,0-5.6c0.1-0.2,0.5-0.4,0.2-0.7C428.1,97.3,428.3,97.1,428.7,97.1z"/>
	<path fill="#859C6C" d="M462.5,78.2c0-2.5,2-4.4,4.7-4.4c2.5,0,4.5,2.1,4.5,4.5s-2.1,4.6-4.5,4.6C464.5,82.8,462.5,80.8,462.5,78.2
		z"/>
	<path fill="#688B65" d="M473.7,143.3c0.1-0.3-0.1-0.5-0.2-0.7c-0.5-1.5,0.3-2.9,1.8-3.4c0.2-0.1,0.5,0,0.5-0.3s-0.3-0.3-0.4-0.4
		c-1.5-1.1-2-2.6-1.6-4.2c0.4-1.5,1.7-2.6,3.2-2.7c1.7-0.2,3.2,0.7,4,2.2c0.7,1.5,0.3,3.1-1,4.4c-0.1,0.2-0.3,0.4-0.5,0.4
		c-0.5,0.3-1.1,0.4-1.7,0.5c-0.1,0-0.4-0.1-0.5,0.2c-0.1,0.2,0.2,0.3,0.3,0.4c1.3,1.3,1.3,2.7,0,4c-0.1,0.3-0.5,0.4-0.8,0.5
		c-1,0.2-1.9,0.1-2.6-0.7C473.9,143.3,473.8,143.3,473.7,143.3L473.7,143.3z"/>
	<path fill="#869C6B" d="M379.8,129.2c0-2.4,2.1-4.4,4.6-4.4c2.6,0,4.6,2.1,4.6,4.8c0,2.3-2.2,4.4-4.7,4.4S379.8,131.8,379.8,129.2z
		"/>
	<path fill="#839C6C" d="M348.7,62.5c2.5,0,4.6,2.1,4.6,4.6c0,2.5-2.1,4.6-4.7,4.5c-2.5-0.1-4.5-2.1-4.5-4.7
		C344.1,64.5,346.2,62.5,348.7,62.5z"/>
	<path fill="#658762" d="M488.8,78.2c0,2.5-2,4.6-4.6,4.5c-2.5,0-4.6-2.1-4.6-4.6c0-2.4,2.1-4.4,4.5-4.4
		C486.8,73.6,488.8,75.6,488.8,78.2z"/>
	<path fill="#839B6D" d="M428.5,25.1c0,2.6-1.9,4.6-4.6,4.6c-2.5,0-4.5-2-4.5-4.6c0-2.5,2-4.5,4.5-4.5S428.5,22.5,428.5,25.1z"/>
	<path fill="#869D6D" d="M506.8,128.1c0,2.5-2.1,4.6-4.6,4.5c-2.4-0.1-4.4-2.1-4.4-4.6c0-2.5,2.1-4.6,4.6-4.6
		C504.8,123.5,506.8,125.6,506.8,128.1z"/>
	<path fill="#678761" d="M436.1,65.1c-2.9,0.5-5-1-5.6-3.9c-0.4-2.2,1.3-4.6,3.6-5c0.6,0,1.2-0.3,1.9,0c1.7,0.4,2.7,1.5,3.4,3.1
		c0.5,0.5,0.3,1.2,0.3,1.8c0,0.3-0.1,0.7-0.2,1c-0.2,0.5-0.3,0.9-0.8,1.2c-0.4,0.7-1,1.1-1.7,1.5C436.7,65,436.5,65.2,436.1,65.1z"
		/>
	<path fill="#B08867" d="M433.1,131.1c1.3-0.8,2.6-0.7,3.8,0.2c1.3,0.9,1.7,2.2,1.5,3.7c-0.3,1.4-1.1,2.4-2.6,2.8
		c-0.9,0.3-0.9,0.3-0.3,0.9c0.6,0.7,0.7,1.7,0.3,2.5c-0.4,0.7-1.4,1.1-2.2,1c-0.8-0.1-1.4-0.9-1.5-1.7c-0.1-0.8,0.4-1.7,1.2-2.1
		c0.2-0.1,0.5,0,0.5-0.3c0-0.3-0.3-0.3-0.5-0.4c-0.9-0.4-1.5-1.1-1.7-2c-0.1-0.2-0.1-0.5-0.4-0.5c-0.3,0-0.2,0.3-0.2,0.5
		c-0.2,0.9-0.8,1.4-1.7,1.5c-0.7,0-1.5-0.5-1.7-1.3c-0.2-0.7,0.1-1.6,0.8-2c0.7-0.4,1.5-0.2,2.1,0.4c0.1,0.1,0.1,0.2,0.3,0.3
		c0.1,0.1,0.1,0.3,0.4,0.2c0.1-0.1,0.1-0.2,0.1-0.3c0-0.6,0.1-1.1,0.3-1.7C431.6,131.7,432.2,131.3,433.1,131.1z"/>
	<path fill="#92AE78" d="M430.1,147.2c0,2.5-2.1,4.5-4.5,4.5c-2.4,0-4.6-1.9-4.6-4.7c0-2.3,2.2-4.4,4.7-4.4
		C428.1,142.7,430.1,144.7,430.1,147.2z"/>
	<path fill="#6A9B84" d="M489.8,79.6c0-2.5,2-4.5,4.5-4.5s4.6,2.1,4.5,4.6c-0.1,2.5-2.1,4.5-4.6,4.4
		C491.8,84.1,489.8,82.1,489.8,79.6z"/>
	<path fill="#94AF78" d="M488.1,118.1c-0.1-2.3,2-4.5,4.5-4.4c2.4,0.1,4.4,2.1,4.4,4.6c0,2.3-1.8,4.5-4.6,4.5
		C489.8,122.7,488,120.3,488.1,118.1z"/>
	<path fill="#BE9A76" d="M354.4,118.3c0.6-0.3,0.3-0.8,0.4-1.2c0.4-2.4,2.5-3.8,4.7-3.7c2.2,0.1,4.1,2,4.2,4.3
		c0.1,0.8-0.2,1.5-0.5,2.2c-0.5,0.9-0.5,0.9,0.5,1.2c-0.1,0.1-0.2,0.2-0.3,0.2c-0.7-0.1-1.1,0.2-1.6,0.6c-0.3-0.3-0.7-0.1-0.9,0.1
		c-2.2,0.9-4.6-0.4-5.5-2.2c-0.1-0.2-0.2-0.5-0.5-0.5C354.5,119,354.3,118.7,354.4,118.3z"/>
	<path fill="#849C6D" d="M411,36.6c0.1-0.2,0.5,0,0.5-0.4c-0.1-0.3-0.3-0.2-0.5-0.3c-1.7-0.5-3.2-2-3.4-3.8
		c-0.2-1.8,0.8-3.6,2.4-4.4c1.7-0.8,3.7-0.4,5,1c0.1,0.1,0.2,0.3,0.3,0.3c0.8,0.4,0.7,1.1,0.8,1.8c0,0.3,0.1,0.7,0.1,1
		c0,0.5,0.1,0.7,0.6,0.7c0.5-0.1,0.8,0.3,0.9,0.7c0.1,0.4,0.1,0.9-0.3,1.3c-0.3,0.3-0.8,0.5-1.1,0.3c-0.8-0.6-1.3-0.3-1.9,0.3
		c-0.5,0.5-1.1,0.6-1.7,0.7c-0.3,0.1-0.7,0.1-0.5,0.7C411.8,36.9,411.4,36.9,411,36.6z"/>
	<path fill="#699A84" d="M472,127c-0.1-1.3-0.1-2.7,0.9-3.8c1.5-1.8,3.8-2.2,5.8-1.1c1.8,1,2.7,3.2,1.9,5.3
		c-0.1,0.3-0.2,0.5-0.3,0.8c-0.1,0.3-0.3,0.6-0.6,0.7c-1.9,1.8-4.2,1.6-5.8,0.7c-0.5-0.3-0.9-0.8-1.3-1.1
		C472.2,128.1,471.8,127.6,472,127z"/>
	<path fill="#839A6B" d="M409.4,156.5c-0.6,0-1.2-0.1-1.8-0.2c-2.8-1-4-4.6-2-7c1.1-1.3,3-1.9,4.6-1.5c2,0.5,3.2,2.3,3.3,4
		c0.1,1.7-0.8,3.4-2.4,4.2C410.6,156.3,410.1,156.6,409.4,156.5z"/>
	<path fill="#829A6B" d="M453,50.5c-0.5-0.3-0.5,0.2-0.6,0.4c-1.9,2.7-5.6,2.8-7.4,0.3c-1.1-1.5-1.1-3.5-0.1-5.2
		c0.9-1.3,2.9-2.2,4.5-1.9c1.7,0.3,3.2,1.7,3.6,3.5c0.1,0.3-0.1,0.6,0.3,0.7C453.1,48.9,452.9,49.7,453,50.5z"/>
	<path fill="#879D6E" d="M418,104.7c-2.6,0-4.4-1.9-4.4-4.8c0-2.1,2.2-4.1,4.6-4c2.4,0,4.4,2,4.4,4.4
		C422.4,102.8,420.4,104.7,418,104.7z"/>
	<path fill="#94AF78" d="M458.8,26.1c0.2-0.5,0.4-1,0.6-1.5c0.3,0.1,0.5-0.1,0.7-0.3c2-2.6,5.8-2.4,7.5,0.4c1.5,2.6-0.1,6.3-3.5,6.6
		c-2.7,0.2-5-1.8-4.9-4.6C459.3,26.3,459.4,25.9,458.8,26.1z"/>
	<path fill="#839C6C" d="M489.2,66.2c0.7,1.7,0,4.2-1.7,5.2c-0.5,0.3-0.6,0.5,0,0.8c0.4,0.2,0.5,0.7,0.3,1.1
		c-0.2,0.4-0.6,0.5-0.9,0.3c-0.5-0.1-0.7-0.5-0.5-0.9c0.3-0.8-0.2-0.7-0.6-0.6c-2.1,0.3-4-0.8-4.8-2.8c-0.7-1.9,0.1-4.2,1.7-5.2
		c1.9-1.1,4-0.9,5.6,0.7C488.8,65.1,489.2,65.5,489.2,66.2z"/>
	<path fill="#8FAC75" d="M385.5,25.9c-0.1,0.5,0.3,0.4,0.5,0.5c2.4,0.9,3.4,2.7,2.9,5.2c-0.5,2.5-3.6,4-5.9,2.7
		c-2.1-1.1-2.9-3.2-2.1-5.4c0.2-0.6,0.2-0.8-0.5-0.7c-0.8,0.1-1.3-0.5-1.3-1.3c0-0.7,0.5-1.3,1.3-1.3s1.3,0.5,1.3,1.3
		c0.1,0.5,0.2,0.6,0.6,0.3s0.9-0.5,1.5-0.7c0.3-0.1,0.5-0.1,0.4-0.5C384.6,25.5,385,25.5,385.5,25.9z"/>
	<path fill="#6B8E67" d="M484.1,158.7c-1.4-0.9-2.1-2.3-1.8-4c0.3-1.8,1.3-2.9,3.1-3.4c0.9-0.3,0.9-0.2,0.3-0.9
		c-0.6-0.6-0.7-1.5-0.3-2.1c0.3-0.6,1.1-1.1,1.8-0.9c0.8,0.1,1.4,0.7,1.5,1.5c0.1,0.7-0.3,1.5-1,1.9c-0.2,0.1-0.5,0-0.5,0.3
		c0,0.3,0.4,0.3,0.6,0.3c1.9,0.8,2.8,2.3,2.7,4.3c-0.2,1.7-1.5,3.2-3.4,3.6c-0.6,0.1-1.2,0-1.8-0.1
		C484.7,159.1,484.3,159.1,484.1,158.7z"/>
	<path fill="#649780" d="M459,43.9c-0.3,0.3-0.6,0.7-0.9,0.9c-1.5,1.2-3.2,1.3-4.8,0.5c-1.5-0.7-2.3-1.9-2.4-3.6
		c-0.2-1.9,0.7-3.4,2.3-4.3c1.6-0.9,4-0.5,5.3,0.7C459.8,39.8,460.1,41.8,459,43.9z"/>
	<path fill="#92AD76" d="M480.8,99.6c-2.5,0-4.4-1.9-4.4-4.4c0-2.4,2.1-4.4,4.4-4.4c2.5-0.1,4.6,2.1,4.6,4.5
		C485.3,97.7,483.4,99.6,480.8,99.6z"/>
	<path fill="#668863" d="M418.4,52.1c-0.5,0.3-1.1,0.5-1.6,0.7c-0.9,0.7-2.7,0.3-3.4-0.8c-2.7-2.3-2.3-6.1,0.7-7.6
		c1.7-0.7,3.5-0.5,4.8,0.7c1.3,1.2,1.7,2.9,1.1,4.7C420.1,51.1,419.6,51.8,418.4,52.1z"/>
	<path fill="#BD9976" d="M443.1,93.1c0.1-0.6-0.3-0.5-0.6-0.3c-1.3,0.6-2.5,0.3-3.8-0.2c-1.9-0.9-2.7-3.7-2-5.3
		c0.3-0.7,0.7-1.4,1.3-1.9c0.2-0.1,0.4-0.3,0.3-0.6c0.1-0.2,0.2-0.5,0.6-0.3c0.3,0.3,0.7,0.1,1,0.1c1.8-0.3,3.3,0.2,4.4,1.7
		c1.1,1.5,1.2,3.2,0.2,4.9c-0.1,0.3-0.3,0.5-0.5,0.8c0.3,0.3,0.5,0.1,0.8,0.1c0.1,0.3-0.3,0.3-0.5,0.4
		C443.9,92.6,443.6,93,443.1,93.1z"/>
	<path fill="#BE9976" d="M469,88.4c0.1,2.5-2.2,4.4-4.4,4.4c-2.5-0.1-4.4-1.8-4.4-4.3c0-2.9,2.3-4.5,4.5-4.4
		C467.1,84.1,469,86,469,88.4z"/>
	<path fill="#688B64" d="M429.6,156.8c2.5,0,4.4,1.9,4.5,4.4c0,2.4-1.9,4.4-4.3,4.5c-2.4,0-4.5-2-4.5-4.4
		C425.2,158.8,427.1,156.8,429.6,156.8z"/>
	<path fill="#679882" d="M438.5,162.3c0-2.5,1.9-4.4,4.2-4.4c2.5,0,4.4,1.9,4.5,4.3c0,2.5-1.9,4.4-4.3,4.4
		C440.5,166.7,438.5,164.8,438.5,162.3z"/>
	<path fill="#90AB73" d="M396.1,43.8c0.1-0.1,0.3-0.3,0.3-0.4c1-1.5,2.7-2.3,4.6-1.9c0.3,0.1,0.7,0.3,0.7-0.2
		c0.5,0.1,1.1,0.2,1.3,0.8c0,0.3,0.2,0.5,0.3,0.7c1.8,2.2,1.5,5-0.9,6.6c-2.7,1.7-6,0.3-6.6-2.9c-0.1-0.7-0.3-1.2-1.1-1.3
		c0.1-0.1,0.1-0.1,0.3-0.1C395.8,45,396,44.5,396.1,43.8z"/>
	<path fill="#6B9B84" d="M389,77c-1.1,0.2-2.3,0.3-3.4-0.3c-1.8-0.9-2.7-2.4-2.5-4.5c0.2-1.7,1.6-3.2,3.5-3.6
		c1.7-0.4,3.6,0.4,4.6,1.9c1.4,2.3,0.7,4.8-1.9,6.3C389.2,77,389.2,77.1,389,77z"/>
	<path fill="#569C8E" d="M497.6,94.5c-0.9,1-2.1,1.7-3.6,1.7c-2.4-0.1-4.4-1.9-4.4-4.4c0.1-2.6,2.3-4.6,4.6-4.4c0.1,0,0.3,0,0.5,0.1
		c0.1,0.1,0.2,0.2,0.3,0.3c0.3,0.2,0.7,0.3,1.1,0.3c0.9,0.1,1.3,0.8,1.7,1.5c0.8,1.5,0.8,2.9,0,4.4
		C497.8,94.3,497.7,94.4,497.6,94.5z"/>
	<path fill="#BE9977" d="M414.5,81.2c0,2.4-1.9,4.3-4.5,4.2c-2.3,0-4.3-1.9-4.2-4.4c0-2.4,2-4.4,4.4-4.4
		C412.5,76.7,414.5,78.7,414.5,81.2z"/>
	<path fill="#688B65" d="M359.9,132.9c-2.5,0-4.4-1.8-4.4-4.2c0-2.5,1.9-4.4,4.4-4.5c2.3-0.1,4.3,1.9,4.4,4.2
		C364.3,130.9,362.4,132.9,359.9,132.9z"/>
	<path fill="#5A9E91" d="M378.1,132.4c-0.1,0.7,0.4,0.4,0.7,0.4c1.9,0.1,3.2,0.9,4,2.7c1.1,2.5-0.7,5.5-3.3,5.9
		c-2.5,0.3-4.3-1.3-4.8-2.8c-0.6-1.7-0.2-4,1.9-5.2c0.2-0.1,0.4-0.2,0.3-0.5C377.2,132.5,377.6,132.3,378.1,132.4z"/>
	<path fill="#AF8665" d="M473.1,105.4c-2.2,0-4.3-2-4.3-4.3c0-2.2,2-4.3,4.2-4.3c2.4-0.1,4.6,1.9,4.6,4.2
		C477.6,103.5,475.7,105.4,473.1,105.4z"/>
	<path fill="#5A9E92" d="M393,89.8c0.8-0.3,1.6,0.1,2.4,0c0.5,0.3,1.1,0.3,1.5,0.7c-0.3,0.1-0.2,0.3-0.1,0.4
		c0.6,0.6,0.9,1.4,1.3,2.2c0.3,0.4,0.3,0.8,0,1.3c-0.5,1.9-1.5,3.4-3.6,3.8c-2.2,0.5-4.3-0.7-5-2.9c-0.6-1.9-0.1-3.9,2-5.1
		C392.1,89.8,392.5,89.9,393,89.8z"/>
	<path fill="#559C8F" d="M342.1,109c2.5,0.1,4.4,1.9,4.3,4.4c-0.1,2.3-2.1,4.2-4.4,4.1c-2.5-0.1-4.4-2-4.3-4.4
		C337.8,110.9,339.8,109,342.1,109z"/>
	<path fill="#579D90" d="M425.1,73.7c-0.1,2.7-2.1,4.2-4.2,4.2c-2.5,0.1-4.4-1.9-4.4-4.4c0-2.2,2.1-4.2,4.2-4.2
		C423.1,69.4,425.1,71.3,425.1,73.7z"/>
	<path fill="#679983" d="M480.2,60.5c0.5,0,0.3-0.3,0.2-0.5c-0.7-1.5-0.6-3,0.4-4.5c1.1-1.5,3.2-2.2,5-1.5c1.9,0.8,2.9,2.7,2.7,4.7
		c-0.3,1.9-1.9,3.4-3.8,3.6c-1.4,0.1-2.5-0.4-3.5-1.3c-0.2-0.1-0.3-0.6-0.7-0.2C480.3,60.8,480.2,60.7,480.2,60.5z"/>
	<path fill="#BF9B78" d="M410.9,95.3c0,0.6-0.3,1.4-1,2.1c-0.3,0.3-0.5,0.6,0.2,0.7c1.3,0.1,2.2,1.3,2.1,2.5
		c-0.1,1.3-1.1,2.3-2.4,2.3c-1.3,0-2.4-1.1-2.5-2.4c0-0.5,0.2-0.8,0.4-1.2c0.2-0.5,0.3-0.7-0.4-0.7c-1.3-0.1-2.5-0.7-3.2-1.9
		c-0.7-1.3-0.5-2.8,0.4-4c1.1-1.2,2.5-1.5,4.1-1C410,92.1,410.9,93.5,410.9,95.3z"/>
	<path fill="#549C8E" d="M432.8,174.8c1.1,0.3,2.1,0.8,2.8,1.8c1.1,1.5,1.1,3.4,0.1,5c-1.1,1.5-2.8,2.2-4.6,1.7
		c-1.7-0.5-3.2-2.1-3.3-3.9c-0.1-1.8,1.1-3.8,2.8-4.3c0.3-0.1,0.7-0.2,1-0.3C432,174.6,432.4,174.6,432.8,174.8z"/>
	<path fill="#579D90" d="M464.7,32.6c2.4,0,4.4,1.9,4.4,4.4c0,2.3-1.9,4.2-4.4,4.2c-2.3,0-4.2-1.9-4.2-4.2
		C460.5,34.5,462.3,32.6,464.7,32.6z"/>
	<path fill="#94AF78" d="M460,148.4c1.5,0.1,1.9,0.7,1.2,2.1c-0.3,0.6,0.2,0.5,0.5,0.5c1.4-0.1,2.6,0.5,3.6,1.5
		c1,1.2,1.1,2.5,0.7,3.9c-0.5,1.5-1.6,2.3-3.1,2.6c-2.3,0.5-4-0.9-4.7-2.6c-0.7-1.9,0-3.9,1.9-5c0.5-0.3,0.7-0.5,0-0.8
		c-0.5-0.1-0.6-0.5-0.7-0.9c0-0.3-0.2-0.4-0.5-0.4C459.1,148.9,459.5,148.6,460,148.4z"/>
	<path fill="#BD9A76" d="M433.5,125.3c-2.4,0-4.3-1.9-4.3-4.3c0.1-2.6,1.9-4.3,4.3-4.3c2.3,0,4.2,1.9,4.2,4.4
		C437.8,123.4,435.9,125.3,433.5,125.3z"/>
	<path fill="#A7876B" d="M471,113.7c2.5,0,4.3,1.9,4.2,4.4c0,2.2-2.1,4.2-4.4,4.2c-2.3-0.1-4.2-2-4.2-4.4
		C466.7,115.4,468.6,113.6,471,113.7z"/>
	<path fill="#579E91" d="M431.2,114c-0.1,2.5-1.9,4.2-4.2,4.2c-2.3,0.1-4.3-1.9-4.3-4.2c0-2.4,2-4.3,4.4-4.3
		C429.4,109.7,431.2,111.6,431.2,114z"/>
	<path fill="#BE9B78" d="M395.2,76c0.1,0.5,0.6,0.4,0.9,0.4c1.9,0.3,3.2,1.6,3.6,3.6c0.3,1.7-0.7,3.5-2.3,4.4
		c-1.9,0.9-4.7,0.5-5.8-2.1c-1-2.3,0.1-4.6,2.3-5.6c0.4-0.2,0.9-0.1,1.2-0.3C395.1,76.3,395.1,76.2,395.2,76
		C395.2,76,395.2,76,395.2,76z"/>
	<path fill="#859B6B" d="M436.1,153c-2.2-0.1-4-1.7-4.2-3.8c-0.1-2.5,1.3-4.4,3.8-4.7c1.9-0.3,4.2,1.1,4.6,3.3
		c0.5,2.2-0.7,4.4-3,5.1C436.9,152.8,436.5,153.1,436.1,153z"/>
	<path fill="#698A65" d="M376.9,77.8c2.4,0.1,4.3,2,4.2,4.4c-0.1,2.3-2,4.2-4.4,4.1c-2.3-0.1-4.2-2.1-4.1-4.4
		C372.6,79.6,374.6,77.8,376.9,77.8z"/>
	<path fill="#B18767" d="M401.3,97.3c2.4,0,4.2,1.8,4.2,4.2c0,2.3-1.9,4.2-4.2,4.2s-4.2-1.9-4.3-4.2C397,99.2,399,97.3,401.3,97.3z"
		/>
	<path fill="#839C6C" d="M362.4,44.4c2.3,0,4.2,1.9,4.2,4.1c0,2.6-2,4.3-4.2,4.4c-2.4,0-4.3-1.9-4.3-4.4
		C358.1,46.4,360.1,44.4,362.4,44.4z"/>
	<path fill="#94AE78" d="M382,57.7c-0.1,1.3-0.7,2.5-2.2,3.3c-0.2,0.1-0.5,0.1-0.5,0.4c0,0.3,0.4,0.2,0.6,0.2
		c0.9,0.2,1.5,0.9,1.5,1.7c-0.1,0.9-0.7,1.6-1.5,1.7c-0.9,0.1-1.6-0.5-1.8-1.3c-0.1-0.6,0.1-1.1,0.5-1.5c0.1-0.1,0.5-0.3,0.3-0.6
		c-0.1-0.2-0.4-0.2-0.7-0.2c-2.1,0-3.6-1.2-4-3.4c-0.3-1.7,0.8-3.6,2.5-4.2C379.3,52.9,381.9,54.7,382,57.7z"/>
	<path fill="#849C6C" d="M368.5,81.2c0.3-0.5,0-0.5-0.3-0.5c-0.7,0-1.5,0.1-2.1-0.2c-1.9-0.7-3-2.7-2.7-4.7c0.3-1.8,2.1-3.4,4-3.4
		c2-0.1,3.9,1.3,4.4,3.2c0.4,1.7-0.3,3.6-1.9,4.6c-0.2,0.1-0.6,0.1-0.5,0.5c0.1,0.3,0.5,0.1,0.7,0.2c0.1,0.1,0.2,0.1,0.3,0.1
		C369.7,81.4,369.2,81.4,368.5,81.2z"/>
	<path fill="#BE9A77" d="M414.2,121.4c0.1-0.3-0.3-0.3-0.4-0.3c-0.7-0.1-1.3-0.3-1.8-0.6c-0.3-0.2-0.5-0.1-0.5,0.3
		c0.1,0.4,0,0.8-0.4,1.1s-0.9,0.3-1.3,0.1c-0.3-0.2-0.6-0.6-0.5-1c0.1-0.5,0.4-0.9,0.9-0.9c0.9,0,0.7-0.3,0.3-0.8
		c-1.1-1.5-0.9-3.6,0.5-5.1c1.2-1.3,3.2-1.6,4.8-0.7c1.7,0.9,2.5,2.7,2.1,4.6c-0.2,0.9-0.7,1.5-1.3,2.1c-0.2,0.2-0.4,0.4-0.3,0.7
		C415.6,120.9,414.9,121.1,414.2,121.4z"/>
	<path fill="#859D6E" d="M481,120.6c-1.2-0.2-2.1-0.8-2.9-1.8c-0.4-0.1-0.5-0.4-0.7-0.8c0-1.3-0.1-2.5,0.7-3.7
		c1-1.4,3.1-2.1,4.6-1.5c1.9,0.8,3,2.6,2.7,4.5c0,0.1-0.1,0.3-0.1,0.5c-0.1,0.5-0.1,0.6,0.5,0.6c0.9,0,1.3,0.4,1.4,1.1
		c0.1,0.7-0.3,1.1-0.9,1.3c-0.6,0.2-1.2-0.1-1.5-1c-0.1-0.4-0.3-0.4-0.6-0.2c-0.5,0.5-1.2,0.7-1.8,1
		C481.9,120.9,481.4,120.9,481,120.6z"/>
	<path fill="#689A83" d="M448.8,121.6c-2.3-0.1-4-1.8-4.2-4.2c-0.1-2.2,1.9-4.2,4.2-4.2c2.4,0,4.2,1.8,4.3,4.3
		C453.1,119.7,451.3,121.6,448.8,121.6z"/>
	<path fill="#BE9C7A" d="M448.4,66.4c-2.3,0-4.3-1.9-4.2-4.3c0.1-2.1,1.7-4.2,4.2-4.2c2.4,0,4.2,1.8,4.2,4.3
		C452.6,64.8,450.7,66.4,448.4,66.4z"/>
	<path fill="#A7856B" d="M401.9,135.7c-0.4,0.2-0.7,0.4-0.9,0.5c-1.9,0.9-4.2,0.3-5.2-1.5c-0.9-1.7-0.3-4,1.5-5
		c1.3-0.7,2.7-0.7,4,0.1c1.3,0.9,1.7,2.1,1.6,3.7c0,0.1,0,0.3-0.1,0.5c-0.3,0.6,0.1,0.7,0.5,0.5c0.5-0.1,1.1-0.1,1.5,0.2
		c0.6,0.4,0.9,1.2,0.7,1.9c-0.2,0.8-0.8,1.3-1.7,1.3c-0.7,0.1-1.5-0.4-1.7-1.1C402.1,136.6,402.1,136.2,401.9,135.7z"/>
	<path fill="#93AE77" d="M476.7,144.1c0.3-0.1,0.5-0.3,0.8-0.5c0.3,0.7,0.7,0.1,0.9,0.1c3.2-0.8,5.4,1.7,5.3,4.2
		c-0.1,1.7-1.3,3.3-3.2,3.8c-1.7,0.4-3.2,0.1-4.5-1.7c-1-1.3-0.9-3.2,0-4.6c0.2-0.3,0.5-0.6,0.8-0.9
		C477.1,144.2,476.9,144.1,476.7,144.1z"/>
	<path fill="#BB9774" d="M469.2,51.4c-0.1,0.4,0.3,0.5,0.5,0.6c1.7,0.9,2.5,2.7,2.2,4.6c-0.3,1.6-1.9,3.1-3.6,3.2
		c-2,0.1-3.9-0.9-4.5-2.6c-0.9-2.7,0.9-5.2,3.6-5.6c0.3,0,0.6,0.1,0.7-0.3C468.6,51.1,468.9,51.1,469.2,51.4z"/>
	<path fill="#8FAA73" d="M429.2,54.5c-2.3,0-4.2-1.9-4.2-4.2c0-2.3,1.9-4.3,4.2-4.2c2.5,0.1,4.1,1.9,4.1,4.2
		C433.4,52.7,431.5,54.6,429.2,54.5z"/>
	<path fill="#688A64" d="M413.9,21.9c-1.9-0.5-3.2-2-3.4-3.8c-0.1-1.8,0.9-3.5,2.5-4.1c2.3-0.9,4.8,0.2,5.6,2.5s-0.6,4.7-3.1,5.4
		C415,22.1,414.5,21.9,413.9,21.9z"/>
	<path fill="#81996A" d="M419.2,167.2c-2.3,0-4-1.7-4-3.9c-0.1-2.2,1.7-4,3.8-4c2.2-0.1,4,1.6,4.1,3.8c0,0.6,0.1,0.9,0.8,0.7
		c0.5-0.1,0.9,0.2,1.1,0.7c0.1,0.5,0.1,0.9-0.4,1.3c-0.4,0.3-0.9,0.3-1.2-0.1c-0.5-0.7-0.8-0.4-1.2,0.1
		C421.4,166.8,420.4,167.2,419.2,167.2z"/>
	<path fill="#C09C78" d="M398,128.6c-2.7-0.1-4.3-1.9-4.3-4.2c0-2.2,1.6-4.1,4.2-4c2.2,0,4.1,1.9,4.1,4.1
		C402,126.7,400.1,128.6,398,128.6z"/>
	<path fill="#688B65" d="M348.1,76.6c0.3,2.5-1.4,4.5-3.9,4.6c-2.3,0.1-4.3-1.7-4.3-4.1c0-1.7,1.1-3.2,2.7-3.8s3.5-0.1,4.6,1.3
		c0.2,0.2,0.3,0.5,0.5,0.7C348.4,75.6,348,76.1,348.1,76.6z"/>
	<path fill="#649883" d="M440.9,57.7c-2.2-0.5-2.6-2-1.1-4.3c-1-0.1-1.9-0.2-2.7-0.9c-1.5-1.3-1.6-3.6-0.3-5c1.4-1.5,3.7-1.5,5.1,0
		c1.3,1.4,1.3,3.6-0.3,5c-0.1,0.1-0.3,0.2-0.4,0.3c-0.1,0.1-0.3,0.1-0.3,0.3c0,0.2,0.2,0.2,0.4,0.2c0.8,0.1,1.3,0.7,1.7,1.3
		c0.3,0.1,0.3,0.3,0.1,0.5c-0.1,1.1-0.7,1.9-1.6,2.5C441.4,57.9,441.1,57.9,440.9,57.7z"/>
	<path fill="#91AD75" d="M354.9,75.7c2.2-0.2,4.2,1.5,4.4,3.7c0.2,2.2-1.5,4.3-3.8,4.4c-2.2,0.1-4.1-1.3-4.4-3.8
		C350.8,78.1,352,75.8,354.9,75.7z"/>
	<path fill="#8EAA74" d="M360.4,59.2c0,2.3-1.8,4.2-4.2,4.1c-2.5-0.1-4-1.9-4.1-4c-0.1-2.1,1.9-4.1,4.1-4.2
		C358.4,55.1,360.4,57,360.4,59.2z"/>
	<path fill="#849B6C" d="M347,132.5c0-2.2,1.7-4,4-4.1c2.3-0.1,4.1,1.8,4.2,4.1c0,2.2-1.7,4-4,4C348.7,136.6,347,134.9,347,132.5z"
		/>
	<path fill="#BC9B79" d="M404.9,60.3c0.4,0.1,0.6-0.1,0.8-0.3c2.3-1.9,5.2-1.1,6.3,1.1c0.7,1.4,0.7,2.9-0.3,4.2
		c-1,1.4-2.4,2-4.2,1.7c-2.2-0.5-3.6-2.5-3.2-4.7c0.1-0.3,0.2-0.6-0.1-0.9C404.4,60.8,404.6,60.5,404.9,60.3z"/>
	<path fill="#579D8F" d="M387.1,157.9c2.6,0.3,4.2,1.9,4.2,4.2c0,1.6-1.1,3.2-2.7,3.7c-1.6,0.5-3.1,0.2-4.3-1.1
		c-1.1-1.2-1.3-2.6-0.8-4.2c0.3-1.1,1.2-1.7,2-2.3C386,157.9,386.4,157.6,387.1,157.9z"/>
	<path fill="#91AC76" d="M405.4,15.8c2.4,0.1,3.9,1.9,4,4c0.1,2.1-1.9,4.1-3.9,4c-2.4,0-4.3-1.8-4.2-4.3
		C401.4,17.8,402.9,15.8,405.4,15.8z"/>
	<path fill="#679982" d="M483.2,39.5c2.2,0,4,1.8,4,4c0,2.3-1.8,4.1-4.1,4.1c-2.1,0-4-1.9-4-4C479.2,41.2,481,39.5,483.2,39.5z"/>
	<path fill="#A38369" d="M381.9,115.2c0.1,0.4,0.4,0.3,0.6,0.4c3.4,1.5,3.3,5.4,0.9,7c-1.7,1.1-4.2,0.8-5.5-0.9
		c-1.3-1.7-1.1-4,0.5-5.4c0.4-0.3,0.8-0.7,1.3-0.8c0.2-0.1,0.4-0.1,0.4-0.4C380.7,115,381.3,114.9,381.9,115.2z"/>
	<path fill="#6C8E68" d="M352.5,86.9c1.3-1.2,2.9-1.4,4.6-0.7c1.5,0.7,2.3,2.2,2.2,3.9c-0.1,1.7-1.5,3.2-3.4,3.6
		c-0.5,0-1.1,0.5-1.6,0c-2.8-0.9-3.8-3.6-2.3-6.1C351.9,87.3,352.2,87.1,352.5,86.9z"/>
	<path fill="#678A64" d="M505.9,81.2c-0.6,0-1.2,0.1-1.7-0.1c-1.7-0.3-3.1-1.7-3.2-3.6c-0.1-1.9,0.9-3.6,2.7-4.2
		c1.7-0.5,3.7,0.1,4.6,1.7c0.9,1.4,0.9,2.8,0,4.2c-0.1,0.9-0.7,1.4-1.5,1.7C506.5,81.3,506.2,81.5,505.9,81.2z"/>
	<path fill="#849D6E" d="M340.3,100c-2.2,0-4-1.7-4-3.9c0-2.3,1.7-4,4-4c2.1,0,4,1.7,4,3.9C344.3,98.3,342.6,100,340.3,100z"/>
	<path fill="#679A83" d="M367.9,157.9c0,2.2-1.7,4-4,4c-2.1,0-4-1.7-4-3.9c0-2.2,1.7-4,4-4C366.3,153.9,367.9,155.6,367.9,157.9z"/>
	<path fill="#BE9976" d="M433.1,131.1c-0.7,0.4-1.3,0.9-1.6,1.6c-0.3-0.4-0.6-0.1-0.9,0.1c-2.1,1-4.6-0.3-5.3-2.1
		c-0.1-0.3-0.1-0.8-0.6-0.8c0.1-0.7,0.4-1.5,0.5-2.2c0.7-0.5,1-1.2,1.7-1.7c1.7-1.3,4.5-0.5,5.4,1.1c0.2,0.3,0.3,0.8,0.8,0.9
		c-0.2,0.5,0.3,1,0,1.5c-0.2,0.4-0.3,0.9-0.4,1.3C432.6,131.1,432.8,131.1,433.1,131.1z"/>
	<path fill="#93AE76" d="M454,172.3c-0.1,0.5,0.3,0.5,0.6,0.4c1-0.2,1.9-0.1,2.9,0.5c1.3,0.8,2.1,2.5,1.8,4
		c-0.3,1.7-1.6,2.9-3.3,3.2c-2.2,0.3-4.3-1.1-4.6-3.6c-0.1-1.1,0.3-2.1,1.1-3c0.2-0.3,0.6-0.4,0.5-0.9
		C453.2,172.6,453.5,172.2,454,172.3z"/>
	<path fill="#92AE78" d="M367.5,139.4c0,2.1-1.7,3.9-3.9,4c-2.2,0-4.1-1.8-4-4.1c0.1-2.1,1.8-3.8,3.9-3.8
		C365.7,135.4,367.5,137.1,367.5,139.4z"/>
	<path fill="#B08866" d="M371.6,110.8c0.9-0.3,1.7-0.4,2.6-0.1c0.3,0.1,0.5,0.2,0.8-0.1c0.5,0.2,0.9,0.6,1.3,1
		c-0.1,0.4,0.1,0.7,0.2,1c0.9,1.8,0.3,3.9-1.3,5c-1.4,1-3.8,0.8-5.1-0.5c-1.5-1.5-1.7-4.5,0.8-6
		C371.2,110.9,371.4,110.9,371.6,110.8z"/>
	<path fill="#688B65" d="M355.4,141.7c0,2.1-1.8,3.8-4,3.8c-2.2-0.1-4-1.8-3.9-3.9c0.1-2.1,1.8-4,4-4
		C353.7,137.7,355.4,139.5,355.4,141.7z"/>
	<path fill="#698C67" d="M505.6,114.9c2.1,0,3.9,1.7,3.9,3.9c0,2.1-1.8,4-3.9,4c-2.2,0-4-1.7-4-4
		C501.7,116.6,503.4,114.9,505.6,114.9z"/>
	<path fill="#678A63" d="M444.8,181.3c0,2.1-1.8,3.8-4,3.8c-2.1,0-3.9-1.7-3.9-3.9s1.7-3.8,3.9-3.8
		C443,177.4,444.8,179.1,444.8,181.3z"/>
	<path fill="#8FAB74" d="M430.3,27.8c2.1,0,3.8,1.7,3.8,3.8c0,2.3-1.7,4-3.9,4c-2.1,0-3.8-1.8-3.8-4C426.3,29.4,428,27.8,430.3,27.8
		z"/>
	<path fill="#BC9A77" d="M442.4,135.9c0.1,0.5,0.5,0.5,0.7,0.6c1.3,0.8,2.2,2.5,1.9,4c-0.3,1.7-1.7,3-3.4,3.3
		c-1.5,0.2-3.2-0.7-3.9-2.1c-1.1-2.1,0.1-4.8,2.4-5.4c0.3-0.1,0.8,0,0.9-0.5C441.6,135.5,442,135.6,442.4,135.9z"/>
	<path fill="#589D8F" d="M357.9,67.4c0.4-0.1,0.7-0.5,1.1-0.4c0.5-0.1,0.9-0.1,1.5-0.3c0.7-0.2,1.1,0.2,1.5,0.7
		c1.5,1,2.1,2.7,1.6,4.4c-0.5,1.7-2,2.8-3.7,2.7c-1.8,0-3.4-1.1-3.8-2.9c-0.3-1.1-0.1-2.3,0.6-3.3C356.8,67.7,357.3,67.5,357.9,67.4
		z"/>
	<path fill="#BD9A77" d="M399.3,138.1c2.1,0,3.9,1.6,3.9,3.8c0,2.4-1.7,4-3.7,4c-2.5,0.1-4.2-1.9-4.1-3.8
		C395.4,139.8,397,138.1,399.3,138.1z"/>
	<path fill="#93AE76" d="M395.7,63.4c-2.1,0-3.8-1.7-3.8-3.7c0-2.3,1.7-4,4.1-4c1.9,0,3.7,1.9,3.7,3.8
		C399.7,61.8,398,63.4,395.7,63.4z"/>
	<path fill="#669982" d="M422.3,154.4c0,2.1-1.7,3.8-3.9,3.8c-2.1,0-3.8-1.7-3.8-3.9c0-2.1,1.7-3.8,3.8-3.8
		C420.6,150.5,422.2,152.2,422.3,154.4z"/>
	<path fill="#569E90" d="M468.6,144.7c0.2,0,0.4,0.1,0.6-0.1c0.7-0.1,1.4,0.1,2.1,0.3c0.3,0.1,0.3,0.3,0.5,0.5
		c1.8,1.2,2.3,2.8,1.4,4.7c-0.7,1.6-2.8,2.5-4.6,1.9c-1.9-0.5-3-2.3-2.7-4.2C466.2,146.2,467.2,145.3,468.6,144.7z"/>
	<path fill="#A5856A" d="M403,79c-2,0-3.8-1.7-3.8-3.8c0-2.1,1.7-3.8,4-3.8c2.1,0,3.8,1.7,3.8,4C406.9,77.4,405.2,79,403,79z"/>
	<path fill="#669781" d="M372.2,54.4c-0.7-0.4-1.5-0.7-2-1.4c-1.1-1.4-1.1-3.7,0.1-5c1.5-1.5,3.7-1.7,5.3-0.3c1.4,1.2,1.7,3.4,0.7,5
		c-0.7,1.1-1.7,1.7-2.9,1.7C373,54.8,372.6,54.7,372.2,54.4z"/>
	<path fill="#688A64" d="M490.5,53.6c-2.3-0.1-3.8-0.9-4.2-2.9c-0.5-1.8,0.4-3.7,2.1-4.4c1.6-0.7,3.6-0.2,4.6,1.2
		c1.1,1.5,0.9,3.6-0.4,5c-0.1,0.2-0.3,0.3-0.5,0.5C491.8,53.6,491.2,53.7,490.5,53.6z"/>
	<path fill="#689982" d="M403,42.1c-0.4-0.3-0.9-0.5-1.3-0.8c-1.1-1.3-1.5-2.7-0.8-4.3c0.7-1.5,1.9-2.2,3.5-2.3
		c1.9-0.1,3.8,1.7,3.8,3.6c0.1,2.1-1.5,3.8-3.5,4C404.1,42.3,403.6,42.2,403,42.1z"/>
	<path fill="#96B17B" d="M467.3,166.3c-2.1,0-3.9-1.7-3.9-3.5c0-2.4,1.6-4.1,3.8-4.1c2.1,0,3.9,1.7,3.9,3.8
		C471,164.6,469.4,166.3,467.3,166.3z"/>
	<path fill="#AD8463" d="M413.5,52c1,0.8,2.1,1.1,3.4,0.8c-0.1,0.5,0.4,0.8,0.7,1.1c0.8,1.2,0.9,2.9,0.1,4.2
		c-0.7,1.3-2.3,1.9-3.8,1.7c-1.6-0.3-2.7-1.3-3.1-2.8c-0.5-2.1,0.3-3.7,2.3-4.6C413.2,52.3,413.5,52.2,413.5,52z"/>
	<path fill="#9F7F68" d="M447.9,82.6c-0.7,0.9-1.5,1.6-2.7,1.9c-1.7,0.3-3.7-0.8-4.2-2.5c-0.6-1.9,0.3-3.9,2-4.6
		c2.5-1.1,5.9,0.8,5.2,4.4C448.1,82,448.3,82.4,447.9,82.6z"/>
	<path fill="#91AD75" d="M400.4,174.8c0.7,0.1,1.3,0.2,1.9,0c-0.3,0.3-0.1,0.4,0.2,0.5c1.1,0.4,2.1,0.9,2.6,2.1
		c0.7,1.5,0.3,3.2-1.1,4.4c-1.2,1.1-3,1.1-4.4,0.3c-1.2-0.8-1.9-1.9-1.7-3.3c0.1-1.5,0.9-2.6,2.3-3.3c0.2-0.1,0.5,0,0.5-0.3
		C400.9,174.9,400.5,175,400.4,174.8z"/>
	<path fill="#658964" d="M371.8,148.5c-1.9,0.1-3.7-1.6-3.8-3.6c0-2.2,1.5-3.8,3.8-3.9c2.1-0.1,3.8,1.6,3.8,3.8
		C375.7,146.7,373.8,148.4,371.8,148.5z"/>
	<path fill="#B08866" d="M381.5,94.4c0.1,2-1.6,3.8-3.6,3.8c-2.1,0.1-3.8-1.5-3.8-3.5c-0.1-2.3,1.5-4,3.9-4
		C379.6,90.8,381.5,92.4,381.5,94.4z"/>
	<path fill="#97B17C" d="M495.7,133.1c0.3,0.1,0.5,0,0.9-0.1c1.5-0.9,3.1-0.5,4.4,0.8c1,1,1.3,2.9,0.5,4.2c-0.9,1.8-2.9,2.5-4.7,1.7
		c-1.9-0.9-2.8-2.9-2.1-4.9c0.1-0.2,0.1-0.4,0.1-0.6C495.2,133.9,495.4,133.5,495.7,133.1z"/>
	<path fill="#6A9A84" d="M466.6,69.5c0.1,2.1-1.5,3.7-3.8,3.8c-1.9,0.1-3.7-1.7-3.7-3.6c0-2,1.7-3.8,3.8-3.8
		C464.8,65.8,466.6,67.4,466.6,69.5z"/>
	<path fill="#569B8E" d="M418.8,143.1c0,2-1.6,3.7-3.7,3.7c-2.1,0-3.8-1.6-3.9-3.6c0-2.1,1.6-3.8,3.7-3.8
		C417.2,139.4,418.8,141,418.8,143.1z"/>
	<path fill="#859D6F" d="M425.8,59.1c-0.4,0.3,0,0.6,0.1,0.9c0.3,1.5,0.1,2.7-0.9,3.8c-1.1,1.1-2.5,1.4-3.9,0.9
		c-1.5-0.5-2.3-1.7-2.4-3.4c-0.1-1.5,0.6-2.6,1.9-3.4c1.5-0.8,2.8-0.6,4.2,0.3c0.3,0.2,0.4,0.7,0.9,0.3
		C425.9,58.7,425.9,58.9,425.8,59.1z"/>
	<path fill="#6C9D85" d="M428.7,97.1c-0.2,0.2-0.4,0.4-0.6,0.6c-1.4,0.9-2.8,1-4.2,0.2c-1.1-0.7-1.7-1.8-1.7-3.2
		c0-1.5,1-2.9,2.5-3.4c1.5-0.5,3.2-0.1,4.2,1.1c0.9,1.2,1.1,2.9,0.3,4.2C428.9,96.7,428.8,96.9,428.7,97.1z"/>
	<path fill="#BD9A77" d="M374.1,106.7c-2.1,0-3.8-1.7-3.8-3.8c0-1.9,1.8-3.7,3.8-3.7c1.9,0,3.6,1.7,3.6,3.8
		C377.7,105,376.1,106.7,374.1,106.7z"/>
	<path fill="#A38469" d="M458.6,54c0.1,0.2,0.2,0.4,0.3,0.6c0.8,2.3-0.8,4.5-2.8,4.9c-1.8,0.3-3.6-0.7-4.2-2.4
		c-0.6-1.9,0.3-3.8,1.9-4.6c0.3-0.1,0.7-0.1,0.5-0.6c0.7,0.1,1.3-0.1,2,0c-0.1,0.3,0.1,0.5,0.4,0.6C457.6,52.8,458.2,53.4,458.6,54z
		"/>
	<path fill="#BF9B77" d="M470,112.9c-2.1,0-3.7-1.6-3.7-3.6c0-2.1,1.7-3.7,3.8-3.7c2.2,0,3.7,1.5,3.8,3.8
		C473.9,111,472.2,113.1,470,112.9z"/>
	<path fill="#90AD77" d="M343.8,104.6c-0.1,2.5-1.8,3.6-3.8,3.7c-2.1,0-3.7-1.5-3.6-3.9c0.1-2,1.7-3.6,3.7-3.5
		C342.3,101,343.9,102.6,343.8,104.6z"/>
	<path fill="#559D90" d="M507,105.9c1.9,0.1,3.4,1.5,3.5,3.6c0.1,1.5-1.3,3.4-2.9,3.7c-1.8,0.4-3.6-0.6-4.3-2.3
		c-0.9-2.2,0.7-4.6,3-4.9C506.5,105.8,506.7,105.9,507,105.9z"/>
	<path fill="#859D6D" d="M363.1,101.1c-0.5,0.2-0.9,0.5-1.5,0.6c-0.2,0-0.3,0.2-0.3,0.4c-0.6,0.1-1.2,0.2-1.8,0
		c0.4-0.4,0-0.5-0.3-0.7c-1.8-0.9-2.5-2.8-1.8-4.6c0.7-1.8,2.9-2.7,4.7-2.1c1.9,0.7,2.9,2.9,2.1,4.8c-0.1,0.3-0.3,0.5-0.3,0.8
		C363.7,100.8,363.5,101,363.1,101.1z"/>
	<path fill="#668862" d="M395.9,35.2c1.9,0.2,3.2,1.9,3,4c-0.1,1.8-1.9,3.3-3.7,3.2c-1.9-0.1-3.2-1.1-3.6-2.8
		c-0.3-1.4,0.1-3.2,2.1-4.2C394.5,34.7,395.2,35.2,395.9,35.2z"/>
	<path fill="#688A63" d="M453,123.5c-0.2-0.5,0-1.1,0-1.6c0.3-1.5,1.4-2.6,2.9-2.9c1.5-0.3,3.1,0.4,3.8,1.6c0.9,1.4,0.7,2.9-0.3,4.4
		c-0.2,0.5-0.5,0.9-1.1,0.9C455.9,126.8,453.8,125.9,453,123.5z"/>
	<path fill="#93AE77" d="M354.7,112.1c-0.3-0.3-0.7-0.1-1.1-0.3c-1.1-0.4-1.9-1-2.3-2c-0.1-0.3-0.2-0.5-0.6-0.5
		c-0.1-0.4,0.3-0.5,0.5-0.7c0.6-0.5,0.6-0.5,0.1-1.1c-0.2-0.2-0.5-0.3-0.3-0.7c0.3,0.1,0.4-0.1,0.5-0.3c0.9-1.5,2.3-2.1,4-1.9
		c1.5,0.2,2.7,1.4,3,3.2c0.3,1.3-0.5,2.9-1.6,3.6c-0.5,0.3-1.1,0.5-1.6,0.7C355,112.2,354.9,112.2,354.7,112.1z"/>
	<path fill="#688A63" d="M502.6,81.7c1.9,0,3.6,1.7,3.6,3.7c0,2-1.7,3.7-3.7,3.7s-3.6-1.7-3.6-3.8C498.9,83.3,500.5,81.7,502.6,81.7
		z"/>
	<path fill="#91AC75" d="M489.2,66.2c-0.2-0.5-0.6-1-0.9-1.5c0.7,0.1,0.5-0.4,0.4-0.7c-0.3-2.2,1.4-4.1,3.7-4.1
		c1.6,0,2.9,1.1,3.4,2.7c0.4,1.3-0.3,2.9-1.5,3.8c-1.3,0.9-2.9,0.9-4.1-0.1C489.9,66.3,489.7,65.8,489.2,66.2z"/>
	<path fill="#B28A6A" d="M414.9,71.9c-0.1,2-1.7,3.6-3.7,3.5c-1.9-0.1-3.6-1.8-3.5-3.6c0.1-2,1.7-3.6,3.7-3.6
		C413.4,68.2,414.9,69.9,414.9,71.9z"/>
	<path fill="#859C6D" d="M451.1,110.9c-0.1-0.7-0.6-0.3-0.9-0.3c-2,0.1-3.5-1.1-3.8-3c-0.3-1.7,0.7-3.4,2.3-4
		c1.7-0.6,3.6,0.1,4.4,1.7c0.9,1.7,0.3,3.6-1.2,4.7c-0.1,0.1-0.3,0.1-0.4,0.4c0.2,0.3,0.6,0,0.8,0.3
		C451.9,111.1,451.5,111.1,451.1,110.9z"/>
	<path fill="#A7866B" d="M406,115.8c-2.1-0.1-3.6-1.6-3.6-3.8c0-1.8,1.8-3.4,3.8-3.4c1.9,0.1,3.5,1.7,3.4,3.6
		C409.6,114.4,408,115.8,406,115.8z"/>
	<path fill="#B08766" d="M449.3,92.5c-2.1,0-3.6-1.5-3.5-3.6c0-1.9,1.7-3.4,3.7-3.4c1.9,0,3.4,1.7,3.4,3.6
		C452.9,91,451.3,92.5,449.3,92.5z"/>
	<path fill="#90AB74" d="M421.2,39c0,2.1-1.6,3.6-3.6,3.6c-1.9,0-3.5-1.7-3.5-3.6c0-1.8,1.7-3.4,3.5-3.5
		C419.6,35.5,421.2,37,421.2,39z"/>
	<path fill="#639680" d="M394.3,162.2c2.3-0.7,4.2,0.1,4.9,2.1c0.6,1.7-0.1,3.4-1.7,4.2c-1.5,0.8-3.5,0.3-4.6-1.1
		c-0.9-1.3-0.8-3.2,0.4-4.4C393.6,162.7,393.9,162.4,394.3,162.2C394.2,162.2,394.2,162.2,394.3,162.2z"/>
	<path fill="#549A8D" d="M450.3,36.6c-0.5,0.2-0.1,0.5,0,0.8c0.5,1.5,0.1,2.9-1,3.9c-1,0.9-2.9,1-4.2,0.3c-1.1-0.5-1.8-2.2-1.6-3.6
		c0.3-1.4,1.4-2.6,2.8-2.8c0.8-0.1,1.5-0.1,2.3,0.3c0.2,0.1,0.5,0.4,0.7,0.1C449.7,35.8,450.1,36.1,450.3,36.6z"/>
	<path fill="#B08766" d="M470.4,125.8c0,1.9-1.5,3.4-3.6,3.4c-1.9,0-3.6-1.6-3.6-3.4c0-1.9,1.5-3.6,3.5-3.6
		C469,122.2,470.4,123.6,470.4,125.8z"/>
	<path fill="#859C6D" d="M455.2,162.9c1.9,0,3.4,1.5,3.4,3.5s-1.6,3.5-3.6,3.5c-1.8,0-3.4-1.7-3.4-3.5
		C451.7,164.4,453.2,162.9,455.2,162.9z"/>
	<path fill="#678A63" d="M448.8,177.8c1.9,0,3.5,1.5,3.5,3.4c0,2.1-1.5,3.6-3.5,3.6c-1.9,0-3.5-1.5-3.5-3.5
		C445.3,179.3,446.8,177.8,448.8,177.8z"/>
	<path fill="#A4846A" d="M363.3,113c-1.9-0.1-3.5-1.5-3.4-3.4c0.1-2.4,1.7-3.6,3.8-3.6c1.7,0.1,3.4,1.9,3.3,3.5
		C366.8,111.5,365.2,113,363.3,113z"/>
	<path fill="#6B9B85" d="M439.7,102.6c-0.3-1.5-0.1-2.8,1.1-3.9c1.5-1.3,3.6-1.1,4.8,0.3c1.2,1.3,1.1,3.4-0.1,4.8
		c-1.3,1.3-3.3,1.4-4.8,0.1C439.8,103.6,439.6,103.4,439.7,102.6z"/>
	<path fill="#688A65" d="M371.3,128.6c1.9,0,3.4,1.5,3.4,3.4c0,2-1.5,3.6-3.5,3.6c-1.9,0-3.4-1.5-3.5-3.4
		C367.7,130.2,369.3,128.6,371.3,128.6z"/>
	<path fill="#BD9A77" d="M459.2,131.4c1.8-0.1,3.6,1.7,3.5,3.6c-0.1,1.9-1.7,3.4-3.8,3.4c-1.7,0-3.3-1.7-3.2-3.6
		C455.8,132.8,457.3,131.3,459.2,131.4z"/>
	<path fill="#669881" d="M475.2,44.2c0,0.9,0.4,1.5,0.2,2.2c-0.3,1.4-1.5,2.5-2.9,2.5c-1.5,0.1-2.7-0.9-3.2-2.3
		c-0.4-1.2,0.2-2.8,1.3-3.4c1.3-0.7,2.9-0.6,4,0.4c0.1,0.1,0.1,0.1,0.1,0.2C474.9,44,474.9,44.2,475.2,44.2c0.2-0.2,0-0.3,0-0.5
		c-0.1-1.2,0.9-2,1.9-1.7c0.7,0.2,1.1,0.6,1.1,1.3c0.1,0.5-0.1,1.1-0.5,1.4c-0.5,0.4-1.1,0.5-1.7,0.1
		C475.8,44.7,475.6,44.5,475.2,44.2z"/>
	<path fill="#688964" d="M422,83.9c0,1.9-1.5,3.4-3.4,3.4c-1.9,0-3.5-1.5-3.5-3.5c0-1.9,1.5-3.4,3.4-3.5
		C420.4,80.4,422,81.9,422,83.9z"/>
	<path fill="#B18868" d="M438.9,72.2c0.3-0.3,0.1-0.5,0-0.7c-0.5-1.7,0.2-3.5,1.7-4.2c1.6-0.7,3.5-0.2,4.4,1.2
		c0.9,1.5,0.6,3.5-0.7,4.6c-1.1,0.9-2.7,0.9-3.9,0.2c-0.3-0.2-0.5-0.4-0.8-0.6c-0.3,0.3,0,0.7-0.3,0.9
		C438.9,73.2,438.9,72.7,438.9,72.2z"/>
	<path fill="#869D6E" d="M460,148.4c-0.2,0.5-0.8,0.7-1.2,0.9c-2.3,1.3-5,0-5.3-2.5c-0.2-1.6,0.9-3.2,2.5-3.6c1.7-0.4,3.4,0.5,4.1,2
		c0.1,0.3,0,1.1,0.7,0.5c0.3,0.4,0.1,0.8-0.1,1.2C460,147.2,460.2,148,460,148.4z"/>
	<path fill="#859C6E" d="M450.1,21.3c-0.1,0.5-0.3,1-0.5,1.5c-0.1-0.1,0.1-0.4-0.2-0.5c-0.2-0.1-0.3,0.1-0.3,0.3
		c-0.7,0.9-1.5,1.4-2.7,1.5c-0.4-0.3-0.9-0.1-1.3-0.1c-2.5-1-2.9-4.1-1.2-5.7c1.1-1,2.3-1.2,3.6-0.7c1.3,0.5,1.9,1.5,2.1,2.9
		C449.8,20.7,449.3,21.3,450.1,21.3z"/>
	<path fill="#6C8D69" d="M486.5,122.2c1.8,0,3.4,1.5,3.4,3.3c0.1,2-1.4,3.6-3.4,3.6c-1.9,0-3.4-1.5-3.4-3.4
		C483,123.8,484.5,122.3,486.5,122.2z"/>
	<path fill="#839C6D" d="M457.5,36.3c-1.9,0-3.4-1.5-3.4-3.4c0-2,1.5-3.4,3.5-3.4c1.8,0.1,3.4,1.6,3.4,3.4
		C460.9,34.9,459.4,36.4,457.5,36.3z"/>
	<path fill="#6D9D86" d="M493.1,101.8c0.5-0.1,0.3-0.3,0.3-0.6c-0.3-2,1-3.9,2.9-4.1c2-0.2,3.7,1.3,3.8,3.4c0,1.3-0.5,2.3-1.7,2.9
		c-1.2,0.7-2.5,0.6-3.6-0.2c-0.2-0.1-0.3-0.3-0.6-0.5c-0.3,0.3,0,0.7-0.3,1C493.4,103.1,493.4,102.4,493.1,101.8z"/>
	<path fill="#92AC76" d="M451.2,68.6c0-1.9,1.4-3.4,3.4-3.4c1.9,0,3.4,1.5,3.4,3.5c-0.1,1.9-1.4,3.2-3.3,3.3
		C452.8,72.1,451.1,70.6,451.2,68.6z"/>
	<path fill="#A6866C" d="M440.8,123.8c-0.7,0.3-0.1,0.5,0.1,0.6c1.4,1,1.9,2.5,1.3,4.1c-0.6,1.5-2.2,2.3-3.9,2.1
		c-1.5-0.3-2.7-1.8-2.7-3.4c0.1-1.7,1.2-3,2.8-3.2c0.4-0.1,0.7-0.1,1.2,0c0.2,0.1,0.6,0.3,0.7-0.3
		C440.5,123.5,440.7,123.5,440.8,123.8z"/>
	<path fill="#849D6E" d="M495.6,112.3c-1.8,0-3.4-1.6-3.4-3.4c0.1-1.9,1.6-3.5,3.5-3.4c1.8,0.1,3.3,1.6,3.3,3.5
		C499.1,110.9,497.5,112.3,495.6,112.3z"/>
	<path fill="#93AD76" d="M377.3,72.5c-1.9,0-3.4-1.5-3.4-3.4c0-1.7,1.5-3.3,3.3-3.4c1.9,0,3.5,1.5,3.5,3.4
		C380.7,71.1,379.2,72.5,377.3,72.5z"/>
	<path fill="#A6856A" d="M389,138.3c0.5,0,1-0.3,1.5-0.3c1.5,0,2.8,0.9,3.3,2.3c0.5,1.3-0.1,2.9-1.3,3.7c-1.3,0.9-2.9,0.8-4.1-0.1
		c-1.2-1-1.5-2.5-0.9-3.9c0.1-0.3,0.3-0.6,0.1-0.9C388.1,138.8,388.4,138.4,389,138.3z"/>
	<path fill="#678B64" d="M436.9,172.8c-1.9,0-3.4-1.5-3.4-3.4c0-1.8,1.6-3.4,3.3-3.4c1.9,0.1,3.4,1.6,3.4,3.4
		C440.2,171.3,438.7,172.8,436.9,172.8z"/>
	<path fill="#6B8B65" d="M476.1,85c0,1.8-1.4,3.3-3.4,3.3c-1.9,0-3.4-1.4-3.4-3.3c0-1.8,1.4-3.3,3.2-3.4C474.6,81.7,476,83,476.1,85
		z"/>
	<path fill="#688962" d="M406.8,57.5c-1.8,0-3.4-1.5-3.4-3.3c0-1.9,1.4-3.4,3.4-3.4c1.9,0,3.4,1.5,3.4,3.4
		C410.2,56,408.6,57.5,406.8,57.5z"/>
	<path fill="#688A65" d="M486,90.1c-1.9,0-3.3-1.4-3.4-3.3c0-1.8,1.5-3.4,3.4-3.4c1.8,0,3.4,1.5,3.4,3.3
		C489.3,88.6,487.9,90.1,486,90.1z"/>
	<path fill="#A58469" d="M466,99.8c-1.6,0.2-3.4-1.5-3.3-3.2c0.1-1.7,1.6-3.3,3.4-3.2c1.9,0,3.4,1.5,3.4,3.3
		C469.4,98.4,468,99.8,466,99.8z"/>
	<path fill="#B08969" d="M361.6,121.9c0.3-1.2,1.2-0.7,1.9-0.8c0.8,0.3,0.6-0.3,0.6-0.7c0.1-1.4,1.1-2.5,2.3-2.7
		c1.6-0.2,2.9,0.5,3.4,1.9c0.4,1.1,0,2.5-0.9,3.2c-1.1,0.9-2.5,0.9-3.6,0.1c-0.5-0.4-0.7-0.4-0.9,0.2c-0.3,0.7-1.1,0.9-1.9,0.7
		C361.8,123.6,361.6,123,361.6,121.9z"/>
	<path fill="#B08867" d="M472.6,88.9c1.7,0,3.4,1.5,3.3,3.2c-0.1,2-1.3,3.3-3.4,3.3c-1.9,0-3.3-1.5-3.2-3.4
		C469.3,90.3,470.8,88.9,472.6,88.9z"/>
	<path fill="#569C8E" d="M387.7,37.4c-0.6,0.1-0.3,0.5-0.2,0.7c0.3,1.3,0.1,2.5-1,3.4c-1,0.8-2.2,1-3.5,0.5
		c-1.3-0.5-1.9-1.6-1.9-3.2c0-1.3,0.8-2.4,2.1-2.9c1.1-0.4,2.6-0.1,3.5,0.8c0.2,0.2,0.3,0.7,0.7,0.3
		C387.7,37.1,387.8,37.2,387.7,37.4z"/>
	<path fill="#93AE77" d="M436.1,153c0.4-0.1,0.7-0.3,1.2-0.1c-0.1,0.1-0.3,0.1-0.5,0.1c-0.1,0-0.2,0.1-0.2,0.2
		c0,0.1,0.1,0.2,0.2,0.3c0.4,0.1,0.8,0.2,1.2,0.5c1.3,0.7,1.9,2.1,1.6,3.5c-0.3,1.3-1.7,2.5-3,2.5c-1.4,0.1-2.9-1.1-3.2-2.5
		c-0.3-1.5,0.6-3.2,2.1-3.8C435.8,153.4,436.3,153.5,436.1,153z"/>
	<path fill="#A2836A" d="M385.8,86.7c2.1,0.2,3.2,1.4,3.2,3.4c0,1.8-1.5,3.2-3.4,3c-1.9-0.1-3-1.5-3.1-3.1
		C382.6,88.1,384.1,86.6,385.8,86.7z"/>
	<path fill="#839C6E" d="M422.9,19.7c-1.7,0-3.2-1.5-3.2-3.2s1.4-3.1,3.2-3.1c1.8,0,3.2,1.4,3.2,3.2
		C426.1,18.4,424.7,19.8,422.9,19.7z"/>
	<path fill="#B28967" d="M406.6,87.8c0,1.8-1.5,3.2-3.4,3.2c-1.6,0-3-1.5-3-3.2c0-1.8,1.4-3.2,3.1-3.2
		C405.2,84.6,406.6,86,406.6,87.8z"/>
	<path fill="#AF8666" d="M419,112.4c-1.8,0-3.2-1.3-3.2-3.2c0-1.5,1.5-3.2,2.9-3.2c1.8,0,3.4,1.5,3.4,3.2
		C422.2,111.1,420.8,112.4,419,112.4z"/>
	<path fill="#589E90" d="M367.1,151.6c0.6-2,1.7-2.9,3.7-2.6c1.4,0.1,2.6,1.5,2.5,3c-0.1,1.6-1.3,2.9-2.7,3.1
		c-2,0.1-3.2-0.9-3.6-3.1C367,151.8,367,151.7,367.1,151.6z"/>
	<path fill="#698B65" d="M390.6,148.8c0.1-1.7,1.4-2.9,3.4-2.9c1.7,0.1,2.9,1.4,2.9,3.1c0,1.7-1.5,3-3.2,3
		C391.9,151.9,390.6,150.4,390.6,148.8z"/>
	<path fill="#B48A6A" d="M398.6,119.1c-1.7,0-3.1-1.3-3.2-3.1c0-1.5,1.4-3.1,3-3.1c1.8,0,3.2,1.3,3.3,2.9
		C401.7,117.6,400.4,119,398.6,119.1z"/>
	<path fill="#AF8967" d="M406.9,145.3c-1.7,0-3.2-1.4-3.1-3.2c0.1-1.7,1.5-3,3.2-3s3.1,1.4,3.1,3.2
		C410,143.9,408.6,145.3,406.9,145.3z"/>
	<path fill="#AE8665" d="M479.1,55c0,1.8-1.4,3.2-3.2,3.2c-1.6,0-3-1.5-3-3c0-1.7,1.4-3.2,3.2-3.1C477.7,52.1,479.1,53.5,479.1,55z"
		/>
	<path fill="#B08866" d="M385.1,141.2c0,0.3,0.3,0.5,0.5,0.7c1.1,1.1,1.1,2.4,0.6,3.7c-0.4,0.9-1.8,1.7-3,1.6
		c-1.1-0.1-2.3-1-2.7-2.3c0-0.1-0.1-0.1-0.1-0.2c-0.2-0.3-0.2-0.5,0-0.7c0.1-1.8,1.9-3.2,3.7-2.8c0.3,0.1,0.6,0.2,0.9-0.1
		C385,141,385,141.1,385.1,141.2z"/>
	<path fill="#6B8C66" d="M499.6,60.4c0.3,0,0.5,0,0.8,0c1.1,0.1,1.9,0.9,1.8,1.9c-0.1,1.1-1,1.9-2.1,1.8c-1-0.1-1.7-1.1-1.6-2.1
		c0-0.1,0-0.1,0-0.1c0.3-0.7,0.2-1-0.7-0.9c-1,0.1-1.8-0.3-2.3-1.2c-0.5-0.8-0.4-1.7,0.1-2.5c0.7-1.1,2-1.4,3.1-0.8
		c1.1,0.6,1.6,2,1.1,3.2C499.7,59.9,499.6,60.1,499.6,60.4z"/>
	<path fill="#90AC74" d="M376,32.8c-1.7,0-3.1-1.3-3.1-2.9c0-1.7,1.4-3.1,3.2-3.1c1.7,0,2.9,1.3,2.9,3C379,31.6,377.8,32.8,376,32.8
		z"/>
	<path fill="#A5856A" d="M414.2,121.4c0.6-0.6,1.3-0.8,2.1-0.6c1.5,0.3,2.5,1.1,2.7,2.4c0.3,1.3-0.3,2.5-1.5,3.3
		c-1.1,0.7-2.8,0.4-3.8-0.7c-0.9-1.1-0.9-2.8-0.1-3.8C413.9,121.7,414.1,121.6,414.2,121.4z"/>
	<path fill="#579D8F" d="M460.9,98.6c0,0.3,0.3,0.4,0.5,0.5c1.3,0.7,2,2,1.7,3.3c-0.4,1.5-1.5,2.4-3,2.4c-1.4,0-2.5-1-2.9-2.4
		c-0.3-1.1,0.4-2.6,1.5-3.3c0.3-0.1,0.7-0.1,0.7-0.6C459.9,98.7,460.4,98.6,460.9,98.6z"/>
	<path fill="#678864" d="M383.8,46.3c0,1.6-1.3,2.9-3,2.9c-1.7,0-3-1.3-3-3c0-1.7,1.3-3.1,2.9-3.1C382.6,43.2,383.9,44.4,383.8,46.3
		z"/>
	<path fill="#859E6E" d="M479.8,52c-1.7,0.4-3-0.3-3.4-1.7c-0.3-1.3,0.3-2.6,1.8-3c1.2-0.4,2.6,0.3,3,1.5c0.3,0.7,0.5,0.9,1.1,0.4
		c0.5-0.4,1.2-0.2,1.7,0.2c0.5,0.4,0.6,1,0.5,1.6c-0.2,0.7-0.7,1-1.4,1.2c-0.2,0.1-0.5,0.1-0.7,0.1C481.8,51.9,480.4,51.8,479.8,52z
		"/>
	<path fill="#678A64" d="M375.5,156c-0.1,0.3,0.2,0.5,0.3,0.7c0.9,1.3,0.8,2.9-0.4,4c-1.1,1-2.8,1.1-3.9,0.2c-1.2-1-1.5-2.6-0.7-4
		c0.8-1.3,2.3-1.8,3.8-1.2C374.9,155.8,375.1,156.1,375.5,156C375.5,156,375.5,156,375.5,156z"/>
	<path fill="#879E6E" d="M425.2,127.6c0.3,0.9,0,1.5-0.5,2.2c-1.5,2.2-4.4,1.5-5.2-0.3c-0.7-1.5-0.1-3.4,1.4-4c1.5-0.7,3.4,0,4,1.5
		C425,127.2,425.1,127.4,425.2,127.6z"/>
	<path fill="#B08866" d="M386.8,85.6c-1.7,0.1-3.1-1.2-3.1-2.8c-0.1-1.7,1.2-3.2,2.9-3.2c1.9,0,3.1,1.3,3.2,2.7
		C389.7,84,388.6,85.6,386.8,85.6z"/>
	<path fill="#678A64" d="M424.9,33.1c0,1.7-1.3,3-3.1,3c-1.5,0-2.9-1.5-2.9-3.1c0-1.7,1.3-3,3-3C423.6,30.1,424.9,31.4,424.9,33.1z"
		/>
	<path fill="#739F87" d="M363.1,101.1c0.3-0.3,0.5-0.5,0.7-0.7c0.4,0.3,0.6-0.1,0.9-0.1c1.2-0.4,2.6,0,3.4,1c0.8,1.1,0.8,2.5,0,3.6
		c-0.7,1-2.2,1.4-3.5,0.9c-1.2-0.5-1.9-1.7-1.9-2.9C362.8,102.2,363.3,101.8,363.1,101.1z"/>
	<path fill="#B28A69" d="M405,123.3c-1.6,0-2.9-1.3-3-2.9c0-1.6,1.3-3,2.9-3.1c1.7,0,3.2,1.3,3.2,3C408,122.1,406.8,123.3,405,123.3
		z"/>
	<path fill="#859C6D" d="M350.9,106.9c0.1,0.5,0.5,0.5,0.8,0.8c0.4,0.5,0.3,0.8-0.2,1c-0.3,0.1-0.6,0.3-0.8,0.7
		c-1.4,1.9-3.8,2-5,0.3c-0.9-1.3-0.6-3.1,0.7-4.1c1.2-0.9,3.1-0.5,4,0.7C350.6,106.3,350.7,106.6,350.9,106.9z"/>
	<path fill="#839B6D" d="M367.1,151.6c0,0.1,0,0.3,0,0.4c-0.5,0-0.5,0.4-0.6,0.6c-0.5,0.7-1.1,0.9-1.8,0.7c-0.7-0.1-1.1-0.5-1.3-1.3
		c-0.1-0.8,0.1-1.5,0.8-1.9c0.7-0.3,0.5-0.5,0-0.8c-1.1-0.6-1.5-1.9-1.1-3c0.5-1,1.8-1.7,2.9-1.4c1.3,0.4,2.1,1.5,1.8,2.8
		c-0.2,0.9-0.7,1.5-1.5,1.8c-0.5,0.2-0.7,0.5-0.1,0.7C366.6,150.6,366.5,151.4,367.1,151.6z"/>
	<path fill="#669982" d="M423.4,183.9c-1.6,0-2.9-1.4-2.9-3.1c0-1.5,1.5-2.8,3.1-2.8s2.9,1.3,2.9,2.9
		C426.3,182.7,425.1,183.9,423.4,183.9z"/>
	<path fill="#91AD76" d="M478.3,77.4c0,1.7-1.3,2.9-3.1,2.9c-1.6,0-2.9-1.3-2.9-3c0-1.5,1.4-2.9,3.1-2.9
		C477.1,74.4,478.4,75.7,478.3,77.4z"/>
	<path fill="#8FAB73" d="M418.4,52.1c0.9-0.5,1.5-1.2,1.7-2.3c0,0.5,0.3,0.4,0.6,0.3c1.3-0.3,2.6,0.1,3.4,1.1
		c0.9,1.3,0.7,2.9-0.6,4.1c-1,0.9-2.8,0.8-3.9-0.2c-0.7-0.6-0.9-1.4-0.9-2.3C418.8,52.5,418.9,52.2,418.4,52.1z"/>
	<path fill="#879E6E" d="M495.7,133.1c0,0.6-0.2,1.1-0.9,1.2c-1.5-0.1-1.9-0.9-1.2-2.1c0.3-0.6-0.1-0.5-0.4-0.6
		c-1.3-0.3-2.3-1.6-2.1-2.9c0.2-1.4,1.3-2.4,2.7-2.4c1.1,0,2.2,0.9,2.5,1.9c0.3,1.1-0.2,2.4-1.2,3c-0.5,0.3-0.8,0.5,0,0.8
		C495.5,132.2,495.7,132.7,495.7,133.1z"/>
	<path fill="#B18B6A" d="M461.7,58.3c0.3,0.1,0.6,0.2,0.9,0.3c1.3,0.5,2.1,1.6,2,3c-0.1,1.1-1.2,2.3-2.3,2.6
		c-1.3,0.3-2.6-0.3-3.2-1.5c-0.7-1.2-0.5-2.6,0.5-3.6c0.3-0.3,0.6-0.5,0.9-0.8C460.9,58.4,461.3,58.3,461.7,58.3z"/>
	<path fill="#6B8C66" d="M394,102.9c1.5,0.3,2.5,1.9,2.1,3.4c-0.3,1.5-1.9,2.6-3.5,2.3c-1.5-0.3-2.6-1.8-2.3-3.3
		c0.1-0.6,0.3-1.1,0.7-1.5c0.4-0.9,0.6-1,1.6-0.9C393.2,102.9,393.6,102.8,394,102.9z"/>
	<path fill="#539B8C" d="M386.6,51.4c0.1,0.1,0.3,0.3,0.4,0.4c0.7,1,1.1,2.1,0.4,3.3c-0.5,0.9-1.3,1.5-2.4,1.5
		c-1.2,0.1-2.1-0.5-2.7-1.5c-0.5-1.1-0.4-2.1,0.3-3.1c0.2-0.3,0.5-0.4,0.4-0.8c0.5,0.1,1-0.1,1.5-0.4C385.2,50.9,386,51,386.6,51.4z
		"/>
	<path fill="#569C8E" d="M490.5,53.6c0.5-0.2,1.1-0.1,1.6-0.7c0.1,0.5,0.5,0.3,0.7,0.3c1.1,0.3,2,0.9,2.3,2.1c0.3,1.1,0,2.1-0.8,2.9
		c-1.1,0.9-2.7,0.9-3.8,0c-1.1-1-1.3-2.7-0.4-3.8C490.3,54.1,490.6,53.9,490.5,53.6z"/>
	<path fill="#829B6B" d="M352.5,86.9c-0.1,0.3-0.3,0.5-0.6,0.7c-0.1-0.6-0.4-0.2-0.6-0.1c-1.5,0.7-2.9,0.5-3.8-0.7
		c-0.8-1.1-0.8-2.5,0.1-3.6c1-1.1,2.5-1.3,3.7-0.5c1.1,0.7,1.5,2.3,1.1,3.5C352.3,86.5,351.8,86.8,352.5,86.9z"/>
	<path fill="#698B64" d="M350.3,117.4c-1.6,0.1-2.8-1.1-2.9-2.8c0-1.5,1.2-2.8,2.7-2.9c1.5-0.1,2.9,1.2,2.9,2.7
		C353.2,116.2,352,117.4,350.3,117.4z"/>
	<path fill="#668764" d="M492,68.4c1.5,0,2.9,1.3,2.9,2.7c0,1.7-1.3,2.9-2.9,2.9c-1.5,0-2.7-1.3-2.7-2.8
		C489.2,69.7,490.4,68.4,492,68.4z"/>
	<path fill="#839B6D" d="M395.9,35.2c-0.7,0-1.4,0-2.1,0.2c0.1-0.4-0.3-0.4-0.5-0.4c-1.5-0.3-2.4-1.3-2.4-2.7c0-1.4,0.9-2.4,2.3-2.7
		c0.8-0.1,1.5,0.1,2.1,0.6c0.2,0.1,0.4,0.7,0.8,0.3c0.2,0.5,0,1.2,0.6,1.6c-0.4-0.1-0.4,0.3-0.4,0.5c-0.1,0.8-0.5,1.4-1.1,1.9
		c-0.1,0.1-0.5,0.2-0.4,0.5c0.1,0.3,0.4,0.1,0.6,0.2C395.7,35.1,395.8,35.1,395.9,35.2z"/>
	<path fill="#A1836A" d="M455.4,82.9c0.5-0.1,1-0.2,1.5-0.3c-0.1,0.4,0.1,0.5,0.4,0.6c1.4,0.5,2.1,1.5,2,3.1
		c-0.1,1.1-1.1,2.2-2.3,2.3c-1.3,0.2-2.5-0.5-3-1.7c-0.5-1.2-0.1-2.6,1.1-3.4C455.3,83.3,455.6,83.2,455.4,82.9z"/>
	<path fill="#829A6B" d="M411.2,45.4c0,0.7-0.5,1.5-1.3,1.9c-0.4,0.3-0.7,0.4-0.1,0.8c0.6,0.4,0.6,1.2,0.1,1.7
		c-0.4,0.5-1,0.5-1.6,0.1c-0.5-0.3-0.6-1.1-0.1-1.6c0.5-0.5,0.2-0.6-0.3-0.7c-1.3-0.4-2-1.7-1.7-3c0.3-1.1,1.5-2,2.7-1.9
		C410.2,42.8,411.2,43.8,411.2,45.4z"/>
	<path fill="#94AF79" d="M416.6,91c0-1.5,1.3-2.7,2.9-2.7c1.4,0,2.7,1.3,2.7,2.8s-1.3,2.9-2.8,2.8C417.8,93.8,416.7,92.7,416.6,91z"
		/>
	<path fill="#A5866C" d="M398.1,67.7c0-1.5,1.3-2.8,2.8-2.7c1.5,0,2.7,1.3,2.7,2.8c0,1.5-1.3,2.8-2.7,2.7
		C399.3,70.5,398.1,69.3,398.1,67.7z"/>
	<path fill="#92AD75" d="M398.4,16.4c1,0,1.9,0.6,2.2,1.5c0.3,0.9,0.1,1.8-0.7,2.5c-0.7,0.6-0.7,0.6,0.1,1.1
		c0.6,0.4,0.8,1.3,0.5,1.9c-0.4,0.7-1.3,0.9-1.9,0.5s-0.9-1.3-0.5-1.9c0.5-0.7,0.4-0.9-0.4-1.2c-1.3-0.5-1.7-1.5-1.5-2.7
		C396.3,17.1,397.2,16.4,398.4,16.4z"/>
	<path fill="#6A8D67" d="M353.9,54.5c-1.1,0-2.1-0.6-2.5-1.7c-0.4-1.1-0.3-2.1,0.5-2.9c0.2-0.3,0.5-0.8,0.9-0.1
		c0.1,0.3,0.4,0.1,0.4-0.2c0-0.7,0.5-0.7,1-0.7c1.5,0.1,2.6,1.4,2.5,2.9C356.5,53.4,355.3,54.5,353.9,54.5z"/>
	<path fill="#688A63" d="M439.5,26.6c-0.1,0.6-0.1,1.2-0.2,1.8c-0.6,1.1-1.5,1.6-2.7,1.5c-1.1-0.1-2-0.7-2.3-1.9
		c-0.4-1.1,0-2.3,1-3.2c0.3-0.5,0.7-0.4,1.1-0.4c0.4,0,0.8-0.1,1.1,0.1C438.7,24.8,439.3,25.5,439.5,26.6z"/>
	<path fill="#92AE77" d="M347.2,93.9c-1.6,0-2.7-1.1-2.7-2.7s1.3-2.6,2.8-2.7c1.4,0,2.7,1.3,2.7,2.7
		C349.9,92.6,348.6,93.9,347.2,93.9z"/>
	<path fill="#C19D79" d="M398.4,112.3c-1.5,0-2.8-1.2-2.8-2.7s1.2-2.7,2.7-2.7c1.5-0.1,2.8,1.3,2.8,2.8
		C401.1,111,399.8,112.3,398.4,112.3z"/>
	<path fill="#96B17A" d="M340.7,129.6c0.1-1.5,1.1-2.6,2.9-2.6c1.3,0,2.5,1.4,2.5,2.8s-1.3,2.7-2.7,2.7
		C341.9,132.5,340.7,131.2,340.7,129.6z"/>
	<path fill="#93AD75" d="M372.4,91.6c-1.5,0-2.7-1.3-2.8-2.9c0-1.2,1.5-2.5,2.9-2.5c1.3,0,2.5,1.3,2.6,2.8
		C375.2,90.3,373.8,91.6,372.4,91.6z"/>
	<path fill="#688964" d="M480.2,60.5c0.1,0.1,0.2,0.2,0.3,0.3c0.6,1.1,0.6,2.1-0.1,3.1c-0.7,0.9-1.6,1.2-2.7,1
		c-1.1-0.2-1.8-0.9-2.1-2.1c-0.3-1.1,0.3-2.3,1.3-2.9C478,59.3,479.2,59.5,480.2,60.5z"/>
	<path fill="#90AC76" d="M359.7,40.5c0-1.5,1.2-2.6,2.7-2.6c1.5,0,2.7,1.2,2.7,2.6c0,1.5-1.2,2.7-2.7,2.7
		C360.8,43.2,359.7,42.1,359.7,40.5z"/>
	<path fill="#859D6E" d="M490.6,102.1c-0.1-0.5-0.4-0.3-0.7-0.3c-1.3,0.1-2.4-0.5-2.8-1.6c-0.5-1.1-0.1-2.4,0.9-3.2
		c1-0.7,2.2-0.7,3.3,0c1.1,0.9,1.3,2.3,0.4,3.8c-0.3,0.4-0.2,0.5,0.3,0.5C491.6,102,491,102,490.6,102.1z"/>
	<path fill="#859C6C" d="M391.7,67.8c0-1.5,1.1-2.7,2.7-2.7c1.4,0,2.7,1.1,2.7,2.5c0.1,1.7-1.1,2.9-2.7,2.9
		C392.9,70.5,391.7,69.3,391.7,67.8z"/>
	<path fill="#A8876A" d="M387.9,118.8c0.7,0.1,1.3,0.4,1.7,1.1c0.1,0.2,0.1,0.5,0.3,0.5s0.3-0.3,0.4-0.5c0.4-0.9,1.1-1.2,1.9-1
		c0.7,0.2,1.2,0.8,1.2,1.7c0,0.8-0.5,1.2-1.2,1.4c-0.7,0.2-1.5-0.1-1.9-0.9c-0.1-0.1-0.1-0.4-0.3-0.3c-0.2,0.1-0.1,0.3-0.1,0.4
		c-0.3,1.1-1.1,1.8-2.1,1.8s-1.8-0.6-2.1-1.7C385.2,120.1,386.2,118.8,387.9,118.8z"/>
	<path fill="#879C6C" d="M385.1,141.2c-0.1-0.1-0.1-0.1-0.2-0.1c-0.5-0.9-0.5-1.1,0.3-1.7c0.4-0.3,0.1-0.5-0.1-0.7
		c-0.6-0.7-0.9-1.4-0.7-2.3c0.3-1.3,1.6-2.1,3-1.8c1.2,0.3,2,1.5,1.7,2.8c-0.1,0.3-0.1,0.7-0.2,1c-0.5,0.3-0.7,0.8-1.3,0.8
		c-0.1,0.1-0.3,0.1-0.4,0.1c-0.7-0.1-1.1,0.1-0.8,0.9C386.7,140.8,386.1,141.2,385.1,141.2z"/>
	<path fill="#BE9A78" d="M457.3,89.4c1.3,0,2.6,1.3,2.6,2.5c-0.1,1.5-1.2,2.7-2.7,2.7c-1.5,0-2.7-1.1-2.7-2.7
		C454.6,90.5,455.8,89.4,457.3,89.4z"/>
	<path fill="#94AD79" d="M415.5,63.6c1.5,0,2.7,1.2,2.6,2.7c0,1.3-1.3,2.5-2.7,2.5c-1.5,0-2.6-1.3-2.6-2.8
		C412.8,64.6,413.9,63.6,415.5,63.6z"/>
	<path fill="#5B9F93" d="M458.4,125.9c0.3-0.3,0.7-0.6,1.1-0.9c0.1,0.5,0.5,0.2,0.7,0.2c1.3-0.2,2.5,0.4,3,1.6c0.4,1.1,0,2.5-1,3.1
		c-1,0.7-2.5,0.5-3.4-0.3c-0.7-0.7-0.9-2-0.5-2.9C458.4,126.4,458.6,126.1,458.4,125.9z"/>
	<path fill="#93AE78" d="M366.6,163.6c0-1.4,1.3-2.6,2.7-2.6c1.4,0.1,2.6,1.3,2.6,2.7c0,1.5-1.2,2.6-2.7,2.7
		C367.9,166.3,366.6,165,366.6,163.6z"/>
	<path fill="#54998C" d="M393.7,51.1c0.3-0.4,0.5-0.9,0.8-1.3c0.5-0.2,0.9-0.5,1.4-0.6c0.6-0.1,1.1-0.1,1.5,0.4
		c0.4,0.4,1,0.5,1.3,1.1c0.5,1,0.3,2-0.3,2.9c-0.7,0.8-1.9,1.1-3,0.7c-1-0.4-1.5-1.2-1.6-2.3C393.6,51.7,393.7,51.4,393.7,51.1z"/>
	<path fill="#859C6D" d="M357.2,138.8c-1.4,0-2.5-1.1-2.6-2.5c0-1.5,1.2-2.7,2.6-2.7s2.7,1.3,2.7,2.7
		C359.8,137.7,358.6,138.8,357.2,138.8z"/>
	<path fill="#A7886D" d="M404.5,131.1c-1.5,0-2.5-1-2.5-2.5c0-1.5,1.1-2.7,2.5-2.7c1.5,0,2.7,1.1,2.6,2.6
		C407,130.1,406,131.1,404.5,131.1z"/>
	<path fill="#698A65" d="M444,150.8c-1.5,0-2.6-1.1-2.7-2.5c0-1.4,1.1-2.5,2.6-2.5c1.5,0,2.6,1.1,2.6,2.5
		C446.6,149.6,445.5,150.8,444,150.8z"/>
	<path fill="#879E6F" d="M472.9,166.3c1.5,0,2.5,1.1,2.5,2.6c0,1.3-1.2,2.5-2.6,2.5c-1.5,0-2.6-1.1-2.6-2.5
		C470.1,167.4,471.3,166.3,472.9,166.3z"/>
	<path fill="#849D6E" d="M500.1,111.6c1.4,0,2.5,1.1,2.5,2.6c-0.1,1.5-1.2,2.6-2.6,2.5c-1.4-0.1-2.5-1.3-2.5-2.6
		C497.5,112.6,498.6,111.5,500.1,111.6z"/>
	<path fill="#6A9A84" d="M381.9,115.2c-0.6,0.1-1.1,0.2-1.7,0c-1.6-0.9-1.9-1.6-1.5-3.6c0.1-0.2,0.1-0.4-0.1-0.5
		c0-0.4,0-0.7,0.5-0.8c-0.1,0.5,0.1,0.5,0.5,0.3c1.1-0.7,2.2-0.6,3.1,0.1c1.4,1.2,1.3,3.2-0.3,4.2C382.2,115,382,115,381.9,115.2z"
		/>
	<path fill="#6C9C85" d="M421.3,118.2c1.4,0,2.5,1.1,2.6,2.5c0,1.4-1.1,2.6-2.5,2.7c-1.3,0-2.6-1.1-2.7-2.5
		C418.7,119.3,419.8,118.2,421.3,118.2z"/>
	<path fill="#6A8B65" d="M442.1,17c0,1.4-1.1,2.5-2.5,2.5c-1.4,0-2.5-1.1-2.6-2.5c0-1.4,1.1-2.6,2.5-2.6
		C440.9,14.4,442.1,15.6,442.1,17z"/>
	<path fill="#95AF77" d="M390.4,152.1c1.5,0,2.6,1,2.7,2.4c0.1,1.5-1.1,2.6-2.5,2.6c-1.4,0-2.7-1.1-2.6-2.5
		C387.9,153.2,389.1,152,390.4,152.1z"/>
	<path fill="#92AC77" d="M377.5,42.8c-1.3,0-2.5-1.2-2.5-2.5c0-1.4,1.3-2.5,2.7-2.5c1.3,0,2.5,1.2,2.4,2.5
		C380.1,41.7,378.9,42.8,377.5,42.8z"/>
	<path fill="#6B8C66" d="M367.3,70.7c-1.5,0-2.5-1.1-2.5-2.5c0-1.3,1.1-2.5,2.5-2.5c1.5,0,2.6,1.2,2.6,2.6
		C369.8,69.7,368.6,70.8,367.3,70.7z"/>
	<path fill="#C19D7A" d="M391.5,126.9c0.1,0.5,0.5,0.3,0.7,0.3c1.3,0.2,2.1,0.9,2.3,1.9c0.2,0.9-0.3,2.1-1.1,2.6
		c-1,0.7-2.3,0.5-3.1-0.3c-1-1-1.1-2.1-0.3-3.2c0.2-0.3,0.7-0.5,0.7-1C390.9,127,391.2,126.8,391.5,126.9z"/>
	<path fill="#859E6D" d="M479.4,90.4c-1.5,0.1-2.6-0.9-2.7-2.3c-0.1-1.4,1.1-2.6,2.5-2.6c1.3,0,2.5,1.1,2.5,2.4
		C481.9,89.3,480.9,90.4,479.4,90.4z"/>
	<path fill="#6E9C86" d="M462.8,117.7c1.4,0,2.5,1,2.5,2.4c0,1.5-1.1,2.5-2.5,2.5c-1.3,0-2.5-1.1-2.5-2.5
		C460.3,118.7,461.3,117.7,462.8,117.7z"/>
	<path fill="#699B84" d="M384.4,150.1c0-1.3,1.1-2.4,2.5-2.4c1.4,0,2.5,1.1,2.5,2.5c0,1.4-1.1,2.5-2.5,2.4
		C385.4,152.6,384.4,151.6,384.4,150.1z"/>
	<path fill="#95B07A" d="M453.4,157.6c0.3-0.3,0.6-0.7,0.9-0.9c0.2,0.6,0.6,0.1,0.9,0.1c1.2-0.3,2.3,0.2,2.9,1.3
		c0.5,0.9,0.2,2.1-0.5,2.9c-0.7,0.7-2,0.8-2.9,0.3c-0.9-0.5-1.4-1.5-1.3-2.5C453.3,158.4,453.7,158,453.4,157.6z"/>
	<path fill="#6C9C85" d="M409.7,128.6c-1.4,0-2.5-1.1-2.6-2.5c0-1.3,1.1-2.5,2.5-2.5c1.3,0,2.5,1.1,2.5,2.5
		C412.2,127.4,411.1,128.6,409.7,128.6z"/>
	<path fill="#97B17C" d="M507,105.9c-0.2,0-0.5,0-0.7,0c0.3-0.3,0.1-0.3-0.1-0.5c-0.7-0.4-1-1.1-0.6-1.8c0.4-0.6,1.1-0.7,1.8-0.3
		c0.2,0.1,0.5,0.3,0.6,0c0.1-0.4,0.7-0.9,0-1.3c0.8-0.3,1.6-0.5,2.1-1.3c0.1,0.5,0.5,0.4,0.8,0.5c1.1,0.5,1.7,1.5,1.4,2.5
		c-0.3,1.1-1.3,1.8-2.3,1.7c-0.6-0.1-1.1-0.3-1.5-0.8c-0.3-0.5-0.5-0.5-0.7,0.1c-0.1,0.3-0.3,0.6-0.7,0.7
		C506.6,105.6,506.8,105.8,507,105.9z"/>
	<path fill="#709F87" d="M421.6,105.6c0-1.5,1.1-2.5,2.4-2.5c1.5,0,2.5,1.1,2.5,2.5c0,1.3-1.1,2.5-2.4,2.5
		C422.7,108.1,421.6,106.9,421.6,105.6z"/>
	<path fill="#859D6F" d="M473.6,32.3c-0.4,0.5-0.7,0.9-1.1,1.4c0.1-0.5-0.1-0.5-0.5-0.3c-0.7,0.3-1.5,0.3-2.2-0.1
		c-0.9-0.5-1.4-1.5-1.2-2.5c0.1-1,0.9-1.7,1.9-2c1-0.2,2.1,0.3,2.7,1.1c0.4,0.5,0.3,1.1,0.3,1.8C473.3,31.9,473.1,32.2,473.6,32.3z"
		/>
	<path fill="#668761" d="M456.4,52c-0.7,0.3-1.3,0.5-2,0c-0.7-0.3-1.1-0.8-1.4-1.5c-0.5-0.8-0.3-1.5,0.3-2.2
		c0.7-0.7,1.6-1.2,2.7-0.9c1,0.3,1.6,0.9,1.7,1.9C458,50.5,457.5,51.4,456.4,52z"/>
	<path fill="#6A8B65" d="M385.5,25.9c-0.5,0-0.9,0-1.3,0c-1.3-0.4-2-1.5-1.8-2.7c0.2-1.3,1.2-2.1,2.4-2.1c1.1,0,2.1,0.9,2.4,2
		C387.5,24.3,386.8,25.3,385.5,25.9z"/>
	<path fill="#A4856A" d="M410.6,91c-1.3,0-2.4-1-2.4-2.3s1.1-2.5,2.4-2.5c1.3,0,2.5,1.1,2.5,2.4C413.2,90,412.1,91,410.6,91z"/>
	<path fill="#829B6C" d="M421.1,45.9c0-1.4,1.1-2.4,2.5-2.4c1.3,0,2.4,1.1,2.4,2.5c0,1.3-1.2,2.3-2.5,2.3
		C422.2,48.4,421.1,47.3,421.1,45.9z"/>
	<path fill="#669882" d="M450.3,163.9c-1.4,0-2.3-1-2.3-2.5c0-1.3,1.1-2.3,2.3-2.3c1.4,0,2.5,1.1,2.5,2.5
		C452.8,163,451.7,163.9,450.3,163.9z"/>
	<path fill="#BF9C78" d="M371.6,110.8c-0.1,0.2-0.4,0.3-0.6,0.3c-0.1-0.5-0.5-0.3-0.9-0.3c-1,0.1-2-0.5-2.4-1.3
		c-0.5-1.1-0.3-2.1,0.5-2.9c0.9-0.9,2.3-0.9,3.2-0.1c1,0.8,1.1,2.2,0.3,3.3C371.6,110.2,371.2,110.4,371.6,110.8z"/>
	<path fill="#B08866" d="M440.3,96.1c0,1.3-1.1,2.5-2.5,2.5s-2.4-1.2-2.3-2.6c0-1.2,1.1-2.3,2.4-2.3
		C439.2,93.6,440.3,94.7,440.3,96.1z"/>
	<path fill="#889F6F" d="M404.9,60.3c-0.1,0.4-0.3,0.7-0.5,0.9c-0.5,0.3-1,0.6-1.6,0.5c-0.6-0.1-0.7,0.1-0.5,0.7
		c0.2,0.6-0.3,1.3-0.9,1.5s-1.4-0.1-1.7-0.7c-0.3-0.7-0.1-1.2,0.5-1.6c0.9-0.6,0.9-0.6,0.8-1.6c-0.1-1.1,0.7-2,1.9-2.1
		c1.1-0.1,1.9,0.7,2,1.8C404.9,59.9,404.9,60.1,404.9,60.3z"/>
	<path fill="#6E9D86" d="M407.8,108.6c-1.3,0-2.3-1-2.3-2.3s1-2.3,2.3-2.4c1.3,0,2.4,1,2.4,2.3C410.3,107.5,409.2,108.6,407.8,108.6
		z"/>
	<path fill="#5DA094" d="M373.6,126.2c0-1.3,1-2.3,2.3-2.3c1.3,0,2.3,1.1,2.3,2.3c0,1.4-1,2.4-2.3,2.4
		C374.6,128.6,373.5,127.5,373.6,126.2z"/>
	<path fill="#5A9E92" d="M411.2,106.3c0-1.3,1.1-2.4,2.3-2.3c1.3,0,2.4,1.1,2.4,2.4s-1.1,2.3-2.3,2.3
		C412.2,108.7,411.1,107.6,411.2,106.3z"/>
	<path fill="#6B8D67" d="M470,158.3c-1.3,0-2.3-1.1-2.3-2.4c0-1.3,1.1-2.3,2.4-2.3s2.3,1.1,2.3,2.3
		C472.4,157.3,471.4,158.3,470,158.3z"/>
	<path fill="#6B8C65" d="M367.1,94.3c1.3,0,2.4,1.1,2.4,2.4c0,1.3-1.1,2.3-2.4,2.3c-1.2,0-2.3-1.1-2.3-2.3
		C364.8,95.3,365.8,94.3,367.1,94.3z"/>
	<path fill="#6A8C66" d="M460.7,147c0.1-0.4,0.1-0.8,0.1-1.2c0.5-1.2,1.6-1.8,2.7-1.5c1.1,0.3,1.9,1.3,1.9,2.3
		c-0.1,1.3-0.9,2.2-2.2,2.3C462.1,149,461.2,148.4,460.7,147z"/>
	<path fill="#859C6D" d="M380.4,73.6c1.3,0.1,2.3,1.1,2.3,2.4c0,1.3-1.1,2.3-2.4,2.3c-1.3-0.1-2.3-1.1-2.3-2.5
		C378.1,74.5,379.1,73.6,380.4,73.6z"/>
	<path fill="#6C8C66" d="M431.5,140.5c0,1.3-1,2.3-2.3,2.3c-1.3,0-2.4-1-2.4-2.4c0-1.2,1-2.3,2.2-2.3
		C430.4,138.1,431.5,139.1,431.5,140.5z"/>
	<path fill="#A2836A" d="M443.1,93.1c0.4-0.7,1.1-0.8,1.7-1.1c1.7-0.1,2.7,0.9,2.6,2.5c-0.1,1.4-1.2,2.3-2.7,2.2
		C443.2,96.5,442.4,94.9,443.1,93.1z"/>
	<path fill="#94AE77" d="M413.9,21.9c0.5,0,1.1,0,1.7,0c-0.4,0.4,0,0.4,0.3,0.5c1.5,0.5,2.2,1.9,1.6,3.2c-0.4,0.9-1.3,1.5-2.3,1.4
		c-0.9-0.1-1.9-0.9-2.1-1.7c-0.3-1.1,0.1-1.9,1-2.6c0.3-0.2,0.8-0.1,0.7-0.5C414.8,21.8,414.3,22.1,413.9,21.9L413.9,21.9z"/>
	<path fill="#6F9D86" d="M425.1,65.1c1.2,0,2.2,1.1,2.2,2.3c0,1.3-1.1,2.3-2.4,2.3c-1.3,0-2.3-1.1-2.2-2.5
		C422.6,66,423.7,65,425.1,65.1z"/>
	<path fill="#6D9B85" d="M395.2,76C395.2,76,395.2,76,395.2,76c-0.7-0.2-1.3-0.3-1.7-0.9c-0.7-0.8-0.7-1.9-0.2-2.7
		c0.7-0.9,1.7-1.3,2.9-0.9c0.9,0.3,1.5,1.3,1.4,2.2c-0.1,1.1-0.8,2-1.9,2.2C395.6,76,395.4,75.9,395.2,76z"/>
	<path fill="#95AD74" d="M431.4,91.5c0.9,0.1,1.5-0.3,2.1-0.8c-0.1,0.4,0.2,0.5,0.5,0.6c1.7,0.9,2,2.8,0.7,3.9c-0.9,0.8-2,0.8-3,0.1
		c-0.8-0.6-1.1-1.9-0.5-2.8C431.4,92.1,431.6,91.8,431.4,91.5z"/>
	<path fill="#6B8A65" d="M397,90.5c-0.5-0.1-1.2-0.1-1.5-0.7c-0.8-1.7-0.5-2.9,0.9-3.6c1.2-0.5,2.6,0.1,3.1,1.3
		c0.5,1.3-0.2,2.5-1.6,2.9C397.6,90.5,397.3,90.6,397,90.5z"/>
	<path fill="#678863" d="M450.3,36.6c-0.4-0.3-0.9-0.6-1.1-1.1c-0.8-1.9,0.8-3.7,2.7-3.2c1.1,0.3,1.9,1.4,1.7,2.5
		c-0.1,1.1-1.3,2-2.4,1.9C450.9,36.7,450.6,36.7,450.3,36.6z"/>
	<path fill="#8EAB74" d="M389.6,52.4c0.5,0,1.1,0,1.7,0c-0.1,0.4,0.3,0.5,0.5,0.6c1.1,0.7,1.5,2.1,0.7,3.2c-0.7,1.1-2,1.3-3.1,0.7
		c-1-0.7-1.3-2.1-0.7-3.2c0.1-0.3,0.4-0.5,0.6-0.6C389.5,52.9,389.7,52.8,389.6,52.4z"/>
	<path fill="#6A8C66" d="M368.5,81.2c0.5-0.2,1.1-0.1,1.6-0.2c1.2,0.3,1.8,1.1,1.7,2.3c-0.1,1-0.9,1.9-1.8,2.1
		c-1.3,0.2-2.2-0.3-2.6-1.3C367.1,82.9,367.5,81.9,368.5,81.2z"/>
	<path fill="#98B37B" d="M505.9,81.2c1.1-0.1,1.8-0.8,2.3-1.8c-0.1,0.5,0.3,0.6,0.7,0.7c1.2,0.5,1.8,1.4,1.5,2.6
		c-0.2,1.1-1.3,1.9-2.5,1.9c-1.1-0.1-2-0.9-2-2.1C505.9,82.1,505.9,81.7,505.9,81.2z"/>
	<path fill="#599D8F" d="M442.7,151.7c1.2,0,2.2,1,2.2,2.2c0,1.2-1,2.2-2.2,2.2c-1.3,0-2.3-1-2.3-2.3
		C440.5,152.6,441.5,151.6,442.7,151.7z"/>
	<path fill="#6A9A84" d="M430.1,151.6c1.2,0,2.2,1,2.3,2.1c0,1.3-1.1,2.3-2.2,2.3c-1.2,0-2.2-1.1-2.2-2.3
		C427.9,152.6,428.9,151.6,430.1,151.6z"/>
	<path fill="#AF8766" d="M439.1,74.1c0.7,0.3,1.5,0.5,1.9,1.3c0.5,1,0.1,2.2-0.7,2.8c-0.9,0.6-2.2,0.5-2.9-0.3
		c-0.8-0.9-0.8-2.1-0.1-3.1c0.1-0.2,0.4-0.3,0.5-0.6C438.1,74.2,438.6,73.9,439.1,74.1z"/>
	<path fill="#93AE79" d="M479.4,138.6c0.1-0.2,0.3-0.3,0.5-0.4c0.1,0.6,0.5,0.3,0.8,0.3c1.4-0.1,2.2,0.4,2.6,1.8
		c0.2,0.7-0.1,1.7-0.8,2.2c-0.7,0.5-1.7,0.6-2.5,0.1c-0.7-0.4-1.1-1.5-1-2.1c0.1-0.5,0.2-0.9,0.6-1.3
		C479.8,138.8,479.8,138.6,479.4,138.6z"/>
	<path fill="#879C6D" d="M442.4,135.9c-0.4,0.1-0.8-0.1-1.2-0.1c-0.8-0.5-1.3-1.2-1.3-2.2c0.1-1.1,1-2,2.1-2.1
		c1.1-0.1,2.1,0.7,2.3,1.9c0.1,0.3-0.1,0.6,0.4,0.5c0.2,0.4,0.1,0.7-0.1,1.1c-0.2-0.2-0.4-0.3-0.5,0
		C443.6,135.4,443,135.6,442.4,135.9z"/>
	<path fill="#BF9D79" d="M445.4,74.7c0-1.3,0.9-2.2,2.2-2.2s2.3,1.1,2.3,2.3c0,1.1-1.1,2.1-2.3,2.1C446.3,76.8,445.4,76,445.4,74.7z
		"/>
	<path fill="#A6856C" d="M398.2,94.4c0-0.4,0-0.8,0-1.3c0.3-0.1,0.3-0.3,0.4-0.5c0.4-0.8,1.5-1.3,2.3-1.1c1,0.2,1.7,0.9,1.7,1.9
		c0.1,1.1-0.4,1.9-1.4,2.3c-0.9,0.3-1.9,0-2.5-0.7C398.6,94.8,398.5,94.4,398.2,94.4z"/>
	<path fill="#589E90" d="M353.4,74.9c-1.3,0-2.2-0.9-2.2-2.2c0-1.3,0.9-2.1,2.1-2.1c1.3,0,2.2,0.9,2.3,2.2
		C355.5,73.9,354.6,74.9,353.4,74.9z"/>
	<path fill="#6E9C85" d="M362,67.5c-0.9-1-1.9-0.3-2.9-0.5c0.9-0.3,0.9-0.3,0.6-1.3c-0.4-1.1,0.1-2.3,1.1-2.8c1-0.5,2.3,0.1,2.8,1.1
		c0.5,1.1,0.1,2.3-0.9,2.9C362.4,67,361.9,67,362,67.5z"/>
	<path fill="#579D8E" d="M430,78c0,1.3-0.9,2.1-2.2,2.1c-1.1,0-2.1-1-2.1-2.2c0-1.1,1-2.1,2.2-2.2C429.1,75.8,430,76.8,430,78z"/>
	<path fill="#698C67" d="M499.9,104.6c0-1.2,1.1-2.1,2.2-2.1s2.1,1.1,2.1,2.3c0,1.1-1.1,2.1-2.3,2.1
		C500.9,106.9,499.9,105.9,499.9,104.6z"/>
	<path fill="#6A8C65" d="M379,110.3c-0.1,0.3-0.3,0.5-0.5,0.8c-0.7,0.5-1.4,0.8-2.2,0.5c-0.6-0.1-0.9-0.5-1.3-1
		c-0.4-0.9-0.4-1.7,0.3-2.5c0.6-0.7,1.4-0.9,2.3-0.6c0.9,0.2,1.4,0.9,1.5,1.7C379.2,109.6,379.2,109.9,379,110.3z"/>
	<path fill="#93AC76" d="M439.8,114.4c0.7,0,1.3,0,1.9,0c0,0.5,0.4,0.3,0.7,0.4c0.9,0.3,1.5,0.7,1.8,1.7c0.2,0.9,0,1.6-0.7,2.2
		c-0.8,0.7-2,0.6-2.7-0.1c-0.8-0.7-0.9-1.9-0.3-2.8c0.2-0.2,0.4-0.5,0.6-0.6c0.1-0.1,0.3-0.1,0.3-0.3c-0.1-0.3-0.3-0.1-0.5-0.2
		C440.5,114.5,440.1,114.6,439.8,114.4z"/>
	<path fill="#BF9C78" d="M466.1,105.2c-1.2,0-2.1-1-2.1-2.2c0-1.3,1-2.1,2.3-2.1c1.2,0,2.1,1,2.1,2.3
		C468.3,104.4,467.4,105.2,466.1,105.2z"/>
	<path fill="#6A9B84" d="M425.8,59.1c-0.1-0.1-0.2-0.3-0.3-0.4c-0.4-1.4-0.1-2.4,1-2.9c1-0.5,2.1-0.3,2.7,0.6
		c0.6,0.8,0.5,2.1-0.2,2.9c-0.7,0.7-1.9,0.8-2.8,0.2C426.1,59.3,426,59.2,425.8,59.1z"/>
	<path fill="#94AF7A" d="M479.8,129c0.2-0.3,0.4-0.5,0.6-0.7c0.3,0.3,0.5,0.1,0.7-0.1c1-0.5,2.1-0.2,2.7,0.5
		c0.7,0.8,0.7,1.9,0.1,2.7s-1.6,1.1-2.5,0.7c-1.1-0.5-1.5-1.3-1.3-2.5C480,129.2,480.2,129,479.8,129z"/>
	<path fill="#91AC76" d="M385.1,95.5c0.7,0.1,1.2-0.4,1.9-0.3c1.1,0.1,1.9,0.9,2,2.1c0.1,1.1-0.8,2.1-1.9,2.1
		c-1.2,0.1-2.1-0.5-2.3-1.7c-0.1-0.4-0.1-0.9,0.1-1.3c0.1-0.2,0.3-0.5,0-0.7C384.8,95.6,384.9,95.5,385.1,95.5z"/>
	<path fill="#688A63" d="M404.9,165.7c0,1.1-1,2.1-2.1,2.1c-1.2,0-2.2-1-2.2-2.2c0-1.1,1-2.1,2.2-2.1
		C403.9,163.5,404.9,164.5,404.9,165.7z"/>
	<path fill="#A5866D" d="M438.7,63.4c0.2-0.4,0.4-0.7,0.6-1.1c0.7-0.1,1.2-0.6,1.9-0.5c0.3,0,0.5,0,0.7,0.2c1.5,0.8,1.9,2.2,0.9,3.4
		c-0.6,0.7-1.5,1-2.3,0.7c-0.9-0.3-1.5-1.2-1.4-2.1C439.1,63.6,439.2,63.3,438.7,63.4z"/>
	<path fill="#94AE78" d="M365.2,126.5c0-1.2,1-2.2,2.1-2.2c1.1,0,2.1,1,2.2,2.1c0,1.1-1,2.2-2.1,2.2
		C366.3,128.6,365.2,127.6,365.2,126.5z"/>
	<path fill="#94AE78" d="M472.5,131.8c0.1,1.1-0.8,2.1-2.2,2.1c-1.1,0-2.1-1.1-2-2.2c0.1-1.3,0.9-2,2.3-2.1
		C471.7,129.6,472.6,130.7,472.5,131.8z"/>
	<path fill="#709E87" d="M393,89.8c-0.4,0.2-0.9,0.4-1.3,0.5c0.2-0.6-0.3-0.4-0.5-0.5c-0.9-0.1-1.6-0.7-1.9-1.6
		c-0.2-0.7,0.2-1.7,0.8-2.1c0.8-0.5,1.7-0.6,2.5-0.1c1,0.7,1.2,2.1,0.5,3c-0.2,0.2-0.4,0.4-0.6,0.6C392.5,89.9,392.8,89.6,393,89.8z
		"/>
	<path fill="#A6866B" d="M465.2,133.7c-1.1,0-2.2-0.9-2.2-2c0-1.2,0.9-2.2,2.1-2.2s2.1,0.9,2.1,2.1
		C467.4,132.7,466.5,133.7,465.2,133.7z"/>
	<path fill="#698A64" d="M379.5,37.3c-1.1,0-2.1-0.9-2.1-2.1c0-1.2,1-2.1,2.2-2.1c1.1,0,2.1,1,2.1,2.1
		C381.7,36.4,380.7,37.3,379.5,37.3z"/>
	<path fill="#A3846A" d="M470.5,60.9c0.1-1.1,0.9-2,2.1-2c1.1,0,2.1,1.1,2.1,2.1s-1.1,2.1-2.3,2.1C471.4,63.2,470.5,62.2,470.5,60.9
		z"/>
	<path fill="#829A6C" d="M368.8,47.7c-1.2,0-2.1-0.9-2.1-2c0-1.2,0.9-2.2,2.1-2.2c1.1,0,2.1,1,2.1,2.1
		C371,46.9,370.1,47.7,368.8,47.7z"/>
	<path fill="#6B8E67" d="M425.4,156.7c-1.1,0-2.1-0.9-2.1-2.1c0-1.1,0.9-2.1,2.1-2.1c1.1,0,2.1,0.9,2.1,2.2
		C427.5,155.9,426.6,156.7,425.4,156.7z"/>
	<path fill="#6A8B64" d="M436.2,113.9c0,1.1-0.9,2.1-2.1,2.1s-2.1-0.9-2.1-2.1c0-1.1,0.9-2.1,2.1-2.1
		C435.2,111.8,436.1,112.7,436.2,113.9z"/>
	<path fill="#6A8C66" d="M462.7,163.1c0,1.1-0.9,2.1-2.1,2.1c-1.1,0-2.1-0.9-2.1-2.1c0-1.2,0.9-2.1,2-2.1
		C461.7,161,462.7,161.9,462.7,163.1z"/>
	<path fill="#849C6E" d="M438.2,35.2c-1.1,0-2.1-1-2.1-2.2c0-1.1,0.9-2,2.1-2c1.2,0,2.1,0.9,2.1,2.1
		C440.3,34.2,439.3,35.2,438.2,35.2z"/>
	<path fill="#859C6E" d="M419.1,171.8c0.6,0.6,1,1.3,0.5,2.1c-0.1,0.3-0.3,0.6-0.5,0.8c-0.2,0.2-0.3,0.4,0,0.6
		c-0.1,0.5-0.4,0.5-0.8,0.3c-0.1-0.6-0.5-0.3-0.7-0.3c-1.2-0.1-2.1-1.1-1.9-2.3c0.1-1.2,1.1-1.9,2.4-1.8
		C418.4,171.3,418.8,171.5,419.1,171.8z"/>
	<path fill="#94AD77" d="M401.7,146.1c1.1,0,2.1,0.9,2.1,2.1c0,1.1-1,2-2.1,2c-1.1,0-2.1-0.9-2.1-1.9
		C399.5,147,400.4,146.1,401.7,146.1z"/>
	<path fill="#B68D6C" d="M389.7,135c0-1.1,1-2.1,2.1-2.1c1.1,0,2.1,1,2.1,2.1s-0.9,2-2.1,2.1C390.7,137,389.7,136.1,389.7,135z"/>
	<path fill="#5F9E92" d="M404.6,81.9c0,1.1-0.9,2-2.1,2c-1.1,0-2-1-2-2.1s0.9-2,2.1-2.1C403.7,79.8,404.6,80.7,404.6,81.9z"/>
	<path fill="#6A8B65" d="M359.5,102.1c0.6-0.2,1.2-0.2,1.8,0c1.2,0.9,1.5,2.2,0.6,3.2c-0.6,0.7-1.4,0.9-2.3,0.5
		c-0.7-0.3-1.2-0.9-1.3-1.7C358.3,103.2,358.6,102.6,359.5,102.1z"/>
	<path fill="#869D6E" d="M364.3,83.6c-0.5,0.3-1.3,0.5-1.9,0.3c-0.9-0.4-1.5-1.2-1.4-2.1s0.7-1.7,1.5-1.8c0.9-0.2,1.9,0.2,2.3,1
		S365.1,82.9,364.3,83.6z"/>
	<path fill="#869D6E" d="M435.9,81.5c-0.6-0.1-1.3,0.1-1.9-0.3c-0.8-0.5-1.2-1.5-0.8-2.5c0.3-0.9,1.3-1.4,2.2-1.2
		c0.9,0.1,1.6,1,1.7,1.9c0,0.5-0.3,0.9-0.1,1.3C436.8,81.1,436.5,81.5,435.9,81.5z"/>
	<path fill="#A6866B" d="M428.6,122.9c0,1.1-0.9,2.1-1.9,2.1c-1.3,0-2.1-0.9-2.1-2.1c0-1.1,0.9-2,2-2
		C427.7,120.8,428.6,121.7,428.6,122.9z"/>
	<path fill="#889F71" d="M488.6,144.1c0,1.1-0.9,1.9-2.1,1.9c-1.1,0-1.9-0.8-1.9-1.9c0-1.1,0.9-2.1,2.1-2.1
		C487.7,142.1,488.5,143,488.6,144.1z"/>
	<path fill="#87A071" d="M510.8,89.3c0,1.1-0.9,2-2.1,2c-1.1,0-1.9-0.9-1.9-1.9c0-1.1,0.9-2.1,2.1-2.1
		C509.9,87.3,510.8,88.2,510.8,89.3z"/>
	<path fill="#6A8B65" d="M376.8,75.5c0,1.1-0.9,2-2.1,2c-1.1,0-2-0.9-2-1.9c0-1.1,0.9-2.1,1.9-2.1C375.9,73.5,376.8,74.3,376.8,75.5
		z"/>
	<path fill="#6D9B84" d="M435.9,81.5c0.3-0.3,0.7-0.7,1.1-0.8c1-0.2,1.8,0.1,2.3,1.1c0.5,1,0.1,1.8-0.5,2.6
		c-0.2,0.1-0.4,0.2-0.6,0.3C436.5,85,435.3,83.7,435.9,81.5z"/>
	<path fill="#719F86" d="M377.4,88.5c0-1.1,0.9-2,1.9-2c1.1,0,2.1,0.9,2.1,1.9c0,1-1,2.1-2,2.1C378.2,90.5,377.3,89.6,377.4,88.5z"
		/>
	<path fill="#A6866C" d="M446.7,69.2c0-1.1,0.8-1.9,1.9-1.9c1.1,0,1.9,0.9,1.9,1.9c0,1.1-0.9,2-2,2
		C447.5,71.3,446.7,70.4,446.7,69.2z"/>
	<path fill="#A7866B" d="M366.3,116.8c-1.1,0-1.9-0.7-1.9-1.9c0-1.1,0.8-2,1.9-2c1,0,1.9,0.9,1.9,2
		C368.3,116,367.5,116.8,366.3,116.8z"/>
	<path fill="#6D8F6B" d="M345.9,134.7c1.1,0,1.9,0.9,1.9,1.9c0,1.1-0.9,1.9-1.9,1.9c-1.1,0-1.9-0.9-1.9-2.1
		C343.9,135.5,344.8,134.7,345.9,134.7z"/>
	<path fill="#6D9B85" d="M391.5,126.9c-0.3,0.1-0.5,0.3-0.8,0.3c-1.5,0.2-2.6-1.1-2.3-2.3c0.2-0.8,0.7-1.3,1.5-1.5
		c0.8-0.1,1.5,0.1,2,0.7c0.5,0.7,0.5,1.5,0.1,2.2C391.9,126.6,391.7,126.7,391.5,126.9z"/>
	<path fill="#96AD77" d="M436.1,65.1c0.2-0.3,0.6-0.2,0.9-0.3c-0.2,0.6,0.3,0.5,0.6,0.6c0.9,0.3,1.5,1.3,1.3,2.3
		c-0.2,0.9-1.1,1.6-2.1,1.5c-0.7-0.1-1.1-0.4-1.5-1.1c-0.3-0.7-0.3-1.4,0.2-2C435.8,65.8,436.2,65.6,436.1,65.1z"/>
	<path fill="#BF9E7A" d="M442,61.9c-0.3,0-0.5,0-0.9,0c-0.3-0.4-0.7-0.7-1.1-1.1c-0.3,0-0.1,0.5-0.5,0.5c-0.1-0.6,0.1-1.3-0.2-1.9
		c0.1,0.1,0.4,0.3,0.5,0c0.2-0.7,0.9-1.1,1.1-1.6c0.2,0,0.4,0,0.6,0c0.1,0.1,0.3,0.1,0.5,0.1c0.8,0.3,1.3,0.8,1.4,1.6
		c0.1,0.7-0.3,1.5-1.1,1.9C442.2,61.5,441.9,61.5,442,61.9z"/>
	<path fill="#688A65" d="M387.7,37.4c-0.1-0.1-0.2-0.2-0.3-0.3c-0.3-1-0.1-1.9,0.6-2.4c0.6-0.5,1.5-0.5,2.2,0
		c0.9,0.6,1.1,1.9,0.4,2.7C389.9,38.3,388.7,38.3,387.7,37.4z"/>
	<path fill="#AE8765" d="M443.2,55.2c-0.1-0.2-0.1-0.3-0.1-0.5c0.3-0.1,0.2-0.3,0.3-0.5c0.3-0.9,0.9-1.3,1.9-1.3
		c0.9,0,1.5,0.5,1.8,1.3c0.2,0.7-0.1,1.6-0.7,2.1c-0.7,0.5-1.9,0.3-2.5-0.4C443.6,55.6,443.5,55.4,443.2,55.2z"/>
	<path fill="#688A65" d="M349,61.6c-1.1-0.1-1.8-0.9-1.7-2c0.1-1.1,0.9-1.8,2-1.7s1.7,0.9,1.7,2C351,60.9,350.1,61.6,349,61.6z"/>
	<path fill="#6A8B65" d="M411,36.6c0.4,0,0.8,0,1.1,0c1.4,0.8,1.6,2.1,0.5,3.2c-0.4,0.7-1,0.9-1.6,0.5c-0.3-0.3-0.7-0.4-0.9-0.7
		C409.1,38.5,409.6,36.9,411,36.6z"/>
	<path fill="#839B6C" d="M387.1,157.9c-0.5-0.1-1.1,0.3-1.6,0.3c-0.7-0.5-1.6-0.9-1.5-2c0.1-0.8,0.5-1.5,1.3-1.7
		c0.8-0.3,1.5,0,2,0.6c0.6,0.6,0.5,1.3,0.3,2C387.4,157.4,387.1,157.5,387.1,157.9z"/>
	<path fill="#91AC77" d="M378.7,157.1c0.9,0.1,1.7,0.2,2.5-0.5c-0.2,0.5,0.2,0.5,0.5,0.7c0.7,0.5,1,1.3,0.7,2.1
		c-0.3,0.8-0.9,1.3-1.8,1.3c-0.7,0-1.5-0.5-1.7-1.3c-0.2-0.6-0.1-1.1,0.3-1.6C379.3,157.4,379,157.3,378.7,157.1z"/>
	<path fill="#698A65" d="M418.3,175.6c0.3-0.1,0.6-0.1,0.8-0.3c0.9-0.1,1.5,0.1,1.9,0.9c0.4,0.7,0.3,1.3-0.1,1.9
		c-0.5,0.7-1.1,0.9-1.9,0.8c-0.7-0.1-1.3-0.6-1.5-1.3C417.4,176.8,417.6,176.2,418.3,175.6z"/>
	<path fill="#698B65" d="M499.6,123.2c-1,0-1.9-0.9-1.9-1.9c0-1,0.9-1.8,1.9-1.8c1,0,1.9,0.9,1.8,1.9
		C501.6,122.4,500.7,123.2,499.6,123.2z"/>
	<path fill="#6A8C66" d="M440.8,123.8c-0.1-0.1-0.3-0.1-0.5-0.1c-1-0.7-1.3-1.8-0.7-2.7c0.5-0.9,1.6-1.1,2.5-0.6
		c0.7,0.5,1.1,1.3,0.8,2.2C442.6,123.5,441.9,123.9,440.8,123.8z"/>
	<path fill="#688A63" d="M373.8,45.7c-1.1,0-1.9-0.9-1.9-1.9c0-0.9,0.9-1.8,1.9-1.7c1.1,0,1.9,0.9,1.9,1.9
		C375.8,44.8,374.9,45.7,373.8,45.7z"/>
	<path fill="#98B27C" d="M484.1,158.7c0.3,0.1,0.7,0.3,1,0.5c-0.7,0-0.5,0.3-0.2,0.6c0.9,1.3,0.2,2.7-1.3,2.9
		c-0.7,0.1-1.2-0.2-1.5-0.7c-0.2-0.3-0.3-0.5-0.6-0.2c0.3-0.7,0.5-1.4,0.2-2.1c0.1,0.1,0.3,0.3,0.5,0.1c0.5-0.7,1.2-0.7,1.9-0.7
		C484.1,159,484.1,158.9,484.1,158.7z"/>
	<path fill="#698C68" d="M490.6,102.1c0.3-0.3,0.9-0.4,1.3-0.7c0.5-0.1,0.9,0.1,1.3,0.3c0.8,0.5,0.6,1.3,0.7,1.9
		c-0.1,0.8-0.7,1.3-1.4,1.4c-0.7,0.1-1.4-0.1-1.8-0.7C490,103.6,490,102.9,490.6,102.1z"/>
	<path fill="#95B078" d="M481.8,102.4c0,1-0.9,1.9-1.9,1.9c-0.9,0-1.8-0.9-1.9-1.7c0-1,0.8-1.9,1.9-1.9
		C481,100.6,481.8,101.4,481.8,102.4z"/>
	<path fill="#91AC77" d="M380.3,143.9c0,0.3,0,0.5,0,0.7c-0.5-0.1-0.5,0.3-0.6,0.6c-0.4,0.7-1.3,1.1-2.2,0.9
		c-0.7-0.2-1.2-0.9-1.3-1.7c0-0.9,0.6-1.7,1.4-1.8c0.8-0.1,1.5,0.1,1.9,0.7C379.7,143.7,379.9,144.1,380.3,143.9z"/>
	<path fill="#73A189" d="M413.7,92.2c1.1,0,1.9,0.8,1.9,1.7c0,1.1-0.8,1.9-1.8,1.9c-1,0-1.9-0.8-1.9-1.8
		C411.8,93,412.6,92.2,413.7,92.2z"/>
	<path fill="#95AE78" d="M466.9,61.5c1,0,1.9,0.8,1.9,1.7c0,1.1-0.8,1.8-1.9,1.8c-1.1,0-1.8-0.8-1.8-1.8
		C465.1,62.3,465.9,61.5,466.9,61.5z"/>
	<path fill="#678964" d="M377.1,63.4c-0.1,1-1,1.8-1.9,1.7c-0.9-0.1-1.8-1.1-1.7-2c0.1-1,1-1.7,1.9-1.7
		C376.3,61.5,377.1,62.4,377.1,63.4z"/>
	<path fill="#91AC76" d="M434.4,109c0,1-0.8,1.8-1.7,1.8c-1,0-1.8-0.8-1.8-1.8c0-0.9,0.9-1.9,1.8-1.9
		C433.6,107.1,434.4,108,434.4,109z"/>
	<path fill="#849B6D" d="M394.3,162.2c-0.1,0.1-0.1,0.1-0.1,0.1c-0.1-0.5-0.5-0.3-0.7-0.3c-1.1-0.1-1.9-1.1-1.7-2.1
		c0.2-1,1.2-1.7,2.2-1.5c1.3,0.3,1.8,1.9,0.9,3C394.6,161.6,394.2,161.8,394.3,162.2z"/>
	<path fill="#698B66" d="M457.4,107.7c-0.5,0.9-1.3,0.9-2.1,0.7c-0.9-0.5-1.3-1.1-1.2-1.9c0.1-0.7,0.8-1.4,1.5-1.5
		c0.8-0.1,1.5,0.3,1.9,1C457.8,106.6,457.6,107.2,457.4,107.7z"/>
	<path fill="#6A8B65" d="M460.9,98.6c-0.5,0.4-1.1,0.5-1.6,0c-0.7-0.5-1.1-1.1-0.9-1.9c0.1-0.7,0.5-1.1,1.1-1.4
		c0.9-0.3,1.9,0.1,2.3,0.8C462.2,97.1,461.9,98,460.9,98.6z"/>
	<path fill="#6A9B84" d="M372.6,138.4c0,0.9-0.9,1.8-1.8,1.8c-0.9,0-1.8-0.9-1.8-1.7c0-1.1,0.7-1.9,1.8-1.9
		C371.7,136.6,372.6,137.4,372.6,138.4z"/>
	<path fill="#A5876B" d="M476.7,108.7c-1.1,0-1.8-0.7-1.7-1.9c0-0.9,0.9-1.7,1.9-1.7c0.9,0,1.7,0.9,1.7,1.8S477.8,108.7,476.7,108.7
		z"/>
	<path fill="#6A8B67" d="M433.1,168.1c0,0.9-0.9,1.8-1.8,1.8c-0.9,0-1.7-0.9-1.7-1.9s0.8-1.7,1.8-1.8
		C432.3,166.2,433.1,167,433.1,168.1z"/>
	<path fill="#678863" d="M431.2,23.5c1,0,1.7,0.7,1.8,1.7c0,1-0.8,1.8-1.7,1.8c-1,0-1.8-0.8-1.8-1.8
		C429.4,24.3,430.2,23.5,431.2,23.5z"/>
	<path fill="#82996B" d="M367.4,50.9c1,0,1.8,0.7,1.8,1.7c0,1-0.7,1.8-1.7,1.9c-1.1,0-1.9-0.8-1.9-1.9
		C365.7,51.7,366.4,50.9,367.4,50.9z"/>
	<path fill="#6A8C66" d="M413.9,160.6c-1,0-1.7-0.8-1.7-1.8c0-1,0.8-1.8,1.7-1.8c1,0,1.9,0.9,1.8,1.9
		C415.7,159.8,414.9,160.6,413.9,160.6z"/>
	<path fill="#94AE79" d="M416.1,31c-0.2-0.6-0.3-1.3-0.8-1.8c0.5,0,0.3-0.4,0.3-0.7c0.2-0.8,0.9-1.3,1.7-1.4s1.4,0.3,1.7,1
		c0.3,0.7,0.1,1.4-0.5,2c-0.5,0.5-1.2,0.6-1.8,0.3C416.2,30.1,416.1,30.4,416.1,31z"/>
	<path fill="#869D6F" d="M442,22.7c0,0.9-0.9,1.8-1.8,1.8c-0.9,0-1.8-0.9-1.7-1.8c0.1-1,0.9-1.8,1.8-1.8
		C441.1,20.9,442,21.8,442,22.7z"/>
	<path fill="#869F70" d="M424,83.7c-1,0-1.7-0.7-1.7-1.7c0-1.1,0.8-1.9,1.8-1.8c0.9,0,1.7,0.9,1.7,1.9C425.8,82.9,425,83.7,424,83.7
		z"/>
	<path fill="#729F87" d="M475.1,110.9c1,0,1.7,0.7,1.7,1.7s-0.8,1.8-1.8,1.8c-0.9,0-1.7-0.9-1.7-1.8
		C473.3,111.8,474.2,110.9,475.1,110.9z"/>
	<path fill="#83996B" d="M408.6,175.9c-0.3,0.4-0.7,0.8-1.1,1.1c-0.1-0.5-0.3-0.3-0.6-0.2c-1.1,0.2-2-0.4-2.1-1.3s0.5-1.9,1.4-2
		c1.1-0.1,1.9,0.6,2,1.7C408.2,175.5,407.8,176,408.6,175.9z"/>
	<path fill="#879F6F" d="M394,102.9c-0.4,0-0.8,0.1-1.2,0c-0.7-0.1-1.3,0.2-1.7,0.8c0.1-0.4-0.2-0.5-0.5-0.5
		c-0.9-0.4-1.5-1.3-1.1-2.1c0.3-0.9,1.2-1.3,2.1-1.1c1,0.3,1.5,1.2,1.1,2.2c-0.2,0.6,0.1,0.6,0.5,0.6
		C393.5,102.7,393.8,102.7,394,102.9z"/>
	<path fill="#BE9B78" d="M374.8,119.5c1,0,1.9,0.9,1.8,1.9c0,0.7-0.9,1.7-1.7,1.7c-1,0-1.9-0.7-1.9-1.7
		C373,120.3,373.8,119.5,374.8,119.5z"/>
	<path fill="#92AD76" d="M418.3,185.8c-0.9,0-1.7-0.9-1.7-1.8c0-0.8,0.9-1.6,1.8-1.6c1,0,1.7,0.8,1.7,1.8
		C420,185.1,419.2,185.8,418.3,185.8z"/>
	<path fill="#94AE76" d="M363.6,55.4c0,1-0.7,1.7-1.7,1.7c-0.9,0-1.7-0.7-1.7-1.6c0-1.1,0.7-1.9,1.7-1.9
		C362.9,53.6,363.6,54.3,363.6,55.4z"/>
	<path fill="#A6866B" d="M466,111.9c1,0,1.7,0.7,1.7,1.7c0,1-0.8,1.7-1.8,1.7c-0.9,0-1.7-0.9-1.7-1.7
		C464.2,112.6,465,111.9,466,111.9z"/>
	<path fill="#6C8C65" d="M410.6,26.3c-1,0-1.7-0.7-1.7-1.7c0-0.9,0.7-1.7,1.7-1.7c0.9,0,1.7,0.7,1.7,1.7
		C412.4,25.6,411.7,26.3,410.6,26.3z"/>
	<path fill="#6A8B65" d="M480.9,72.8c0,1-0.7,1.7-1.7,1.7s-1.7-0.8-1.7-1.7c0-0.9,0.8-1.7,1.8-1.6C480.2,71.1,480.9,71.9,480.9,72.8
		z"/>
	<path fill="#93AC75" d="M458.6,81.4c0.3-0.4,0.5-0.7,0.8-1.1c-0.1,0.7,0.3,0.5,0.6,0.3c1.3-0.4,2.4,0.5,2.3,1.8
		c-0.1,0.8-0.9,1.5-1.7,1.4c-0.8-0.1-1.5-0.9-1.5-1.7C459,81.9,459.5,81.3,458.6,81.4z"/>
	<path fill="#6F9F87" d="M341.7,120.7c0,0.9-0.8,1.7-1.7,1.7c-0.9,0-1.7-0.8-1.7-1.7c0-0.9,0.8-1.7,1.7-1.7
		C341,119.1,341.7,119.8,341.7,120.7z"/>
	<path fill="#95AF7A" d="M354.9,121.6c0.9,0,1.6,0.8,1.5,1.7c0,0.9-0.8,1.7-1.7,1.7c-0.8,0-1.7-0.8-1.7-1.6
		C353.1,122.4,353.9,121.6,354.9,121.6z"/>
	<path fill="#839B6C" d="M436,56.2c-0.6,0-1.2,0-1.9,0c0.3-0.3,0.9,0.1,0.9-0.3c0.1-0.3-0.5-0.5-0.7-0.7c-0.5-0.7-0.3-1.8,0.4-2.3
		c0.7-0.5,1.7-0.3,2.2,0.5c0.5,0.8,0.2,1.9-0.6,2.3C436.3,55.8,435.8,55.7,436,56.2z"/>
	<path fill="#A6876C" d="M371.8,95.3c0.8,0,1.5,0.3,1.7,1.1c0.3,0.7,0.1,1.4-0.5,1.9c-0.5,0.4-1.5,0.4-2.1-0.1
		c-0.6-0.5-0.7-1.2-0.4-1.9c0.1-0.3,0.4-0.5,0.3-0.8C371.1,95.3,371.4,95.2,371.8,95.3z"/>
	<path fill="#94AF79" d="M423,85.6c1,0,1.8,0.7,1.8,1.6S424,89,423,89c-0.9,0-1.6-0.7-1.6-1.7C421.4,86.5,422.2,85.6,423,85.6z"/>
	<path fill="#6C8B66" d="M453.7,134.3c-0.6,0.1-0.9-0.3-1.3-0.7c-0.5-0.7-0.5-1.5,0.1-2.1c0.5-0.5,1.3-0.7,2-0.4
		c0.7,0.3,1,1,0.9,1.8C455.2,133.7,454.6,134.2,453.7,134.3z"/>
	<path fill="#95AE77" d="M439.4,116.1c0,0.9-0.7,1.6-1.7,1.6c-0.9,0-1.5-0.7-1.5-1.7c0-0.9,0.8-1.7,1.6-1.7
		C438.6,114.4,439.4,115.2,439.4,116.1z"/>
	<path fill="#859E6E" d="M357.9,67.4c-0.5,0.3-0.9,0.5-1.2,1.1c-0.1-0.4-0.5-0.2-0.7-0.3c-0.9-0.1-1.6-0.8-1.5-1.7
		c0.1-0.9,0.8-1.5,1.9-1.4c0.9,0.1,1.5,0.7,1.4,1.7C357.7,67,357.5,67.3,357.9,67.4z"/>
	<path fill="#6F8E69" d="M462,107.4c0-0.9,0.7-1.6,1.6-1.6c0.9,0,1.7,0.7,1.7,1.7c0,0.9-0.7,1.5-1.6,1.5
		C462.7,109.1,462,108.4,462,107.4z"/>
	<path fill="#889E6F" d="M365.3,134.8c-0.9,0-1.6-0.7-1.6-1.5c0-0.9,0.7-1.7,1.7-1.7c0.9,0,1.6,0.7,1.6,1.5
		C367,134.1,366.3,134.8,365.3,134.8z"/>
	<path fill="#94AF78" d="M437.6,163.2c0,0.9-0.7,1.6-1.7,1.5c-0.9,0-1.6-0.8-1.6-1.7c0-0.8,0.9-1.7,1.7-1.6
		C436.9,161.5,437.7,162.3,437.6,163.2z"/>
	<path fill="#849D6E" d="M382.2,51.3c0,0.8-0.8,1.6-1.7,1.6c-0.9,0-1.6-0.7-1.6-1.7c0-0.9,0.7-1.6,1.7-1.6
		C381.5,49.6,382.2,50.3,382.2,51.3z"/>
	<path fill="#889F70" d="M501.1,93.3c-0.9,0-1.6-0.7-1.6-1.7c0.1-0.9,0.7-1.6,1.7-1.6c0.9,0.1,1.6,0.8,1.5,1.6
		C502.8,92.6,502,93.3,501.1,93.3z"/>
	<path fill="#91AB76" d="M369.7,65.1c0.7-0.1,1.4-0.3,1.9-0.9c0,0.4,0.4,0.3,0.6,0.5c0.8,0.4,1.1,1.3,0.8,2.1
		c-0.3,0.7-1.3,1.2-2,0.9c-0.8-0.3-1.3-1.1-1-2C370.2,65.2,370.1,65.1,369.7,65.1z"/>
	<path fill="#88A16F" d="M477,153.3c0,0.9-0.7,1.6-1.5,1.6c-0.9,0-1.7-0.7-1.7-1.5c0-0.9,0.7-1.7,1.6-1.7
		C476.3,151.7,477,152.4,477,153.3z"/>
	<path fill="#B38D6D" d="M456.7,62.9c0,0.8-0.9,1.7-1.6,1.7c-0.8,0-1.7-0.9-1.7-1.7c0-0.8,0.9-1.7,1.7-1.7
		C455.9,61.3,456.7,62.1,456.7,62.9z"/>
	<path fill="#94AD77" d="M447.9,82.6c0.1-0.3,0.2-0.6,0.3-0.9c0.1,0.5,0.4,0.3,0.6,0.1c0.6-0.4,1.3-0.6,1.9-0.1
		c0.5,0.4,0.9,1,0.7,1.7s-0.7,1.2-1.5,1.2c-0.7,0-1.2-0.4-1.5-1.1C448.2,83.2,448.5,82.7,447.9,82.6z"/>
	<path fill="#859C6E" d="M438.5,177.2c-0.9,0-1.7-0.8-1.7-1.7c0-0.8,0.8-1.6,1.6-1.6c0.9,0,1.6,0.8,1.6,1.7
		C439.9,176.4,439.3,177.2,438.5,177.2z"/>
	<path fill="#698B66" d="M362.8,76.8c0,0.9-0.7,1.6-1.7,1.6c-0.9,0-1.6-0.7-1.6-1.6s0.7-1.5,1.6-1.6C362,75.2,362.8,76,362.8,76.8z"
		/>
	<path fill="#92AC76" d="M472.7,52.8c-0.9,0-1.7-0.7-1.7-1.5c-0.1-0.9,0.9-1.7,1.8-1.7c0.7,0,1.5,0.9,1.5,1.7
		C474.2,52,473.4,52.8,472.7,52.8z"/>
	<path fill="#689982" d="M434.8,48.1c-0.9,0-1.6-0.7-1.5-1.7c0-0.9,0.8-1.5,1.7-1.5c0.8,0,1.5,0.9,1.5,1.7
		C436.4,47.4,435.7,48.1,434.8,48.1z"/>
	<path fill="#6C9B84" d="M450.1,147.8c-0.9,0-1.6-0.7-1.6-1.6c0-0.9,0.8-1.6,1.7-1.6c0.8,0,1.5,0.9,1.5,1.7
		C451.7,147.1,450.9,147.8,450.1,147.8z"/>
	<path fill="#869C6F" d="M383.8,65.6c0.3,0.2,0.5,0.4,0.8,0.6c-0.7,0.1-0.2,0.5-0.1,0.7c0.3,1.1-0.3,2.1-1.4,2.1
		c-0.9,0-1.7-0.7-1.6-1.6c0.1-0.9,0.9-1.6,1.8-1.5C383.5,65.9,384,66.3,383.8,65.6z"/>
	<path fill="#91AC77" d="M372.9,124.1c0,0.9-0.7,1.5-1.6,1.5c-0.9,0-1.6-0.7-1.6-1.6c0-0.8,0.7-1.5,1.6-1.5
		C372.4,122.5,372.9,123.1,372.9,124.1z"/>
	<path fill="#95B07A" d="M341.9,71.9c-0.9,0-1.6-0.7-1.6-1.5s0.7-1.6,1.5-1.6c0.9,0,1.6,0.7,1.6,1.6
		C343.5,71.2,342.7,71.9,341.9,71.9z"/>
	<path fill="#93AD77" d="M373.2,70.4c0,0.8-0.8,1.6-1.7,1.6c-0.8,0-1.5-0.7-1.5-1.6c0-0.8,0.8-1.5,1.6-1.6
		C372.4,68.8,373.2,69.5,373.2,70.4z"/>
	<path fill="#599B8D" d="M449.2,56.6c-0.9,0-1.6-0.7-1.6-1.5c0-0.8,0.7-1.5,1.5-1.5c0.9,0,1.6,0.6,1.6,1.5
		C450.8,55.8,450.1,56.6,449.2,56.6z"/>
	<path fill="#90AB76" d="M493,85.7c0,0.9-0.7,1.6-1.6,1.6c-0.8,0-1.6-0.9-1.6-1.6c0.1-0.8,0.9-1.6,1.7-1.6
		C492.2,84.1,493,84.9,493,85.7z"/>
	<path fill="#C09D79" d="M412.1,109.3c0.9,0,1.6,0.6,1.6,1.5c0,0.9-0.7,1.7-1.5,1.7c-0.9,0-1.6-0.7-1.6-1.5
		C410.5,110,411.3,109.3,412.1,109.3z"/>
	<path fill="#97B27C" d="M491.2,139.9c0.7-0.4,1.2-0.9,1.4-1.7c0,0.4,0.3,0.5,0.6,0.5c0.9,0.1,1.5,0.7,1.5,1.5s-0.6,1.5-1.5,1.6
		c-0.8,0.1-1.5-0.5-1.6-1.3C491.6,140,491.5,139.9,491.2,139.9z"/>
	<path fill="#698A64" d="M469.2,51.4c-0.4,0-0.7-0.1-1.1-0.1c-0.5-0.5-1-1-0.7-1.8c0.2-0.7,0.8-1.1,1.5-1.1c0.8,0,1.3,0.5,1.5,1.2
		c0.2,0.7-0.1,1.3-0.7,1.7C469.6,51.3,469.4,51.4,469.2,51.4z"/>
	<path fill="#6C8E69" d="M481.6,154.1c0,0.9-0.7,1.6-1.5,1.6c-0.9,0.1-1.6-0.7-1.6-1.5s0.7-1.5,1.5-1.5
		C480.9,152.6,481.6,153.2,481.6,154.1z"/>
	<path fill="#6B8C66" d="M378.1,132.4c-0.3,0.3-0.7,0.3-1.1,0.5c-1.3-0.5-1.9-1.5-1.2-2.5c0.5-0.7,1.5-0.9,2.3-0.4
		C378.7,130.6,378.7,131.5,378.1,132.4z"/>
	<path fill="#63A093" d="M406,67.8c0.9,0,1.6,0.7,1.6,1.5c0,0.8-0.7,1.5-1.5,1.5c-0.9,0-1.6-0.7-1.7-1.6
		C404.5,68.4,405.2,67.8,406,67.8z"/>
	<path fill="#6C8E69" d="M487.5,94.3c-0.9-0.1-1.5-0.7-1.5-1.6c0-0.8,0.7-1.5,1.5-1.5c0.9,0,1.5,0.7,1.5,1.7
		C489,93.7,488.3,94.3,487.5,94.3z"/>
	<path fill="#849C6F" d="M432.8,174.8c-0.3,0-0.7,0-1.1,0c0-0.3-0.2-0.3-0.3-0.5c-0.7-0.7-0.7-1.7,0-2.3c0.7-0.6,1.5-0.5,2.2,0.2
		c0.5,0.6,0.4,1.7-0.3,2.3C433,174.6,432.8,174.6,432.8,174.8z"/>
	<path fill="#859C6C" d="M421.6,158.7c0-0.9,0.6-1.5,1.5-1.5s1.6,0.7,1.6,1.5s-0.8,1.5-1.6,1.5C422.2,160.3,421.6,159.7,421.6,158.7
		z"/>
	<path fill="#698A65" d="M471,42.2c-0.9,0-1.5-0.7-1.5-1.5c0-0.9,0.7-1.5,1.6-1.5s1.5,0.7,1.5,1.5C472.5,41.6,471.9,42.2,471,42.2z"
		/>
	<path fill="#859D6E" d="M480.2,83.1c0,0.9-0.6,1.6-1.4,1.6c-0.9,0-1.6-0.7-1.7-1.5c0-0.9,0.7-1.5,1.5-1.5
		C479.7,81.7,480.2,82.3,480.2,83.1z"/>
	<path fill="#6C8D68" d="M429.3,184.9c0,0.8-0.7,1.5-1.5,1.5c-0.8,0-1.5-0.7-1.5-1.5c0-0.9,0.7-1.5,1.6-1.5
		C428.7,183.3,429.3,183.9,429.3,184.9z"/>
	<path fill="#75A28A" d="M415.1,87.5c0.9,0,1.6,0.6,1.6,1.4c0.1,0.8-0.7,1.5-1.6,1.5c-0.7,0-1.5-0.7-1.5-1.5
		C413.6,88.2,414.3,87.5,415.1,87.5z"/>
	<path fill="#93AF7B" d="M495,87.8c-0.1-0.1-0.2-0.2-0.3-0.3c0.3-0.2,0.1-0.4,0-0.7c-0.3-0.7-0.3-1.4,0.3-1.9
		c0.5-0.4,1.1-0.6,1.7-0.1c0.6,0.4,0.8,1.2,0.5,1.9c-0.3,0.7-0.9,1-1.7,0.9C495.4,87.6,495,87.3,495,87.8z"/>
	<path fill="#93AE78" d="M416.1,131.1c-0.9,0-1.5-0.7-1.5-1.5s0.7-1.5,1.5-1.5s1.5,0.7,1.5,1.5C417.6,130.3,416.9,131.1,416.1,131.1
		z"/>
	<path fill="#869E6E" d="M439.7,102.6c0.1,0.5,0.5,1,1,1.3c-0.6,0.3-0.7,0.9-0.7,1.5c-0.5,0.2-1,0.3-1.5,0.5
		c0.1-0.3,0.1-0.3-0.1-0.5c-0.9-0.5-1.1-1.2-0.8-1.9c0.3-0.7,0.9-1,1.9-0.8C439.5,102.5,439.5,102.5,439.7,102.6z"/>
	<path fill="#6A8B65" d="M416.1,169.1c0-0.9,0.6-1.5,1.4-1.5c0.8,0,1.5,0.7,1.5,1.4c0,0.9-0.7,1.5-1.5,1.5
		C416.8,170.7,416.1,169.9,416.1,169.1z"/>
	<path fill="#5B9D8F" d="M382.7,78.2c0.1-0.8,0.7-1.3,1.5-1.3c0.9,0,1.5,0.7,1.4,1.5c0,0.8-0.7,1.4-1.5,1.3
		C383.2,79.8,382.6,79.1,382.7,78.2z"/>
	<path fill="#6D8E68" d="M454,172.3c-0.3,0.2-0.7,0.5-1,0.7c-1.3-0.1-2.1-1-1.6-2c0.3-0.8,1.3-1.1,2-0.8
		C454.2,170.5,454.4,171.3,454,172.3z"/>
	<path fill="#859C6E" d="M393.4,172.2c-0.8,0-1.4-0.6-1.4-1.4c0-0.9,0.6-1.5,1.4-1.5c0.9,0,1.5,0.7,1.5,1.5
		C395,171.5,394.3,172.2,393.4,172.2z"/>
	<path fill="#698B65" d="M444.5,134.8c0.1-0.3,0.1-0.7,0.1-1.1c0.6-0.7,1.2-0.9,1.9-0.6s0.9,1,0.7,1.7c-0.2,0.7-0.9,1.1-1.6,1
		C445,135.8,444.6,135.5,444.5,134.8z"/>
	<path fill="#6A8C66" d="M444.4,43.8c0,0.9-0.6,1.5-1.4,1.5s-1.5-0.7-1.5-1.4c0-0.8,0.7-1.5,1.5-1.5C443.7,42.4,444.4,43,444.4,43.8
		z"/>
	<path fill="#6C8D69" d="M479.4,111.5c-0.8,0-1.5-0.7-1.5-1.4c0-0.8,0.7-1.5,1.5-1.5c0.7,0.1,1.4,0.7,1.4,1.5
		C481,110.9,480.3,111.5,479.4,111.5z"/>
	<path fill="#6C8D67" d="M428.6,109.4c-0.8,0-1.5-0.7-1.5-1.5c0.1-0.8,0.7-1.4,1.4-1.4c0.9,0,1.5,0.7,1.5,1.5
		C430,108.9,429.4,109.4,428.6,109.4z"/>
	<path fill="#879E70" d="M500.9,110.7c-0.8,0-1.4-0.7-1.3-1.5c0.1-0.8,0.8-1.5,1.5-1.4c0.8,0.1,1.4,0.7,1.3,1.6
		C502.4,110.2,501.8,110.7,500.9,110.7z"/>
	<path fill="#94AE78" d="M400.3,53.9c0.9,0,1.5,0.6,1.5,1.4c0,0.7-0.6,1.4-1.3,1.5c-0.7,0.1-1.5-0.6-1.5-1.3
		C398.8,54.6,399.5,53.9,400.3,53.9z"/>
	<path fill="#94AE7A" d="M421.5,66.8c0,0.8-0.5,1.4-1.3,1.4s-1.5-0.7-1.5-1.5s0.7-1.4,1.5-1.4C421,65.3,421.6,65.9,421.5,66.8z"/>
	<path fill="#99B27C" d="M497.1,124c0,0.7-0.8,1.4-1.6,1.3c-0.7-0.1-1.3-0.9-1.2-1.5c0.1-0.6,0.8-1.3,1.4-1.3
		C496.4,122.4,497.1,123.1,497.1,124z"/>
	<path fill="#94AF78" d="M485.6,100.8c0,0.7-0.7,1.4-1.3,1.4c-0.7,0-1.4-0.7-1.4-1.3c0-0.8,0.7-1.5,1.4-1.5
		C485.1,99.3,485.6,100,485.6,100.8z"/>
	<path fill="#6B8C66" d="M414.9,150.7c-0.7,0-1.3-0.6-1.3-1.4c0-0.7,0.6-1.3,1.4-1.3c0.7,0,1.4,0.7,1.4,1.3
		C416.3,150.2,415.7,150.7,414.9,150.7z"/>
	<path fill="#93AE78" d="M354.2,93.7c0.5,0,1.1,0,1.6,0c-0.5,0.1-0.9,0.3-0.2,0.8c0.5,0.5,0.5,1.3,0,1.8c-0.6,0.6-1.3,0.6-1.9,0.1
		c-0.5-0.5-0.5-1.4,0-1.9C353.9,94.3,354.3,94.2,354.2,93.7z"/>
	<path fill="#879F70" d="M355,102.4c0.1-0.9,0.7-1.3,1.6-1.3c0.7,0.1,1.3,0.7,1.2,1.4c-0.1,0.7-0.7,1.3-1.5,1.3
		C355.5,103.8,354.9,103.2,355,102.4z"/>
	<path fill="#609F93" d="M460.8,142.2c-0.8,0-1.3-0.6-1.3-1.4c0-0.8,0.6-1.4,1.5-1.4c0.7,0,1.3,0.6,1.3,1.5
		C462.2,141.6,461.6,142.2,460.8,142.2z"/>
	<path fill="#6B8B67" d="M421.3,115.4c-0.1,0.7-0.7,1.3-1.5,1.3c-0.8-0.1-1.3-0.7-1.3-1.5c0.1-0.7,0.7-1.3,1.5-1.3
		C420.8,114,421.4,114.6,421.3,115.4z"/>
	<path fill="#94AE78" d="M411.1,40.4c0.7,0.2,1.1,0,1.6-0.5c0.1,0.3,0.3,0.4,0.4,0.5c0.5,0.5,0.7,1.3,0.3,1.9s-1.3,0.7-1.9,0.3
		c-0.7-0.4-0.9-0.9-0.6-1.7C410.9,40.7,411,40.5,411.1,40.4z"/>
	<path fill="#88A071" d="M457.2,128.8c0,0.7-0.7,1.4-1.3,1.4c-0.8,0-1.4-0.6-1.4-1.4c0-0.8,0.6-1.3,1.4-1.3
		C456.6,127.5,457.2,128,457.2,128.8z"/>
	<path fill="#709D86" d="M395,102.3c-0.7,0-1.3-0.5-1.3-1.3c-0.1-0.7,0.6-1.4,1.3-1.4c0.7,0,1.3,0.7,1.4,1.4
		C396.4,101.7,395.8,102.3,395,102.3z"/>
	<path fill="#6A8D66" d="M451.1,110.9c0.3-0.2,0.8-0.1,1.1-0.2c0.5,0,0.7,0.3,0.9,0.7c0.1,0.4,0.2,0.9,0,1.3
		c-0.5,0.5-1.1,0.9-1.8,0.5c-0.6-0.3-0.8-0.8-0.8-1.5C450.6,111.4,450.7,111.1,451.1,110.9z"/>
	<path fill="#94AF79" d="M418.8,146.8c0.8,0,1.4,0.6,1.3,1.4c-0.1,0.7-0.7,1.3-1.4,1.3c-0.7,0-1.3-0.6-1.3-1.3
		C417.5,147.3,418,146.8,418.8,146.8z"/>
	<path fill="#92AD78" d="M407,27.2c-0.7,0-1.3-0.6-1.3-1.3c0-0.7,0.5-1.3,1.3-1.3c0.8,0,1.5,0.6,1.5,1.4
		C408.4,26.6,407.8,27.2,407,27.2z"/>
	<path fill="#94AF7B" d="M497.6,94.5c0-0.2,0.1-0.3,0.3-0.4c0.2,0.6,0.5,0.1,0.6,0c0.5-0.2,1-0.1,1.4,0.2c0.5,0.4,0.5,0.9,0.4,1.5
		c-0.1,0.5-0.5,0.8-1,0.9c-0.9,0.1-1.6-0.6-1.5-1.5C497.8,94.9,498.1,94.6,497.6,94.5z"/>
	<path fill="#6C8C69" d="M452.2,31.4c-0.7,0-1.3-0.6-1.3-1.3c0-0.8,0.6-1.4,1.3-1.3c0.7,0.1,1.3,0.7,1.3,1.3
		C453.6,30.8,452.9,31.4,452.2,31.4z"/>
	<path fill="#94AF7A" d="M356.5,46.7c0,0.7-0.6,1.3-1.3,1.3c-0.7,0-1.3-0.6-1.3-1.3c0-0.8,0.6-1.3,1.4-1.3
		C356,45.4,356.5,46,356.5,46.7z"/>
	<path fill="#5E9E91" d="M446.8,144.9c-0.8,0-1.3-0.5-1.3-1.3c0-0.8,0.5-1.3,1.2-1.3c0.8,0,1.3,0.5,1.3,1.3
		C448.1,144.4,447.6,144.9,446.8,144.9z"/>
	<path fill="#94AF79" d="M350.9,54.4c0.7,0,1.3,0.6,1.3,1.3c0,0.8-0.5,1.3-1.3,1.3c-0.8,0-1.3-0.5-1.3-1.3
		C349.5,55,350.1,54.4,350.9,54.4z"/>
	<path fill="#708F67" d="M426.3,100.6c0,0.7-0.5,1.3-1.3,1.3c-0.7,0-1.3-0.6-1.3-1.3c0-0.7,0.5-1.3,1.3-1.3
		C425.7,99.3,426.3,99.9,426.3,100.6z"/>
	<path fill="#77A18A" d="M371.8,95.3c-0.3,0.1-0.7,0.1-1,0.2c-0.7,0-1.1-0.3-1.3-1c-0.1-0.6,0-1.1,0.6-1.4c0.6-0.3,1.1-0.1,1.5,0.3
		c0.3,0.3,0.5,0.7,0.3,1.2C371.9,94.9,371.7,95.1,371.8,95.3z"/>
	<path fill="#91AD79" d="M348.1,76.6c-0.3-0.4-0.1-0.9-0.3-1.3c0.3-0.1,0.3-0.5,0.5-0.7c0.5-0.5,1.2-0.7,1.7-0.3
		c0.5,0.4,0.7,0.9,0.5,1.5c-0.3,0.7-0.9,0.9-1.7,0.7C348.6,76.4,348.3,76,348.1,76.6z"/>
	<path fill="#849C6C" d="M400.5,52.2c0-0.8,0.5-1.3,1.3-1.3c0.7,0,1.3,0.7,1.3,1.3s-0.7,1.3-1.3,1.3C401.1,53.5,400.5,53,400.5,52.2
		z"/>
	<path fill="#6D9C85" d="M481,120.6c0.5,0,0.9,0,1.3,0c0,0.3,0.3,0.4,0.4,0.6c0.4,0.6,0.5,1.1-0.1,1.7c-0.5,0.5-1.1,0.5-1.7,0.1
		s-0.7-0.9-0.4-1.6C480.8,121.1,481,121,481,120.6z"/>
	<path fill="#879F71" d="M437.6,24.5c-0.8,0-1.5-0.1-2.3,0.3c0-0.5-0.5-0.3-0.7-0.5c-0.5-0.3-0.7-0.7-0.6-1.3
		c0.1-0.5,0.4-0.9,0.9-0.9c0.5-0.1,1,0.1,1.3,0.5c0.3,0.5,0.1,1.1-0.2,1.6C436.5,24.5,437.1,24.2,437.6,24.5z"/>
	<path fill="#709E87" d="M383.1,85.5c0,0.7-0.4,1.3-1.1,1.3s-1.3-0.5-1.3-1.3c0-0.7,0.5-1.3,1.3-1.3
		C382.6,84.3,383.1,84.8,383.1,85.5z"/>
	<path fill="#9E836B" d="M479.8,52c1.1-0.9,1.3-0.9,2.6,0.1c0,0.7-0.1,1.3-0.9,1.6c-0.5,0.2-1.1,0-1.4-0.5
		C479.8,52.9,480,52.4,479.8,52z"/>
	<path fill="#96B17C" d="M379.9,172.5c0,0.7-0.5,1.3-1.1,1.3c-0.7,0-1.3-0.5-1.3-1.3c0-0.6,0.6-1.2,1.1-1.2
		C379.3,171.3,379.8,171.8,379.9,172.5z"/>
	<path fill="#94AD78" d="M459.5,76c-0.1-0.2-0.3-0.5-0.5-0.7c0.4,0.1,0.3-0.3,0.3-0.5c0.1-0.8,0.7-1.3,1.4-1.3
		c0.7,0.1,1.2,0.8,1,1.5c-0.1,0.7-0.8,1-1.7,0.9C459.9,75.9,459.6,75.8,459.5,76z"/>
	<path fill="#8A9F70" d="M354.4,118.3c0.2,0.3,0.3,0.7,0.3,1.1c-0.2,0.3-0.4,0.8-0.8,0.9c-0.5,0.2-1.1,0.1-1.4-0.4
		c-0.3-0.5-0.3-0.9,0-1.4c0.3-0.5,0.8-0.7,1.3-0.5C354,118,354.2,118.1,354.4,118.3z"/>
	<path fill="#5C9E90" d="M432.8,37.4c0,0.7-0.5,1.3-1.2,1.3c-0.6,0-1.2-0.6-1.3-1.2c0-0.7,0.5-1.3,1.1-1.3
		C432.2,36.1,432.8,36.7,432.8,37.4z"/>
	<path fill="#92AD79" d="M398.6,33.7c0.5,0.5,1.2,0.7,2,0.7c0,0.5,0.3,0.9-0.1,1.4c-0.4,0.6-1.1,0.9-1.8,0.5
		c-0.6-0.3-0.8-1.1-0.5-1.7C398.4,34.3,398.8,34.1,398.6,33.7z"/>
	<path fill="#6D8E68" d="M446,122.7c-0.3,0.2-0.7,0.5-1.1,0.5c-0.7-0.1-1.1-0.6-1.1-1.2c0-0.5,0.3-0.9,0.8-1.1
		c0.5-0.2,1-0.1,1.3,0.4C446.3,121.7,446.2,122.2,446,122.7z"/>
	<path fill="#C09E7A" d="M389,77c0.1-0.1,0.2-0.1,0.3-0.1c0.1,0.3,0.3,0.3,0.5,0.3c0.5,0.2,0.9,0.5,0.9,1.1c0.1,0.7-0.3,0.9-0.9,1.2
		c-0.5,0.2-0.9,0-1.2-0.3c-0.3-0.5-0.3-1-0.1-1.5C388.8,77.4,389,77.3,389,77z"/>
	<path fill="#94AE7A" d="M420.4,141c0.3,0,0.6-0.1,0.8,0.1c-0.1,0.1-0.4-0.1-0.5,0.2c0,0.3,0.3,0.3,0.4,0.3c0.6,0.5,0.7,1.2,0.3,1.7
		s-1.2,0.6-1.7,0.1c-0.7-0.5-0.5-1.6,0.3-2C420.4,141.5,420.8,141.5,420.4,141z"/>
	<path fill="#6D9B84" d="M456.2,140.4c0.1-0.7,0.4-1.1,1.2-1.1c0.7,0,1.2,0.5,1.1,1.2c-0.1,0.7-0.5,1.1-1.2,1.1
		C456.6,141.5,456.2,141.1,456.2,140.4z"/>
	<path fill="#A68A6D" d="M477.5,118c0.3,0.1,0.4,0.5,0.7,0.8c-0.2,0.2-0.1,0.5-0.2,0.7c-0.3,0.6-0.7,0.9-1.4,0.7
		c-0.6-0.2-0.9-0.7-0.8-1.3c0.1-0.6,0.7-1,1.3-1C477.1,117.9,477.3,118,477.5,118z"/>
	<path fill="#90AC77" d="M360,85c0,0.6-0.5,1.1-1.2,1.1c-0.7,0-1.1-0.5-1.1-1.1c0-0.6,0.5-1.1,1.1-1.1C359.5,83.7,360,84.3,360,85z"
		/>
	<path fill="#94AF79" d="M456.7,150.7c0.7,0,1.2,0.6,1.2,1.3c0,0.6-0.6,1.1-1.2,1.1c-0.7,0-1.1-0.5-1.1-1.2S456.1,150.7,456.7,150.7
		z"/>
	<path fill="#93AD79" d="M388.1,40.1c0-0.5,0.6-1.2,1.2-1.2c0.6,0,1.3,0.6,1.2,1.2c0,0.5-0.7,1.2-1.3,1.1
		C388.6,41.2,388.1,40.6,388.1,40.1z"/>
	<path fill="#5A9D8E" d="M350.4,79.9c0,0.7-0.5,1.1-1.1,1.1c-0.7,0-1.2-0.5-1.2-1.1c0-0.6,0.5-1.1,1.2-1.1
		C349.8,78.8,350.4,79.3,350.4,79.9z"/>
	<path fill="#6E8B65" d="M439.1,74.1c-0.5,0.1-0.9,0.5-1.3,0.2c-0.4-0.3-0.8-0.7-0.7-1.3c0.2-0.9,0.9-1.1,1.9-0.7
		c0.4,0.4,0.3,0.9,0.3,1.4C439.1,73.7,439.1,73.9,439.1,74.1z"/>
	<path fill="#96B07A" d="M491.7,111.5c0,0.7-0.5,1.1-1.2,1.1c-0.6,0-1.1-0.5-1.1-1.1s0.5-1.1,1.2-1.1
		C491.2,110.3,491.7,110.9,491.7,111.5z"/>
	<path fill="#A6896D" d="M414.2,61.9c0-0.7,0.4-1.1,1.1-1.1s1.2,0.6,1.2,1.2c0,0.5-0.6,1.1-1.2,1.1C414.7,63,414.2,62.5,414.2,61.9z
		"/>
	<path fill="#6E8F6A" d="M341.2,123.2c0.7,0,1.2,0.5,1.2,1.1c0,0.6-0.5,1.1-1.1,1.1c-0.7,0-1.2-0.5-1.1-1.1
		C340.1,123.8,340.6,123.2,341.2,123.2z"/>
	<path fill="#93AD77" d="M372.2,54.4c0.4-0.1,0.8,0.3,1.2,0c-0.1,0.3,0.1,0.5,0.2,0.7c0.3,0.5,0.3,1-0.3,1.4c-0.5,0.3-1,0.4-1.5-0.1
		s-0.5-1-0.1-1.5C372,54.7,372.2,54.6,372.2,54.4z"/>
	<path fill="#A5876D" d="M385.1,95.5c-0.1,0.1-0.2,0.2-0.3,0.3c-0.4,0.2-0.9,0.3-1.3,0.1c-0.5-0.3-0.7-0.7-0.5-1.3
		c0.2-0.6,0.7-0.9,1.3-0.7c0.6,0.1,0.9,0.5,0.8,1.1C385.1,95.1,385.1,95.3,385.1,95.5z"/>
	<path fill="#96AF7C" d="M471.9,145.4c-0.2-0.1-0.3-0.3-0.5-0.5c0.2-0.1,0.1-0.3,0.1-0.5c0-1.2,0.6-1.6,1.7-1.2
		c0.1,0.1,0.3,0.1,0.4,0.1l0,0c0,0.5,0.3,1.1-0.3,1.5c-0.3,0.3-0.7,0.5-1.1,0.3C472.1,145.1,471.9,145,471.9,145.4z"/>
	<path fill="#94AF7A" d="M400.5,159.9c0.3-0.1,0.4-0.4,0.7-0.3c-0.1,0.4,0.3,0.3,0.5,0.5c0.6,0.3,0.9,0.7,0.7,1.3
		c-0.2,0.7-0.7,0.9-1.3,0.7c-0.7-0.1-0.8-0.7-0.8-1.3C400.4,160.5,400.7,160.2,400.5,159.9z"/>
	<path fill="#C09E7B" d="M403.2,108.5c-0.5,0-1.1-0.5-1.1-1.1c0-0.6,0.5-1.1,1.1-1.1c0.6,0,1.2,0.6,1.2,1.2
		C404.4,108,403.8,108.6,403.2,108.5z"/>
	<path fill="#89A170" d="M353.3,126c0.7,0,1.1,0.4,1.1,1.1c0,0.6-0.5,1.1-1.1,1.1c-0.7,0-1.1-0.5-1.1-1.1
		C352.2,126.6,352.7,126,353.3,126z"/>
	<path fill="#98AF79" d="M433.1,129.3c0-0.5-0.7-1,0-1.5c0.5-0.5,1.1-0.7,1.7-0.1c0.5,0.4,0.5,0.9,0.1,1.5
		C434.4,129.9,433.7,129.6,433.1,129.3z"/>
	<path fill="#94AE79" d="M381.4,98.1c0-0.6,0.5-1.1,1.1-1.1s1.1,0.5,1.1,1.2c0,0.5-0.6,1.1-1.1,1.1C382,99.2,381.5,98.6,381.4,98.1z
		"/>
	<path fill="#95B07B" d="M391.5,167.3c0,0.5-0.6,1.1-1.2,1.1c-0.5,0-1.1-0.7-1.1-1.2c0.1-0.6,0.5-0.9,1.1-1
		C390.9,166.1,391.5,166.8,391.5,167.3z"/>
	<path fill="#91AD76" d="M359.1,53.4c0,0.5-0.6,1.1-1.1,1.1c-0.6,0-1.1-0.5-1.1-1.1c0-0.7,0.5-1.1,1.1-1.1
		C358.7,52.3,359.2,52.8,359.1,53.4z"/>
	<path fill="#93AD78" d="M405.7,49.7c-0.6,0-1.1-0.5-1.1-1.1c0-0.6,0.5-1.1,1.1-1.1c0.7,0,1,0.4,1,1.1
		C406.8,49.3,406.3,49.7,405.7,49.7z"/>
	<path fill="#95AF79" d="M413.9,163.2c-0.1,0.6-0.5,0.9-1.1,0.9c-0.6,0.1-1.1-0.5-1.1-1.1c0-0.5,0.6-1.1,1.1-1.1
		C413.4,162,413.9,162.5,413.9,163.2z"/>
	<path fill="#A58A6E" d="M380.3,99.8c0,0.5-0.5,1.1-1.1,1.1c-0.5,0-1.1-0.5-1.1-1.1c0-0.5,0.5-1.1,1.1-1.1
		C379.7,98.8,380.3,99.3,380.3,99.8z"/>
	<path fill="#759E87" d="M461.7,58.3c-0.4,0.1-0.8,0.5-1.3,0.1c-0.3-0.3-0.7-0.7-0.5-1.2c0.1-0.6,0.5-0.9,1.1-0.9
		c0.6,0.1,0.9,0.4,0.9,1C461.9,57.7,461.8,58.1,461.7,58.3z"/>
	<path fill="#678B65" d="M384.5,50.7c-0.4,0.6-0.8,0.9-1.5,0.4c-0.5-0.3-0.6-0.8-0.3-1.3c0.3-0.5,0.7-0.6,1.1-0.4
		C384.5,49.6,384.6,50.1,384.5,50.7z"/>
	<path fill="#C0A17D" d="M414.7,76.2c0.6,0,1.1,0.5,1.1,0.9c-0.1,0.6-0.5,1-1.1,1c-0.6,0-0.9-0.3-1-0.9
		C413.7,76.6,414.1,76.2,414.7,76.2z"/>
	<path fill="#89A073" d="M490.1,82.7c-0.1,0.7-0.4,1-1,1c-0.5,0-0.9-0.3-0.9-1c0.1-0.6,0.3-0.9,0.9-0.9
		C489.8,81.9,490,82.3,490.1,82.7z"/>
	<path fill="#BE9E79" d="M354.7,112.1c0.1,0,0.3,0,0.4,0c0.1,0.3,0.3,0.3,0.5,0.5c0.5,0.4,0.5,0.9,0.2,1.3c-0.3,0.4-0.8,0.5-1.3,0.2
		c-0.5-0.3-0.5-0.8-0.2-1.3C354.5,112.6,354.7,112.4,354.7,112.1z"/>
	<path fill="#A68A6D" d="M472,127c0.1,0.5,0.5,1,0.7,1.5c0,0-0.1,0-0.1,0.1c-0.4,0.4-0.9,0.7-1.5,0.3c-0.4-0.3-0.5-0.6-0.4-1
		C470.8,127.1,471.4,127,472,127z"/>
	<path fill="#6B8963" d="M396.1,43.8c0.3,0.9,0,1.3-1.3,1.3c-0.7-0.3-0.7-0.9-0.3-1.4c0.3-0.5,0.9-0.5,1.3,0
		C395.8,43.8,396,43.8,396.1,43.8z"/>
	<path fill="#93AC77" d="M410.8,50.9c0.5,0.1,0.8,0.3,0.8,0.8c0,0.5-0.3,0.9-0.9,0.9c-0.5,0-0.9-0.3-0.9-0.9
		C409.9,51.2,410.2,50.9,410.8,50.9z"/>
	<path fill="#F8F7F5" d="M439.5,61.3c0.1-0.3,0.1-0.6,0.2-0.9c0.3,0.6,1.3,0.7,1.3,1.5c-0.5,0-0.9,0.2-1.3,0.5
		c-0.3,0.2-0.4,0.2-0.5-0.2C439.4,61.9,439.5,61.5,439.5,61.3z"/>
</g>
</svg>
