<?xml version="1.0" encoding="utf-8"?>
<!-- Generator: Adobe Illustrator 17.1.0, SVG Export Plug-In . SVG Version: 6.00 Build 0)  -->
<!DOCTYPE svg PUBLIC "-//W3C//DTD SVG 1.1//EN" "http://www.w3.org/Graphics/SVG/1.1/DTD/svg11.dtd">
<svg version="1.1" id="Calque_1" xmlns="http://www.w3.org/2000/svg" xmlns:xlink="http://www.w3.org/1999/xlink" x="0px" y="0px"
	 viewBox="333 5.1 185.7 183.3" enable-background="new 333 5.1 185.7 183.3" xml:space="preserve">
<g>
	<path fill="#B3625D" d="M399.7,120.9c2,0,3.8,1.1,4.5,2.9c0.7,1.8,0.3,3.8-1.1,5.1s-3.4,1.7-5.2,0.9c-1.8-0.8-2.7-2.3-2.7-4.2
		c-0.1-1.8,0.9-3.2,2.4-4.2c0.2-0.1,0.6-0.1,0.5-0.5c-0.1-0.3-0.4-0.1-0.7-0.1c-1.4-0.2-2.5-0.9-2.9-2.3c-0.3-1.1,0.1-2.1,0.9-2.9
		c1.3-1.2,3.4-1,4.5,0.3c1,1.2,0.7,3.3-0.7,4.4c-0.1,0.1-0.1,0.1-0.2,0.1c-0.1,0.1-0.4,0.2-0.3,0.4c0.1,0.3,0.3,0.1,0.5,0.1
		C399.5,120.9,399.6,120.9,399.7,120.9z"/>
	<path fill="#B1605B" d="M346.2,78.5c-3,0-5.5-2.5-5.5-5.5c0.1-2.9,2.5-5.4,5.5-5.4c3.1,0,5.4,2.5,5.4,5.7
		C351.6,76.2,349.1,78.5,346.2,78.5z"/>
	<path fill="#62926E" d="M474.8,66.2c0.5-0.3,1.1-0.4,1.7-0.4s0.9-0.1,0.4-0.7c-0.7-0.9-0.7-2.1,0-3.1s1.8-1.3,2.9-1
		c1.2,0.3,1.9,1.3,1.9,2.7c0,1.2-0.8,2.1-2,2.5c-0.9,0.2-0.9,0.2-0.3,0.9c1.3,1.5,1.3,3.6,0.1,5c-0.9,1.1-2.2,1.4-3.6,1.2
		c-1.5-0.2-2.5-1.1-2.9-2.6c-0.1-0.2,0-0.6-0.3-0.5c-0.3,0-0.2,0.4-0.3,0.6c-0.5,1.4-1.3,2-2.7,2c-1.1-0.1-2-0.8-2.3-1.9
		c-0.3-1.3,0.3-2.3,1.5-2.9c1.2-0.5,2.5-0.1,3.2,1c0.1,0.2,0.2,0.4,0.3,0.6c0.1,0.1,0.1,0.3,0.3,0.3s0.2-0.2,0.2-0.3
		c0.1-0.9,0.4-1.7,1-2.4C473.9,66.5,474.3,66.3,474.8,66.2z"/>
	<path fill="#B1605A" d="M426.1,58.7c0.7-0.8,1.2-1.8,2.1-2.4c0.3-0.4,0.7-0.4,1.1-0.5c2.4-0.7,4.5-0.1,6,1.7
		c1.3,1.7,1.5,4.1,0.3,6.1c-1.8,3.1-6.4,3.3-8.6,0.4c-0.2-0.3-0.4-0.5-0.6-0.9c-0.4-0.3-0.6-0.7-0.5-1.2c-0.1-1-0.1-2,0.1-3
		C426,58.9,426,58.8,426.1,58.7z"/>
	<path fill="#B4635F" d="M484.7,157.3c0.1,1.9-0.4,3.6-1.9,4.8c-1.7,1.4-4.2,1.6-6.1,0.5c-2-1.3-2.9-3.4-2.3-5.8
		c0.5-2,2.5-3.8,4.6-3.9c1.8-0.1,3.4,0.5,4.6,1.9c0.3,0.3,0.5,0.6,0.7,0.9C484.6,156.1,484.9,156.6,484.7,157.3z"/>
	<path fill="#DEA485" d="M367.5,81c0,0.6,0.3,0.5,0.6,0.3c1-0.8,2.1-1.1,3.4-1.1c1.9,0,4.2,1.9,4.7,3.7c0.7,2.7-0.5,5.1-3,6.3
		c-2.2,1.1-5.2,0-6.4-2.1c-0.9-1.7-0.9-3.4-0.1-5.1c0.1-0.3,0.7-0.8-0.3-0.7C366.5,81.6,367,81.3,367.5,81z"/>
	<path fill="#B4645F" d="M381.3,91.3c0.5-0.5,0.1-0.5-0.3-0.5c-1,0-1.8-0.4-2.5-1.1c-0.9-1-1.1-2.3-0.5-3.6c0.6-1.2,1.8-1.9,3.2-1.9
		c1.3,0.1,2.5,0.9,2.9,2.1c0.1,0.4,0.3,0.7,0.4,1.1c0.4-0.1,0.5-0.5,0.9-0.6c0.7-0.3,1.5-0.1,1.9,0.5c0.4,0.7,0.2,1.5-0.5,2
		c-0.7,0.5-1.5,0.4-2-0.3c-0.5-0.7-0.7-0.4-0.9,0.1c-0.3,0.5-0.7,0.9-1.1,1.2c-0.1,0.1-0.4,0.2-0.3,0.4c0.1,0.3,0.3,0.1,0.5,0.1
		c1.5-0.2,2.9,0.3,4.1,1.3c1.9,1.6,2.5,4.6,1.1,6.8c-1.5,2.3-4.4,3.2-6.8,2.1c-3.8-1.8-4.4-6.6-1.1-9.3c0.3-0.2,0.5-0.4,0.8-0.5
		c0.4,0.3,0.6,0.9,1.1,1.1c0.3,0.2,0.2,0.7-0.1,0.9c-0.5,0.5-1.4,0.2-1.7-0.5c0.1,0.6-0.3,0.7-0.7,0.9c-0.3,0.1-0.5,0.3-0.5,0.5
		c0,0.3,0.3,0.3,0.5,0.3c0.1,0,0.3,0.1,0.3,0.1c0.5,0.7,1.1,0.5,1.8,0.4c0.5-0.1,1-0.1,1.5-0.3c0.4-0.1,0.8,0.3,1,0.6
		c0.2,0.3,0.1,0.6,0.2,0.9c0.1,0.4-0.3,0.4-0.5,0.5c-0.3,0.1-0.2,0.4-0.1,0.6c0.3,0.6,0,0.9-0.5,1.1c-0.3,0.1-0.5,0.4-0.8,0.6
		c-0.4,0.3-0.8,0.2-0.8-0.3c-0.1-0.4-0.1-0.7-0.5-0.9c-0.3-0.2-0.2-0.5,0-0.8s0.5-0.2,0.7,0s0.5,0.5,0.7,0.3
		c0.3-0.2,0.3-0.6,0.3-0.9c-0.1-0.4-0.9-0.6-1.3-0.3c-0.9,0.7-0.9,0.7-1.7-0.1c-0.3-0.3-0.8-0.3-1.3-0.6c0,0.5,0.2,0.9,0,1.3
		c-0.1,0.1,0,0.3,0.1,0.4c0.2,0.1,0.3,0.3,0.3,0.5c0.3,0.8,0.5,1.5,1.5,1.9c0.8,0.3,1.6,0.1,2.3,0.5c0.3,0.2,0.7,0.1,1-0.3
		c0.3-0.5,0.7-0.5,0.9,0.1c0.1-0.3-0.3-0.7,0.1-0.9c0.3-0.2,0.5-0.3,0.9-0.3c0.1,0,0.3,0.1,0.5,0.1c0.5,0,0.7-0.3,0.5-0.9
		c-0.1-0.3-0.3-0.5-0.2-0.7c0.1-0.1,0.3-0.3,0.1-0.5s-0.5-0.1-0.7,0.1c-0.1,0.1-0.3,0.2-0.4,0.3c-0.4,0.1-0.6-0.1-0.8-0.4
		c-0.2-0.3-0.1-0.4,0.5-0.9c-0.4,0.3-0.6,0.3-0.7,0c-0.1-0.2-0.1-0.5,0.1-0.5c0.4-0.3,0.7-0.7,1.3-0.4c0.4,0.2,0.6-0.1,0.7-0.4
		c0.2-0.3-0.1-0.4-0.3-0.6c-0.5-0.3-1.2-0.7-1.3-1.5c-0.1-0.6-0.7-0.4-1.1-0.9c0.3,0.7,0.1,1.2-0.2,1.7c-0.1,0.1-0.3,0.3-0.5,0.3
		c-0.3,0-0.3-0.3-0.4-0.5c-0.1-0.1-0.1-0.3-0.1-0.5c0-0.3,0.3-0.6-0.1-0.8c-0.4-0.2-0.8-0.7-1.4-0.3
		C381.7,91.4,381.5,91.5,381.3,91.3z"/>
	<path fill="#B2625E" d="M438.5,82.9c-0.1-2.7,2.2-5.1,5-5.2c2.9-0.1,5.3,2.3,5.3,5.1c0.1,2.7-2.3,5.2-5,5.2
		C440.8,88.1,438.5,85.9,438.5,82.9z"/>
	<path fill="#B5635F" d="M376.5,159.7c0-2.1,1.1-3.7,3-4.5c1.7-0.7,4-0.2,5.2,1.2c1.3,1.4,1.6,3.5,0.8,5.3c0,0.1-0.1,0.1-0.1,0.2
		c-0.1,0.3-0.4,0.5-0.3,0.7c0.2,0.3,0.5,0,0.7,0c0.9-0.1,1.8,0.4,2.1,1.3c0.3,0.9-0.1,1.7-0.9,2.1c-0.7,0.3-1.3,0.2-1.8-0.1
		c-0.6-0.4-0.8-1-0.8-1.7c0-0.3,0.2-0.6,0-0.7c-0.3-0.2-0.5,0.1-0.7,0.3C380.3,165.6,376.5,163.4,376.5,159.7z"/>
	<path fill="#B25F5C" d="M397.1,155.7c-3.1-0.9-4.6-3.1-4-6.2c0.3-1.7,1.9-3.4,3.8-3.8c3.5-0.8,6.6,1.8,6.4,5.2
		c-0.1,2.3-1.9,4.3-4.2,4.7c-0.2,0-0.4,0.1-0.6,0.1C397.9,156.2,397.5,156,397.1,155.7z"/>
	<path fill="#E9AB45" d="M409.7,178.5c-0.1,3.2-2.3,5.1-5,5.2c-3,0.1-5.3-2.1-5.3-5.1c0-3,2.4-5,5-5
		C407.5,173.5,409.6,175.7,409.7,178.5z"/>
	<path fill="#DDA384" d="M363.1,148.6c0.1,0.6,0.6,0.3,0.9,0.3c1.9-0.3,4.3,0.8,5.1,2.3c1.2,2.3,0.9,4.5-0.7,6.2
		c-1.3,1.4-2.9,1.7-4.8,1.4c-2-0.4-3.4-1.7-3.9-3.8c-0.5-1.7,0.1-3.2,1.1-4.5c0.5-0.6,0.2-0.7-0.4-0.7c0-0.3,0.2-0.3,0.4-0.3
		c0.7-0.1,1.4-0.3,1.9-0.9C362.8,148.6,362.9,148.6,363.1,148.6z"/>
	<path fill="#DEA284" d="M470.8,33.9c-3,0.1-5.2-2.3-5.2-5c0-3,2.5-5.1,5.1-5.1c3,0,5.2,2.3,5.2,5.2C475.9,31.7,473.6,34,470.8,33.9
		z"/>
	<path fill="#DDA184" d="M417.9,171.1c0.1,3-2.2,5.2-5,5.2c-3.1-0.1-5.2-2.3-5.2-5.1c0-2.7,1.9-5.2,5.1-5.2
		C415.7,166.1,418.1,168.5,417.9,171.1z"/>
	<path fill="#EAAD47" d="M439.9,175.6c0.1,0.8,0.7,1.5,0.9,2.3c0.5,1.9-0.1,3.4-1.2,4.8s-2.7,1.8-4.4,1.5c-2.4-0.4-3.8-1.9-4.3-4.2
		c-0.5-2.3,1.2-5.2,4.1-5.7c1.3-0.3,2.5-0.1,3.6,0.7c0.2,0.1,0.5,0.4,0.8,0.2C439.7,175,439.9,175.2,439.9,175.6z"/>
	<path fill="#DFA586" d="M387.8,20.4c-0.5,0.5,0.1,0.7,0.4,0.9c1.1,0.7,1.9,1.7,2.4,3.1c0.9,2.5-0.9,5.8-4,6.4
		c-2.2,0.4-4-0.5-5.2-2.3c-1.1-1.7-1.1-3.6-0.1-5.3c0.9-1.5,2.3-2.4,4.2-2.4c0.4,0,0.7,0,1.1,0s0.3-0.3,0.3-0.5
		C387.3,20,387.5,20.1,387.8,20.4z"/>
	<path fill="#DCA183" d="M498.2,111.6c0.1,2.7-2.5,5-5.2,5c-2.7-0.1-5-2.4-5-5.2c0-2.7,2.3-5,5.1-5
		C496,106.5,498.2,108.7,498.2,111.6z"/>
	<path fill="#CE786C" d="M383.8,38c2.7-0.1,5,2,5,4.7c0.1,2.9-2.1,5.2-5,5.3c-2.7,0.1-5-2.2-5.1-4.8C378.7,40.2,380.7,38.1,383.8,38
		z"/>
	<path fill="#DEA384" d="M507.8,98.1c2.5,0,4.9,2.3,4.9,4.8c0,3.1-2.2,5.1-5,5.1c-2.9,0.1-5-2-5-4.8
		C502.6,100.1,504.9,98.1,507.8,98.1z"/>
	<path fill="#E7874C" d="M389.2,176.4c-2.8-0.1-5-2.3-4.9-5.1c0.1-2.5,2.5-4.8,4.9-4.8c3.1,0.1,5.1,2.2,5,5.2
		C394.1,174.5,391.9,176.6,389.2,176.4z"/>
	<path fill="#E6874B" d="M414.8,135.3c1.4,0.7,2.5,1.6,3,3.2c0.4,1.4,0.3,2.7-0.4,4c-0.1,0.2-0.3,0.5-0.5,0.7
		c-2.1,2.7-6.4,2.3-8.2-0.7c-1.7-2.9,0.2-6.8,3.5-7.2C413.1,135.1,414,134.7,414.8,135.3z"/>
	<path fill="#DFA687" d="M350.2,127.4c2.8,0,5,2.2,5,5.1c0,2.4-2.2,4.8-4.9,4.8c-2.8,0-4.9-2.3-4.9-5
		C345.3,129.6,347.8,127.3,350.2,127.4z"/>
	<path fill="#CF786C" d="M441.7,27.5c0,2.6-2.1,4.8-4.7,4.8c-2.6,0-5-2.2-5-4.7c0-3.4,2.5-5,4.6-5.1
		C439.6,22.5,441.7,24.6,441.7,27.5z"/>
	<path fill="#B1615C" d="M495.8,132.2c-2.7,0-4.8-2.1-4.8-4.8s2.2-4.9,4.8-4.9s4.8,2.2,4.8,4.9S498.5,132.2,495.8,132.2z"/>
	<path fill="#B05F5B" d="M365.4,144.3c0-2.5,2.1-4.8,4.6-4.8c2.9,0,5.1,2.1,5.1,4.8c0,2.5-2.3,4.8-4.8,4.8
		C367.5,149.2,365.4,147.1,365.4,144.3z"/>
	<path fill="#DFA486" d="M365.7,33.9c2.7-0.1,4.9,2.2,4.9,4.6c0,2.8-2.2,4.9-4.8,4.9c-2.7,0-4.8-2.1-4.9-4.8
		C360.8,36.1,363.3,33.7,365.7,33.9z"/>
	<path fill="#E58046" d="M434,15.6c-0.5,2.1-2.5,3.7-4.5,3.6c-2.5-0.1-4.4-1.7-4.8-4.1c-0.3-2.3,1.1-4.6,3.4-5.2
		c2.5-0.7,4.8,0.5,5.6,2.5c0.4,0.4,0.5,0.8,0.4,1.3C434,14.3,434.1,14.9,434,15.6z"/>
	<path fill="#E8A945" d="M342.5,118.4c-2.4-1.7-2.8-4.7-1.3-6.8c1.1-1.5,2.6-2.2,4.5-2c1.9,0.2,3.2,1.3,3.8,3.1
		c0.7,1.9,0.3,3.6-1.1,5c-1.4,1.3-3.1,1.6-4.9,1.1c-0.2-0.1-0.5,0-0.7-0.2C342.7,118.5,342.5,118.5,342.5,118.4z"/>
	<path fill="#CF796E" d="M355.8,100.8c-1.1,0.1-2.1,0.4-3.2,0.1c-1.7-0.5-3.2-2.1-3.4-4c-0.2-2.1,0.8-3.8,2.5-4.8
		c2.4-1.3,5.7-0.3,6.6,2.5c0.6,1.8,0.4,3.8-1.8,5.6C356.4,100.7,356.1,100.9,355.8,100.8z"/>
	<path fill="#E9A743" d="M419.5,44.1c0.1,2.7-2.3,4.8-4.8,4.8c-2.5-0.1-4.6-2.1-4.6-4.8c0-2.5,2.3-4.7,4.9-4.6
		C417.6,39.6,419.7,41.6,419.5,44.1z"/>
	<path fill="#E9AB46" d="M343.9,94.4c-0.1-0.6-0.7-0.3-1-0.3c-2-0.1-3.5-0.9-4.4-2.7c-1.2-2.3,0-5.3,2.6-6.4
		c2.3-0.9,5.4,0.4,6.1,2.8c0.6,2.1,0.1,4-1.6,5.4c-0.2,0.2-0.7,0.2-0.6,0.6c0.1,0.3,0.5,0,0.8,0.3C345.1,94.4,344.5,94.4,343.9,94.4
		z"/>
	<path fill="#AF5F5C" d="M486.2,72.8c-2.7-0.1-4.8-2.1-4.8-4.7c0.1-2.6,2.2-4.6,4.8-4.6c2.2,0,4.7,1.8,4.6,5
		C490.8,70.9,488.7,72.9,486.2,72.8z"/>
	<path fill="#AF605C" d="M459,103c0.7,1.2,1.1,2.4,0.9,3.8c0,0.1,0.1,0.3,0.1,0.3c0.1,0.5-0.1,0.8-0.4,1.1c-0.5,0.2-0.7,0.7-1.1,1.1
		c-1.5,1.3-3.2,1.7-5,1c-1.7-0.7-2.7-2-2.9-3.9c-0.1-2,0.7-3.6,2.5-4.6c1.7-0.9,3.4-0.7,5,0.4c0.2,0.1,0.4,0.3,0.6,0.4
		C458.9,102.6,459,102.8,459,103z"/>
	<path fill="#CE786B" d="M424.1,103.4c2.5,0,4.6,2.2,4.6,4.7c0,2.4-2.2,4.6-4.7,4.6c-2.6,0-4.8-2.1-4.8-4.6
		C419.4,105.5,421.5,103.4,424.1,103.4z"/>
	<path fill="#B1605D" d="M416.8,152.1c2.5,0,4.6,2.1,4.6,4.7s-2.1,4.7-4.6,4.7c-2.5,0-4.7-2.1-4.7-4.6
		C412.1,154.2,414.1,152.1,416.8,152.1z"/>
	<path fill="#B3635D" d="M425.5,92.7c0,2.5-2.1,4.6-4.6,4.6c-2.6,0-4.7-2.1-4.7-4.7c0-2.5,2.1-4.6,4.7-4.6
		C423.5,88,425.5,90,425.5,92.7z"/>
	<path fill="#E6874F" d="M448.8,173.7c1-2.7,3.4-4,6.2-3.2c0.2,0.1,0.5,0.2,0.7-0.1c0.4-0.1,0.6,0.1,0.7,0.5
		c-0.1,0.3,0.2,0.5,0.4,0.7c2.2,2.4,1.6,5.8-1.3,7.3c-2.7,1.4-6.2-0.3-6.6-3.2C448.7,175.1,448.7,174.4,448.8,173.7z"/>
	<path fill="#E5874B" d="M409,111.8c0.4-0.1,0.3-0.4,0.3-0.6c0.2-2.1,1.3-3.6,3.4-4.2c1.7-0.5,3.8,0.1,5,1.6
		c1.1,1.5,1.3,3.2,0.4,4.9c-0.7,1.5-2.1,2.4-3.9,2.5c-2.1,0.1-3.9-1-4.7-3.2c-0.1-0.3-0.1-0.5-0.5-0.4
		C408.8,112.3,408.8,112.1,409,111.8z"/>
	<path fill="#CE776B" d="M461.6,132.1c0.1,0.4,0.4,0.3,0.6,0.3c2,0.1,3.6,0.9,4.5,2.7c0.8,1.6,0.5,3.7-0.8,5.1
		c-1.2,1.3-3.4,1.9-5.1,1.2c-1.7-0.7-2.9-2.3-3-4.1c-0.1-2,0.7-3.4,2.5-4.4c0.3-0.1,0.3-0.3,0.3-0.6
		C460.9,132.1,461.2,132,461.6,132.1z"/>
	<path fill="#B0615D" d="M439.3,130.5c-2.5,0-4.6-2.1-4.6-4.8c0-2.4,2.1-4.5,4.6-4.6c2.5-0.1,4.6,1.9,4.6,4.8
		C444,128.4,441.8,130.5,439.3,130.5z"/>
	<path fill="#DEA385" d="M487.1,140.4c0.1-2.5,2-4.6,4.7-4.6c2.5,0,4.6,1.9,4.6,4.7c-0.1,2.8-2.1,4.6-4.7,4.6
		C488.9,145.1,486.9,142.5,487.1,140.4z"/>
	<path fill="#B05F5B" d="M369.3,103.2c-1.1,3-4.2,3.7-6.4,2.7c-1.6-0.7-2.7-2.7-2.5-4.5c0.3-2.1,1.7-3.8,3.6-4.1
		c3.3-0.5,5.7,1.6,5.6,4.9c0,0.2,0,0.4,0,0.7C369.5,103,369.4,103.1,369.3,103.2z"/>
	<path fill="#CC776C" d="M472.5,83.9c2.5,0,4.6,2,4.6,4.5c0,2.5-2,4.6-4.5,4.6c-2.7,0.1-4.8-1.8-4.8-4.6
		C467.8,85.7,470,83.8,472.5,83.9z"/>
	<path fill="#B2615F" d="M444.9,21.5c0.5-1.5,1.3-2.6,2.8-3.4c2.7-1.3,6.2,0.8,6.4,3.9c0.1,2.5-1.5,4.2-3.2,4.8
		c-2,0.6-4.2-0.2-5.4-2.1c-0.5-0.8-0.7-1.7-0.7-2.7C444.8,21.8,444.8,21.6,444.9,21.5z"/>
	<path fill="#B1605D" d="M499.6,93.7c-2.2,1.5-5.2,0.4-6.3-1.5c-1.3-2.1-0.6-4.9,1.5-6.3c1.6-1,4-0.8,5.4,0.5c1.5,1.4,2,3.7,1.1,5.5
		c-0.3,0.5-0.5,0.9-0.9,1.3C500.3,93.4,500,93.7,499.6,93.7z"/>
	<path fill="#CE776C" d="M408.3,91.3c0.6,0.3,1.3,0.5,1.8,0.9c1.5,1.1,2.2,3.1,1.7,4.9c-0.6,1.9-2.3,3.3-4.3,3.4
		c-1.9,0.1-3.6-1.1-4.4-2.9c-1-2.5,0.3-5.2,2.8-6c0.2-0.1,0.5-0.1,0.7-0.4C407.2,91,407.8,91,408.3,91.3z"/>
	<path fill="#CE786D" d="M452.1,156.3c2.7,0.1,4.6,2.5,4.4,4.9c-0.2,2.5-2.4,4.4-4.9,4.2s-4.4-2.5-4.2-4.8
		C447.6,158,449.7,156.1,452.1,156.3z"/>
	<path fill="#E78248" d="M356.6,86.3c-2.7,0.1-4.6-2.3-4.5-4.6c0.1-2.7,2.1-4.6,4.8-4.5c2.4,0.1,4.4,2.1,4.4,4.6
		C361.2,84.5,359.2,86.4,356.6,86.3z"/>
	<path fill="#CE796E" d="M512,118.8c0,2.5-2,4.6-4.6,4.5c-2.7-0.1-4.4-2-4.5-4.6c-0.1-2.5,2.1-4.6,4.6-4.6
		C510.1,114.2,512,116.3,512,118.8z"/>
	<path fill="#CD756A" d="M363.9,111.5c0-2.4,2.1-4.4,4.6-4.4s4.6,2,4.6,4.4c0,2.5-2.1,4.6-4.6,4.6
		C365.9,116.1,363.9,114,363.9,111.5z"/>
	<path fill="#B3625E" d="M401.9,27.1c0-2.5,2-4.5,4.5-4.5c2.7,0,4.6,2,4.6,4.6c0,2.3-2.1,4.4-4.6,4.4
		C403.9,31.6,401.9,29.6,401.9,27.1z"/>
	<path fill="#9DA768" d="M463.1,100.5c0.5,0.4,0.5,0,0.7-0.3c0.4-1.7,1.5-2.9,3.2-3.4c2.1-0.7,4.8,0.6,5.5,2.7
		c0.8,2.3-0.2,4.8-2.5,5.7c-2.7,1.1-5.5-0.3-6.2-3.3c-0.1-0.3,0.1-0.9-0.6-0.7C462.9,101,462.9,100.8,463.1,100.5z"/>
	<path fill="#9BA665" d="M474.8,66.2c-0.3,0.3-0.7,0.5-1.1,0.7c-0.3-0.3-0.7-0.1-0.9,0c-1.6,0.4-3.1,0.3-4.4-0.8
		c-1.9-1.5-2.2-4.3-0.7-6.2c1.5-2,4.4-2.3,6.3-0.9c1.9,1.5,2.3,4.4,1,6.2C474.9,65.6,474.4,65.8,474.8,66.2z"/>
	<path fill="#B2605C" d="M482.6,141.9c-0.1,2-1.3,3.6-3.1,4.1c-2,0.6-4-0.1-5.2-1.6c-1-1.3-1.1-3.4-0.2-4.8c0.9-1.5,2.7-2.4,4.3-2.2
		c2.4,0.3,3.9,1.8,4.1,4.1C482.6,141.5,482.6,141.7,482.6,141.9z"/>
	<path fill="#E9A642" d="M437.5,119.7c-2.5,0.1-4.6-1.9-4.6-4.3c-0.1-2.7,1.7-4.6,4.3-4.7c2.5-0.1,4.6,1.8,4.6,4.4
		C442,117.7,439.8,119.7,437.5,119.7z"/>
	<path fill="#DEA386" d="M480.3,124.3c0.2,2.5-2.2,4.5-4.6,4.5c-2.5,0-4.4-1.9-4.5-4.5c-0.1-2.4,2-4.4,4.4-4.5
		C478.2,119.7,480.5,121.8,480.3,124.3z"/>
	<path fill="#DCA082" d="M441,37.4c2.2-0.1,4.6,1.9,4.5,4.4c-0.1,2.7-1.9,4.6-4.5,4.6c-2.5,0-4.4-1.9-4.5-4.4
		C436.4,39.3,438.7,37.1,441,37.4z"/>
	<path fill="#9DA968" d="M466.5,119.7c0.1,2.3-2,4.5-4.5,4.5c-2.5,0-4.5-2-4.5-4.4c0-2.6,1.9-4.5,4.6-4.5
		C464.6,115.3,466.6,117.2,466.5,119.7z"/>
	<path fill="#CD776C" d="M433,147.6c2.4,0,4.4,2,4.4,4.4c0,2.5-1.9,4.5-4.6,4.5c-2.4,0-4.4-2.1-4.4-4.5
		C428.5,149.6,430.6,147.6,433,147.6z"/>
	<path fill="#E5884D" d="M392.4,63.8c0.4,0.6,1,1,1.3,1.7c0.8,1.7,0.7,3.5-0.5,4.9s-3.1,1.9-4.8,1.3c-2-0.7-3-2.1-3.1-4.3
		c0-0.1-0.1-0.3-0.1-0.4c-0.1-0.1-0.1-0.1,0-0.2c0.1-0.1,0.2-0.3,0.3-0.4c0.9-2.5,2.3-3.4,5-3.3c0.1,0,0.3,0,0.5,0
		C391.5,63.1,392,63.4,392.4,63.8z"/>
	<path fill="#DEA587" d="M507,85.1c-2.5,0.1-4.4-2.3-4.4-4.5c0.1-2.7,1.9-4.4,4.4-4.5c2.3-0.1,4.6,1.9,4.5,4.6
		C511.6,83.1,509.8,84.9,507,85.1z"/>
	<path fill="#E68349" d="M487.8,98.7c0.3,0.5,0.7,1.1,0.9,1.8c0.2,0.6,0,1.2,0.3,1.8c0.1,0.3-0.1,0.7-0.4,0.9
		c-0.6,1.3-1.5,2.3-3.1,2.5c-0.5,0.4-1,0.5-1.6,0.2c-2.7-0.3-4.5-2.9-3.8-5.5c-0.1-0.4,0.1-0.7,0.4-0.9c1.1-2.4,4.4-3.2,6.6-1.5
		C487.4,98.2,487.7,98.3,487.8,98.7z"/>
	<path fill="#DEA385" d="M363,56.2c0-2.7,1.9-4.5,4.4-4.6c2.4-0.1,4.5,2.1,4.4,4.5c-0.1,2.7-1.9,4.5-4.6,4.4
		C365,60.5,363.1,58.6,363,56.2z"/>
	<path fill="#B56460" d="M433.1,170c-1.8,0-3.6-1.5-3.8-3.3c-0.3-1.9,0.9-3.8,2.5-4.4c0.2-0.1,0.6,0,0.6-0.3c0-0.4-0.4-0.3-0.6-0.3
		c-0.9-0.4-1.3-1.1-1.3-2c0.1-0.9,0.5-1.3,1.3-1.7c0.7-0.3,1.6,0,2.1,0.6c0.7,0.9,0.5,2.2-0.5,2.9c-0.2,0.1-0.5,0.1-0.4,0.5
		c0.1,0.3,0.4,0.1,0.6,0.1c2.2,0.2,3.8,2,3.6,4.2C437.1,168.5,435.4,170.1,433.1,170z"/>
	<path fill="#9CA667" d="M474.5,81.3c-2.5,0.9-4.6,0.4-5.8-1.5c-0.9-1.3-0.9-2.8-0.2-4.3c0.7-1.3,1.7-2.3,3.4-2.4
		c1.8-0.2,3.3,0.3,4.3,1.9c1.1,1.6,0.9,3.3,0,4.9C475.7,80.6,475.1,80.9,474.5,81.3z"/>
	<path fill="#CE786B" d="M363.1,148.6c-0.6,0.9-1.6,1.1-2.6,1.3c-2.7,0.4-5-2.1-4.9-4.5c0.1-1.7,0.9-2.9,2.3-3.7
		c1.6-0.8,3.2-0.7,4.7,0.4C364.7,143.7,364.9,146.7,363.1,148.6z"/>
	<path fill="#609771" d="M391.3,51.4c0.2-0.1,0.3-0.3,0.3-0.5c1-2.3,3.7-3.3,5.9-2.2c2.2,1,3.2,3.7,2.1,5.9
		c-0.8,1.7-2.8,2.7-4.8,2.3c-1.8-0.3-3.3-1.9-3.5-3.8c-0.1-0.3,0.1-0.7-0.1-1.1C390.9,51.7,391.1,51.5,391.3,51.4z"/>
	<path fill="#DFA485" d="M423.2,76.4c0.1,0.6,0.6,0.3,0.9,0.3c1.6-0.1,2.8,0.5,3.8,1.7c1.9,2.4,0.5,5.5-1.6,6.6
		c-2.9,1.4-6.5-1.1-6.2-4.3c0.1-1.3,0.8-2.3,1.8-3.2c0.3-0.2,0.5-0.3,0.5-0.7C422.5,76.2,422.8,76.2,423.2,76.4z"/>
	<path fill="#AE5E59" d="M461,44.6c0,2.3-1.7,4.2-4.4,4.3c-2.4,0.1-4.4-2-4.3-4.5c0.1-2.3,2.1-4.2,4.5-4.2
		C459.1,40.2,461.1,42.2,461,44.6z"/>
	<path fill="#CF7A6F" d="M503.2,75.3c-2.4,0-4.3-1.9-4.3-4.3c0-2.3,1.9-4.4,4.1-4.4c2.5,0,4.6,2,4.6,4.5
		C507.7,72.9,505.9,75.4,503.2,75.3z"/>
	<path fill="#CC796D" d="M459,58.7c0,0.5,0.5,0.5,0.8,0.6c1.8,0.6,2.9,2.2,2.9,4.2c-0.1,1.9-1.3,3.5-3,4c-1.9,0.5-3.8-0.1-4.8-1.6
		c-1.7-2.5-0.6-5.6,2.3-6.6c0.3-0.1,0.8-0.1,0.9-0.6C458.3,58.4,458.6,58.4,459,58.7z"/>
	<path fill="#DC9F81" d="M478.1,45.5c0,2.3-2.1,4.4-4.4,4.4c-2.3-0.1-4.3-2-4.3-4.4c0-2.3,2-4.2,4.4-4.2
		C476.2,41.2,478.1,43,478.1,45.5z"/>
	<path fill="#E7854C" d="M495.8,63.5c-2.3,0-4.4-1.9-4.4-4.3c0-2.3,1.9-4.4,4.2-4.4c2.5,0,4.5,2,4.4,4.4
		C500.1,61.5,498.1,63.5,495.8,63.5z"/>
	<path fill="#A0A968" d="M380.4,62.1c0.3-0.3,0.1-0.5,0-0.7c-0.9-2.7-0.1-4.4,1.5-5.4c1.9-1.2,4.2-0.8,5.7,0.9
		c1.2,1.3,1.3,3.6,0.2,5.1c-1.1,1.7-3.2,2.3-5,1.7c-0.7-0.2-1.1-0.9-1.9-0.8C380.5,62.8,380.4,62.5,380.4,62.1z"/>
	<path fill="#9CA667" d="M446.6,75.6c-0.4-0.1-0.6,0.3-0.9,0.5c-1.4,1.3-3.4,1.5-4.9,0.5c-1.7-1.1-2.5-3-2-4.8
		c0.7-2.7,3.2-3.9,5.8-2.9c2.2,0.8,3.2,3.5,2.2,5.8C446.8,74.9,446.6,75.2,446.6,75.6L446.6,75.6z"/>
	<path fill="#B56460" d="M492.6,41.2c0.1,2.4-2.1,4.2-4.4,4.2c-2.3,0-4.3-2.2-4.2-4.6c0.1-2.3,2.1-4.2,4.6-4
		C490.8,36.9,492.7,38.9,492.6,41.2z"/>
	<path fill="#9EA86A" d="M457.3,133.1c0.2,2.5-2.1,4.4-4.2,4.4c-2.5,0-4.4-1.9-4.4-4.3c0-2.3,1.9-4.2,4.3-4.3
		C455.2,128.8,457.6,130.9,457.3,133.1z"/>
	<path fill="#CF7B6F" d="M489.5,148.4c0.1,2.2-1.7,4.2-4.2,4.2c-2.4,0.1-4.4-1.9-4.4-4.2c0-2.4,1.9-4.4,4.3-4.5
		C487.7,143.9,489.5,145.9,489.5,148.4z"/>
	<path fill="#B3615D" d="M369.8,75.4c-1.2,0.6-2.5,0.9-3.9,0.4c-2.3-0.8-3.5-3.3-2.7-5.6c0.7-2.1,3.4-3.3,5.5-2.5
		c2.4,0.8,3.6,3.6,2.5,6.1C371.1,74.7,370.4,75,369.8,75.4z"/>
	<path fill="#DDA586" d="M354.7,62.1c0,2.5-1.8,4.4-4.5,4.3c-2.1-0.1-4.1-1.9-4-4.4c0-2.3,1.9-4.3,4.2-4.3
		C352.7,57.9,354.8,59.8,354.7,62.1z"/>
	<path fill="#6B8A6B" d="M415.7,69.7c-0.5-0.3-0.9-0.7-1.3-1c-1.5-1.4-1.7-3.5-0.7-5.3c0.9-1.7,3-2.5,5-1.9c1.9,0.5,3.1,2.3,3,4.4
		c0,0.4-0.2,0.7,0,1.1l0,0c-0.7,0.9-1.1,1.9-2.2,2.4c-0.6,0.3-1.3,0.3-1.9,0.7C416.9,70.1,416.2,70.1,415.7,69.7z"/>
	<path fill="#6F8E6F" d="M463.1,100.5c0,0.2,0,0.5,0,0.7c0.1,1.5-1.7,2.7-3.3,2c-0.3-0.1-0.5-0.5-0.9-0.2c-0.1-0.1-0.2-0.3-0.3-0.3
		c0.2-0.2,0.1-0.4,0-0.6c-0.8-1.5,0.2-3.2,1.6-3.5c0.1-0.1,0.4,0,0.4-0.3c0-0.3-0.3-0.2-0.4-0.3c-1.7-0.7-2.5-2.1-2.3-4
		c0.2-1.5,1.5-2.6,3.2-2.9c1.7-0.2,3.1,0.7,3.8,2.5c0.3,0.3,0.4,0.6,0.1,1c-0.2,2.1-1.3,3.2-3.3,3.6c-0.1,0-0.3-0.1-0.4,0.2
		c-0.1,0.3,0.2,0.3,0.3,0.3C462.5,99.1,462.9,99.7,463.1,100.5z"/>
	<path fill="#CD776B" d="M435.4,94.4c0,2.3-1.9,4.3-4.1,4.3c-2.4,0-4.4-1.8-4.4-4.2c0-2.4,1.9-4.4,4.2-4.4
		C433.4,90,435.4,92,435.4,94.4z"/>
	<path fill="#CD786C" d="M460.5,38.3c0-2.3,1.9-4.3,4.2-4.3c2.4,0,4.4,1.9,4.4,4.2c0,2.5-1.9,4.4-4.4,4.4
		C462.4,42.5,460.5,40.6,460.5,38.3z"/>
	<path fill="#B4635E" d="M351.7,125.8c-2.3,0-4.2-1.9-4.2-4.2c0-2.3,1.8-4.2,4.1-4.3c2.4,0,4.4,1.9,4.4,4.3
		C355.9,123.9,354,125.8,351.7,125.8z"/>
	<path fill="#B2625C" d="M336.8,104.4c0-2.3,1.9-4.2,4.2-4.2c2.4,0,4.4,2,4.4,4.4c-0.1,2.1-2.1,4.1-4.3,4.1
		C338.7,108.7,336.8,106.8,336.8,104.4z"/>
	<path fill="#5F9770" d="M459.6,108.3c0.1-0.3,0.3-0.7,0.4-1.1c0.7-0.5,1.1-1.3,1.9-1.7c2.3-1.1,4.9-0.2,6,2.2
		c0.9,2-0.3,4.6-2.4,5.4c-2.4,0.9-5-0.3-5.6-2.7C459.6,109.7,459.7,108.9,459.6,108.3z"/>
	<path fill="#CF776C" d="M465.9,152.6c2.3,0,4.3,1.9,4.4,4.1c0,2.4-1.9,4.4-4.3,4.3c-2.4,0-4.3-1.9-4.3-4.2
		C461.7,154.5,463.6,152.6,465.9,152.6z"/>
	<path fill="#CD7467" d="M428.3,37.5c2.3,0,4.2,1.8,4.2,4.2c0.1,2.3-1.9,4.2-4.3,4.2C426,46,424,44,424,41.6
		C424,39.4,425.9,37.5,428.3,37.5z"/>
	<path fill="#5E9671" d="M415.3,118.9c0.7-0.8,1.3-1.6,2.4-2c1.5-0.6,3.4-0.2,4.6,1.1c1.2,1.3,1.4,2.9,0.8,4.6
		c-0.5,1.4-2.1,2.4-3.8,2.5c-2.1,0.1-4.6-1.7-4.4-4.6C414.7,119.9,414.7,119.3,415.3,118.9z"/>
	<path fill="#CD786C" d="M382.5,149.8c0.1,2.1-1.9,4.2-4.4,4.1c-2.3-0.1-4.2-2.1-4.1-4.5c0.1-2.1,1.9-4.2,4.7-3.9
		C381,145.7,382.6,147.5,382.5,149.8z"/>
	<path fill="#CB786D" d="M408.1,68c0,2.3-1.9,4.2-4.2,4.2s-4.2-1.9-4.2-4.2c0-2.2,1.9-4.3,4-4.3C406.4,63.8,408.2,65.8,408.1,68z"/>
	<path fill="#A0A96A" d="M451.1,95.4c-2,0.2-4.2-1.7-4.2-4.1c0-2.3,1.8-4.2,4.1-4.3c2.3-0.1,4.2,1.8,4.4,4.2
		C455.4,93.2,453.4,95.6,451.1,95.4z"/>
	<path fill="#CF786E" d="M513.3,92c0,2.4-1.9,4.3-4.2,4.3c-2.3,0-4.2-1.9-4.2-4.2c0.1-2.3,1.9-4.2,4.2-4.2
		C511.5,87.9,513.3,89.7,513.3,92z"/>
	<path fill="#CE796D" d="M388.2,85.7c-2.4-0.1-4.2-1.9-4.2-4.4c0.1-2.2,2-4.1,4.2-4c2.3,0.1,4.3,2,4.2,4.3
		C392.4,83.9,390.5,85.8,388.2,85.7z"/>
	<path fill="#E5854B" d="M402.9,38.5c1.3,2.3,0.6,4.8-1.7,5.9c-1.9,0.9-4.4,0.5-5.6-1.9c-0.7-1.3-0.5-3.2,0.5-4.4
		c1.3-1.4,3-1.9,4.6-1.3c0.4,0.1,0.7,0.3,1.1,0.5C402.4,37.5,402.7,38.1,402.9,38.5z"/>
	<path fill="#CB746A" d="M364.9,130.1c0-2.2,1.9-4.2,4.2-4.2c2.2,0,4.1,1.9,4.1,4.1c0,2.5-1.8,4.3-4.2,4.3
		C366.7,134.3,364.9,132.4,364.9,130.1z"/>
	<path fill="#B3625E" d="M367,120c0.7-1.7,2.1-2.7,4-2.7c1.7,0,2.9,0.9,3.7,2.3c0.9,1.7,0.4,3.8-1.2,5c-1.5,1.2-3.6,1.2-5.1,0
		c-0.3-0.3-0.6-0.5-0.9-0.8c-0.7-0.5-0.9-1.1-0.7-1.9c0-0.5,0-0.9,0-1.5C367,120.3,366.9,120.1,367,120z"/>
	<path fill="#9EA868" d="M447.2,53.2c1-0.7,2-1.3,3.3-1.2c1.7,0.1,2.9,1,3.6,2.5c0.7,1.7,0.4,3.2-0.8,4.5c-1.1,1.2-2.5,1.6-4.2,1.1
		c-2.6-0.9-3.6-3.3-2.5-5.8c0.1-0.1,0.1-0.3,0.1-0.5C446.8,53.6,446.8,53.3,447.2,53.2z"/>
	<path fill="#CD776B" d="M433.7,89.8c-2.3,0-4.2-1.7-4.2-4c0-2.4,1.9-4.2,4.2-4.2c2.1,0,4.2,1.9,4,4.2
		C437.8,88,436.1,89.8,433.7,89.8z"/>
	<path fill="#B1605C" d="M355.3,56.9c-1.3,0.4-2.5,0.5-3.6-0.3c-0.7-0.5-1.2-1.1-1.5-1.9c-0.5-1.7,0.1-3.4,1.5-4.2
		c1.5-0.9,3.3-0.7,4.4,0.5c0.8,0.8,1.1,1.7,1.1,2.8c0,1.1-0.6,1.9-1.5,2.9c1.1-0.1,2.1-0.1,2.7,1c0.3,0.5,0.3,0.9,0.1,1.5
		c-0.3,1.1-1.4,1.6-2.5,1.3C354.8,60,354.5,59,355.3,56.9z"/>
	<path fill="#E8AA46" d="M416.2,106.7c-2.3-0.1-4-1.7-4-4c0-2.5,1.6-4.2,4.1-4.2c2.2-0.1,4.1,1.8,4.2,4
		C420.5,104.8,418.6,106.6,416.2,106.7z"/>
	<path fill="#DBA083" d="M452.5,145.5c-0.3,2.4-1.7,4-4.2,4c-2.5,0-4.2-1.7-4.2-4.3c0-2,2.1-4.1,4.1-4
		C450.5,141.4,452.3,143,452.5,145.5z"/>
	<path fill="#DDA083" d="M413.9,18.4c-1.7,0.3-4.2-2.2-4.1-4c0.1-2.3,1.9-4.3,4.5-4.2c2.2,0.1,3.8,1.9,3.8,4
		C418.2,17,415.9,18.6,413.9,18.4z"/>
	<path fill="#A1AA6A" d="M430,138.5c0-2.3,1.8-4.1,4.2-4.1c2.1,0,4,1.9,4,4c-0.1,2.1-1.5,4.2-4.3,4.2
		C431.8,142.7,430,140.7,430,138.5z"/>
	<path fill="#A2AC6D" d="M378.3,136.2c0-2.2,1.9-4.2,4.1-4.1c2.4,0,4.2,1.9,4.2,4.3c0,2.2-1.9,4-4.2,4
		C380.1,140.2,378.3,138.4,378.3,136.2z"/>
	<path fill="#B56461" d="M401.5,18c-0.5,2-2,3.3-4,3.4c-1.8,0-3.5-1.2-4-3c-0.6-2.3,0.9-4.6,3.3-5.1c2.2-0.4,4.5,1.2,4.8,3.5
		C401.5,17.1,401.8,17.6,401.5,18z"/>
	<path fill="#E8AA48" d="M375.9,163c0,2.3-1.8,4.1-4,4.1c-2.2,0-4-1.8-4-4.1c-0.1-2.3,1.9-4.1,4.2-4.1
		C374,158.9,376,160.8,375.9,163z"/>
	<path fill="#DAA182" d="M446.6,75.6c0.6-0.1,1.1-0.6,1.8-0.1c0.3,0.2,0.5,0.3,0.6,0.7c0,0.2,0.1,0.5,0.3,0.5
		c0.4,0.1,0.3-0.3,0.4-0.5c0.2-0.5,0.8-0.9,0.7-1.5c0.3-0.4,0.7-0.6,1.1-0.7c0.5,0.3,1,0,1.5-0.1c1.6-0.2,3.2,0.9,3.8,2.5
		c0.6,1.5,0,3.4-1.3,4.4c-1.1,0.8-2.3,1.1-3.7,0.5c-1.5-0.7-2.3-1.9-2.3-3.6c0-0.2,0.1-0.5-0.2-0.6c-0.3-0.1-0.3,0.2-0.5,0.3
		c-0.5,0.5-1.1,0.7-1.7,0.3c-0.6-0.3-0.8-0.9-0.6-1.5C446.6,76,446.6,75.8,446.6,75.6L446.6,75.6z"/>
	<path fill="#9EA868" d="M411.1,81.9c0.1,2.1-1.9,4.1-4,4.1s-4-1.8-4-3.9c-0.1-2.4,1.7-4.2,4-4.2C409.2,77.8,411.1,79.7,411.1,81.9z
		"/>
	<path fill="#CD7569" d="M419,178.1c-0.6,0.1-0.2,0.5-0.1,0.7c0.3,0.7,0.4,1.5,0.3,2.3c-0.2,1.8-1.3,2.9-2.9,3.4
		c-1.5,0.5-2.9,0-4-1.1c-1.3-1.3-1.4-2.9-0.7-4.6c0.8-1.9,3.3-2.7,5.4-1.8c0.4,0.1,0.6,0.2,0.6-0.3C418,177.1,418.5,177.6,419,178.1
		z"/>
	<path fill="#9FA969" d="M434.6,122.3c0,1.9-1.5,3.6-3.5,3.8c-2.1,0.1-3.8-1.3-4-3.5c0-0.3,0.1-0.6-0.2-0.7
		c-0.3-0.1-0.4,0.2-0.5,0.4c-0.7,0.6-1.5,0.5-2.1-0.2c-0.5-0.5-0.3-1.5,0.3-1.9c0.6-0.5,1.5-0.3,1.9,0.4c0.5,0.7,0.5,0.7,1.1-0.1
		c0.9-1.5,2.6-2.2,4.1-1.7C433.6,119.2,434.6,120.5,434.6,122.3z"/>
	<path fill="#E8A543" d="M414.3,25.7c0.3-0.2,0.1-0.5,0.1-0.7c-0.5-2.3,0.9-4.4,3.2-4.9c2.1-0.4,4.4,1.5,4.6,3.4
		c0.2,1.8-0.7,3.4-2.1,4.2c-1.4,0.8-2.9,0.6-4.2-0.3c-0.3-0.1-0.5-0.7-0.8,0C414.9,26.8,414.7,26.2,414.3,25.7z"/>
	<path fill="#EAA941" d="M358.7,42.4c2.3-0.1,4,1.7,4,4c0,2.1-1.7,4-4,4c-2.2,0.1-4-1.7-4.1-4C354.6,44.2,356.4,42.4,358.7,42.4z"/>
	<path fill="#A3AD6E" d="M391.2,110.4c-0.1,2.8-2.3,4-4.4,4c-2.1-0.1-3.8-2.1-3.7-4.2c0.1-2.1,2.1-4,4.2-3.8
		C389.6,106.5,391.3,108.4,391.2,110.4z"/>
	<path fill="#EAAB47" d="M410.3,119.2c-0.3,0.1-0.3,0.3-0.5,0.5c-0.4,1.2-1.2,2.1-2.4,2.5c-0.1,0.1-0.2,0.2-0.2,0.3
		c-0.5,0.1-0.9,0.3-1.4,0.3c0-0.5-0.5-0.5-0.8-0.6c-1.7-0.5-2.6-1.7-2.8-3.3c-0.3-1.7,0.6-3.2,2.1-4c2.4-1.3,5.2,0.3,5.7,2.4
		c0.1,0.5,0.3,0.9,0.4,1.3C410.4,118.9,410.4,119.1,410.3,119.2z"/>
	<path fill="#E5864B" d="M378.3,101.5c0.3,0.1,0.5,0.2,0.9,0.1c1.8-0.3,3.8,1.3,4,3.8c0.1,2-1.5,3.8-3.6,4.1c-2.4,0.3-4.5-1.5-4.5-4
		c-0.3-0.9-0.3-1.3,0.5-1.7c0.1-0.6,0.7-0.9,1-1.3C376.9,101.8,377.7,101.7,378.3,101.5z"/>
	<path fill="#659B74" d="M400.5,93.1c-2.3,0-4-1.8-4-4.1c0-2,1.9-3.8,4.1-3.8c2.2,0,4,1.8,4,4C404.5,91.4,402.7,93.1,400.5,93.1z"/>
	<path fill="#B1605C" d="M379.8,165c2.1,0,4,1.9,3.9,4c0,2.2-1.9,3.9-4.2,3.9c-2.2,0-4-1.9-3.9-4.2C375.8,166.7,377.7,165,379.8,165
		z"/>
	<path fill="#B1605E" d="M456.2,32.4c-1.2-2.5,0.7-5.7,3.8-5.6c1.7,0.1,2.9,0.9,3.6,2.4c0.7,1.5,0.4,2.9-0.7,4.2
		c-1.1,1.3-2.4,1.5-4,1.2c-0.3-0.1-0.5-0.1-0.7-0.3C457.2,34,456.6,33.3,456.2,32.4z"/>
	<path fill="#B3625F" d="M420.6,180.9c0-2.3,1.7-4,4-4c2.1,0.1,3.9,1.4,3.9,4c0,2.1-1.7,3.8-4,3.9
		C422.3,184.9,420.6,183.1,420.6,180.9z"/>
	<path fill="#DEA486" d="M451.7,122.9c-2.4,0.1-4-2.5-3.7-4.4c0.3-2,1.9-3.8,4.4-3.6c2.3,0.2,3.8,2.1,3.6,4.6
		C455.6,121.6,453.6,123.1,451.7,122.9z"/>
	<path fill="#A2AC6E" d="M390.7,103.2c0.5-0.1,0.7-0.7,1.1-1c1.3-1.1,3.2-1.4,4.8-0.5c1.4,0.8,2.1,2.6,1.7,4.2c-0.5,2-2.3,3.3-4.2,3
		c-2.1-0.3-3.5-1.7-3.6-3.9c0-0.2,0.1-0.4-0.1-0.6C390.3,104,390.4,103.6,390.7,103.2z"/>
	<path fill="#DFA485" d="M401.7,115c-2.3,0.1-4-2.1-4-4c0-2.3,2.2-4,4-3.9c2.3,0.1,4.1,1.8,4.1,3.9C405.8,113.4,403.9,115,401.7,115
		z"/>
	<path fill="#B2615C" d="M381.3,91.3c0.3,0.1,0.5-0.1,0.7-0.2c0.3-0.1,1.6,0.4,1.7,0.6c0.1,0.1,0.1,0.3-0.1,0.5
		c-0.3,0.5-0.1,0.8,0.1,1.3c0.5-0.6,0.9-1.1,0.4-1.8c-0.1-0.1-0.1-0.3,0.1-0.3c0.1-0.1,0.2-0.1,0.2,0c0.2,0.4,0.7,0.3,1,0.5
		c0.1,0.1,0.2,0.2,0.2,0.2c-0.3,0.7,0.6,0.9,0.7,1.4c0.1,0.2,0.3,0.3,0.5,0.3c0.6-0.1,0.5,0.3,0.5,0.7c-0.1,0.3-0.4,0.5-0.6,0.7
		c-0.4,0.5-0.4-0.2-0.6-0.3c-0.2-0.1-1.2,0.4-1.2,0.7c0,0.1,0.1,0.1,0.1,0.2c0.1,0.1,0.2,0.1,0.3,0c0.1-0.1,0.2-0.3,0.3-0.5
		c0.3,0.4,0.2,0.6-0.2,0.7c-0.3,0.1-0.5,0.3-0.2,0.5c0.2,0.2,0.5,0.6,0.7,0.1c0.3-0.4,0.7-0.3,1.1-0.3c0.4,0.1,0.5,0.3,0.1,0.6
		c-0.3,0.3-0.2,0.5,0,0.7c0.3,0.3,0.3,0.6,0.1,0.9c-0.2,0.4-0.5,0.4-0.9,0.3s-0.6-0.1-0.9,0.1c-0.3,0.1-0.6,0.2-0.3,0.6
		c0.1,0.2,0.1,0.4,0,0.6c-0.1,0.1-0.2,0.2-0.3,0.1c-0.2-0.1-0.1-0.2-0.1-0.3c0.1-0.1,0.1-0.3-0.1-0.4c-0.2-0.1-0.3,0.1-0.5,0.2
		c-0.5,0.6-1.1,0.7-1.7,0.3c-0.1-0.1-0.3-0.3-0.4-0.1c-0.5,0.4-0.9-0.2-1.2-0.2c-0.9,0.1-0.9-0.7-1.4-1.1c-0.4-0.3-0.5-0.5-0.4-0.9
		c0-0.1,0-0.1,0-0.1c-1-0.4-0.1-1.3-0.5-1.9c-0.1-0.2,0-0.5,0.2-0.4c0.5,0.3,1.1,0.1,1.5,0.7c0.4,0.7,0.8,0.7,1.3,0.1
		c0.1-0.2,0.3-0.3,0.5-0.2c0.1,0,0.3,0.1,0.5,0.1c0.3,0.1,0.3-0.6,0.6-0.2c0.2,0.3,0.4,0.8,0.1,1.2c-0.1,0.3-0.2,0.5-0.1,0.9
		c-0.6-0.3-1.2-0.3-1.5-0.9c-0.3,0.4-0.6,0.7,0,0.9c0.5,0.2,0.2,0.6,0.3,0.9c0.1,0.1-0.1,0.3,0.1,0.4c0.1,0.1,0.3,0,0.4-0.1
		c0.2-0.4,0.6-0.5,1-0.7c0.3-0.1,0.5-0.4,0.3-0.9c-0.4-0.7-0.2-1,0.7-1c-0.1-0.3-0.4-0.6-0.2-1.1c0.1-0.2-0.7-0.7-0.9-0.6
		c-0.8,0.5-1.7,0.3-2.5,0.5h-0.1c-0.6-0.3-1.2-0.7-1.8-1c-0.3-0.1,0.2-0.9,0.8-1.1c0.3-0.1,0.5-0.1,0.3-0.4
		c-0.1-0.1-0.1-0.5,0.2-0.5c0.2,0,0.4,0.2,0.4,0.5c-0.1,0.7,0.1,0.7,0.6,0.3c0.1-0.1,0.3,0.1,0.5,0.1c0.3,0,0.3-0.2,0.4-0.3
		c0.1-0.2,0.1-0.5-0.1-0.5c-0.7-0.1-0.7-0.8-0.9-1.2C381.2,91.3,381.2,91.3,381.3,91.3z"/>
	<path fill="#CE796E" d="M387.6,147.2c-1.9,0.1-4-1.6-4-3.8c0-2.5,2-4.1,4-4c2.1,0,3.9,1.7,4,3.7
		C391.6,145.5,389.9,147.2,387.6,147.2z"/>
	<path fill="#E8A947" d="M469.4,150c0.1-2.1,1.7-4,4-3.9c2.4,0.1,3.8,1.7,4,3.8c0.1,2.1-1.8,4-3.8,4
		C471.2,153.9,469.4,152.2,469.4,150z"/>
	<path fill="#B15F5C" d="M485.9,91.3c1,2.7-0.5,5-2.7,5.6c-1.9,0.5-4.2-0.9-4.6-2.7c-0.5-2.1,0.7-4.4,2.7-4.8
		c1.3-0.3,2.6-0.1,3.7,0.8C485.5,90.3,485.9,90.7,485.9,91.3z"/>
	<path fill="#E6844D" d="M442.4,34.3c0.5-0.1,0.4-0.5,0.4-0.7c0.3-2.3,2.1-4,4.4-3.6c2.2,0.3,3.8,2.5,3.4,4.8
		c-0.3,1.6-1.5,2.8-3.5,3c-1.9,0.2-3.5-0.9-4.1-2.7c-0.1-0.3-0.1-0.6-0.5-0.5L442.4,34.3L442.4,34.3z"/>
	<path fill="#E6874C" d="M356.2,105.3c0.3,0.5,0.5,1.1,0.5,1.7c0,0.4,0.2,0.5,0.5,0.5c0.1,0.1,0.1,0.2-0.1,0.2
		c-0.5-0.1-0.4,0.4-0.5,0.7c-0.7,1.6-1.8,2.5-3.6,2.7c-1.6,0.1-3.2-0.9-3.8-2.3c-0.5-1.1-0.4-2.1,0.1-3.2c0.1-0.2,0.5-0.5-0.1-0.6
		c0.3-0.5,0.9-0.9,1.3-1.3c0.1,0.5,0.5,0.2,0.7,0.1c1.3-0.5,2.5-0.4,3.8,0.3C355.8,104,356.1,104.6,356.2,105.3z"/>
	<path fill="#E9A745" d="M492.5,81.2c-1.1-0.9-1.9-2-1.9-3.6c0.1-1.9,1.3-3.3,3.4-3.8c1.4-0.3,3.4,0.7,4,2.1c0.7,1.5,0.6,3-0.6,4.4
		s-2.7,1.5-4.4,1.1C492.8,81.4,492.6,81.3,492.5,81.2L492.5,81.2z"/>
	<path fill="#B2615E" d="M481.2,58.7c0-2.1,1.8-3.9,4-3.9c2.1,0,3.8,1.7,3.8,3.8c0,2.2-1.7,4-3.9,4C483,62.7,481.2,60.9,481.2,58.7z
		"/>
	<path fill="#B1605C" d="M499.7,105.2c-2,1.4-4.4,1-5.7-1c-1.2-1.8-0.6-4.2,1.3-5.4c1.1-0.7,2.9-0.7,4,0.1c1.5,0.9,2.1,2.5,1.8,4
		c-0.1,0.7-0.3,1.4-0.9,1.9C500.1,104.9,500,105,499.7,105.2z"/>
	<path fill="#E9A944" d="M459.6,146.5c2-0.1,3.8,1.5,3.8,3.7c0,2.5-1.7,4-4,4c-2.1,0-3.8-1.7-3.8-3.8
		C455.6,148.2,457.4,146.3,459.6,146.5z"/>
	<path fill="#DDA285" d="M417.2,165c-0.1-2.1,1.6-3.9,3.7-3.9c2.4,0,4.2,1.8,4.1,4c-0.1,2.4-1.8,3.8-4,3.9
		C418.8,169,417.1,167.1,417.2,165z"/>
	<path fill="#CF796D" d="M403.3,141.7c-2.2,0-4-1.7-3.9-3.8c0-2.2,1.8-3.9,4.1-3.9c2,0,3.7,1.9,3.7,4
		C407.1,140.1,405.4,141.7,403.3,141.7z"/>
	<path fill="#B36260" d="M392.3,38.2c-2.1,0-3.8-1.8-3.8-4c0-2,1.8-3.8,3.8-3.8c2.2,0.1,4,1.8,3.9,4
		C396.3,36.6,394.6,38.3,392.3,38.2z"/>
	<path fill="#DEA586" d="M383.4,152c-0.1-2,1.5-3.8,3.8-3.9c2-0.1,4,1.9,3.9,3.9c0,2.1-1.8,4-4,4C385.2,155.9,383.2,154,383.4,152z"
		/>
	<path fill="#5C956F" d="M441.9,59.5c2.2,0,4,1.7,4,3.9c0,2.1-1.7,3.8-3.8,3.8s-3.8-1.7-3.9-3.8C438.2,61.2,439.8,59.5,441.9,59.5z"
		/>
	<path fill="#DBA183" d="M430.6,102.6c0.5,0.1,0.5-0.4,0.7-0.7c1.4-2.7,4.8-2.9,6.6-0.5c1.1,1.5,0.7,3.6-0.4,4.8
		c-1.3,1.4-3.4,1.6-5,0.5c-1-0.7-1.5-1.7-1.6-2.9c0-0.3,0.1-0.7-0.5-0.8C430.4,102.8,430.4,102.7,430.6,102.6z"/>
	<path fill="#E5854A" d="M486.3,79.2c1.5,1.1,2,2.9,1.3,4.5c-0.6,1.6-2.2,2.5-4.1,2.4c-1.5-0.1-2.9-1.3-3.4-2.9
		c-0.3-1.4,0-2.7,1.1-3.7c1.2-1.1,2.6-1.3,4.1-0.8C485.7,78.9,486.1,78.9,486.3,79.2z"/>
	<path fill="#CE766A" d="M444.8,171.3c-2,0-3.8-1.7-3.8-3.8c0-2.1,1.7-3.8,3.8-3.9c2.1-0.1,3.9,1.7,4,3.8
		C448.7,169.5,446.8,171.3,444.8,171.3z"/>
	<path fill="#DAA384" d="M401.5,79.6c0,2.2-1.7,4-4,4c-2-0.1-3.8-1.8-3.8-3.9c0.1-2.1,1.7-3.8,4-3.8
		C399.7,75.9,401.5,77.6,401.5,79.6z"/>
	<path fill="#6E896B" d="M426.1,58.7c0,0.1,0,0.1,0,0.3c-0.4,0-0.5,0.3-0.7,0.6c-1.1,1.6-3.2,2.1-4.9,1.2c-1.7-0.9-2.5-2.8-1.8-4.7
		c0.6-1.7,2.6-2.8,4.5-2.3c1.9,0.5,3.2,2.3,2.9,4.2C426,58.1,425.9,58.4,426.1,58.7z"/>
	<path fill="#E9A942" d="M362.2,118.7c-0.7,0.7-1.5,1.2-2.6,1.4c-1.7,0.3-4.3-1.6-4.2-3.8c0.1-1.9,1.1-3.3,2.9-3.8
		c1.7-0.5,3.4,0.3,4.4,1.9c0.1,0.3,0.2,0.5,0.2,0.8c0.4,0.7,0,1.4,0,2.1c0,0.1,0,0.2,0,0.3C362.7,118.1,362.6,118.5,362.2,118.7z"/>
	<path fill="#6D8B6C" d="M374.6,74.3c-0.4-0.7-0.9-1.3-1-2.1c-0.3-1.6,0.4-3.2,1.9-4.1c1.5-0.9,3.2-0.6,4.6,0.7
		c1.1,1.1,1.5,2.8,0.8,4.3c-1,2-3.4,2.7-5.4,1.7C375.1,74.6,374.9,74.5,374.6,74.3L374.6,74.3z"/>
	<path fill="#E8A943" d="M492.1,52.1c-0.7-2.4-0.1-4.1,1.8-5c2.4-1.2,5.2,0.5,5.4,3.1c0.1,1.7-0.6,2.9-2.1,3.8
		c-1.5,0.7-2.8,0.5-4.1-0.5c-0.2-0.1-0.4-0.3-0.6-0.4C492.2,52.8,492,52.5,492.1,52.1z"/>
	<path fill="#DDA183" d="M406.9,146.5c0.3,0.6,0.7,0.1,0.9,0.1c1.7-0.5,3.2-0.2,4.2,1c1,1.2,1.3,2.8,0.5,4.1
		c-0.7,1.4-2.3,2.3-3.8,2.2c-1.5-0.1-2.9-1.3-3.4-2.8c-0.2-0.7-0.2-1.5,0.1-2.3c0.2-0.3,0.3-0.7,0.3-1.1
		C406,147.1,406.4,146.7,406.9,146.5z"/>
	<path fill="#E6AA49" d="M382.8,80c-0.1,2-1.7,3.6-3.9,3.6c-1.9,0-3.8-1.8-3.7-3.8c0.1-2.2,1.8-3.8,4.1-3.8
		C381.4,76.1,382.9,77.8,382.8,80z"/>
	<path fill="#B0605D" d="M377.4,38.4c-2,0-3.8-1.6-3.8-3.7c-0.1-2.1,1.7-3.9,3.8-3.9s3.8,1.7,3.8,3.8
		C381.2,36.7,379.6,38.4,377.4,38.4z"/>
	<path fill="#718F70" d="M381.8,121.9c-1.9-0.9-2.7-3-1.9-4.9s2.9-2.8,4.8-2.1c1.9,0.7,2.9,2.8,2.2,4.8c-0.7,1.9-2.6,2.9-4.7,2.3
		C382,121.9,381.9,122,381.8,121.9z"/>
	<path fill="#DDA285" d="M458.4,22.4c-0.1-1.9,1.8-3.7,3.9-3.7c2.1,0,3.8,2.1,3.7,3.8c-0.1,2.1-1.7,3.8-4,3.8
		C460.2,26.3,458.2,24.7,458.4,22.4z"/>
	<path fill="#728F72" d="M425.3,138.7c-2.1,0-3.8-1.7-3.8-3.7c0-2.1,1.7-3.8,3.9-3.8c2.1,0,3.8,1.7,3.8,3.7
		C429.2,137.1,427.6,138.7,425.3,138.7z"/>
	<path fill="#DEA284" d="M448.8,173.7c0,0.7,0,1.4,0,2.1c-0.3-0.5-0.1-1-0.1-1.5c0-0.1,0.1-0.3-0.1-0.4c-0.1-0.1-0.3,0.1-0.3,0.2
		c-0.3,0.5-0.7,0.7-1.3,0.8c-0.1,0-0.5-0.1-0.5,0.3c0,0.3,0.3,0.3,0.4,0.3c2.1,1.1,2.5,3.8,0.8,5.4c-2.1,2-4.9,1-5.7-1.4
		c-0.3-0.9-0.2-1.9,0.4-2.7c0.2-0.3,0.5-0.6,0.4-1c0.1-0.5,0.4-0.6,0.8-0.7c0.1,0.4,0.3,0.3,0.6,0.3c0.4-0.1,0.8-0.3,1.2-0.3
		c0.7,0,0.7-0.2,0.3-0.7c-0.6-0.9-0.5-1.8,0.3-2.3c0.9-0.6,2.1-0.1,2.3,1.1C448.3,173.5,448.3,173.8,448.8,173.7z"/>
	<path fill="#B2625E" d="M441.9,149.1c0.7,0,1.3,0,1.9,0.3c1.6,0.7,2.5,2.3,2.3,4.1c-0.2,1.5-1.6,2.9-3.2,3.2
		c-1.5,0.3-3.2-0.7-4-2.2c-0.7-1.4-0.3-3.4,0.9-4.5c0.2-0.1,0.4-0.3,0.6-0.4C440.9,149.2,441.3,148.9,441.9,149.1z"/>
	<path fill="#CE786B" d="M426.2,175.7c-2.1,0-3.8-1.7-3.8-3.8c0-2,1.8-3.8,3.9-3.8s3.7,1.6,3.7,3.8
		C430,174.1,428.3,175.7,426.2,175.7z"/>
	<path fill="#E6864B" d="M448.3,108.5c1.4,0.7,2.1,2.5,1.8,3.8c-0.5,2.1-1.6,3-3.7,3.2c-1.6,0.1-2.9-0.9-3.6-2.4
		c-0.5-1.5-0.3-2.7,0.7-3.8c1.1-1.1,2.4-1.5,4-1C447.9,108.3,448.2,108.3,448.3,108.5z"/>
	<path fill="#E5AA47" d="M380.5,125.5c0.1,0.7,0.7,1.3,0.9,2c0.4,1.8-0.7,3.9-2.5,4.4c-2.1,0.6-4-0.5-4.7-2.3
		c-0.7-1.8,0.6-4.4,2.5-4.8c0.2-0.1,0.5-0.1,0.5-0.4c0.1-0.1,0.3-0.1,0.5,0c0.7,0.5,1.6,0.5,2.3,0.9
		C380.3,125.2,380.5,125.2,380.5,125.5z"/>
	<path fill="#E7A745" d="M444.1,51.4c0,2.1-1.6,3.7-3.7,3.8c-2.3,0.1-3.8-2-3.8-3.8c0-2,1.7-3.8,3.7-3.8
		C442.4,47.6,444.1,49.3,444.1,51.4z"/>
	<path fill="#E9AB48" d="M390.4,156.1c2.3-0.1,3.8,1.7,3.8,3.9c-0.1,2-1.7,3.6-3.8,3.6c-2.1,0-3.8-1.7-3.8-3.7
		C386.7,157.8,388.3,156,390.4,156.1z"/>
	<path fill="#CD756A" d="M401,168.3c-2.1-0.1-3.9-1.8-3.8-3.8c0.1-1.9,1.9-3.6,3.9-3.6c1.9,0,3.6,1.8,3.6,3.8
		C404.7,166.5,402.9,168.3,401,168.3z"/>
	<path fill="#B05D5B" d="M424.4,23.8c0-2.1,1.5-3.7,3.6-3.8c2-0.1,3.7,1.6,3.8,3.6c0,2.1-1.5,3.8-3.5,3.8
		C426.1,27.5,424.5,25.9,424.4,23.8z"/>
	<path fill="#6B8A6B" d="M405.7,59.8c0,2-1.7,3.7-3.6,3.7c-2.1,0-3.8-1.7-3.8-3.7c0-2.1,1.7-3.8,3.8-3.7
		C404.1,56.1,405.7,57.8,405.7,59.8z"/>
	<path fill="#CC776B" d="M441.9,149.1c-0.5,0.1-0.9,0.3-1.4,0.5c0.1-0.6-0.3-0.4-0.6-0.4c-2.9-0.1-4.6-3.1-3.1-5.6
		c0.7-1.1,1.7-1.6,3-1.7c0.3,0,0.7,0.1,0.8-0.3c0.7,0.1,1.3,0.3,1.9,0.8c-0.3,0.3-0.1,0.4,0.1,0.6c1.4,1.8,1.3,3.8-0.3,5.3
		C442,148.5,441.7,148.7,441.9,149.1z"/>
	<path fill="#E7A646" d="M478.6,54.3c0,1.1-0.8,1.7-1.7,1.1c-0.5-0.3-0.7-0.1-0.8,0.3c-0.5,0.9-1.1,1.5-2.1,1.9
		c-1.8,0.6-3.9-0.4-4.5-2.2c-0.1-0.3-0.1-0.6-0.5-0.7c-0.2-0.2-0.2-0.3,0-0.5c0.4-0.1,0.3-0.4,0.4-0.6c0.4-1.6,1.6-2.6,3.2-2.7
		c1.5-0.1,3,0.9,3.5,2.3c0.1,0.5,0.3,0.7,0.8,0.3c0.3-0.2,0.6-0.1,0.9-0.1C478.3,53.6,478.6,53.8,478.6,54.3z"/>
	<path fill="#DCA184" d="M401.5,18c0-0.5,0-0.9,0-1.3c0.2,0.1,0.1,0.5,0.3,0.5c0.3,0,0.3-0.3,0.4-0.5c0.5-1.5,2.3-2.6,4.2-2.2
		c1.7,0.4,3,1.9,2.9,3.8c-0.1,1.6-0.9,2.7-2.4,3.3c-1.3,0.5-2.5,0.2-3.6-0.7c-0.7-0.6-1.1-1.4-1.3-2.3
		C401.9,18.1,401.9,17.9,401.5,18z"/>
	<path fill="#B2625D" d="M474.4,132.1c0,2.1-1.5,3.6-3.6,3.6s-3.8-1.6-3.8-3.5c0-2,1.7-3.8,3.7-3.8
		C472.8,128.5,474.3,130,474.4,132.1z"/>
	<path fill="#E7A245" d="M431.2,35.5c-0.3-0.1-0.5,0.1-0.7,0.3c-1.1,0.9-2.7,1.1-3.9,0.3c-1.3-0.7-2.1-1.7-2-3.3
		c0.1-1.7,1-2.9,2.5-3.4c2.5-0.7,4.5,0.8,4.7,3.6c0,0.3-0.1,0.6,0.3,0.7C432,34.4,431.7,35,431.2,35.5z"/>
	<path fill="#DA9E80" d="M417.1,29.2c2.2,0.1,3.6,1.7,3.6,3.6c0.1,2.3-1.4,3.6-3.6,3.8c-2.3,0.1-3.8-1.9-3.8-3.8
		C413.3,31.2,415.1,29.1,417.1,29.2z"/>
	<path fill="#B3615E" d="M482.4,38c0,2.1-1.6,3.6-3.7,3.6c-2-0.1-3.6-1.7-3.6-3.8c0.1-1.9,1.7-3.6,3.8-3.5
		C480.8,34.5,482.4,36.1,482.4,38z"/>
	<path fill="#609770" d="M443,99c-0.8,0.6-1.7,1.1-2.7,1.1c-1.5-0.1-2.7-0.8-3.3-2.2s-0.3-2.9,0.8-4c1.1-1.1,2.5-1.4,3.9-0.8
		c1.7,0.7,2.6,2.5,2.1,4.4c-0.1,0.3-0.1,0.5-0.2,0.8C443.5,98.6,443.4,98.9,443,99z"/>
	<path fill="#DCA184" d="M456.2,32.4c0.5,0.7,1.2,1.3,1.9,1.9c-0.3,0.3-0.1,0.6-0.1,0.9c0.5,2.1-0.9,3.8-2.7,4.3
		c-1.6,0.4-3.9-0.5-4.3-2.7c-0.3-1.5,0.5-3.2,1.8-3.9c0.2-0.1,0.7-0.1,0.6-0.4c-0.1-0.4-0.5-0.1-0.7-0.2c-0.1-0.1-0.3-0.1-0.4-0.1
		c0.4-0.3,0.9-0.3,1.3,0C453.9,32.5,455.8,32.8,456.2,32.4z"/>
	<path fill="#DEA687" d="M390.6,129.9c2.3-0.1,3.6,1.9,3.6,3.6c0,1.8-1.8,3.6-3.6,3.6c-1.9,0-3.6-1.7-3.6-3.7
		C386.9,131.5,388.6,129.8,390.6,129.9z"/>
	<path fill="#E8A745" d="M480.4,99.6c-0.1,0.3-0.3,0.6-0.4,0.9c-0.3-0.6-0.4-0.1-0.6,0.1c-0.7,0.8-1.4,1.3-2.5,1.5
		c-1.7,0.3-3.6-0.9-4-2.5c-0.5-1.9,0.5-3.7,2.2-4.3c2.6-0.9,5.2,1.3,4.8,3.8C480.1,99.2,479.9,99.6,480.4,99.6z"/>
	<path fill="#E8A641" d="M444.2,18c-0.3,0.3-0.7,0.5-0.9,0.8c-0.9,0.5-1.8,0.3-2.7,0.3c0-0.3-0.3-0.4-0.5-0.5
		c-2.5-1.5-2.6-4.8-0.4-6.3c1.1-0.8,2.4-0.8,3.6-0.1c1.2,0.7,1.9,1.7,1.9,3c0,0.5,0,0.9-0.2,1.3C444.8,17,444.9,17.7,444.2,18z"/>
	<path fill="#CE786D" d="M360.5,67c-2,0-3.6-1.6-3.6-3.6c0-2,1.6-3.6,3.7-3.6c2,0,3.6,1.6,3.6,3.6C364.1,65.6,362.4,67.1,360.5,67z"
		/>
	<path fill="#E58549" d="M479.6,136.2c-1.9,0-3.6-1.6-3.6-3.5c0-2,1.6-3.6,3.6-3.6c2,0,3.6,1.6,3.6,3.7
		C483.3,134.7,481.7,136.2,479.6,136.2z"/>
	<path fill="#E5854D" d="M408.4,157.1c0,1.7-1.3,3.5-3.6,3.5c-1.9,0-3.6-1.8-3.6-3.6c0.1-1.9,1.7-3.6,3.6-3.6
		C406.8,153.5,408.4,155.1,408.4,157.1z"/>
	<path fill="#DFA586" d="M406.1,129.7c0-1.9,1.6-3.6,3.6-3.6c2.2,0.1,3.7,1.6,3.7,3.6c0,2.1-1.3,3.4-3.6,3.6
		C407.6,133.3,406,131.3,406.1,129.7z"/>
	<path fill="#E4874B" d="M395.5,143.6c-2.1,0-3.6-1.5-3.5-3.7c0-1.8,1.7-3.4,3.6-3.4c2,0,3.6,1.6,3.6,3.6
		C399.2,142.1,397.6,143.6,395.5,143.6z"/>
	<path fill="#EAAD43" d="M462.8,171.8c0.3-0.3,0.1-0.5-0.1-0.8c-0.7-2.1,0-4,2.1-4.7c1.8-0.7,3.6,0.1,4.6,2c0.6,1.3,0,3.2-1.3,4.1
		c-1.3,1-3.1,1-4.3,0.1c-0.3-0.2-0.5-0.5-0.8-0.4C462.9,172.1,462.8,172,462.8,171.8z"/>
	<path fill="#B3625D" d="M478.2,116.5c-1.9,0-3.6-1.5-3.6-3.3c0-2.1,1.5-3.7,3.6-3.7c2,0,3.6,1.5,3.6,3.4
		C481.7,115,480.2,116.4,478.2,116.5z"/>
	<path fill="#CD766B" d="M478.6,54.3c-0.2-0.4-0.7-0.5-0.8-0.9c0.3-0.3,0-0.5-0.1-0.8c-0.7-1.5-0.2-3.4,1.2-4.3
		c1.5-1,3.5-0.7,4.6,0.5c1.3,1.3,1.2,3.1,0.4,4.3c-1.1,1.6-2.8,2.1-4.5,1.4C479.3,54.3,479,54,478.6,54.3z"/>
	<path fill="#B56460" d="M356.3,124.8c-0.1-1.9,1.5-3.5,3.4-3.6c2.1-0.1,3.7,1.4,3.7,3.4c0.1,2-1.5,3.6-3.5,3.7
		C358,128.4,356.4,126.8,356.3,124.8z"/>
	<path fill="#E7A440" d="M429.6,70.1c1.9,0,3.4,1.5,3.4,3.6c0,1.9-1.6,3.5-3.6,3.5c-1.9,0-3.6-1.7-3.6-3.6
		C425.9,71.5,427.5,70.1,429.6,70.1z"/>
	<path fill="#B3645F" d="M419.6,143.1c0.7-2.6,3-3.3,4.8-2.7c1.5,0.5,2.5,2,2.4,3.8c-0.1,1.3-1.4,2.7-2.7,3
		c-2.1,0.5-4.3-0.9-4.5-3.4C419.5,143.6,419.5,143.3,419.6,143.1z"/>
	<path fill="#CD766B" d="M366.4,137.4c0,2-1.6,3.5-3.6,3.5c-1.9,0-3.6-1.7-3.6-3.6c0.1-1.9,1.7-3.6,3.7-3.5
		C364.9,133.8,366.5,135.4,366.4,137.4z"/>
	<path fill="#6D8B6D" d="M453.1,66.6c0,1.9-1.5,3.6-3.5,3.5c-1.9,0-3.5-1.6-3.5-3.6c0-2,1.5-3.6,3.6-3.6
		C451.5,63,453.1,64.7,453.1,66.6z"/>
	<path fill="#CF7A6F" d="M496.7,135.1c0-2,1.5-3.6,3.4-3.6c1.9,0,3.5,1.5,3.6,3.6c0,1.8-1.7,3.4-3.6,3.4
		C498.3,138.6,496.7,137,496.7,135.1z"/>
	<path fill="#E5AB49" d="M415.5,132.1c-1.6-1.1-1.6-3.6-0.6-4.8c1.4-1.7,3.5-1.9,5-0.6c1.3,1.1,1.7,3.1,0.7,4.6
		c-0.9,1.4-2.7,1.9-4.4,1.3c-0.1-0.1-0.3-0.1-0.4-0.1C415.7,132.3,415.6,132.1,415.5,132.1z"/>
	<path fill="#6C8A6A" d="M469,54.2c0,0.2,0,0.3,0,0.5c-0.3,2.3-1.8,3.7-3.9,3.6c-1.9-0.1-3.4-1.9-3.1-3.8c0.3-2.1,2.1-3.5,4.1-3
		c1.3,0.3,2.3,1.1,2.7,2.3C468.8,54,469,54.1,469,54.2z"/>
	<path fill="#B56461" d="M426.7,162c-2.6,0.5-5-2.1-4-4.6c0.5-1.3,1.7-2.2,3.2-2.3c1.3-0.1,2.7,0.8,3.3,1.9c0.6,1.3,0.5,2.6-0.5,3.8
		c-0.3,0.4-0.7,0.7-1.1,0.9C427.3,162,427,161.8,426.7,162z"/>
	<path fill="#609873" d="M458.8,82.9c1.8,0,3.4,1.5,3.4,3.3c0,1.9-1.6,3.6-3.4,3.6c-1.9,0-3.6-1.5-3.6-3.4
		C455.2,84.5,456.8,82.9,458.8,82.9z"/>
	<path fill="#6D8B6C" d="M410.6,70.3c-0.1-0.3-0.4-0.3-0.6-0.5c-0.7-0.5-0.9-1.3-0.7-2.1c0.3-0.7,1.1-1.2,1.8-1.1
		c0.8,0.1,1.5,0.7,1.5,1.5c0.1,0.8-0.5,1.6-1.2,1.9c-0.2,0.1-0.6,0-0.6,0.3c-0.1,0.3,0.3,0.3,0.6,0.4c1.3,0.7,1.9,2,1.7,3.4
		c-0.3,1.2-1.4,2.1-2.7,2.2c-1.3,0.1-2.5-0.7-3-2c-0.6-1.7,0.7-3.7,2.5-3.9C410.2,70.4,410.4,70.5,410.6,70.3z"/>
	<path fill="#AF5E5B" d="M464.8,50.3c-2.1-0.1-3.6-1.6-3.4-3.6c0.1-1.9,1.7-3.4,3.6-3.3c1.9,0.1,3.4,1.7,3.2,3.7
		C468.2,49,466.6,50.5,464.8,50.3z"/>
	<path fill="#CE786D" d="M487.7,127.5c1.9,0,3.4,1.5,3.4,3.4c0,1.9-1.5,3.4-3.4,3.4c-2,0-3.6-1.5-3.6-3.4
		C484.1,129,485.7,127.5,487.7,127.5z"/>
	<path fill="#729071" d="M371.4,136.1c0.3-1,0.7-1.9,1.7-2.4c1.4-0.7,3-0.4,4,0.9c0.9,1.1,0.7,2.7-0.3,3.9c-0.3,0.4-0.7,0.7,0.2,0.8
		c1,0.1,1.5,1,1.2,1.9c-0.3,0.7-1.1,1.1-1.9,0.9c-0.9-0.3-1.2-1.3-0.7-2.1c0.1-0.1,0.3-0.3,0.2-0.6c-1.9,0.6-3.3-0.1-4.3-1.8
		C371.2,137,371,136.6,371.4,136.1z"/>
	<path fill="#CD7A6F" d="M395,89.8c0,1.9-1.5,3.4-3.4,3.4c-1.9,0-3.5-1.5-3.5-3.5c0-1.8,1.6-3.4,3.4-3.4
		C393.6,86.5,395,87.9,395,89.8z"/>
	<path fill="#DEA485" d="M504.6,123.7c1.9,0,3.6,1.7,3.4,3.5c-0.1,1.9-1.7,3.4-3.4,3.4c-1.9,0-3.5-1.3-3.5-3.4
		C501.2,125.2,502.7,123.6,504.6,123.7z"/>
	<path fill="#5F9772" d="M442.5,142.4c-0.7-0.1-1.3-0.3-1.9-0.8c-0.9-1.2-1.3-2.5-0.7-4c0.4-0.9,1-1.6,2.1-1.8
		c0.7-0.2,1.3,0,1.9-0.1c0.3-0.1,0.5,0.3,0.8,0.5c1.3,0.8,1.9,2.5,1.5,4C445.7,141.6,444.2,142.6,442.5,142.4z"/>
	<path fill="#B05F5B" d="M374.6,52c-2.6,0.1-4.2-2.2-3.6-4.5c0.5-1.5,1.9-2.4,3.4-2.3s2.8,1.1,3.2,2.5c0.4,1.7-0.3,3.2-1.7,3.9
		c-0.1,0.1-0.3,0.1-0.5,0.2C375.1,52,374.9,52.1,374.6,52z"/>
	<path fill="#E6864A" d="M369.6,95.3c0.1-1.6,1.2-3.5,3.5-3.4c2,0.1,3.2,1.5,3.4,3.4c0.1,1.7-1.5,3.5-3.2,3.4
		C371.1,98.6,369.8,97.3,369.6,95.3z"/>
	<path fill="#B76562" d="M456.3,170.9c-0.3-0.1-0.5-0.3-0.7-0.5c-1.9-1.7-1.5-4.4,0.4-5.6c1.1-0.7,2.7-0.6,3.8,0.1
		c1.1,0.8,1.7,2.3,1.3,3.6c-0.4,1.4-1.5,2.4-2.9,2.5C457.5,171.2,456.9,171.2,456.3,170.9z"/>
	<path fill="#9EA868" d="M414.1,56.2c0,1.9-1.5,3.4-3.6,3.4c-1.6,0-3.2-1.6-3.2-3.2c0-1.9,1.5-3.6,3.3-3.6
		C412.5,52.8,414.1,54.4,414.1,56.2z"/>
	<path fill="#E7854B" d="M405.2,103.6c0.6-1.3,2.1-2,3.6-1.7c1.3,0.2,2.5,1.4,2.7,2.7c0.2,1.6-0.5,3-2.1,3.7
		c-1.3,0.5-2.9,0.2-3.9-0.9c-0.9-1.1-1.1-2.2-0.5-3.5C405,103.6,405.1,103.6,405.2,103.6z"/>
	<path fill="#CE7A6E" d="M487.8,98.7c-0.3-0.2-0.5-0.4-0.7-0.7c0.7-0.2,0.1-0.5,0.1-0.7c-1.1-2.1,0.4-4.8,2.8-4.9
		c1.4-0.1,2.6,0.7,3.2,1.9c0.6,1.4,0.3,2.8-0.7,3.8c-1,0.9-2.5,1.2-3.7,0.6C488.4,98.7,488.1,98.3,487.8,98.7z"/>
	<path fill="#DDA184" d="M490.3,121.1c0,1.9-1.5,3.4-3.3,3.4c-1.9,0-3.4-1.5-3.5-3.4c-0.1-1.7,1.5-3.4,3.5-3.4
		C488.5,117.7,490.6,119.2,490.3,121.1z"/>
	<path fill="#CE796E" d="M359.6,73.2c0,1.9-1.5,3.3-3.4,3.3c-1.7,0-3.4-1.6-3.4-3.4c0-1.7,1.7-3.4,3.4-3.4
		C358.1,69.8,359.6,71.4,359.6,73.2z"/>
	<path fill="#DCA082" d="M444.4,47.5c0.1-1.8,1.4-3.3,3.3-3.2c1.9,0,3.4,1.5,3.4,3.5c0,1.5-1.4,3.2-3.6,3.2
		C445.8,50.9,444.3,49.3,444.4,47.5z"/>
	<path fill="#DDA182" d="M431.9,48.1c1.7,0,3.2,1.4,3.2,3.2c0,1.7-1.5,3.5-3.2,3.4c-2.1-0.1-3.4-1.3-3.5-3.4
		C428.5,49.3,430.2,48,431.9,48.1z"/>
	<path fill="#CE796D" d="M395.2,30.2c-1.7,0-3.2-1.4-3.3-3.2c-0.1-1.9,1.4-3.4,3.3-3.4c1.7,0,3.3,1.5,3.3,3.3
		C398.6,28.7,397.2,30.2,395.2,30.2z"/>
	<path fill="#718F70" d="M398.6,100.6c-1.9-0.1-3.3-1.5-3.2-3.3c0.1-1.9,1.6-3.3,3.5-3.2c1.7,0.1,3.2,1.5,3.1,3.4
		C401.9,99.2,400.4,100.6,398.6,100.6z"/>
	<path fill="#E8A945" d="M391.3,51.4c-0.1,0.2-0.1,0.4-0.1,0.7c-0.6,0.6-0.9,1.5-1.7,1.9c-1.3,0.7-3,0.5-4.1-0.6
		c-1.1-1.1-1.1-2.9-0.2-4.2c0.9-1.1,2.7-1.5,4-0.9c1,0.5,1.7,1.3,1.8,2.5C391,50.9,391.1,51.1,391.3,51.4z"/>
	<path fill="#CC766A" d="M431.8,126.8c1.9,0,3.4,1.5,3.3,3.3c-0.1,1.9-1.7,3.3-3.4,3.2c-1.7-0.1-3.2-1.5-3.2-3.2
		C428.5,128.3,430,126.8,431.8,126.8z"/>
	<path fill="#B2615E" d="M412.3,35.6c0,1.8-1.4,3.2-3.4,3.2c-1.7,0-3.1-1.5-3.1-3.2c0-1.8,1.4-3.2,3.2-3.2
		C410.9,32.2,412.3,33.7,412.3,35.6z"/>
	<path fill="#6E8C6E" d="M424.9,124.1c1.8,0,3.4,1.5,3.2,3.3c-0.1,2.1-1.7,3.2-3.3,3.2c-1.7,0-3.3-1.6-3.2-3.4
		C421.6,125.5,423.1,124.1,424.9,124.1z"/>
	<path fill="#DEA586" d="M413.3,90.2c-1.6,0-3.3-1.7-3.3-3.2c0-1.7,1.7-3.5,3.4-3.4c1.9,0.2,3.2,1.2,3.2,3.2
		C416.6,88.6,415,90.2,413.3,90.2z"/>
	<path fill="#E5864B" d="M343.9,94.4c0.5-0.4,1.2-0.3,1.8-0.3c1.4,0.1,2.3,0.9,2.7,2.1c0.4,1.1,0.2,2.1-0.5,3.1
		c-0.2,0.3-0.7,0.5-0.7,0.9c0,0.3-0.2,0.3-0.4,0.3c-0.1-0.5-0.4-0.2-0.6-0.1c-2.1,0.5-4.2-1.2-4-3.4
		C342.2,95.8,342.8,94.9,343.9,94.4z"/>
	<path fill="#E68348" d="M431.2,35.5c0.1-0.7,0.5-1.3,0.9-1.7c1.1-1.1,2.9-1.3,4.2-0.3c1.3,1,1.7,2.8,0.9,4.2
		c-0.7,1.3-2.5,1.9-4,1.3C431.6,38.4,431.2,37.6,431.2,35.5z"/>
	<path fill="#E5854C" d="M379.9,113.4c0.1,1.4-1.1,3.1-3.1,3.2c-1.9,0.1-3.4-1.4-3.4-3.3c0-1.7,1.5-3.2,3.3-3.2
		C378.7,110.1,379.9,111.4,379.9,113.4z"/>
	<path fill="#6D8C6D" d="M464.8,86.7c-1.2-0.3-2.1-1-2.4-2.3c-0.5-1.8,0.6-3.6,2.4-4.1c1.7-0.4,3.4,0.8,3.8,2.5
		c0.4,1.7-0.7,3.4-2.7,3.8C465.6,86.7,465.2,86.9,464.8,86.7z"/>
	<path fill="#DBA083" d="M427.1,150.9c0,1.9-1.3,3.2-3.2,3.2c-1.8,0-3.1-1.3-3.2-3.2c-0.1-1.6,1.5-3.2,3.1-3.2
		C425.6,147.6,427.2,149.2,427.1,150.9z"/>
	<path fill="#E9AA46" d="M358.5,89.2c0.5-1.1,1.3-1.9,2.5-2.2c1.7-0.4,3.3,0.6,3.8,2.5c0.4,1.4-0.7,3.2-2.1,3.6
		c-1.9,0.7-4.5-0.8-4.2-3.6C358.4,89.4,358.4,89.3,358.5,89.2z"/>
	<path fill="#CE786D" d="M364.9,49.9c-0.1,0.3,0,0.4,0.1,0.6c0.1,0.6-0.1,1.1-0.7,1.4c-0.5,0.3-1,0.3-1.5-0.2
		c-0.5-0.4-0.5-0.9-0.3-1.5c0.3-0.6,0.7-0.8,1.4-0.7c0.9,0.1,0.9,0.1,0.5-0.7c-0.5-1.4,0-2.9,1.2-3.6c1.2-0.7,2.7-0.4,3.6,0.7
		c0.9,1.1,0.9,2.6,0.1,3.6c-1,1.2-2.5,1.5-3.8,0.7C365.3,50.1,365.1,49.8,364.9,49.9z"/>
	<path fill="#708E70" d="M461.6,132.1c-0.3,0.1-0.5,0.3-0.9,0.3c-1,0.1-1.9-0.1-2.7-0.8c-1-0.9-1.4-2.4-0.8-3.6
		c0.7-1.4,2.2-2.1,3.8-1.8c1.3,0.3,2.3,1.5,2.3,2.9C463.3,130.4,462.7,131.3,461.6,132.1z"/>
	<path fill="#B2605C" d="M384.6,77.7c-1.9,0-3.2-1.3-3.3-3.2c-0.1-1.7,1.5-3.1,3.2-3.1c1.7,0,3.2,1.4,3.2,3.2
		C387.8,76.3,386.4,77.7,384.6,77.7z"/>
	<path fill="#E7A948" d="M368.8,64.1c0.1-0.1,0.2-0.1,0.3-0.2c0.9-1.8,2.3-2.1,3.8-1.8c1.3,0.2,2.6,2.1,2.3,3.6
		c-0.3,1.2-1,2.1-2.2,2.5c-1.2,0.3-2.4,0.1-3.3-0.9c-0.7-0.8-1-1.7-0.9-2.7C368.9,64.4,369,64.2,368.8,64.1L368.8,64.1z"/>
	<path fill="#CE776C" d="M344.5,128c-1.7-0.1-3.1-1.3-3.2-3.2c0-1.9,1.5-3.3,3.3-3.2c1.7,0.1,3.2,1.5,3.1,3.2
		C347.7,126.6,346.2,128,344.5,128z"/>
	<path fill="#CD776A" d="M450.9,126.1c-0.1,1.7-1.5,3-3.2,2.9c-1.9-0.1-3.2-1.4-3.2-3.2c0.1-1.7,1.6-3.2,3.3-3.2
		C449.6,122.8,450.9,124.3,450.9,126.1z"/>
	<path fill="#E7854B" d="M462.4,144.1c0.5-1.3,1.7-2.2,2.9-2.2c1.5,0,2.7,0.8,3.2,2.1s0.2,2.4-0.8,3.3c-1,0.9-2.1,1.1-3.4,0.6
		c-1.2-0.5-1.9-1.5-1.9-2.8c0-0.1,0-0.3,0-0.4C462.1,144.4,462.3,144.3,462.4,144.1z"/>
	<path fill="#DBA183" d="M432.4,78.6c0.5-0.1,0.3-0.5,0.3-0.9c-0.1-1.4,0.9-2.8,2.3-3.2c1.4-0.3,3.1,0.5,3.7,1.9
		c0.5,1.3,0.1,2.9-1.1,3.7c-1.1,0.8-2.7,0.9-3.6-0.1c-0.7-0.7-0.9-0.3-1.1,0.3C432.4,79.8,432.5,79.2,432.4,78.6z"/>
	<path fill="#738F71" d="M469.6,112.6c1.7-0.1,3.1,1.3,3.2,2.9c0.1,1.8-1.3,3.2-3.2,3.3c-1.7,0-3.2-1.4-3.2-3.1
		C466.5,113.9,467.8,112.6,469.6,112.6z"/>
	<path fill="#E8A946" d="M367.5,81c-0.4,0.4-0.7,0.8-1.1,1.3c-0.5,0.3-1.1,0.4-1.7,0.4c-0.2,0-0.5-0.1-0.5,0.3
		c-0.1,0.1-0.1,0.1-0.2,0c0.1-0.4-0.3-0.5-0.5-0.6c-1.5-0.8-2.1-2.5-1.4-4.2c0.5-1.1,2.5-2,3.7-1.5c1.6,0.6,2.6,2.1,2.1,3.8
		C367.7,80.6,367.7,80.8,367.5,81z"/>
	<path fill="#B4635F" d="M452.1,155.5c-1.7,0-3-1.3-3.1-2.9c0-1.9,1.3-3.2,3.1-3.3c1.6,0,3,1.3,3.1,2.9
		C455.2,154.3,454,155.5,452.1,155.5z"/>
	<path fill="#E9A843" d="M444.3,122.1c-1.7,0-2.9-1.3-3-3.1c-0.1-1.7,1.4-3,3.1-3s3.2,1.5,3.1,3.1
		C447.5,120.7,446,122.1,444.3,122.1z"/>
	<path fill="#CC7569" d="M417.4,144.9c1.7,0,3.1,1.3,3.1,3c0,1.7-1.4,3.2-3.1,3.2c-1.7-0.1-3.1-1.4-3.1-3
		C414.3,146.2,415.7,144.9,417.4,144.9z"/>
	<path fill="#B1605B" d="M357.1,107.7c0-0.1,0.1-0.1,0.1-0.2c0.7-1.5,1.8-2.1,3.4-1.8c1.3,0.1,2,0.9,2.4,2.1c0.4,1.2,0,2.1-0.9,3
		c-0.9,0.9-2.1,1.1-3.3,0.6c-1.1-0.5-1.7-1.3-1.8-2.5C357,108.5,357.1,108.1,357.1,107.7z"/>
	<path fill="#B5635F" d="M503.3,108.2c1.7,0,2.9,1.3,2.9,3c0,1.7-1.3,3-2.9,3c-1.7,0-3-1.3-3-2.9
		C500.3,109.5,501.6,108.2,503.3,108.2z"/>
	<path fill="#DDA384" d="M341.2,77.6c1.7,0,3,1.3,2.9,3c-0.1,1.7-1.2,3-2.9,3c-2,0-3.1-1.5-3.1-2.9C338,78.9,339.7,77.6,341.2,77.6z
		"/>
	<path fill="#AF5E5A" d="M400.3,72.1c0,1.6-1.3,2.9-3,2.9s-3.1-1.3-3.1-2.9c0-1.6,1.4-3,3.2-3C399,69,400.3,70.4,400.3,72.1z"/>
	<path fill="#B1605C" d="M351.3,82.3c0,1.6-1.3,2.9-2.9,3c-1.6,0-3-1.4-3-3.1c0-1.6,1.4-3,2.9-3C349.9,79.1,351.3,80.5,351.3,82.3z"
		/>
	<path fill="#DBA083" d="M403.1,33c0,1.7-1.3,3-2.9,3c-1.7,0-3.2-1.4-3.2-3c0-1.6,1.4-3,3-3C401.7,30,403.2,31.4,403.1,33z"/>
	<path fill="#E7864D" d="M471.2,165.4c-1.7,0-2.9-1.3-2.9-3.1c0-1.6,1.3-2.8,3.1-2.7c1.7,0,2.9,1.3,2.9,2.9S473.1,165.4,471.2,165.4
		z"/>
	<path fill="#DCA083" d="M485.9,91.3c-0.3-0.4-0.6-0.9-0.9-1.3c0.5-0.1,0.3-0.5,0.3-0.9c-0.1-1.1,0.3-2.1,1.1-2.8
		c0.9-0.7,2-0.8,3.1-0.3c1.3,0.7,2,2.4,1.5,3.7c-0.7,1.6-2.1,2.2-3.8,1.7C486.7,91.4,486.4,90.9,485.9,91.3z"/>
	<path fill="#DEA183" d="M499.6,93.7c0.3-0.2,0.5-0.4,0.8-0.6c0.1,0.6,0.5,0.3,0.8,0.1c1.8-0.5,3.6,0.7,3.8,2.7
		c0.1,1.4-1.1,2.7-2.7,3c-1.2,0.2-2.7-0.9-3-2.3c-0.2-0.8-0.1-1.6,0.4-2.3C499.9,94.2,500.2,93.9,499.6,93.7z"/>
	<path fill="#708D6E" d="M469.2,109.1c0-1.6,1.3-2.9,3-2.9c1.5,0,2.9,1.3,2.9,2.8c0,1.6-1.3,2.9-2.9,2.9
		C470.6,112,469.2,110.6,469.2,109.1z"/>
	<path fill="#DCA083" d="M437.8,160.8c0-1.6,1.4-2.9,2.9-3c1.5-0.1,2.9,1.5,2.9,3.1c0,1.5-1.4,2.9-2.9,2.9
		C439.1,163.7,437.8,162.4,437.8,160.8z"/>
	<path fill="#A2AC6D" d="M388.7,127.6c-0.1,2-1.6,3-3,3c-1.5,0-2.9-1.5-2.9-3c0.1-1.6,1.4-2.9,3.1-2.8
		C387.7,124.9,388.5,126.2,388.7,127.6z"/>
	<path fill="#E78249" d="M485.5,111.6c1.6,0.3,2.5,1.5,2.3,3.3c-0.1,1.3-1.3,2.3-2.7,2.3c-1.5,0-2.8-1.1-2.9-2.5
		c-0.2-1.5,0.7-2.8,2.3-3.2C484.7,111.3,485.1,111.5,485.5,111.6z"/>
	<path fill="#769173" d="M444.8,136c-0.9-0.5-1.8-0.3-2.7-0.3c0.3-0.3,0.6-0.1,0.9-0.2c0.2-0.1,0.5,0.1,0.7-0.1
		c0.1-0.3-0.2-0.4-0.3-0.5c-1.2-1.2-1.2-3,0-4.2c0.8-0.8,2.1-1.1,3.2-0.5c0.9,0.5,1.7,1.6,1.6,2.7c-0.1,1.2-0.9,2.3-2,2.5
		c-0.3,0.1-0.6,0.1-0.9,0.2C444.7,135.6,444.7,135.8,444.8,136z"/>
	<path fill="#E6864C" d="M373.6,31.2c0,1.6-1.3,2.9-2.9,2.9c-1.5-0.1-2.7-1.3-2.8-2.9c0-1.5,1.4-2.8,2.9-2.8
		C372.4,28.3,373.6,29.6,373.6,31.2z"/>
	<path fill="#DB9F81" d="M488.7,51.9c0-0.5-0.3-0.3-0.6-0.3c-1.3,0.3-2.3-0.3-3.1-1.3c-0.6-0.9-0.5-2.3,0.3-3.2c0.7-0.9,2-1.3,3-1
		c2.1,0.7,2.7,3.2,1.3,4.8c-0.2,0.2-0.4,0.4-0.3,0.7C489.1,52,488.9,52,488.7,51.9z"/>
	<path fill="#B3635F" d="M499.8,121.5c-1.3,1.1-2.9,1.1-4,0c-1.1-1.1-1.1-2.9-0.1-4.1c0.8-0.9,2.3-1.1,3.5-0.5
		c1.2,0.6,1.7,1.9,1.3,3.4c-0.1,0.1-0.1,0.3-0.1,0.4C500.3,121,500.1,121.3,499.8,121.5z"/>
	<path fill="#CD776B" d="M483.5,75.8c0,1.6-1.2,2.8-2.7,2.8c-1.5,0-2.9-1.3-2.9-2.8c0-1.6,1.2-2.8,2.8-2.8
		C482.4,72.9,483.5,74.1,483.5,75.8z"/>
	<path fill="#DDA285" d="M398.2,174.6c-1.5,0-2.8-1.3-2.8-2.9c0-1.5,1.3-2.8,2.9-2.8c1.5,0,2.9,1.3,2.9,2.7
		C401.1,173.4,399.5,174.6,398.2,174.6z"/>
	<path fill="#9EA869" d="M419.8,52c0,1.6-1.2,2.8-2.7,2.8c-1.5,0-2.9-1.3-2.9-2.9c0-1.5,1.5-2.9,2.9-2.7
		C418.6,49.1,420,50.3,419.8,52z"/>
	<path fill="#D8A081" d="M458.4,71.9c0-1.5,1.2-2.7,2.7-2.7c1.6,0,2.9,1.3,2.9,2.9c0,1.5-1.3,2.9-2.8,2.8
		C459.7,74.7,458.4,73.7,458.4,71.9z"/>
	<path fill="#E5854D" d="M421.6,66.8L421.6,66.8c0.5-0.3,0.7-0.9,1.2-1.1c0.4-0.2,0.7-0.5,1.2-0.5c0.3-0.2,0.7-0.3,1,0
		c1.5,0.2,2.6,1.7,2.1,3.5c-0.5,1.7-2.1,2.4-3.8,1.8c-0.9-0.3-1.7-1.3-1.7-2.3C421.5,67.8,421.7,67.3,421.6,66.8z"/>
	<path fill="#E8A745" d="M375.5,103.7c-0.5,0.5-0.5,1.1-0.5,1.7c-0.3-0.3-0.5-0.1-0.6,0.1c-0.9,1-1.9,1.1-3.1,0.7
		c-1.2-0.4-1.9-1.4-1.8-2.7c0-0.2-0.1-0.4-0.3-0.4c0.1-0.1,0.1-0.3,0.1-0.4c0.3,0,0.4-0.2,0.5-0.4c0.7-1.1,1.7-1.6,2.9-1.3
		c1.1,0.3,1.9,0.9,2.2,2.1C375.2,103.4,375.1,103.7,375.5,103.7z"/>
	<path fill="#E58549" d="M374.6,74.3L374.6,74.3c0.2,0.8,0.8,1.5,0.7,2.4c-0.1,1.2-1,2.3-2.2,2.5c-1.4,0.3-2.6-0.5-3.2-1.7
		c-0.3-0.7-0.1-1.4-0.1-2.1c0.4-0.6,1.1-0.9,1.4-1.6c0.5,0.3,0.9,0,1.3,0C373.2,73.8,373.9,74.2,374.6,74.3z"/>
	<path fill="#E9AA45" d="M406.9,146.5c-0.3,0.4-0.6,0.7-0.9,1.1c-0.8,0.2-1.6,0.4-2.5,0c-1.2-0.5-2-2-1.7-3.4
		c0.4-1.3,1.7-2.1,3.1-1.9C407,142.7,407.9,145,406.9,146.5z"/>
	<path fill="#698768" d="M401.9,52.2c0-1.5,1.3-2.7,2.7-2.7c1.5,0,2.9,1.3,2.9,2.7c0,1.5-1.3,2.8-2.7,2.8
		C403.2,54.9,401.9,53.6,401.9,52.2z"/>
	<path fill="#9FAA6B" d="M392.4,63.8c-0.5-0.2-1-0.4-1.5-0.7c0-0.3-0.1-0.5-0.3-0.7c-0.7-1.1-0.6-2.3,0.2-3.4
		c0.8-0.9,2.1-1.2,3.3-0.6c1.1,0.5,1.7,1.8,1.5,2.8c-0.3,1.3-1.2,2.2-2.5,2.3C392.9,63.7,392.6,63.6,392.4,63.8z"/>
	<path fill="#B3615E" d="M393.1,177.6c0-1.5,1.3-2.7,2.7-2.7c1.5,0,2.7,1.3,2.7,2.7c0,1.6-1.2,2.9-2.8,2.9
		C394.3,180.4,393.1,179.2,393.1,177.6z"/>
	<path fill="#CD796E" d="M378.1,57.7c0.3,1.7-0.5,2.9-2.1,3.3c-1.3,0.3-2.7-0.5-3.3-1.9c-0.3-1,0-2.2,0.9-2.9c1-0.7,2.3-0.8,3.3-0.1
		c0.1,0.1,0.3,0.2,0.5,0.3C378.1,56.6,378.3,57.1,378.1,57.7z"/>
	<path fill="#DAA182" d="M392.2,47.9c-1.4,0-2.7-1.3-2.7-2.6c0.1-1.7,1.2-2.9,2.8-2.9c1.4,0,2.7,1.3,2.7,2.6
		C395,46.7,393.8,47.9,392.2,47.9z"/>
	<path fill="#CD786C" d="M443,99c0.1-0.3,0.3-0.5,0.5-0.7c0.7-0.1,1.3-0.5,2-0.8c0.5-0.2,0.8-0.1,1.2,0.1c0.1,0.3,0.3,0.3,0.5,0.5
		c0.8,0.7,1.3,1.5,1.1,2.6c-0.1,1.2-0.9,1.9-2,2.2c-0.5,0.1-0.9,0.3-1.3,0c-0.7-0.1-1.1-0.7-1.7-0.9l0,0C443,101,443.1,100,443,99z"
		/>
	<path fill="#DFA486" d="M497.7,67c0,1.5-1.2,2.7-2.7,2.7c-1.3,0-2.8-1.4-2.7-2.7c0.1-1.8,1.3-2.9,2.9-2.9
		C496.3,64.1,497.8,65.4,497.7,67z"/>
	<path fill="#5E9670" d="M406.8,62.7c0-1.5,1.3-2.7,2.7-2.7c1.4,0,2.7,1.3,2.7,2.7c0,1.5-1.2,2.7-2.7,2.7
		C408,65.4,406.8,64.2,406.8,62.7z"/>
	<path fill="#E9AC48" d="M484.7,157.3c-0.1-0.5-0.3-1-0.5-1.5c0.2-0.2,0.3-0.5,0.3-0.7c0.2-1.3,1.3-2.2,2.5-2.2
		c1.3,0,2.4,0.9,2.7,2.2c0.3,1.2-0.5,2.7-1.5,3c-0.9,0.3-1.8,0.3-2.6-0.3C485.3,157.5,485.1,157.2,484.7,157.3z"/>
	<path fill="#609670" d="M423.5,115.7c0-1.5,1.2-2.6,2.7-2.6c1.4,0,2.6,1.2,2.6,2.6c0,1.5-1.2,2.8-2.6,2.8
		C424.7,118.5,423.5,117.2,423.5,115.7z"/>
	<path fill="#B3625F" d="M408.3,166.3c-1.5,0-2.7-1.2-2.7-2.7c0-1.5,1.2-2.6,2.7-2.6c1.5,0,2.7,1.2,2.7,2.7
		C411,165.1,409.7,166.3,408.3,166.3z"/>
	<path fill="#E7AD49" d="M387.9,117.1c0.1-1.5,1.3-2.7,2.7-2.6c1.5,0.1,2.6,1.2,2.6,2.7c-0.1,1.5-1.3,2.7-2.8,2.7
		C389,119.8,387.9,118.6,387.9,117.1z"/>
	<path fill="#E6874C" d="M427.4,99.6c0,1.5-1.1,2.6-2.6,2.6c-1.5,0-2.7-1.1-2.7-2.7c0-1.5,1.2-2.7,2.7-2.6
		C426.3,97,427.4,98.1,427.4,99.6z"/>
	<path fill="#CE796D" d="M436.1,16.7c1.4,0,2.6,1.2,2.7,2.5c0,1.5-1.1,2.8-2.7,2.8c-1.5,0-2.6-1.1-2.6-2.7
		C433.4,17.8,434.6,16.7,436.1,16.7z"/>
	<path fill="#B1625C" d="M408.4,45.7c0,1.5-1.1,2.6-2.6,2.7c-1.4,0-2.7-1.2-2.7-2.7c0-1.4,1.3-2.6,2.6-2.6
		C407.2,43,408.4,44.2,408.4,45.7z"/>
	<path fill="#B0605C" d="M481.5,41.9c1.5,0,2.7,1.1,2.7,2.5c0,1.5-1.2,2.7-2.7,2.7c-1.4,0-2.6-1.2-2.6-2.6S480,41.9,481.5,41.9z"/>
	<path fill="#E3874C" d="M454.1,98.5c0,1.5-1.2,2.7-2.7,2.6c-1.3,0-2.5-1.3-2.5-2.7c0-1.3,1.3-2.6,2.6-2.6
		C452.9,95.9,454.1,97.1,454.1,98.5z"/>
	<path fill="#E7AA45" d="M405.2,103.6c-0.1,0.1-0.1,0.1-0.1,0.1c-0.5-0.1-0.5,0.3-0.7,0.6c-1.3,1.6-3.7,1.3-4.6-0.5
		c-0.5-1.2,0-2.8,1.2-3.4c1.3-0.6,2.9-0.1,3.6,1.1c0.2,0.5,0.3,0.9,0.3,1.5C404.8,103.2,404.7,103.6,405.2,103.6z"/>
	<path fill="#E5AD4A" d="M393.9,95.9c0,0.3,0.3,0.5,0.5,0.8c0.8,1.2,0.5,2.9-0.8,3.7c-1.4,0.8-3.1,0.3-3.8-1.1c-0.7-1.3,0-3,1.5-3.6
		c0.7-0.3,1.4-0.1,2.1-0.1C393.7,95.6,393.8,95.7,393.9,95.9z"/>
	<path fill="#CE7B6F" d="M451.1,14.3c0,1.5-1,2.5-2.5,2.5c-1.5,0-2.6-1.1-2.7-2.6c0-1.4,1.2-2.5,2.6-2.5
		C450,11.7,451.1,12.8,451.1,14.3z"/>
	<path fill="#609671" d="M459,58.7c-0.3,0-0.7,0-1.1,0c-0.9-0.3-1.6-0.7-1.9-1.7c-0.5-1.3,0.2-2.8,1.5-3.4c1.3-0.5,2.9,0.2,3.4,1.6
		c0.5,1.1-0.3,2.7-1.5,3.2C459.3,58.6,459.2,58.7,459,58.7z"/>
	<path fill="#B86964" d="M352.5,143.8c-1.5,0-2.6-1.1-2.6-2.6c0-1.4,1.2-2.5,2.7-2.5c1.3,0,2.5,1.2,2.5,2.7
		C355.1,142.7,353.9,143.8,352.5,143.8z"/>
	<path fill="#B3625F" d="M447,40.9c0-1.5,1-2.5,2.6-2.5c1.5,0,2.6,1.1,2.6,2.5c0,1.3-1.2,2.5-2.5,2.5
		C448.1,43.5,446.9,42.3,447,40.9z"/>
	<path fill="#E58147" d="M440.6,105.5c1.3,0,2.5,1.1,2.5,2.5c0,1.4-1.1,2.5-2.5,2.5c-1.5,0-2.6-1.1-2.6-2.5
		C438,106.7,439.1,105.5,440.6,105.5z"/>
	<path fill="#DDA586" d="M362,131.5c0,1.5-1.1,2.6-2.5,2.6c-1.4,0-2.6-1.1-2.6-2.5c-0.1-1.5,1.1-2.7,2.5-2.7
		C360.8,128.9,362,130.1,362,131.5z"/>
	<path fill="#E9A947" d="M375.2,27.8c0-1.4,1.1-2.5,2.5-2.5c1.5,0,2.7,1.1,2.6,2.5s-0.9,2.5-2.6,2.5
		C376.7,30.4,375.1,29.4,375.2,27.8z"/>
	<path fill="#B1605D" d="M348.2,88.3c0-1.5,1.1-2.5,2.5-2.5c1.4,0,2.5,1.1,2.5,2.5c0,1.5-1.1,2.6-2.5,2.6
		C349.2,90.8,348.2,89.7,348.2,88.3z"/>
	<path fill="#E9A848" d="M454.2,16.4c0.7-0.1,1.1-0.9,1.9-0.9c1.1-0.1,1.9,0.2,2.5,1c0.6,0.9,0.7,1.7,0.2,2.7
		c-0.5,0.9-1.3,1.3-2.3,1.3c-1.7,0-2.7-1.5-2.4-3.1c0.1-0.3,0.2-0.5-0.1-0.7C453.9,16.4,454,16.4,454.2,16.4z"/>
	<path fill="#E8A643" d="M423.2,76.4c-0.3,0-0.6,0.1-0.8,0.3c-1.9,0-2.6-0.5-3.1-1.9c-0.3-1,0.1-1.7,0.7-2.3
		c0.8-0.7,1.8-0.9,2.8-0.5c0.8,0.4,1.3,1.1,1.4,2C424.5,74.9,423.9,75.8,423.2,76.4z"/>
	<path fill="#E8854F" d="M479.2,28.4c1.4,0,2.5,1.1,2.5,2.5c0,1.5-1.1,2.5-2.5,2.5c-1.5,0-2.6-1.2-2.5-2.6
		C476.5,29.4,477.8,28.4,479.2,28.4z"/>
	<path fill="#CF7A6D" d="M485.5,111.6c-0.4,0-0.7,0-1.1,0c0.1-0.4-0.2-0.5-0.4-0.5c-1-0.3-1.7-1.1-1.8-2.1c-0.1-1,0.5-1.9,1.3-2.4
		c0.2-0.1,0.5-0.2,0.4-0.5c0.5,0,1.1,0,1.6-0.2c-0.3,0.4-0.1,0.5,0.3,0.7c1.4,0.8,1.8,2.3,1,3.6c-0.3,0.5-0.8,0.8-1.3,1.1
		C484.9,111.3,485.3,111.4,485.5,111.6z"/>
	<path fill="#CD776A" d="M375.5,39.2c1.4,0,2.6,1.1,2.5,2.5c0,1.3-1.1,2.5-2.5,2.5c-1.3,0-2.5-1.2-2.6-2.6
		C373,40.4,374.2,39.3,375.5,39.2z"/>
	<path fill="#B2625E" d="M512.7,111.3c0,1.4-1,2.5-2.5,2.5c-1.4,0-2.5-1.1-2.5-2.5c0-1.4,1.1-2.5,2.5-2.5
		C511.6,108.8,512.7,109.9,512.7,111.3z"/>
	<path fill="#B56461" d="M453.6,32.1c-0.4,0-0.9,0-1.3,0c-1.5-0.5-2.1-1.3-1.9-2.7c0.1-1.1,0.9-2.1,2-2.3c1.2-0.2,2.3,0.5,2.8,1.6
		C455.6,29.9,455.1,31.5,453.6,32.1z"/>
	<path fill="#CC776C" d="M422,50.1c-1.4,0-2.5-1.1-2.5-2.5c0-1.3,1.1-2.5,2.5-2.5c1.5,0,2.5,1.1,2.6,2.5
		C424.5,49.1,423.5,50.1,422,50.1z"/>
	<path fill="#B3625E" d="M346.8,100.5c0.1-0.1,0.3-0.2,0.4-0.3c1.9-0.3,3,0.3,3.5,1.8c0.1,0.5,0,1.1-0.1,1.5c-0.2,0.7-0.8,1-1.3,1.4
		c-1.5,0.3-2.5,0-3.2-1.1C345.4,102.8,345.7,101.6,346.8,100.5z"/>
	<path fill="#B56460" d="M462.8,171.8c0.1,0.1,0.1,0.1,0.3,0.2c0.7,1.5,0.7,2.5-0.2,3.4c-0.9,0.9-2.2,1.1-3.4,0.3
		c-1-0.7-1.3-2.2-0.7-3.2c0.6-1.1,2.1-1.5,3.2-1.1C462.3,171.5,462.5,171.7,462.8,171.8z"/>
	<path fill="#B2625E" d="M423.9,11.8c0,1.4-1.2,2.6-2.6,2.6c-1.3,0-2.4-1.3-2.5-2.6c0-1.3,1.2-2.5,2.5-2.5
		C422.8,9.3,423.9,10.4,423.9,11.8z"/>
	<path fill="#B0605C" d="M416.7,83.3c-1.3,0-2.5-1.1-2.5-2.4c0-1.5,1.1-2.6,2.5-2.6c1.3,0,2.5,1.2,2.5,2.5
		C419.3,82.3,418.2,83.3,416.7,83.3z"/>
	<path fill="#649772" d="M465.7,128c-0.1-0.3-0.3-0.5-0.5-0.7c-0.7-0.8-0.7-2.1-0.1-2.9c0.6-0.9,1.9-1.3,3-0.9
		c1.1,0.4,1.7,1.5,1.7,2.7c-0.1,1-1,1.9-2.1,2.1c-0.3,0.1-0.6,0.1-0.9,0.1C466.3,128.4,466,128.4,465.7,128z"/>
	<path fill="#B36360" d="M427.1,144.7c0-1.3,1.1-2.4,2.6-2.4c1.4,0,2.5,1.1,2.5,2.5c0,1.3-1.2,2.5-2.5,2.5
		C428.1,147.3,427.1,146.2,427.1,144.7z"/>
	<path fill="#E68149" d="M440.6,19.1c0.3-0.2,0.5-0.4,0.9-0.2c0.6,0.3,1.2-0.3,1.8-0.1c1.1,0.6,1.3,1.7,1.6,2.7c0,0.1,0,0.3,0,0.5
		c-0.2,0.1-0.4,0.1-0.5,0.3c-0.5,1.1-1.5,1.5-2.5,1.3s-1.7-0.8-2.1-1.9C439.4,20.6,439.9,19.8,440.6,19.1z"/>
	<path fill="#DDA486" d="M387.2,34.4c0,1.3-1.1,2.5-2.5,2.5c-1.2,0.1-2.5-1.3-2.5-2.5c0-1.3,1.2-2.5,2.5-2.5
		C386,31.8,387.2,32.9,387.2,34.4z"/>
	<path fill="#B4625E" d="M443.4,175.2c-0.3,0.2-0.5,0.5-0.8,0.7c-0.9,0.3-1.9,0.3-2.7-0.3c-0.2-0.2-0.3-0.3-0.5-0.5
		c-0.1-0.2-0.1-0.4-0.2-0.6c-0.4-1.1-0.1-2.3,0.9-2.9c0.9-0.7,2.1-0.6,2.9,0.1c0.9,0.7,1.2,2,0.7,3
		C443.6,174.8,443.5,175,443.4,175.2z"/>
	<path fill="#659A74" d="M394.2,114.7c-1.4,0-2.5-1.1-2.5-2.5c0-1.3,1.1-2.4,2.4-2.4c1.4,0,2.6,1.2,2.6,2.6
		C396.8,113.6,395.6,114.7,394.2,114.7z"/>
	<path fill="#B2615C" d="M411.9,23.9c-1.5,0-2.5-1-2.5-2.5c0-1.3,1.1-2.4,2.3-2.5c1.4,0,2.6,1.1,2.6,2.5
		C414.3,22.8,413.3,23.9,411.9,23.9z"/>
	<path fill="#B0605D" d="M403.3,72.9c1.4,0,2.5,1.1,2.5,2.4c0,1.4-1.1,2.5-2.5,2.5s-2.5-1.1-2.4-2.5
		C400.8,73.9,401.9,72.9,403.3,72.9z"/>
	<path fill="#E8AA45" d="M472.7,139.6c0,1.4-1.1,2.4-2.5,2.5c-1.3,0.1-2.5-1.1-2.5-2.4c0-1.3,1.1-2.5,2.5-2.5
		C471.6,137.2,472.7,138.4,472.7,139.6z"/>
	<path fill="#B3625E" d="M433.6,110.8c0,1.4-1,2.4-2.4,2.4c-1.3,0-2.4-1.1-2.5-2.4c0-1.3,1.1-2.5,2.4-2.5
		C432.6,108.3,433.7,109.4,433.6,110.8z"/>
	<path fill="#659B74" d="M380.4,62.1c0.2,0.3,0.4,0.5,0.7,0.8c0.5,1.7,0,3.1-1.4,3.6c-1.1,0.3-2.2-0.1-2.8-0.9
		c-0.6-0.9-0.5-2.1,0.1-2.9c0.7-0.9,1.9-1.1,2.9-0.7C380.1,61.9,380.2,62,380.4,62.1z"/>
	<path fill="#CE786B" d="M421.5,19.8c-1.4,0.1-2.4-1.2-2.4-2.5c0-1.3,1.1-2.3,2.5-2.3c1.4,0,2.5,1.1,2.4,2.5
		C424,18.7,422.8,19.8,421.5,19.8z"/>
	<path fill="#B4635F" d="M460.2,159.3c1.3-0.1,2.3,0.9,2.5,2.3c0.1,1.3-0.9,2.4-2.4,2.5c-1.3,0.1-2.4-1-2.5-2.3
		C457.7,160.4,458.7,159.4,460.2,159.3z"/>
	<path fill="#B05F5B" d="M371.4,155.6c0-1.3,1.1-2.3,2.4-2.3c1.4,0,2.4,1,2.5,2.4c0,1.3-1.1,2.5-2.4,2.5
		C372.4,158.1,371.4,157,371.4,155.6z"/>
	<path fill="#B2615D" d="M404.5,172.8c-1.4,0-2.4-1.1-2.4-2.5c0-1.4,1.1-2.4,2.6-2.3c1.3,0.1,2.3,1.1,2.3,2.5
		C407,171.8,405.9,172.8,404.5,172.8z"/>
	<path fill="#E9AA45" d="M505.5,63.4c0,1.3-1.1,2.5-2.4,2.5c-1.3,0-2.4-1.1-2.5-2.5c-0.1-1.2,1.1-2.3,2.3-2.3
		C504.2,60.9,505.5,62.1,505.5,63.4z"/>
	<path fill="#CE796D" d="M399.9,133.3c0,1.3-1.1,2.5-2.4,2.5c-1.3,0-2.4-1.1-2.4-2.4c0-1.3,1.1-2.4,2.5-2.4
		C398.8,130.9,399.9,131.9,399.9,133.3z"/>
	<path fill="#B3625F" d="M419,178.1c-0.7-0.3-1.3-0.6-1.5-1.4c-0.4-1.1-0.1-2.3,0.9-2.9c0.9-0.6,2.2-0.5,3,0.3
		c0.8,0.7,0.9,2.1,0.3,3.1C421.3,178,420,178.4,419,178.1z"/>
	<path fill="#E9AA46" d="M356.2,105.3c-0.3-0.6-0.7-1.1-1.2-1.3c0.3-0.6-0.1-1.3,0.2-1.9c0.2-0.4,0.6-0.7,0.6-1.2
		c0.3-0.1,0.5-0.3,0.7-0.5c0.3,0.3,0.5,0.1,0.8,0.1c1,0,1.7,0.5,2.1,1.4c0.5,0.9,0.3,1.6-0.2,2.4c-0.6,0.8-1.5,1-2.4,0.9
		C356.6,105.1,356.3,104.8,356.2,105.3z"/>
	<path fill="#E7AD4C" d="M390.7,103.2c0,0.5-0.1,0.9-0.3,1.3c-0.8,0.7-1.6,1.3-2.8,0.9c-0.9-0.3-1.6-1.1-1.7-1.9
		c-0.1-1,0.4-2,1.3-2.4c0.9-0.5,1.8-0.3,2.5,0.3C390.3,102,390.6,102.6,390.7,103.2z"/>
	<path fill="#E8A944" d="M478.1,106.9c-1.1,0.9-2.1,0.5-3-0.2c-0.7-0.5-0.9-1.6-0.6-2.5c0.3-0.9,1.3-1.6,2.3-1.6
		c1.4,0,2.4,1.3,2.3,3C479,106.3,478.8,106.8,478.1,106.9z"/>
	<path fill="#B26360" d="M457.4,70.6c0,1.4-1,2.3-2.4,2.3c-1.3,0-2.3-1.1-2.3-2.3c0-1.3,1-2.4,2.3-2.4
		C456.4,68.2,457.4,69.2,457.4,70.6z"/>
	<path fill="#E8A642" d="M470,37.6c0-1.3,1-2.4,2.3-2.4c1.2,0,2.3,1.1,2.3,2.3c0,1.3-1,2.3-2.3,2.3C471,39.9,470,38.9,470,37.6z"/>
	<path fill="#CF796E" d="M488.7,51.9c0.1-0.1,0.3-0.2,0.5-0.3c1.1-0.4,1.9,0.2,2.9,0.5c0.1,0.3,0.3,0.5,0.5,0.9
		c-0.2,0.2-0.1,0.5-0.1,0.7c0,1.2-0.7,2.1-1.7,2.4c-0.9,0.3-2-0.2-2.5-0.9c-0.6-0.9-0.5-2.1,0.3-2.9C488.5,52.1,488.6,52,488.7,51.9
		z"/>
	<path fill="#CD796D" d="M492.5,81.2L492.5,81.2c0,0.4,0.3,0.6,0.5,0.9c0.7,1.1,0.7,2.2-0.2,3.1c-0.8,0.8-1.9,0.9-2.9,0.3
		c-0.9-0.6-1.3-1.7-0.9-2.7c0.5-1.1,1.5-1.7,2.7-1.4C492,81.3,492.2,81.5,492.5,81.2z"/>
	<path fill="#CD776B" d="M410.3,119.2c0-0.1,0-0.3,0-0.5c0.2-0.2,0.3-0.5,0.4-0.7c0.5-0.8,1.1-1.3,2.1-1.2c0.9,0,1.6,0.5,2,1.3
		c0.1,0.3,0.1,0.6,0.5,0.7c-0.2,0.5-0.3,1-0.3,1.5c-0.2-0.1-0.4,0.1-0.5,0.2c-1.4,1.5-3.5,0.5-3.9-1.1
		C410.4,119.5,410.4,119.4,410.3,119.2z"/>
	<path fill="#B1605C" d="M421.3,41.2c-1.3,0-2.3-1.1-2.3-2.3c0-1.3,1.1-2.3,2.4-2.3c1.3,0,2.3,0.9,2.3,2.2
		C423.7,40.2,422.6,41.2,421.3,41.2z"/>
	<path fill="#CD786D" d="M459,144.1c-0.6,0.9-1.3,1.5-2.4,1.4c-1.3-0.1-2.1-1-2.1-2.3c0-1.2,0.7-2.1,1.9-2.2
		c1.4-0.2,2.3,0.5,2.7,1.8C459.1,143.3,459.4,143.7,459,144.1z"/>
	<path fill="#61946F" d="M426.6,53.8c-0.9,0.3-1.8,0.3-2.6-0.5c-0.7-0.7-0.9-1.5-0.5-2.3c0.4-1.2,1.7-1.9,2.9-1.4
		c1.2,0.5,1.8,1.8,1.3,3c-0.1,0.2-0.2,0.3-0.3,0.5C427.3,53.4,426.9,53.7,426.6,53.8z"/>
	<path fill="#D7A182" d="M457.5,115.5c-1.2,0-2.3-1.1-2.3-2.3c0-1.1,1.1-2.2,2.3-2.2s2.3,1.1,2.3,2.3S458.7,115.5,457.5,115.5z"/>
	<path fill="#E9AA48" d="M427.1,90.5c-1.3,0-2.3-0.9-2.3-2.2c0-1.1,1.1-2.2,2.2-2.2c1.1-0.1,2.3,1.1,2.3,2.2
		C429.4,89.4,428.5,90.6,427.1,90.5z"/>
	<path fill="#DEA586" d="M390.5,124.3c0.4,0,0.8,0,1.2,0c0.9,0.1,1.9,0.9,2,1.7c0.1,1.1-0.4,2.1-1.5,2.5c-0.8,0.3-2.1,0.1-2.6-0.9
		c-0.3-0.6-0.5-1.2-0.3-1.8c0.3-0.8,0-1-0.7-0.9c-0.1,0-0.3-0.1-0.4-0.1c0.1-0.2,0.4-0.3,0.6-0.3C389.5,124.7,390,124.4,390.5,124.3
		z"/>
	<path fill="#DCA083" d="M486.3,79.2c-0.3-0.1-0.5-0.3-0.8-0.5c0.5,0,0.6-0.2,0.3-0.6c-0.6-0.8-0.7-1.7-0.2-2.6
		c0.5-0.8,1.5-1.3,2.4-1.1c0.7,0.1,1.6,1.1,1.7,1.9c0.1,1.1-0.2,1.9-1.1,2.3c-0.5,0.3-1.1,0.4-1.7,0.2
		C486.4,78.8,486.2,78.8,486.3,79.2z"/>
	<path fill="#D9A283" d="M394.8,65c0-1.3,1-2.2,2.3-2.2c1.1,0,2.3,1.2,2.2,2.4c0,1.1-1.2,2.2-2.3,2.2
		C395.8,67.3,394.8,66.2,394.8,65z"/>
	<path fill="#E4864E" d="M397.1,155.7c0.4,0.1,0.9,0.1,1.3,0.1c-0.1,0.3,0.1,0.5,0.4,0.7c0.8,0.7,1.1,1.7,0.7,2.6
		c-0.4,0.9-1.4,1.5-2.3,1.3c-1-0.1-1.8-0.9-1.9-1.9c-0.1-1,0.4-1.9,1.3-2.4C396.8,156.1,397.2,156.2,397.1,155.7z"/>
	<path fill="#6E8E6F" d="M462.3,80.2c0,1.3-0.9,2.2-2.2,2.2c-1.2,0-2.2-0.9-2.2-2.1c0-1.3,0.9-2.3,2.3-2.3
		C461.5,78,462.3,78.8,462.3,80.2z"/>
	<path fill="#DA9F81" d="M474.5,81.3c0.4-0.6,1-1,1.6-1.4c0.1,0.5,0.5,0.3,0.8,0.3c1.6,0.1,2.7,1.8,1.9,3.2
		c-0.5,0.9-1.7,1.4-2.7,1.1c-0.9-0.3-1.6-1.4-1.5-2.5C474.7,81.8,475.1,81.5,474.5,81.3z"/>
	<path fill="#CF7A6E" d="M503.2,54.2c0,1.2-1.1,2.1-2.3,2.1c-1.3,0-2.2-1-2.2-2.3c0-1.1,1.1-2.1,2.3-2.1
		C502.2,52,503.2,53.1,503.2,54.2z"/>
	<path fill="#CC796E" d="M433.9,66.2c1.2,0,2.1,0.9,2.1,2.2c0,1.3-0.9,2.2-2.1,2.2c-1.3,0-2.3-0.9-2.3-2.2
		C431.7,67.2,432.7,66.2,433.9,66.2z"/>
	<path fill="#CC786C" d="M392.1,77.5c-1.3,0-2.2-1-2.2-2.3c0-1.1,1.1-2.1,2.2-2.1c1.3,0,2.3,1,2.3,2.2
		C394.4,76.6,393.3,77.5,392.1,77.5z"/>
	<path fill="#CF7C72" d="M486.9,34.5c0,1.2-1,2.2-2.1,2.2c-1.2,0-2.3-1-2.3-2.2s1.1-2.3,2.1-2.2C485.9,32.3,486.9,33.3,486.9,34.5z"
		/>
	<path fill="#B16460" d="M465.4,69.2c-1.3,0-2.2-0.9-2.2-2.2c0-1.1,1.1-2.1,2.2-2.1c1.3,0,2.3,1.1,2.3,2.3
		C467.6,68.3,466.6,69.2,465.4,69.2z"/>
	<path fill="#DEA586" d="M494.6,148.2c0.1,1.3-1.1,2.1-2.1,2.2c-1.1,0.1-2.2-1.1-2.2-2.3c0-1.1,1.1-2.3,2.2-2.2
		C493.6,145.9,494.8,147,494.6,148.2z"/>
	<path fill="#E7864E" d="M364.6,93.1c0-1.1,1-2.1,2.1-2.1c1.2,0,2.2,1,2.2,2.2c0,1.3-0.9,2.1-2.3,2.1
		C365.5,95.4,364.6,94.5,364.6,93.1z"/>
	<path fill="#E9A846" d="M499.9,84.7c-1.1,0-2.1-0.9-2.1-2.1c0-1.1,1-2.2,2.1-2.2c1.2,0,2.1,0.9,2.1,2.1
		C502,83.7,501.1,84.7,499.9,84.7z"/>
	<path fill="#CF7B6F" d="M486.9,136.8c0,1.1-1,2.1-2.2,2c-1.1,0-2.1-1-2.1-2.1c0-1.1,1-2.2,2.2-2.2
		C485.9,134.6,486.9,135.6,486.9,136.8z"/>
	<path fill="#CE786C" d="M352.4,116.6c-1.1,0-2.1-1-2.1-2.1c0-1.1,1-2.1,2.1-2.1c1.1,0,2.1,1,2.1,2.1
		C354.7,115.6,353.7,116.6,352.4,116.6z"/>
	<path fill="#B66662" d="M499.3,144.3c-1.1,0-2.1-1-2.1-2.2c0-1.1,1.1-2.1,2.1-2.1c1.2,0,2.2,1,2.1,2.1
		C501.5,143.3,500.5,144.3,499.3,144.3z"/>
	<path fill="#E7A947" d="M488.5,103.2c0.4-0.9,0.1-1.8,0.1-2.7c0.3,0.4,0,0.9,0.3,1.4c0.3-0.3,0.6-0.5,0.9-0.7
		c1.1-0.7,2.3-0.3,2.9,0.9c0.5,1,0.1,2.3-1,2.8c-0.9,0.5-2.3,0-2.7-1.1C488.9,103.6,488.9,103.2,488.5,103.2z"/>
	<path fill="#E6A642" d="M415.7,69.7c0.6,0.1,1.2,0.2,1.8,0.3c0.2,0.5,0.7,0.7,0.9,1.2c0.3,0.9,0.1,1.9-0.7,2.3
		c-0.9,0.6-2.1,0.5-2.9-0.2c-0.6-0.6-0.7-1.8-0.2-2.5C414.9,70.3,415.3,70,415.7,69.7z"/>
	<path fill="#E9AC4C" d="M483.5,128.7c-1.3,0-2.1-0.7-2.1-1.9c0-1.3,0.8-2.1,2.1-2.1c1.2,0,2.1,0.9,2.1,2.1
		C485.6,127.9,484.8,128.7,483.5,128.7z"/>
	<path fill="#B5635F" d="M481.2,121c-1.6-0.1-2.4-0.8-2.4-2.1c0-0.9,0.5-1.7,1.5-1.9c0.8-0.3,1.9,0.1,2.4,0.9
		c0.5,0.7,0.4,1.7-0.1,2.4c-0.1,0.1-0.3,0.3-0.5,0.5C481.8,120.9,481.6,121.2,481.2,121z"/>
	<path fill="#DEA486" d="M362.2,118.7c0.3-0.3,0.3-0.7,0.6-0.9c0.5,0.3,0.7-0.3,1.1-0.4c1.1-0.5,2.5,0.7,2.6,1.7
		c0,0.3-0.1,0.8,0.5,0.9c0,0.2,0,0.3-0.1,0.5c-0.2-0.5-0.3-0.3-0.5,0c-1,1.1-1.7,1.3-2.9,0.5c-0.6-0.3-0.8-0.9-0.9-1.4
		C362.4,119.3,362.4,118.9,362.2,118.7z"/>
	<path fill="#5F9671" d="M467.2,77c0,1.1-0.9,2.1-2,2.1c-1.2,0-2.2-0.9-2.2-2.1c0-1.1,0.9-2.1,2.1-2.1
		C466.2,74.9,467.2,75.8,467.2,77z"/>
	<path fill="#B66561" d="M358.4,137.4c-0.1,1.2-0.9,2.1-2.1,2c-1.2,0-2.1-1-2-2.3c0.1-1.1,1-1.9,2.1-1.9
		C357.5,135.2,358.4,136.2,358.4,137.4z"/>
	<path fill="#CC776C" d="M371.4,136.1c0.1,0.5,0.1,0.9,0.1,1.4c-0.5,0.5-0.7,1.1-1.4,1.5c-0.7,0.3-1.4,0.2-2-0.3
		c-0.7-0.5-0.9-1.1-0.8-1.9c0.1-0.8,0.5-1.4,1.3-1.7c0.8-0.3,1.5-0.1,2.1,0.5C370.9,135.8,371,136.1,371.4,136.1z"/>
	<path fill="#669A73" d="M408.3,91.3c-0.5,0-1.1,0.1-1.7-0.1c-0.9-0.6-1.3-1.5-1.1-2.5c0.2-0.9,0.9-1.4,1.9-1.5
		c0.7-0.1,1.6,0.4,1.9,1.1c0.4,0.7,0.2,1.8-0.3,2.4C408.8,90.9,408.6,91.1,408.3,91.3z"/>
	<path fill="#789273" d="M390.5,124.3c-0.6,0.7-1.5,0.4-2.3,0.5c-1.1-0.5-1.6-1.2-1.5-2.3c0.1-0.9,0.9-1.5,1.8-1.7
		c0.9-0.1,1.7,0.4,2.1,1.3C391.1,122.8,390.7,123.5,390.5,124.3z"/>
	<path fill="#CF7A6E" d="M362.4,53c0,1.1-1,2.1-2.1,2.1c-1.1,0-2.1-0.9-2.1-2s0.9-2.1,2.1-2.1C361.5,50.9,362.4,51.8,362.4,53z"/>
	<path fill="#DEA285" d="M422.9,26.8c1.1,0.1,2.3,1.1,2.2,2.1c-0.1,1.1-1,2.1-2.1,2.1c-1.1,0-2.1-1-2.1-2.1
		C421,27.9,422,26.8,422.9,26.8z"/>
	<path fill="#B3635F" d="M446.4,27.7c0,1.2-0.9,2.1-1.9,2.1c-1.2,0-2.1-0.9-2.1-2c0-1.1,0.9-2.1,2.1-2.1
		C445.6,25.7,446.4,26.5,446.4,27.7z"/>
	<path fill="#E3874C" d="M436.5,56c0.7-0.1,1.1-0.7,1.9-0.7c1.1,0.1,1.9,0.9,1.9,2.1c0,1.1-0.9,2-2,2c-1.1,0-1.9-0.8-2-1.9
		C436.3,56.9,436.6,56.4,436.5,56L436.5,56z"/>
	<path fill="#E6A740" d="M412.1,49.7c0,1.2-0.9,2.1-2.1,2.1c-1.1,0-1.9-0.9-1.9-2c0-1.1,0.9-2,2.1-2
		C411.3,47.7,412.1,48.5,412.1,49.7z"/>
	<path fill="#D8A283" d="M464.8,86.7c0.4,0,0.7,0,1.1,0c-0.1,0.2-0.5,0-0.6,0.3c-0.1,0.3,0.3,0.4,0.5,0.5c0.8,0.6,1.1,1.4,0.8,2.3
		c-0.3,0.8-1.1,1.4-1.9,1.3c-0.9,0-1.7-0.7-1.9-1.6c-0.2-0.8,0.3-1.7,1-2.1C464.1,87.1,464.8,87.4,464.8,86.7z"/>
	<path fill="#718E6F" d="M446.2,91.3c0,1.1-0.9,2-2,2c-1.1,0-1.9-0.9-1.9-2c0-1.1,0.9-2,2-2C445.3,89.2,446.2,90.2,446.2,91.3z"/>
	<path fill="#CE7C70" d="M415,123.9c0,1.1-0.8,2-2,2c-1.1,0-2-0.9-2-1.9s1-2.1,2-2.1C414.1,121.9,415,122.9,415,123.9z"/>
	<path fill="#9EA86A" d="M465,94.7c-0.1-0.3-0.1-0.7-0.1-1c0.3,0.1,0.4-0.1,0.5-0.3c0.4-1.1,1.5-1.7,2.5-1.3
		c1.1,0.4,1.6,1.5,1.2,2.6c-0.2,0.6-0.7,1-1.3,1.1c-0.8,0.2-1.5,0-2.1-0.7C465.6,94.9,465.4,94.7,465,94.7z"/>
	<path fill="#CC776B" d="M402.6,47.7c0,1.1-0.9,1.9-2,1.9c-1.1,0-2-1-1.9-2c0-1.1,0.9-1.9,2-1.9C401.8,45.7,402.7,46.5,402.6,47.7z"
		/>
	<path fill="#6E9E77" d="M377.7,124.3c-0.1,0-0.3,0-0.5,0c-0.1-0.3-0.4-0.3-0.6-0.3c-0.8-0.4-1.3-1.3-1.1-2.2
		c0.2-0.9,0.9-1.5,1.8-1.5c1.1-0.1,1.9,0.5,2.1,1.5c0.2,0.8-0.2,1.7-1,2.1C378.3,124,377.9,124,377.7,124.3z"/>
	<path fill="#CB796E" d="M450.1,84.2c0-1.1,1-2.1,2.1-2c1,0,1.9,0.9,1.9,2c0,1-0.9,2-2,2S450.1,85.3,450.1,84.2z"/>
	<path fill="#CE796E" d="M458.2,154.7c1.1,0,2.1,0.9,2.1,1.9c0,1.1-0.9,1.9-2,1.9c-1.1,0-2-0.9-2-1.9
		C456.3,155.5,457.2,154.7,458.2,154.7z"/>
	<path fill="#6D896B" d="M451.7,73.9c-0.3,0.3-0.7,0.5-1.1,0.7c-1.5-0.1-2.3-0.6-2.4-1.7c-0.1-0.8,0.3-1.6,1-2
		c0.7-0.4,1.5-0.3,2.1,0.2c0.7,0.5,0.9,1.3,0.7,2.1C451.8,73.5,451.7,73.7,451.7,73.9z"/>
	<path fill="#CD776D" d="M506.1,87.1c0,1.1-0.8,2-1.8,2c-1.1,0-2-0.9-2.1-1.9c0-1.1,0.9-2,1.9-2C505.2,85.1,506,86,506.1,87.1z"/>
	<path fill="#DCA284" d="M434,15.6c-0.1-1.1,0.1-2.2-0.3-3.3c0.4,0.3,0.5,0,0.6-0.3c0.1-0.5,0.4-0.9,0.8-1.2
		c0.8-0.7,1.9-0.5,2.6,0.3c0.6,0.7,0.5,1.9-0.2,2.6c-0.7,0.7-1.8,0.7-2.5,0c-0.1-0.1-0.1-0.1-0.1-0.1c-0.1-0.1-0.3-0.5-0.5-0.3
		c-0.3,0.1-0.1,0.4-0.1,0.7C434.1,14.5,434.2,15.1,434,15.6z"/>
	<path fill="#6D8969" d="M384.1,52.4c0,1.1-0.9,1.9-1.9,1.9c-1.1,0-1.9-0.9-2-2c0-1.1,0.9-1.9,1.9-1.9
		C383.2,50.4,384.1,51.3,384.1,52.4z"/>
	<path fill="#DDA385" d="M445,103c0.5,0,0.9,0,1.3,0c-0.1,0.1-0.3,0.1-0.3,0.1c-0.1,0.1-0.4,0-0.4,0.3c0,0.2,0.2,0.2,0.3,0.3
		c0.9,0.5,1.3,1.3,1.1,2.3c-0.2,0.7-0.7,1.3-1.5,1.4c-1.1,0.2-1.9-0.3-2.2-1.3c-0.3-0.9,0.3-2,1.3-2.3
		C444.9,103.4,445.2,103.4,445,103z"/>
	<path fill="#B46460" d="M442.4,34.3c0,0.1,0,0.1,0,0.1c-0.1,1.1-0.6,1.9-1.5,2.1c-0.8,0.2-1.7-0.2-2.1-0.9
		c-0.5-0.8-0.3-1.7,0.3-2.3c0.5-0.5,1.1-0.7,1.9-0.5C441.7,32.8,442.2,33.4,442.4,34.3z"/>
	<path fill="#DCA586" d="M380.3,140.8c1.1,0,2.1,0.9,2,1.9c0,1.1-0.9,1.9-2,2c-1.1,0-2-0.9-2-1.9
		C378.3,141.8,379.3,140.8,380.3,140.8z"/>
	<path fill="#E5A949" d="M469.4,122.9c-1.2,0-1.9-0.7-1.9-1.9c0-1.1,0.9-2,2-2c0.9,0.1,1.8,0.7,1.9,1.9
		C471.3,122.1,470.4,122.9,469.4,122.9z"/>
	<path fill="#EAAC46" d="M404,133.5c-1.1,0-1.9-0.9-1.9-1.9c0-1.1,0.9-1.9,1.9-1.9c1,0,1.9,0.9,1.9,1.9
		C406,132.5,405,133.7,404,133.5z"/>
	<path fill="#D9A284" d="M441.4,89.7c0,0.9-0.9,1.9-1.9,1.8c-0.9,0-1.9-0.9-1.9-1.9c0-0.9,1-2,1.9-2.1
		C440.5,87.5,441.4,88.5,441.4,89.7z"/>
	<path fill="#CF796F" d="M358.5,89.2c0,0.1,0,0.2,0,0.3c-0.4,0-0.5,0.4-0.7,0.6c-0.6,0.7-1.6,1-2.3,0.6c-0.8-0.4-1.3-1.4-1-2.2
		c0.3-1,1.1-1.5,2.1-1.3c0.7,0.1,1.2,0.6,1.5,1.3C358.2,88.8,358.2,89,358.5,89.2z"/>
	<path fill="#CF796E" d="M368.8,64.1L368.8,64.1c-0.3,0.1-0.3,0.4-0.5,0.6c-0.5,0.7-1.5,1.1-2.2,0.8c-0.9-0.3-1.4-1.2-1.3-2
		c0.2-1.1,0.9-1.7,1.9-1.7c0.9,0,1.5,0.6,1.8,1.5C368.6,63.6,368.5,63.8,368.8,64.1z"/>
	<path fill="#5F946E" d="M478.3,60.5c-1.1,0-1.9-0.8-1.9-1.9c0-1,0.8-1.9,1.7-1.9c1.1,0,2,0.8,2,1.9
		C480.2,59.6,479.4,60.5,478.3,60.5z"/>
	<path fill="#629670" d="M462.3,51c0,1.1-0.8,1.9-1.9,2c-0.9,0-1.9-0.8-1.9-1.8c-0.1-1,0.8-2,1.8-2S462.3,50.1,462.3,51z"/>
	<path fill="#739172" d="M458.4,124.4c0,1-0.9,1.9-1.9,1.9s-1.9-0.9-1.9-1.9c0-1.1,0.8-1.9,1.8-1.9
		C457.6,122.5,458.4,123.4,458.4,124.4z"/>
	<path fill="#CF7A70" d="M394.1,167.1c-1,0-1.8-0.9-1.8-1.9s0.8-1.9,1.8-1.9c1.1,0,2,0.9,2,1.9C396.1,166.3,395.2,167.1,394.1,167.1
		z"/>
	<path fill="#E8A542" d="M433,45.9c0-1.1,0.8-1.9,1.8-1.9c1.1,0,1.9,0.9,1.9,1.9c0,1-0.8,1.8-1.8,1.8C433.8,47.7,433,46.9,433,45.9z
		"/>
	<path fill="#6D9D76" d="M385.2,66.8c0,0.1,0,0.1,0,0.2c-0.3,0.1-0.3,0.4-0.5,0.6c-0.5,0.7-1.3,1.1-2.1,0.8c-0.8-0.3-1.3-1-1.2-1.9
		c0.1-0.7,0.7-1.5,1.5-1.6c0.9-0.1,1.7,0.3,2,1.1C385,66.2,385,66.6,385.2,66.8z"/>
	<path fill="#B76A65" d="M453,138.3c1,0,1.8,0.7,1.9,1.7c0,1-0.8,1.9-1.9,1.9c-1,0-1.8-0.7-1.9-1.7
		C451.1,139.2,451.9,138.3,453,138.3z"/>
	<path fill="#E7834F" d="M414.3,25.7c0.7,0.3,0.8,0.9,0.8,1.6c-0.1,1.2-0.8,1.8-1.9,1.7c-1.1-0.1-1.7-0.9-1.7-2.1
		c0.1-0.9,1.1-1.6,2.1-1.5C413.9,25.6,414.1,25.7,414.3,25.7z"/>
	<path fill="#CE796E" d="M378.3,101.5c-0.5,0.5-1.2,0.5-1.7,0.9c0-0.3-0.3-0.3-0.5-0.4c-1.1-0.5-1.4-1.4-1.1-2.3
		c0.3-0.9,1.3-1.3,2.1-1.1c1,0.3,1.5,1.3,1.3,2.3C378.4,101.2,378.3,101.3,378.3,101.5z"/>
	<path fill="#E8AA48" d="M391.1,21.5c-1.1,0-1.9-0.7-1.9-1.8c0-0.9,0.9-1.7,1.8-1.7c0.9,0,1.7,0.8,1.8,1.7
		C392.9,20.7,392.1,21.5,391.1,21.5z"/>
	<path fill="#CD7C6F" d="M398.7,22.9c0-0.9,0.8-1.7,1.7-1.7c1,0,1.8,0.8,1.8,1.8c0,0.9-0.8,1.7-1.7,1.7
		C399.5,24.7,398.7,23.9,398.7,22.9z"/>
	<path fill="#E6A647" d="M424.9,65.2c-0.3,0-0.7,0-1,0c0.1-0.2,0-0.3-0.2-0.5c-1.1-0.6-1.1-1.7-0.8-2.4c0.4-0.8,1.4-1,2.5-0.5
		c0.1,0.1,0.3,0.1,0.5,0.1c0.1,0.4,0.3,0.8,0.5,1.2c-0.1,0-0.3,0.1-0.3,0.2c-0.1,0.7-0.4,1.1-1,1.4
		C424.9,64.9,424.9,65.1,424.9,65.2z"/>
	<path fill="#AE605B" d="M466.4,60.5c0,0.9-0.7,1.7-1.7,1.6c-1,0-1.8-0.7-1.8-1.7c0-1,0.9-1.9,1.9-1.9
		C465.6,58.7,466.4,59.6,466.4,60.5z"/>
	<path fill="#B46560" d="M451,112.6c0-1,0.8-1.8,1.8-1.7c1,0,1.7,0.7,1.7,1.8c0,0.9-0.9,1.7-1.8,1.7
		C451.7,114.2,451,113.5,451,112.6z"/>
	<path fill="#B56560" d="M414.8,165.5c-0.9,0-1.7-0.8-1.7-1.7c0-1,0.7-1.7,1.7-1.7c1.1,0,1.8,0.7,1.8,1.7
		C416.6,164.8,415.9,165.5,414.8,165.5z"/>
	<path fill="#9DA668" d="M456.1,49.9c1.1,0,1.8,0.7,1.8,1.7c0,0.9-0.7,1.7-1.7,1.7c-0.9,0-1.7-0.8-1.7-1.7
		C454.4,50.7,455.1,49.9,456.1,49.9z"/>
	<path fill="#B56460" d="M451.4,166.3c1,0,1.7,0.7,1.7,1.7c0,1-0.7,1.7-1.8,1.7c-0.9,0-1.7-0.8-1.7-1.7
		C449.6,167,450.4,166.3,451.4,166.3z"/>
	<path fill="#DDA385" d="M454.7,24.9c0-1,0.8-1.7,1.8-1.7c0.9,0,1.6,0.9,1.6,1.7c0,1.1-0.9,1.7-1.7,1.7
		C455.5,26.7,454.6,25.9,454.7,24.9z"/>
	<path fill="#708F71" d="M445.3,57.4c0,0.9-0.7,1.7-1.7,1.7c-0.9,0-1.7-0.9-1.7-1.8c0-0.9,0.8-1.7,1.7-1.7
		C444.6,55.6,445.3,56.4,445.3,57.4z"/>
	<path fill="#759172" d="M418.8,133.4c0.9,0,1.7,0.7,1.7,1.7c0,0.9-0.8,1.7-1.7,1.7c-0.9,0-1.7-0.8-1.7-1.7
		C417.1,134.1,417.8,133.4,418.8,133.4z"/>
	<path fill="#E6864E" d="M405.8,122.9c0.4-0.3,0.9-0.6,1.4-0.3c0.5,0.4,1,0.7,1.1,1.3c0.1,0.9-0.3,1.7-1.1,2c-0.7,0.3-1.6-0.1-2-0.7
		C404.8,124.4,404.9,123.5,405.8,122.9z"/>
	<path fill="#CE786D" d="M479.6,85.3c0.9,0,1.7,0.8,1.7,1.7c0,0.9-0.9,1.7-1.7,1.7c-1,0-1.8-0.8-1.8-1.8
		C477.7,86.1,478.6,85.3,479.6,85.3z"/>
	<path fill="#CF7C70" d="M476.6,166.8c-1,0-1.7-0.7-1.7-1.7c0-1,0.8-1.7,1.7-1.7c0.9,0,1.7,0.8,1.7,1.7
		C478.4,166.1,477.6,166.8,476.6,166.8z"/>
	<path fill="#CE7C71" d="M512.4,84.6c0.9,0,1.7,0.7,1.7,1.6c0,0.9-0.8,1.7-1.7,1.7c-0.9,0-1.7-0.7-1.7-1.7
		C510.7,85.3,511.5,84.6,512.4,84.6z"/>
	<path fill="#749073" d="M439.5,135.5c-0.9,0-1.6-0.7-1.6-1.6c0-0.9,0.9-1.7,1.7-1.7c0.9,0,1.7,0.8,1.7,1.7
		C441.1,134.8,440.5,135.5,439.5,135.5z"/>
	<path fill="#CE796D" d="M431,172.4c0-1.1,0.7-1.7,1.7-1.7s1.7,0.7,1.7,1.7c0,0.9-0.7,1.6-1.6,1.6C431.8,174,431,173.4,431,172.4z"
		/>
	<path fill="#E7A946" d="M443.3,102L443.3,102c0,0.3,0,0.7,0,1.1c-0.1,0.9-0.8,1.5-1.7,1.5c-0.9,0-1.6-0.8-1.6-1.7
		c0-0.9,0.6-1.5,1.5-1.6C442.4,101.2,442.8,101.8,443.3,102z"/>
	<path fill="#B86763" d="M447.2,158.6c0,0.9-0.8,1.7-1.7,1.7c-0.9,0-1.6-0.7-1.6-1.6c0-0.9,0.7-1.7,1.6-1.7
		C446.3,157,447.2,157.7,447.2,158.6z"/>
	<path fill="#E6834C" d="M363.2,74.7c0,0.9-0.8,1.6-1.7,1.6c-0.9,0-1.7-0.8-1.7-1.7c0-0.8,0.9-1.6,1.7-1.6
		C362.4,73.1,363.2,73.8,363.2,74.7z"/>
	<path fill="#B66562" d="M362.6,69.2c0,0.9-0.8,1.5-1.7,1.5c-0.8,0-1.6-0.8-1.6-1.5c0-1,0.8-1.8,1.8-1.8
		C362,67.6,362.7,68.3,362.6,69.2z"/>
	<path fill="#B36461" d="M355.5,64.8c0.9,0,1.7,0.7,1.7,1.7c0,0.9-0.8,1.7-1.7,1.7c-0.9,0-1.7-0.8-1.7-1.7
		C353.9,65.6,354.7,64.8,355.5,64.8z"/>
	<path fill="#739173" d="M380.5,125.5c-0.1-0.1-0.3-0.2-0.5-0.3c-0.1-0.5-0.3-0.9-0.2-1.3c0.1-0.8,0.6-1.3,1.4-1.4
		c0.3-0.1,0.7,0,0.5-0.5c0.1,0,0.3,0,0.4,0.1c-0.3,0.2-0.1,0.3,0.1,0.5c0.9,0.7,1.1,1.3,0.7,2.2c-0.3,0.8-1.1,1-2.2,0.7
		C380.7,125.5,380.6,125.5,380.5,125.5z"/>
	<path fill="#E7AA47" d="M430.6,102.6c-0.1,0.1-0.1,0.3-0.2,0.5c-0.7,0.9-1.7,1.1-2.5,0.5s-0.8-1.7-0.1-2.4c0.5-0.5,1.1-0.6,1.8-0.3
		C430.4,101.1,430.7,101.8,430.6,102.6z"/>
	<path fill="#DFA787" d="M341.3,96.5c0,0.9-0.7,1.6-1.5,1.6c-0.9,0-1.7-0.8-1.7-1.7c0-0.8,0.8-1.5,1.6-1.5
		C340.7,94.9,341.3,95.5,341.3,96.5z"/>
	<path fill="#CE7A6E" d="M409.5,12.3c0,0.9-0.7,1.6-1.7,1.6c-0.8,0-1.5-0.7-1.5-1.6s0.7-1.5,1.7-1.5
		C408.8,10.7,409.5,11.4,409.5,12.3z"/>
	<path fill="#769272" d="M446.8,97.6c-0.4,0.1-0.8,0-1.2-0.1c-0.3-0.4-0.8-0.7-0.8-1.4c0-0.7,0.5-1.5,1.2-1.6
		c0.7-0.2,1.4,0.1,1.8,0.7c0.4,0.7,0.3,1.4-0.3,1.9C447.2,97.3,447,97.5,446.8,97.6z"/>
	<path fill="#728E70" d="M414.2,78.2c0,0.9-0.8,1.5-1.6,1.5c-0.9,0-1.5-0.8-1.5-1.7c0-0.9,0.7-1.5,1.5-1.5
		C413.5,76.5,414.2,77.3,414.2,78.2z"/>
	<path fill="#B86763" d="M438.9,171.1c0,0.9-0.7,1.5-1.7,1.5c-0.8,0-1.5-0.7-1.5-1.5c0-0.9,0.8-1.6,1.7-1.5
		C438.3,169.5,439,170.3,438.9,171.1z"/>
	<path fill="#B3635C" d="M363.9,82.9c0.1,0,0.1,0,0.2,0c1.3,0.8,1.5,2.2,0.4,2.8c-0.6,0.4-1.2,0.4-1.8-0.1c-0.5-0.4-0.8-0.9-0.6-1.6
		c0.2-0.7,0.7-1.1,1.5-1.1C363.7,83,363.7,82.9,363.9,82.9z"/>
	<path fill="#DEA587" d="M420.6,85.3c0,1-0.5,1.6-1.4,1.6c-1,0-1.7-0.6-1.7-1.5c0-1,0.6-1.6,1.6-1.6C420,83.8,420.6,84.4,420.6,85.3
		z"/>
	<path fill="#699C76" d="M447.3,138.3c0-0.9,0.6-1.5,1.5-1.5c0.9,0,1.5,0.7,1.5,1.5s-0.7,1.6-1.6,1.6
		C448,139.9,447.3,139.2,447.3,138.3z"/>
	<path fill="#CE796E" d="M362.9,95.6c0,0.9-0.7,1.5-1.6,1.5c-0.7-0.1-1.5-0.8-1.5-1.5c0-0.8,0.8-1.5,1.7-1.5
		C362.4,94.1,362.9,94.7,362.9,95.6z"/>
	<path fill="#DFA587" d="M473.3,167.9c0,0.9-0.7,1.5-1.6,1.5c-0.8,0-1.5-0.7-1.5-1.5c0-0.9,0.7-1.5,1.5-1.5
		C472.6,166.3,473.3,167,473.3,167.9z"/>
	<path fill="#CF7B6F" d="M494,71.6c0,0.8-0.7,1.5-1.4,1.5c-0.9,0-1.6-0.6-1.7-1.4c-0.1-0.9,0.7-1.6,1.6-1.6
		C493.4,70.1,494,70.8,494,71.6z"/>
	<path fill="#DFA587" d="M502.6,60c-0.9,0-1.5-0.7-1.6-1.5c0-0.7,0.7-1.5,1.5-1.5c0.8,0,1.6,0.8,1.6,1.7
		C504.1,59.4,503.6,60,502.6,60z"/>
	<path fill="#A1AB6C" d="M390.3,54.8c0.9,0,1.5,0.5,1.5,1.3c0,0.9-0.7,1.6-1.6,1.6c-0.7,0-1.4-0.7-1.5-1.4
		C388.7,55.4,389.3,54.8,390.3,54.8z"/>
	<path fill="#E5A848" d="M416.1,59.3c-0.8,0-1.5-0.7-1.5-1.5c0-0.7,0.8-1.5,1.5-1.4c0.8,0,1.5,0.7,1.5,1.5
		C417.7,58.7,417,59.3,416.1,59.3z"/>
	<path fill="#E4AC45" d="M453.2,128.2c-0.9,0-1.4-0.5-1.4-1.5c0-0.9,0.5-1.4,1.4-1.5c0.9,0,1.5,0.6,1.5,1.5
		C454.7,127.6,454.1,128.2,453.2,128.2z"/>
	<path fill="#E6824B" d="M432.4,78.6c0.5,0.5,0.3,1.1,0.3,1.8c-0.5,0.9-1.2,1.1-2,0.7c-0.7-0.3-0.9-1.3-0.6-2
		C430.5,78.3,431.3,78.1,432.4,78.6z"/>
	<path fill="#B56863" d="M421.9,138.8c0,0.9-0.6,1.5-1.5,1.4c-0.9,0-1.5-0.7-1.5-1.6c0-0.9,0.7-1.4,1.5-1.4
		C421.4,137.4,422,138,421.9,138.8z"/>
	<path fill="#DDA386" d="M473.1,117.4c0-0.8,0.7-1.4,1.5-1.4c0.8,0,1.5,0.7,1.5,1.5c0,0.7-0.8,1.5-1.5,1.5
		C473.9,119,473.1,118.3,473.1,117.4z"/>
	<path fill="#CC776D" d="M366.9,121.9c0,0.7,0.2,1.3,0.7,1.9c-0.3,0-0.3,0.2-0.5,0.4c-0.5,0.8-1.3,1-2,0.7c-0.6-0.3-0.9-1.1-0.7-1.7
		c0.2-0.7,0.9-1.1,1.8-0.9C366.5,122.3,366.8,122.4,366.9,121.9z"/>
	<path fill="#DEA385" d="M464.9,162c0.7,0,1.3,0.7,1.3,1.5s-0.7,1.4-1.4,1.4c-0.8,0-1.5-0.7-1.5-1.5C463.4,162.5,464,162,464.9,162z
		"/>
	<path fill="#CD7A6F" d="M373.5,151.2c0,0.9-0.6,1.5-1.4,1.5c-0.7,0-1.5-0.6-1.5-1.4c0-0.7,0.7-1.5,1.5-1.5
		C372.8,149.7,373.5,150.4,373.5,151.2z"/>
	<path fill="#E0A788" d="M430.2,181.7c0.9,0,1.5,0.5,1.4,1.3c0,0.7-0.9,1.6-1.5,1.5c-0.8-0.1-1.5-0.7-1.5-1.5
		C428.6,182.3,429.2,181.7,430.2,181.7z"/>
	<path fill="#DC9F82" d="M430.6,67.8c0,0.8-0.7,1.5-1.4,1.5c-0.7,0-1.5-0.8-1.5-1.6c0-0.7,0.8-1.4,1.4-1.4
		C430,66.4,430.6,67,430.6,67.8z"/>
	<path fill="#E08950" d="M465.7,128c0.3,0.1,0.7,0.2,1,0.3c0.1,0.3,0.2,0.5,0.3,0.8c0.2,0.7-0.2,1.5-0.9,1.8
		c-0.6,0.2-1.5-0.3-1.7-0.9c-0.3-0.7,0.1-1.5,0.8-1.8C465.3,128.1,465.5,128,465.7,128z"/>
	<path fill="#DFA486" d="M496.8,147c-0.8,0-1.4-0.7-1.4-1.5c0-0.7,0.7-1.4,1.4-1.4c0.8,0,1.5,0.8,1.5,1.5
		C498.3,146.4,497.6,147,496.8,147z"/>
	<path fill="#B46460" d="M377.2,89.9c0.8,0,1.4,0.6,1.4,1.4c0,0.7-0.6,1.3-1.4,1.4c-0.8,0-1.4-0.6-1.4-1.4
		C375.9,90.5,376.4,89.9,377.2,89.9z"/>
	<path fill="#CD776D" d="M352.5,78.6c-0.8,0-1.5-0.7-1.5-1.4c0-0.7,0.7-1.4,1.4-1.4c0.8,0,1.4,0.7,1.4,1.4
		C353.8,78,353.2,78.6,352.5,78.6z"/>
	<path fill="#DEA184" d="M478.1,106.9c0.5-0.3,0.7-0.7,0.9-1.3c0.1,0.5,0.4,0.3,0.7,0.2c0.7-0.1,1.2,0.1,1.5,0.7
		c0.3,0.6,0.3,1.1-0.2,1.6c-0.5,0.5-1.1,0.5-1.7,0.2c-0.3-0.2-0.6-0.5-0.6-0.9C478.7,106.9,478.4,106.9,478.1,106.9z"/>
	<path fill="#D7A383" d="M456.9,97.3c0,0.3,0.2,0.4,0.4,0.6c0.6,0.6,0.7,1.3,0.1,1.9c-0.5,0.5-1.3,0.7-1.9,0.3s-0.7-1.3-0.3-2
		c0.1-0.2,0.3-0.4,0.4-0.6C456.1,97.3,456.5,97.1,456.9,97.3z"/>
	<path fill="#708E6F" d="M439.6,68c0,0.9-0.5,1.4-1.3,1.4c-0.7,0-1.3-0.6-1.3-1.3c0-0.7,0.6-1.5,1.3-1.5
		C439,66.7,439.6,67.3,439.6,68z"/>
	<path fill="#769071" d="M456.9,97.3c-0.4,0.1-0.8,0.5-1.2,0.1c-0.3-0.3-0.6-0.4-0.7-0.8c-0.2-0.7-0.1-1.3,0.4-1.7
		c0.5-0.4,1.3-0.3,1.7,0.1c0.5,0.5,0.6,1.1,0.2,1.7C457.2,96.9,457,97.1,456.9,97.3z"/>
	<path fill="#DEA386" d="M472.1,144.3c0,0.9-0.5,1.3-1.4,1.3c-0.8,0-1.3-0.6-1.3-1.4c0-0.7,0.7-1.4,1.5-1.3
		C471.6,142.9,472.1,143.5,472.1,144.3z"/>
	<path fill="#DFA385" d="M471,155.8c0.1-0.8,0.7-1.3,1.5-1.3c0.7,0.1,1.3,0.7,1.3,1.5c-0.1,0.7-0.7,1.3-1.4,1.3
		C471.5,157.2,470.9,156.5,471,155.8z"/>
	<path fill="#DDA587" d="M394.9,121.5c0,0.7-0.7,1.4-1.5,1.3c-0.7-0.1-1.3-0.6-1.3-1.5c0-0.7,0.6-1.3,1.3-1.3
		C394.2,120.1,394.9,120.8,394.9,121.5z"/>
	<path fill="#B76A65" d="M454.2,16.4c-0.1,0.1-0.1,0.1-0.2,0.2c-1,0.8-2.2,0.5-2.4-0.5c-0.2-0.7,0.3-1.5,1-1.7
		c0.8-0.2,1.5,0.3,1.7,1.2C454.2,15.9,454.2,16.2,454.2,16.4z"/>
	<path fill="#DCA284" d="M500.7,117c-0.7,0-1.3-0.6-1.3-1.3s0.7-1.5,1.4-1.5c0.6,0,1.3,0.7,1.3,1.4C502.2,116.2,501.4,117,500.7,117
		z"/>
	<path fill="#DDA585" d="M492.6,121.1c-0.7,0-1.5-0.7-1.5-1.4c0-0.6,0.7-1.3,1.4-1.3c0.6-0.1,1.4,0.7,1.5,1.4
		C493.9,120.5,493.3,121.1,492.6,121.1z"/>
	<path fill="#B56560" d="M409,111.8c0,0.3,0,0.5,0,0.7c-0.6,1.1-1.7,1.4-2.3,0.6c-0.5-0.6-0.4-1.5,0.3-1.9c0.5-0.5,1.5-0.3,1.9,0.3
		C408.9,111.5,409,111.7,409,111.8z"/>
	<path fill="#D99E80" d="M426.6,53.8c0.2-0.3,0.5-0.6,0.9-0.7c0,0.3,0.2,0.3,0.4,0.3c1.1,0.2,1.5,0.9,1.1,1.9
		c-0.2,0.5,0.1,0.4,0.3,0.5c-0.4,0.1-0.7,0.5-1.1,0.5v-0.1C427,55.8,426.6,55,426.6,53.8z"/>
	<path fill="#DEA486" d="M500.9,79.4c-0.7,0-1.3-0.6-1.3-1.4c0-0.8,0.5-1.3,1.3-1.3c0.7,0,1.4,0.7,1.4,1.4
		C502.4,78.6,501.6,79.4,500.9,79.4z"/>
	<path fill="#DEA384" d="M495,71.9c0-0.7,0.6-1.4,1.1-1.4c0.8-0.1,1.6,0.7,1.6,1.4c0,0.5-0.8,1.4-1.3,1.3
		C495.8,73.2,494.9,72.7,495,71.9z"/>
	<path fill="#E9A642" d="M432.5,116c0,0.7-0.5,1.3-1.3,1.3c-0.7,0-1.4-0.6-1.4-1.3s0.6-1.3,1.3-1.3C432,114.6,432.5,115.2,432.5,116
		z"/>
	<path fill="#DEA485" d="M415.5,132.1c0.2,0,0.3,0.1,0.3,0.3c0,0.2,0,0.5,0.1,0.6c0.3,0.8,0.1,1.4-0.7,1.9c-0.1,0.1-0.3,0.1-0.3,0.4
		c-0.9-0.2-1.7-0.1-2.6-0.1c0.5-0.3,1.1,0,1.7-0.3c-0.1-0.1-0.1-0.2-0.1-0.3c-0.4-0.5-0.5-1.1-0.1-1.6c0.3-0.5,0.9-0.6,1.5-0.5
		C415.7,132.6,415.6,132.3,415.5,132.1z"/>
	<path fill="#E8AC4E" d="M450.3,103.2c0,0.7-0.5,1.3-1.2,1.3c-0.7,0-1.3-0.5-1.3-1.3c0-0.7,0.6-1.4,1.3-1.4
		C449.8,101.9,450.3,102.5,450.3,103.2z"/>
	<path fill="#B66763" d="M495,133.9c-0.1,0.8-0.6,1.3-1.3,1.3c-0.7,0-1.3-0.7-1.3-1.5c0.1-0.7,0.7-1.2,1.4-1.2
		C494.5,132.6,495,133.2,495,133.9z"/>
	<path fill="#DCA384" d="M417.9,76c0,0.7-0.7,1.3-1.4,1.2c-0.7,0-1.3-0.5-1.3-1.3c0-0.7,0.7-1.3,1.4-1.3
		C417.2,74.6,417.9,75.3,417.9,76z"/>
	<path fill="#749073" d="M421,116.1c-0.7,0-1.2-0.7-1.2-1.3c0-0.7,0.5-1.3,1.3-1.3c0.7,0,1.3,0.6,1.3,1.3
		C422.4,115.5,421.8,116.1,421,116.1z"/>
	<path fill="#DDA285" d="M459,144.1c0-0.4,0-0.9,0-1.3c0.1,0.7,0.4,0.8,0.9,0.3s1.3-0.3,1.8,0.5c0.1,0.2,0.1,0.6,0.6,0.5
		c0.1,0.2-0.1,0.4-0.1,0.5c-0.3-0.1-0.5,0.1-0.6,0.3c-0.9,0.7-1.5,0.6-2.1-0.3C459.4,144.3,459.4,144.1,459,144.1z"/>
	<path fill="#DCA587" d="M473.3,95.4c0,0.7-0.6,1.3-1.3,1.3c-0.7,0-1.3-0.6-1.3-1.3c0-0.7,0.6-1.3,1.3-1.3
		C472.7,94.1,473.3,94.7,473.3,95.4z"/>
	<path fill="#DDA285" d="M490,61.3c0.7,0,1.3,0.6,1.3,1.3c0,0.8-0.6,1.3-1.4,1.3c-0.7,0-1.2-0.6-1.1-1.3
		C488.7,61.8,489.3,61.2,490,61.3z"/>
	<path fill="#D7A081" d="M466.1,74.1c-0.7,0-1.3-0.6-1.2-1.3c0-0.7,0.7-1.3,1.3-1.3c0.7,0,1.3,0.7,1.3,1.3
		C467.4,73.6,466.8,74.1,466.1,74.1z"/>
	<path fill="#DEA485" d="M482.6,141.9c0-0.2,0-0.3,0-0.5c0.3,0.4,0.4,0.4,0.7-0.1c0.5-0.8,1.3-1,1.9-0.6c0.5,0.3,0.7,0.9,0.5,1.4
		c-0.1,0.6-0.5,0.9-1.1,0.9c-0.5,0.1-0.9-0.2-1.3-0.7C483,142.2,483,141.7,482.6,141.9z"/>
	<path fill="#E0A787" d="M342.5,118.4c0.1,0,0.3,0.1,0.3,0.2c-0.4,0.4,0.1,0.5,0.3,0.7c0.3,0.5,0.4,1,0.1,1.4
		c-0.3,0.4-0.7,0.9-1.2,0.7c-0.5-0.1-1-0.4-1.2-1c-0.1-0.6,0.3-1.4,1-1.5C342.1,118.8,342.4,118.8,342.5,118.4z"/>
	<path fill="#A1AA6C" d="M429.4,140.4c0,0.7-0.7,1.3-1.3,1.3c-0.7,0-1.3-0.6-1.3-1.3c0-0.7,0.6-1.3,1.3-1.3
		C428.7,139.2,429.4,139.8,429.4,140.4z"/>
	<path fill="#CC786D" d="M390.5,40c0-0.7,0.5-1.1,1.3-1.1c0.7,0,1.3,0.5,1.3,1.1c0,0.7-0.5,1.4-1.3,1.4
		C391.1,41.5,390.5,40.9,390.5,40z"/>
	<path fill="#DFA486" d="M414,91.3c0.7,0,1.3,0.5,1.3,1.2c0,0.7-0.7,1.4-1.4,1.4c-0.7-0.1-1.2-0.7-1.2-1.4
		C412.7,91.8,413.3,91.3,414,91.3z"/>
	<path fill="#DEA486" d="M466.8,151.8c-0.5,0-1.3-0.7-1.3-1.3c0-0.7,0.7-1.4,1.3-1.3c0.7,0.1,1.4,0.7,1.3,1.3
		C468.2,151.2,467.5,151.8,466.8,151.8z"/>
	<path fill="#DEA587" d="M345.2,107.1c0-0.6,0.7-1.3,1.3-1.3c0.5,0,1.3,0.8,1.3,1.4c0,0.5-0.8,1.3-1.3,1.3
		C345.8,108.5,345.2,107.9,345.2,107.1z"/>
	<path fill="#DDA585" d="M499.7,105.2c0.1-0.2,0.3-0.3,0.5-0.5c-0.1,0.5,0.2,0.5,0.6,0.3c0.9-0.3,1.8,0.5,1.6,1.4
		c-0.1,0.7-0.8,1.1-1.5,1c-0.7-0.1-1.1-0.8-0.9-1.6C500,105.6,500.3,105.2,499.7,105.2z"/>
	<path fill="#DCA387" d="M348.4,91.6c0.8,0,1.3,0.5,1.3,1.3c0,0.7-0.7,1.3-1.3,1.3c-0.7,0-1.3-0.7-1.3-1.3
		C347.1,92.1,347.6,91.6,348.4,91.6z"/>
	<path fill="#DB9F82" d="M495.3,96.1c0-0.6,0.7-1.3,1.3-1.3s1.3,0.8,1.3,1.4c0,0.7-0.7,1.3-1.3,1.3C496,97.5,495.2,96.8,495.3,96.1z
		"/>
	<path fill="#DEA285" d="M447.7,153.8c0.6,0,1.2,0.6,1.2,1.3c0,0.8-0.6,1.3-1.4,1.3c-0.5,0-1.2-0.7-1.2-1.3
		C446.4,154.4,447,153.8,447.7,153.8z"/>
	<path fill="#DDA386" d="M402.9,38.5c-0.5-0.3-0.6-0.9-1.1-1.1c0.5-0.1,0.3-0.5,0.4-0.9c0.3-0.7,0.7-1,1.4-0.9
		c0.6,0.1,1,0.7,0.9,1.5c-0.1,0.7-0.6,0.9-1.1,0.9C403.1,38.1,402.9,38.1,402.9,38.5z"/>
	<path fill="#DDA588" d="M374.6,52c0.2-0.1,0.5-0.1,0.7-0.1c-0.1,0.4,0.1,0.5,0.4,0.7c0.7,0.5,0.9,1.3,0.3,1.8
		c-0.5,0.5-1.3,0.5-1.8,0.1c-0.6-0.6-0.6-1.3,0-1.9C374.4,52.4,374.6,52.2,374.6,52z"/>
	<path fill="#DCA285" d="M473.9,135.2c0.9,0,1.5,0.5,1.4,1.3c0,0.6-0.7,1.3-1.3,1.3c-0.7,0-1.3-0.7-1.3-1.4
		C472.7,135.8,473.3,135.2,473.9,135.2z"/>
	<path fill="#DFA888" d="M508,74.1c0-0.7,0.5-1.3,1.1-1.3c0.7,0,1.3,0.6,1.3,1.3s-0.5,1.3-1.2,1.3C508.5,75.4,508,74.9,508,74.1z"/>
	<path fill="#B36660" d="M395.9,85c0,0.6-0.6,1.2-1.3,1.2c-0.7,0-1.3-0.5-1.3-1.2s0.5-1.2,1.3-1.2C395.4,83.7,395.9,84.3,395.9,85z"
		/>
	<path fill="#E4854E" d="M469.5,51.3c-0.7,0-1.3-0.5-1.3-1.1c0-0.7,0.5-1.3,1.2-1.3c0.7,0,1.3,0.5,1.3,1.1
		C470.8,50.6,470.2,51.3,469.5,51.3z"/>
	<path fill="#CC7A6E" d="M451.1,61.7c0-0.7,0.5-1.3,1.2-1.3c0.7,0,1.3,0.7,1.3,1.3c0,0.6-0.7,1.2-1.3,1.2
		C451.7,62.9,451.1,62.3,451.1,61.7z"/>
	<path fill="#DBA081" d="M423,43c0,0.7-0.5,1.3-1.2,1.3c-0.6,0-1.2-0.7-1.2-1.3s0.5-1.2,1.2-1.3C422.5,41.8,423,42.3,423,43z"/>
	<path fill="#CD7C72" d="M353.9,68.9c0,0.7-0.5,1.3-1.3,1.2c-0.7,0-1.1-0.5-1.1-1.1c0-0.7,0.5-1.3,1.2-1.3
		C353.3,67.7,353.9,68.2,353.9,68.9z"/>
	<path fill="#DCA286" d="M401.9,14.6c-0.6,0-1.3-0.6-1.3-1.1c0-0.7,0.7-1.3,1.5-1.3c0.5,0,1.1,0.7,1.1,1.3
		C403.2,14.1,402.6,14.6,401.9,14.6z"/>
	<path fill="#799475" d="M393.9,95.9c-0.1-0.1-0.3-0.1-0.4-0.3c-0.1-0.3-0.2-0.6-0.2-0.9c0-0.7,0.5-1.1,1.1-1.2
		c0.7,0,1.2,0.4,1.3,1.1c0.1,0.6-0.4,1.2-1,1.3C394.4,96,394.1,95.9,393.9,95.9z"/>
	<path fill="#DEA586" d="M362,57.9c0,0.7-0.6,1.2-1.2,1.2c-0.7,0-1.2-0.6-1.2-1.2c0-0.7,0.6-1.2,1.3-1.2
		C361.6,56.7,362.1,57.2,362,57.9z"/>
	<path fill="#DBA284" d="M436.6,72.3c0,0.7-0.5,1.1-1.3,1.1c-0.7,0-1.2-0.7-1.2-1.3c0.1-0.6,0.7-1.1,1.3-1.1
		C436.1,71.1,436.6,71.7,436.6,72.3z"/>
	<path fill="#DDA285" d="M479.3,149.6c0.7,0,1.2,0.5,1.1,1.2c0,0.5-0.7,1.2-1.3,1.2c-0.6,0-1.2-0.7-1.2-1.3
		C478.1,150,478.6,149.6,479.3,149.6z"/>
	<path fill="#DEA588" d="M454.5,146.3c0.6,0,1.2,0.5,1.2,1.1c0,0.7-0.5,1.3-1.1,1.3c-0.7,0-1.3-0.5-1.3-1.3
		C453.3,146.8,453.8,146.3,454.5,146.3z"/>
	<path fill="#CE796D" d="M373.9,109.1c-0.7,0-1.3-0.5-1.3-1.1c0-0.7,0.5-1.3,1.2-1.3c0.7,0,1.2,0.5,1.2,1.2
		C375.1,108.5,374.5,109.1,373.9,109.1z"/>
	<path fill="#DDA386" d="M440.1,165.7c0,0.8-0.4,1.3-1.1,1.3c-0.6,0-1.2-0.6-1.3-1.1c0-0.7,0.6-1.3,1.3-1.3
		C439.7,164.6,440.1,165,440.1,165.7z"/>
	<path fill="#CE7C70" d="M353.8,126.8c0.1-0.7,0.7-1.1,1.3-1.1c0.6,0.1,1.1,0.6,1,1.2c-0.1,0.7-0.6,1.2-1.2,1.2
		C354.3,128.1,353.7,127.5,353.8,126.8z"/>
	<path fill="#E0A788" d="M347.7,56c0-0.7,0.5-1.3,1.1-1.3c0.7,0,1.2,0.5,1.3,1.1s-0.6,1.3-1.3,1.3C348.3,57.2,347.7,56.7,347.7,56z"
		/>
	<path fill="#DEA486" d="M428.3,177c0-0.7,0.5-1.2,1.1-1.3c0.7,0,1.3,0.5,1.3,1.2c0,0.5-0.7,1.2-1.2,1.2
		C428.9,178.2,428.3,177.6,428.3,177z"/>
	<path fill="#E9AD4D" d="M387.8,20.4c-0.3-0.1-0.6-0.1-0.9-0.2c-0.5-0.5-0.5-0.9-0.2-1.5c0.3-0.5,0.7-0.7,1.2-0.5
		c0.6,0.1,0.9,0.5,0.9,1.1C388.8,20,388.5,20.3,387.8,20.4z"/>
	<path fill="#DEA688" d="M358.8,151.6c0,0.6-0.6,1.2-1.1,1.2c-0.5,0-1.1-0.7-1.1-1.3s0.6-1.1,1.2-1.1S358.9,151,358.8,151.6z"/>
	<path fill="#DCA284" d="M499.8,121.5c0.2-0.3,0.4-0.5,0.6-0.8c0.1,0.5,0.3,0.3,0.6,0.2c0.7-0.2,1.4,0.2,1.5,0.9
		c0.1,0.5-0.4,1.1-1,1.3s-1.1-0.3-1.3-1C500.2,121.7,500.3,121.3,499.8,121.5z"/>
	<path fill="#DCA082" d="M433.4,41.6c0-0.6,0.6-1.2,1.1-1.2c0.6,0,1.1,0.6,1.1,1.2c0,0.7-0.5,1.2-1.1,1.2
		C434,42.7,433.4,42.2,433.4,41.6z"/>
	<path fill="#DEA787" d="M415.9,96.1c0,0.6-0.7,1.2-1.3,1.1c-0.6,0-1-0.5-1-1.2c0-0.6,0.5-1.2,1.1-1.2
		C415.3,94.9,415.9,95.5,415.9,96.1z"/>
	<path fill="#DDA586" d="M448.3,108.5c-0.2-0.1-0.5-0.1-0.7-0.3c0.3-0.3,0.1-0.6,0-0.9c-0.3-0.7-0.1-1.1,0.7-1.3
		c0.6-0.2,1.1,0.1,1.4,0.8c0.2,0.5-0.2,1-0.8,1.3C448.7,108.1,448.2,107.9,448.3,108.5z"/>
	<path fill="#DCA082" d="M429,47.8c0,0.7-0.5,1.2-1.1,1.2c-0.6,0-1.1-0.6-1.1-1.2s0.6-1.2,1.2-1.1C428.5,46.7,429,47.2,429,47.8z"/>
	<path fill="#DBA586" d="M378.1,51.8c0.6,0,1.1,0.5,1.1,1.1c0,0.6-0.6,1.2-1.2,1.1c-0.7,0-1.2-0.6-1.1-1.3
		C376.9,52.2,377.5,51.7,378.1,51.8z"/>
	<path fill="#DCA386" d="M393.2,21.3c0.7,0,1.3,0.5,1.1,1.2c-0.1,0.6-0.5,1-1.1,1.1c-0.7,0-1.2-0.5-1.2-1.2
		C392.1,21.7,392.6,21.3,393.2,21.3z"/>
	<path fill="#DDA384" d="M422.8,33.4c0.6,0,1.2,0.5,1.2,1.1c0,0.5-0.6,1.1-1.1,1.1c-0.6,0-1.2-0.6-1.2-1.2
		C421.6,33.9,422.2,33.4,422.8,33.4z"/>
	<path fill="#DBA285" d="M408.4,40.5c0,0.6-0.5,1.1-1.1,1.1s-1.2-0.5-1.2-1.2c0-0.6,0.5-1.1,1.1-1.1
		C407.9,39.3,408.4,39.8,408.4,40.5z"/>
	<path fill="#DEA485" d="M413.7,36.5c0.6,0,1.2,0.6,1.2,1.1c0,0.6-0.5,1.1-1.2,1.1c-0.7,0-1.1-0.5-1.1-1.1
		C412.5,37,413.1,36.4,413.7,36.5z"/>
	<path fill="#DCA586" d="M379.9,47.9c0.6,0,1.1,0.6,1.1,1.1c0,0.6-0.6,1.1-1.2,1.1c-0.5,0-1.1-0.7-1.1-1.1
		C378.7,48.3,379.2,47.9,379.9,47.9z"/>
	<path fill="#D8A283" d="M437.9,65c0,0.6-0.7,1.3-1.1,1.2c-0.6-0.1-1-0.5-1.1-1.1c-0.1-0.7,0.5-1.1,1.1-1.1
		C437.3,64,437.9,64.5,437.9,65z"/>
	<path fill="#DDA286" d="M420,169.8c0.6,0,1.2,0.5,1.2,1.2c0,0.5-0.6,1.1-1.1,1.1c-0.5,0-1.3-0.7-1.2-1.1
		C418.9,170.3,419.4,169.8,420,169.8z"/>
	<path fill="#DBA585" d="M447.2,53.2c-0.1,0.2-0.2,0.5-0.5,0.6c-0.1-0.6-0.5-0.1-0.7-0.1c-0.5,0-1-0.1-1.2-0.7
		c-0.1-0.5,0-1.1,0.5-1.3c0.5-0.2,1.1-0.2,1.4,0.3c0.1,0.2,0.1,0.5,0.1,0.7C446.8,52.9,446.8,53.2,447.2,53.2z"/>
	<path fill="#A0AC71" d="M458.6,91.6c0,0.6-0.5,1.1-1.1,1.1c-0.6,0-1.1-0.5-1.1-1c0-0.6,0.5-1.1,1.1-1.1
		C458,90.5,458.6,91,458.6,91.6z"/>
	<path fill="#DCA185" d="M426.9,167.3c-0.6,0-1.1-0.5-1.1-1.1s0.6-1.1,1.1-1.1c0.5,0,1.2,0.7,1.1,1.1
		C428.1,166.8,427.5,167.3,426.9,167.3z"/>
	<path fill="#DDA586" d="M409.2,159.2c0-0.6,0.5-1.1,1.1-1.1c0.6,0,1.2,0.6,1.1,1.1c0,0.5-0.7,1.1-1.1,1.1
		C409.8,160.4,409.2,159.8,409.2,159.2z"/>
	<path fill="#DBA283" d="M453.8,49.7c0,0.7-0.4,1.2-1.1,1.2s-1.1-0.4-1.1-1.1c0-0.6,0.5-1.1,1.1-1.2
		C453.3,48.7,453.8,49.1,453.8,49.7z"/>
	<path fill="#DAA184" d="M426.7,162c0.3-0.2,0.6-0.1,0.9-0.3c-0.2,0.5,0.2,0.5,0.5,0.7c0.4,0.2,0.7,0.5,0.6,1.1
		c-0.1,0.5-0.4,0.7-0.9,0.9c-0.4,0.1-0.7-0.1-1-0.4c-0.4-0.5-0.3-0.9,0.1-1.4C427,162.3,427.3,162.1,426.7,162z"/>
	<path fill="#A2A96C" d="M378.1,57.7c-0.1-0.5-0.3-0.9-0.7-1.3c0.3-0.1,0.4-0.3,0.5-0.5c0.3-0.5,0.8-0.5,1.3-0.3
		c0.5,0.2,0.7,0.7,0.6,1.1c-0.1,0.5-0.4,0.8-0.9,0.8C378.7,57.6,378.4,57.5,378.1,57.7z"/>
	<path fill="#DCA386" d="M371,44.6c-0.6,0-1-0.5-1-1.1s0.5-1.1,1.1-1.1c0.5,0,1.1,0.6,1.1,1.1C372,44.1,371.4,44.6,371,44.6z"/>
	<path fill="#DFA688" d="M481.2,121c0.3,0,0.6-0.2,0.9-0.3c-0.1,0.3-0.1,0.5,0.3,0.7c0.7,0.3,0.6,0.9,0.4,1.4s-0.9,0.7-1.3,0.4
		c-0.5-0.4-0.7-0.9-0.3-1.4C481.2,121.4,481.2,121.2,481.2,121z"/>
	<path fill="#DCA184" d="M371.5,38.2c0-0.6,0.5-1.1,1-1.1c0.5,0,1.1,0.5,1.1,1.1c0,0.6-0.5,1.1-1.1,1.1
		C371.8,39.1,371.6,38.8,371.5,38.2z"/>
	<path fill="#739073" d="M448.7,61.7c0,0.6-0.5,1.1-1.1,1.1c-0.5,0-1.1-0.5-1.1-1c0-0.5,0.5-1.1,1.1-1.1S448.7,61.1,448.7,61.7z"/>
	<path fill="#CB7B6E" d="M459.5,75.3c0.4,0,0.7,0.4,0.7,1c0,0.5-0.3,1-1,1c-0.7,0-1.1-0.4-1.1-1.1C458.1,75.8,458.5,75.3,459.5,75.3
		z"/>
	<path fill="#DAA486" d="M437.3,132.4c0,0.5-0.5,1.1-1.1,1.1c-0.7-0.1-1-0.5-1-1.1s0.3-1,0.9-1.1
		C436.8,131.3,437.3,131.9,437.3,132.4z"/>
	<path fill="#DCA286" d="M495.2,84.4c-0.5-0.1-0.8-0.5-0.8-1.1c0-0.6,0.5-1.1,1.1-1c0.5,0.1,1,0.7,1,1.1
		C496.5,83.9,495.9,84.4,495.2,84.4z"/>
	<path fill="#DCA284" d="M436.5,55.9c-0.3,0.1-0.5,0.1-0.9,0.2c-0.6,0.1-1.1-0.4-1.1-0.9c0-0.5,0.6-1.2,1.1-1.1
		c0.5,0.1,0.9,0.7,0.9,1.2C436.6,55.4,436.5,55.7,436.5,55.9C436.5,56,436.5,55.9,436.5,55.9z"/>
	<path fill="#DAA185" d="M437.4,158.1c-0.5-0.1-0.9-0.3-0.9-1c0-0.7,0.5-1.1,1-1.1c0.6,0.1,0.9,0.5,1.1,1.1
		C438.7,157.5,438,158.1,437.4,158.1z"/>
	<path fill="#E0A88A" d="M494,45.3c0,0.5-0.3,0.8-1,0.8c-0.7,0-0.9-0.4-1-1c-0.1-0.7,0.3-1,0.9-1.1C493.4,44,494,44.6,494,45.3z"/>
	<path fill="#DBA385" d="M419.6,143.1c0,0.2,0,0.5,0,0.7c-0.3-0.1-0.5,0.1-0.7,0.3c-0.7,0.5-1.5,0.2-1.5-0.7
		c-0.1-0.3-0.1-0.5-0.5-0.5c0.1-0.3,0.3-0.5,0.5-0.7c0,0.2,0.1,0.3,0.3,0.3c0.7-0.3,1.1-0.1,1.6,0.4
		C419.4,143.1,419.5,143.1,419.6,143.1z"/>
	<path fill="#DEA586" d="M400.1,144.5c-0.7,0.1-1-0.3-1.1-0.9c-0.1-0.5,0.5-1,1-1c0.5,0,1.1,0.5,1.1,0.9
		C401.3,143.9,400.7,144.5,400.1,144.5z"/>
	<path fill="#DFA687" d="M499.3,64c0.5,0,0.8,0.5,0.9,1c0.1,0.3-0.7,1.1-1.1,1c-0.5-0.1-0.9-0.4-1-1C498.1,64.4,498.6,64,499.3,64z"
		/>
	<path fill="#DFA98B" d="M506.8,66.7c-0.6,0-1.1-0.6-1.1-1.1c0-0.5,0.7-1.1,1.2-1c0.6,0.1,0.8,0.5,0.8,1.1
		C507.7,66.4,507.2,66.6,506.8,66.7z"/>
	<path fill="#DFA688" d="M411.7,30.1c0.5,0,1,0.5,1,1.1c-0.1,0.5-0.4,0.9-0.9,0.9c-0.5,0-1.1-0.3-1.1-0.9
		C410.8,30.5,411.1,30.1,411.7,30.1z"/>
	<path fill="#DDA689" d="M344.8,65.1c0.6,0,1.1,0.6,1.1,1.1c-0.1,0.6-0.5,0.9-1,0.9c-0.5,0-1.1-0.6-1-1.1
		C343.9,65.4,344.4,65.2,344.8,65.1z"/>
	<path fill="#B86964" d="M391.4,154.6c0-0.7,0.3-1,0.9-1.1c0.6,0,1,0.3,1,0.9s-0.4,1-0.9,1C391.8,155.5,391.5,155.1,391.4,154.6z"/>
	<path fill="#E3AC8C" d="M409.4,135.2c-0.1,0.5-0.3,0.9-0.9,1c-0.5,0-0.9-0.3-1-0.9c-0.1-0.5,0.5-1.1,1-1.1
		C409,134.3,409.2,134.7,409.4,135.2z"/>
	<path fill="#DDA386" d="M489.1,125.1c0.5,0,0.8,0.3,0.9,0.9c0.1,0.6-0.3,0.9-0.9,1c-0.5,0.1-1-0.5-1-1
		C488.1,125.6,488.5,125.1,489.1,125.1z"/>
	<path fill="#DFA788" d="M390.3,147.4c0.1-0.5,0.4-0.8,1-0.7c0.6,0,0.9,0.4,0.9,0.9c0.1,0.4-0.6,1-1.1,1
		C390.7,148.5,390.3,148,390.3,147.4z"/>
	<path fill="#DCA183" d="M475.7,93.2c0-0.5,0.3-0.9,0.9-0.9c0.7-0.1,0.9,0.4,1.1,0.9c0.1,0.4-0.5,1-1,0.9
		C476.1,94.2,475.8,93.9,475.7,93.2z"/>
	<path fill="#DBA586" d="M434.4,145.9c-0.7,0-1.1-0.4-1.1-0.9c0-0.6,0.4-1,0.9-1s0.9,0.4,0.9,0.9
		C435.3,145.5,434.8,145.9,434.4,145.9z"/>
	<path fill="#DDA485" d="M489.1,106.3c-0.1,0.5-0.4,0.9-0.9,0.9c-0.6,0-0.9-0.5-0.9-1c-0.1-0.5,0.4-0.9,0.9-0.9
		C488.7,105.2,489.1,105.7,489.1,106.3z"/>
	<path fill="#DAA283" d="M459.6,39.1c-0.1,0.5-0.3,0.9-0.9,0.9c-0.5,0-0.9-0.3-0.9-0.9s0.3-0.9,0.8-0.9
		C459.1,38.3,459.6,38.4,459.6,39.1z"/>
	<path fill="#DFA688" d="M370.8,100.6c-0.5-0.1-0.9-0.4-0.8-0.9c0.1-0.4,0.3-0.9,0.9-0.9c0.5,0,0.9,0.3,0.9,0.9
		C371.6,100.2,371.4,100.5,370.8,100.6z"/>
	<path fill="#DDA989" d="M384.4,102.8c0.5,0.1,1,0.3,1.1,0.9c0,0.5-0.3,0.9-0.9,0.9c-0.6,0-0.9-0.4-0.9-0.9
		C383.7,103.2,384.1,102.9,384.4,102.8z"/>
	<path fill="#DEA387" d="M504.2,91.4c0,0.5-0.4,0.7-0.9,0.7s-0.8-0.3-0.8-0.9c0-0.5,0.3-0.8,0.8-0.8
		C503.8,90.4,504.2,90.6,504.2,91.4z"/>
	<path fill="#E1A88A" d="M504,131.4c0.5,0.1,0.9,0.4,0.9,1c0,0.5-0.3,0.7-0.7,0.7c-0.5,0-0.9-0.3-0.9-0.9
		C503.3,131.8,503.6,131.5,504,131.4z"/>
	<path fill="#DBA183" d="M444.2,18c0.3-0.5,0.5-0.9,0.8-1.4c-0.1,0.3,0,0.6,0.4,0.7c0.3,0.1,0.7,0.4,0.7,0.8c0,0.3-0.2,0.6-0.5,0.7
		c-0.4,0.1-0.7-0.1-0.9-0.5C444.6,18,444.4,18,444.2,18z"/>
	<path fill="#DCA587" d="M400.2,29.2c-0.6,0.1-0.7-0.4-0.8-0.9c-0.1-0.5,0.3-0.7,0.7-0.7c0.5,0,0.9,0.4,0.9,0.9
		C401.1,29,400.7,29.2,400.2,29.2z"/>
	<path fill="#DCA587" d="M448,27.9c0.5,0,0.9,0.2,0.9,0.7c0,0.5-0.3,0.9-0.7,0.9c-0.5,0-0.9-0.3-0.9-0.7
		C447.3,28.3,447.5,28,448,27.9z"/>
	<path fill="#DEA486" d="M362.9,117.4c-0.1-0.7,0.2-1.4,0-2.1C363.5,116,363,116.7,362.9,117.4z"/>
</g>
</svg>
