<?xml version="1.0" encoding="utf-8"?>
<!-- Generator: Adobe Illustrator 17.1.0, SVG Export Plug-In . SVG Version: 6.00 Build 0)  -->
<!DOCTYPE svg PUBLIC "-//W3C//DTD SVG 1.1//EN" "http://www.w3.org/Graphics/SVG/1.1/DTD/svg11.dtd">
<svg version="1.1" id="Calque_1" xmlns="http://www.w3.org/2000/svg" xmlns:xlink="http://www.w3.org/1999/xlink" x="0px" y="0px"
	 viewBox="334 3.9 184 185.5" enable-background="new 334 3.9 184 185.5" xml:space="preserve">
<g>
	<path fill="#C26B64" d="M440.3,53.7c0,1.9-1.4,3.8-3.3,4.4c-0.3,0.1-0.7,0-0.7,0.3c-0.1,0.4,0.4,0.3,0.7,0.5
		c1.4,0.6,2.2,2.2,1.9,3.7c-0.4,1.6-1.7,2.5-3.3,2.4c-1.6-0.1-2.8-1.3-2.9-3c-0.1-1.5,0.9-2.9,2.4-3.4c0.2-0.1,0.5,0,0.5-0.3
		s-0.3-0.3-0.5-0.3c-2.1-0.3-3.6-2.3-3.6-4.5c0.1-2.3,1.7-4.1,4-4.4C437.9,48.9,440.3,51.1,440.3,53.7z"/>
	<path fill="#C77167" d="M492.6,87.8c2.5,0.9,3.8,3.4,3.4,5.9c-0.5,2.5-2.6,4.2-5.2,4.2c-2.1,0-4.2-1.5-4.9-3.5
		c-0.7-2.1-0.1-4.4,1.7-5.8c0.1-0.1,0.3-0.2,0.5-0.3c0.1-0.1,0.3-0.2,0.2-0.4c-0.1-0.1-0.2-0.1-0.3-0.1c-0.6,0.1-1-0.1-1.3-0.7
		c-0.3-0.6-0.1-1.1,0.3-1.5c0.5-0.5,1.1-0.3,1.5,0c0.5,0.3,0.5,0.8,0.4,1.3c-0.1,0.3-0.5,0.5-0.3,0.8c0.3,0.3,0.6-0.1,0.9-0.1
		c0.1,0,0.3-0.1,0.4-0.1C490.8,87.6,491.7,87.3,492.6,87.8z"/>
	<path fill="#C77167" d="M393,177.4c-2.9,0-5.2-2.3-5.2-5.1c0-3,2.3-5.3,5.4-5.2c2.7,0,5,2.5,5,5.4
		C398.2,175.2,395.8,177.4,393,177.4z"/>
	<path fill="#C46D65" d="M447.5,88.6c-3,0-5.2-2.3-5.2-5.4c0-2.7,2.4-5,5.2-5c2.9,0,5.2,2.3,5.1,5.2
		C452.5,86.3,450.2,88.7,447.5,88.6z"/>
	<path fill="#C67067" d="M453.8,176.8c0,2.8-2.3,5.1-5,5.1c-2.8,0-5.2-2.3-5.1-5.2c0.1-2.9,2.5-5,5.2-4.9
		C451.6,171.8,453.9,174.1,453.8,176.8z"/>
	<path fill="#E2AB8C" d="M476.9,165.9c0.2,2.9-2.4,5.1-5,5c-2.7-0.1-5-2.1-5-5c0-2.5,2.2-5,5-5C474.5,161,477.1,163.4,476.9,165.9z"
		/>
	<path fill="#D08175" d="M468.7,44.5c-2.6,0.1-5-2.2-4.9-4.8c0.1-2.7,2.1-5,5-5c2.7,0.1,4.8,2.1,4.8,5
		C473.7,42.4,471.4,44.6,468.7,44.5z"/>
	<path fill="#E28A54" d="M420.7,164.7c-0.5-0.1-0.9-0.3-1.3-0.4c-0.2-0.1-0.4-0.2-0.6,0h-0.1v-0.1c0.1-0.3-0.2-0.5-0.4-0.6
		c-1.7-1.5-2.1-3.8-1.3-5.7c0.9-1.9,2.7-3.1,5-2.9c3.6,0.3,5.1,3.9,4.1,6.5c-0.6,1.7-1.8,2.7-3.6,3.2
		C421.8,164.8,421.3,164.8,420.7,164.7z"/>
	<path fill="#C66F66" d="M477,125.5c-0.1,2.6-2.3,4.8-5,4.8c-2.7-0.1-5-2.3-4.8-5c0.1-2.5,2.3-4.8,4.9-4.7
		C474.9,120.6,477.1,122.7,477,125.5z"/>
	<path fill="#DFA687" d="M461.1,83.5c0.3,0,0.5-0.1,0.7-0.5c0.8-1.8,2.2-2.9,4.2-3.1c2-0.2,4.2,0.9,5,3.3c0.7,2.1,0.1,4.3-2.1,5.8
		c-1.6,1-3.8,1.2-5.6-0.4c-1.1-0.9-1.8-2.2-1.8-3.8c0-0.3,0.2-0.8-0.4-0.7C460.7,83.9,460.9,83.7,461.1,83.5z"/>
	<path fill="#C67167" d="M487.6,43.2c0.3,0.3,0.5,0.1,0.8,0.1c1.9-0.3,3.8,0,5.1,1.6c1.3,1.5,1.5,3.3,0.7,5.1
		c-0.8,1.7-2.2,2.7-4.1,2.8c-2,0.1-3.6-0.7-4.6-2.6c-1.1-2.1-0.6-4.5,1.2-6c0.2-0.2,0.5-0.3,0.3-0.7
		C487.1,43.4,487.3,43.2,487.6,43.2z"/>
	<path fill="#C56D64" d="M464.4,149.3c0,2.9-2.5,4.8-4.9,4.8c-2.8-0.1-5-2.3-4.9-5c0.1-2.6,2.3-4.8,5-4.7
		C462.3,144.5,464.5,146.7,464.4,149.3z"/>
	<path fill="#C46D65" d="M403.2,30.9c-0.1,2.7-2.2,4.8-5,4.8c-2.7-0.1-4.8-2.3-4.8-5c0-2.5,2.3-4.7,5-4.6
		C401.1,26.1,403.3,28.3,403.2,30.9z"/>
	<path fill="#C67168" d="M503.2,105.9c0-2.8,2.1-4.9,4.9-4.9c2.5,0,4.7,2.3,4.7,4.9c0,2.6-2.1,4.8-4.8,4.8
		C505.3,110.6,503.2,108.5,503.2,105.9z"/>
	<path fill="#D18277" d="M422.6,43.6c0.1-0.4-0.1-0.4-0.4-0.5c-0.6-0.1-1-0.4-0.9-1.1c0-0.7-0.3-0.7-0.7-0.3
		c-0.9,0.8-1.9,1.2-3.2,1.3c-2,0-4-1.4-4.6-3.3c-0.6-2.1,0.2-4.2,1.9-5.4c1.6-1,3.2-1,4.9-0.2c1.8,0.9,2.5,2.5,2.5,4.5
		c0,0.7-0.3,1.4-0.6,2.1c-0.1,0.2-0.3,0.4-0.1,0.6c0.1,0.1,0.3,0.1,0.5,0c0.4-0.2,0.8-0.1,1.1,0.3s0.3,0.7,0.1,1.1
		c-0.1,0.2-0.5,0.5,0.1,0.6C423,43.7,422.8,43.8,422.6,43.6z"/>
	<path fill="#C66F66" d="M441.4,114.5c-2.7-0.1-4.8-2.2-4.8-4.9c0.1-2.7,2.2-4.8,4.8-4.8c2.7,0,4.8,2.3,4.8,5.1
		C446.2,112.4,444,114.6,441.4,114.5z"/>
	<path fill="#DEA284" d="M424.7,55.6c-0.2,2.7-2,5-5.2,4.9c-2.5-0.1-4.4-2.1-4.6-4.8c-0.1-2.7,2.3-5,4.7-5
		C422.7,50.9,424.5,52.8,424.7,55.6z"/>
	<path fill="#C67066" d="M352.5,104.6c1.3,1.5,2.1,3.3,1.2,5.3c-1,2.3-3,3.4-5.4,2.9c-2.5-0.5-4-2.5-3.9-4.9
		c0.1-2.3,1.9-4.2,4.3-4.5c1.3-0.1,2.3,0.3,3.4,0.9C352.3,104.4,352.4,104.6,352.5,104.6z"/>
	<path fill="#E9AA39" d="M364.5,91.8c-1.7-1.1-2.6-2.6-2.4-4.6c0.2-2.1,1.4-3.5,3.4-4.2c3.6-1.1,6.8,1.9,6,5.6
		c-0.5,2.1-2,3.6-3.9,3.6c-0.7,0.1-1.4,0-2.1,0.1C365.1,92.5,364.7,92.1,364.5,91.8z"/>
	<path fill="#D38479" d="M480.4,141.3c2.1-0.1,4.8,1.5,4.8,4.4c0.1,2.4-1.6,4.8-4.6,5c-2.5,0.2-4.9-1.9-5-4.4
		C475.4,144.3,476.9,141.3,480.4,141.3z"/>
	<path fill="#9FA96B" d="M454.4,134.7c0.1-0.3-0.1-0.4-0.3-0.5c-1.3-0.8-2.2-1.9-2.4-3.5c0-0.1,0-0.3-0.1-0.4
		c-0.3-0.1-0.3,0.1-0.4,0.3c-0.5,0.5-1.1,0.5-1.5,0.1c-0.4-0.5-0.3-1,0.1-1.3c0.5-0.4,1-0.1,1.3,0.3c0.1,0.1,0.1,0.3,0.3,0.3
		c0.2,0,0.3-0.2,0.3-0.3c-0.1-0.7,0.7-1.2,0.4-1.9c0.1-0.5,0.4-0.8,0.7-1.1c0.4,0.3,0.7,0,1-0.1c3.1-1.6,6.6,0.5,6.6,4
		c0,1.3-0.5,2.5-1.6,3.4c-0.2,0.1-0.5,0.3-0.4,0.5c0.1,0.3,0.4,0.1,0.6,0.1c0.7,0,1.3,0.3,1.5,0.9s0.1,1.2-0.3,1.7
		c-0.5,0.5-1.1,0.5-1.8,0.2c-0.2-0.1-0.5-0.6-0.7,0.1c-0.5-0.2-0.5-0.5-0.5-0.9c0.3-0.5,0.3-1.1,0.7-1.6c-0.7,0.2-1.5,0.1-2,0.6
		C455.5,135.1,454.9,135.1,454.4,134.7z"/>
	<path fill="#D18477" d="M397.7,48.4c0,2.5-2.1,4.6-4.6,4.6c-2.9,0-4.9-1.9-5-4.9c0-2.5,2.2-4.6,5-4.6
		C395.1,43.6,397.9,45.5,397.7,48.4z"/>
	<path fill="#D3847A" d="M432.9,165.2c-0.1-2.5,1.9-4.8,4.9-4.8c2.7,0.1,4.6,2.4,4.6,4.5c0,3-1.9,5-4.6,5.1
		C435,170.1,432.9,167.9,432.9,165.2z"/>
	<path fill="#E48A53" d="M507,78.9c-0.3,1.9-0.9,3.6-2.8,4.5c-2.5,1.1-5.6-0.1-6.4-2.7c-1-2.9,0.9-6,4.2-6.3
		c1.9-0.1,3.4,0.7,4.4,2.5c0.1,0.2,0.3,0.5,0.3,0.7C507.2,77.9,507.4,78.3,507,78.9z"/>
	<path fill="#C67065" d="M348.2,71.1c2.8,0,4.8,2.1,4.8,4.9c0,2.5-2.1,4.6-4.7,4.6c-2.7,0-4.8-2.1-4.8-4.8
		C343.5,73.1,345.7,71,348.2,71.1z"/>
	<path fill="#C66F65" d="M412.4,112c-2.7-0.1-4.7-2.1-4.6-4.8c0.1-2.7,2.1-4.6,5-4.6c2.5,0,4.6,2.3,4.5,4.9
		C417.2,110,415.1,112,412.4,112z"/>
	<path fill="#DFA285" d="M374.3,67.2c-2.7,0-4.6-2.1-4.6-4.8c0-2.5,2.3-4.6,4.8-4.6c2.5-0.1,4.7,2.4,4.7,4.6
		C379.1,65.4,376.7,67.4,374.3,67.2z"/>
	<path fill="#CF8579" d="M458.2,115.9c-0.5,0.1-0.4,0.5-0.5,0.8c-0.4,2.5-2.5,4-4.8,3.9c-2.5-0.1-4.3-2.1-4.4-4.6
		c-0.1-2.9,2.7-5.5,5.9-4.6c0.3,0.1,0.9,0.6,0.9-0.3c0.5,0.4,1,0.7,1.3,1.3c0.3,1,1.1,1.8,1.3,2.9c0,0.1,0.2,0.1,0.3,0.1
		C458.4,115.5,458.4,115.7,458.2,115.9z"/>
	<path fill="#D28478" d="M362.4,126.6c-2.5,0-4.7-2.1-4.6-4.6c0.1-2.8,2-4.8,4.8-4.8c2.5,0.1,4.5,1.9,4.5,4.8
		C367.1,124.2,365.2,126.8,362.4,126.6z"/>
	<path fill="#6DA277" d="M398.6,117.5c-0.1,2.7-2.1,4.6-4.8,4.6c-2.5,0-4.5-2.1-4.5-4.8c0-1.9,1.8-4.6,5-4.5
		C396.7,113,398.7,115,398.6,117.5z"/>
	<path fill="#E4A941" d="M425.2,69c0-2.5,2.1-4.7,4.6-4.6c2.7,0.1,4.7,2,4.7,4.8c-0.1,2.3-1.7,4.4-4.8,4.5
		C427.3,73.7,424.9,71.2,425.2,69z"/>
	<path fill="#9FAA6C" d="M396.4,137.7c0.1,2.5-1.9,4.6-4.3,4.7c-2.9,0.1-5-1.9-5-4.6c0-2.4,1.8-4.5,4.8-4.6
		C393.7,133.1,396.5,134.8,396.4,137.7z"/>
	<path fill="#D08176" d="M432.6,15.4c0.3,2.3-1.9,4.8-4.2,4.9c-2.6,0.1-4.8-1.9-5-4.5c-0.1-2.5,1.9-4.8,4.5-4.8
		C430.4,10.9,432.8,12.9,432.6,15.4z"/>
	<path fill="#E1A788" d="M374.4,98.4c2.3-0.1,4.6,1.9,4.5,4.6c0,2.7-2.2,4.6-4.6,4.7c-2.5,0.1-4.6-2-4.6-4.8
		C369.6,100.4,371.8,98.4,374.4,98.4z"/>
	<path fill="#C77167" d="M498.3,145.7c0.2,2.1-1.9,4.6-4.5,4.6c-2.5,0-4.8-2.1-4.6-4.8c0.1-2.5,2.1-4.5,4.6-4.4
		C496.5,141.1,498.5,143.4,498.3,145.7z"/>
	<path fill="#DB9E80" d="M407.7,13.9c2.6,0.2,4.6,2.1,4.6,4.8c-0.1,2.7-1.9,4.6-4.6,4.5c-2.7-0.1-4.7-1.7-4.7-4.8
		C403.1,16.2,404.9,14.1,407.7,13.9z"/>
	<path fill="#E0A788" d="M415.1,179.5c0,2.3-2.1,4.5-4.6,4.5s-4.6-2.1-4.6-4.6c-0.1-2.5,2.3-4.6,4.6-4.6
		C413.1,174.8,415.1,176.8,415.1,179.5z"/>
	<path fill="#A1A96C" d="M452.3,61.5c0-0.5-0.3-0.7-0.5-1c-0.9-1.5-1.1-3-0.3-4.6c0.7-1.7,2.1-2.4,3.9-2.5c1.9-0.1,4.2,1.5,4.6,3.4
		c0.5,2.6-0.6,4.8-2.9,5.6c-0.8,0.3-1.5,0.3-2.3,0.2c-0.3-0.1-0.5-0.2-0.8,0.1C453.2,62.3,452.9,61.8,452.3,61.5z"/>
	<path fill="#E38A54" d="M413.5,137.7c-0.2,2.5-2.5,4.4-5.2,4c-2.4-0.3-4.3-2.8-3.8-5.2c0.3-1.9,1.5-3.4,3.8-3.8
		c1.9-0.3,3.8,0.6,4.8,2.3c0.1,0.2,0.2,0.5,0.3,0.7C413.9,136.2,413.7,137,413.5,137.7z"/>
	<path fill="#DDA284" d="M463.4,29.2c-2.5,0-4.6-2.1-4.6-4.6c0-2.3,1.9-4.4,4.2-4.5c3.2-0.2,5,2.5,5,4.6
		C468,26.9,466,29.3,463.4,29.2z"/>
	<path fill="#C56E65" d="M374.2,141.5c1.3,3.1-0.4,5.3-2.3,6.2c-1.5,0.7-3.8,0.2-5-1c-1.3-1.3-1.6-3.4-0.8-5c1.3-2.9,5-3.6,7.3-1.4
		c0.2,0.1,0.3,0.3,0.5,0.5C374.1,140.8,374.2,141.2,374.2,141.5z"/>
	<path fill="#D28377" d="M494,109c2.6-0.1,4.6,2.2,4.5,4.4c-0.1,2.7-2,4.7-4.4,4.7c-2.9-0.1-4.7-1.9-4.7-4.8
		C489.4,110.9,491.6,108.8,494,109z"/>
	<path fill="#9FA96C" d="M404.3,76.2c2.3,0.1,4.4,1.7,4.4,4.6c0,2.4-1.9,4.3-4.2,4.4c-2.7,0.1-4.8-1.8-4.8-4.5
		C399.7,78.6,401.2,76.2,404.3,76.2z"/>
	<path fill="#D18376" d="M453.1,50.8c0.1,2.2-2.2,4.5-4.4,4.4c-2.9-0.1-4.6-2.1-4.6-4.6c0.1-2.5,1.9-4.5,4.5-4.5
		C451.1,46.2,453.1,48.3,453.1,50.8z"/>
	<path fill="#C56D64" d="M429.9,149.9c0,2.5-1.9,4.5-4.4,4.5c-2.5,0-4.6-2-4.6-4.4c0-2.7,1.9-4.6,4.6-4.6
		C428.1,145.5,429.9,147.3,429.9,149.9z"/>
	<path fill="#DFA989" d="M418.4,140c-0.2-2.4,2.5-4.6,4.4-4.6c2.5,0,4.6,2.1,4.6,4.6c-0.1,2.7-2.1,4.5-4.4,4.6
		C420.6,144.6,418.3,142.5,418.4,140z"/>
	<path fill="#E0A888" d="M500.8,136c0.1,2.7-2.3,4.6-4.6,4.6c-2.5-0.1-4.2-2.1-4.4-4.5c-0.2-2.3,2.3-4.7,4.6-4.6
		C498.7,131.5,501.1,133.5,500.8,136z"/>
	<path fill="#D38679" d="M467.7,160c-2.9,0-4.6-2.2-4.5-4.4c0.1-2.9,2.2-4.4,4.6-4.5c2.7-0.1,4.5,2.7,4.4,4.7
		C472.1,158.1,470,160.1,467.7,160z"/>
	<path fill="#E9AA3B" d="M402,150.4c1.3-1.3,2.8-1.9,4.7-1.5c1.9,0.5,3.6,2.7,3.3,4.7c-0.3,2.1-1.4,3.3-3.3,3.9
		c-0.7,0.3-1.5,0.1-2.3,0.1c-0.2,0-0.3-0.1-0.5-0.3c-0.9-0.1-1.3-0.9-2.1-1.3c-0.3-0.6-0.6-1.1-0.7-1.7c-0.1-0.8-0.1-1.5,0.1-2.3
		C401.3,151.3,401.5,150.8,402,150.4z"/>
	<path fill="#D2857A" d="M405.5,123.3c2.7-0.1,4.6,2.2,4.5,4.6c-0.1,2.3-1.9,4.2-4.4,4.3c-2.4,0.1-4.5-2-4.5-4.4
		C401.1,125.3,403,123.3,405.5,123.3z"/>
	<path fill="#C46D65" d="M478,30.2c-0.1,2.5-2.1,4.4-4.6,4.3c-2.5-0.1-4.4-2.1-4.2-4.7c0.1-2.3,2.1-4.2,4.5-4.1
		C476.1,25.8,478.1,27.8,478,30.2z"/>
	<path fill="#E48A53" d="M487.9,149.1c2.6,0.1,4.4,2,4.4,4.7c-0.1,2.3-2.1,4.2-4.6,4.2c-2.5-0.1-4.4-2.1-4.4-4.6
		C483.5,151,485.6,149,487.9,149.1z"/>
	<path fill="#D4867C" d="M407.4,164c2.1-0.1,4.6,1.7,4.4,4.6c-0.1,2.6-1.7,4.2-4.4,4.3c-2.5,0.1-4.6-1.9-4.6-4.6
		C402.9,166.2,404.8,163.8,407.4,164z"/>
	<path fill="#E1A889" d="M419.2,121.4c-0.7-0.3-0.7,0.3-0.7,0.7c-0.4,1.3-1.3,2.1-2.5,2.7c-1.5,0.7-2.9,0.4-4.3-0.5
		c-1.4-1-2.1-2.5-1.7-4.2c0.6-2.9,3.7-4.4,6.1-3.3c0.9,0.4,1.7,1,2.1,2c0.1,0.3,0.1,0.7,0.7,0.7
		C418.6,120.1,419.3,120.7,419.2,121.4z"/>
	<path fill="#A1AB6D" d="M437.9,143.3c-2.5,0-4.4-2-4.4-4.4c0-2.5,1.8-4.3,4.3-4.4c2.3-0.1,4.4,1.9,4.5,4.3
		C442.4,141.2,440.5,143.3,437.9,143.3z"/>
	<path fill="#D28377" d="M471.9,94.7c2.3,0,4.4,2.1,4.4,4.5c-0.1,1.9-1.7,4.4-4.6,4.2c-2.3-0.1-4.3-2.1-4.2-4.4
		C467.5,96.5,469.5,94.6,471.9,94.7z"/>
	<path fill="#9DA869" d="M395.8,60.5c0.7-0.3,1.1-0.9,1.7-1.3c1.6-0.9,3.2-0.7,4.7,0.3c1.4,0.9,2,2.4,1.7,4c-0.3,1.7-1.3,2.9-3,3.6
		c-2.4,0.9-6.2-1.2-5.6-4.8c0-0.3,0.1-0.5-0.3-0.7C395,61.1,395.2,60.7,395.8,60.5z"/>
	<path fill="#E8A63B" d="M453.4,40.4c-0.1,2.4-2,4.2-4.6,4.2c-2.3,0-4.3-2.3-4.2-4.5c0.1-2.4,2-4.3,4.5-4.2
		C451.5,35.9,453.4,37.9,453.4,40.4z"/>
	<path fill="#D08377" d="M394.5,80.2c-0.3,0.4-0.1,0.9-0.1,1.3c0,2-1.3,3.7-3.4,4.3c-1.5,0.5-3.8-0.5-4.7-1.9
		c-1.1-1.9-0.8-4,0.6-5.4c2.1-2.1,5.5-1.6,6.9,1C394,79.7,394.1,80,394.5,80.2L394.5,80.2z"/>
	<path fill="#E8A53F" d="M380.8,24.6c2.3-0.1,4.4,2,4.4,4.3c0,2.5-2.1,4.4-4.4,4.4s-4.2-2.1-4.3-4.3
		C376.4,26.5,378.3,24.5,380.8,24.6z"/>
	<path fill="#C46C63" d="M442,26.5c0,2.3-2,4.3-4.4,4.2c-2.4,0-4.3-2-4.4-4.5c0-2.3,2.1-4.4,4.4-4.3C440.1,22.1,442,24,442,26.5z"/>
	<path fill="#E2AB8B" d="M441.8,180.3c0,2.8-2.3,4.2-4.4,4.4c-2,0.1-4.3-1.8-4.3-4.3c0-2.5,1.9-4.6,4.5-4.5
		C439.6,175.8,441.9,177.6,441.8,180.3z"/>
	<path fill="#A0AA6C" d="M476.5,70.1c0.4,0,0.4-0.3,0.5-0.6c0.3-2.6,2.5-4,4.8-3.8c2.2,0.1,4,2.4,3.8,4.7c-0.1,1.9-1.6,3.5-3.7,3.9
		c-1.7,0.3-3.6-0.7-4.6-2.5c-0.1-0.3-0.1-0.7-0.6-0.6C476.4,70.8,476.4,70.5,476.5,70.1z"/>
	<path fill="#E1A789" d="M492.9,128.5c-0.1-0.5-0.5-0.3-0.7-0.3c-1.5,0.2-2.7-0.5-3.7-1.5c-1-1.2-1.4-2.6-0.7-4.2
		c0.8-1.9,2.2-2.8,4.2-2.8s4,1.9,4.1,4c0.1,1.8-0.6,3.2-2.1,4.1c-0.3,0.2-0.4,0.3-0.3,0.6C493.4,128.5,493.2,128.6,492.9,128.5z"/>
	<path fill="#9FAB6D" d="M393.4,107.8c-2.1,0.2-4.4-1.7-4.3-4.2c0.1-2.5,1.7-4.2,4-4.3c2.6-0.1,4.7,1.6,4.6,4.8
		C397.6,106.1,395.4,107.9,393.4,107.8z"/>
	<path fill="#DFA888" d="M385.6,142.6c2.1,0,4.4,2.1,4.3,4.2c-0.1,2.5-1.5,4.4-4.6,4.4c-2.2,0-4.2-2.1-4.2-4.4
		C381.3,144.5,383.3,142.6,385.6,142.6z"/>
	<path fill="#D08277" d="M461.7,67.4c0.1-2.4,2.1-4.3,4.4-4.2c2.5,0.1,4.2,2,4.2,4.4c-0.1,2.2-2.1,4.2-4.4,4.1
		C463.3,71.5,461.7,69.4,461.7,67.4z"/>
	<path fill="#E0A687" d="M383.4,83.4c0,2.3-1.7,4.4-4.3,4.4c-2.3-0.1-4.2-1.9-4.2-4.3c0-2.3,1.7-4.2,4.2-4.3
		C381.5,79.2,383.6,81.2,383.4,83.4z"/>
	<path fill="#E28A54" d="M380.4,39.1c2.3,0,4.3,1.9,4.3,4.3c0,2.3-2,4.3-4.4,4.2c-2.3-0.1-4.2-2-4.2-4.4
		C376.1,40.7,378.3,39.1,380.4,39.1z"/>
	<path fill="#C77168" d="M363.4,49.5c-0.1,2.3-2,4.2-4.3,4.2c-2.3-0.1-4.2-1.9-4.2-4.3c0-2.3,1.9-4.2,4.4-4.2
		C361.5,45.2,363.5,47.2,363.4,49.5z"/>
	<path fill="#DC9E81" d="M446.2,26.9c-1.9,0-4.1-1.5-4.2-4.3c0-2.3,2.3-4.3,4.2-4.2c2.6,0.1,4.2,1.6,4.3,4.4
		C450.7,25,448.9,27,446.2,26.9z"/>
	<path fill="#E9AB39" d="M440.8,156.3c-2.3,0.1-4.3-1.9-4.3-4.3c0-2.2,1.9-4.1,4.1-4.2c2.8,0,4.3,2,4.4,4.2
		C445,154.3,443.1,156.3,440.8,156.3z"/>
	<path fill="#E28A55" d="M360.5,141.9c-0.9,1.3-2.2,2.2-4,2.1c-1.6-0.1-2.9-0.9-3.6-2.4c-0.7-1.5-0.6-3.1,0.5-4.4
		c2.2-2.6,6.1-1.9,7.3,1.3c0.2,0.5,0.1,0.9,0.1,1.4C360.8,140.6,361.2,141.3,360.5,141.9z"/>
	<path fill="#E0A789" d="M391.2,162c-0.1-2.7,2.3-4.4,4.8-4.1c2.3,0.3,3.8,2.4,3.7,4.4c-0.1,2.3-2.4,4.2-4.6,3.9
		C392.7,166,391.1,164.2,391.2,162z"/>
	<path fill="#DDA184" d="M489.7,59.5c2.2-0.2,4.2,2.1,4.2,4.3c0,2.1-2,4.2-4,4.1c-2.3-0.1-4.4-1.4-4.4-4.4
		C485.5,61.5,487.6,59.2,489.7,59.5z"/>
	<path fill="#E18A54" d="M428.9,82.4c-0.4,0.1-0.3,0.4-0.3,0.6c-0.3,1.7-1.4,2.7-3,3.3c-1.4,0.5-3.3-0.2-4.3-1.3
		c-1.1-1.3-1.3-3.2-0.5-4.6c0.9-1.6,2.3-2.4,4.1-2.2c1.7,0.2,2.9,1.1,3.5,2.7c0.1,0.2,0.2,0.3,0.3,0.5
		C428.7,81.7,429.1,82,428.9,82.4z"/>
	<path fill="#D18477" d="M408.5,36c-2.3,0-4.2-1.9-4.2-4c0-2.2,1.9-4.2,4.1-4.2c1.7,0,3.4,1.2,3.9,2.7c0.5,1.5,0,3.5-1.3,4.5
		c-0.5,0.3-0.5,0.6-0.1,1c0.3,0.3,0.4,0.7,0.2,1.1c-0.2,0.3-0.5,0.5-0.9,0.4c-0.4-0.1-0.7-0.4-0.7-0.9
		C409.6,35.5,408.8,36.1,408.5,36z"/>
	<path fill="#A1AA6C" d="M432.4,82.6c0-2.3,1.9-4.2,4.3-4.2c2.1,0,4.1,1.9,4.1,4.1c0,2.7-2,4.4-4.3,4.3
		C434.2,86.7,432.5,84.9,432.4,82.6z"/>
	<path fill="#DDA888" d="M443.1,134.1c-2.3,0-4.2-1.9-4.2-4.2c-0.1-2,1.8-4.3,4.2-4.2c2.3,0.1,4.2,1.9,4.2,4.2
		C447.3,132.2,445.2,134.1,443.1,134.1z"/>
	<path fill="#E7AA36" d="M471.2,89.9c0.5-1.3,1.3-2.5,2.7-3c2.3-0.8,4.6,0.4,5.4,2.4c0.9,2.3-0.4,4.4-2.1,5.1
		c-1.9,0.8-4.3,0.4-5.4-1.7c-0.2-0.3-0.2-0.8-0.5-1.1C471.5,91.1,471.2,90.5,471.2,89.9z"/>
	<path fill="#DD9F82" d="M423.3,29.3c0.2-2.3,1.7-4.1,4.1-4.1c2.3,0,4.3,1.8,4.2,4.2c-0.1,2.5-1.8,4.2-4.2,4.2
		C425.3,33.6,423.2,31.6,423.3,29.3z"/>
	<path fill="#DDA183" d="M435,36.3c-0.2-2.3,2.2-4.2,4-4.2c1.9,0,4.4,1.7,4.2,4.4c-0.1,2.3-1.8,4-4.2,4
		C436.9,40.5,434.9,38.7,435,36.3z"/>
	<path fill="#D3857A" d="M404.1,119.9c-2.5-0.1-4-2-4-4.4c-0.1-1.9,2.1-4,4-4c2.6,0.2,4.3,1.6,4.4,4.1
		C408.4,118.3,406.6,119.9,404.1,119.9z"/>
	<path fill="#E18A54" d="M458.4,82.5c-0.3,0-0.5,0.1-0.7,0.1c-1.7,0.3-3-0.2-4.1-1.5c-1.1-1.2-1.2-2.7-0.7-4.2
		c0.8-2.3,4-3.2,6.1-1.8c0.2,0.1,0.5,0.3,0.7,0.5c0.2,0.1,0.2,0.3,0.3,0.5c1.3,1.7,1.1,4.1-0.5,5.6c-0.2,0.2-0.2,0.3-0.2,0.5
		C459.2,82.5,458.9,82.6,458.4,82.5z"/>
	<path fill="#D38679" d="M414.2,72.6c-0.2-2.1,1.8-4.1,4-4.2c2.2-0.1,4.2,2.1,4.2,4.1c0,2.2-1.9,4.2-4.1,4.2
		C416.2,76.6,414.1,75,414.2,72.6z"/>
	<path fill="#D2867A" d="M428.9,173.4c0,2.3-1.9,4.2-4.1,4.2c-2.2-0.1-4.2-2.1-4.1-4.2c0.1-2.4,1.8-4.2,4.2-4.1
		C427.2,169.3,428.9,171.1,428.9,173.4z"/>
	<path fill="#DEA485" d="M482.6,50.1c0,2.5-1.9,4-4.2,4c-2.3,0-4-1.5-4-4.2c-0.1-2.1,1.9-4,4-4C480.8,45.9,482.8,47.9,482.6,50.1z"
		/>
	<path fill="#C77167" d="M359,99.9c-2.3,0-4.1-1.7-4.1-4c0-2.3,1.8-4.2,4-4.2c2.3,0,4.2,1.7,4.2,3.9C363.1,98.1,361.4,99.9,359,99.9
		z"/>
	<path fill="#DBA585" d="M382.9,127.8c0,2.1-2,4.1-4,4c-2.1,0-4.2-1.6-4.2-4c0-2.4,1.8-4.2,4.1-4.2
		C380.9,123.7,382.9,125.4,382.9,127.8z"/>
	<path fill="#C36E64" d="M404,52.6c-2.2-0.1-4-1.9-3.9-4.2c0.1-2.3,1.9-4,4.2-4c2.1,0.1,4,1.9,4,4C408.2,50.9,406.4,52.6,404,52.6z"
		/>
	<path fill="#C46E65" d="M377.3,110.2c0-2.1,1.8-4,4-4c2.3,0,4.2,1.7,4.2,4c0,2.4-2.1,4.2-4.1,4.2
		C379.1,114.3,377.4,112.6,377.3,110.2z"/>
	<path fill="#E1A889" d="M371.2,154.7c0.1,2.3-2.3,4.1-4.1,4.1c-2,0-4.1-1.9-4.1-3.8c0-3.1,2.2-4.4,4-4.4
		C369.3,150.5,371.2,152.4,371.2,154.7z"/>
	<path fill="#E6A63E" d="M389,63.3c0,2.2-1.8,4.1-4,4.1c-2.2,0.1-4.1-1.6-4.2-4c-0.1-2.1,1.9-4,4-4C387.3,59.3,389,61.6,389,63.3z"
		/>
	<path fill="#A2AD70" d="M430.8,125.3c-0.1-0.4-0.4-0.3-0.6-0.3c-2.1-0.1-3.4-0.9-4.2-2.9c-0.1-0.3-0.2-0.5-0.5-0.4
		c-0.1-0.1-0.1-0.3,0-0.3c0.5,0.1,0.4-0.3,0.5-0.6c0.1-2,1.8-3.6,3.8-3.8c1.7-0.1,3.4,0.9,3.9,2.4c0.7,1.8,0.3,3.6-1.1,4.8
		c-0.3,0.3-1,0.3-0.9,1C431.4,125.4,431.2,125.5,430.8,125.3z"/>
	<path fill="#E0A889" d="M450.9,159.7c0.1,1.7-1.5,4-4.2,4c-2.1,0-4-2-3.9-4.2c0-2.1,1.9-4.2,4-4C449.4,155.7,450.8,157,450.9,159.7
		z"/>
	<path fill="#C46D64" d="M422.6,43.6c0.2,0,0.4-0.1,0.5-0.3c3.2-0.9,5.9,1.5,5.4,4.6c-0.3,1.9-2.3,3.4-4.1,3.3
		c-2.2-0.2-3.8-1.8-3.8-3.9C420.5,45.7,421.2,44.5,422.6,43.6z"/>
	<path fill="#E28A53" d="M468,134.9c-0.4,0.3-0.2,0.5,0.1,0.7c1.4,1.4,1.7,3.3,0.7,5c-0.8,1.4-2.7,2.2-4.5,1.8
		c-1.4-0.3-2.7-1.8-2.9-3.3c-0.4-2.7,1.8-4.8,4.2-4.6c0.3,0,0.7,0.3,0.9-0.3C466.9,134.7,467.5,134.7,468,134.9z"/>
	<path fill="#D2867B" d="M443.8,123.4c-2.1,0.1-4.1-1.5-4.2-3.9c-0.1-2.1,1.3-4,3.8-4.2c2.3-0.1,4.1,1.3,4.2,3.8
		C447.9,121.5,445.8,123.4,443.8,123.4z"/>
	<path fill="#DEA285" d="M352.8,58.3c0.3,0,0.4-0.3,0.5-0.5c0.6-1.8,1.9-2.9,3.8-3.2c1.9-0.3,4.4,2.1,4.2,4
		c-0.2,1.6-0.9,2.9-2.4,3.7c-1.9,1-4.6-0.1-5.4-2.1c-0.2-0.5-0.1-1.1-0.7-1.4C352.7,58.7,352.7,58.5,352.8,58.3z"/>
	<path fill="#DDA585" d="M452,69.1c-0.2-2.4,1.8-4.1,3.8-4c2.7,0.1,4.2,1.6,4.2,4c0.1,2.3-1.7,4-4.1,4
		C453.9,73.2,451.9,71.3,452,69.1z"/>
	<path fill="#DEA183" d="M370.5,38.5c2.3,0.1,4.2,1.7,4.2,3.9c-0.1,2.4-1.7,4-4.1,4.1c-2.2,0.1-4-1.9-4.1-3.8
		C366.4,40.5,368.3,38.5,370.5,38.5z"/>
	<path fill="#D28277" d="M499.3,100.6c1.9,1.3,2.2,3.1,1.4,5c-1.1,2.5-4.1,3.2-6,1.5c-1.5-1.2-1.9-2.7-1.3-4.4
		c0.5-1.6,1.7-2.4,3.4-2.7c0.6-0.1,1.1,0.1,1.7,0.1C498.7,100.2,499,100.4,499.3,100.6z"/>
	<path fill="#E38A53" d="M372.3,108.7c2.1,0,3.9,1.7,4,3.8c0.1,2.1-1.8,4-4,4.1c-2.1,0.1-4-1.7-4-4
		C368.2,110.3,369.9,108.7,372.3,108.7z"/>
	<path fill="#6DA177" d="M451.4,139.1c-0.5,0-0.3,0.3-0.3,0.6c-0.2,2.1-1.3,3.4-3.2,3.8c-1.9,0.4-3.9-0.7-4.5-2.5
		c-0.7-1.8,0.1-4,1.8-4.8c2-1.1,4.2-0.4,5.4,1.5c0.1,0.2,0.1,0.6,0.5,0.6c0.3-0.1,0.1-0.5,0.3-0.7c0.1-0.1,0.1-0.2,0.1-0.3
		C451.8,137.9,451.7,138.5,451.4,139.1z"/>
	<path fill="#C67067" d="M387.1,156.4c0,2.2-1.7,4-4,4c-2.1,0-3.9-1.7-4-3.9c0-2.3,1.7-4,4-4C385.4,152.4,387.1,154.2,387.1,156.4z"
		/>
	<path fill="#A0AA6D" d="M456.4,100.5c-0.1-0.5-0.5-0.3-0.7-0.4c-2.9-0.5-4.4-3.5-2.9-6c1-1.7,3.3-2.3,5.2-1.5
		c1.7,0.8,2.6,3,1.9,4.9c-0.4,1-1.1,1.6-1.9,2.1c-0.2,0.1-0.6,0.1-0.5,0.6C457.1,100.6,456.8,100.6,456.4,100.5z"/>
	<path fill="#E1A688" d="M499.3,100.6c-0.3-0.1-0.6-0.2-0.9-0.5c0.4-0.5-0.1-0.7-0.3-0.9c-0.5-0.7-1.1-1.3-1.2-2.2
		c-0.3-1.5,0.3-3.2,1.6-4c1.3-0.9,2.9-0.9,4.2-0.1c1.5,1,2.5,3,1.9,4.4c-0.9,2.3-2.4,3.2-4.6,2.9
		C499.7,100.2,499.1,99.9,499.3,100.6z"/>
	<path fill="#E3AB8B" d="M357,117.4c0,2.1-1.9,4-4.1,4c-2,0-4-2.1-4-4c0-1.9,2.1-4,4-4C355,113.4,357.1,115.3,357,117.4z"/>
	<path fill="#678667" d="M446.4,70.3c-2.1,0-3.9-1.7-4-3.8c-0.1-2.3,1.7-4.1,3.9-4.2c2.1,0,3.9,1.7,4,3.8
		C450.3,68.5,448.7,70.3,446.4,70.3z"/>
	<path fill="#668565" d="M412.4,57.2c-0.5,0.1-1.1,0.3-1.6,0.3c-1.9,0-3.4-1.1-3.9-2.9c-0.4-1.7,0.4-3.4,1.9-4.2
		c1.7-0.8,3.6-0.4,4.6,1c1.1,1.4,1,3.4-0.2,4.8c-0.1,0.1-0.2,0.2-0.3,0.3c-0.1,0.1-0.3,0.2-0.3,0.4c0.1,0.3,0.3,0.1,0.5,0.1
		c0.5,0.1,0.9,0.3,1.1,0.7c0.1,0.5,0.1,0.9-0.3,1.3c-0.5,0.5-1,0.5-1.5,0.2s-0.7-0.9-0.5-1.5C412.3,57.7,412.5,57.6,412.4,57.2z"/>
	<path fill="#6B8A6B" d="M386.2,138.1c0,2.1-1.8,3.9-4,3.9c-2.1,0-3.9-1.8-3.9-3.9c0-2.2,1.8-4,4-4
		C384.6,134.1,386.3,135.9,386.2,138.1z"/>
	<path fill="#E8A83A" d="M437,46.1c-0.1-1.3,0-2.5,0.9-3.5c1.1-1.3,2.4-1.5,3.9-1.1c1.4,0.3,2.4,1.1,2.8,2.5
		c0.5,1.7-0.1,3.4-1.4,4.4c-1.7,1.2-3.6,1-4.9-0.1c-0.1-0.1-0.2-0.1-0.3-0.2c-0.6-0.3-1-0.7-0.9-1.4C437.2,46.5,437.1,46.3,437,46.1
		z"/>
	<path fill="#D38579" d="M368.7,135.5c-0.1,2.6-1.7,4-3.8,4c-2.4,0.1-4.2-1.7-4.1-3.9c0.1-2.2,1.5-3.8,3.9-3.9
		C366.9,131.7,368.7,133.5,368.7,135.5z"/>
	<path fill="#C66E65" d="M375.2,89c2.5,0.5,3.9,3,2.8,5.4c-0.1,0.3-0.3,0.5-0.3,0.8c0,0.3-0.1,0.5-0.4,0.5c-0.5,0.2-0.9,0.5-1.4,0.7
		c-2,0.7-4.2-0.3-5-2.2c-0.7-1.9,0.1-4.1,2.1-4.9c0.2-0.1,0.5-0.2,0.7-0.3C374.2,88.5,374.6,89,375.2,89z"/>
	<path fill="#678666" d="M384.2,69.9c1.2-1.3,2.7-1.8,4.4-1.3c2,0.7,3.1,2.8,2.4,4.9c-0.6,1.9-2.7,2.9-4.6,2.4
		c-2.3-0.6-3.4-2.6-2.7-5.1c0-0.1,0.1-0.2,0.1-0.3C383.6,70.3,383.9,70.1,384.2,69.9z"/>
	<path fill="#70A277" d="M464,109c-2.1,0-3.9-1.8-3.9-3.9c0-1.9,1.8-3.8,3.8-3.8c2.2,0,4,1.7,4,3.9C468,107.3,466.2,109,464,109z"/>
	<path fill="#C66F65" d="M412.9,81.7c2.1,0,3.8,1.7,3.8,3.9c0,2.1-1.7,3.8-3.8,3.8c-2.1,0-3.9-1.7-3.8-3.9
		C409,83.3,410.7,81.7,412.9,81.7z"/>
	<path fill="#E0A687" d="M339.5,92.8c-0.1-1.7,1.6-3.7,4-3.7c1.9,0,3.8,1.9,3.8,3.7c0,2.1-1.5,4-3.8,4.1
		C341.2,97,339.5,95.1,339.5,92.8z"/>
	<path fill="#D28377" d="M384,52.2c-0.3,0.3,0,0.5,0.1,0.7c1.7,2.3,0.6,5-1.3,6c-1.3,0.7-3,0.5-4.1-0.5c-1.2-1.1-1.6-2.7-1.1-4.2
		c0.6-1.9,2.7-2.7,4.2-2.5c0.3,0.1,0.7,0.3,0.8-0.2C383.1,51.6,383.6,51.8,384,52.2z"/>
	<path fill="#C77067" d="M363.9,148.3c-0.3,0.7-0.5,1.3-1.1,1.9c-1.5,1.5-3.8,1.6-5.4,0.2c-1.5-1.4-1.7-3.8-0.3-5.3
		c1.1-1.1,2.5-1.5,4-1.1c1.6,0.5,2.3,1.7,2.5,3.3c0.1,0.3,0.1,0.6,0.1,0.9C364,148.2,364,148.2,363.9,148.3
		C363.9,148.2,363.9,148.3,363.9,148.3z"/>
	<path fill="#EAAC3D" d="M377.9,168.3c0-2,1.7-3.7,3.8-3.6c2.1,0,3.8,1.7,3.8,3.8c0,2.1-1.7,3.8-3.8,3.8
		C379.5,172.2,377.9,170.5,377.9,168.3z"/>
	<path fill="#DDA082" d="M373.2,37.1c-2.1,0-4-1.7-3.9-3.9c0.1-2,1.7-3.8,3.9-3.7c2.1,0.1,3.8,1.5,3.8,3.7
		C377.1,35.3,375.3,37.1,373.2,37.1z"/>
	<path fill="#DBA082" d="M403,40.6c0-2.1,1.9-3.8,4-3.8c1.7,0,3.8,2.1,3.7,3.8c-0.2,2.3-1.7,3.8-4,3.8
		C404.7,44.3,402.9,42.5,403,40.6z"/>
	<path fill="#C36C64" d="M463.8,44.8c0,2.1-1.7,3.8-3.8,3.8c-2.2,0-3.8-1.7-3.8-4c0.1-1.9,1.8-3.5,3.9-3.5
		C462.3,41.1,463.9,42.7,463.8,44.8z"/>
	<path fill="#C46E65" d="M422.8,129.1c-0.1,0.3,0.1,0.5,0.1,0.8c0.5,1.5,0,3-1.3,4c-1.1,0.9-2.9,1.1-4.2,0.4
		c-1.2-0.7-2.1-2.3-1.9-3.7c0.3-2.2,2.5-3.8,4.8-3.2c0.2,0.1,0.5,0.1,0.7,0.1C422,127.6,422.4,128.4,422.8,129.1z"/>
	<path fill="#E0A586" d="M357.4,79.8c0.5,0.1,0.4-0.2,0.5-0.5c0.1-1,0.2-1.9,0.9-2.7c0.9-0.9,1.8-1.5,3.1-1.3
		c1.7,0.1,2.7,1.1,3.4,2.7c0.5,1.5,0,2.7-0.9,3.7c-1,1.1-2.3,1.3-3.6,1c-0.7-0.1-1.5-0.6-1.9-1.3c-0.3-0.5-0.6-0.5-0.9,0
		C357.5,80.9,357.2,80.4,357.4,79.8z"/>
	<path fill="#C37066" d="M394.9,91.3c-0.4-0.1-0.4,0.3-0.5,0.5c-1.2,2.7-4.5,3.3-6.4,1.1c-0.9-1.1-1.1-2.3-0.7-3.6
		c0.4-1.3,1.4-2.2,2.8-2.5c2.3-0.5,4.4,1.1,4.5,3.5c0,0.2-0.1,0.5,0.3,0.5C395.1,91,395.1,91.2,394.9,91.3z"/>
	<path fill="#688A69" d="M386.1,128.3c-2.3-2-1.9-5.4,0.8-6.5c1.5-0.6,2.9-0.3,4,0.7c1.1,1.1,1.5,2.5,0.9,4
		c-0.5,1.5-1.7,2.2-3.3,2.4c-0.4,0.1-0.7,0-1.1,0C386.8,129,386.4,128.8,386.1,128.3z"/>
	<path fill="#C87166" d="M479.3,114.4c-2.1,0-3.8-1.7-3.8-3.7c0-2.1,1.8-3.8,3.9-3.8c1.9,0.1,3.7,1.8,3.6,3.8
		C483,112.8,481.4,114.4,479.3,114.4z"/>
	<path fill="#6BA277" d="M427.6,103.5c2.4,1.2,2.5,3.8,1.7,5.2c-0.7,1.5-2.5,2.2-4.2,1.8c-1.4-0.3-2.7-1.9-2.7-3.4
		c-0.1-1.7,0.9-3.2,2.3-3.8c0.7-0.3,1.5-0.3,2.3-0.3C427.3,103.1,427.4,103.4,427.6,103.5z"/>
	<path fill="#E1A788" d="M415.1,151.2c-2.1,0.1-3.7-1.7-3.8-3.6c-0.1-2.1,1.7-3.8,3.8-3.9c1.9,0,3.8,1.7,3.8,3.8
		S417.2,151.2,415.1,151.2z"/>
	<path fill="#D3867A" d="M369.7,55.6c0.1,2-1.7,3.8-3.6,3.8c-2,0-3.7-1.6-3.8-3.7c-0.1-2,1.7-3.8,3.9-3.8
		C368,52,369.6,53.5,369.7,55.6z"/>
	<path fill="#698969" d="M432.4,92.8c0.3,0.5,0.3,1.1,0.3,1.8c-0.1,0.5,0.3,1.2-0.5,1.6c-1.4,1.7-3.1,2.2-4.8,1.4
		c-1.4-0.7-2.1-1.9-2.1-3.4c0.1-1.5,0.9-2.7,2.3-3.3s2.9-0.3,4,0.8C432.1,91.8,432.4,92.2,432.4,92.8z"/>
	<path fill="#C67067" d="M491.2,71.3c0.9,0.9,1.5,1.9,1.5,3.2c-0.1,1.9-1.3,2.9-3.2,3.2c-1.7,0.2-3.4-1.1-3.6-2.9
		c-0.3-1.7,0.9-3.4,2.5-3.8c0.6-0.1,1.2-0.1,1.8,0c0.5,0.1,0.6,0,0.4-0.5c-0.1-0.4-0.3-0.8,0-1.2c0.3-0.5,0.8-0.9,1.5-0.7
		c0.6,0.2,1.1,0.7,1.1,1.3c0.1,0.7-0.4,1.1-1,1.3C491.8,71.2,491.6,71.2,491.2,71.3z"/>
	<path fill="#C67067" d="M430.8,161.5c-2.1-0.1-3.6-1.7-3.6-3.9c0-1.9,1.8-3.5,3.9-3.4c1.9,0.1,3.5,1.7,3.5,3.8
		C434.5,160,432.8,161.6,430.8,161.5z"/>
	<path fill="#E9AC3D" d="M350.2,136.1c-1.8-0.2-3.1-1.4-3.4-3.1c-0.3-1.5,0.3-2.9,1.7-3.8c1.3-0.8,2.7-0.7,4,0.1
		c1.1,0.7,1.6,1.9,1.5,3.3c-0.1,1.8-1.3,2.9-3.2,3.4C350.6,136.2,350.4,136.2,350.2,136.1z"/>
	<path fill="#E8A938" d="M382.3,102.8c-1.7-1.9-1.5-3.5-0.6-5c0.9-1.3,2.6-1.9,4.3-1.3c1.1,0.3,2.3,1.7,2.4,3.4
		c0.1,2.5-2.9,4.7-5.6,3.2C382.7,102.9,382.4,103,382.3,102.8z"/>
	<path fill="#E28A55" d="M370.2,75.3c2.2,0,3.9,1.6,3.8,3.8c0,1.9-1.7,3.7-3.6,3.6c-2.5-0.1-3.8-1.7-3.8-3.9
		C366.6,76.9,368.3,75.3,370.2,75.3z"/>
	<path fill="#6CA177" d="M394.9,91.3c0-0.1,0-0.3,0-0.4c0.5-1.1,1.3-2,2.4-2.5c0.4-0.2-0.1-0.3-0.1-0.4c0.5-0.3,0.9-0.5,1.5-0.2
		c-0.1,0.4,0.2,0.4,0.5,0.5c1.9,0.4,3.2,1.9,3.2,3.8c-0.1,1.7-1.5,3.3-3.3,3.5c-1.9,0.2-3.8-1.1-4-3.4C395,91.8,395,91.6,394.9,91.3
		z"/>
	<path fill="#D38579" d="M370.8,71.2c-0.1,2.1-2,3.8-3.9,3.6c-2.1-0.3-3.5-1.6-3.4-3.9c0.1-2.3,1.9-3.5,3.8-3.4
		C369.4,67.4,371,69.2,370.8,71.2z"/>
	<path fill="#C66E65" d="M418.6,164.2C418.6,164.3,418.6,164.3,418.6,164.2c1.2,1.3,1.7,2.7,1.1,4.4c-0.6,1.6-2.3,2.4-3.8,2.2
		c-1.7-0.2-3-1.5-3.2-3.4c-0.2-1.4,0.9-3.1,2.3-3.7C416.3,163.3,417.5,163.8,418.6,164.2z"/>
	<path fill="#E7A83B" d="M395.8,60.5c-0.3,0.4-0.5,0.8-0.8,1.2c-1,1.1-2.3,1.6-3.8,1.2c-1.5-0.4-2.5-1.5-2.7-3.1
		c-0.3-1.3,0.5-2.7,1.9-3.6c1.1-0.7,2.7-0.7,3.8,0.1c1.1,0.9,1.7,1.9,1.6,3.4C395.7,60,395.8,60.2,395.8,60.5z"/>
	<path fill="#C56F66" d="M457.7,164.4c-2,0-3.7-1.6-3.7-3.6c-0.1-2.1,1.5-3.8,3.8-3.8c1.9-0.1,3.6,1.7,3.6,3.7
		C461.3,162.6,459.7,164.4,457.7,164.4z"/>
	<path fill="#C56F66" d="M481.3,154.3c0.7,1.3,1,2.6,0.4,4c-0.7,1.6-2.5,2.3-4.4,1.9c-1.6-0.5-2.7-2.1-2.5-3.8
		c0.2-1.7,1.7-3.2,3.4-3.2c0.9-0.1,1.7,0.3,2.5,0.5C481,153.7,481.2,153.9,481.3,154.3z"/>
	<path fill="#C77067" d="M414.8,160.5c0,1.9-1.7,3.6-3.6,3.6c-2-0.1-3.6-1.7-3.6-3.7c0-1.9,1.7-3.7,3.6-3.7
		C413.3,156.7,414.8,158.3,414.8,160.5z"/>
	<path fill="#DEA486" d="M361.3,67.4c0,2-1.7,3.8-3.7,3.6c-1.9-0.1-3.6-1.5-3.6-3.6c0-2.3,1.7-3.8,3.6-3.8
		C359.8,63.7,361.2,65.3,361.3,67.4z"/>
	<path fill="#688868" d="M441.1,71.4c0.1,0.4,0.3,0.7,0.3,1.1c0.3,0.5,0.3,1,0,1.5c-0.1,0.7-0.5,1.3-0.8,1.9l0,0
		c-1.1,0.7-2.2,1.1-3.6,0.8c-1.5-0.3-2.5-1.3-2.7-2.8s0.4-2.9,1.6-3.8s2.8-0.8,4,0.1c0.2,0.1,0.4,0.3,0.7,0.5
		C440.9,70.9,441.1,71.1,441.1,71.4z"/>
	<path fill="#E2A98B" d="M470.8,136.8c-0.2-1.9,1.9-3.6,3.6-3.6c2.1,0,3.8,1.5,3.8,3.6c0,2-1.7,3.6-3.9,3.6
		C472.5,140.4,470.8,138.6,470.8,136.8z"/>
	<path fill="#DFA587" d="M484.3,78c1.1,0,1.9,0.5,2.6,1.2c0.7,0.7,0.7,0.7,1.2-0.1c0.3-0.5,0.7-0.6,1.2-0.4c0.5,0.3,0.9,0.6,0.7,1.3
		c-0.1,0.5-0.5,0.9-1.1,0.7c-1.1-0.4-1.1,0.3-1.1,1c-0.3,2.5-2.7,3.9-5,2.9c-1.5-0.7-2.2-2.3-1.9-3.6C481.2,79.3,482.8,78,484.3,78z
		"/>
	<path fill="#E9AA3B" d="M480.6,119c0.6,0.1,1-0.5,1.5-0.7c1.5-0.6,3-0.1,3.8,0.7c1.1,1,1.5,2.6,0.9,4c-0.5,1.3-1.5,2.1-3,2.2
		c-0.8,0.1-1.6,0-2.3-0.5c-0.6-0.1-1-0.5-1.1-1.1c-0.5-0.9-0.8-1.9-0.4-2.9C479.8,119.9,480,119.4,480.6,119z"/>
	<path fill="#D28377" d="M419.4,47.3c0.1,1.9-1.5,3.7-3.7,3.6c-2-0.1-3.4-1.6-3.5-3.5c-0.1-1.9,1.4-3.7,3.6-3.8
		C418,43.6,419.5,45.7,419.4,47.3z"/>
	<path fill="#E1A889" d="M507.9,115.5c0.1,1.6-1.7,3.5-3.7,3.5c-2,0-3.6-2.1-3.5-3.8c0.2-2,1.6-3.4,3.7-3.4
		C506.3,111.8,508,113,507.9,115.5z"/>
	<path fill="#EAAA38" d="M469.2,143.6c1.9,0,3.6,1.6,3.6,3.5c0,1.9-1.7,3.6-3.8,3.6c-1.8,0-3.5-1.7-3.4-3.6
		C465.6,145.2,467.2,143.4,469.2,143.6z"/>
	<path fill="#E8A93C" d="M342.8,86.2c0-1.3,0.1-2.5,1.1-3.6c1.1-1.1,2.9-1.3,4.2-0.6c1.4,0.8,2.1,2.4,1.7,4
		c-0.3,1.3-1.6,2.6-3.2,2.6c-1.5,0.1-2.6-0.7-3.5-1.9C342.9,86.7,342.7,86.5,342.8,86.2z"/>
	<path fill="#E9A93C" d="M506.3,68.5c-0.1,1.9-1.6,3.6-3.6,3.4c-2.1-0.1-3.4-1.5-3.5-3.6c-0.1-2,1.6-3.6,3.6-3.6
		C504.9,64.9,506.3,66.4,506.3,68.5z"/>
	<path fill="#D3877C" d="M355.2,84.7c-0.3,0.3-0.9-0.1-0.9,0.4c0,0.3,0.5,0.3,0.9,0.5c1.3,0.5,2.3,2.3,2.1,3.6
		c-0.3,1.7-1.5,3.1-3.2,3.2c-1.5,0.1-2.9-0.5-3.6-2.2c-0.6-1.5-0.1-3.2,1.1-4.2c0.5-0.4,1.1-0.6,1.7-0.7c0.3-0.1,0.7-0.1,0.5-0.5
		C354.3,84.4,354.7,84.4,355.2,84.7z"/>
	<path fill="#E08A57" d="M429.9,39c0.1,2.1-1.8,3.6-3.6,3.6c-1.9,0-3.6-1.7-3.5-3.6c0.1-2,1.7-3.5,3.8-3.4
		C428.4,35.5,430,37.1,429.9,39z"/>
	<path fill="#D2867A" d="M408.6,93.5c2.1,0.1,3.5,1.7,3.6,3.5c0.1,1.9-1.6,3.6-3.6,3.6c-1.8,0.1-3.7-1.6-3.7-3.4
		C405,95.1,406.2,93.6,408.6,93.5z"/>
	<path fill="#D2867A" d="M353.5,64.4c0,2.2-1.5,3.6-3.4,3.6c-2.1,0.1-3.8-1.5-3.8-3.6c0-2.2,1.7-3.5,3.6-3.6
		C351.7,60.8,353.5,62.4,353.5,64.4z"/>
	<path fill="#E9AB39" d="M419,184.8c-2.1,0-3.5-1.6-3.5-3.8c0-1.7,1.7-3.3,3.6-3.2c2,0,3.5,1.6,3.5,3.6
		C422.6,183.3,421,184.8,419,184.8z"/>
	<path fill="#D18579" d="M455.1,22.7c-2.1-0.1-3.6-1.7-3.6-3.4c0-2.3,1.4-3.7,3.6-3.7c1.9-0.1,3.5,1.6,3.6,3.6
		C458.7,20.9,456.8,22.7,455.1,22.7z"/>
	<path fill="#638564" d="M477.5,60.3c-0.1,2-1.7,3.5-3.7,3.4c-1.9-0.1-3.5-1.7-3.4-3.7c0.1-1.9,1.7-3.5,3.8-3.4
		C476,56.7,477.6,58.3,477.5,60.3z"/>
	<path fill="#D3867A" d="M362.3,105.2c0,2.1-1.5,3.5-3.5,3.6c-1.9,0.1-3.6-1.5-3.6-3.6s1.4-3.5,3.6-3.5
		C360.5,101.6,362.5,103.1,362.3,105.2z"/>
	<path fill="#678767" d="M403.4,70.3c0.3-0.4,0.6-0.8,0.9-1.2c1.2-1.2,3.2-1.4,4.6-0.4c1.4,1,1.9,2.9,1.1,4.4
		c-0.7,1.5-2.5,2.3-4,1.9c-1.9-0.5-2.9-2-2.8-3.9c0-0.3,0.1-0.5,0.1-0.7C403.4,70.5,403.4,70.4,403.4,70.3z"/>
	<path fill="#6B8A6A" d="M449.6,93.2c1.6,1.3,2.1,3.1,1.2,4.7c-0.8,1.5-2.7,2.3-4.3,1.7c-1.7-0.6-2.6-2.4-2.2-4.1
		c0.5-1.8,2.1-3,3.9-2.7c0.4,0.1,0.8,0.1,1.1,0.3C449.4,93.2,449.6,93.1,449.6,93.2z"/>
	<path fill="#D08579" d="M449.1,151.4c-2.1-0.1-3.5-1.6-3.5-3.8c0-1.8,1.7-3.4,3.8-3.3c1.7,0,3.4,1.7,3.4,3.6
		C452.6,149.8,451,151.4,449.1,151.4z"/>
	<path fill="#69896A" d="M424.7,132.1c0-1.9,1.5-3.5,3.5-3.6c1.9,0,3.5,1.5,3.6,3.5c0,1.9-1.6,3.6-3.5,3.6
		C426.3,135.6,424.7,134,424.7,132.1z"/>
	<path fill="#E0A788" d="M423.4,100.5c-0.4-0.1-0.5,0.2-0.8,0.4c-1.5,1.2-2.9,1.5-4.5,0.5c-1.1-0.7-1.9-2.3-1.5-3.7
		c0.3-1.4,1.6-2.5,2.9-2.7c2.3-0.5,4.9,2.1,3.9,4.6c-0.1,0.3-0.3,0.5,0,0.8C423.5,100.4,423.5,100.5,423.4,100.5z"/>
	<path fill="#C66F65" d="M381,71.7c-0.1,1.8-1.6,2.9-2.7,3c-1.9,0.3-3.3-0.4-4-2.1c-0.6-1.4-0.1-3.1,1.1-4.1
		c1.1-0.9,2.9-0.9,4.2-0.1c0.4,0.3,0.7,0.7,1.1,1.1c0.4,0.2,0.5,0.5,0.4,1C381,71,381.1,71.3,381,71.7z"/>
	<path fill="#E48B52" d="M427.8,178.4c2.1,0.1,3.5,1.7,3.4,3.5c-0.1,2.3-1.6,3.6-3.5,3.6c-2.4-0.1-3.6-1.6-3.6-3.8
		C424.1,179.9,425.9,178.3,427.8,178.4z"/>
	<path fill="#C76F66" d="M448.7,167.1c-0.1-1.9,1.4-3.5,3.3-3.6c2.1-0.1,3.7,1.7,3.7,3.4c0,2-1.5,3.5-3.5,3.6
		C450.4,170.6,448.5,168.9,448.7,167.1z"/>
	<path fill="#6BA177" d="M431.8,115.5c-2.1-0.1-3.5-1.5-3.4-3.6c0.1-1.9,1.7-3.4,3.6-3.3c1.9,0.1,3.4,1.7,3.4,3.7
		C435.3,114.1,433.8,115.5,431.8,115.5z"/>
	<path fill="#A4AE71" d="M438.5,97.4c2.1,0,3.5,1.5,3.5,3.6c0,1.9-1.6,3.4-3.6,3.4c-2-0.1-3.4-1.9-3.4-3.6
		C435,98.9,436.6,97.4,438.5,97.4z"/>
	<path fill="#E9A93C" d="M476.9,34.9c-0.1-2.4,2.1-3.8,4.6-3.4c1.6,0.3,2.5,2.2,2.3,4c-0.3,2.1-2.6,3.2-4.3,2.7
		c-0.7-0.2-1.3-0.7-1.9-1.3C476.7,36.2,476.6,35.9,476.9,34.9z"/>
	<path fill="#E7A93D" d="M379.9,119.4c0,1.9-1.5,3.6-3.5,3.5c-2,0-3.5-1.6-3.6-3.4c-0.1-1.9,1.6-3.5,3.5-3.5
		C378.3,116,379.9,117.5,379.9,119.4z"/>
	<path fill="#D18578" d="M399.3,17.5c0.1,0.4,0.2,0.7,0.3,1.1c0.5,1.3,0.2,2.5-0.6,3.4c-0.9,1.1-2.3,1.5-3.7,1.1
		c-1.3-0.3-2.1-1.3-2.3-2.6c-0.5-2.3,1.1-3.8,2.7-4.2c1.1-0.3,2.1,0.2,3.1,0.9C399,17.3,399.3,17.2,399.3,17.5z"/>
	<path fill="#C67066" d="M370.2,121.3c-0.4-0.1-0.7-0.1-1.1-0.3c-0.9-0.4-1.4-1.2-1.3-2.1c0.1-1,0.8-1.7,1.7-1.9
		c0.9-0.1,1.9,0.3,2.3,1.1c0.4,0.9,0.2,1.8-0.5,2.5c-0.1,0.1-0.1,0.1-0.3,0.2c-0.1,0.1-0.5,0.2-0.3,0.5c0.1,0.3,0.4,0.1,0.6,0.1
		c0.5,0,1.1,0.2,1.5,0.5c1.3,1.1,1.4,2.9,0.3,4.1c-1.1,1.1-3,1.1-4.1-0.2c-1.1-1.3-0.8-3.1,0.5-4.1
		C369.8,121.8,370.1,121.7,370.2,121.3z"/>
	<path fill="#EAAC3E" d="M456.9,172.1c0.9-1.3,1.9-2.1,3.6-1.9c2.1,0.1,3.6,2.5,2.9,4.5c-0.7,2.1-3.1,2.8-4.8,2
		c-1.3-0.6-1.8-1.8-2-3.2C456.2,172.8,456.5,172.4,456.9,172.1z"/>
	<path fill="#E7AA3D" d="M452.9,89.6c0.1-0.4-0.3-0.7-0.4-1.1c-0.4-1.3-0.1-2.7,1-3.6c1.1-1,2.7-1.1,4-0.4c1.2,0.7,1.9,1.8,1.7,3.3
		c-0.1,1.4-0.9,2.5-2.2,2.9c-1.1,0.4-2.3,0.3-3.3-0.5C453.4,90,453.2,89.7,452.9,89.6L452.9,89.6z"/>
	<path fill="#D28376" d="M424.9,60.1c0-1.8,1.5-3.5,3.2-3.4c2.5,0.1,3.8,1.9,3.8,3.4c0,1.9-1.7,3.6-3.6,3.6S424.9,62.1,424.9,60.1z"
		/>
	<path fill="#E8A739" d="M487.6,43.2c-0.2,0.3-0.4,0.3-0.7,0.3c-1.9,0.4-3.6-0.4-4.3-2.1c-0.7-1.7,0.2-3.7,2.1-4.4
		c1.7-0.7,3.8,0.3,4.4,2.1C489.7,40.6,489,42.5,487.6,43.2z"/>
	<path fill="#D3857A" d="M398.4,153.1c0,2-1.5,3.6-3.6,3.5c-2-0.1-3.4-1.4-3.4-3.5c0-1.7,1.4-3.4,3.6-3.4
		C396.4,149.6,398.5,151.3,398.4,153.1z"/>
	<path fill="#EAAC3D" d="M503.1,129.6c-0.8-0.3-1.8-0.4-2.5-1.2c-1-1.2-1.3-2.5-0.7-3.9c0.6-1.2,2-2.1,3.4-1.9
		c1.3,0.1,2.5,1.1,3,2.5c0.4,1.4-0.2,2.9-1.4,3.8c-0.3,0.1-0.5,0.2-0.7,0.5C504,129.8,503.6,129.9,503.1,129.6z"/>
	<path fill="#E08A57" d="M456.7,35.6c0-1.9,1.5-3.4,3.6-3.4c1.7,0,3.3,1.6,3.4,3.4c0,1.9-1.5,3.4-3.4,3.4
		C458.2,39.1,456.8,37.6,456.7,35.6z"/>
	<path fill="#E28A53" d="M418.3,65c0-1.9,1.5-3.4,3.4-3.4c2.1,0,3.4,1.5,3.5,3.4c0.1,1.9-1.5,3.5-3.4,3.5
		C419.7,68.4,418.3,67,418.3,65z"/>
	<path fill="#C87269" d="M486.2,133.3c2,0,3.4,1.5,3.4,3.5c0,1.8-1.5,3.4-3.4,3.3c-2,0-3.6-1.5-3.6-3.5
		C482.7,134.8,484.3,133.3,486.2,133.3z"/>
	<path fill="#E08A57" d="M433.2,14.6c0-1.9,1.5-3.4,3.4-3.4c1.8,0,3.5,1.3,3.5,3.4s-1.6,3.4-3.5,3.5
		C434.9,18.2,433.2,16.4,433.2,14.6z"/>
	<path fill="#C36D64" d="M414.7,21.7c2,0.1,3.4,1.5,3.4,3.6c0,1.9-1.6,3.3-3.6,3.3c-1.8-0.1-3.4-1.6-3.4-3.4
		C411.3,23.2,412.9,21.6,414.7,21.7z"/>
	<path fill="#C26A63" d="M392.1,37.4c0.1,0.7,0.2,1.3,0,2c-0.5,1.5-2.1,2.6-3.8,2.3c-1.9-0.3-3.1-1.7-3-3.6c0.1-1.6,1.3-3,3.1-3.2
		c0.3-0.1,0.7-0.1,1,0c0.9,0.1,1.5,0.6,2.1,1.3c0.2,0.3,0.4,0.5,0.6,0.7C392.1,37.1,392.1,37.3,392.1,37.4z"/>
	<path fill="#C36D65" d="M384.8,23.5c0-1.9,1.5-3.4,3.4-3.4c1.9,0,3.5,1.5,3.5,3.4c0,2-1.5,3.5-3.6,3.4
		C386.2,26.8,384.8,25.3,384.8,23.5z"/>
	<path fill="#C66E66" d="M428.3,162.1c1.9,0,3.3,1.5,3.3,3.5c0,1.8-1.6,3.3-3.5,3.3c-1.9,0-3.4-1.5-3.3-3.5
		C424.9,163.5,426.4,162.1,428.3,162.1z"/>
	<path fill="#C67269" d="M506.7,96.9c0-1.9,1.5-3.4,3.4-3.4c1.8,0.1,3.4,1.6,3.4,3.4c0,1.9-1.7,3.5-3.6,3.4
		C508.2,100.4,506.7,98.7,506.7,96.9z"/>
	<path fill="#C26C63" d="M468.4,79.3c-1.9,0-3.4-1.5-3.4-3.4c0-1.8,1.5-3.4,3.4-3.4c1.9,0,3.5,1.6,3.5,3.6
		C471.8,77.8,470.2,79.3,468.4,79.3z"/>
	<path fill="#D3857A" d="M401.6,174.5c2.1,0.1,3.6,1.6,3.5,3.6c-0.1,1.7-1.7,3.2-3.4,3.2c-2,0-3.6-1.5-3.6-3.6
		C398.2,176,399.8,174.4,401.6,174.5z"/>
	<path fill="#D18579" d="M430.6,146.7c0-2,1.5-3.4,3.5-3.4c2.1,0,3.4,1.6,3.4,3.4c0,2.3-1.8,3.5-3.6,3.4
		C432.2,150,430.6,148.4,430.6,146.7z"/>
	<path fill="#DFA788" d="M349.7,102.4c-2,0-3.4-1.5-3.4-3.5c-0.1-1.9,1.9-3.4,3.5-3.4c1.5,0,3.6,1.7,3.4,3.7
		C353.1,100.8,351.5,102.8,349.7,102.4z"/>
	<path fill="#DFA989" d="M451.4,109.7c-2,0.1-3.4-1.7-3.4-3.6c0.1-1.5,1.5-3.4,3.5-3.3c1.7,0.1,3.4,1.7,3.4,3.6
		C454.8,107.9,453.3,109.7,451.4,109.7z"/>
	<path fill="#D28277" d="M492.6,87.8c-0.9-0.3-1.8-0.1-2.7-0.2c0.5-0.3,1.1-0.1,1.5-0.1c0.1,0,0.3,0.1,0.3-0.1
		c0.1-0.2-0.1-0.3-0.3-0.3c-0.7-0.4-1.3-0.9-1.7-1.7c-1.1-2.2,0.5-4.8,2.9-4.8c1.6,0,3.2,1.1,3.4,2.9c0.2,1.9-0.9,3.5-2.7,3.8
		c-0.3,0.1-0.5,0.1-0.8,0.1C492.3,87.4,492.5,87.6,492.6,87.8z"/>
	<path fill="#C36C64" d="M420.6,14.7c1.1,1.1,1.6,2.5,0.9,4c-0.6,1.4-2.1,2.2-3.7,1.9c-1.3-0.2-2.6-1.6-2.7-2.8
		c-0.1-1.7,0.7-3.1,2.3-3.6c0.8-0.3,1.6-0.1,2.3,0C420.3,14.2,420.5,14.3,420.6,14.7z"/>
	<path fill="#6EA278" d="M461.1,117.6c0,0.1,0,0.3,0,0.3c0.8,0.4,1.4,1.1,2,1.8c0.1,0.1,0.3,0.1,0.4,0.1c0.4,0.1,0.3,0.3,0.1,0.6
		c-0.5,0.1-0.3,0.5-0.3,0.7c-0.1,1.8-1.3,3.2-3.2,3.3c-1.7,0.1-3.2-1.1-3.4-2.9c-0.2-1.5,0.7-3,2.3-3.6c0.3-0.1,0.7-0.1,0.5-0.6
		C460.1,117.4,460.6,117.3,461.1,117.6z"/>
	<path fill="#D1867A" d="M377.2,153.6c-1.8-0.1-3.5-1.6-3.3-3.4c0.2-2,1.3-3.2,3.6-3.3c1.5-0.1,3.3,1.7,3.2,3.1
		C380.4,152.2,379.3,153.4,377.2,153.6z"/>
	<path fill="#C56F66" d="M355,130.1c0-1.8,1.5-3.2,3.3-3.2s3.4,1.5,3.4,3.3s-1.5,3.4-3.4,3.3C356.4,133.5,355,132.1,355,130.1z"/>
	<path fill="#D28479" d="M510.8,85.4c-0.1,0.5,0.3,0.5,0.7,0.7c1.6,0.9,2.1,2.4,1.9,3.4c-0.3,1.3-1.3,2.6-2.9,2.9
		c-1.3,0.2-2.5-0.4-3.4-1.7c-0.6-1-0.5-2.5,0.2-3.5c0.3-0.4,0.7-0.8,1.1-1.2C509.1,85.7,510,85.6,510.8,85.4z"/>
	<path fill="#6B8A6A" d="M451.4,139.1c0-0.6,0-1.2,0-1.7c0.3-1.5,1.3-2.3,3-2.6c0.5,0,1.1,0.1,1.6,0.3c0.7,0.1,1.2,0.4,1.3,1.1
		c0.1,0.3,0.3,0.6,0.5,0.9c0.2,2-0.4,3.2-1.8,3.9C454.6,141.7,452.3,141.4,451.4,139.1z"/>
	<path fill="#C77268" d="M345.9,101.3c0,1.8-1.5,3.4-3.2,3.4c-1.8,0-3.4-1.5-3.4-3.3c0-1.8,1.4-3.4,3.3-3.4
		C344.4,98,345.9,99.4,345.9,101.3z"/>
	<path fill="#C67067" d="M451.3,34.1c-1.8,0-3.3-1.5-3.3-3.4c0-1.8,1.6-3.3,3.5-3.3c1.6,0,3.2,1.6,3.2,3.4
		C454.6,32.6,453.2,34.1,451.3,34.1z"/>
	<path fill="#C46F66" d="M453,126.6c-0.1,0.5-0.5,0.7-0.7,1.1c-0.7,0.3-1.3,0.6-2.1,0.5c-1.4-0.1-2.4-0.7-2.9-1.9
		c-0.5-1.3-0.3-2.5,0.5-3.5c0.9-1.1,2.1-1.4,3.4-0.9C453.1,122.4,454.2,124.5,453,126.6z"/>
	<path fill="#C66E65" d="M498.6,58c2.3,0.1,3.7,1.4,3.7,3.5c0,1.3-0.7,2.3-1.9,2.8c-1.2,0.6-2.4,0.5-3.4-0.4
		c-1.1-0.9-1.5-2.1-1.1-3.4c0.3-0.9,0.9-1.5,1.6-2.1C497.8,58.1,498.1,58,498.6,58z"/>
	<path fill="#E9A93E" d="M471.4,105c1.7,0,3.3,1.7,3.3,3.5c0,1.5-1.7,3.2-3.4,3.1c-1.7-0.1-3.4-1.6-3.2-3.2
		C468.2,106.3,469.4,105.2,471.4,105z"/>
	<path fill="#D38378" d="M481.6,133.5c-1.8,0-3.3-1.5-3.3-3.2c0-1.7,1.5-3.2,3.2-3.2c1.7,0,3.4,1.5,3.4,3.2
		C484.8,131.9,483.5,133.6,481.6,133.5z"/>
	<path fill="#E08A55" d="M401.6,39.8c0.2,1.7-1.8,3.2-3.3,3.1c-1.7-0.1-3.2-1.5-3.2-3.2c0.1-1.8,1.5-3.3,3.4-3.2
		C400.3,36.5,401.7,38.1,401.6,39.8z"/>
	<path fill="#C56D63" d="M376.1,51.3c0,1.8-1.4,3.2-3.3,3.2c-1.7,0-3.2-1.6-3.1-3.4c0.1-1.7,1.5-3.1,3.2-3.1
		C374.9,48.1,376.2,49.4,376.1,51.3z"/>
	<path fill="#D38578" d="M496.3,75.3c-1.7,0-3.1-1.5-3.1-3.4c0-1.7,1.6-3.2,3.4-3.2c1.6,0,3,1.5,3,3.3
		C499.5,73.9,498.1,75.3,496.3,75.3z"/>
	<path fill="#C46E65" d="M485.5,59.2c-1.8-0.1-3.2-1.5-3.2-3.2c0-1.7,1.4-3.2,3.2-3.1c1.9,0.1,3.2,1.4,3.2,3.4
		C488.7,57.8,487.1,59.2,485.5,59.2z"/>
	<path fill="#D4877C" d="M370.5,162.7c0-1.7,1.5-3.2,3.2-3.2c1.7,0,3.2,1.3,3.2,3.3c0.1,1.6-1.6,3.2-3.3,3.2
		C371.9,166,370.5,164.4,370.5,162.7z"/>
	<path fill="#E18957" d="M355.2,84.7c-0.5,0-0.9,0-1.3,0c-1.9-0.5-2.7-2.1-2.3-3.8c0.4-2.3,3.3-3.3,5.1-1.8c0.3,0.2,0.5,0.5,0.7,0.7
		c0.1,0.5,0.5,0.9,0.5,1.5C358,83.2,356.7,84.6,355.2,84.7z"/>
	<path fill="#E0A586" d="M475.4,115.8c0,1.7-1.4,3.2-3.2,3.2c-1.8,0-3.1-1.4-3.1-3.4c-0.1-1.9,1.6-3.1,3.2-3.1
		C474,112.6,475.5,114.2,475.4,115.8z"/>
	<path fill="#E0A687" d="M488.8,102.6c2-0.1,3.1,1.5,3.3,3.3c0.1,1.5-1.6,3.1-3.2,3.2c-1.6,0.1-3.1-1.5-3.2-3.2
		C485.5,104.3,487.2,102.4,488.8,102.6z"/>
	<path fill="#E1A988" d="M366.1,111.7c0.1,1.9-1.5,3.2-3.2,3.2c-1.7,0-3.2-1.3-3.2-3.3c0-1.7,1.4-2.9,3.2-3
		C364.5,108.6,366.5,110.3,366.1,111.7z"/>
	<path fill="#E1A889" d="M502.6,88.1c0.1,1.6-1.2,3.2-2.9,3.3c-1.7,0.1-3.4-1.3-3.4-3.1c0-1.7,1.1-3,2.9-3.3
		C500.9,84.7,502.5,86.2,502.6,88.1z"/>
	<path fill="#D08377" d="M470.4,48.7c0.1,1.3-1.3,3-3.2,2.9c-1.7,0-3.2-1.5-3.1-3.2c0.1-2,1.4-3,3.3-3.1
		C469.1,45.4,470.4,47,470.4,48.7z"/>
	<path fill="#E38A53" d="M485.5,102.9c0,1.7-1.3,3.2-3,3.2c-2.1,0-3.2-1.4-3.2-3.2c-0.1-1.6,1.5-3.1,3.2-3
		C484.1,99.9,485.5,101.4,485.5,102.9z"/>
	<path fill="#E28A53" d="M478.7,38.5c1.8-0.1,3.1,1.7,3,3.2c-0.1,1.5-1.6,2.9-3.1,2.9c-1.8-0.1-3.2-1.5-3.2-3.2
		C475.4,39.7,476.9,38.5,478.7,38.5z"/>
	<path fill="#C46F65" d="M446.9,74.5c0.1-1.7,1.5-3.1,3.2-3c1.7,0.1,3,1.5,2.9,3.2c-0.1,1.6-1.5,3-3.2,3
		C448.3,77.7,446.8,76.2,446.9,74.5z"/>
	<path fill="#E5AA3B" d="M422.8,129.1c-0.6-0.5-1-1.3-1.8-1.6c0-0.1,0-0.3,0-0.5c0-0.7-0.5-1.3,0-1.9c0.7-1.6,2-2.3,3.9-1.9
		c1.3,0.3,2.3,1.6,2.2,3.1C426.9,128.4,425.3,129.8,422.8,129.1z"/>
	<path fill="#69A076" d="M432.4,92.8c-0.3-0.4-0.5-0.8-0.8-1.1c0.7,0.1,0.3-0.3,0.3-0.5c-0.3-0.8-0.2-1.5,0.1-2.3
		c0.7-1.5,2.5-2.2,4.1-1.4c1.7,0.9,2.1,2.5,1.4,4.1c-0.7,1.6-2.5,2.2-4,1.4c-0.3-0.1-0.5-0.3-0.7-0.4
		C432.6,92.4,432.4,92.5,432.4,92.8z"/>
	<path fill="#C67368" d="M417.5,90c0-1.7,1.3-3.1,3-3.1c1.7,0,3.1,1.3,3.2,2.9c0,1.7-1.4,3.2-3.1,3.2
		C418.8,93.1,417.5,91.8,417.5,90z"/>
	<path fill="#C87267" d="M349.6,122.7c-0.1,1.9-1.4,3.1-3.2,3c-1.7-0.1-2.9-1.5-2.8-3.3c0.1-1.6,1.5-2.9,3.1-2.8
		C348.4,119.7,349.7,121.1,349.6,122.7z"/>
	<path fill="#A0A96C" d="M463.3,52.4c1.9-0.1,3.2,1.7,3,3.2c-0.1,1.7-1.5,3.1-3.2,2.9c-1.6-0.1-3.1-1.3-3-3.2
		C460.3,53.6,461.7,52.3,463.3,52.4z"/>
	<path fill="#D18176" d="M435.5,45.7c0,1.9-1.5,3-2.9,3c-1.7,0.1-3.1-1.3-3.1-3c0-1.8,1.3-3.2,3.2-3.1
		C434.2,42.6,435.5,44,435.5,45.7z"/>
	<path fill="#D08275" d="M418.6,24.1c0-1.8,1.3-3.1,3.1-3.1c1.6,0,3.1,1.5,2.9,3.2c-0.1,1.5-1.2,2.9-3.2,2.9
		C419.8,27,418.6,25.8,418.6,24.1z"/>
	<path fill="#D18478" d="M498.6,58c-0.3,0.3-0.7,0.3-1.1,0.3c0-0.4-0.2-0.5-0.5-0.5c-1.5-0.1-2.7-1.5-2.7-2.9
		c0.1-1.7,0.9-2.9,2.7-3.1c1.3-0.1,2.7,0.6,3.1,2.3c0.3,1.2-0.1,2.1-0.9,2.9C498.9,57.4,498.5,57.6,498.6,58z"/>
	<path fill="#E28A55" d="M463.1,112.4c0-1.7,1.3-2.9,2.9-2.9c1.7,0,3,1.3,3,2.9c0,1.7-1.4,3-3.2,2.9
		C464.3,115.4,463.1,114.1,463.1,112.4z"/>
	<path fill="#C66F66" d="M462.9,163.4c1.8,0,3,1.2,3,3c0,1.5-1.3,2.8-3,2.8s-3-1.3-2.9-3C460,164.5,461.3,163.3,462.9,163.4z"/>
	<path fill="#D3897D" d="M343.9,119.3c-1.5,0-2.8-1.3-2.9-2.9c0-1.7,1.3-3.1,3-3c1.5,0,2.9,1.1,2.9,2.9
		C347,117.8,345.8,119.5,343.9,119.3z"/>
	<path fill="#74A379" d="M466.6,127.5c0,1.5-1.3,2.9-2.9,2.9s-3.1-1.3-3-2.9c0-1.6,1.3-3,2.9-3C465.2,124.5,466.6,125.8,466.6,127.5
		z"/>
	<path fill="#C57066" d="M394.6,149c-1.7,0-2.9-1.4-2.9-3.1c0.1-1.5,1.5-2.8,3.1-2.8c1.7,0,3,1.3,2.9,3
		C397.6,147.3,396.6,149,394.6,149z"/>
	<path fill="#C46C65" d="M368.3,63.2c0,1.7-1.3,2.9-3.2,2.9c-1.5,0-2.8-1.5-2.8-3.1c0-1.5,1.4-2.8,3-2.9
		C367,60.2,368.3,61.5,368.3,63.2z"/>
	<path fill="#6C8B6B" d="M401.1,102c-1.7,0-2.9-1.3-2.9-2.9c0-1.6,1.3-2.9,2.9-2.9c1.7,0,2.9,1.3,2.9,2.9
		C404.1,100.7,402.7,102,401.1,102z"/>
	<path fill="#E0A688" d="M481.6,92.4c1.3-0.1,2.9,1.3,2.9,2.9c0,1.7-1.1,2.9-2.8,2.9c-2.1,0.1-3.2-1.7-3.2-3
		C478.6,93.7,480,92.4,481.6,92.4z"/>
	<path fill="#D4867C" d="M403.9,157.3c0.1,0.1,0.3,0.1,0.5,0.3c-0.2,0.5,0.3,0.5,0.6,0.7c1.2,1.1,1.5,2.3,0.9,3.6
		c-0.5,1.1-1.7,1.7-2.9,1.5c-1.3-0.2-2.4-1.3-2.5-2.6c-0.1-1.3,0.7-2.5,2.1-3c0.3-0.1,0.6-0.2,0.9-0.2
		C403.6,157.7,403.9,157.7,403.9,157.3z"/>
	<path fill="#E18A57" d="M384.6,91.4c0,1.6-1.3,2.8-2.9,2.8s-2.9-1.3-2.9-2.9c0-1.5,1.5-2.9,3-2.8C383.4,88.6,384.7,89.8,384.6,91.4
		z"/>
	<path fill="#678868" d="M398.6,87.8c-0.5,0.1-1,0.1-1.5,0.2c-1.5-0.2-2.5-1.3-2.5-2.9c0-1.3,1-2.5,2.4-2.7c1.4-0.2,2.7,0.6,3.2,1.9
		S400.1,87,398.6,87.8z"/>
	<path fill="#669D74" d="M476.5,70.1c0.2,0.3,0.1,0.7,0.2,1c-0.2,1.5-1.1,2.6-2.6,2.8c-1,0.1-2.1-0.2-2.8-1.5
		c-0.7-1.3-0.3-2.9,1-3.8c1.1-0.7,2.9-0.5,3.8,0.7C476.2,69.5,476.3,69.9,476.5,70.1z"/>
	<path fill="#E38B54" d="M401.3,147.9c-1.8-0.1-3.1-1.3-2.9-2.9c0.1-1.5,1.4-2.9,2.8-2.8c1.6,0.1,3.1,1.5,2.9,2.9
		C404,146.6,402.7,148,401.3,147.9z"/>
	<path fill="#6DA277" d="M400.5,110.2c0,1.6-1.3,2.8-2.9,2.7c-1.5,0-2.8-1.3-2.8-2.8c0-1.5,1.3-2.8,2.9-2.8
		C399.3,107.4,400.5,108.6,400.5,110.2z"/>
	<path fill="#E1A989" d="M390.3,162.7c0,1.5-1.3,2.9-2.7,2.9c-1.9-0.1-2.9-1.4-3-2.9c-0.1-1.2,1.5-2.7,2.7-2.7
		C388.8,159.9,390.3,161.2,390.3,162.7z"/>
	<path fill="#CF8176" d="M474.5,77.4c1.7,0,2.7,1.1,2.8,2.8c0.1,1.3-1.5,2.7-2.8,2.7c-1.6,0-2.8-1.2-2.8-2.7
		C471.7,78.7,472.9,77.4,474.5,77.4z"/>
	<path fill="#E5A941" d="M369.2,129.9c1.3-1.1,3.1-1.1,4.2,0.1c1,1.1,0.9,2.9-0.4,4c-0.9,0.8-2.1,0.9-3.3,0.2
		c-0.9-0.5-1.5-1.7-1.3-2.8c0.1-0.3,0.1-0.5,0.2-0.8C368.6,130.1,368.7,129.9,369.2,129.9z"/>
	<path fill="#D08378" d="M389.3,35c-0.3,0-0.7,0-1,0c0.1-0.2,0.5-0.1,0.5-0.3s-0.3-0.3-0.5-0.3c-1.1-0.5-1.8-1.3-1.7-2.6
		c0-1.1,0.5-1.9,1.4-2.5c1.4-0.8,3.5,0.2,3.9,1.5c0.5,1.6-0.3,3.2-1.9,3.7c-0.2,0.1-0.4,0.1-0.6,0.1C388.6,34.7,389.2,34.9,389.3,35
		z"/>
	<path fill="#DF8A56" d="M398,57.6c-1.5,0-2.7-1.3-2.8-2.7c0-1.5,1.2-2.7,2.9-2.8c1.5,0,2.7,1.3,2.7,2.7
		C400.9,56.4,399.9,57.5,398,57.6z"/>
	<path fill="#6DA177" d="M386.1,128.3c0.5,0.2,0.9,0.5,1.3,0.7c0,0.3,0.3,0.5,0.5,0.7c0.8,1.1,0.9,2.4,0.1,3.4
		c-0.7,1-2.1,1.3-3.3,0.9c-1.1-0.5-1.7-1.7-1.5-3c0.1-1.1,1.1-2.1,2.5-2.2C385.8,128.7,386.2,128.8,386.1,128.3z"/>
	<path fill="#E8A83E" d="M362.4,45.1c-1.6,0.1-2.7-1.3-2.7-2.8c0-1.4,1.3-2.6,2.7-2.6c1.6,0,2.7,1.2,2.8,2.7
		C365.3,43.7,363.9,45.4,362.4,45.1z"/>
	<path fill="#6A8968" d="M460.7,97.8c0-1.5,1.1-2.6,2.7-2.7c1.5,0,2.8,1.2,2.8,2.7s-1.3,2.8-2.7,2.8
		C462.1,100.6,460.5,99.3,460.7,97.8z"/>
	<path fill="#688A69" d="M427.6,114.9c0,1.5-1.3,2.7-2.7,2.7s-2.7-1.3-2.7-2.8s1.2-2.7,2.8-2.7C426.5,112.1,427.7,113.4,427.6,114.9
		z"/>
	<path fill="#C57167" d="M418.2,116c-1.5,0-2.8-1.2-2.7-2.7c0.1-1.7,1-2.5,2.7-2.7c1.5-0.1,2.7,1.2,2.7,2.8
		C421,114.7,419.7,116,418.2,116z"/>
	<path fill="#689E74" d="M480.4,58.8c0.4,0,0.7,0,1.1,0c1.4,0.1,2.7,1.4,2.5,2.7c-0.1,1.7-1.6,3-3.1,2.7c-1.7-0.3-2.7-1.7-2.3-3.3
		c0.1-0.7,0.6-1.3,1.1-1.8C479.9,58.9,480.1,58.7,480.4,58.8z"/>
	<path fill="#9FA96C" d="M410.2,60.9c0.1,1.5-1.2,2.7-2.7,2.7c-1.3,0-2.6-1.1-2.6-2.7c0-1.5,1.2-2.7,2.7-2.7
		C409.2,58.2,410.2,59.3,410.2,60.9z"/>
	<path fill="#E1A989" d="M432.6,169.8c1.5,0,2.7,1.2,2.7,2.6c0,1.5-1.2,2.9-2.6,2.9c-1.3,0-2.8-1.4-2.8-2.7
		C430,171.1,431.1,169.8,432.6,169.8z"/>
	<path fill="#E5A940" d="M456.6,112.4c-0.5-0.4-1.1-0.5-1.3-1.3c-0.9-1.5,0.1-3.2,1.3-3.7c1.3-0.6,2.8,0,3.6,1.5
		c0.7,1.3-0.4,3.3-2,3.5C457.6,112.5,457.1,112.4,456.6,112.4z"/>
	<path fill="#D4877C" d="M353.5,123c1.4-0.1,2.6,1.2,2.7,2.7c0.1,1.4-1.3,2.7-2.8,2.7c-1.2,0-2.6-1.3-2.5-2.7
		C350.9,124.1,351.9,122.9,353.5,123z"/>
	<path fill="#D5877C" d="M365.6,97.3c0-1.4,1.1-2.7,2.3-2.7c1.7,0,3,1.2,3,2.7c0,1.3-1.3,2.6-2.7,2.6
		C366.9,100,365.6,98.7,365.6,97.3z"/>
	<path fill="#678666" d="M403.9,59c-1.4,0-2.6-1.1-2.7-2.6c0-1.4,1.2-2.6,2.6-2.6c1.5,0,2.7,1.1,2.7,2.6
		C406.6,57.9,405.4,59,403.9,59z"/>
	<path fill="#708D6D" d="M463.7,120.4c0-0.2,0.1-0.5-0.1-0.6c-0.1-1.3,0.5-2.3,1.5-2.8c1.1-0.5,2.2-0.3,2.9,0.5
		c1.1,1.1,1,2.9-0.2,3.9c-1.1,0.9-3,0.7-3.9-0.5C463.8,120.7,463.7,120.6,463.7,120.4z"/>
	<path fill="#688767" d="M394.4,66.4c0,1.3-1.2,2.5-2.5,2.5c-1.4,0-2.7-1.2-2.7-2.5c0-1.5,1.1-2.7,2.5-2.7S394.4,64.9,394.4,66.4z"
		/>
	<path fill="#C46F65" d="M422.3,30.3c0,1.4-1.3,2.7-2.7,2.6c-1.4-0.1-2.6-1.3-2.5-2.7c0-1.4,1.3-2.6,2.7-2.5
		C421.2,27.7,422.4,28.8,422.3,30.3z"/>
	<path fill="#D4877C" d="M408,147.7c-1.3,0.1-2.5-1.2-2.5-2.5c0-1.5,1.3-2.7,2.7-2.7c1.5,0,2.6,1.3,2.6,2.7
		C410.7,146.7,409.4,147.7,408,147.7z"/>
	<path fill="#698A6A" d="M393,110.7c0,1.4-1.2,2.5-2.6,2.5c-1.5,0-2.7-1.1-2.6-2.6c0-1.4,1.2-2.5,2.6-2.5
		C391.9,108,393.1,109.1,393,110.7z"/>
	<path fill="#E0A688" d="M445.4,170.8c-1.4,0-2.7-1.3-2.6-2.7c0-1.2,1.4-2.6,2.5-2.6c1.4,0,2.9,1.3,2.7,2.6
		C447.9,169.7,447,170.7,445.4,170.8z"/>
	<path fill="#E3AD44" d="M404.2,91.3c-0.1-0.2-0.2-0.3-0.4-0.3c-1.3-0.4-1.9-1.5-1.9-2.6c0.1-1.4,1.2-2.5,2.5-2.4
		c1.3,0.1,2.3,0.9,2.6,2.5c0.2,1.1-0.8,2.3-1.9,2.5c-0.2,0.1-0.4,0.1-0.5,0.3C404.5,91.5,404.3,91.5,404.2,91.3z"/>
	<path fill="#E9AB3F" d="M417.2,77.6c1.4,0,2.5,1.1,2.5,2.5c0,1.4-1.2,2.6-2.6,2.6s-2.5-1.2-2.5-2.7
		C414.5,78.7,415.6,77.6,417.2,77.6z"/>
	<path fill="#E28A54" d="M369.2,129.9c-0.3,0.1-0.4,0.5-0.6,0.7c-0.3-0.3-0.5,0.1-0.7,0.2c-1.6,0.9-3.5,0.2-4-1.5
		c-0.3-1.1,0.1-1.9,0.9-2.5c0.7-0.7,1.7-0.7,2.5-0.4c1,0.4,1.5,1.1,1.6,2.3C369.1,129,368.8,129.4,369.2,129.9z"/>
	<path fill="#E9AA3C" d="M510.8,85.4c-0.7,0.7-1.5,0.6-2.4,0.6c-0.5-0.3-0.9-0.8-1.4-0.9c-0.2-0.2-0.3-0.4-0.2-0.7
		c-0.3-1.7,0.1-2.7,1.3-3.3c1.1-0.5,2.2-0.3,3,0.7c0.7,0.8,0.7,2.3,0.1,3.1C511.1,85.1,510.9,85.3,510.8,85.4z"/>
	<path fill="#E7A73B" d="M384,52.2c-0.5-0.2-1-0.3-1.4-0.8c-0.9-1.5-0.8-2.9,0.3-3.7c0.9-0.7,2.1-0.7,3.1-0.1c0.9,0.6,1.3,1.9,0.9,3
		c-0.3,0.9-1.3,1.6-2.4,1.6C384.3,52.2,384.2,52.2,384,52.2z"/>
	<path fill="#C67066" d="M366.7,107.9c-0.2-0.1-0.4-0.1-0.6-0.1c-1.2-0.2-2.1-1.2-2.1-2.5c0-1.2,0.8-2.2,2.1-2.5
		c1.1-0.2,2.3,0.4,2.7,1.5c0.4,1.1,0.2,2.1-0.5,3C367.7,108.1,367.4,108.2,366.7,107.9z"/>
	<path fill="#E28A55" d="M450.7,154.1c-0.1-1.3,0.9-2.5,2.6-2.5c1.3-0.1,2.5,1.3,2.5,2.6c0,1.4-1.2,2.5-2.6,2.5
		S450.7,155.5,450.7,154.1z"/>
	<path fill="#C57068" d="M400.9,132.9c0,1.3-1.1,2.5-2.5,2.5s-2.7-1.2-2.6-2.6c0-1.3,1.2-2.5,2.5-2.5
		C399.9,130.3,400.9,131.4,400.9,132.9z"/>
	<path fill="#C77167" d="M488.5,114.8c0,1.4-1.1,2.4-2.4,2.4c-1.5,0-2.6-1.1-2.6-2.5c0-1.3,1.1-2.5,2.5-2.5
		C487.3,112.2,488.5,113.4,488.5,114.8z"/>
	<path fill="#698969" d="M433.4,103c1.5,0.1,2.5,1.1,2.5,2.5c-0.1,1.4-1.2,2.5-2.6,2.5c-1.3-0.1-2.5-1.3-2.4-2.7
		C430.9,104,432,103,433.4,103z"/>
	<path fill="#C67067" d="M441.1,174.9c-1.3,0-2.5-1.1-2.5-2.5c-0.1-1.3,1.1-2.5,2.5-2.6c1.3,0,2.5,1.1,2.5,2.5
		C443.7,173.8,442.6,174.9,441.1,174.9z"/>
	<path fill="#C46E64" d="M415,59.7c1.5,0,2.5,1.1,2.5,2.5c0,1.3-1.2,2.5-2.5,2.5c-1.3,0-2.4-1.2-2.4-2.5
		C412.6,60.8,413.7,59.7,415,59.7z"/>
	<path fill="#DBA082" d="M440.9,15.6c0-1.4,1.1-2.5,2.5-2.5c1.3,0,2.5,1.3,2.5,2.6c0,1.1-1.3,2.5-2.4,2.5
		C442.2,18.1,440.8,16.9,440.9,15.6z"/>
	<path fill="#E2AA8A" d="M417,93c0,1.3-1.2,2.5-2.5,2.5c-1.1,0-2.5-1-2.5-2.5c0-1.5,1.1-2.5,2.6-2.5C415.7,90.4,417.1,91.4,417,93z"
		/>
	<path fill="#9FA96C" d="M393,132.7c-1.4,0-2.5-1.1-2.5-2.5s1.2-2.5,2.6-2.5c1.2,0,2.5,1.2,2.5,2.3
		C395.5,131.4,394.6,132.7,393,132.7z"/>
	<path fill="#E5AA41" d="M403.3,105.2c0,1.3-1,2.3-2.4,2.3s-2.5-1.1-2.5-2.4c0-1.4,1.1-2.5,2.3-2.5
		C402.3,102.6,403.3,103.7,403.3,105.2z"/>
	<path fill="#E28A55" d="M480.6,119c-0.1,0.5-0.5,1-0.6,1.5c-0.2-0.5-0.5-0.2-0.7-0.1c-1,0.4-1.9,0.3-2.7-0.4
		c-0.7-0.7-1-1.5-0.7-2.5c0.3-1.1,1.7-1.9,2.7-1.6c1.3,0.3,2.2,1.5,2.1,2.7C480.6,118.7,480.6,118.9,480.6,119z"/>
	<path fill="#679F74" d="M402.1,71.4c0.2,0.6,0.7,1.1,0.7,1.7c-0.1,1.2-0.9,2.3-2,2.4c-1.3,0.2-2.5-0.6-2.8-1.9
		c-0.3-1.2,0.4-2.4,1.7-2.8c0.2-0.1,0.4-0.1,0.6-0.2C400.7,70.5,401.5,70.7,402.1,71.4z"/>
	<path fill="#C57065" d="M485.7,88.6c0,1.3-1.1,2.3-2.3,2.3c-1.4,0-2.5-1.1-2.5-2.5c0-1.3,1.1-2.3,2.4-2.3
		C484.7,86.1,485.7,87.2,485.7,88.6z"/>
	<path fill="#708D6E" d="M400.7,141.4c-1.3,0-2.4-1.1-2.4-2.4s1.1-2.5,2.5-2.5c1.3,0,2.3,1.1,2.3,2.5
		C403.1,140.4,402.1,141.4,400.7,141.4z"/>
	<path fill="#678767" d="M445.8,59.1c0-1.3,1.1-2.4,2.3-2.4c1.3,0,2.5,1.1,2.5,2.4c0,1.3-1.1,2.4-2.5,2.4
		C446.8,61.5,445.8,60.5,445.8,59.1z"/>
	<path fill="#C87267" d="M500.9,120.5c0,1.3-1.1,2.4-2.4,2.4c-1.2,0-2.4-1.1-2.4-2.3c0-1.3,1.2-2.5,2.5-2.5
		C500,118.1,501,119.2,500.9,120.5z"/>
	<path fill="#C57066" d="M422.9,74.9c0-1.4,1-2.4,2.5-2.3c1.3,0,2.3,1.1,2.3,2.5c0,1.1-1.2,2.3-2.4,2.2
		C424.1,77.3,422.9,76.2,422.9,74.9z"/>
	<path fill="#C67066" d="M359.1,74.4c0,1.3-1.1,2.3-2.4,2.3c-1.2,0-2.4-1.2-2.4-2.3c0-1.3,1.1-2.4,2.4-2.4
		C358.1,71.9,359.1,72.9,359.1,74.4z"/>
	<path fill="#DFA687" d="M435,124.1c0-1.3,1.2-2.5,2.5-2.5c1.1,0,2.4,1.3,2.4,2.5c0,1.2-1.3,2.4-2.5,2.4
		C436.1,126.5,435,125.3,435,124.1z"/>
	<path fill="#DEA485" d="M411.6,74.4c1.3,0,2.4,1.1,2.5,2.5c0.1,1.1-1.1,2.3-2.3,2.4c-1.3,0-2.5-1.1-2.5-2.5
		C409.2,75.7,410.4,74.5,411.6,74.4z"/>
	<path fill="#E6AC40" d="M419.2,121.4c-0.2-0.3-0.4-0.7-0.5-1c-0.2-0.4-0.1-0.7,0.2-1.1c0.7-1.5,2.3-2,3.6-1.2
		c1.2,0.8,1.1,2.5,0.6,3.2c-0.9,1.1-2.2,1.4-3.4,0.5C419.6,121.7,419.4,121.5,419.2,121.4z"/>
	<path fill="#D18479" d="M436.9,114.6c1.3,0,2.3,1.1,2.3,2.4c0,1.1-1.1,2.3-2.3,2.3c-1.3,0-2.3-1.1-2.3-2.4S435.5,114.6,436.9,114.6
		z"/>
	<path fill="#C46E66" d="M464.1,32c0-1.3,1-2.3,2.3-2.3c1.2,0,2.2,1,2.2,2.3c0,1.3-1,2.3-2.3,2.4C465.1,34.4,464.1,33.4,464.1,32z"
		/>
	<path fill="#E6A540" d="M429.7,35.4c0-1.3,0.9-2.2,2.2-2.2c1.3,0,2.3,0.9,2.3,2.3c0,1.2-1,2.3-2.1,2.3
		C430.6,37.8,429.6,36.8,429.7,35.4z"/>
	<path fill="#6B8C6C" d="M461.1,117.6c-0.5,0.1-1.1,0.3-1.5-0.1c-0.7-0.3-1-0.9-1.4-1.5c0-0.2,0-0.4,0-0.5c0.2-1.3,1.1-2.2,2.3-2.3
		c1.1-0.1,2.1,0.7,2.3,2C463,116.1,462.3,117.1,461.1,117.6z"/>
	<path fill="#C87268" d="M359.4,83.1c1.3,0,2.3,1.1,2.3,2.4c0,1.2-1.1,2.2-2.3,2.2c-1.3,0-2.3-1.1-2.3-2.3
		C357,84.1,358,83.1,359.4,83.1z"/>
	<path fill="#689E75" d="M467.1,57.7c1.4,0,2.3,0.9,2.3,2.3c0,1.2-1,2.2-2.3,2.2c-1.3,0-2.3-1-2.3-2.3S465.8,57.7,467.1,57.7z"/>
	<path fill="#DCA887" d="M439.1,89c-0.1-1.2,1.2-2.3,2.5-2.1c1.1,0.1,2.1,1.3,2.1,2.3c-0.1,1.2-1.3,2.2-2.5,2.2
		C440.2,91.4,438.9,90,439.1,89z"/>
	<path fill="#6A9F75" d="M441.3,67c0,1.3-0.9,2.2-2.2,2.2s-2.3-1-2.3-2.3c0-1.2,1.1-2.3,2.3-2.3C440.3,64.6,441.3,65.6,441.3,67z"/>
	<path fill="#D18278" d="M460.1,76c-0.2-0.1-0.3-0.2-0.3-0.5c0.3-0.3,0-0.6-0.1-0.9c-0.3-1.1,0-2.1,0.9-2.7c0.9-0.5,2.2-0.3,2.9,0.4
		c0.7,0.8,0.7,1.9,0.1,2.8s-1.7,1.1-2.8,0.7C460.6,75.9,460.3,75.4,460.1,76z"/>
	<path fill="#E2A989" d="M507.2,75.3c-1.3,0.2-2.2-1.2-2.1-2.2c0.1-1.2,1.1-2.3,2.3-2.3c1,0,2.3,1.3,2.2,2.3
		C509.4,74.4,508.4,75.5,507.2,75.3z"/>
	<path fill="#E2A943" d="M432.2,98.2c1.2-0.1,2.3,1.1,2.3,2.1c0,1.1-1.3,2.3-2.1,2.3c-1.2,0-2.5-1.2-2.4-2.3
		C430,99.3,431,98.1,432.2,98.2z"/>
	<path fill="#D5887D" d="M415,174.2c0-1.1,1.1-2.3,2-2.3c1.4,0,2.5,1,2.5,2.3c0,1.2-1.1,2.2-2.3,2.2
		C416.1,176.4,415.1,175.4,415,174.2z"/>
	<path fill="#E18A56" d="M468.8,92.9c0,1.3-0.9,2.1-2.2,2.1c-1.3,0-2.2-0.9-2.1-2.3c0-1.2,0.9-2.1,2.3-2.1
		C467.9,90.7,468.8,91.7,468.8,92.9z"/>
	<path fill="#D3887D" d="M480,161c1.1,0,2.3,1.1,2.3,2.3c0,1-1.1,2.1-2.2,2.2c-1.2,0.1-2.3-1-2.3-2.3C477.8,162.1,478.9,161,480,161
		z"/>
	<path fill="#638463" d="M470.8,51.9c1.3,0,2.3,1,2.2,2.2c0,1.1-1,2.1-2.1,2.1c-1.3,0-2.3-1-2.3-2.2
		C468.6,52.8,469.6,51.8,470.8,51.9z"/>
	<path fill="#9DA86B" d="M394.5,80.2C394.5,80.2,394.5,80.1,394.5,80.2c0.1-1,0.5-1.9,1-2.8c0.2-0.3,0.4-0.5,0.7-0.5
		c0,0.4,0.3,0.3,0.6,0.3c1.5,0.3,2.2,1,2.1,2.3c0,0.9-0.6,1.7-1.5,2c-0.8,0.3-1.9,0-2.4-0.7C395,80.5,394.8,80.2,394.5,80.2z"/>
	<path fill="#E9A83D" d="M380.1,36c0.3,0,0.3-0.3,0.3-0.5c0.2-1.1,1.2-1.9,2.3-1.7c1.3,0.2,2.1,1.2,2,2.3c-0.2,1.2-1.2,2-2.4,1.9
		c-0.9-0.1-1.4-0.5-1.8-1.3c-0.1-0.2-0.1-0.5-0.5-0.5C380,36.3,380,36.1,380.1,36z"/>
	<path fill="#D3877C" d="M413.6,156.4c-1.3-0.1-2.1-1-2.1-2.3c0-1.3,1-2.2,2.3-2.1c1.1,0.1,2.1,1.1,2.1,2.3
		C415.9,155.5,414.8,156.4,413.6,156.4z"/>
	<path fill="#C27066" d="M396.2,76.8c-0.3,0.1-0.4,0.5-0.7,0.5c-1,0-1.9-0.1-2.5-1.1c-0.6-1-0.4-2.1,0.5-2.8
		c0.8-0.7,2.1-0.6,2.9,0.1c0.9,0.8,1,1.9,0.4,2.8C396.5,76.6,396.4,76.7,396.2,76.8z"/>
	<path fill="#C77268" d="M503.1,109.5c0,1.3-0.9,2.2-2.1,2.2s-2.2-1-2.1-2.2c0-1.1,0.7-2.2,2.1-2.2
		C502.2,107.3,503.1,108.2,503.1,109.5z"/>
	<path fill="#6B8B6B" d="M441.4,96.8c-1.1,0-2.1-1.1-2.1-2.3c0-1.1,1.1-2.1,2.2-2.1c1.2,0,2.2,1,2.2,2.1
		C443.6,95.9,442.6,96.8,441.4,96.8z"/>
	<path fill="#698868" d="M478.6,74.1c1.1,0,2.1,0.9,2.1,2.1c0.1,1.1-1,2.1-2.1,2.1c-1.2,0.1-2.3-1-2.3-2.1
		C476.3,75.1,477.2,74.1,478.6,74.1z"/>
	<path fill="#C77066" d="M358.4,111.1c-0.1,1.1-1.1,2.1-2.3,2.1c-1.2-0.1-2.1-1.1-2.1-2.3c0.1-1.1,1.1-2.1,2.3-2
		C357.5,108.9,358.5,110,358.4,111.1z"/>
	<path fill="#D28579" d="M455.7,23.6c1.2,0,2.2,1.1,2.2,2.3c0,1.1-1.1,2.1-2.3,2.1c-1.3,0-2.1-0.9-2.1-2.2
		C453.5,24.5,454.4,23.6,455.7,23.6z"/>
	<path fill="#C87369" d="M503.1,129.6c0.4-0.1,0.8-0.1,1.2-0.2c0.3,0.3,0.9,0.4,1.3,0.8c0.9,0.9,0.8,2.2-0.1,3.2
		c-0.8,0.8-2.1,0.7-2.9-0.1c-0.9-0.9-0.9-2.2,0-3.1C502.7,130.1,503,129.9,503.1,129.6z"/>
	<path fill="#C67066" d="M410.7,128.4c0-1.3,0.9-2.2,2.1-2.2c1.2,0,2.2,0.9,2.2,2.1c0,1.1-1,2.2-2.1,2.2
		C411.7,130.6,410.7,129.6,410.7,128.4z"/>
	<path fill="#74A379" d="M452.9,89.6L452.9,89.6c0,0.3,0,0.5,0.1,0.7c0.4,1.8-0.9,3.2-2.7,2.7c-0.2-0.1-0.5-0.4-0.6,0.1
		c-0.1-0.1-0.2-0.1-0.3-0.1c0.4-0.3,0.1-0.5-0.1-0.7c-0.7-1.1-0.7-2.1,0.2-3c0.6-0.6,1.9-0.8,2.8-0.1
		C452.4,89.5,452.7,89.6,452.9,89.6z"/>
	<path fill="#668666" d="M434.7,76.6c0,1.2-1,2.1-2.3,2.1c-1.2-0.1-2.1-1.1-2.1-2.3c0-1.1,1-2,2.3-2
		C433.8,74.3,434.7,75.3,434.7,76.6z"/>
	<path fill="#D2887C" d="M444.3,32.1c-1.3,0-2.2-1-2.2-2.3c0-1.2,1-2.1,2.2-2.1c1.4,0,2.1,1.3,2.1,2.3
		C446.4,31.2,445.4,32.1,444.3,32.1z"/>
	<path fill="#6FA377" d="M456.4,100.5c0.3-0.2,0.7-0.1,1-0.2c2,0.4,2.8,2.2,1.6,3.6c-0.8,0.9-2.3,1.1-3.2,0.2
		c-0.9-0.9-0.9-2.3,0-3.3C456.1,100.8,456.2,100.6,456.4,100.5z"/>
	<path fill="#6FA278" d="M434.4,134.3c-1.2,0-2.1-0.9-2.1-2.1c0-1.3,0.9-2.2,2.1-2.1c1.3,0,2.2,0.9,2.2,2.2
		C436.6,133.5,435.6,134.3,434.4,134.3z"/>
	<path fill="#C66F65" d="M492.3,77.7c0-1.3,1-2.1,2.2-2.1s2.1,1,2.1,2.1c0,1.2-1.1,2.2-2.2,2.1C493.3,79.8,492.3,78.8,492.3,77.7z"
		/>
	<path fill="#C57065" d="M388.1,56.1c-1.2,0-2.1-0.9-2.1-2.2c0-1.1,1-2.1,2.1-2.1c1.1,0,2.1,1,2.1,2.1
		C390.3,55.1,389.3,56.1,388.1,56.1z"/>
	<path fill="#A3AD72" d="M430.8,140.9c-1.2,0-2.2-1-2.1-2.2c0-1.1,1.1-2.1,2.2-2.1c1.1,0,2.2,1.1,2.1,2.2
		C432.9,140,431.9,140.9,430.8,140.9z"/>
	<path fill="#E0895A" d="M368.9,36.3c0.1,1-0.9,2.1-2.1,2.1c-1.3,0-2.2-1-2.2-2.1c0-1.2,0.9-2.1,2.2-2.1
		C368.1,34.1,368.9,34.9,368.9,36.3z"/>
	<path fill="#E9AB3C" d="M377.3,95.7c0.1-0.2,0.2-0.4,0.4-0.5c0.5,0.3,1-0.3,1.5-0.2c1,0.1,1.9,0.9,2,1.9c0.1,1.4-0.8,2.1-1.6,2.3
		c-1.2,0.3-2.3-0.5-2.5-1.5C376.9,96.9,377.2,96.4,377.3,95.7z"/>
	<path fill="#C57169" d="M451.3,16.3c0,1.1-1,2.1-2.1,2.1c-1.2,0-2.2-0.9-2.2-2.2c0-1.1,1-2.1,2.1-2.1
		C450.3,14.1,451.3,15.1,451.3,16.3z"/>
	<path fill="#E8AA40" d="M468,134.9c-0.5-0.1-1.3,0.2-1.5-0.6c-1.1-1.2-0.5-3.3,1.3-3.6c1.2-0.2,2.3,0.7,2.4,1.9
		C470.2,133.9,469.4,134.9,468,134.9z"/>
	<path fill="#A1AA6D" d="M444,61.5c0.1,1.1-0.9,2.1-2.1,2.1c-1.1,0.1-2.2-1-2.2-2.2c0-1.1,1-2.1,2.2-2.1C443,59.3,444,60.3,444,61.5
		z"/>
	<path fill="#D2847A" d="M489.3,133c-1.2,0-2.1-1-2.1-2.1c0-1.1,1.1-2.1,2.3-2.1s2.1,1,2,2.1C491.4,132.1,490.5,133.1,489.3,133z"/>
	<path fill="#D0877B" d="M443.4,102.6c0-1.2,0.9-2.2,2.1-2.2s2.1,1,2.1,2.1c0,1.1-1,2.2-2.1,2.2
		C444.4,104.7,443.4,103.7,443.4,102.6z"/>
	<path fill="#DF8B57" d="M383,119c0.1,0.3,0.5,0.3,0.8,0.5c0.9,0.5,1.3,1.3,1.1,2.3c-0.2,0.9-1,1.6-1.9,1.7c-1,0.1-1.8-0.5-2.1-1.5
		c-0.3-0.9,0.1-1.9,0.9-2.4c0.2-0.1,0.5-0.3,0.7-0.4C382.6,118.9,382.8,118.9,383,119z"/>
	<path fill="#E2AB42" d="M427.7,87.6c0-1.2,0.9-2.1,2.1-2.1s2.1,0.9,2.1,2.1c0,1.1-1,2.1-2.1,2.1C428.6,89.7,427.7,88.8,427.7,87.6z
		"/>
	<path fill="#6F8E6F" d="M394.8,127.2c-1.2,0-2.1-0.9-2.1-2.1c0-1.1,0.9-2.1,2.1-2.1c1.1,0,2.1,0.9,2.1,2
		C396.9,126.4,396.1,127.2,394.8,127.2z"/>
	<path fill="#A0A96C" d="M441.5,74c0-0.5,0-1,0-1.5c0.5,0.4,0.6-0.1,0.7-0.3c0.7-0.9,1.7-1.2,2.7-0.6c0.9,0.5,1.3,1.7,0.8,2.7
		c-0.7,1.4-2.5,1.5-3.6,0.2C442.1,74.3,442.1,73.5,441.5,74z"/>
	<path fill="#C56F66" d="M402.9,108.9c0-1.2,0.9-2.1,2-2.1c1.2,0,2.1,0.9,2.1,2.1c0,1.1-0.9,1.9-2,2
		C403.8,110.9,402.9,110.1,402.9,108.9z"/>
	<path fill="#6B896A" d="M383.3,75.6c1.2,0,2.1,0.8,2.1,2.1c0,1.1-0.9,2.1-2.1,2.1c-1.1,0-2-0.9-2-2.1
		C381.2,76.4,382.1,75.6,383.3,75.6z"/>
	<path fill="#D4897F" d="M469,173c0,1-1.1,1.9-2.1,1.9s-2.1-1.1-2.1-2.1s1.1-2,2.2-2C468.2,170.8,469,171.7,469,173z"/>
	<path fill="#698A6A" d="M396.5,71.6c-1.2,0-2.1-0.9-2.1-2c0-1.1,0.9-2,2-2c1.2,0,2.1,0.9,2.1,2C398.5,70.7,397.6,71.6,396.5,71.6z"
		/>
	<path fill="#71A478" d="M430.8,125.3c0.3-0.1,0.5-0.1,0.8-0.2c1,0.1,1.8,0.5,2.1,1.5c0.3,0.8,0.1,1.5-0.5,2.1
		c-0.8,0.7-2.1,0.7-2.9-0.1c-0.7-0.7-0.7-2.1,0-2.8C430.5,125.6,430.7,125.4,430.8,125.3z"/>
	<path fill="#A1AC6F" d="M388.9,119.1c0,1-1,2-2,2c-1.1,0-2.1-1-2.1-2.2c0-1.1,0.9-1.9,2.1-2C387.9,116.9,388.9,117.9,388.9,119.1z"
		/>
	<path fill="#D1877B" d="M421.8,105c0,1.1-0.9,1.9-1.9,1.9c-1.3,0-2.1-0.9-2.1-2.1c0-1.1,0.9-2.1,1.9-2.1
		C421.1,102.8,421.8,103.4,421.8,105z"/>
	<path fill="#C67269" d="M406.7,25.9c0,1.2-0.8,2-2.1,2c-1.1,0-2-0.9-2.1-1.9c-0.1-1.1,1-2.1,2.1-2.1
		C405.8,23.9,406.7,24.9,406.7,25.9z"/>
	<path fill="#DDA487" d="M443,58.3c-1,0-2.1-1.1-2.1-2.1c0-1.1,1.1-2.1,2.1-2.1c1.2,0.1,2,0.9,2,2.2C445.2,57.3,444,58.4,443,58.3z"
		/>
	<path fill="#C77267" d="M366.6,50.1c-1.1,0-1.9-0.9-1.9-1.9c0-1.3,0.9-2.1,2.1-2.1c1,0,1.9,0.9,1.9,1.9
		C368.7,49.3,367.9,50.1,366.6,50.1z"/>
	<path fill="#6C8B6C" d="M447.7,133.5c0-1.1,0.9-2,2.1-2c1.1,0,1.9,0.9,1.9,2.1c0,1.1-0.9,2-2.1,2
		C448.5,135.5,447.7,134.7,447.7,133.5z"/>
	<path fill="#E3AB41" d="M440.7,76C440.7,76,440.7,75.9,440.7,76c0.5,0.1,0.9-0.4,1.5-0.4c0.9,0.1,1.7,0.5,1.9,1.3
		c0.3,0.9-0.1,1.8-0.7,2.3c-0.7,0.5-1.7,0.5-2.3-0.1c-0.7-0.6-1-1.5-0.6-2.3C440.5,76.4,440.7,76.2,440.7,76z"/>
	<path fill="#D4867A" d="M497.5,126.4c1,0,2,1,1.9,1.9c-0.1,1.2-0.9,2.1-2.1,2.1c-1,0-1.9-1.1-1.9-2
		C495.6,127.3,496.5,126.4,497.5,126.4z"/>
	<path fill="#C77067" d="M390,159.5c-1,0-1.9-1-1.9-1.9c0-1.1,0.9-2,2-2c1.1,0,2,0.9,2,2C392,158.6,391.1,159.5,390,159.5z"/>
	<path fill="#E08B56" d="M386.8,107.9c-1.1,0-2-0.9-2-2c0-1,0.9-1.9,1.9-1.9c1.1,0,2.1,0.9,2,2C388.8,107.1,387.9,107.9,386.8,107.9
		z"/>
	<path fill="#C66F66" d="M415.3,142.8c-1,0-1.9-0.9-1.9-2c0-1.1,1-2,2-2c1.1,0.1,1.9,1,1.9,2.1C417.4,142,416.4,142.9,415.3,142.8z"
		/>
	<path fill="#C77368" d="M381.5,162.2c0.2,1.2-1.1,1.9-1.9,2c-1,0-1.9-1-1.9-1.9c0-1.1,0.9-2,1.9-2
		C380.7,160.2,381.5,161,381.5,162.2z"/>
	<path fill="#C8766D" d="M506.4,121.5c0-1.1,0.8-1.9,1.9-1.9c1.1,0,1.9,0.9,1.9,1.9c0,1.1-0.9,2-1.9,2
		C507.2,123.5,506.4,122.7,506.4,121.5z"/>
	<path fill="#E0A889" d="M405.8,104.7c-1.1,0-1.9-0.8-1.9-1.9c0-1.2,0.7-2,1.9-2c1.1,0,2,0.9,2,1.9
		C407.8,103.8,407,104.7,405.8,104.7z"/>
	<path fill="#6B8969" d="M452.3,61.5c0.7-0.1,1.1,0.5,1.5,1c0.3,0.9,0.3,1.7-0.5,2.4c-0.6,0.5-1.3,0.7-2,0.3
		c-0.7-0.3-1.1-0.9-1.2-1.7c0-0.8,0.5-1.5,1.3-1.9C451.7,61.6,452,61.6,452.3,61.5z"/>
	<path fill="#E18A57" d="M435.3,40.3c0,0.9-1,1.8-2,1.8s-1.9-0.9-1.9-1.9c0.1-1.1,0.9-1.9,2-1.9C434.4,38.3,435.3,39.2,435.3,40.3z"
		/>
	<path fill="#6B8A6B" d="M411.9,65.9c0,1.1-0.7,1.9-1.9,1.9c-1.1,0-2-0.8-2-1.9s0.8-1.9,1.9-1.9C411,64.1,411.9,64.9,411.9,65.9z"/>
	<path fill="#E18B55" d="M426.5,53c0-1.1,0.9-1.9,1.9-1.9c1.1,0,1.9,0.9,1.9,1.9c0,1-0.9,1.9-1.9,1.9C427.3,54.9,426.5,54,426.5,53z
		"/>
	<path fill="#DFA889" d="M444.7,145.3c0,0.9-0.9,1.9-1.8,1.9c-1.1,0-2.1-0.9-2.1-1.9c0-1.1,0.9-1.9,1.9-1.9
		C443.8,143.3,444.7,144.2,444.7,145.3z"/>
	<path fill="#E3AB8B" d="M413.5,137.7c-0.1-0.7,0.1-1.4-0.2-2.1c0.3,0.1,0.5,0.2,0.7-0.1c0.5-0.8,1.3-0.9,2.1-0.7
		c0.9,0.2,1.1,0.9,1.2,1.6c0.1,0.7-0.3,1.3-0.9,1.7c-0.7,0.5-1.5,0.3-2.1-0.2C414.1,137.6,413.9,137.4,413.5,137.7z"/>
	<path fill="#EAAB3E" d="M507,78.9c0.1-0.5-0.2-0.9-0.3-1.4c0.3,0,0.3-0.3,0.5-0.5c0.6-1,1.8-1.3,2.8-0.6c0.8,0.5,1,1.8,0.4,2.5
		c-0.7,1-1.9,1.1-2.8,0.3C507.4,79.1,507.3,78.8,507,78.9z"/>
	<path fill="#D0857A" d="M463.5,91.7c0,1.1-0.9,1.8-2,1.8c-0.9,0-1.7-1-1.7-2.1c0-1,0.9-1.8,2-1.7C462.7,89.8,463.5,90.6,463.5,91.7
		z"/>
	<path fill="#C6736A" d="M459.4,139.9c1.1,0,1.9,0.9,1.9,1.9c0,0.9-0.9,1.8-1.9,1.8c-0.9,0-1.9-0.9-1.9-1.9
		C457.6,140.8,458.4,139.9,459.4,139.9z"/>
	<path fill="#6E8D6E" d="M378.2,134.9c0,1.1-0.8,1.9-1.9,1.9c-1,0-1.9-0.9-1.9-1.9s0.8-1.9,1.8-1.9
		C377.5,133.1,378.2,133.9,378.2,134.9z"/>
	<path fill="#6EA177" d="M460.5,62.5c0-0.3-0.1-0.5-0.2-0.8c-0.3-0.7,0.1-1.7,0.7-2.1c0.7-0.5,1.6-0.4,2.2,0.1
		c0.7,0.5,0.9,1.5,0.5,2.3c-0.3,0.7-1.2,1.1-2,1c-0.3-0.1-0.6-0.2-0.9-0.3C460.5,62.8,460.5,62.8,460.5,62.5z"/>
	<path fill="#C77168" d="M363.3,102.4c-1,0-1.8-0.9-1.8-1.9c0-1,0.8-1.9,1.8-1.8c1.1,0,1.9,0.9,1.9,1.9
		C365.1,101.8,364.3,102.5,363.3,102.4z"/>
	<path fill="#D0877B" d="M376.7,144.1c0-1,0.9-1.8,2-1.7c0.9,0.1,1.8,0.9,1.7,1.9c-0.1,1.1-0.9,1.9-1.9,1.9
		C377.5,146,376.7,145.2,376.7,144.1z"/>
	<path fill="#C67269" d="M478.5,86.1c-1.1,0-1.9-0.7-1.9-1.7c0-1.1,0.7-1.9,1.9-1.9c1,0,1.8,0.8,1.8,1.9
		C480.4,85.3,479.6,86.1,478.5,86.1z"/>
	<path fill="#D0867A" d="M431.6,20.6c1,0,1.9,0.9,1.9,1.9c0.1,0.9-0.9,1.9-1.8,1.9c-1.1,0-1.9-0.7-1.9-1.9
		C429.8,21.5,430.6,20.6,431.6,20.6z"/>
	<path fill="#A3AC70" d="M374.2,141.5c-0.1-0.3-0.3-0.5-0.5-0.7c0.3-0.2,0.1-0.5,0.1-0.7c0-0.8,0.6-1.6,1.3-1.8
		c0.8-0.3,1.7,0.1,2.1,0.7c0.4,0.6,0.3,1.6-0.1,2.1c-0.5,0.7-1.4,0.8-2.3,0.5C374.6,141.4,374.4,141.2,374.2,141.5z"/>
	<path fill="#C46E66" d="M415.7,100.1c0,1.1-0.8,1.8-1.9,1.8c-0.9,0-1.7-0.9-1.7-1.9s0.8-1.8,1.9-1.8S415.7,98.9,415.7,100.1z"/>
	<path fill="#A2AD71" d="M393.6,98.4c-0.9,0-1.9-0.9-1.9-1.8c0-1,0.8-1.9,1.7-1.9c1.1,0,1.9,0.8,2,1.8
		C395.4,97.4,394.5,98.4,393.6,98.4z"/>
	<path fill="#C57167" d="M396.8,127.4c0-1,0.8-1.7,1.8-1.7c1.1,0,1.8,0.8,1.8,1.9c0,0.9-0.9,1.8-1.8,1.7
		C397.5,129.2,396.8,128.5,396.8,127.4z"/>
	<path fill="#E1A989" d="M375.1,154.5c0.9,0,1.9,0.9,1.9,1.7c0,1-0.9,1.9-1.8,2c-0.9,0.1-1.9-0.8-1.9-1.7
		C373.3,155.6,374.2,154.6,375.1,154.5z"/>
	<path fill="#DEA586" d="M491.5,54.9c1.1,0.1,1.9,0.9,1.7,2c-0.1,1-1,1.7-2,1.6c-0.9-0.1-1.7-1.1-1.6-2.1
		C489.8,55.5,490.6,54.8,491.5,54.9z"/>
	<path fill="#E2AB8B" d="M474.1,149.6c0.9,0,1.9,0.9,1.9,1.9c0,0.9-0.9,1.9-1.9,1.9c-0.9,0-1.9-1-1.9-1.9
		C472.2,150.5,473.2,149.6,474.1,149.6z"/>
	<path fill="#D4897E" d="M456.9,172.1c0,0.5-0.5,0.8-0.3,1.3c-0.3,0.1-0.5,0.3-0.8,0.4c-0.6,0.4-1.2,0.4-1.8,0.1
		c-0.5-0.3-1-0.8-0.9-1.6c0.1-0.8,0.4-1.3,1.2-1.7c0.7-0.3,1.7,0.1,2.1,0.9C456.6,171.7,456.6,172,456.9,172.1z"/>
	<path fill="#D38679" d="M436.9,159.3c-0.9,0-1.7-0.8-1.7-1.7c0-0.9,0.9-1.8,1.8-1.8c0.9,0,1.8,0.9,1.7,1.8
		C438.7,158.5,437.9,159.3,436.9,159.3z"/>
	<path fill="#E7A63F" d="M420.6,14.7c-0.3-0.1-0.5-0.3-0.7-0.5c-0.1-0.2-0.1-0.4-0.2-0.6c-0.4-0.9-0.3-1.5,0.3-2.1
		c0.6-0.5,1.3-0.7,2-0.3c0.7,0.3,1,1.1,0.9,1.9c-0.1,0.7-0.8,1.2-1.6,1.3C421.1,14.6,420.8,14.5,420.6,14.7z"/>
	<path fill="#C66F67" d="M349.8,91.3c0.9,0,1.7,0.7,1.7,1.7c0,0.9-0.8,1.7-1.7,1.7c-0.9,0-1.7-0.7-1.7-1.7
		C348.1,92.1,348.8,91.4,349.8,91.3z"/>
	<path fill="#C37067" d="M454,145.5c-1-0.1-1.7-0.8-1.7-1.9c0-0.9,0.9-1.7,1.7-1.7c0.9,0.1,1.7,0.9,1.7,1.9
		C455.7,144.9,455,145.6,454,145.5z"/>
	<path fill="#C77167" d="M506.8,84.4c0.1,0.2,0.1,0.5,0.2,0.7c-0.1,0.2-0.1,0.4-0.1,0.6c-0.1,0.8-0.6,1.5-1.4,1.6
		c-0.7,0.1-1.3-0.1-1.8-0.7c-0.4-0.6-0.3-1.6,0.1-2.1c0.5-0.6,1.3-0.7,2.1-0.4C506.2,84.3,506.4,84.5,506.8,84.4z"/>
	<path fill="#C7736A" d="M352.8,58.3c0,0.1,0,0.3,0,0.5c-0.5,1.1-1.1,1.5-1.9,1.5c-0.8-0.1-1.4-0.7-1.5-1.6
		c-0.1-0.7,0.4-1.5,1.1-1.7c0.7-0.3,1.5,0,2,0.7C352.6,57.8,352.7,58.1,352.8,58.3z"/>
	<path fill="#A0AB6E" d="M432.3,96.1c0.3-0.5,0.3-1.1,0.5-1.6c0.1,0.5,0.2,0.5,0.7,0.3c1.3-0.7,2.7,0.2,2.6,1.6
		c-0.1,0.7-0.7,1.4-1.5,1.5c-0.7,0.1-1.4-0.3-1.7-1C432.6,96.7,432.7,96.3,432.3,96.1z"/>
	<path fill="#C67469" d="M451.7,98.9c1,0,1.8,0.8,1.7,1.7c-0.1,0.9-0.9,1.7-1.7,1.7c-0.9,0-1.7-0.9-1.7-1.8
		C450,99.6,450.7,98.9,451.7,98.9z"/>
	<path fill="#A1A96D" d="M480.4,58.8c-0.2,0.1-0.4,0.2-0.6,0.3c-0.1-0.4-0.4-0.3-0.6-0.3c-0.7-0.1-1.3-0.4-1.5-1.2
		c-0.2-0.9,0.1-1.5,0.8-1.9s1.5-0.3,2.1,0.3c0.5,0.6,0.6,1.3,0.3,2C480.7,58.3,480.4,58.5,480.4,58.8z"/>
	<path fill="#C67168" d="M478.2,104.6c0,1.1-0.6,1.7-1.7,1.7c-1,0-1.7-0.7-1.8-1.7c0-0.9,0.8-1.7,1.7-1.7
		C477.5,102.8,478.2,103.6,478.2,104.6z"/>
	<path fill="#C77269" d="M484.3,161.4c-1,0-1.7-0.8-1.7-1.8c0.1-0.9,0.9-1.6,1.8-1.6c1,0.1,1.7,0.8,1.6,1.8
		C486.1,160.8,485.3,161.4,484.3,161.4z"/>
	<path fill="#D1867A" d="M440.1,22.1c-0.9,0-1.7-0.8-1.7-1.7c0-0.8,0.8-1.7,1.5-1.7c1.1,0,2,0.7,1.9,1.7
		C441.8,21.3,441.4,22.1,440.1,22.1z"/>
	<path fill="#E7A841" d="M415.2,14.3c0,1-0.6,1.6-1.7,1.6c-1,0-1.7-0.7-1.7-1.7c0-0.9,0.8-1.7,1.7-1.7
		C414.6,12.5,415.3,13.2,415.2,14.3z"/>
	<path fill="#C46E65" d="M380.1,36c0,0.1,0,0.3,0,0.4c-0.5,1.3-1,1.7-1.9,1.5c-0.9-0.1-1.5-0.7-1.6-1.6c-0.1-0.7,0.5-1.5,1.2-1.7
		c0.7-0.2,1.6,0.1,2.1,0.9C380,35.7,380.1,35.9,380.1,36z"/>
	<path fill="#E18D5C" d="M446.2,32.1c1,0,1.7,0.7,1.7,1.7c0,0.9-0.8,1.7-1.7,1.7c-0.9,0-1.7-0.7-1.6-1.7
		C444.8,32.8,445.2,32.1,446.2,32.1z"/>
	<path fill="#D99781" d="M374.6,77c0-0.5,0.2-1,0.7-1.1c0.5-0.1,1.1-0.2,1.4,0.4c0.3,0.5,0.6,0.8,1.1,0.1c0.3-0.5,0.9-0.7,1.4-0.4
		c0.5,0.2,0.8,0.6,0.7,1.1c-0.1,0.7-0.5,1-1.1,1.1c-0.4,0.1-0.7-0.2-1-0.5c-0.3-0.5-0.5-0.7-0.9,0c-0.3,0.5-0.8,0.8-1.4,0.6
		C375,77.9,374.6,77.5,374.6,77z"/>
	<path fill="#E0A98A" d="M400.1,120.7c0.9,0,1.7,0.7,1.7,1.6c0,0.9-0.9,1.8-1.8,1.8c-0.9,0-1.6-0.8-1.6-1.8
		C398.4,121.4,399.1,120.7,400.1,120.7z"/>
	<path fill="#E5AB45" d="M383,119c-0.2,0.1-0.3,0.1-0.5,0.1c-0.4-0.4-1.1-0.5-1.3-1.2c-0.3-0.8,0-1.7,0.9-2.1
		c0.7-0.3,1.7-0.1,2.1,0.7C384.8,117.5,384.4,118.5,383,119z"/>
	<path fill="#E3AC8C" d="M458.4,178.2c0,0.9-0.8,1.7-1.7,1.7c-0.8,0-1.7-1-1.7-1.8c0-0.9,0.9-1.6,1.8-1.6
		C457.8,176.4,458.4,177,458.4,178.2z"/>
	<path fill="#C8736A" d="M457.8,31.7c-0.9,0-1.7-0.8-1.7-1.7s0.8-1.7,1.6-1.7c0.9,0,1.7,0.9,1.7,1.7C459.5,31,458.8,31.7,457.8,31.7
		z"/>
	<path fill="#CC897C" d="M387.1,112.9c0.9,0,1.7,0.8,1.7,1.7c0,0.9-0.7,1.7-1.6,1.7s-1.7-0.8-1.7-1.6
		C385.4,113.8,386.3,112.9,387.1,112.9z"/>
	<path fill="#D3867A" d="M493.2,100.5c0,0.9-0.7,1.5-1.8,1.6c-0.7,0-1.5-0.8-1.5-1.7c0-0.9,0.7-1.7,1.7-1.7
		C492.4,98.7,493.2,99.5,493.2,100.5z"/>
	<path fill="#C77167" d="M401.1,154.3c0.4,0.5,0.8,1,0.7,1.7c-0.3,0.5-0.5,0.9-1,1.2c-0.7,0.3-1.3,0.3-1.9-0.2s-0.7-1.1-0.4-1.8
		c0.3-0.7,0.7-1,1.5-1C400.5,154.2,400.8,154.3,401.1,154.3z"/>
	<path fill="#D4877B" d="M488.9,142.7c0,0.9-0.6,1.6-1.6,1.6c-0.9,0-1.7-0.7-1.7-1.7c0-0.9,0.7-1.6,1.7-1.7
		C488.3,141,488.9,141.6,488.9,142.7z"/>
	<path fill="#E1A98A" d="M360.5,141.9c0.1-0.7,0.3-1.3,0.5-1.9c0,0.1,0,0.2,0,0.3c0,0.9,0,0.9,0.8,0.5c0.9-0.5,1.7-0.1,2.2,0.9
		c0.3,0.6-0.1,1.6-0.7,1.9c-0.9,0.5-1.6,0.3-2.1-0.6c-0.1-0.3-0.3-0.5-0.3-0.8C361,141.9,360.8,141.9,360.5,141.9z"/>
	<path fill="#72A379" d="M428.9,82.4c-0.1-0.3-0.4-0.7-0.3-1.1c0.3-0.1,0.3-0.3,0.3-0.5c0.5-0.9,1.5-1.2,2.4-0.7
		c0.8,0.5,0.9,1.6,0.4,2.3c-0.6,0.7-1.7,0.8-2.5,0.1C429.1,82.6,429,82.5,428.9,82.4z"/>
	<path fill="#DDA385" d="M476.9,34.9c-0.1,0.8,0.1,1.5,0.7,2.1c-0.3-0.2-0.4,0.1-0.5,0.3c-0.6,0.9-1.9,1.3-2.7,0.3
		c-0.5-0.6-0.5-1.1-0.1-1.7c0.3-0.6,0.9-0.9,1.7-0.8C476.2,35,476.6,35.1,476.9,34.9z"/>
	<path fill="#C8756A" d="M342.8,86.2c0.1,0.2,0.2,0.5,0.3,0.7c-0.1,0.1-0.3,0.2-0.3,0.3c-0.3,1.1-0.6,1.3-1.6,1.4
		c-0.7,0-1.3-0.4-1.5-1.1c-0.2-0.7,0.1-1.4,0.7-1.8c0.7-0.5,1.4-0.3,2.1,0.3C342.6,86.1,342.7,86.1,342.8,86.2z"/>
	<path fill="#DCA183" d="M474.5,45.8c0,0.9-0.7,1.7-1.5,1.7c-0.9,0-1.7-0.8-1.7-1.7c0-1,0.7-1.6,1.7-1.6
		C473.8,44.2,474.5,44.8,474.5,45.8z"/>
	<path fill="#E7A842" d="M392.1,37.4c0-0.1,0-0.3,0-0.3c0.2-0.2,0.1-0.5,0.2-0.7c0.3-0.8,0.7-1.3,1.5-1.3c0.8,0,1.4,0.4,1.7,1.2
		c0.2,0.7-0.1,1.3-0.7,1.7c-0.5,0.4-1.5,0.3-2.1-0.2C392.5,37.5,392.3,37.3,392.1,37.4z"/>
	<path fill="#C8726A" d="M412.4,174.2c-0.9,0-1.5-0.7-1.5-1.6c0-0.9,0.7-1.7,1.6-1.7c0.9,0,1.6,0.8,1.6,1.7
		C414.1,173.6,413.3,174.2,412.4,174.2z"/>
	<path fill="#C77268" d="M399.9,168.7c-0.9,0-1.7-0.7-1.7-1.6c0-0.9,0.8-1.6,1.7-1.6s1.6,0.8,1.6,1.7
		C401.4,168.1,400.8,168.7,399.9,168.7z"/>
	<path fill="#CF8579" d="M454,50.5c0-0.9,0.6-1.6,1.5-1.6c1,0,1.7,0.7,1.7,1.6c0,0.9-0.8,1.7-1.6,1.7C454.8,52.2,454,51.4,454,50.5z
		"/>
	<path fill="#DDA384" d="M385.6,88.9c-1,0-1.7-0.8-1.7-1.7c0-0.8,0.9-1.5,1.7-1.5c0.9,0.1,1.6,0.8,1.5,1.6
		C387.3,88.2,386.4,89,385.6,88.9z"/>
	<path fill="#E1A98A" d="M459.5,167.3c0,0.8-0.8,1.6-1.7,1.6s-1.7-0.8-1.7-1.6s0.9-1.7,1.7-1.7C458.6,165.6,459.5,166.5,459.5,167.3
		z"/>
	<path fill="#C77369" d="M505.8,62.1c0,1-0.5,1.6-1.5,1.6c-0.9,0-1.6-0.6-1.6-1.5c0-0.8,0.8-1.7,1.6-1.7
		C505.1,60.5,505.8,61.2,505.8,62.1z"/>
	<path fill="#DEA943" d="M402.1,71.4c-0.6-0.4-1.2-0.7-1.9-0.7c0-0.6-0.3-1.2,0.1-1.8c0.4-0.7,1-0.9,1.8-0.7
		c0.8,0.2,1.1,0.7,1.3,1.5c0.1,0.2-0.1,0.5,0.1,0.7c0,0.1,0,0.1,0,0.2C402.8,70.6,402.5,71.2,402.1,71.4z"/>
	<path fill="#C57166" d="M461.2,51.2c0,0.9-0.7,1.6-1.5,1.6c-0.9,0-1.6-0.7-1.6-1.7c0-0.8,0.7-1.5,1.6-1.5
		C460.5,49.7,461.2,50.3,461.2,51.2z"/>
	<path fill="#A6B176" d="M427.6,103.5c-0.3,0.1-0.5-0.2-0.7-0.3c0.1-0.3-0.3-0.5-0.5-0.7c-0.5-0.8-0.4-1.9,0.4-2.3
		c0.7-0.4,1.9-0.1,2.2,0.7c0.4,0.8-0.1,1.9-0.9,2.3C428,103.2,427.5,103,427.6,103.5z"/>
	<path fill="#DB9E82" d="M433.6,20c0-0.9,0.7-1.5,1.8-1.6c0.6,0,1.5,0.9,1.4,1.6c0,0.8-0.9,1.7-1.6,1.7
		C434.3,21.7,433.5,20.8,433.6,20z"/>
	<path fill="#A2AB6F" d="M460.9,132.7c0-0.9,0.7-1.5,1.5-1.5c0.8,0,1.6,0.8,1.5,1.7c0,0.9-0.7,1.5-1.6,1.5
		C461.5,134.3,460.9,133.5,460.9,132.7z"/>
	<path fill="#C57369" d="M427.6,24.1c-0.9,0-1.6-0.7-1.6-1.5s0.7-1.7,1.6-1.7c0.7,0,1.5,0.8,1.5,1.6
		C429.2,23.3,428.5,24.1,427.6,24.1z"/>
	<path fill="#D2897D" d="M389.1,151.5c0.9,0,1.5,0.7,1.5,1.6c0,0.9-0.7,1.5-1.5,1.5c-0.9,0-1.5-0.7-1.5-1.6
		C387.6,152.2,388.3,151.5,389.1,151.5z"/>
	<path fill="#D1887C" d="M345.6,70.3c-0.9,0-1.5-0.6-1.6-1.3c0-0.9,0.7-1.7,1.5-1.7c0.9,0,1.6,0.7,1.6,1.5
		C347,69.6,346.4,70.3,345.6,70.3z"/>
	<path fill="#D2897E" d="M358.7,89.8c0-0.8,0.7-1.5,1.4-1.5c0.9,0,1.7,0.8,1.7,1.5c-0.1,0.8-0.9,1.7-1.7,1.6
		C359.4,91.4,358.7,90.6,358.7,89.8z"/>
	<path fill="#C57067" d="M407.6,120c0.9,0,1.6,0.7,1.5,1.5c-0.1,0.9-0.7,1.5-1.5,1.5s-1.6-0.8-1.5-1.6
		C406.1,120.7,406.8,119.9,407.6,120z"/>
	<path fill="#6A8A69" d="M477.8,65.7c0,0.9-0.6,1.5-1.4,1.5c-0.9,0-1.6-0.5-1.6-1.4s0.7-1.6,1.5-1.6
		C477.1,64.2,477.8,64.9,477.8,65.7z"/>
	<path fill="#E0A889" d="M371.2,135.4c0.7,0,1.5,0.9,1.5,1.5c0,0.7-0.9,1.6-1.7,1.6c-0.8-0.1-1.4-0.7-1.4-1.6
		C369.7,136,370.4,135.3,371.2,135.4z"/>
	<path fill="#C7736A" d="M429.8,177.4c0-0.9,0.7-1.5,1.5-1.5c0.8,0,1.5,0.7,1.5,1.6c0,0.8-0.7,1.4-1.5,1.4
		C430.4,179,429.8,178.4,429.8,177.4z"/>
	<path fill="#D48B80" d="M418.8,151.4c0.8,0,1.5,0.7,1.5,1.6c0,0.7-0.9,1.5-1.6,1.5c-0.7-0.1-1.5-0.9-1.5-1.5
		C417.2,152.1,417.9,151.4,418.8,151.4z"/>
	<path fill="#A3AC70" d="M446.9,91c0,0.7-0.7,1.5-1.5,1.5c-0.8,0-1.5-0.7-1.5-1.5s0.7-1.5,1.5-1.5S446.9,90.2,446.9,91z"/>
	<path fill="#E28C54" d="M421,125.1c0,0.7,0,1.3,0,1.9c-0.3-0.3,0-0.8-0.4-1.1c-0.1,0.1-0.3,0.3-0.5,0.3c-0.7,0.5-1.6,0.3-2.1-0.5
		c-0.4-0.7-0.2-1.5,0.5-1.9c0.7-0.5,1.5-0.3,2.1,0.5C420.7,124.6,420.6,125,421,125.1z"/>
	<path fill="#D4867A" d="M480.4,123.5c0.3,0.5,0.7,0.7,1.1,1.1c-0.5,0.1-0.3,0.5-0.3,0.7c-0.3,1.3-1.3,1.8-2.3,1.1
		c-0.6-0.4-0.7-0.9-0.5-1.5c0.1-0.6,0.6-0.9,1.2-1C479.8,123.8,480.2,124,480.4,123.5z"/>
	<path fill="#DBA081" d="M399.3,17.5c-0.2-0.1-0.3-0.2-0.5-0.3c0.5-0.1,0.3-0.5,0.3-0.8c0.1-0.9,0.4-1.3,1.1-1.5
		c0.7-0.1,1.3,0.1,1.7,0.9c0.3,0.5,0.2,1-0.1,1.4c-0.3,0.4-0.7,0.7-1.3,0.6C400.1,17.7,399.7,17.6,399.3,17.5z"/>
	<path fill="#D48A80" d="M385.2,172.1c0.9,0,1.6,0.7,1.6,1.5c0,0.7-0.8,1.4-1.6,1.4c-0.8,0-1.5-0.7-1.5-1.5
		C383.7,172.8,384.4,172.1,385.2,172.1z"/>
	<path fill="#E1AA8A" d="M341.9,112.8c-0.8,0-1.5-0.7-1.5-1.5c0-0.7,0.7-1.5,1.4-1.5c0.8,0,1.5,0.7,1.5,1.5
		C343.3,112,342.7,112.7,341.9,112.8z"/>
	<path fill="#E3A989" d="M377.4,167.7c0,0.7-0.9,1.5-1.5,1.5c-0.7,0-1.5-0.8-1.5-1.5s0.7-1.5,1.5-1.5
		C376.7,166.1,377.4,166.9,377.4,167.7z"/>
	<path fill="#DFA788" d="M410.9,90.9c0,0.7-0.8,1.5-1.5,1.5s-1.6-0.9-1.5-1.6c0-0.8,0.8-1.5,1.6-1.5C410.4,89.4,410.9,90,410.9,90.9
		z"/>
	<path fill="#C47167" d="M460.5,62.5c0.1,0.1,0.2,0.1,0.3,0.1c0.1,0.2,0.1,0.4,0.1,0.6c0.2,0.7-0.1,1.5-0.7,1.8
		c-0.6,0.3-1.2,0.3-1.7-0.2c-0.5-0.5-0.6-1.1-0.3-1.7c0.3-0.7,0.9-0.9,1.7-0.7C460.1,62.4,460.3,62.5,460.5,62.5z"/>
	<path fill="#D2857A" d="M454.8,45.6c0,0.8-0.7,1.5-1.5,1.5c-0.8,0.1-1.5-0.7-1.5-1.5s0.6-1.5,1.4-1.5
		C454.1,44,454.8,44.7,454.8,45.6z"/>
	<path fill="#DCA183" d="M403.2,37.3c-0.8,0-1.5-0.6-1.5-1.4c-0.1-0.8,0.6-1.5,1.5-1.5c0.7,0,1.5,0.7,1.5,1.4
		C404.7,36.6,404.1,37.3,403.2,37.3z"/>
	<path fill="#D4887C" d="M361.6,74.6c-0.9-0.1-1.5-0.6-1.5-1.4c0-0.9,0.7-1.5,1.5-1.5c0.8,0,1.5,0.7,1.4,1.5
		C363.1,74.1,362.4,74.7,361.6,74.6z"/>
	<path fill="#D3857A" d="M373.2,149.6c0,0.8-0.6,1.5-1.4,1.5c-0.8,0-1.5-0.7-1.5-1.5c0-0.8,0.6-1.5,1.3-1.5
		C372.5,148.2,373.2,148.9,373.2,149.6z"/>
	<path fill="#D58A7E" d="M402,150.4c-0.2,0.5-0.6,1-0.7,1.5c0-0.4-0.2-0.3-0.5-0.3c-0.6,0.1-1.2,0.1-1.6-0.5
		c-0.5-0.7-0.3-1.5,0.5-2.1c0.6-0.4,1.5-0.1,1.9,0.5C401.7,149.9,401.7,150.2,402,150.4z"/>
	<path fill="#C77469" d="M412.5,71.1c-0.9,0-1.5-0.6-1.5-1.4c0-0.7,0.7-1.5,1.4-1.5c0.9,0,1.5,0.7,1.5,1.5
		C413.9,70.5,413.3,71.1,412.5,71.1z"/>
	<path fill="#C67067" d="M394.8,41.2c-0.1,0.8-0.7,1.4-1.5,1.3c-0.9,0-1.5-0.7-1.4-1.5c0.1-0.8,0.7-1.4,1.5-1.3
		C394.2,39.8,394.8,40.4,394.8,41.2z"/>
	<path fill="#CD8377" d="M471.3,66c0-0.9,0.5-1.5,1.4-1.5c0.8,0,1.5,0.7,1.5,1.5c0,0.8-0.7,1.5-1.5,1.5
		C471.9,67.4,471.3,66.8,471.3,66z"/>
	<path fill="#D3857B" d="M342.4,78.8c0.8,0,1.4,0.7,1.4,1.5c0,0.7-0.7,1.4-1.4,1.4c-0.8,0-1.3-0.5-1.4-1.4
		C341,79.4,341.5,78.8,342.4,78.8z"/>
	<path fill="#DDA184" d="M355.3,53.2c0,0.7-0.8,1.5-1.5,1.5c-0.8-0.1-1.5-0.8-1.5-1.6c0-0.5,0.9-1.3,1.5-1.3
		C354.7,51.8,355.3,52.4,355.3,53.2z"/>
	<path fill="#E2AA8A" d="M510.5,114c-0.8,0-1.5-0.5-1.5-1.3c0-0.9,0.7-1.5,1.6-1.5c0.6,0,1.3,0.7,1.3,1.4
		C511.9,113.4,511.3,114,510.5,114z"/>
	<path fill="#E0A588" d="M420.7,164.7c0.6,0,1.2,0,1.8,0c-0.1,0.4,0.2,0.5,0.5,0.5c1.3,0.5,1.5,1.4,0.5,2.4
		c-0.5,0.5-1.1,0.5-1.7,0.1c-0.5-0.4-0.6-1.2-0.3-1.7c0.2-0.3,0.9-0.5,0.7-1c-0.2-0.4-0.8-0.1-1.2-0.2
		C420.8,164.8,420.8,164.7,420.7,164.7z"/>
	<path fill="#D2867A" d="M410.8,116c-0.7,0-1.4-0.7-1.4-1.5c0.1-0.8,0.7-1.4,1.5-1.4c0.7,0,1.3,0.7,1.3,1.4
		C412.3,115.4,411.6,116,410.8,116z"/>
	<path fill="#D58A7F" d="M439.5,158.7c0-0.9,0.5-1.5,1.4-1.4c0.7,0,1.3,0.8,1.3,1.5s-0.7,1.4-1.5,1.4
		C440,160.2,439.5,159.5,439.5,158.7z"/>
	<path fill="#D3887C" d="M465.6,161.3c0,0.8-0.7,1.5-1.5,1.5c-0.7,0-1.4-0.8-1.4-1.5c0-0.8,0.6-1.4,1.5-1.4
		C465.1,159.8,465.6,160.4,465.6,161.3z"/>
	<path fill="#E18B59" d="M482.3,135.5c0,0.8-0.6,1.4-1.5,1.3c-0.7,0-1.5-0.7-1.5-1.4c0-0.7,0.8-1.4,1.5-1.4
		C481.8,134,482.4,134.7,482.3,135.5z"/>
	<path fill="#DBA283" d="M381,71.7c-0.1-0.7,0.1-1.5-0.3-2.1c0.3,0,0.3-0.3,0.5-0.5c0.3-0.6,0.8-0.9,1.5-0.8s1.1,0.5,1.1,1.1
		c0,0.3,0.1,0.5,0.5,0.5c-0.1,0.2-0.3,0.4-0.5,0.7c-0.7,0.2-1.5,0.6-2.3,0.1c-0.2-0.1-0.3,0.1-0.3,0.3
		C381.1,71.2,381.2,71.5,381,71.7z"/>
	<path fill="#76A479" d="M404.2,91.3c0.2,0,0.3,0,0.5,0c0.1,0.2,0.3,0.3,0.4,0.4c0.5,0.4,0.8,0.9,0.5,1.6c-0.2,0.7-0.7,1-1.4,0.9
		c-0.6-0.1-1.1-0.3-1.3-1c-0.1-0.7,0.1-1.3,0.7-1.6C403.9,91.5,404,91.4,404.2,91.3z"/>
	<path fill="#C57267" d="M458.4,82.5c0.3-0.1,0.7-0.2,1-0.3c0.9,0,1.3,0.5,1.6,1.3c-0.1,0.2-0.1,0.5-0.1,0.7c-0.6,0.8-1.3,1-2,0.7
		c-0.7-0.3-0.9-1.1-0.5-2C458.4,82.7,458.4,82.6,458.4,82.5z"/>
	<path fill="#D68B7D" d="M364.5,91.8c0.9,0.7,2.1,0.5,3.2,0.5c-0.3,0.3-0.7,0.1-1,0.1c-0.5,0-0.9,0-0.5,0.7c0.3,0.6,0.1,1.2-0.5,1.6
		s-1.2,0.3-1.7-0.3c-0.5-0.5-0.4-1.5,0.3-2C364.3,92.3,364.7,92.2,364.5,91.8z"/>
	<path fill="#E0A988" d="M487.3,99.1c0,0.7-0.7,1.4-1.3,1.4c-0.8,0-1.5-0.7-1.5-1.5c0-0.7,0.7-1.4,1.4-1.3
		C486.8,97.7,487.5,98.4,487.3,99.1z"/>
	<path fill="#E7A844" d="M399,46.7c-0.8,0-1.3-0.5-1.3-1.3c0-0.8,0.6-1.4,1.4-1.4c0.7,0,1.4,0.7,1.3,1.5
		C400.4,46.3,399.9,46.7,399,46.7z"/>
	<path fill="#D18479" d="M424.3,34.3c0,0.8-0.5,1.3-1.3,1.3s-1.4-0.5-1.4-1.2c-0.1-0.7,0.6-1.5,1.3-1.5
		C423.7,32.9,424.3,33.5,424.3,34.3z"/>
	<path fill="#DCA485" d="M425.6,87.3c0.7,0,1.4,0.7,1.3,1.5c0,0.7-0.7,1.3-1.4,1.3c-0.8,0-1.3-0.7-1.3-1.5
		C424.3,88,424.9,87.3,425.6,87.3z"/>
	<path fill="#6B8C6C" d="M406.2,66.7c-0.7,0-1.4-0.7-1.4-1.4c0.1-0.7,0.7-1.3,1.4-1.3c0.7,0,1.4,0.8,1.4,1.5
		C407.6,66.2,406.9,66.8,406.2,66.7z"/>
	<path fill="#E1A789" d="M340.1,107c0-0.7,0.7-1.3,1.3-1.3c0.8,0,1.5,0.7,1.4,1.4c0,0.7-0.7,1.3-1.4,1.3
		C340.7,108.4,340.1,107.7,340.1,107z"/>
	<path fill="#D48A7D" d="M382.3,102.8c0.2,0,0.4,0.1,0.5,0.3c-0.6,0.2-0.1,0.5-0.1,0.7c0.3,0.7-0.1,1.5-0.7,1.8
		c-0.5,0.3-1.3,0-1.6-0.6c-0.3-0.5-0.1-1.4,0.3-1.8C381.2,102.9,381.8,103.1,382.3,102.8z"/>
	<path fill="#C67367" d="M471.2,89.9c0.3,0.6,0.6,1.2,0,1.7c-0.3,0.1-0.5,0.3-0.8,0.4c-0.6,0.2-1.1-0.1-1.5-0.5
		c-0.3-0.5-0.3-0.9,0.1-1.4c0.4-0.5,0.9-0.7,1.5-0.5C470.8,89.6,471,89.8,471.2,89.9z"/>
	<path fill="#D2877C" d="M461.2,157.3c-0.8,0-1.4-0.5-1.3-1.3c0-0.7,0.7-1.3,1.4-1.3c0.7,0,1.3,0.7,1.3,1.3
		C462.5,156.7,461.9,157.3,461.2,157.3z"/>
	<path fill="#DA9E81" d="M393.2,27.6c0,0.7-0.7,1.3-1.4,1.3c-0.8,0-1.2-0.5-1.2-1.5c0-0.7,0.6-1.3,1.3-1.3
		C392.6,26.2,393.2,26.8,393.2,27.6z"/>
	<path fill="#DDA284" d="M377.1,49.3c0-0.7,0.5-1.3,1.1-1.3c0.9,0,1.5,0.6,1.5,1.4c0,0.7-0.7,1.3-1.3,1.3
		C377.7,50.9,377.1,50.1,377.1,49.3z"/>
	<path fill="#D4887B" d="M486.2,111.8c-0.7,0-1.3-0.6-1.3-1.3c0-0.8,0.6-1.4,1.3-1.3c0.7,0,1.3,0.6,1.3,1.4
		C487.5,111.2,486.9,111.8,486.2,111.8z"/>
	<path fill="#D2867B" d="M504.6,90.1c0.5,0,1.2,0.8,1.2,1.3c0,0.7-0.7,1.4-1.4,1.4c-0.7,0-1.3-0.6-1.3-1.3
		C503.1,90.7,503.8,90,504.6,90.1z"/>
	<path fill="#DDA486" d="M409.1,26.7c-0.8,0-1.5-0.7-1.5-1.4c0-0.5,0.8-1.3,1.3-1.3c0.6,0,1.4,0.8,1.4,1.4
		C410.4,25.9,409.7,26.7,409.1,26.7z"/>
	<path fill="#D3877B" d="M475.1,143.2c0,0.7-0.7,1.3-1.3,1.3c-0.7,0-1.3-0.6-1.4-1.3c0-0.7,0.7-1.4,1.4-1.4S475.1,142.5,475.1,143.2
		z"/>
	<path fill="#DEA385" d="M456,35.6c0,0.7-0.6,1.2-1.2,1.2c-0.9,0-1.4-0.5-1.4-1.3s0.7-1.5,1.3-1.4C455.4,34.1,456,34.8,456,35.6z"/>
	<path fill="#E18B59" d="M417.3,84.7c0-0.8,0.5-1.3,1.3-1.3c0.7,0,1.3,0.5,1.3,1.3c0,0.7-0.5,1.3-1.3,1.3
		C417.8,86,417.3,85.5,417.3,84.7z"/>
	<path fill="#C77369" d="M488.4,119.8c-0.8,0-1.3-0.5-1.3-1.3c0-0.7,0.5-1.3,1.3-1.3s1.3,0.6,1.3,1.3
		C489.7,119.3,489.1,119.9,488.4,119.8z"/>
	<path fill="#D18579" d="M449.7,110.7c0,0.6-0.7,1.3-1.3,1.3c-0.7,0-1.3-0.6-1.3-1.3c0-0.7,0.6-1.3,1.3-1.3
		C449.1,109.4,449.7,110.1,449.7,110.7z"/>
	<path fill="#D3867A" d="M496.1,66.8c0-0.9,0.4-1.3,1.2-1.3s1.3,0.5,1.3,1.3c0,0.7-0.5,1.3-1.2,1.3C496.7,68,496.1,67.6,496.1,66.8z
		"/>
	<path fill="#D58E82" d="M368.3,162.6c-0.6,0-1.3-0.7-1.3-1.3c0-0.7,0.6-1.3,1.3-1.3c0.6,0,1.4,0.7,1.3,1.3
		C369.7,162,368.9,162.6,368.3,162.6z"/>
	<path fill="#C7746B" d="M355.4,99.3c0.7,0,1.2,0.5,1.3,1.3c0,0.7-0.5,1.3-1.3,1.3c-0.7,0-1.3-0.6-1.3-1.3
		C354.1,99.9,354.7,99.3,355.4,99.3z"/>
	<path fill="#DEA786" d="M420.2,110.5c-0.7,0-1.3-0.6-1.3-1.3c0-0.5,0.8-1.3,1.4-1.3c0.7,0,1.2,0.6,1.2,1.3
		C421.5,110,421,110.5,420.2,110.5z"/>
	<path fill="#DFA687" d="M385.8,92.4c0.7,0,1.4,0.7,1.3,1.3c0,0.5-0.7,1.3-1.3,1.3c-0.7,0-1.3-0.6-1.3-1.3
		C384.6,93,385.2,92.4,385.8,92.4z"/>
	<path fill="#E3AB8C" d="M402.1,172.2c0,0.7-0.7,1.3-1.4,1.2c-0.6,0-1.2-0.7-1.2-1.3c0-0.6,0.7-1.3,1.3-1.3
		C401.3,170.8,402,171.5,402.1,172.2z"/>
	<path fill="#E2AB8C" d="M432.6,150.8c0.7,0,1.3,0.6,1.3,1.3c0,0.5-0.7,1.3-1.2,1.3c-0.6,0-1.4-0.7-1.4-1.3
		C431.4,151.3,431.8,150.8,432.6,150.8z"/>
	<path fill="#E2AA8A" d="M404.1,134.6c0,0.5-0.7,1.2-1.3,1.2c-0.6,0-1.3-0.8-1.3-1.4c0.1-0.7,0.6-1.1,1.3-1.1
		C403.6,133.3,404.1,133.9,404.1,134.6z"/>
	<path fill="#A4AC70" d="M483.2,77.2c-0.8,0-1.3-0.5-1.3-1.1s0.7-1.3,1.3-1.3c0.7,0,1.3,0.7,1.3,1.4
		C484.4,76.8,483.9,77.2,483.2,77.2z"/>
	<path fill="#C67168" d="M375.5,48.1c-0.7,0-1.2-0.5-1.2-1.2s0.5-1.2,1.2-1.2c0.7,0,1.2,0.5,1.3,1.2
		C376.8,47.5,376.2,48.1,375.5,48.1z"/>
	<path fill="#D3887B" d="M492.9,128.5c0.2-0.1,0.5-0.1,0.7-0.2c0.6,0.1,1.1,0.3,1.3,0.9c0.1,0.5-0.1,1.1-0.5,1.4
		c-0.5,0.3-1.1,0.3-1.5-0.1c-0.5-0.4-0.5-0.9-0.2-1.5C492.7,128.8,492.8,128.6,492.9,128.5z"/>
	<path fill="#DCA285" d="M395.1,24.7c0,0.6-0.7,1.3-1.3,1.3c-0.6,0-1.2-0.6-1.2-1.1c0-0.8,0.5-1.3,1.3-1.3
		C394.6,23.6,395.1,24.1,395.1,24.7z"/>
	<path fill="#D5897C" d="M480,99.3c0,0.7-0.7,1.3-1.3,1.3c-0.6-0.1-1.2-0.7-1.2-1.3s0.7-1.3,1.3-1.2C479.4,98.1,480,98.8,480,99.3z"
		/>
	<path fill="#E3AC8D" d="M511.5,117.4c0,0.7-0.5,1.3-1.2,1.3s-1.2-0.6-1.2-1.3c0-0.5,0.7-1.2,1.2-1.3S511.5,116.8,511.5,117.4z"/>
	<path fill="#D38B7E" d="M414.7,132.5c0,0.6-0.5,1.2-1.1,1.3c-0.7,0.1-1.3-0.5-1.3-1.2s0.5-1.2,1.3-1.3
		C414.2,131.3,414.7,131.8,414.7,132.5z"/>
	<path fill="#D1877C" d="M353.8,69.8c0,0.6-0.5,1.2-1.1,1.2c-0.7,0-1.2-0.5-1.3-1.2c0-0.7,0.6-1.3,1.3-1.3
		C353.2,68.5,353.7,69.1,353.8,69.8z"/>
	<path fill="#E0A387" d="M386.6,45.5c-0.5,0-1.3-0.8-1.3-1.4c0-0.5,0.7-1.1,1.2-1.1c0.5-0.1,1.3,0.7,1.3,1.1
		C387.9,44.5,387.1,45.5,386.6,45.5z"/>
	<path fill="#DCA383" d="M411.1,45.9c0,0.7-0.5,1.3-1.1,1.3s-1.3-0.6-1.3-1.2c0-0.7,0.5-1.2,1.2-1.2
		C410.5,44.8,411.1,45.3,411.1,45.9z"/>
	<path fill="#DCA183" d="M414.7,32c-0.6,0-1.2-0.5-1.2-1.1c0-0.7,0.5-1.3,1.2-1.3s1.2,0.6,1.2,1.2C415.9,31.4,415.3,32,414.7,32z"/>
	<path fill="#D3887D" d="M372.8,84.9c-0.6,0-1.1-0.6-1.1-1.1c0-0.8,0.5-1.3,1.3-1.3c0.5,0.1,1.2,0.7,1.2,1.2
		C374.2,84.3,373.5,84.9,372.8,84.9z"/>
	<path fill="#C2746A" d="M455,122.3c0.7,0,1.2,0.5,1.2,1.2s-0.5,1.1-1.2,1.1c-0.7,0-1.1-0.5-1.1-1.2
		C453.9,122.7,454.4,122.3,455,122.3z"/>
	<path fill="#71A478" d="M423.4,100.5c0-0.1,0.1-0.1,0.1-0.1c0.3-0.3,0.7-0.4,1.1-0.5c0.5-0.3,0.8,0,0.9,0.5c0.2,0.3,0.3,0.7,0.1,1
		c-0.2,0.7-0.8,1.1-1.4,0.9C423.6,102,423.2,101.2,423.4,100.5z"/>
	<path fill="#D3867B" d="M471.7,141.5c0,0.7-0.5,1.1-1.1,1.1c-0.7,0-1.3-0.6-1.3-1.3c0-0.7,0.6-1.2,1.2-1.2
		C471.2,140.2,471.7,140.8,471.7,141.5z"/>
	<path fill="#C6736A" d="M448,154.7c-0.6,0-1.1-0.6-1.1-1.2c0-0.7,0.5-1.1,1.2-1.1c0.6,0,1.1,0.5,1.1,1.2
		C449.2,154.1,448.6,154.7,448,154.7z"/>
	<path fill="#DCA283" d="M483,43.5c0.7,0,1.1,0.5,1.1,1.1c0,0.6-0.5,1.1-1.1,1.1c-0.7,0-1.1-0.4-1.1-1.1S482.2,43.5,483,43.5z"/>
	<path fill="#D68E83" d="M498.5,141.9c0-0.7,0.6-1.3,1.2-1.2c0.5,0,1.1,0.7,1.1,1.3c0,0.5-0.7,1.2-1.2,1.1
		C499.1,143.1,498.5,142.5,498.5,141.9z"/>
	<path fill="#E1A888" d="M363.9,148.3c0-0.1,0-0.1,0-0.1c0.4,0.1,0.5-0.3,0.7-0.4c0.3-0.3,0.7-0.5,1.3-0.3c0.5,0.2,0.7,0.5,0.8,1.1
		c0,0.5-0.3,0.9-0.7,1.1c-0.6,0.2-1.1,0.1-1.4-0.5C364.3,148.7,364.3,148.3,363.9,148.3z"/>
	<path fill="#E2A98A" d="M367.9,115.8c0,0.5-0.7,1.1-1.3,1.1c-0.5,0-1.1-0.6-1.1-1.2c0-0.6,0.7-1.2,1.3-1.2
		C367.3,114.6,367.9,115.3,367.9,115.8z"/>
	<path fill="#D4897C" d="M375.2,89c-0.5,0.1-1-0.3-1.5,0c0.1-0.3-0.2-0.5-0.3-0.6c-0.5-0.5-0.4-1.1,0-1.6c0.4-0.5,0.9-0.4,1.4-0.1
		c0.5,0.4,0.7,1,0.2,1.5C374.5,88.8,374.8,88.9,375.2,89z"/>
	<path fill="#DEA788" d="M429.2,144.1c-0.7,0.1-1.1-0.6-1.1-1.2c-0.1-0.5,0.6-1.1,1.2-1.1c0.5,0,1.2,0.7,1.2,1.2
		S429.9,144.1,429.2,144.1z"/>
	<path fill="#E3AC8C" d="M358.7,114.2c0.6,0,1.2,0.7,1.1,1.3c0,0.5-0.7,1.1-1.3,1.1c-0.5-0.1-1.1-0.7-1.1-1.2
		C357.5,114.9,358.2,114.2,358.7,114.2z"/>
	<path fill="#C57369" d="M435.3,31.8c0,0.7-0.5,1.1-1.1,1.1c-0.5,0-1.1-0.6-1.1-1.1c0-0.6,0.5-1.1,1.1-1.1
		C434.8,30.6,435.3,31.1,435.3,31.8z"/>
	<path fill="#E2AA8B" d="M487.1,126.9c0,0.5-0.7,1.1-1.1,1.1c-0.6,0-1.1-0.5-1.1-1.2c0-0.6,0.5-1.1,1.1-1.1
		C486.5,125.6,487.1,126.3,487.1,126.9z"/>
	<path fill="#D18479" d="M472.5,48.5c0.7,0,1.1,0.5,1.1,1.1c0,0.6-0.6,1.1-1.1,1.1c-0.6,0-1.1-0.5-1.1-1.1
		C471.4,48.9,471.9,48.5,472.5,48.5z"/>
	<path fill="#DAA083" d="M400.9,23.9c0,0.7-0.4,1.1-1.1,1.1c-0.6,0-1.1-0.5-1.1-1.1c-0.1-0.6,0.5-1.1,1.1-1.2
		C400.3,22.7,400.9,23.3,400.9,23.9z"/>
	<path fill="#D3877A" d="M502.6,101.2c0.5,0,1.1,0.6,1.1,1.1s-0.6,1.1-1.1,1.1c-0.5,0-1.1-0.6-1.1-1.1
		C501.5,101.7,502,101.2,502.6,101.2z"/>
	<path fill="#DFA586" d="M440.5,50.9c0-0.6,0.5-1.1,1.1-1.1c0.5,0,1.1,0.7,1.1,1.1s-0.6,1.1-1.1,1.1C441,52.1,440.5,51.5,440.5,50.9
		z"/>
	<path fill="#A3AC71" d="M392.8,72.7c-0.7,0-1-0.5-1.1-1.1c-0.1-0.6,0.5-1.1,1.1-1.1c0.5,0,1.1,0.6,1.1,1.1
		C394,72.3,393.5,72.7,392.8,72.7z"/>
	<path fill="#DFA587" d="M372.9,56.1c0,0.5-0.5,1.1-1.1,1.1c-0.5,0-1.1-0.6-1.1-1.1c0-0.7,0.5-1.1,1.1-1.1
		C372.4,55,372.9,55.5,372.9,56.1z"/>
	<path fill="#6B8B69" d="M475.9,54.7c0,0.6-0.5,1.1-1.1,1.1c-0.6,0-1-0.5-1-1.1c0.1-0.7,0.5-1,1.1-1
		C475.5,53.6,475.9,54.1,475.9,54.7z"/>
	<path fill="#E0A588" d="M456.9,39.6c0,0.6-0.5,1.2-1.1,1.2c-0.5,0-1.1-0.7-1.1-1.2c0.1-0.6,0.5-0.9,1.1-1
		C456.3,38.5,456.9,39.1,456.9,39.6z"/>
	<path fill="#DDA586" d="M472.7,85.1c0-0.7,0.5-1.2,1-1.2c0.5,0,1.1,0.6,1.1,1.1c0,0.5-0.5,1.1-1.1,1.1
		C473.1,86.2,472.7,85.7,472.7,85.1z"/>
	<path fill="#E1A88A" d="M481.3,154.3c-0.2-0.2-0.4-0.4-0.6-0.6c0.2-0.2,0.1-0.5,0.1-0.7c-0.1-0.7,0.3-1.1,0.9-1.1
		c0.5,0,0.9,0.3,1.1,0.9c0.1,0.6-0.3,0.9-0.7,1.1C481.8,154,481.5,154,481.3,154.3z"/>
	<path fill="#DFA587" d="M373.2,73.5c0,0.5-0.6,1.1-1.1,1.1c-0.6,0-1-0.5-1-1.2c0-0.5,0.3-0.9,0.8-1C372.6,72.5,373.2,73,373.2,73.5
		z"/>
	<path fill="#DDA587" d="M470.4,23.7c0.7,0,1.2,0.5,1.1,1c-0.1,0.5-0.4,1-1.1,1c-0.7-0.1-1.2-0.5-1.1-1.1
		C469.4,24.1,469.7,23.6,470.4,23.7z"/>
	<path fill="#A6AE72" d="M382.7,74.1c0,0.6-0.5,1-1.1,0.9c-0.5,0-1.1-0.6-1-1.1c0-0.6,0.5-1,1.1-1C382.3,73,382.8,73.5,382.7,74.1z"
		/>
	<path fill="#C9766C" d="M494.8,97.3c0.7,0,1,0.4,1,1.1s-0.4,1.1-1.1,1c-0.6,0-1.1-0.5-1-1.1C493.8,97.7,494.3,97.3,494.8,97.3z"/>
	<path fill="#E0A888" d="M464.3,78.1c-0.1,0.5-0.3,0.9-1,0.9c-0.6,0-1.1-0.5-1.1-1.1c0-0.6,0.3-0.9,0.9-0.9
		C463.7,76.9,464.3,77.4,464.3,78.1z"/>
	<path fill="#E2AC8B" d="M491.8,139.4c0,0.5-0.7,1.2-1.1,1.1c-0.4,0-1-0.8-1-1.2s0.7-1.1,1.1-1C491.1,138.3,491.8,139,491.8,139.4z"
		/>
	<path fill="#DFA687" d="M446.4,115.3c-0.7,0-0.9-0.5-0.9-1.1c-0.1-0.6,0.3-1,0.9-1.1c0.6-0.1,1.1,0.5,1.1,1.1
		C447.6,114.8,447,115.3,446.4,115.3z"/>
	<path fill="#E1A689" d="M366.7,107.9c0.7,0.1,1.1-0.3,1.5-0.6c0.1,0.3,0.3,0.5,0.5,0.7c0.3,0.4,0.3,0.9,0,1.3
		c-0.3,0.3-0.5,0.6-1,0.4c-0.5-0.2-0.9-0.4-0.9-1C366.7,108.3,366.7,108.1,366.7,107.9z"/>
	<path fill="#E2AB8C" d="M348.4,127.4c0,0.6-0.5,1.1-1.1,1.1c-0.6-0.1-1-0.5-1-1.1c-0.1-0.6,0.5-1.1,1-1.1
		C348,126.4,348.5,126.9,348.4,127.4z"/>
	<path fill="#E1A98B" d="M388.2,167.4c0,0.5-0.5,1.1-1,1.1c-0.5,0-1.1-0.6-1.1-1.1c0-0.5,0.5-1,1.1-1
		C387.8,166.5,388.2,166.9,388.2,167.4z"/>
	<path fill="#E3AC8B" d="M475.2,131.1c0-0.5,0.5-1.1,1.1-1.1c0.5,0,1.1,0.5,1.1,1.1c-0.1,0.6-0.4,1-1,1.1
		C475.8,132.2,475.2,131.7,475.2,131.1z"/>
	<path fill="#E1A889" d="M435.7,128.4c0-0.5,0.6-1.1,1.1-1.1c0.7,0.1,0.9,0.5,1,1.1c0.1,0.5-0.6,1.1-1.1,1
		C436.1,129.4,435.7,129,435.7,128.4z"/>
	<path fill="#DFA587" d="M495.3,49.3c0.1-0.5,0.3-1,0.9-1c0.6,0,1.1,0.5,1.1,1s-0.5,1.1-1.1,1.1C495.9,50.5,495.3,49.9,495.3,49.3z"
		/>
	<path fill="#E2AB8B" d="M486.7,148.3c-0.6,0-1.2-0.5-1.1-1.1c0.1-0.6,0.5-0.9,1.1-0.9s0.9,0.3,1,0.9
		C487.9,147.7,487.3,148.3,486.7,148.3z"/>
	<path fill="#E3AC8C" d="M473.1,157.9c0.5,0,1.1,0.6,1.1,1c-0.1,0.6-0.4,1-1,1.1c-0.5,0.1-1.1-0.5-1.1-1
		C472,158.4,472.5,157.9,473.1,157.9z"/>
	<path fill="#A4AE72" d="M437.3,96.2c-0.5-0.1-0.9-0.3-0.9-1s0.3-1,0.9-1.1c0.5-0.1,1,0.5,1,1C438.4,95.7,437.9,96.2,437.3,96.2z"/>
	<path fill="#E3AD8C" d="M504.4,135.5c0,0.5-0.6,1.1-1,1.1c-0.5,0-1.1-0.5-1.1-1s0.5-1.1,1.1-1.1
		C503.7,134.4,504.4,135.1,504.4,135.5z"/>
	<path fill="#A5AD74" d="M441.1,71.4c-0.1-0.2-0.3-0.4-0.5-0.6c0.3-0.1,0.3-0.3,0.3-0.6c0-0.7,0.5-0.9,1-0.9
		c0.5,0.1,0.9,0.3,0.9,0.9c0,0.6-0.4,0.9-0.9,1C441.6,71.3,441.4,71.1,441.1,71.4z"/>
	<path fill="#DFA585" d="M379.7,67.4c-0.5,0-0.7-0.5-0.7-1c-0.1-0.6,0.5-0.9,0.9-1c0.5-0.1,1,0.5,1,1
		C381,66.9,380.5,67.4,379.7,67.4z"/>
	<path fill="#CF8A7E" d="M423.4,92.7c0.7,0,1.2,0.5,1.1,1.1c-0.1,0.6-0.5,0.9-0.9,0.9c-0.5,0-1.1-0.2-1-0.9
		C422.6,93.1,422.9,92.8,423.4,92.7z"/>
	<path fill="#D08A7E" d="M429.8,77.7c0,0.7-0.3,1.1-0.9,1.1s-0.9-0.4-0.9-0.9c0-0.6,0.3-1,1-1C429.4,76.8,429.7,77.2,429.8,77.7z"/>
	<path fill="#E2A88A" d="M414.7,66.2c0.6-0.1,0.9,0.4,0.9,1c0,0.5-0.4,0.9-0.9,1c-0.5,0.1-1-0.5-1-1
		C413.7,66.5,414.1,66.2,414.7,66.2z"/>
	<path fill="#A4B074" d="M425.5,100.4c-0.3-0.3-0.5-0.5-0.9-0.5c0-0.3-0.1-0.5-0.1-0.8c0-0.5,0.2-0.8,0.6-0.9
		c0.4-0.1,0.9-0.1,1.1,0.4c0.2,0.4,0.2,0.7-0.1,1.1C425.9,99.8,425.5,100,425.5,100.4z"/>
	<path fill="#E1A98B" d="M352.5,104.6c-0.1-0.1-0.3-0.1-0.3-0.3c0.3-0.3,0.1-0.6,0.1-0.9c0-0.7,0.4-0.9,0.9-0.9
		c0.5,0,0.9,0.4,0.9,0.9c0.1,0.6-0.3,0.9-0.9,1C352.9,104.4,352.5,104.2,352.5,104.6z"/>
	<path fill="#76A67A" d="M425.5,121.3c0,0.1,0,0.3,0,0.3c-0.1,0.6-0.4,0.9-1,0.9c-0.5,0-0.8-0.4-0.9-0.9c-0.1-0.5,0.2-0.8,0.6-1
		C424.9,120.5,425.3,120.8,425.5,121.3z"/>
	<path fill="#E5AF8E" d="M350.2,136.1c0.2,0,0.5,0,0.7,0c-0.1,0.4,0.3,0.6,0.3,0.9c0.1,0.5,0.1,0.9-0.3,1.1s-0.8,0.2-1.1-0.1
		c-0.3-0.4-0.3-0.8,0-1.2C349.9,136.5,350.2,136.4,350.2,136.1z"/>
	<path fill="#DFA588" d="M488.1,70.5c-0.4-0.1-0.9-0.3-0.9-0.9c0-0.5,0.4-1,0.9-1c0.5,0,1,0.4,0.9,1C489,70.1,488.8,70.5,488.1,70.5
		z"/>
	<path fill="#E1AA8B" d="M481.2,139c-0.1,0.5-0.4,0.9-0.9,0.9c-0.6,0.1-0.9-0.5-1-0.9c-0.1-0.3,0.6-0.9,1-0.9
		C480.9,138.1,481,138.6,481.2,139z"/>
	<path fill="#DDA886" d="M389.9,98.7c-0.7,0-0.8-0.5-0.9-0.9c-0.1-0.5,0.5-1,1-0.9c0.5,0.1,0.9,0.5,0.8,0.9
		C390.8,98.3,390.5,98.7,389.9,98.7z"/>
	<path fill="#E2AC8C" d="M405.8,173.8c0.7-0.1,0.9,0.3,0.9,0.9c0,0.6-0.5,0.9-0.9,0.9c-0.5,0-0.9-0.3-0.9-0.9
		S405.2,173.8,405.8,173.8z"/>
	<path fill="#DEA484" d="M437,46.1c0.1,0.1,0.2,0.1,0.2,0.2c-0.1,0.7,0.4,1.2,0.9,1.7c-0.3,0-0.5,0.1-0.6,0.3
		c-0.5,0.4-0.9,0.5-1.3-0.1c-0.4-0.5-0.2-1.1,0.4-1.3C436.9,46.7,437.1,46.5,437,46.1z"/>
	<path fill="#DBA083" d="M402.7,43.3c-0.1,0.5-0.5,0.9-1,0.9c-0.7,0.1-0.9-0.5-0.9-0.9c-0.1-0.5,0.3-0.9,0.9-0.9
		C402.3,42.4,402.5,42.8,402.7,43.3z"/>
	<path fill="#E0A587" d="M375.2,54.8c0.5,0.1,0.9,0.3,0.9,0.8c0,0.6-0.3,0.9-0.9,1c-0.5,0-0.8-0.4-0.8-0.9
		C374.3,55.1,374.6,54.8,375.2,54.8z"/>
	<path fill="#D48C7F" d="M422.2,77.4c0,0.6-0.3,0.9-0.8,0.9c-0.6,0-0.9-0.4-0.9-0.9c0-0.6,0.4-0.9,0.9-0.9S422.2,76.9,422.2,77.4z"
		/>
	<path fill="#DEA585" d="M423.6,71.1c-0.5-0.1-0.9-0.1-0.9-0.7s0.3-1,0.9-1.1c0.5,0,0.9,0.3,0.9,0.9C424.5,70.9,424.1,71,423.6,71.1
		z"/>
	<path fill="#DEA686" d="M373.1,69c0,0.5-0.3,0.9-0.8,0.9c-0.5,0-1-0.3-0.9-0.9c0.1-0.5,0.3-0.9,0.9-0.9
		C372.8,68.2,373.1,68.4,373.1,69z"/>
	<path fill="#DCA384" d="M436.5,41.1c0.6-0.1,0.9,0.4,0.9,0.8c0,0.4-0.3,0.9-0.9,0.9s-0.9-0.4-0.9-0.9
		C435.6,41.4,435.9,41.1,436.5,41.1z"/>
	<path fill="#DDA587" d="M402.5,20.9c-0.1,0.4-0.3,0.7-0.8,0.7c-0.6,0-0.9-0.3-0.9-0.9c0-0.5,0.4-0.8,0.9-0.8
		C402.1,20,402.5,20.2,402.5,20.9z"/>
	<path fill="#DEA386" d="M460.9,31c0-0.5,0.3-0.9,0.7-0.9c0.5,0,0.9,0.4,0.9,0.9c0,0.5-0.5,0.7-0.9,0.7
		C461.1,31.8,460.9,31.4,460.9,31z"/>
	<path fill="#DFA586" d="M505,99.5c0-0.5,0.2-0.8,0.7-0.7c0.5,0,0.9,0.4,0.9,0.9c0,0.5-0.4,0.8-0.9,0.8
		C505.2,100.4,504.9,100,505,99.5z"/>
	<path fill="#D18E83" d="M439.5,59.3c-0.6,0-0.8-0.4-0.8-0.9c-0.1-0.4,0.2-0.7,0.6-0.7c0.5,0,0.8,0.3,0.9,0.8
		C440.2,59,439.9,59.3,439.5,59.3z"/>
	<path fill="#DFA789" d="M452.5,24.7c0,0.3-0.2,0.6-0.5,0.7c-0.4,0-0.7-0.3-0.7-0.6c0-0.3,0.3-0.6,0.6-0.6
		C452.3,24.1,452.5,24.3,452.5,24.7z"/>
	<path fill="#FAFAF8" d="M457.4,136.2c-0.3-0.5-0.8-0.8-1.3-1.1c0-0.2,0-0.5,0.3-0.4c0.6,0,1.1-0.1,1.6-0.3c0.2-0.1,0.5,0,0.3,0.3
		c-0.3,0.5-0.4,1-0.7,1.5C457.6,136.2,457.4,136.2,457.4,136.2z"/>
</g>
</svg>
