<?xml version="1.0" encoding="utf-8"?>
<!-- Generator: Adobe Illustrator 17.1.0, SVG Export Plug-In . SVG Version: 6.00 Build 0)  -->
<!DOCTYPE svg PUBLIC "-//W3C//DTD SVG 1.1//EN" "http://www.w3.org/Graphics/SVG/1.1/DTD/svg11.dtd">
<svg version="1.1" id="Calque_1" xmlns="http://www.w3.org/2000/svg" xmlns:xlink="http://www.w3.org/1999/xlink" x="0px" y="0px"
	 viewBox="333 7.4 186 181.7" enable-background="new 333 7.4 186 181.7" xml:space="preserve">
<g>
	<path fill="#A88161" d="M454.2,102.4c0.3,0.1,0.5-0.1,0.7-0.3c0.6-0.5,1.1-0.9,1.9-1c0.5-0.3,0.9-0.1,1.3,0
		c1.7,0.2,3.3,1.7,3.5,3.4c0.3,2-0.8,3.8-2.5,4.4c-1.9,0.7-3.8,0.1-4.9-1.5c-0.1-0.2-0.2-0.7-0.6-0.5c-0.3,0.1-0.3,0.5-0.3,0.7
		c-0.5,1.5-2.2,2.3-3.8,1.9c-1.6-0.4-2.7-1.9-2.5-3.5c0.2-1.7,1.5-3,3.2-3.1c0.5,0,0.9,0.2,1.3-0.1c0.5,0.1,0.8,0.3,1.1,0.6
		c0.2,0.3,0.3,0.9,0.7,0.9c0.4-0.1,0.3-0.7,0.5-1.1c0-0.1,0-0.1,0.1-0.2C453.9,102.6,454,102.5,454.2,102.4z"/>
	<path fill="#93AE79" d="M342.9,86.9c2.9,0.1,5.3,2.1,5.2,5.4c-0.1,2.9-2.2,5-5.1,4.9c-3.1,0-5.1-2.3-5.1-5.2
		C337.8,89.2,340.3,86.9,342.9,86.9z"/>
	<path fill="#94AF7B" d="M349.6,114.3c-0.6-0.1-0.4,0.3-0.3,0.6c0.4,2.1-0.2,3.9-1.9,5.2c-2.1,1.7-5.2,1.3-7-0.9
		c-2.5-2.9-0.7-7.4,2.7-8.1c2.2-0.5,4,0.2,5.4,1.9c0.1,0.2,0.2,0.8,0.7,0.3C349.5,113.6,349.6,113.9,349.6,114.3z"/>
	<path fill="#5E815E" d="M384.7,132.1c-1.9-0.7-3.2-2-3.6-4.2c-0.5-2.6,1.4-5.2,4.1-5.8c2.7-0.5,5.4,1.2,5.9,3.8
		c0.7,3.4-1.5,6.2-5.2,6.3C385.4,132.5,385,132.4,384.7,132.1z"/>
	<path fill="#597C5A" d="M366.3,151.3c-2.9-0.1-5.2-2.3-5-5.2c0.1-2.7,2.3-5,5.2-4.8c2.9,0.1,5.1,2.4,5,5.2
		C371.4,149.2,369.1,151.4,366.3,151.3z"/>
	<path fill="#A87E5F" d="M408.2,115.1c0.2-0.3,0.5-0.6,0.7-0.9c0.1-0.2,0.5-0.3,0.4-0.6c-0.1-0.3-0.5-0.2-0.7-0.3
		c-1.4-0.3-2.5-1.4-2.7-2.9c-0.2-1.2,0.5-2.6,1.7-3.3c1.5-0.8,3.2-0.4,4.2,0.9c0.9,1.1,0.8,3-0.3,4.2c-0.2,0.2-0.6,0.3-0.4,0.7
		c0.1,0.3,0.5,0.1,0.7,0.1c1.9,0.3,3.5,2,3.4,3.8c-0.1,2-1.6,3.7-3.5,3.8c-2,0.1-3.8-1.2-4.1-3.2c-0.1-0.5-0.1-1.1-0.1-1.7
		C407.6,115.6,407.8,115.3,408.2,115.1z"/>
	<path fill="#5C805D" d="M502.9,86c0,2.8-2.3,5.1-5.1,5c-2.7-0.1-5-2.3-5-5.1c0-2.9,2.2-5,5.2-5C500.7,81,502.9,83.3,502.9,86z"/>
	<path fill="#639881" d="M510.5,102.6c-0.1,0.4,0.2,0.6,0.4,0.8c1.6,1.5,2.1,3.6,1.3,5.6c-0.7,1.8-2.7,3.1-4.8,3.1
		c-2.1-0.1-3.9-1.4-4.6-3.4c-1.2-3.4,1.8-7,5.5-6.6c0.3,0,0.6,0.3,0.7-0.2C509.7,101.8,510.1,102.1,510.5,102.6z"/>
	<path fill="#768F60" d="M393.2,54.6c-1.8-0.7-3.1-1.9-3.4-4c-0.1-0.4-0.3-0.4-0.5-0.1c-0.1,0.1-0.2,0.3-0.3,0.5
		c-0.5,0.7-1.4,0.9-2.1,0.7c-0.8-0.3-1.3-1.1-1.2-1.9c0.1-0.8,0.7-1.5,1.5-1.7c0.9-0.2,1.6,0.2,2.1,1c0.1,0.3,0.2,0.5,0.4,0.9
		c0.1-0.6,0.3-1.1,0.4-1.5c0.5-1.8,2.3-3.2,4.4-3.2c1.8-0.1,3.7,1.2,4.3,2.9c0.7,1.9,0.2,4-1.3,5.2c-0.6,0.5-1.3,0.8-2.1,1
		C394.7,55.1,394,55.1,393.2,54.6z"/>
	<path fill="#A98567" d="M387.9,72.6c2.1,0.3,3.6,2.7,2,4.8c-1.1,1.5-3.4,1.5-4.6,0.2c-0.2-0.2-0.3-0.7-0.7-0.6
		c-0.4,0.1-0.2,0.5-0.3,0.8c-0.4,1.9-1.5,2.9-3.5,3.2c-0.2,0-0.5,0-0.7,0.2c0.3,0.4,0.7,0.8,0.6,1.3c-0.1,0.7-0.3,1.2-1.1,1.3
		c-0.7,0.1-1.2-0.1-1.5-0.8c-0.3-0.6-0.1-1.3,0.6-1.6c0.9-0.4,0.5-0.5,0-0.9c-1.3-0.8-1.9-2.1-1.8-3.6c0.1-1.5,1.1-2.5,2.5-3.1
		c1.5-0.5,2.7,0,3.8,1c0.3,0.3,0.5,0.9,0.9,0.9c0.5-0.1,0.2-0.7,0.4-1.1c0.6-1.3,1.5-1.9,2.9-1.9C387.7,72.5,387.8,72.5,387.9,72.6z
		"/>
	<path fill="#759061" d="M384.5,118.8c0.5,0.1,0.4-0.1,0.3-0.5c-0.5-2.5,0.5-4.6,2.9-5.8c1.6-0.7,4-0.4,5.3,0.8
		c1.6,1.4,2.1,3.5,1.5,5.3c-0.7,1.9-2.1,3.2-4.3,3.4c-1.7,0.1-3-0.5-4.2-1.7c-0.7-0.7-0.7-0.7-1,0.1
		C384.7,119.9,384.5,119.4,384.5,118.8z"/>
	<path fill="#718C5F" d="M378.9,155.6c-3.3,2.1-7.1-0.2-7.6-3.3c-0.5-3.5,2.5-6.4,5.9-5.7c3.5,0.8,5,4.7,3,7.7
		C380.1,155.1,379.5,155.5,378.9,155.6z"/>
	<path fill="#61977F" d="M425,61.7c0.7-1.9,2.1-3.1,4.2-3.3c2.7-0.2,4.8,1.2,5.4,4c0.5,2.7-1.1,5.1-3.7,5.6c-3.2,0.7-6-1.5-6.1-5
		C424.3,62.5,424.7,62.1,425,61.7z"/>
	<path fill="#96B07B" d="M390.3,155.6c0.3,0.3,0.5,0.1,0.8,0.1c2.3-0.7,4.9,0.5,5.9,2.7c0.9,2,0.4,4.7-1.7,6
		c-2.2,1.5-4.6,0.9-6.1-0.4c-1.7-1.4-2.1-3.9-1-6c0.1-0.1,0.1-0.3,0.3-0.5c0.5-0.5,0.3-0.7-0.3-0.7c0-0.1,0-0.1,0-0.1
		C388.8,156.5,389.5,155.9,390.3,155.6z"/>
	<path fill="#5E815D" d="M472.9,44.4c2.7,0,5,2.1,5,4.7c0.1,2.8-2.1,5.1-4.9,5.1c-2.8,0-5-2.1-5-5C468,46.7,470.3,44.4,472.9,44.4z"
		/>
	<path fill="#60835F" d="M395,17.8c2.5-0.2,4.9,1.9,5.1,4.4c0.2,2.7-1.8,5-4.5,5.2c-2.7,0.2-5.2-1.8-5.4-4.4
		C390.1,20.2,392.5,17.8,395,17.8z"/>
	<path fill="#759062" d="M483.5,92.5c0,2.5-2.2,4.8-4.8,4.8c-2.7,0-5-2.1-5-4.8c-0.1-2.6,2.2-4.9,4.8-4.9
		C481.2,87.6,483.4,89.7,483.5,92.5z"/>
	<path fill="#93AE7B" d="M494.7,129.1c-0.1,0.4,0.1,0.5,0.4,0.7c1.5,0.5,2.4,1.4,3.1,2.8c0.8,1.7,0.1,4.5-1.4,5.6
		c-2.3,1.7-5.1,1.4-6.8-0.7c-1.1-1.3-1.3-2.8-0.9-4.5c0.3-1,0.3-1-0.7-1.1c-0.1,0-0.3-0.1-0.3-0.1c0.7-0.3,1.5-1.2,1.8-1.8
		c0.3,0.3,0.1,0.6,0.3,1c0.5-0.5,1.3-0.5,1.3-1.3c0.1-0.1,0.3-0.1,0.5-0.1c0.9,0.1,1.7,0.1,2.3-0.5C494.4,129,494.6,129,494.7,129.1
		z"/>
	<path fill="#99B37E" d="M412.2,47.7c-0.1,2.7-2.3,4.8-5.2,4.7c-2.5-0.1-4.6-2.3-4.5-5c0.1-2.9,2.1-4.8,5-4.8
		C410.1,42.6,412.3,44.9,412.2,47.7z"/>
	<path fill="#758F61" d="M453.8,72.5c-0.9,2.7-3.4,3.5-5.3,3.2c-0.7-0.1-1.3-0.4-1.9-0.7c-0.2-0.1-0.4-0.3-0.7-0.3
		c-0.1,0.3,0.1,0.5,0.2,0.7c0.2,0.8-0.3,1.6-1.1,1.7s-1.5-0.4-1.5-1.3c-0.1-0.9,0.5-1.3,1.4-1.3c0.1,0,0.2,0,0.3,0
		c0.2,0,0.4,0.1,0.5-0.1c0.1-0.2-0.1-0.3-0.2-0.5c-0.9-1.3-1.2-2.6-0.7-4.1c0.7-2.3,2.7-3.6,5.3-3.4c0.2,0.1,0.5-0.1,0.6,0.1
		c1.7,0.7,2.9,1.9,3.1,3.8C454,71.1,454,71.8,453.8,72.5z"/>
	<path fill="#789263" d="M442.6,107.9c-1.4,0.9-2.9,1.1-4.4,0.3c-1.5-0.8-2.3-2.1-2.3-3.9c0-0.2,0.1-0.5-0.1-0.7
		c-0.3-0.1-0.4,0.2-0.6,0.3c-0.8,0.5-1.8,0.6-2.5,0c-0.7-0.5-1-1.5-0.7-2.3c0.3-0.8,1.1-1.4,1.9-1.4c0.9,0,1.7,0.6,2,1.5
		c0.1,0.2,0,0.5,0.2,0.7c0.4-0.2,0.5-0.6,0.7-0.9c0.5-0.6,1.2-1.1,1.9-1.3c0.2-0.1,0.5-0.1,0.5-0.3s-0.4-0.1-0.5-0.3
		c0.5-0.4,1.1-0.4,1.7,0c-0.3,0.3-0.2,0.4,0.2,0.5c2.2,0.5,3.4,1.7,3.8,3.9c0.1,0.9-0.1,1.6-0.4,2.4
		C443.8,107.1,443.6,107.7,442.6,107.9z"/>
	<path fill="#5E815D" d="M388.8,167.2c2.7,0,4.8,2.1,4.9,4.8c0,2.7-2.1,4.8-4.8,4.8c-2.8,0-5-2-5-4.6
		C384,169.3,386,167.2,388.8,167.2z"/>
	<path fill="#738E60" d="M416.7,133.4c2.7-0.1,4.8,2.1,4.9,4.8c0.1,2.6-2.1,4.8-4.8,4.8c-2.5,0.1-4.7-2.1-4.8-4.8
		C411.9,135.7,414.1,133.5,416.7,133.4z"/>
	<path fill="#639981" d="M386.8,40.3c-2.7,0-4.7-2-4.8-4.8c0-2.4,2-4.8,4.8-4.8c2.6-0.1,4.8,2.3,4.8,5
		C391.7,37.9,389.6,40.4,386.8,40.3z"/>
	<path fill="#5D805D" d="M485.3,124c-2.4-0.3-4.1-2.1-4.3-4.6c-0.1-2.1,1.6-4.3,3.8-4.7c2.6-0.5,5,0.9,5.6,3.4
		c0.7,2.6-0.7,5-3.3,5.8c-0.1,0.1-0.3,0.1-0.4,0.1C486.3,124.4,485.9,124.1,485.3,124z"/>
	<path fill="#97B17D" d="M454.2,175c0,2.6-2.1,4.8-4.7,4.8c-2.7,0-4.8-2-4.9-4.6c-0.1-2.3,1.8-5,4.8-5
		C451.9,170.2,454.2,172.4,454.2,175z"/>
	<path fill="#728D5F" d="M433.1,170.7c-2.8,1.7-5.7,0.9-7.1-2.1c-0.1-0.3-0.2-0.6-0.6-0.4c-0.3-0.5-0.6-0.9-0.3-1.5
		c0.2,0.1,0.2,0.5,0.5,0.5c0.3-0.1,0.1-0.3,0.1-0.5c0.1-1.9,1.4-3.6,3.2-4.1c1.9-0.6,3.9-0.1,5.2,1.6c1.1,1.3,1.2,3.6,0.3,5.2
		c-0.1,0.2-0.3,0.4-0.4,0.6C433.9,170.4,433.4,170.5,433.1,170.7z"/>
	<path fill="#759061" d="M369.6,90.1c2.7,0,4.7,2.1,4.7,4.8c0,2.5-2.1,4.6-4.7,4.6c-2.5,0-4.8-2.1-4.7-4.7
		C364.8,92.1,366.9,90.1,369.6,90.1z"/>
	<path fill="#5E835E" d="M366.5,102.3c0,2.5-2.1,4.6-4.7,4.6c-2.7,0-4.7-2-4.7-4.8c0-2.5,2.1-4.6,4.7-4.6
		C364.5,97.5,366.5,99.6,366.5,102.3z"/>
	<path fill="#738F5F" d="M363.6,63.4c0.2,2.6-1.4,4.4-3.2,5c-1.7,0.6-3.4,0.3-4.8-1.1c-1.5-1.5-1.9-3.3-1.1-5.2
		c0.7-1.7,2.1-2.7,4-2.8c1.9-0.1,3.2,0.8,4.3,2.2C363.5,62.1,363.9,62.6,363.6,63.4z"/>
	<path fill="#748F61" d="M360.5,119.7c0,2.6-2.1,4.8-4.8,4.7c-2.6-0.1-4.6-2.3-4.6-4.7c0.1-2.6,2.1-4.7,4.7-4.7
		C358.4,114.9,360.5,117,360.5,119.7z"/>
	<path fill="#62845F" d="M406.6,65.8c1.5,2.1,1.3,4.7-0.7,6.4c-1.7,1.5-4.6,1.5-6.3-0.1c-1.8-1.7-2-4.4-0.4-6.4
		c1.5-1.9,4.2-2.3,6.4-0.9C406,65.1,406.3,65.4,406.6,65.8z"/>
	<path fill="#5C815E" d="M406.1,133.4c2.6,0,4.6,2,4.7,4.6c0,2.7-2,4.8-4.7,4.8c-2.5,0-4.7-2.1-4.7-4.6
		C401.3,135.5,403.3,133.4,406.1,133.4z"/>
	<path fill="#5F8360" d="M461,177.6c-2.5,0-4.6-2.1-4.6-4.7c0-2.7,2.1-4.7,4.8-4.6c2.5,0,4.6,2.1,4.6,4.7
		C465.8,175.6,463.6,177.7,461,177.6z"/>
	<path fill="#799365" d="M498.7,117.2c-2.6,0-4.6-2.1-4.6-4.8c0-2.5,2.1-4.6,4.7-4.6c2.5,0,4.7,2.1,4.6,4.6
		C503.4,115.1,501.3,117.2,498.7,117.2z"/>
	<path fill="#5F815E" d="M458.6,158.3c-2,2.6-5.4,2.8-7.5,0.5c-1.3-1.4-1.5-3.7-0.6-5.4c1.1-1.8,3.1-2.7,5.2-2.2
		c1.9,0.4,3.4,2.1,3.5,4c0.1,0.7,0.5,1.4,0.1,2.2C459.2,157.8,459,158.2,458.6,158.3z"/>
	<path fill="#54988A" d="M371.5,111.8c0.2,2.4-1.7,4.7-4.3,4.9c-2.5,0.2-4.9-1.7-5.1-4.1c-0.3-3,2.1-5,4.3-5.2
		C369.2,107.1,371.7,109.5,371.5,111.8z"/>
	<path fill="#61835E" d="M399.6,115.6c-2.6,0-4.7-2-4.7-4.6c0-2.5,2-4.6,4.6-4.6c2.6,0,4.8,1.9,4.8,4.4
		C404.3,113.6,402.4,115.6,399.6,115.6z"/>
	<path fill="#769061" d="M482.8,141.3c2.6,0,4.7,2.1,4.7,4.6c-0.1,2.5-2.2,4.7-4.8,4.7c-2.5,0-4.7-2.1-4.7-4.6
		C478,143.3,480.2,141.2,482.8,141.3z"/>
	<path fill="#618460" d="M450.5,23.4c0,2.6-2.1,4.6-4.8,4.6c-2.5,0-4.6-2.1-4.6-4.7c0-2.6,2.1-4.6,4.8-4.6
		C448.5,18.7,450.5,20.8,450.5,23.4z"/>
	<path fill="#5C7F5B" d="M435.2,184.5c-2.5,0.1-4.6-1.9-4.8-4.5c-0.1-2.4,1.9-4.7,4.4-4.8c2.6-0.1,4.9,1.9,5,4.4
		C439.9,182.3,437.7,184.6,435.2,184.5z"/>
	<path fill="#98B17C" d="M397.5,94c0.1-0.4-0.2-0.4-0.5-0.5c-1.4-0.5-2.5-1.2-3.2-2.5c-1.4-2.8,0.6-6.3,3.7-6.6
		c3.6-0.3,6.4,3.4,4.6,6.7c-0.6,1.2-1.6,1.9-2.9,2.3c-0.3,0.1-0.9-0.1-0.7,0.6C398.2,94.3,397.8,94.3,397.5,94z"/>
	<path fill="#5D815C" d="M375,86.9c-0.2,0.1-0.4,0.3-0.6,0.3c-0.8,0.9-1.7,1.1-2.6,0.5c-2.5-0.3-4.2-2.3-4.2-4.8
		c0.1-2.3,2.1-4.2,4.4-4.4c2.5-0.1,4.6,1.5,4.9,4c0.1,0.6-0.3,1.2-0.2,1.8C376.7,85.9,376.3,86.5,375,86.9z"/>
	<path fill="#60845F" d="M494.3,140.8c2.6,0,4.6,2.1,4.6,4.8c0,2.5-2.1,4.6-4.7,4.6c-2.5-0.1-4.6-2.1-4.6-4.6
		C489.6,142.9,491.7,140.8,494.3,140.8z"/>
	<path fill="#95AF7A" d="M405.5,172.4c-2.3,0.1-4.8-1.8-4.7-4.8c0.1-2.4,1.9-4.4,4.6-4.4c2.5,0,4.7,2.1,4.7,4.6
		C410.1,170.3,408,172.4,405.5,172.4z"/>
	<path fill="#748F61" d="M466.6,150c1.1,0,2.2,0.1,3.2,0.7c3.2,1.8,2.8,6.2,0.1,7.8c-0.3,0.4-0.7,0.5-1.1,0.5
		c-2.3,0.7-5-0.5-5.7-2.8c-0.9-2.4,0.4-5,2.8-5.9c0.2-0.1,0.3-0.2,0.5-0.3C466.4,149.9,466.6,149.9,466.6,150z"/>
	<path fill="#98B380" d="M361.8,51.4c-2.7,0-4.7-1.9-4.6-4.6c0-2.4,1.5-4.5,4.7-4.6c2.6-0.1,4.4,1.7,4.6,4.6
		C366.5,49.1,364.5,51.6,361.8,51.4z"/>
	<path fill="#5E825F" d="M458.5,25.3c0-2.5,2.2-4.6,4.8-4.6c2.4,0.1,4.5,2.2,4.5,4.7s-2.2,4.6-4.7,4.5
		C460.5,29.8,458.4,27.8,458.5,25.3z"/>
	<path fill="#95AF7B" d="M361.9,75.3c-0.2-0.1-0.1-0.5-0.3-0.5c-0.3,0-0.3,0.3-0.3,0.5c-0.9,2.3-2.3,3.4-4.6,3.4
		c-2.1,0-3.8-1.4-4.4-3.6c-0.5-1.7,0.5-4,2.2-4.9c2.9-1.7,6.7,0.4,6.9,3.7c0,0.2-0.3,1.1,0.5,0.7C362.2,74.8,362.2,75.1,361.9,75.3z
		"/>
	<path fill="#54988A" d="M509,90.4c-0.6,0.1-0.2,0.4-0.1,0.6c1.1,2.1,0.9,4.2-0.7,5.8c-0.6,0.6-1.3,1.1-2.2,1.1
		c-0.9,0.5-1.3,0.5-2.1,0c-3.1-0.9-4.4-4.5-2.4-7.2c1.2-1.7,3.6-2.3,5.6-1.3c0.3,0.1,0.6,0.5,1,0.2C508.6,89.7,508.9,90,509,90.4z"
		/>
	<path fill="#9CB784" d="M475.9,30.4c0.3,2.6-1.8,4.7-4.1,4.9c-2.5,0.3-4.9-1.8-5.1-4.3c-0.2-2.3,1.8-4.7,4.2-4.9
		C473.6,25.9,475.7,27.6,475.9,30.4z"/>
	<path fill="#608460" d="M380.1,33.6c0,2.5-1.9,4.6-4.4,4.6c-2.6,0.1-4.7-1.9-4.7-4.6c-0.1-2.5,2-4.6,4.7-4.6
		C378.2,29.1,380.1,31.1,380.1,33.6z"/>
	<path fill="#769061" d="M491.4,68.2c-0.8,1.6-2.1,2.5-3.9,2.5c-0.5,0.1-1.1,0.3-1.5-0.1c-2.2-0.6-3.6-2.7-3.4-4.9
		c0.3-2.3,2.1-4.1,4.4-4.2c2.1-0.1,4.2,1.5,4.6,3.5c0.2,0.7,0,1.5,0.2,2.3C492,67.7,491.6,67.9,491.4,68.2z"/>
	<path fill="#758F60" d="M379.6,59.7c0.6,2.7-0.9,4.8-2.9,5.5c-0.3,0.1-0.5,0.2-0.9,0.1c-0.5,0.1-1,0.4-1.5,0
		c-1.9-0.4-3.2-1.5-3.6-3.4s0-3.5,1.6-4.8c1.5-1.2,3.2-1.3,5-0.5c0.2,0.1,0.4,0.2,0.6,0.3c0.2,0.1,0.3,0.1,0.5,0.2
		c0.3,0.2,0.5,0.5,0.7,0.8C379.5,58.7,379.7,59.1,379.6,59.7z"/>
	<path fill="#5D805B" d="M420.8,153.3c-0.1-2.5,1.9-4.6,4.6-4.6c2.5-0.1,4.6,1.9,4.6,4.5c0.1,2.5-2,4.6-4.5,4.6
		C422.9,157.9,420.9,155.9,420.8,153.3z"/>
	<path fill="#9AB580" d="M409.6,20.2c-0.1,2.7-2.1,4.6-4.8,4.6c-2.3-0.1-4.4-2.2-4.4-4.6c0.1-2.8,2.1-4.6,4.8-4.6
		C407.7,15.8,409.7,17.9,409.6,20.2z"/>
	<path fill="#789263" d="M433.2,113.2c2.4,0,4.6,2.2,4.5,4.6c-0.1,2.5-2.1,4.6-4.6,4.6c-2.5,0-4.6-2.1-4.6-4.7
		C428.6,115.2,430.7,113.2,433.2,113.2z"/>
	<path fill="#5E815D" d="M444.2,46.6c-2.2-0.5-3.8-2.3-3.8-4.5s1.4-4,3.6-4.5c2.1-0.5,4.4,0.6,5.2,2.6c1.1,2.7-0.3,5.8-3.4,6.4
		C445.2,46.9,444.7,46.7,444.2,46.6z"/>
	<path fill="#61977F" d="M433,88.2c-0.1-2.5,1.9-4.6,4.5-4.6c2.4-0.1,4.6,1.9,4.6,4.4c0.1,2.5-1.9,4.7-4.4,4.8
		C435,92.8,433,90.8,433,88.2z"/>
	<path fill="#96B07B" d="M378.7,116.6c-2.5,0-4.6-2.1-4.6-4.5c0-2.5,2.1-4.5,4.6-4.6c2.1-0.1,4.6,1.7,4.6,4.6
		C383.4,114.6,381.3,116.6,378.7,116.6z"/>
	<path fill="#94AF7A" d="M374.4,164.8c0.3,0.3,0,0.8,0.3,1.2c0.5-0.5,0.5-1.1,0.9-1.5c1-1.4,3-2.3,4.6-2c1.9,0.4,3.4,1.9,3.8,3.7
		c0.3,1.9-0.5,3.8-2.2,4.7c-1.5,0.8-3.1,0.9-4.6,0c-1.4-0.9-2.3-2.2-2.2-4c0-0.5-0.1-0.7-0.6-0.4C374,165.8,374,165.3,374.4,164.8z"
		/>
	<path fill="#97B07B" d="M399.1,145.8c0,2.4-2.2,4.5-4.6,4.5c-2.5,0-4.6-2.1-4.6-4.4c0-2.5,2.2-4.6,4.7-4.6
		C397,141.3,399.2,143.5,399.1,145.8z"/>
	<path fill="#5D825E" d="M426.1,25.6c2.5,0,4.5,1.9,4.5,4.5c0,2.5-2,4.5-4.5,4.5c-2.5,0-4.5-2-4.5-4.6
		C421.7,27.7,423.7,25.6,426.1,25.6z"/>
	<path fill="#94AE79" d="M374,99.9c0-2.4,2.1-4.6,4.6-4.6c2.5,0.1,4.4,1.8,4.4,4.4c0.1,2.7-1.8,4.6-4.5,4.7
		C375.8,104.4,374,102.2,374,99.9z"/>
	<path fill="#A97D5C" d="M394.6,128.7c0.2-0.3,0.5-0.5,0.7-0.8c0.6-0.5,1.2-0.9,2.1-0.8c2.5,0.1,3.9,1.1,4.4,3.2
		c0.4,1.8-0.5,3.8-2.1,4.5c-1.8,0.9-3.8,0.4-5-1.1c-0.3-0.3-0.4-0.9-0.7-0.9c-0.5-0.1-0.3,0.6-0.6,0.9c-0.7,0.9-1.9,1.1-2.7,0.5
		c-0.8-0.5-1.1-1.9-0.5-2.7c0.6-0.9,1.8-1.1,2.7-0.6c0.9,0.5,0.9,0.5,1.1-0.5C393.9,129.7,393.8,129,394.6,128.7z"/>
	<path fill="#60835F" d="M463.5,114.3c2.5,0,4.5,1.9,4.5,4.5c0,2.5-2,4.4-4.6,4.4c-2.5,0-4.4-1.9-4.4-4.5
		C459,116.2,461,114.2,463.5,114.3z"/>
	<path fill="#748F62" d="M357.8,144.8c-2.3,2.3-5.8,2-7.3-0.7c-1-1.7-0.7-4.1,0.7-5.5c1.5-1.5,4-1.7,5.6-0.5
		c1.8,1.2,2.5,3.4,1.7,5.4c-0.1,0.3-0.2,0.5-0.3,0.7C358.2,144.5,358.1,144.7,357.8,144.8z"/>
	<path fill="#C2A27D" d="M459.3,113c-0.4,0.1-0.3,0.5-0.3,0.7c0,2-0.9,3.4-2.7,4.3c-0.3,0.1-0.7,0.1-0.7,0.6
		c-0.1,0.1-0.2,0.1-0.3,0.1c-0.5-0.3-1.1-0.3-1.6,0c-0.5-0.1-1-0.4-1.5-0.5c0.3-0.4,0-0.5-0.3-0.7c-1.3-1-1.9-2.3-1.7-4
		c0.2-1.7,1.1-3.1,2.8-3.7c1.7-0.6,3.4-0.4,4.8,1c0.3,0.3,0.4,0.7,0.9,0.7C458.8,111.9,459.2,112.4,459.3,113z"/>
	<path fill="#97B17C" d="M477.1,156.1c0.3,0.1,0.4-0.2,0.5-0.5c1.1-2.7,4.9-3.6,7-1.6c1.7,1.7,2.1,3.8,0.8,5.8c-2,3-6.6,2.3-7.7-0.6
		c-0.1-0.3-0.2-0.7-0.6-0.6c-0.1-0.1-0.1-0.3-0.1-0.4c0.3-0.5,0.3-1.1,0-1.7C477,156.3,477.1,156.2,477.1,156.1z"/>
	<path fill="#6F8A5D" d="M408.1,184c-2.5,0-4.4-2-4.4-4.5c0-2.4,2.1-4.4,4.6-4.3c2.4,0,4.4,2,4.4,4.4
		C412.6,182.1,410.6,184,408.1,184z"/>
	<path fill="#52998A" d="M426.3,81c0.1-2.5,2.1-4.4,4.5-4.4c2.4,0.1,4.4,2.1,4.3,4.5c-0.1,2.7-2,4.4-4.6,4.4
		C428.3,85.5,426.3,83.3,426.3,81z"/>
	<path fill="#C4A37E" d="M385.8,88.4c-2.2,0.2-4.4-1.9-4.4-4.3c0-2.4,2-4.4,4.4-4.4c2.4,0,4.5,1.9,4.5,4.4
		C390.3,86.3,388.5,88.5,385.8,88.4z"/>
	<path fill="#718C5D" d="M415.1,44.3c-2.3,0-4.4-2-4.4-4.3c0-2.5,2-4.4,4.5-4.4c2.3,0,4.3,1.9,4.3,4.4
		C419.6,42.5,417.7,44.3,415.1,44.3z"/>
	<path fill="#C3A37C" d="M387.9,72.6c-0.1,0-0.3,0-0.4,0c0.1-0.3-0.1-0.5-0.3-0.6c-0.7-0.7-0.7-1.5,0.2-2.1c0.1-0.1,0.4-0.1,0.3-0.3
		c-0.1-0.2-0.2-0.3-0.4-0.3c-1.7-0.7-2.5-2.1-2.5-4c0.1-2.9,3.4-4.9,6-3.6c2.7,1.4,3.2,4.8,0.9,6.9c-0.2,0.2-0.8,0.3-0.3,0.7
		c-0.1,0.5-0.5,0.5-1,0.5c0-0.2,0.1-0.4-0.2-0.4c-0.1,0-0.3,0.1-0.4,0.1c-0.4,0-0.9-0.1-1.1,0.1c-0.4,0.4,0.3,0.6,0.4,0.9
		c0.1,0.7-0.1,1.1-0.6,1.5C388.1,72.2,387.8,72.2,387.9,72.6z"/>
	<path fill="#97B17D" d="M429.1,90.5c-0.1,0.4,0,0.5,0.4,0.4c2.7-0.3,4.7,1.7,4.9,3.7c0.3,3.1-2.1,5-4.2,5c-2.5,0-3.8-1.5-4.3-3.4
		c-0.5-2,0.3-3.8,2.4-4.9c0.2-0.1,0.6-0.1,0.5-0.5c0-0.3-0.4-0.1-0.5-0.3C428.6,90.3,428.9,90.3,429.1,90.5z"/>
	<path fill="#748F60" d="M358.4,87.2c0,2.5-1.9,4.4-4.4,4.4c-2.4-0.1-4.3-1.9-4.2-4.5c0.1-2.5,2-4,4.2-4.2
		C356.5,82.9,358.4,84.9,358.4,87.2z"/>
	<path fill="#A77B5A" d="M437.7,133.7c0.5-0.3,0.5-0.9,0.7-1.3c1-1.7,2.4-2.4,4.3-2.1c1.7,0.2,2.9,1.1,3.4,2.7
		c0.6,1.8,0.3,3.4-1.1,4.7c-2.9,2.5-6.6,0.5-7-2.1c-0.1-0.3-0.1-0.5-0.3-0.6C437.5,134.5,437.5,134.1,437.7,133.7z"/>
	<path fill="#5E825E" d="M347.4,122.5c2.5,0.1,4.4,1.9,4.3,4.4c-0.1,2.3-2.1,4.2-4.4,4.2c-2.3,0-4.3-2.1-4.2-4.3
		C343.1,124.4,345,122.5,347.4,122.5z"/>
	<path fill="#748F61" d="M411.1,153.8c0,2.3-1.9,4.3-4.2,4.3c-3,0-4.2-2.1-4.4-4.3c-0.1-2.4,1.8-4.4,4.2-4.4
		C409.2,149.5,411.1,151.2,411.1,153.8z"/>
	<path fill="#5E927B" d="M431.2,158.2c-0.2-0.8-0.7-1.5-0.9-2.3c-0.3-2.1,1.1-4.2,3.2-4.8c2.1-0.5,4.4,0.6,5.2,2.6
		c0.7,2,0.1,3.9-1.5,5.1c-1.5,1.1-3.6,0.9-5.2-0.2C431.6,158.5,431.5,158.1,431.2,158.2L431.2,158.2z"/>
	<path fill="#98B17C" d="M374.3,65.4c0.5,0,1,0,1.5,0c-0.1,0.2-0.5,0.1-0.5,0.3c0,0.3,0.3,0.3,0.5,0.3c2.1,0.9,3.3,2.7,2.7,5.1
		c-0.4,1.8-2.3,3.3-4.3,3.2c-1.8-0.1-3.4-1.3-4-3.1c-0.1-0.3,0-0.8-0.6-0.5c-0.1-0.7-0.1-1.4,0.2-2.1c0.3,0.1,0.5-0.1,0.7-0.4
		c0.7-1.5,1.8-2.2,3.4-2.5C374.2,65.8,374.4,65.8,374.3,65.4z"/>
	<path fill="#C3A27D" d="M398.4,102.8c-0.1,2.5-1.8,4.2-4.3,4.2c-2.4,0-4.2-1.7-4.3-4.3c0-2.4,1.9-4.2,4.4-4.2
		C396.6,98.5,398.4,100.4,398.4,102.8z"/>
	<path fill="#C3A27D" d="M466.6,63.6c0.1-0.4-0.3-0.5-0.5-0.6c-2.1-1.1-3.1-3.2-2.4-5.3c0.5-1.5,1.7-2.5,3.3-2.8
		c1.8-0.3,3.3,0.3,4.4,1.9c1.8,2.7,0,6.2-3.2,6.6c-0.3,0-0.7-0.1-0.5,0.5C467.2,64,466.8,63.8,466.6,63.6z"/>
	<path fill="#738F60" d="M394.8,32.2c-0.1-2.3,1.8-4.2,4.2-4.2c2.3-0.1,4.3,1.9,4.3,4.2c0,2.2-1.9,4.2-4.2,4.2
		C396.7,36.5,394.8,34.6,394.8,32.2z"/>
	<path fill="#758F62" d="M479.8,164.4c0,2.4-1.8,4.2-4.2,4.2c-2.1,0.1-4.2-1.6-4.3-4.2c-0.1-2.3,1.9-4.2,4.2-4.2
		C478,160.3,479.8,162,479.8,164.4z"/>
	<path fill="#C2A27C" d="M450.7,66.6c-0.2,0-0.5,0.1-0.6-0.1c0.4-0.5-0.1-0.5-0.3-0.7c-1.1-0.8-1.9-1.7-2.1-3.2
		c-0.3-1.7,1.1-3.8,2.3-4.4c2.1-1,4.2-0.4,5.6,1.7c1.1,1.7,0.7,4.1-1.1,5.4c-0.9,0.7-1.8,0.9-2.9,0.9
		C451.3,66.4,450.9,66.2,450.7,66.6z"/>
	<path fill="#C4A47E" d="M410.7,104.2c-0.2-2.5,1.8-4.4,4.3-4.4c1.9,0,4.1,1.5,4.2,4.2c0,2.5-1.8,4.4-4.2,4.4
		C412.6,108.4,410.5,106.3,410.7,104.2z"/>
	<path fill="#779264" d="M474.1,107.9c2.1,0,4.3,1.5,4.4,4.2c0.1,2.3-1.9,4.3-4.4,4.2c-2.4,0-4.2-1.9-4.2-4.2
		C469.9,109.7,471.8,107.9,474.1,107.9z"/>
	<path fill="#5F835E" d="M429,54.9c-2.1-0.6-3.4-2-3.4-4.1c-0.1-1.9,1.1-3.6,2.9-4.1c2.2-0.7,4.6,0.5,5.3,2.5
		c0.8,2.1-0.3,4.6-2.4,5.4c-0.2,0.1-0.5,0.1-0.7,0.2C430.2,55.3,429.6,55.3,429,54.9z"/>
	<path fill="#789264" d="M456.2,138.6c2.3,0,4.2,1.9,4.2,4.3c0,2.3-2,4.1-4.4,4.1c-2.2,0-4.1-1.9-4.1-4.1
		C451.9,140.4,453.9,138.5,456.2,138.6z"/>
	<path fill="#628460" d="M455.1,90c-0.9,2-2.3,2.9-4.4,2.7c-1.7-0.1-3.2-1.4-3.6-3.2c-0.4-1.6,0-3,1.3-4.2c1.3-1.2,2.8-1.4,4.4-0.8
		c1.5,0.6,2.4,1.7,2.5,3.4C455.6,88.7,455.7,89.4,455.1,90z"/>
	<path fill="#60845F" d="M390.3,155.6c-0.6,0.7-1.4,1-2.2,1.3c-2,0.5-3.9-0.3-4.9-2.3c-0.8-1.6-0.3-3.8,1.1-5
		c1.5-1.2,3.8-1.3,5.3-0.1c1.6,1.3,2.1,3.4,1.2,5.2C390.7,155.1,390.5,155.3,390.3,155.6z"/>
	<path fill="#559A8D" d="M443,98.3c-0.1-2.2,1.7-4,3.8-4.2c2.9-0.2,4.6,2,4.6,4.1c0,2.3-1.8,4.2-4.2,4.3
		C445,102.6,442.9,100.8,443,98.3z"/>
	<path fill="#569B8E" d="M425.3,16.5c0-2.4,1.8-4.2,4.2-4.2c2.3,0,4.2,1.9,4.2,4.2c0,2.3-1.8,4.2-4.2,4.2
		C427.2,20.7,425.3,18.8,425.3,16.5z"/>
	<path fill="#569A8B" d="M478,102.2c-0.3,2.1-2,3.6-4.2,3.6c-2,0-3.8-1.4-4.2-3.5c-0.1-0.3,0.1-0.8-0.5-0.9c-0.1-0.1-0.1-0.3,0-0.5
		c0.2,0,0.4,0.1,0.5-0.2c0.2-0.9,0.7-1.7,1.4-2.4c0.1-0.1,0.1-0.2,0.1-0.3c0.3-0.5,0.6-0.8,1.1-0.8c0,0.4,0.2,0.3,0.5,0.3
		c2.4-0.4,4.1,0.5,5,2.7C478.2,101,478.6,101.6,478,102.2z"/>
	<path fill="#60835F" d="M349.2,72c-2.3-0.3-3.8-2.1-3.7-4.5c0.1-2.1,2-3.9,4.1-3.9c2.3,0,4.2,1.7,4.3,4c0.1,2.3-1.4,4.2-3.7,4.4
		C349.9,72.1,349.6,72.1,349.2,72z"/>
	<path fill="#597C58" d="M420,164.4c0.1,1.9-0.9,3.6-2.6,4.3c-1.8,0.7-3.9,0.1-5-1.4c-1.1-1.5-1.1-3.6,0.1-5c1.2-1.5,3.2-2.1,5-1.3
		c0.3,0.1,0.5,0.3,0.7,0.4c0.4,0.3,0.7,0.7,1.2,1c0.5,0.3,0.6,0.8,0.5,1.3C420,164,419.8,164.2,420,164.4z"/>
	<path fill="#C2A17C" d="M423.1,79c-2.2,0.3-4.2-2-4.2-4.2c0-2.2,2-4.3,4.3-4.2c2.4,0.1,4.1,1.7,4.2,4.2
		C427.5,77.4,425.3,79.3,423.1,79z"/>
	<path fill="#C3A37D" d="M416.5,90.8c-2.4,0-4.3-1.8-4.2-4.2c0.1-2.5,1.9-4.2,4.3-4.2c2.5,0,4.2,2.1,4.1,4.3
		C420.7,89.1,418.9,90.8,416.5,90.8z"/>
	<path fill="#C3A37D" d="M474.5,73.8c0.1,2.6-2.2,4.2-4.2,4.2c-2.1,0.1-4.4-2-4.3-4.1c0.1-2.7,1.8-4.2,4.4-4.2
		C472.9,69.8,474.4,71.5,474.5,73.8z"/>
	<path fill="#95B07C" d="M444.8,156.1c2.3,0,4.2,1.9,4.2,4.2c-0.1,2.2-1.6,4.1-4.2,4.2c-2.2,0.1-4.2-1.9-4.2-4.2
		C440.6,157.9,442.5,156.1,444.8,156.1z"/>
	<path fill="#A68367" d="M421.6,90.3c1.8,0,3.4,1.3,3.6,3.2c0.2,1.7-1,3.4-2.8,3.9c-0.2,0.1-0.5-0.1-0.5,0.2
		c-0.1,0.3,0.2,0.3,0.4,0.5c0.7,0.7,1,1.6,0.7,2.5c-0.4,0.9-1.3,1.4-2.3,1.3c-0.9-0.1-1.6-0.7-1.7-1.5c-0.2-1.1,0.2-1.9,1.1-2.4
		c0.2-0.1,0.5,0,0.5-0.3c0-0.3-0.3-0.3-0.5-0.4c-2.8-1.4-2.3-5-0.3-6.2C420.3,90.5,421,90.3,421.6,90.3z"/>
	<path fill="#96B07C" d="M499.1,120.7c0-2.3,1.9-4.3,4.2-4.2c2.5,0.1,4.1,1.9,4.2,4.2c0.1,2.1-2,4.1-4.1,4.1
		C501,124.9,499.1,123,499.1,120.7z"/>
	<path fill="#748E61" d="M457.2,165.7c0,2.3-1.9,4.1-4.2,4.1s-4-1.8-4-4.3c0-2.2,1.9-4,4.1-4C455.4,161.6,457.2,163.4,457.2,165.7z"
		/>
	<path fill="#C1A07B" d="M374.8,136.5c-0.1-2.3,1.9-4.1,4-4.2c2.3-0.1,4.2,1.9,4.2,4c0,2.5-1.7,4.3-4.3,4.3
		C376.6,140.7,374.9,138.8,374.8,136.5z"/>
	<path fill="#7D9667" d="M500.1,127.9c-1.6,0.6-2.4,0.5-3-0.3c-0.6-0.7-0.6-1.6-0.1-2.3c0.5-0.7,1.4-1,2.1-0.8
		c1.5,0.5,1.6,1.7,1.3,3.3c1.1-0.7,2-1.3,3.2-1.1c1.2,0.1,2,0.7,2.7,1.7c0.9,1.3,0.7,3.2-0.5,4.4c-1,1.1-2.9,1.3-4.3,0.6
		C499.7,132.4,499.3,131.1,500.1,127.9z"/>
	<path fill="#779162" d="M505.2,75.6c-2.3,0-4.1-1.7-4.2-4c0-2.2,1.8-4.2,4-4.2c2.5,0,4.2,1.7,4.3,4.2
		C509.4,73.8,507.6,75.5,505.2,75.6z"/>
	<path fill="#95AF7A" d="M438.6,141.1c0.1,2.2-1.7,4.2-3.8,4.2c-2.8,0-4.4-1.8-4.4-4c0-2.3,1.6-4,4-4.2
		C436.6,136.9,438.5,138.8,438.6,141.1z"/>
	<path fill="#60835E" d="M390.5,59.2c-1.7,1.7-3.4,2-5.2,1.1c-1.7-0.8-2.5-2.7-2.1-4.5c0.5-2.1,2.1-3.2,4.2-3.2
		c1.8,0.1,3.4,1.4,3.8,3.2C391.8,57,391.5,58.4,390.5,59.2z"/>
	<path fill="#95AF7C" d="M480.4,125.2c0.1,0.6,0.6,0.3,0.9,0.3c1.5,0,2.9,0.5,3.8,1.8c1.3,1.8,0.7,4.5-1.2,5.6
		c-2.1,1.3-4.8,0.6-5.8-1.5c-0.9-1.9-0.7-3.4,0.8-4.9c0.3-0.3,0.7-0.5,0.5-1.1C479.6,125.2,480,125.1,480.4,125.2z"/>
	<path fill="#AB805F" d="M413.9,56.7c2.3,0,4.2,1.9,4.1,4.2c-0.1,2.1-1.9,4-4,4c-2.3,0-4.2-1.7-4.2-4.1
		C409.8,58.5,411.7,56.7,413.9,56.7z"/>
	<path fill="#54998C" d="M361.3,155.9c0-2.2,1.9-4.2,4.2-4.1c2.1,0.1,4,1.9,4,4.1c0,2.3-1.8,4.1-4,4.1
		C363.1,160,361.3,158.2,361.3,155.9z"/>
	<path fill="#5F835F" d="M340.5,106.6c-1.5-0.3-2.7-1.1-3.2-2.7c-0.7-2.1,0.3-4.4,2.4-5.2c2.1-0.8,4.4,0.2,5.2,2.3s-0.2,4.4-2.3,5.2
		C342,106.8,341.3,107,340.5,106.6z"/>
	<path fill="#5E815E" d="M428.9,135.3c-2.2,0-4-1.8-4.1-4.1c0-2.2,1.8-4,4-4c2.3,0,4.1,1.7,4.1,4
		C433.1,133.5,431.2,135.3,428.9,135.3z"/>
	<path fill="#5E835D" d="M351.7,80.8c-0.5,1.7-1.7,2.7-3.4,2.9c-1.7,0.2-3.1-0.5-4-2c-0.9-1.4-0.7-3.2,0.3-4.6
		c1-1.3,2.6-1.9,4.3-1.4c1.7,0.4,2.7,1.7,2.9,3.6C352.1,79.9,352.2,80.4,351.7,80.8z"/>
	<path fill="#759062" d="M349.2,102.2c2.2,0,4.1,1.9,4.1,4c0,2.3-1.8,4.2-4.2,4.1c-2.2-0.1-4-1.8-4-4
		C345.1,104.1,347,102.2,349.2,102.2z"/>
	<path fill="#61845F" d="M494.9,101.6c0,2.2-1.8,4-4,4c-2.3,0-4.1-1.8-4.1-4.1c0-2.2,1.8-4,4.1-4C493.2,97.5,494.9,99.3,494.9,101.6
		z"/>
	<path fill="#60845F" d="M374.5,54c-1.5,2.1-4.2,2.4-6.1,0.8c-1.7-1.5-1.7-4.2-0.1-5.8c1.1-1.1,2.4-1.4,3.9-1
		c1.5,0.4,2.5,1.4,2.8,2.9c0.2,0.5-0.1,1.1,0.1,1.6l0,0C375.5,53.2,375.1,53.6,374.5,54z"/>
	<path fill="#94AE7A" d="M413.4,124.2c-0.2-1.9,1.7-4,3.8-4.1c2.1-0.1,4,1.7,4.2,3.7c0.1,2.6-1.4,4.1-3.6,4.4
		C415.6,128.4,413.3,126.7,413.4,124.2z"/>
	<path fill="#97B27C" d="M383.7,48.4c0,2.1-1.7,3.9-4,3.9c-2.2,0-4-1.6-4-3.8c-0.1-2.2,1.9-4.2,4-4.2
		C381.7,44.3,383.8,45.9,383.7,48.4z"/>
	<path fill="#799264" d="M480.9,105.9c0.1,0.1,0.1,0.3,0.1,0.5c0.1,0.2-0.1,0.5,0.2,0.6c0.3,0.1,0.3-0.2,0.5-0.3
		c1.4-1.3,3.3-1.5,4.8-0.5c1.3,0.9,1.9,2.7,1.1,4.3c-0.7,1.7-2.5,2.5-4.3,2c-0.8-0.2-0.8,0-0.7,0.7c0.1,1-0.5,1.7-1.5,1.7
		c-0.9,0.1-1.6-0.5-1.7-1.4c-0.1-0.9,0.5-1.7,1.4-1.8c0.8-0.1,0.8-0.3,0.4-0.9c-0.5-0.7-0.4-1.5-0.4-2.3c0-0.2,0.2-0.6-0.3-0.5
		C480.6,107.2,480.5,106.5,480.9,105.9z"/>
	<path fill="#56998B" d="M467.3,126.8c0.9,0.5,1.8,0.8,2.3,1.7c0.8,1.2,0.9,2.5,0.5,3.8c0,0.7-0.3,1.1-0.9,1.4
		c-1.1,0.8-2.2,1.2-3.6,0.9c-0.3,0-0.7,0.2-0.9-0.3c-1.5-0.8-2.3-2-2.2-3.7c0.1-1.8,1.1-3.1,2.8-3.7c0.3-0.1,0.7-0.1,1-0.1
		C466.6,126.6,467,126.5,467.3,126.8z"/>
	<path fill="#559A8C" d="M487,43.2c-0.6,0.5-0.9,1.2-1.6,1.6c-1.9,1.1-4,0.8-5.3-0.8c-1.3-1.5-1.2-3.6,0.2-5.2
		c0.4-0.4,0.3-0.6-0.2-0.7c0-0.1,0.1-0.1,0.1-0.1c0.9-0.1,1.7-0.3,2.5-0.7c0.1,0.5,0.5,0.3,0.7,0.4c2.6,0.5,3.9,2.1,3.6,4.7
		c0,0.1,0.1,0.2,0.1,0.3C487.5,42.9,487.4,43.1,487,43.2z"/>
	<path fill="#9BB482" d="M455.5,30.6c-0.1,0.5,0.3,0.4,0.5,0.5c1.7,0.4,2.9,1.5,3.4,3.2c0.5,2.1-1.2,4.4-3.4,4.5
		c-1.1,0.1-2.1-0.1-2.9-0.8c-0.3-0.2-0.5-0.3-0.6,0.1c-0.5-0.1-0.5-0.5-0.5-0.9c0.1-0.9-0.1-1.6-0.7-2.3c-0.2-0.7-0.2-1.3,0.2-1.9
		c0.1,0.5,0.3,0.7,0.7,0.1c0.4-0.7,0.8-1.2,1.5-1.5c0.4-0.2,0.3-0.4,0-0.6C454.2,30.6,454.8,30.5,455.5,30.6z"/>
	<path fill="#5F845F" d="M431.8,109.1c-1.2,1.2-2.6,1.9-4.4,1.3c-2-0.6-3-2.3-2.7-4.4c0.3-1.7,1.9-3.2,3.8-3.3
		c1.9-0.1,3.6,1.3,4,3.2c0.1,0.6,0.1,1.2,0.2,1.8C432.7,108.3,432.4,108.9,431.8,109.1z"/>
	<path fill="#95AF7B" d="M473,80.8c0.7-1.1,1.7-2,2.7-2.8V78c0.4-0.3,0.9-0.4,1.3-0.3c-0.1,0.7,0.5,0.5,0.8,0.5
		c1.7,0.4,2.6,1.4,3,2.9c0.4,1.5-0.2,2.8-1.3,3.8c-1.3,1.1-2.7,1.2-4.3,0.5c-1-0.5-1.6-1.2-1.9-2.2c-0.1-0.3-0.1-0.6-0.5-0.7
		C472.7,82,472.7,81.4,473,80.8z"/>
	<path fill="#96B07D" d="M487.8,88.6c0.2,0.6,0.7,0.3,1,0.3c1.7,0.1,2.9,0.8,3.5,2.4c0.5,1.3,0.2,2.8-0.9,3.9
		c-1.1,1-2.3,1.2-3.7,0.7c-0.1-0.1-0.3-0.1-0.3-0.1c-0.2-0.1-0.4-0.3-0.6-0.1s-0.1,0.4,0,0.6c0.1,0.7-0.1,1.2-0.6,1.6
		c-0.4,0.3-0.9,0.4-1.4,0.1c-0.6-0.3-0.9-0.8-0.9-1.5c0.1-0.7,0.7-1.3,1.4-1.3c0.2,0,0.4,0,0.5,0c0.5,0.1,0.5-0.1,0.3-0.5
		c-0.3-0.6-0.7-1.2-0.7-2c-0.1-1.2,0.5-2.1,1.2-2.9c0.1-0.1,0.7-0.3,0.3-0.7C486.9,88.5,487.3,88.4,487.8,88.6z"/>
	<path fill="#789061" d="M410.4,80.6c-2.3-0.7-3.4-1.9-3.4-3.8c-0.1-1.6,0.9-3,2.3-3.7c1.5-0.6,3.2-0.3,4.3,0.8
		c1.1,1.1,1.5,2.7,1,4.2c-0.6,1.6-2.1,2.5-3.9,2.5C410.6,80.8,410.5,80.8,410.4,80.6z"/>
	<path fill="#62987F" d="M351.9,56.8c-1.6-2.3-1-5,1.3-6.1c1.4-0.7,3.2-0.4,4.4,0.6c1.2,1.1,1.6,2.8,0.9,4.5
		c-0.5,1.4-1.9,2.3-3.6,2.3c-0.2,0-0.4,0-0.7-0.1c-0.2-0.1-0.4-0.1-0.6-0.1C352.7,58.1,352.2,57.8,351.9,56.8z"/>
	<path fill="#A78468" d="M386.7,138.4c0-1.4,0.9-2.7,2.3-3.1c1.5-0.4,2.9,0.1,3.8,1.4c0.5,0.7,0.5,0.7,0.9,0
		c0.6-1.1,2.1-1.6,3.2-0.9c1.1,0.7,1.4,2.1,0.7,3.2c-0.7,1.1-2.2,1.3-3.3,0.5c-0.1-0.1-0.3-0.3-0.4-0.4c-0.1-0.1-0.2-0.5-0.5-0.4
		c-0.3,0.1-0.2,0.4-0.3,0.6c-0.5,1.5-2,2.5-3.6,2.3C387.9,141.2,386.7,139.9,386.7,138.4z"/>
	<path fill="#C2A27C" d="M458.2,101.1c-0.5,0-0.9,0-1.3,0c0.1-0.4-0.1-0.4-0.4-0.5c-1.5-0.4-2.7-1.2-3.2-2.7c-0.4-1.7-0.1-3,1.4-4.3
		c1.3-1,3-1,4.4-0.1c1.3,0.9,2,2.5,1.7,4c-0.3,1.5-1.2,2.5-2.6,2.9C457.5,100.7,457.9,100.8,458.2,101.1z"/>
	<path fill="#98B27E" d="M498.3,59.7c-0.4,0.4,0.1,0.5,0.3,0.6c1.1,0.7,1.9,1.5,2.1,2.9c0.4,3.1-2.3,5-4.6,4.4
		c-3.2-0.8-3.8-4.4-2-6.4c0.5-0.5,1.1-0.9,1.7-1.1c0.3-0.1,0.7-0.1,0.5-0.6C497,59.4,497.7,59.4,498.3,59.7z"/>
	<path fill="#94AF7A" d="M420.7,145.3c0.6-0.1,0.3-0.5,0.2-0.7c-0.3-1.5,0.1-2.7,1.2-3.8c1.2-1.1,2.6-1.3,4.1-0.7
		c1.5,0.6,2.3,1.8,2.3,3.4c0.1,1.5-0.7,2.8-2,3.6c-1.5,0.8-3,0.7-4.4-0.5c-0.2-0.1-0.4-0.9-0.8-0.1
		C420.8,146.3,420.6,145.9,420.7,145.3z"/>
	<path fill="#5D805C" d="M415.5,52.7c-2.9-1.8-2.2-5.7,0.5-6.9c1.9-0.9,4.3,0.1,5.2,2.1c0.8,2-0.3,4.4-2.3,5
		c-0.3,0.1-0.5,0.1-0.8,0.2c-0.2,0.1-0.4,0.1-0.6,0.1C416.5,53.6,416.1,53.5,415.5,52.7z"/>
	<path fill="#C3A27E" d="M368.4,128.4c-2.1,0.2-3.9-2.1-3.9-3.9c0.1-2.1,1.9-3.9,4.1-3.8c2.3,0.1,3.8,1.9,3.8,3.8
		C372.4,126.9,370.4,128.6,368.4,128.4z"/>
	<path fill="#62977F" d="M471.9,125.9c-1.7-0.3-3.1-1.8-3.2-3.6c-0.1-1.8,1.2-3.5,2.9-3.8c2.1-0.5,3.9,0.4,4.6,2.3
		c0.7,1.8,0.1,3.7-1.7,4.8c-0.6,0.7-1.3,0.9-2.1,0.5C472.1,125.9,472,126,471.9,125.9z"/>
	<path fill="#638560" d="M394.4,84.5c-2.1-0.1-3.8-1.8-3.8-3.9c0.1-2.1,1.9-3.8,4-3.8c2.1,0.1,3.9,1.9,3.8,3.9
		C398.3,82.9,396.6,84.6,394.4,84.5z"/>
	<path fill="#97B17C" d="M493.8,77.3c0.1,1.7-1.4,3.9-4,3.8c-2.1-0.1-3.9-2-3.8-4c0.1-2.1,1.8-3.8,4.2-3.7
		C492.2,73.4,493.8,75.1,493.8,77.3z"/>
	<path fill="#9DB783" d="M385.6,29.7c-1.8,0.2-3.8-1.9-3.8-3.7c0-2.2,1.7-4.1,3.9-4.1c2.3,0.1,3.8,1.8,3.9,3.7
		C389.5,28,387.9,29.6,385.6,29.7z"/>
	<path fill="#629780" d="M510.9,80c0,2.1-1.7,3.9-3.8,3.9c-2.3,0-4-1.7-3.9-4c0-2,1.8-3.7,3.9-3.7C509.3,76.2,510.9,77.9,510.9,80z"
		/>
	<path fill="#9BB581" d="M406.2,28.2c-0.1,0.5,0.1,0.8,0.7,0.6c0.5-0.2,1.1-0.1,1.6-0.1c0.3,0,0.5-0.1,0.5-0.5
		c0.6,0.3,1.2,0.3,1.8,0.7c-0.6,0.3-0.3,0.6,0,0.9c1.5,1.7,1.4,4.1-0.3,5.6c-1.1,1-2.5,1.1-3.8,0.6c-1.3-0.5-2.1-1.5-2.3-2.9
		c-0.1-0.8-0.1-1.6,0.3-2.3s0.3-0.9-0.5-0.9c-0.1,0-0.1-0.1-0.2-0.1C404.9,29.5,405.8,29.1,406.2,28.2z"/>
	<path fill="#5F825E" d="M356.7,96.1c0.3,1.9-1.2,4-3.2,4.2c-2.3,0.3-4.2-1.2-4.4-3.5c-0.2-2.1,1.4-4,3.5-4.2
		c1.3-0.1,2.3,0.3,3.2,1.2C356.5,94.5,356.6,95.3,356.7,96.1z"/>
	<path fill="#98B27D" d="M492.4,47.9c-0.1,0.3,0.1,0.6,0.3,0.9c1.4,2.3,0,5.8-3.3,5.8c-2.4,0-4-1.9-3.8-4.2c0.3-2.5,2.7-4,5.2-3.1
		c0.3,0.1,0.6,0.3,0.7-0.2C492.1,47.2,492.4,47.4,492.4,47.9z"/>
	<path fill="#52988A" d="M360.4,83.4c0.1,0.1,0.1,0.2,0.1,0.3c0.7-0.4,1.5-0.4,2.1-0.9c0.5-0.3,0.9,0.1,1.4,0.1
		c0.1,0.3,0.4,0.4,0.7,0.5c1.5,0.7,2.3,2.5,1.9,4c-0.3,1.6-1.7,2.9-3.3,3c-1.9,0.1-3.4-0.8-4-2.5c-0.5-1.4-0.1-2.5,0.7-3.7
		c0.1-0.2,0.6-0.3,0.2-0.7C360.2,83.5,360.3,83.4,360.4,83.4z"/>
	<path fill="#738E5E" d="M420.7,17.6c2-0.1,3.8,2,3.7,3.8c-0.1,2.1-1.7,3.7-3.8,3.7c-2,0-3.8-1.7-3.8-3.8
		C416.8,19.1,418.5,17.5,420.7,17.6z"/>
	<path fill="#5E805C" d="M438.7,148.1c0-2,1.7-3.7,3.7-3.7c2.1,0,3.9,1.7,3.9,3.8c0,2.1-1.7,3.8-3.9,3.8
		C440.3,152,438.7,150.3,438.7,148.1z"/>
	<path fill="#539889" d="M368.8,39.5c0.1,0.7,0.3,0.4,0.6,0.1c1.9-1.4,4-1.7,5.7,0.3c0.9,1.1,1.1,2.7,0.3,4c-0.7,1.2-2.3,2.1-3.6,2
		c-1.6-0.1-2.9-1.2-3.4-2.6c-0.1-0.5-0.3-1-0.2-1.5c0-0.2,0.1-0.5-0.3-0.5C368.3,40.8,368.3,40,368.8,39.5z"/>
	<path fill="#5E835F" d="M498.3,59.7c-0.7-0.1-1.3,0.1-1.9-0.2c-2.4-1-3-4-1.5-5.9c1.1-1.3,3.2-1.8,4.7-1c1.6,0.9,2.4,2.9,1.8,4.6
		c-0.1,0.1-0.1,0.3-0.1,0.3c-0.1,0.9-0.3,1.2-1.5,1.6C499.2,59.5,498.8,59.8,498.3,59.7z"/>
	<path fill="#98B280" d="M439.5,27.1c1.9,0,3.7,1.5,3.8,3.9c0.1,2-1.9,3.8-4,3.7c-1.9-0.1-3.6-1.9-3.6-3.9
		C435.7,28.7,437.4,27,439.5,27.1z"/>
	<path fill="#99B17D" d="M458.4,67.1c0.1,0.1,0.1,0.3,0.1,0.4c0.1,0.6,0.3,0.5,0.6,0.2c0.6-0.7,1.3-1.1,2.1-1.3
		c1.5-0.3,3.2,0.4,4,1.9c0.8,1.3,0.5,2.9-0.5,4.2c-1.3,1.4-2.8,1.5-4,1.1c-1.6-0.5-2.5-2-2.6-3.7c0-0.3,0.3-0.7-0.3-0.8
		C458,68.4,458,67.7,458.4,67.1z"/>
	<path fill="#54998B" d="M466.6,150c-0.1,0-0.1,0-0.3,0c-0.5-0.3-1.1-0.1-1.6-0.3c-1.5-0.4-2.6-1.5-2.8-2.9
		c-0.3-1.5,0.4-2.9,1.7-3.8c1.3-0.9,3-0.8,4.2,0.1c2.3,1.7,2.1,4.8-0.4,6.3C467.1,149.6,466.7,149.6,466.6,150z"/>
	<path fill="#A97E5D" d="M379.7,91.6c0.5-1,0.9-2,2-2.5c1.3-0.7,2.7-0.7,3.9,0.2c1.3,0.9,1.9,2.1,1.5,3.7c-0.3,1.5-1.2,2.6-2.8,2.9
		c-2,0.5-3.6-0.4-4.4-2.3c-0.1-0.2-0.1-0.3-0.3-0.5C379.3,92.6,379.3,92.1,379.7,91.6z"/>
	<path fill="#758F61" d="M461.7,49.1c-1.3,1-2.7,1.2-4.2,0.5c-1.3-0.7-2-1.9-2-3.4c0-1.5,0.8-2.6,2.2-3.3c1.3-0.7,3-0.3,4.2,0.8
		c1.1,1,1.3,2.7,0.8,4.1c-0.1,0.3-0.3,0.5-0.4,0.8C462.2,48.8,462.1,49,461.7,49.1z"/>
	<path fill="#748F61" d="M397.8,178.7c-2.1,0-3.9-1.7-3.9-3.7c0-2,1.7-3.7,3.7-3.7c2.1,0,3.8,1.7,3.8,3.6
		C401.5,177,399.9,178.7,397.8,178.7z"/>
	<path fill="#597D5A" d="M420.7,145.3c0.2,0.3,0.4,0.7,0.7,1.1c0.5,1.9-0.1,3.6-1.7,4.5c-1.5,0.9-3.4,0.5-4.6-0.7
		c-1.1-1.1-1.3-2.9-0.5-4.2c0.8-1.4,2.3-2.1,4-1.9C419.4,144.3,420.1,144.7,420.7,145.3z"/>
	<path fill="#5D805C" d="M487.8,88.6c-0.3,0.1-0.7,0.2-1,0.5c-0.1,0-0.1,0-0.1,0c-0.6,0.1-1.2,0.1-1.8,0c-1.7-0.5-2.8-1.7-2.9-3.4
		c-0.1-1.7,0.9-3.1,2.5-3.8c2.1-0.8,4.7,0.9,4.8,3.2c0,0.3,0,0.7,0,0.9c0.2,0.6,0,1-0.5,1.3C488.6,87.9,488.2,88.2,487.8,88.6z"/>
	<path fill="#60835F" d="M424.9,117.9c-1.3,2.5-4.8,2.9-6.4,0.4c-0.9-1.3-0.8-3.1,0.1-4.2c1-1.3,2.7-1.8,4.2-1.3
		c1.5,0.5,2.5,1.9,2.5,3.5c0,0.2,0,0.4,0,0.7C425.1,117.2,425.3,117.6,424.9,117.9z"/>
	<path fill="#5C805D" d="M396,37.3c1.9,0,3.8,1.7,3.8,3.5c0,2.2-1.6,3.8-3.8,3.8c-2.1,0-3.8-1.7-3.8-3.8
		C392.2,38.9,393.9,37.4,396,37.3z"/>
	<path fill="#559A8C" d="M420.6,179.1c-2,0-3.7-1.6-3.7-3.6c0-2.1,1.7-3.8,3.8-3.8c1.9,0,3.6,1.7,3.6,3.7
		C424.4,177.8,422.3,179.3,420.6,179.1z"/>
	<path fill="#A7856A" d="M455,122.8c0.1,0.7,0.5,1.3,0.5,2.1c0,0.9-0.2,1.8-0.9,2.5c-0.2,0.5-0.5,0.9-1.1,0.9c-2.1,0.9-4,0.3-5-1.7
		c-0.7-1.3-0.5-2.9,0.5-4.1c1-1.2,2.3-1.3,3.8-1.1c0.3,0.1,0.6,0.1,0.9,0.3C454.4,121.9,454.7,122.3,455,122.8z"/>
	<path fill="#53988A" d="M443.4,49.9c0,2.1-1.5,3.7-3.6,3.7s-3.7-1.6-3.7-3.6c0-2.1,1.7-3.8,3.7-3.8
		C441.8,46.3,443.4,47.9,443.4,49.9z"/>
	<path fill="#5E937C" d="M353.7,110.8c0-2,1.7-3.6,3.7-3.6c2,0,3.7,1.7,3.6,3.7c0,2-1.6,3.6-3.6,3.6
		C355.3,114.5,353.7,113,353.7,110.8z"/>
	<path fill="#789061" d="M406.7,80.8c0,2-1.5,3.6-3.6,3.6s-3.6-1.5-3.7-3.6c0-2.1,1.6-3.8,3.7-3.8C405.1,77.1,406.7,78.8,406.7,80.8
		z"/>
	<path fill="#93AD79" d="M415.7,152c2.2,0,3.6,1.5,3.7,3.6c0,2.3-1.5,3.6-3.7,3.7c-1.9,0.1-3.6-1.7-3.6-3.7
		C412,153.7,413.7,152,415.7,152z"/>
	<path fill="#AA7F60" d="M443.7,114c0.3,0.3,0.5,0.1,0.7-0.1c1.7-0.9,3.6-0.5,4.7,0.9c1.1,1.4,1,3.3-0.2,4.7c-1.3,1.6-4,1.5-5.4-0.1
		c-0.2-0.3-0.3-0.7-0.8-0.5c-0.2-0.5-0.2-1.1-0.4-1.6c0.2-0.7,0.5-1.3,0.3-2C442.8,114.7,443.2,114.3,443.7,114z"/>
	<path fill="#AA805F" d="M480,56c0.1,0.3,0.5,0.3,0.7,0.4c1.5,0.6,2.4,2.1,2.2,3.9c-0.1,1.5-1.4,2.7-3.1,3c-1.5,0.3-3.2-0.6-3.8-1.9
		c-0.7-1.5-0.3-3.3,1-4.4c0.3-0.2,0.6-0.4,0.9-0.6C478.6,56.1,479.4,56.2,480,56z"/>
	<path fill="#618260" d="M494.7,129.1c-0.9,0.9-2.1,0.9-3.2,0.6c-2.6-0.9-3.2-3.8-1.7-5.8c1.3-1.7,3.8-1.8,5.3-0.3
		C496.7,125.2,496.5,127.6,494.7,129.1z"/>
	<path fill="#60835F" d="M416.3,32.2c-2,0-3.6-1.6-3.6-3.7c0-1.9,1.7-3.6,3.6-3.6c2,0,3.6,1.6,3.6,3.6
		C420,30.6,418.4,32.2,416.3,32.2z"/>
	<path fill="#608460" d="M369.9,68.7c0.1,0.7,0.1,1.4-0.2,2.1c-0.3,0.9-0.9,1.5-1.7,1.9c-0.8,0.7-1.1,0.8-1.9,0.3
		c-2-0.3-3.2-1.7-3.2-3.7c0-1.7,1.3-3.2,2.9-3.4C367.6,65.7,369.3,66.8,369.9,68.7z"/>
	<path fill="#AB7E5C" d="M407.3,93.2c0.1-1.9,1.7-3.6,3.5-3.6c2.1,0.1,3.6,1.6,3.6,3.8c-0.1,1.9-1.7,3.5-3.6,3.4
		C408.8,96.8,407.3,95.3,407.3,93.2z"/>
	<path fill="#758F60" d="M451.5,33c0,0.7,0,1.3-0.2,1.9c-1.2,1.8-2.7,2.5-4.4,2.1c-1.7-0.5-2.7-2.1-2.6-3.8c0.1-1.6,1.5-3,3.1-3.2
		c1.8-0.2,3.4,0.8,3.9,2.5C451.3,32.6,451.4,32.8,451.5,33z"/>
	<path fill="#AB7F5E" d="M390.5,59.2c0.7-1,1.1-2.1,0.7-3.3c0.1,0.1,0.2,0.1,0.2,0.1c0.7-0.5,1.4-0.7,1.9-1.4c0.7,0.1,1.4,0.3,2.1,0
		c0,0.3,0.2,0.4,0.5,0.5c1.5,0.8,2.3,2.3,2,3.9c-0.2,1.3-1.5,2.6-2.8,2.8c-1.7,0.3-3.2-0.5-4-1.9C390.9,59.6,390.8,59.3,390.5,59.2z
		"/>
	<path fill="#539789" d="M411.5,149.2c-1.5,0.4-2.9,0.4-4-0.7c-1.5-1.5-1.5-3.7,0.1-5.2c1.4-1.3,3.8-1.3,5,0.2
		c1.4,1.5,1.2,3.8-0.3,5.2c-0.1,0.1-0.1,0.1-0.3,0.2C411.9,149.1,411.7,149.2,411.5,149.2z"/>
	<path fill="#628561" d="M484.4,73.1c-0.1,1.1-1.1,1.8-1.8,2.5c0.2,0.3,0.5,0.2,0.7,0.2c1.1,0.1,2,0.9,2.1,1.9
		c0.1,1.1-0.4,2.1-1.5,2.5c-0.9,0.3-2.1,0-2.6-0.9c-0.7-0.9-0.5-2,0.2-2.9c0.2-0.2,0.7-0.5,0-0.7c0.5-0.4,0.7-1.1,1.5-1.3
		c0.4-0.1,0.4-0.2,0.1-0.8c-0.3-0.1-0.3,0.2-0.4,0.3c-0.1,0.1-0.3,0.2-0.4,0.1c-0.5-0.7-1.3-0.9-1.5-1.8c-0.1-0.5,0.1-0.9,0.5-1
		c0.4-0.1,0.8-0.2,0.9,0.5c0,0.3,0.2,0.3,0.5,0.3c0.3-0.1,0.6-0.1,0.6-0.5c0-0.5-0.1-0.9-0.3-1.5c-0.2,0.2-0.2,0.5-0.4,0.7
		c-0.1,0.1-0.4,0.3-0.5,0.3c-0.5-0.7-1.3,0.5-1.8-0.3c-0.2-0.3-0.4-0.5-0.8-0.7c-0.1,0.9,0.2,1.6,0.6,2.3c0.2,0.4,0.4,0.7-0.1,1.1
		c-0.5,0.3-0.9,0.2-1.3-0.3c-0.1-0.2-0.3-0.4-0.1-0.7c0.1-0.2,0.4-0.3,0.1-0.6c-0.1-0.1-0.3-0.1-0.5-0.1c-0.3,0.1-0.5,0.3-0.5,0.7
		c0.1,0.4,0.2,0.8,0.5,1.1c0.5,0.5,0.5,1.1,0.3,1.7c-1.4-1-1.9-2.6-1.3-4.2c0.5-1.6,2.1-2.6,3.8-2.5c1.7,0.1,3.1,1.3,3.5,3
		C484.6,72,484.6,72.5,484.4,73.1z"/>
	<path fill="#95B07B" d="M423.6,39c-0.1,0.5,0.3,0.5,0.5,0.5c2.5,0.4,3.9,2.9,2.6,5.2c-0.6,1.1-2.2,1.9-3.4,1.7
		c-1.5-0.2-2.9-1.4-3.2-2.9c-0.3-1.3,0.5-2.8,1.6-3.5c0.2-0.1,0.3-0.2,0.5-0.3c0.5-0.3,0.3-0.4-0.1-0.6
		C422.7,38.9,423.1,38.7,423.6,39z"/>
	<path fill="#628561" d="M455.5,30.6c-0.6,0.2-1.2,0.3-1.8,0.3c-1.6-0.1-3-1.4-3.2-2.9c-0.2-1.7,0.9-3.4,2.5-3.8
		c1.6-0.5,3.4,0.3,4.2,1.7c0.8,1.5,0.3,3.4-1,4.4C455.9,30.4,455.7,30.5,455.5,30.6z"/>
	<path fill="#5D815E" d="M431.8,69c2,0,3.5,1.5,3.5,3.5c0,1.9-1.6,3.4-3.4,3.4c-1.9,0-3.6-1.5-3.6-3.4C428.3,70.6,429.9,69,431.8,69
		z"/>
	<path fill="#AA7F5E" d="M442.9,72.5c0,1.9-1.6,3.5-3.4,3.6c-1.9,0-3.6-1.6-3.6-3.6c0-1.8,1.6-3.4,3.4-3.5
		C441.3,69,442.9,70.6,442.9,72.5z"/>
	<path fill="#97B17D" d="M478,102.2c0.3-0.7-0.1-1.2-0.1-1.8c0.4,0.1,0.3-0.2,0.5-0.5c0.5-1.3,1.3-2.2,2.7-2.4
		c1.5-0.2,2.9,0.3,3.7,1.7c0.7,1.3,0.6,2.5-0.3,3.8c-1.5,1.9-4.6,1.7-5.8-0.4C478.4,102.3,478.3,102.2,478,102.2z"/>
	<path fill="#718D5E" d="M434.4,28.2c-1.9,0-3.4-1.6-3.4-3.5c0-1.9,1.5-3.4,3.5-3.4c1.9,0,3.5,1.5,3.5,3.5
		C437.9,26.7,436.4,28.2,434.4,28.2z"/>
	<path fill="#769063" d="M472.7,170c0,1.9-1.5,3.4-3.5,3.4c-2,0-3.5-1.5-3.5-3.6c0-1.7,1.7-3.2,3.6-3.2
		C471.2,166.6,472.7,168.1,472.7,170z"/>
	<path fill="#AA805F" d="M464.9,81.7c2.2,1.7,2.2,4.2,0,5.8c-1.5,1.1-3.8,0.6-4.8-1c-1.1-1.7-0.5-3.8,1.1-4.8
		c0.8-0.5,1.6-0.5,2.5-0.5C464.3,81,464.6,81.4,464.9,81.7z"/>
	<path fill="#5E825E" d="M474.5,142.3c-1,1.2-2.3,1.5-3.8,1.1c-1.3-0.4-2.3-1.7-2.3-3c-0.1-1.8,1.1-3.4,2.7-3.6
		c1.9-0.3,3.5,0.7,4,2.5c0.1,0.7,0,1.3,0.1,1.9C475.3,141.9,474.8,142.1,474.5,142.3z"/>
	<path fill="#5E937B" d="M353.9,150.4c0-1.9,1.5-3.4,3.4-3.4c1.9,0,3.4,1.5,3.4,3.6c0,1.8-1.6,3.4-3.4,3.4
		C355.3,153.8,353.9,152.3,353.9,150.4z"/>
	<path fill="#60825F" d="M460.6,136.6c-1.3,1.1-2.8,1.3-4.2,0.6c-1.2-0.7-1.9-2.1-1.7-3.4c0.3-1.9,2.1-3.3,4-2.9
		c2.1,0.4,3.2,2.3,2.7,4.3C461.3,135.8,461.3,136.4,460.6,136.6z"/>
	<path fill="#769062" d="M478.3,40.2c0,1.8-1.5,3.4-3.4,3.4c-1.9,0-3.6-1.5-3.6-3.4c0-1.9,1.5-3.4,3.5-3.4
		C476.7,36.9,478.3,38.3,478.3,40.2z"/>
	<path fill="#5F957D" d="M358.8,132.3c0.4-0.1,0.5-0.5,0.7-0.8c1-1.3,2.7-1.8,4.2-1.1c1.5,0.7,2.3,2.3,1.9,3.9
		c-0.4,1.6-1.8,2.7-3.5,2.7c-1.2-0.1-2.1-0.6-2.8-1.6c-0.2-0.2-0.3-0.5-0.6-0.6C359.1,133.9,359,133.1,358.8,132.3z"/>
	<path fill="#97B07B" d="M397.4,127.2c-0.7,0.1-1.3,0.6-2.1,0.8c-0.1-0.5-0.5-0.3-0.7-0.4c-2.5-0.6-3.6-2.9-2.3-5.1
		c0.7-1.2,1.9-1.8,3.5-1.5c1.3,0.2,2.4,1.2,2.7,2.4c0.3,1.2,0.1,2.2-0.7,3.1C397.6,126.6,397.3,126.8,397.4,127.2z"/>
	<path fill="#60825E" d="M435.2,60.3c-1.7-0.5-2.6-1.6-2.7-3.3c-0.1-1.3,1-2.9,2.3-3.3c1.5-0.5,2.9,0,4,1.3c0.9,1.2,0.9,2.7-0.1,4.2
		c-0.3,0.9-0.8,1.3-1.8,1.2C436.2,60.3,435.7,60.4,435.2,60.3z"/>
	<path fill="#A58469" d="M447.8,145.1c-2-0.1-3.4-1.3-3.4-3.4c0-1.9,1.6-3.4,3.6-3.4c1.8,0.1,3.4,1.7,3.3,3.5
		C451.2,143.7,449.7,145.2,447.8,145.1z"/>
	<path fill="#61825E" d="M497.6,75.8c-1.9,0.2-3.6-0.7-4-2.3c-0.5-1.5,0.2-3.2,1.7-4c1.3-0.7,3.1-0.4,4.2,0.8
		c1.1,1.2,1.1,2.9,0.1,4.3C499.3,75.6,498.5,75.9,497.6,75.8z"/>
	<path fill="#649981" d="M465.8,36.7c-0.3,0.5-0.1,0.5,0.3,0.4c1.7-0.3,3.2,0.2,4,1.5c0.9,1.5,0.5,3.5-1,4.4c-1.5,1-3.6,0.7-4.6-0.7
		c-1.1-1.5-0.9-3.5,0.5-4.6c0.1-0.1,0.3-0.2,0.4-0.3c0.2-0.3-0.1-0.3-0.3-0.3C465.1,36.6,465.4,36.6,465.8,36.7z"/>
	<path fill="#61947E" d="M444.5,128c-0.6,0-1.1,0.3-1.8,0.2c-1.2-0.1-2-0.8-2.7-1.7c-0.3-0.2-0.4-0.5-0.3-0.8c0-0.7-0.1-1.5,0.2-2.3
		c0.8-1.7,2.8-2.5,4.4-1.7c1.9,0.9,2.5,2.9,1.7,4.7c-0.1,0.3-0.2,0.5-0.2,0.7C445.4,127.5,445.1,128,444.5,128z"/>
	<path fill="#97B17E" d="M467.4,103.5c-0.1,0.4,0.2,0.5,0.5,0.7c1.3,0.9,1.8,2.2,1.4,3.8c-0.3,1.1-1.5,2.1-2.7,2.3
		c-1.3,0.2-2.9-0.5-3.6-1.7c-0.9-1.7,0-4.1,2-4.8c0.3-0.1,0.7,0,0.7-0.5C466.3,103.2,466.8,103.2,467.4,103.5z"/>
	<path fill="#608460" d="M482.8,37.2c-0.7,0.9-1.7,0.8-2.6,0.8c-1.6-0.1-2.7-1.3-3-2.8c-0.2-1.5,0.7-3,2.2-3.6s3.2,0.1,4,1.5
		C484.3,34.4,484,36.1,482.8,37.2z"/>
	<path fill="#60845F" d="M370.7,106.7c-1.9,0-3.4-1.5-3.4-3.4c0-1.9,1.5-3.3,3.4-3.4c1.7,0,3.3,1.5,3.3,3.2
		C374,105.2,372.5,106.7,370.7,106.7z"/>
	<path fill="#A68468" d="M370.6,128.8c1.8-0.1,3.4,1.2,3.5,2.9c0.1,1.9-1.2,3.6-3,3.7c-1.8,0.1-3.5-1.3-3.7-3.1
		C367.3,130.8,368.7,128.8,370.6,128.8z"/>
	<path fill="#60845F" d="M442.4,117.2c0.4,0.5,0.5,1,0.3,1.6c-0.4,1.4-1.5,2.1-2.7,1.7c-1.1-0.3-1.7-1.4-1.5-2.5
		c0.1-0.7,0.6-1.1,1.2-1.5c0.2-0.1,0.6-0.1,0.6-0.4c-0.1-0.3-0.4-0.3-0.7-0.3c-1.1-0.5-1.7-1.3-1.9-2.5c-0.1-1.2,0.3-2.3,1.3-3
		s2.7-0.7,3.6-0.1c1.2,0.9,1.6,2.3,1.1,3.9c-0.2,0.5-0.6,0.8-0.9,1.2c-0.3,0.4-0.3,0.4-1.3,0.9C441.7,116.5,442.5,116.5,442.4,117.2
		z"/>
	<path fill="#5F815E" d="M440,165.4c1.7,0,3.3,1.5,3.4,3.2c0,1.9-1.4,3.4-3.3,3.4s-3.4-1.5-3.4-3.4
		C436.7,166.9,438.2,165.4,440,165.4z"/>
	<path fill="#AB805F" d="M443.4,53.9c1.9,0,3.4,1.4,3.4,3.4c0,1.8-1.5,3.3-3.3,3.3c-1.8,0-3.3-1.5-3.4-3.3
		C440.1,55.4,441.6,53.9,443.4,53.9z"/>
	<path fill="#97B17C" d="M438.9,78.4c0.3,0.1,0.5-0.1,0.7-0.3c0.8-1,1.9-1.3,3.2-1.1s1.9,1.1,2.3,2.3c0.3,1.1-0.4,2.7-1.5,3.4
		c-1,0.6-2.5,0.5-3.4-0.3c-0.1-0.1-0.1-0.1-0.2-0.2c-0.4-0.3-0.5-0.9-0.9-0.9c-0.5-0.1-0.3,0.7-0.7,0.9c-0.5,0.5-1.1,0.5-1.5,0.1
		c-0.4-0.3-0.6-0.9-0.3-1.4c0.2-0.3,0.5-0.5,0.1-0.8c0.3-0.3,0.7-0.1,1.1-0.1c0,0,0.1,0,0.1,0.1c0.3,0.1,0.4,0.7,0.7,0.5
		c0.4-0.3,0-0.7-0.2-0.9C438.5,79.1,438.6,78.7,438.9,78.4z"/>
	<path fill="#5B9077" d="M422.6,181.7c0.1-1.7,1.5-3,3.4-2.9c1.7,0,3.2,1.5,3.3,3.2c0,1.7-1.3,3.2-2.9,3.4c-1.9,0.1-3-0.7-3.6-2.5
		C422.5,182.3,422.5,182,422.6,181.7z"/>
	<path fill="#659A82" d="M437.7,20.7c-1.9-0.1-3.2-1.7-3.2-3.6c0.1-1.7,1.7-3.2,3.4-3c2.1,0.1,3.2,1.5,3.2,3.4
		C441,19.4,439.4,20.8,437.7,20.7z"/>
	<path fill="#639981" d="M432.1,40c0-1.8,1.4-3.2,3.3-3.2c1.8,0,3.4,1.5,3.4,3.3c0,1.8-1.5,3.2-3.3,3.2
		C433.6,43.2,432.1,41.8,432.1,40z"/>
	<path fill="#93AE7C" d="M462.5,126.4c0,1.9-1.5,3.3-3.6,3.3c-1.4,0-2.9-1.7-2.9-3.4c0-1.7,1.5-3.3,3.3-3.2
		C461.1,123.1,462.5,124.6,462.5,126.4z"/>
	<path fill="#629880" d="M410,16.2c0-1.8,1.4-3.2,3.3-3.2c1.8,0,3.2,1.4,3.2,3.3c0,1.8-1.4,3.2-3.3,3.3
		C411.5,19.5,410,18.1,410,16.2z"/>
	<path fill="#5F825E" d="M473.5,144.2c1.9,0,3.3,1.3,3.3,3.2c0,1.8-1.5,3.3-3.4,3.2c-1.7,0-3.2-1.5-3.2-3.4
		C470.2,145.5,471.7,144.2,473.5,144.2z"/>
	<path fill="#95B07D" d="M498.4,96.6c0.1,0.5,0.5,0.3,0.8,0.3c1.8,0,3.3,1.4,3.3,3.2c0,1.9-1.5,3.4-3.4,3.4c-1.3,0-2.2-0.6-2.7-1.7
		c-0.5-1.1-0.5-2.2,0.1-3.3c0.1-0.3,0.4-0.5,0.3-0.8C497.3,97.3,497.8,96.8,498.4,96.6z"/>
	<path fill="#5E937B" d="M420,164.4c0.1-1.4-1-2.1-1.7-3.1c0.4,0.1,0.6,0.7,0.9,0.6c0.4-0.1,0.1-0.7,0.2-1.1
		c0.5-1.9,2.3-2.9,4.2-2.3c1.7,0.5,2.6,2.5,2,4.2c-0.7,1.7-2.7,2.5-4.5,1.7c-0.2-0.1-0.4-0.2-0.5-0.3
		C420.1,163.8,420.1,164.1,420,164.4z"/>
	<path fill="#608360" d="M509,90.4c-0.3-0.3-0.6-0.5-0.9-0.7c-1.6-2.3-0.1-4.8,1.7-5.2c1.5-0.3,2.9,0.3,3.6,1.5
		c0.7,1.2,0.5,2.8-0.5,3.9C511.9,91,510.6,91.2,509,90.4z"/>
	<path fill="#60835E" d="M407.2,40c-0.5,1.9-1.8,2.8-3.8,2.6c-1.6-0.2-2.7-1.7-2.7-3.4c0.1-1.3,1.1-2.5,2.5-2.9s2.8,0.3,3.6,1.6
		c0.1,0.2,0.2,0.4,0.3,0.7C407.6,39,407.2,39.5,407.2,40z"/>
	<path fill="#A8856A" d="M402.6,104.6c-1.7,0-3.2-1.4-3.2-3.2s1.4-3.2,3.1-3.3c1.7-0.1,3.3,1.5,3.4,3.2
		C405.9,103.2,404.5,104.6,402.6,104.6z"/>
	<path fill="#A97E5D" d="M376.5,127.5c-1.8,0-3.4-1.3-3.3-3.2c0.1-1.8,1.3-3.2,3.3-3.2c1.7,0,3.2,1.4,3.2,3.2
		C379.8,126.2,378.4,127.5,376.5,127.5z"/>
	<path fill="#7C9464" d="M391.1,108.1c0,1.7-1.4,3.2-3.2,3.2c-1.8,0-3.3-1.4-3.3-3.2c0-1.8,1.5-3.2,3.4-3.2
		C389.8,104.9,391.1,106.3,391.1,108.1z"/>
	<path fill="#54978A" d="M348.6,138.3c-1.8,0-3.2-1.4-3.1-3.3c0.1-1.7,1.5-3.2,3.1-3.2c1.9,0,3.2,1.5,3.2,3.4
		C351.8,137,350.4,138.3,348.6,138.3z"/>
	<path fill="#97B17D" d="M465.1,166.4c-1.7,0-3.2-1.5-3.2-3.3c0-1.5,1.5-3.2,3-3.1c2.2,0.1,3.4,1.5,3.4,3.2
		C468.5,165,467,166.5,465.1,166.4z"/>
	<path fill="#5F835F" d="M368.8,39.5c-0.3,0.6-0.2,1.4-0.7,1.9c-1.1,1.1-2.6,1.3-3.9,0.7c-1.2-0.6-1.9-1.9-1.7-3.2
		c0.2-1.5,1.5-2.7,3.1-2.7c1.6-0.1,2.9,1,3.2,2.5C368.8,38.9,369,39.2,368.8,39.5z"/>
	<path fill="#789162" d="M467.5,88.5c0-1.7,1.5-3.2,3.2-3.2s3.2,1.4,3.2,3.2c0.1,1.7-1.5,3.2-3.3,3.2
		C469,91.7,467.5,90.2,467.5,88.5z"/>
	<path fill="#758F60" d="M456.8,79.2c0,1.7-1.4,3.2-3.2,3.1c-1.8,0-3.2-1.4-3.2-3.2c0-1.7,1.5-3.2,3.2-3.2
		C455.4,76,456.8,77.4,456.8,79.2z"/>
	<path fill="#94AE7A" d="M439.7,125.7c0.2,0.2,0.3,0.5,0.3,0.8c-0.6,0.1-0.3,0.6-0.3,0.9c-0.1,2.3-2.4,3.8-4.4,2.7
		c-1.1-0.5-2.1-1.9-1.9-3c0.2-1.3,0.7-2.3,2.1-2.8c1.2-0.4,2.5-0.1,3.4,0.9C439.1,125.5,439.3,125.8,439.7,125.7z"/>
	<path fill="#94AF7D" d="M460.6,136.6c0.3-0.5,0.6-0.9,0.8-1.4c0.1,0.2-0.1,0.7,0.4,0.3c0.7-0.6,1.6-0.9,2.5-0.9
		c0.2,0,0.3-0.1,0.3-0.3c0.3,0.1,0.6,0.2,0.9,0.3c-0.4,0.5,0.1,0.5,0.3,0.7c0.9,0.9,1.5,2,1,3.4c-0.4,1.3-1.3,2-2.6,2.1
		c-2.1,0.3-3.7-1.6-3.4-3.6C460.9,137,461.1,136.7,460.6,136.6z"/>
	<path fill="#648964" d="M510.5,102.6c-0.5-0.2-1-0.5-1.5-0.7c-1-1-1.3-2.1-0.9-3.5c0.3-1.1,1.1-1.7,2.2-1.9
		c1.3-0.3,2.4,0.1,3.2,1.1c0.8,1.1,0.9,2.2,0.3,3.4c-0.7,1.1-1.7,1.7-3,1.6C510.7,102.6,510.6,102.6,510.5,102.6z"/>
	<path fill="#A68369" d="M392,91.7c1.8,0,3.1,1.3,3.1,2.9c0,1.7-1.4,3.2-3,3.2c-1.8,0-3.2-1.3-3.2-3C388.9,93.1,390.3,91.7,392,91.7
		z"/>
	<path fill="#61835F" d="M410.8,86.7c0,1.7-1.4,3.2-3,3.2c-1.7,0-3.2-1.4-3.2-3c0-1.7,1.4-3.2,3.1-3.2
		C409.4,83.7,410.8,85.1,410.8,86.7z"/>
	<path fill="#628560" d="M472.3,97.4c-0.4,0.3-0.7,0.5-1.1,0.8c-1,0.2-1.9,0.2-2.7-0.4c-1.5-1-1.8-2.9-0.7-4.4
		c1.1-1.4,3.2-1.7,4.4-0.6C473.6,94.1,473.7,96,472.3,97.4z"/>
	<path fill="#5E815E" d="M465.8,36.7c-0.3,0-0.5,0.1-0.6,0.3c-1.5,0.7-3.3,0.1-4-1.5c-0.7-1.5-0.2-3.2,1.3-4c1.3-0.7,3.2-0.3,4,1
		C467.4,33.9,467,35.7,465.8,36.7z"/>
	<path fill="#549B8D" d="M363.2,58.8c-1.7,0-3.1-1.4-3.2-3.1c0-1.7,1.4-3,3.1-3c1.7,0,3.1,1.3,3.1,3.1
		C366.3,57.4,364.9,58.7,363.2,58.8z"/>
	<path fill="#769162" d="M426.1,126.2c-1.7,0-3.1-1.4-3-3c0.1-1.7,1.5-3.2,3.1-3.2c1.7,0,3.2,1.5,3.1,3.2
		C429.3,125,427.9,126.2,426.1,126.2z"/>
	<path fill="#AA7F5D" d="M462.7,62.9c0,1.7-1.3,3-3.1,3c-1.7,0-3.1-1.4-3.1-3.2c0-1.5,1.5-2.9,3.2-2.9
		C461.4,59.7,462.7,61.1,462.7,62.9z"/>
	<path fill="#C4A57F" d="M406.9,54.4c1.6,0,2.9,1.1,3,3c0.1,1.5-1.4,3-3,3c-1.5,0-3.2-1.5-3.1-3C403.9,55.6,405.2,54.4,406.9,54.4z"
		/>
	<path fill="#A68469" d="M474.1,62.9c1.7,1.3,2,3.2,0.7,4.6c-0.9,1-2.4,1.3-3.6,0.7c-1.2-0.6-1.9-2-1.5-3.4c0.3-1.3,1.5-2.2,2.9-2.2
		C473.1,62.5,473.7,62.3,474.1,62.9z"/>
	<path fill="#60835F" d="M402.2,163.4c-1.7,0-3-1.3-3.1-2.9c0-1.6,1.3-3,2.9-3c1.7,0,3,1.3,3,3C405.1,162,403.8,163.4,402.2,163.4z"
		/>
	<path fill="#769060" d="M390.5,44.5c0,1.7-1.3,3-2.9,2.9c-1.7,0-3-1.3-3-2.9c0-1.7,1.3-3,2.9-3C389.3,41.6,390.5,42.8,390.5,44.5z"
		/>
	<path fill="#9CB684" d="M452.5,17.8c0.3,0.3,0.5,0.1,0.7-0.1c1.7-1.3,3.9-0.5,4.6,1.4c0.5,1.3-0.1,2.8-1.3,3.6
		c-1.1,0.7-2.8,0.4-3.6-0.6c-0.5-0.5-0.8-1.1-0.7-1.9c0-0.3-0.1-0.6-0.5-0.5C452,19,452.3,18.4,452.5,17.8z"/>
	<path fill="#5C7F5C" d="M413.7,175.6c-1.6,0-2.9-1.3-2.9-2.9c0-1.7,1.3-3.1,2.9-3c1.7,0,2.9,1.4,2.9,3.1
		C416.6,174.3,415.3,175.6,413.7,175.6z"/>
	<path fill="#5F825F" d="M440.5,99.5c-0.5,0-1.1,0-1.7,0c-1.4-0.5-2.3-1.8-2.1-3.2c0.2-1.5,1.4-2.6,2.9-2.7s2.7,0.9,3,2.5
		C442.8,97.6,442,98.9,440.5,99.5z"/>
	<path fill="#A68368" d="M418.9,70.7c-1.7,0-2.9-1.2-2.9-2.9c0-1.7,1.3-2.9,3-2.9c1.6,0,2.8,1.3,2.8,2.9
		C421.8,69.5,420.6,70.7,418.9,70.7z"/>
	<path fill="#738E60" d="M379.9,43.5c-1.6,0-2.9-1.4-2.9-2.9c0.1-1.7,1.5-2.9,3.2-2.9c1.5,0,2.9,1.5,2.9,2.8
		C382.9,42.3,381.6,43.5,379.9,43.5z"/>
	<path fill="#669982" d="M463,94.7c-1.3,0-2.3-1.3-2.5-2.5c-0.2-1.3,0.6-2.5,1.9-3.1c1.1-0.5,2.5-0.1,3.2,0.9
		c1.3,1.5,0.7,4.1-1.5,4.7C463.7,94.9,463.4,94.7,463,94.7z"/>
	<path fill="#799366" d="M485.1,140.2c-1.6,0-2.9-1.3-2.9-2.8c0-1.7,1.3-2.9,2.9-2.9s2.9,1.2,2.9,2.9
		C487.9,139,486.7,140.2,485.1,140.2z"/>
	<path fill="#C4A37E" d="M403.1,128.4c-1.9,0-2.9-1.5-2.9-2.9c-0.1-1.5,1.5-3,2.9-2.9c1.8,0.1,2.9,1.3,2.9,3
		C406.1,127.2,404.7,128.4,403.1,128.4z"/>
	<path fill="#5F8260" d="M489.3,149.6c1.6,0,2.9,1.3,2.9,2.8c0,1.7-1.3,2.9-2.9,2.9s-2.9-1.3-2.8-3
		C486.5,150.8,487.8,149.6,489.3,149.6z"/>
	<path fill="#A48369" d="M425,61.7c-0.1,0.5-0.4,0.9-0.3,1.4c-0.3,0-0.5,0.2-0.6,0.4c-0.8,1.1-2,1.4-3.3,1c-1-0.3-1.8-1.4-1.9-2.6
		c-0.1-1.1,0.7-2.2,1.8-2.7c1.5-0.7,3.4,0.3,3.8,1.9C424.6,61.4,424.5,61.7,425,61.7z"/>
	<path fill="#61977F" d="M356.7,96.1c-0.2-0.7-0.4-1.5-0.9-2.1c0.5,0,0.3-0.4,0.3-0.7c0.1-1.2,0.7-2.1,1.8-2.6
		c1.1-0.4,2.1-0.2,2.9,0.5c1.1,1,1.3,2.6,0.4,3.8c-0.8,1.1-2.5,1.5-3.8,0.7C356.8,95.4,356.6,95.4,356.7,96.1z"/>
	<path fill="#748F61" d="M364.1,82.9c-0.5,0.3-0.9-0.3-1.4-0.1c-1.2-0.5-1.9-1.5-1.8-2.8c0.1-1.1,0.7-2,1.7-2.5
		c1.5-0.7,3.2,0.1,3.8,1.7c0.5,1.5-0.3,3.2-1.8,3.7C364.3,82.8,364.2,82.9,364.1,82.9z"/>
	<path fill="#758E60" d="M383.4,163c-1.5-0.4-2.3-1.7-2.2-3.1c0.1-1.3,1.4-2.5,2.7-2.5c1.4-0.1,2.7,0.9,2.9,2.4
		c0.1,0.9-0.1,1.7-0.7,2.3c-0.5,0.9-0.6,1-1.6,0.9C384.1,163.1,383.7,163.2,383.4,163z"/>
	<path fill="#AB7F5E" d="M379.6,70.5c0-1.5,1.3-2.9,2.7-2.8c1.7,0,2.9,1.3,2.9,2.9c0,1.4-1.3,2.8-2.7,2.8
		C380.9,73.4,379.6,72.1,379.6,70.5z"/>
	<path fill="#618460" d="M396,154.1c0.1-1.7,1.3-2.7,3-2.7c1.5,0.1,2.7,1.3,2.7,2.9c-0.1,1.5-1.3,2.7-2.9,2.7
		C397.2,157,396,155.7,396,154.1z"/>
	<path fill="#5B8F78" d="M416.2,179.5c1.6,0,2.7,1.2,2.7,2.8c0,1.6-1.2,2.9-2.9,2.8c-1.5,0-2.7-1.3-2.7-2.9
		C413.4,180.7,414.7,179.4,416.2,179.5z"/>
	<path fill="#758F60" d="M374.5,140.3c1.7,0,2.9,1.3,2.9,2.9c0,1.5-1.3,2.7-2.8,2.7s-2.9-1.2-2.8-2.9
		C371.8,141.4,373,140.3,374.5,140.3z"/>
	<path fill="#C2A27E" d="M450.8,136.2c0.1-0.3-0.1-0.4-0.5-0.5c-1.3-0.2-2.3-1.3-2.3-2.7c-0.1-1.1,0.9-2.4,1.9-2.7
		c1.3-0.4,2.7,0.1,3.4,1.2c0.7,1.2,0.5,2.7-0.5,3.6c-0.3,0.3-0.7,0.3-0.7,0.8C451.6,136.1,451.2,136.2,450.8,136.2z"/>
	<path fill="#A58468" d="M473,80.8c-0.1,0.6,0.1,1.2-0.1,1.7c-0.6,1-1.4,1.7-2.6,1.7c-1.5,0-2.6-0.9-2.8-2.3
		c-0.2-1.3,0.6-2.6,1.9-3.1c1.3-0.5,2.7,0.1,3.4,1.3C472.8,80.3,472.9,80.6,473,80.8z"/>
	<path fill="#A68469" d="M457.6,53.3c0.1,0.5,0.5,0.2,0.7,0.1c1.4-0.3,2.8,0.5,3.2,1.7c0.5,1.5-0.1,2.9-1.5,3.6
		c-0.9,0.4-2.3,0.2-3-0.5c-0.9-0.9-1.1-2.1-0.6-3.4c0.1-0.3,0.5-0.7-0.2-0.7C456.6,53.8,457.1,53.6,457.6,53.3z"/>
	<path fill="#789163" d="M498.4,96.6c-0.4,0.5-0.9,1-1.6,1c-1.2,0.1-2.2-0.3-2.9-1.3s-0.5-2.5,0.3-3.4c0.9-0.9,2.3-1.1,3.4-0.5
		c1.1,0.7,1.7,2,1.3,3.3C498.8,95.9,498.6,96.3,498.4,96.6z"/>
	<path fill="#98B27E" d="M447.2,48.3c-0.1-1.4,1.1-2.7,2.6-2.7c1.5,0,2.7,0.9,2.9,2.6c0.1,1.5-1,2.8-2.3,2.9
		C448.5,51.3,447,49.8,447.2,48.3z"/>
	<path fill="#A5846A" d="M444.6,64.4c0.9,1.3,0.7,2.9-0.5,3.9c-1.2,0.9-2.8,0.7-3.8-0.4c-1-1.1-0.9-2.7,0.2-3.9
		c0.9-0.9,2.1-0.9,3.5-0.2C444.3,63.9,444.5,64.1,444.6,64.4z"/>
	<path fill="#95B07C" d="M340.5,86.3c-1.9-0.1-2.9-1.4-2.8-2.8c0.1-1.7,1.1-2.8,3.1-2.8c1.3,0,2.5,1.5,2.5,2.9
		C343.3,85,341.9,86.3,340.5,86.3z"/>
	<path fill="#60947D" d="M446.8,148.6c0-1.6,1.3-2.8,2.9-2.7c1.4,0,2.7,1.4,2.6,2.9c0,1.4-1.3,2.6-2.8,2.6
		C448,151.4,446.8,150.2,446.8,148.6z"/>
	<path fill="#96B07E" d="M471.9,125.9c0.9,0.1,1.8,0.3,2.6-0.3c-0.3,0.5,0.2,0.5,0.5,0.7c1.8,0.7,2.3,2.8,1.1,4.3
		c-1,1.2-2.7,1.4-3.9,0.3c-1.3-1.1-1.3-2.8-0.1-4C472.4,126.4,472.5,126.1,471.9,125.9z"/>
	<path fill="#97B17D" d="M351.9,56.8c0.5,0.9,1.4,1.1,2.4,1.3c-0.6-0.1-0.9,0.1-0.5,0.7c0.6,1.3,0.1,2.6-1.1,3.4
		c-1.1,0.7-2.6,0.5-3.6-0.6c-0.9-1-0.9-2.5,0-3.6c0.5-0.6,1.2-0.9,2.1-0.9C351.4,57.1,351.8,57.3,351.9,56.8z"/>
	<path fill="#99B17C" d="M410.9,65.3c1.7,0.1,2.7,1.3,2.7,3c-0.1,1.3-1.4,2.5-2.8,2.5c-1.5-0.1-2.7-1.4-2.7-2.9
		C408.2,66.4,409.4,65.2,410.9,65.3z"/>
	<path fill="#60967E" d="M365.9,73.1c0.7,0.3,1.3,0,2-0.3c0,0.4,0.3,0.4,0.6,0.5c0.9,0.6,1.4,1.6,1.1,2.7c-0.3,0.9-1.1,1.6-2.1,1.6
		c-1.1,0-2-0.6-2.3-1.7c-0.2-0.7-0.4-0.5-0.7-0.1c-0.9,0.9-2,0.7-2.5-0.5c0-0.3,0-0.5,0-0.8c0.2-0.7,0.7-0.9,1.3-0.9
		c0.9-0.1,1.3,0.6,1.7,1.3C365.1,74.2,365.9,73.9,365.9,73.1z"/>
	<path fill="#5D927B" d="M401.9,148.4c0.7,1.1,0.7,1.8-0.1,2.2c-0.6,0.3-1.4,0-1.7-0.6c-0.3-0.8,0.1-1.4,1.4-1.8
		c-1.2-1.1-1.9-2.4-0.7-3.9c0.7-0.9,1.9-1.1,2.9-0.7c1,0.5,1.5,1.5,1.3,2.6C404.9,147.5,404.1,148,401.9,148.4z"/>
	<path fill="#649981" d="M461.7,49.1c0.2-0.2,0.4-0.4,0.6-0.6c0.2,0.7,0.5,0.1,0.7,0c1.1-0.5,2.3-0.2,3.1,0.7c0.8,0.9,1,2,0.4,3
		c-0.7,1.3-2.3,1.8-3.6,1.2c-1.2-0.6-1.7-2.1-1.2-3.4C461.7,49.7,462.1,49.4,461.7,49.1z"/>
	<path fill="#579B8C" d="M451.7,39.5c0,0.5,0.3,0.2,0.5,0.2c1.6-0.3,2.8,0.4,3.3,1.9c0.3,1,0.1,1.9-0.7,2.6c-0.9,0.9-1.9,1-2.9,0.5
		c-0.9-0.4-1.5-1.1-1.6-2.2c-0.1-0.9,0.3-1.7,0.9-2.3c0.2-0.1,0.4-0.3,0.3-0.6C451.5,39.5,451.6,39.4,451.7,39.5z"/>
	<path fill="#92AE7C" d="M497.6,75.8c0.9-0.1,1.5-0.5,1.9-1.3c-0.1,0.5,0.3,0.3,0.5,0.4c1.1,0.1,2.1,0.9,2.3,2
		c0.2,1.1-0.4,2.1-1.4,2.6c-1.1,0.5-2.6-0.1-3.1-1.3c-0.1-0.2,0-0.6-0.4-0.6c-0.3,0-0.3,0.3-0.5,0.5c-0.3,0.5-0.7,0.7-1.3,0.5
		c-0.5-0.1-0.8-0.5-0.9-1.1c-0.1-0.6,0.2-1.1,0.8-1.3c0.5-0.2,1,0.1,1.3,0.5c0.1,0.1,0.2,0.3,0.3,0.4c0.1,0.1,0.2,0.3,0.3,0.1
		c0.3-0.3,0.3-0.8,0.5-1.3C498.2,75.8,497.8,75.9,497.6,75.8z"/>
	<path fill="#5C7F5C" d="M478.4,75.2c0.3-1-0.5-1.7-0.9-2.5c-0.4-0.9,0.3-0.9,0.7-1.2c0.4-0.4,0.6,0.2,0.8,0.3
		c0.3,0.2,0.3,0.4-0.1,0.5c-0.2,0.1-0.5,0.1-0.4,0.3c0.1,0.3,0.4,0.5,0.6,0.6c0.3,0.1,0.6-0.1,0.9-0.4c0.2-0.2-0.1-0.3-0.2-0.5
		c-0.4-0.8-0.6-1.6-0.7-2.5c-0.1-0.4,0.1-0.4,0.4-0.3c0.3,0.2,0.5,0.4,0.7,0.6c0.5,0.7,0.8,0.5,1.1-0.1c0.1-0.1,0.1-0.2,0.2-0.5
		c0.2,0.5,0,1,0.5,0.9c0.3-0.1,0.7-0.3,0.5-0.7c-0.1-0.2,0-0.3,0.2-0.4c0.3-0.1,0.3,0.1,0.4,0.3c0.2,0.6,0.3,1.2,0.3,1.8
		c-0.1,0.7-0.8,0.3-1.2,0.5c-0.2,0.1-0.3-0.1-0.3-0.4c0-0.2,0.3-0.4-0.1-0.5c-0.3-0.1-0.5,0-0.7,0.3c-0.1,0.2-0.3,0.4-0.1,0.6
		c0.4,0.4,0.3,1.2,1.2,1.1c0.1,0,0.2,0.1,0.2,0.2c0.1,0.2-0.2,0.5,0.1,0.5c0.3,0,0.1-0.3,0.3-0.5s0.3-0.3,0.5-0.1
		c0.3,0.3,0.3,0.7,0.3,0.9c0,0.3-0.3,0.4-0.6,0.4c-0.1,0-0.4,0-0.4,0.1c0.1,0.7-0.7,0.7-1,1C480.4,76.2,479.4,75.9,478.4,75.2z"/>
	<path fill="#658864" d="M512.1,115.7c0,1.4-1.1,2.5-2.5,2.5c-1.5,0-2.6-1.2-2.6-2.7c0.1-1.3,1.3-2.5,2.6-2.5
		C511,113,512.1,114.2,512.1,115.7z"/>
	<path fill="#62845F" d="M401.7,119.9c-0.7,1.4-2.1,2-3.4,1.5c-1.3-0.5-2-2-1.5-3.4c0.5-1.3,2-1.9,3.4-1.5c0.8,0.3,1.2,0.9,1.6,1.6
		C402.4,118.8,402.4,119.3,401.7,119.9z"/>
	<path fill="#AA7F5E" d="M375.3,117.9c0,1.5-1.1,2.5-2.5,2.5s-2.6-1.2-2.6-2.7c0-1.3,1.3-2.5,2.7-2.5
		C374.3,115.2,375.4,116.4,375.3,117.9z"/>
	<path fill="#5F825D" d="M425.1,166.7c0.1,0.5,0.2,1,0.3,1.5c-0.1,1.3-1.1,2.3-2.3,2.4c-1.3,0.1-2.4-0.7-2.7-2
		c-0.3-1.2,0.4-2.5,1.5-2.9C423,165.1,424.3,165.6,425.1,166.7z"/>
	<path fill="#60967E" d="M363.6,63.4c0-0.7-0.4-1.3-0.7-1.9c0.3-0.1,0.3-0.4,0.3-0.7c0.4-1.4,2-2.1,3.4-1.6c1.3,0.5,2,2.1,1.4,3.5
		c-0.6,1.3-2.3,1.9-3.6,1.2C364.2,63.8,364,63.4,363.6,63.4z"/>
	<path fill="#789162" d="M414.3,130.5c0,1.5-1.1,2.5-2.7,2.5c-1.3,0-2.5-1.2-2.5-2.5c0-1.5,1.2-2.7,2.7-2.6
		C413.2,127.8,414.3,129,414.3,130.5z"/>
	<path fill="#60835F" d="M344.5,70.9c1.4,0,2.5,1.1,2.5,2.5c0,1.5-1.1,2.6-2.6,2.5c-1.4,0-2.5-1.2-2.5-2.5
		C341.9,71.9,343,70.9,344.5,70.9z"/>
	<path fill="#60835E" d="M374.4,164.8c-0.1,0.5,0,1.1-0.2,1.6c-0.7,1.3-1.9,1.7-3.2,1.4c-1.1-0.3-1.9-1.5-1.8-2.7
		c0.1-1.3,1.1-2.3,2.4-2.4C372.9,162.6,374,163.4,374.4,164.8z"/>
	<path fill="#659A82" d="M378.2,57.5c-0.1-0.1-0.2-0.2-0.3-0.3c0.3-0.3-0.1-0.5-0.2-0.7c-0.8-0.9-0.3-1.8,0-2.6
		c0.3-0.7,1-0.9,1.8-0.8c1.8,0.1,2.7,1.7,1.7,3.3c-0.2,0.3-0.3,0.5,0.1,0.8c0.5,0.5,0.7,1,0.4,1.7c-0.3,0.7-1,0.8-1.7,0.6
		c-0.3-0.1-0.4-0.1-0.5,0.2c-0.1-0.6-0.4-1-0.7-1.5C379.1,57.5,379.1,57.5,378.2,57.5z"/>
	<path fill="#789264" d="M487,43.2c0.2-0.1,0.3-0.3,0.3-0.6c0.6-0.5,1.1-1.2,2-1.3c1.3-0.2,2.6,0.7,2.8,1.9c0.3,1.5-0.5,2.8-1.9,3.1
		c-1.4,0.3-2.7-0.6-3-1.9C487.2,43.9,487.3,43.5,487,43.2z"/>
	<path fill="#779162" d="M429.3,35.4c1.4,0,2.5,1.1,2.5,2.5c0,1.3-1.1,2.5-2.5,2.5c-1.5,0-2.5-1.1-2.5-2.5S427.8,35.4,429.3,35.4z"
		/>
	<path fill="#7A9365" d="M495.4,120.9c-0.9,0.7-1.9,0.8-2.9,0.3c-0.9-0.5-1.3-1.3-1.2-2.3c0.1-1,0.6-1.9,1.6-2.3
		c1-0.3,1.9-0.2,2.7,0.5c0.9,0.9,0.9,1.9,0.4,3.1C495.9,120.6,495.6,120.7,495.4,120.9z"/>
	<path fill="#638460" d="M397.6,170.4c-1.4-0.1-2.5-1.1-2.5-2.5c0.1-1.4,1.2-2.5,2.6-2.5c1.3,0.1,2.4,1.2,2.4,2.5
		C400.2,169.3,399,170.5,397.6,170.4z"/>
	<path fill="#61835F" d="M358.8,132.3c0.7,1,0.7,1.7,0,2.5c-0.7,0.9-1.5,1.5-2.7,1.1c-0.9-0.3-1.5-0.9-1.7-1.9
		c-0.3-1.2,0.4-2.3,1.5-2.8C356.8,130.7,358,131.1,358.8,132.3z"/>
	<path fill="#569788" d="M379.7,91.6c0,0.5,0,1,0,1.5c-0.5,0.6-0.8,1.3-1.7,1.6c-1.3,0.3-2.6-0.2-3.1-1.3c-0.5-1.2,0.1-2.6,1.2-3.2
		c1.2-0.6,2.5-0.1,3.2,1C379.4,91.4,379.5,91.5,379.7,91.6z"/>
	<path fill="#728D5F" d="M425.8,174.9c0-1.3,1.1-2.4,2.3-2.5c1.4,0,2.5,1.1,2.5,2.4c0,1.4-1.1,2.5-2.5,2.5
		C426.9,177.4,425.9,176.2,425.8,174.9z"/>
	<path fill="#61957E" d="M423.1,85c-1.3,0.3-2.6-0.7-2.8-1.9c-0.2-1.1,0.4-2.4,1.5-2.8c1.3-0.5,2.7,0,3.2,1.3
		c0.5,1.4,0.4,2.5-1.5,3.4C423.3,85.1,423.2,85.1,423.1,85z"/>
	<path fill="#5E937C" d="M357,128c0,1.4-1,2.5-2.3,2.5c-1.4,0-2.5-1.1-2.5-2.5c0-1.3,1.2-2.4,2.5-2.3C355.9,125.6,357,126.6,357,128
		z"/>
	<path fill="#94AF7C" d="M490.6,109.7c1.1-0.3,2.4,1.3,2.4,2.4c0,1.2-1.2,2.5-2.4,2.5c-1.3,0-2.5-1.1-2.5-2.5
		C487.9,111,489.1,109.5,490.6,109.7z"/>
	<path fill="#5F8360" d="M481.7,138.5c0,1.4-1,2.4-2.4,2.5c-1.3,0-2.5-1.1-2.5-2.4c0-1.4,1-2.4,2.4-2.5
		C480.6,136.1,481.6,137.1,481.7,138.5z"/>
	<path fill="#A58568" d="M423.1,85c0.1,0,0.2,0,0.3,0c0.1,0.3,0.3,0.3,0.5,0.3c1.3,0.1,2,0.7,2.3,2c0.1,0.3,0.2,0.2,0.4,0.2
		c0.3,0.3,0.1,0.7-0.1,0.9c-0.3-0.1-0.4,0.2-0.5,0.4c-0.6,0.9-1.5,1.3-2.5,1.1c-1-0.2-1.7-0.8-1.9-1.8c-0.3-1,0.1-1.9,1.1-2.6
		C422.8,85.5,423.3,85.4,423.1,85z"/>
	<path fill="#60947C" d="M375,86.9c1.1-0.5,1.6-1.4,1.7-2.5c0.2,0.7,0.7,0.3,1.1,0.3c1.9-0.1,3.1,1.9,2.2,3.6
		c-0.5,0.9-1.5,1.4-2.5,1.3c-0.9-0.1-1.9-1-2-1.9C375.5,87.2,375.5,86.9,375,86.9z"/>
	<path fill="#618560" d="M491.2,56.3c1.3,0,2.3,1.1,2.3,2.4c0,1.3-1.1,2.4-2.5,2.4c-1.3,0-2.3-1.1-2.3-2.5
		C488.7,57.2,489.8,56.3,491.2,56.3z"/>
	<path fill="#99B27F" d="M393.2,71.3c0.3,0.1,0.6,0,0.9-0.1c1.1-0.5,2.5-0.1,3.1,0.8c0.7,1.1,0.5,2.4-0.5,3.1
		c-1,0.8-2.5,0.7-3.4-0.2c-0.5-0.5-0.6-1.1-0.7-1.7c0-0.3,0.1-0.5-0.3-0.6C392.5,72.1,393,71.7,393.2,71.3z"/>
	<path fill="#96B07C" d="M374,157.1c1.5,0,2.5,1,2.5,2.5c0,1.5-1.2,2.3-2.3,2.3c-1.3,0.1-2.5-1.1-2.5-2.3
		C371.6,158.2,372.7,157.1,374,157.1z"/>
	<path fill="#5F835E" d="M421.7,17.2c-1.1,0.1-2.2-1-2.3-2.3c-0.1-1.3,0.9-2.3,2.3-2.4c1.4-0.1,2.5,0.9,2.5,2.2
		C424.3,16.1,423.3,17.1,421.7,17.2z"/>
	<path fill="#94AF7B" d="M420.8,128.7c1.3,0,2.3,1,2.3,2.3c0,1.3-1,2.4-2.3,2.4c-1.3,0-2.5-1.1-2.5-2.3
		C418.4,129.8,419.3,128.6,420.8,128.7z"/>
	<path fill="#5F835F" d="M477.1,156.1c0.5,0.8,0.5,1.6,0,2.4c-1,1.5-3,1.3-3.9,0.3c-0.7-0.9-0.8-2.1-0.1-3c0.7-0.9,2-1.1,3-0.5
		C476.6,155.5,476.9,155.7,477.1,156.1z"/>
	<path fill="#96B17D" d="M431.8,109.1c0.7-0.6,0.7-1.4,0.7-2.3c0-0.3,0-0.6,0-0.9c0.3,0.4-0.1,1,0.3,1.3c0.4,0.2,0.7-0.3,1.1-0.4
		c1.2-0.3,2.5,0.5,2.8,1.7c0.3,1.3-0.3,2.4-1.5,2.9c-1.1,0.4-2.4-0.1-2.9-1.3C432.2,109.7,432.2,109.2,431.8,109.1z"/>
	<path fill="#639780" d="M455.1,90c0.1-0.7,0.2-1.3,0.1-1.9c0.3,0.6,0.5,0.3,0.8,0c1.2-1.1,2.8-0.9,3.7,0.3c0.7,1.1,0.3,2.6-0.8,3.3
		c-1.1,0.7-2.6,0.2-3.3-1C455.6,90.4,455.6,90,455.1,90z"/>
	<path fill="#A78569" d="M435.2,60.3c0.4,0,0.7-0.1,1.1,0c1,0.1,1.7-0.3,2.3-1.1c0.1,0.5,0.5,0.3,0.7,0.3c1.4,0.3,2.1,1.6,1.8,2.9
		c-0.3,1.3-1.6,2-2.9,1.7c-1.3-0.3-2-1.7-1.5-3.1c0.2-0.5,0.1-0.6-0.4-0.6C435.9,60.4,435.5,60.5,435.2,60.3z"/>
	<path fill="#758D5F" d="M457.6,53.3c-0.3,0.5-0.8,0.8-1.4,0.9c-0.1,0-0.2,0-0.3,0c-0.5,0.1-1,0.5-1.5,0c-0.3-0.2-0.5-0.5-0.5-0.8
		c-0.7-1.4-0.5-2.7,0.6-3.5c0.9-0.6,2.1-0.5,2.9,0.2C458.2,51,458.2,52.2,457.6,53.3z"/>
	<path fill="#A87D5C" d="M397.5,94c0.3,0,0.7,0,1,0c1.9,0.7,2.4,2.3,1.3,3.8c-0.6,0.8-1.4,1.1-2.3,0.8c-0.9-0.3-1.6-0.8-1.8-1.8
		c-0.2-0.9,0.1-1.7,0.9-2.3C396.8,94.2,397.1,94,397.5,94z"/>
	<path fill="#618460" d="M467.4,103.5c-0.5-0.1-1.1,0.1-1.7-0.3c-1.2-1-1.5-2.3-0.7-3.4c0.7-1,2.1-1.3,3.2-0.7
		c0.7,0.4,1.1,1.1,1.1,1.9c0,0.1,0,0.3,0,0.5C469,102.6,468.4,103.2,467.4,103.5z"/>
	<path fill="#628561" d="M364.4,139.8c0,1.3-0.9,2.3-2.3,2.3c-1.3,0-2.4-1.1-2.4-2.3c0-1.2,1.1-2.3,2.4-2.3
		C363.5,137.4,364.4,138.4,364.4,139.8z"/>
	<path fill="#60835E" d="M423.6,39c-0.5,0.1-0.9,0.1-1.3,0.1c-1.2-0.3-1.9-1.1-2-2.2c-0.1-1,0.7-2,1.7-2.3c1.1-0.3,2.1,0.1,2.7,1.1
		C425.3,36.8,424.9,38.2,423.6,39z"/>
	<path fill="#AD8160" d="M401.7,119.9c0.3-0.6,0.4-1.1,0.1-1.8c0.1-0.1,0.3-0.1,0.4-0.3c0.5-1.1,1.4-1.3,2.5-1.3
		c0.7-0.3,0.9,0.3,1.3,0.7c1.1,1.5,0.8,3.2-0.8,3.8c-0.9,0.4-2,0.1-2.7-0.8C402.3,120.2,402.2,119.8,401.7,119.9z"/>
	<path fill="#AD8262" d="M401.1,62.5c-1.3,0-2.3-1.1-2.3-2.4c0-1.2,1.1-2.3,2.3-2.3c1.3,0.1,2.3,1.1,2.3,2.5
		C403.5,61.5,402.5,62.5,401.1,62.5z"/>
	<path fill="#759063" d="M435.3,162.5c0-1.3,0.9-2.3,2.3-2.3c1.3,0,2.3,1,2.3,2.3c0,1.3-1,2.3-2.3,2.3
		C436.3,164.8,435.3,163.9,435.3,162.5z"/>
	<path fill="#5F825E" d="M379.8,146.5c-1.4-0.4-2.1-1.7-1.6-2.9c0.5-1.3,2-1.9,3.2-1.3c1.3,0.6,1.7,2.1,1.1,3.3
		c-0.1,0.1-0.1,0.3-0.1,0.3c-0.1,0.7-0.6,0.9-1.2,0.8C380.6,146.5,380.2,146.6,379.8,146.5z"/>
	<path fill="#55998B" d="M433,148c0,1.3-1.1,2.4-2.4,2.4c-1.2,0-2.3-1.2-2.3-2.5c0.1-1.2,1.1-2.3,2.3-2.3
		C432,145.7,433.1,146.8,433,148z"/>
	<path fill="#A8866A" d="M409.8,121.9c1.3,0,2.3,1,2.3,2.3c0,1.3-1,2.4-2.3,2.4s-2.4-1.1-2.3-2.3C407.6,123,408.6,121.9,409.8,121.9
		z"/>
	<path fill="#7B9567" d="M500.3,142.8c-1.3,0-2.3-1.1-2.3-2.3c0-1.3,1.1-2.4,2.3-2.3c1.3,0,2.3,1.1,2.3,2.3
		C502.7,141.8,501.7,142.8,500.3,142.8z"/>
	<path fill="#95B07C" d="M424.4,53.6c0.2,0.2,0.5,0.3,0.7,0.3c1.1,0.2,1.8,0.9,1.9,2.1c0.1,1-0.5,2-1.5,2.3c-0.9,0.3-2,0-2.7-0.9
		c-0.1-0.2-0.3-0.4-0.4-0.6c-0.3-0.3-0.2-0.6,0-0.9c0.1-0.5,0.6-0.9,0.5-1.5C423.4,54,423.9,53.7,424.4,53.6z"/>
	<path fill="#C3A27D" d="M405.4,93.2c-0.1,0.5,0.4,0.6,0.6,0.9c0.7,0.7,0.9,1.7,0.5,2.5c-0.4,0.9-1.4,1.5-2.2,1.4
		c-0.9-0.1-1.8-0.9-2.1-1.7c-0.3-1.3,0.6-2.5,2.1-2.8c0.3-0.1,0.6,0.1,0.6-0.3C405.2,92.9,405.4,93,405.4,93.2z"/>
	<path fill="#96AF7A" d="M385.8,142.8c1.7-0.2,2.6,0.2,3.1,1.5c0.3,0.9,0.1,1.6-0.5,2.2c-0.7,0.7-1.5,0.9-2.4,0.5
		c-0.8-0.3-1.3-0.8-1.5-1.7c-0.2-0.9,0.2-1.5,0.7-2.2C385.2,142.9,385.4,142.8,385.8,142.8z"/>
	<path fill="#99B27E" d="M481.7,53.4c-1.4,0-2.3-0.9-2.3-2.3c0-1.1,1-2.3,2.1-2.2c1.3,0.1,2.3,0.8,2.4,2.3
		C484,52.4,483,53.4,481.7,53.4z"/>
	<path fill="#C5A57F" d="M464.9,81.7c-0.4-0.1-0.8-0.3-1.1-0.5c-0.1-0.5-0.5-0.8-0.8-1.2c-0.4-0.7-0.4-1.7,0.1-2.4
		c0.6-0.7,1.7-1.1,2.4-0.8c0.9,0.3,1.6,1.3,1.6,2.2c-0.1,1.1-0.8,1.9-1.9,2.1C464.9,81.2,464.7,81.2,464.9,81.7z"/>
	<path fill="#7C9465" d="M437.7,133.7c0,0.4,0,0.9,0,1.3c-0.5,0.5-0.9,1.3-1.7,1.5c-1.1,0.2-2.2-0.3-2.6-1.5
		c-0.4-1.1,0.1-2.2,1.1-2.7c1-0.5,2.2-0.2,2.8,0.7C437.5,133.2,437.6,133.4,437.7,133.7z"/>
	<path fill="#60835F" d="M365.9,118.9c0,1.3-0.9,2.3-2.2,2.3s-2.2-0.9-2.2-2.3c0-1.1,1.1-2.2,2.2-2.2
		C364.9,116.7,365.9,117.7,365.9,118.9z"/>
	<path fill="#61845F" d="M409.5,163c-1.3,0-2.2-0.9-2.2-2.1c0-1.3,1-2.2,2.2-2.2c1.3,0,2.2,1,2.2,2.3
		C411.8,162.2,410.8,163.1,409.5,163z"/>
	<path fill="#A9886B" d="M403.1,55c0,1.3-0.9,2.3-2.3,2.3c-1.1,0-2.1-1.1-2.1-2.1c0-1.3,1-2.3,2.3-2.3
		C402.2,52.9,403.1,53.8,403.1,55z"/>
	<path fill="#A9866A" d="M411.1,99.8c0,1.3-0.9,2.2-2.3,2.2c-1.2,0-2.1-1-2.1-2.2c0-1.3,0.9-2.1,2.1-2.1
		C410.2,97.7,411.1,98.5,411.1,99.8z"/>
	<path fill="#A8856A" d="M389.3,98.7c0,1.3-0.9,2.1-2.3,2.1c-1.2,0-2.1-0.9-2.1-2.1c0-1.3,1-2.3,2.3-2.3
		C388.4,96.4,389.3,97.4,389.3,98.7z"/>
	<path fill="#718C61" d="M445,180.7c0,1.2-0.9,2.1-2.1,2.1c-1.2,0-2.3-1-2.3-2.2c0-1.2,0.9-2.1,2.1-2.1
		C444,178.5,445,179.4,445,180.7z"/>
	<path fill="#60957E" d="M462.7,150.8c0,1.2-0.9,2.2-2.1,2.1c-1.2,0-2.2-0.9-2.2-2.1c0-1.2,0.9-2.1,2.2-2.1
		C461.8,148.8,462.7,149.6,462.7,150.8z"/>
	<path fill="#799264" d="M426.5,88.5c0.1-0.3,0.1-0.6,0.1-0.9c0.7-1.3,1.9-1.7,3.1-1.1c1.1,0.6,1.4,1.9,0.7,3.1
		c-0.3,0.5-0.9,0.7-1.4,0.9c-0.2,0-0.5,0-0.7,0C427.2,90.3,426.7,89.6,426.5,88.5z"/>
	<path fill="#628461" d="M446.4,166.1c1.2,0,2.2,0.9,2.2,2.1c0,1.2-1,2.2-2.2,2.2s-2.1-0.9-2.1-2.1
		C444.2,167,445.2,166.1,446.4,166.1z"/>
	<path fill="#779163" d="M444.5,153.4c0-1.2,1-2.1,2.2-2.1c1.1,0,2.1,1,2.1,2.2c0,1.1-1,2.1-2.2,2.1
		C445.4,155.7,444.4,154.7,444.5,153.4z"/>
	<path fill="#62967E" d="M455,122.8c-0.5-0.2-0.7-0.6-1.1-0.9c0.1-0.5-0.3-0.9-0.1-1.5c-0.1-0.3-0.1-0.7,0.2-1
		c0.4-0.4,0.7-0.8,1.4-0.7c0.1,0,0.2,0,0.3-0.1c1.3,0.1,1.9,0.5,2.3,1.6c0.3,0.8-0.1,1.7-0.7,2.3C456.5,123,455.7,122.9,455,122.8z"
		/>
	<path fill="#659982" d="M447,51.7c0.1,0.8,0.5,0.9,1.2,0.5c0.7-0.5,1.7-0.1,2.3,0.5c0.6,0.7,0.7,1.8,0.3,2.5
		c-0.5,0.7-1.5,1.1-2.3,0.9c-0.8-0.2-1.5-1-1.6-1.9c-0.1-0.3,0.1-0.7-0.5-0.7C446.8,53,446.8,52.3,447,51.7z"/>
	<path fill="#C4A37F" d="M417.8,111.5c0,1-0.8,2-2.2,2.1c-1.1,0.1-2.1-1.1-2.1-2.2c0.1-1.1,1.1-2.1,2.1-2.1
		C416.9,109.4,417.8,110.3,417.8,111.5z"/>
	<path fill="#628360" d="M462.1,77.3c0,1.2-0.8,2.1-2,2.1s-2.1-0.9-2.1-2.1c0-1.1,1-2.1,2.1-2.1C461.2,75.3,462.1,76.2,462.1,77.3z"
		/>
	<path fill="#61835F" d="M458.8,164.2c-1.1-0.5-1.5-1.2-1.5-2.2c0.1-0.9,0.6-1.5,1.3-1.8c1.1-0.3,2.2,0.1,2.6,1.1
		c0.5,1.1,0.1,2-1.1,2.8C459.9,164.4,459.4,164.6,458.8,164.2z"/>
	<path fill="#728D60" d="M441.5,172.7c1.1,0,2.1,0.9,2.1,2c0,1.2-0.9,2.1-2.1,2.1c-1.1,0-2-0.9-2-2.1
		C439.4,173.6,440.3,172.7,441.5,172.7z"/>
	<path fill="#789264" d="M360.6,126.7c-1.1-0.5-1.5-1.3-1.4-2.4c0.1-0.8,0.9-1.5,1.8-1.7c0.9-0.1,1.8,0.4,2.2,1.3
		c0.3,0.7,0.2,1.5-0.3,2.1C362.4,127.1,361.4,126.7,360.6,126.7z"/>
	<path fill="#60957D" d="M349.6,114.3c-0.1-0.3-0.3-0.5-0.5-0.8c-0.1-1.2,0.3-2.1,1.1-2.5c0.7-0.3,1.9-0.1,2.4,0.6
		c0.7,0.8,0.6,2.1-0.1,2.8C351.7,115.2,350.5,115.2,349.6,114.3z"/>
	<path fill="#649880" d="M459.3,113c-0.3-0.5-0.7-0.9-0.7-1.5c0.4-1.4,0.9-1.8,1.9-1.9c1.1-0.1,1.8,0.3,2.1,1.1
		c0.3,0.7,0.1,1.7-0.5,2.3c-0.7,0.6-1.7,0.7-2.5,0.3C459.6,113.1,459.5,113,459.3,113z"/>
	<path fill="#7A9466" d="M506.3,64.6c0,1.1-0.9,2-2,2c-1.1,0-2.1-0.9-2.1-2.1c0-1.1,0.9-2.1,1.9-2.1
		C505.4,62.5,506.3,63.4,506.3,64.6z"/>
	<path fill="#C1A17D" d="M441.7,139.8c1.1,0,2,0.8,2,1.9c0,1.1-1,2.1-2.1,2.1c-1,0-1.9-1-1.9-2.1
		C439.7,140.6,440.4,139.8,441.7,139.8z"/>
	<path fill="#93AE7B" d="M458.6,158.3c0.8-0.9,0.8-1.9,0.7-3.1c0.1,0.7,0.5,0.7,1,0.5c0.9-0.5,2,0.3,2.5,1.1
		c0.3,0.6-0.1,1.9-0.7,2.4c-0.8,0.6-1.9,0.5-2.6-0.1C459.3,158.9,459.2,158.3,458.6,158.3z"/>
	<path fill="#789163" d="M479.1,152.2c0,1.1-0.9,1.9-2,1.9c-1.1,0-2-0.9-2-2c0-1,1-2,2.1-2C478.3,150.2,479.1,151.1,479.1,152.2z"/>
	<path fill="#628561" d="M452.5,17.8c0.1,0.8-0.2,1.5-0.9,1.8c-0.8,0.5-1.6,0.4-2.3-0.1c-0.6-0.5-0.8-1.1-0.7-1.9
		c0.1-1,0.9-1.7,1.9-1.7C451.5,15.8,452.3,16.5,452.5,17.8z"/>
	<path fill="#5B9C8F" d="M480.6,118.1c0,1.1-0.8,1.9-1.9,1.9c-1.1,0-2.1-0.9-2-2c0-1.1,0.9-1.9,2-1.9
		C479.8,116.2,480.6,117,480.6,118.1z"/>
	<path fill="#638560" d="M458.4,67.1c-0.1,0.7,0.1,1.4-0.5,1.9c-1,0.7-2.1,0.7-2.8-0.1c-0.7-0.7-0.7-1.7-0.2-2.5
		c0.5-0.7,1.1-0.9,1.9-0.8C457.6,65.8,458.2,66.3,458.4,67.1z"/>
	<path fill="#608361" d="M380.5,29.8c-1.3,0.3-2.3-0.2-2.7-1.2c-0.3-0.9,0.2-2,1.2-2.4c0.7-0.3,1.3-0.2,1.9,0.3
		c0.7,0.5,0.8,1.1,0.7,1.9c0,0.3-0.1,0.5-0.2,0.7C381.3,29.5,381,29.8,380.5,29.8z"/>
	<path fill="#5F825E" d="M384.5,118.8c0.3,0.5,0.6,1.1,0.5,1.7c-0.4,1.3-1.1,1.8-2.1,1.6c-1-0.1-1.7-1.1-1.7-2.1
		c0.1-0.9,0.5-1.4,1.3-1.7C383.2,118,383.9,118.1,384.5,118.8z"/>
	<path fill="#789265" d="M430.4,138.2c0,1.1-0.9,2-1.9,2.1c-1,0-1.9-0.9-1.9-2.1c-0.1-1,0.9-1.9,1.9-1.9
		C429.6,136.4,430.4,137.2,430.4,138.2z"/>
	<path fill="#9CB481" d="M453.8,72.5c0-0.7,0-1.3,0-1.9c0.3,0.5,0,1.2,0.3,1.8c0.2-0.3,0.3-0.6,0.5-0.8c0.6-0.8,1.4-1.1,2.3-0.7
		c0.8,0.3,1.3,1.2,1.2,1.9c-0.2,1-0.8,1.6-1.7,1.6c-1.1,0.1-1.8-0.5-2-1.4C454.3,72.7,454.3,72.3,453.8,72.5z"/>
	<path fill="#C1A27D" d="M385.8,142.8c-0.2,0.1-0.4,0.3-0.6,0.4c-0.1-0.6-0.6-0.3-0.9-0.3c-0.9,0-1.4-0.4-1.7-1.1
		c-0.3-0.9-0.2-1.5,0.5-2.1c0.7-0.6,1.7-0.7,2.5-0.1c0.7,0.7,0.9,1.5,0.5,2.3C385.8,142.3,385.4,142.5,385.8,142.8z"/>
	<path fill="#98B27E" d="M457.2,85.7c-1.2,0-2.1-0.8-2-1.9c0-1.1,0.8-1.9,1.9-1.9c1.1,0,2,0.9,2,1.9C459,84.8,458.2,85.7,457.2,85.7
		z"/>
	<path fill="#A6856A" d="M419.2,79c0,1.1-0.8,1.9-1.9,1.9c-1,0-1.9-0.8-1.9-1.9c0-1,0.8-1.9,1.8-1.9C418.3,77.1,419.2,78,419.2,79z"
		/>
	<path fill="#94AF7A" d="M340.5,106.6c0.7,0.1,1.4,0,2.1-0.3c-0.4,0.5,0.1,0.6,0.3,0.8c0.5,0.5,0.9,1.1,0.6,1.9
		c-0.2,0.8-0.7,1.2-1.5,1.3c-0.8,0.1-1.4-0.2-1.9-0.8c-0.5-0.6-0.4-1.3,0-2C340.4,107.2,340.7,106.9,340.5,106.6z"/>
	<path fill="#60845F" d="M415.7,23c0,1-0.9,1.8-1.9,1.8c-1.1,0-1.9-0.9-1.9-1.9c0-1,0.9-1.9,1.9-1.9C414.9,21,415.7,21.9,415.7,23z"
		/>
	<path fill="#C3A57E" d="M422.4,55.8c0,0.3,0,0.6,0,0.9c-0.3,0-0.4,0.3-0.5,0.5c-0.3,0.9-1.1,1.2-2,1.1c-0.7-0.1-1.4-0.7-1.5-1.4
		c-0.2-0.9,0.3-1.7,1.1-2.1c0.7-0.3,1.5-0.1,2.1,0.4C421.8,55.5,422,56,422.4,55.8z"/>
	<path fill="#7A9365" d="M480.4,125.2c-0.3,0.1-0.7,0.2-1,0.3c-1.1-0.1-1.7-0.5-1.9-1.5c-0.2-0.8,0.1-1.4,0.7-1.9
		c0.6-0.5,1.5-0.5,2.2-0.1C481.2,122.5,481.7,124.2,480.4,125.2z"/>
	<path fill="#A98A6B" d="M486.8,55.3c0,1.1-0.8,1.9-1.9,1.9c-1,0-1.9-0.9-1.9-1.9c0-0.9,0.9-1.8,1.9-1.8
		C486.1,53.4,486.9,54.2,486.8,55.3z"/>
	<path fill="#5F825F" d="M461.3,41.9c-1.1,0-1.9-0.8-1.9-1.9c0-1,0.9-1.9,1.9-1.9c1,0,1.9,0.9,1.9,1.9
		C463.2,41.1,462.3,41.9,461.3,41.9z"/>
	<path fill="#5F835E" d="M498.3,105.8c0,1.1-0.8,1.9-1.9,1.9s-1.9-0.9-1.9-1.9c0-1,0.9-1.9,1.8-1.9
		C497.4,103.8,498.3,104.8,498.3,105.8z"/>
	<path fill="#638563" d="M410.7,28.9c-0.7,0-1.4,0.1-1.8-0.7c-0.6-1-0.5-1.9,0.2-2.6c0.7-0.6,1.7-0.6,2.4-0.1
		c0.7,0.6,0.9,1.5,0.5,2.4C411.8,28.5,411.3,28.8,410.7,28.9z"/>
	<path fill="#638561" d="M480.9,105.9c-0.1,0.7,0.1,1.3-0.3,2c-0.7,0.7-1.5,0.8-2.3,0.4c-0.7-0.4-1.1-1.2-1-1.9
		c0.1-0.9,0.8-1.5,1.7-1.6C479.8,104.6,480.4,105,480.9,105.9z"/>
	<path fill="#C2A27E" d="M406.4,128.4c1.1,0,1.9,0.8,1.9,1.9c0,1.1-0.8,1.9-1.9,1.9s-1.9-0.7-1.9-1.8
		C404.5,129.2,405.3,128.4,406.4,128.4z"/>
	<path fill="#7C9465" d="M406.6,65.8c-0.5-0.2-0.7-0.5-1-0.9c0.5-0.1,0.3-0.4,0.2-0.7c-0.1-1.4,0.9-2.4,2.2-2.1
		c1.1,0.3,1.7,1.1,1.5,2.2c-0.2,0.9-1.2,1.5-2.2,1.4C407,65.7,406.7,65.2,406.6,65.8z"/>
	<path fill="#649881" d="M475,136.6c-1,0-1.8-0.9-1.8-1.8c0-1,0.9-1.9,1.9-1.9c1,0,1.9,0.9,1.9,1.9C477,135.8,476.1,136.6,475,136.6
		z"/>
	<path fill="#649781" d="M437.9,67.2c0,1.1-0.8,1.9-1.9,1.9c-1.1,0-1.9-0.8-1.9-1.9c0-1.1,0.8-1.9,1.8-1.9
		C437.1,65.4,437.9,66.2,437.9,67.2z"/>
	<path fill="#9EB885" d="M442.6,15.7c0-1,0.9-1.9,1.9-1.9c1,0,1.9,0.9,1.9,1.9c0,0.9-0.9,1.9-1.9,1.9
		C443.4,17.6,442.6,16.8,442.6,15.7z"/>
	<path fill="#AC7F5F" d="M415.7,74.2c-1,0-1.9-0.7-1.9-1.8c0-1,0.9-1.9,1.9-1.9c1-0.1,1.9,0.8,1.9,1.9
		C417.6,73.3,416.7,74.2,415.7,74.2z"/>
	<path fill="#AA886C" d="M395.3,66.4c-1.2-0.6-1.4-2.4-0.3-3.2c0.7-0.5,1.4-0.5,2.1-0.1c0.7,0.4,0.9,1.1,0.9,1.7
		c-0.1,0.8-0.6,1.3-1.4,1.5c-0.3,0.1-0.6,0.1-0.9,0.1C395.5,66.4,395.4,66.4,395.3,66.4z"/>
	<path fill="#60845F" d="M424.4,53.6c-0.5,0.3-0.9,0.8-1.5,0.7c-0.9-0.1-1.5-0.5-1.7-1.3c-0.2-0.7,0-1.3,0.5-1.9
		c0.6-0.5,1.3-0.6,2-0.3C424.7,51.2,425,52.2,424.4,53.6z"/>
	<path fill="#759063" d="M431.2,158.2c-0.1,0.2,0.1,0.4,0.2,0.6c0.3,0.9,0,1.9-0.7,2.3c-0.7,0.5-1.6,0.3-2.3-0.3
		c-0.6-0.6-0.7-1.6-0.3-2.3c0.5-0.7,1.4-1,2.3-0.7C430.6,157.9,430.8,158.3,431.2,158.2L431.2,158.2z"/>
	<path fill="#789365" d="M424.1,134.7c1,0,1.9,0.9,1.9,1.8c0,1-0.9,1.9-1.9,1.9c-1-0.1-1.8-0.9-1.8-1.9
		C422.3,135.5,423.2,134.7,424.1,134.7z"/>
	<path fill="#569789" d="M382,59.9c1.1,0,1.8,0.7,1.9,1.7c0,1.1-0.7,1.9-1.8,1.9c-1,0-1.8-0.8-1.9-1.8C380.2,60.7,381,59.9,382,59.9
		z"/>
	<path fill="#789366" d="M467.3,126.8c-0.3,0-0.7,0-1.1,0c0-0.3-0.3-0.4-0.5-0.6c-0.6-0.6-0.8-1.4-0.5-2.1c0.3-0.7,1.1-1.1,1.8-1.1
		c0.9,0.1,1.5,0.6,1.7,1.4c0.2,0.9-0.1,1.6-0.9,2C467.6,126.6,467.4,126.6,467.3,126.8z"/>
	<path fill="#638661" d="M421.5,106.9c-0.9-0.5-1.3-1.1-1.1-2.1c0.1-0.7,0.5-1.3,1.3-1.5c0.8-0.2,1.5,0,2,0.7
		c0.8,1.1,0.3,2.5-1.1,2.9C422.2,107.1,421.8,107.2,421.5,106.9z"/>
	<path fill="#C3A47E" d="M479.3,68c-0.8,0.1-1.7-0.7-1.8-1.6c-0.1-1,0.7-1.9,1.6-2c1.1-0.1,2,0.6,2.1,1.5
		C481.3,67.1,480.6,67.9,479.3,68z"/>
	<path fill="#799365" d="M425.7,113c0-1,0.8-1.8,1.9-1.8c1,0,1.7,0.8,1.7,1.9c0,1-0.8,1.8-1.7,1.8C426.4,114.8,425.7,114,425.7,113z
		"/>
	<path fill="#AB8161" d="M473.9,55c1.1,0,1.8,0.7,1.8,1.8c0,1-0.7,1.7-1.8,1.7c-1,0-1.9-0.8-1.9-1.8C472.1,55.8,472.9,55,473.9,55z"
		/>
	<path fill="#769062" d="M434.9,48.1c-0.9,0-1.8-0.9-1.8-1.8c0-1,0.8-1.9,1.8-1.8c0.9,0,1.9,0.9,1.8,1.9
		C436.7,47.3,435.8,48.1,434.9,48.1z"/>
	<path fill="#799265" d="M496.1,51.7c-1,0-1.8-0.7-1.8-1.6c0-1.1,0.7-1.9,1.7-1.9s1.9,0.7,1.9,1.8C497.9,50.9,497.1,51.7,496.1,51.7
		z"/>
	<path fill="#759062" d="M432.3,43.6c0,1-0.8,1.8-1.9,1.8c-1-0.1-1.7-0.9-1.7-1.9c0-1,0.9-1.8,1.9-1.8
		C431.6,41.8,432.3,42.6,432.3,43.6z"/>
	<path fill="#628460" d="M442,156.1c-1,0-1.8-0.9-1.8-1.9c0-0.9,0.9-1.7,1.9-1.7s1.8,0.9,1.8,1.9C443.8,155.5,443,156.2,442,156.1z"
		/>
	<path fill="#A9886B" d="M466.6,63.6c0.3,0.1,0.7,0.1,1,0.1c1.1,0.6,1.4,1.4,0.9,2.4c-0.3,0.8-1.3,1.3-2.1,1.1
		c-0.9-0.3-1.5-1.2-1.3-2.1C465.2,64.2,465.8,63.8,466.6,63.6z"/>
	<path fill="#7A9365" d="M437.7,148.2c-0.1,1-0.9,1.8-1.9,1.7s-1.7-0.9-1.6-2c0.1-1,0.8-1.7,1.8-1.7
		C436.9,146.3,437.8,147.3,437.7,148.2z"/>
	<path fill="#96B07C" d="M421.5,106.9c0.3,0,0.7,0,1,0c-0.4,0.4,0,0.6,0.3,0.8c0.7,0.6,0.9,1.5,0.5,2.3c-0.5,0.8-1.3,1.1-2.2,0.7
		c-0.7-0.3-0.9-0.8-1-1.4c-0.1-0.7,0.3-1.3,0.9-1.7C421.2,107.3,421.6,107.3,421.5,106.9z"/>
	<path fill="#C2A07D" d="M406,117.3c-0.5-0.1-0.7-0.7-1.3-0.7c0.1-0.3-0.1-0.6-0.1-0.9c-0.3-0.9,0-1.7,0.8-2.1
		c0.9-0.4,1.7-0.1,2.2,0.8c0.1,0.2,0.1,0.6,0.5,0.6c-0.3,0.8-0.3,1.7-0.3,2.6c-0.1-0.1-0.1-0.3-0.1-0.4c-0.1-0.3,0.2-0.9-0.2-0.8
		C407,116.6,406.2,116.5,406,117.3z"/>
	<path fill="#96B07C" d="M367.5,136.3c1.1,0,1.8,0.7,1.8,1.8c0,1-0.7,1.7-1.9,1.7c-1,0-1.7-0.7-1.7-1.7
		C365.8,137,366.5,136.3,367.5,136.3z"/>
	<path fill="#63825F" d="M480,56c-0.6,0.7-1.3,0.4-2.1,0.3c-0.1-0.2-0.3-0.4-0.5-0.5c-0.5-0.7-0.5-1.7,0.1-2.3
		c0.6-0.6,1.5-0.7,2.3-0.1c0.7,0.5,0.9,1.4,0.4,2.2C480.3,55.7,480.2,55.9,480,56z"/>
	<path fill="#A7866A" d="M415.5,52.7c0.7,0.7,1.7,0.6,2.5,0.5c-0.5,0.1-0.7,0.3-0.4,0.9c0.4,0.7,0,1.7-0.7,2.1
		c-0.8,0.5-1.7,0.2-2.3-0.5c-0.5-0.9-0.4-1.7,0.3-2.3C415.3,53.2,415.6,53.1,415.5,52.7z"/>
	<path fill="#AB8061" d="M444.5,128c0.5-0.2,0.7-0.7,1.3-0.8c0.9-0.1,1.5,0.3,1.9,1.1c0.3,0.7,0.1,1.3-0.4,1.8
		c-0.5,0.5-1.3,0.7-1.9,0.4c-0.6-0.3-1-1.1-0.9-1.8C444.4,128.4,444.4,128.2,444.5,128z"/>
	<path fill="#97B281" d="M503.9,98c0.7,0.3,1.4,0.3,2.1,0c-0.1,0.3,0.1,0.5,0.3,0.7c0.5,0.7,0.4,1.7-0.3,2.3c-0.7,0.7-1.6,0.7-2.3,0
		c-0.7-0.6-0.8-1.5-0.3-2.3C503.6,98.5,504,98.4,503.9,98z"/>
	<path fill="#A9886B" d="M393.2,71.3c0.1,0.7-0.4,0.9-0.8,1.3c-1.4,0.4-2.4-0.1-2.6-1.3c-0.1-0.6,0.1-1,0.5-1.4
		c0.3-0.1,0.7-0.3,1-0.5C392.5,69.4,393.2,69.9,393.2,71.3z"/>
	<path fill="#9AB482" d="M446,91.5c0,0.9-0.8,1.7-1.7,1.7c-0.9-0.1-1.7-0.9-1.7-1.8c0-0.9,0.9-1.7,1.8-1.7
		C445.3,89.7,446,90.5,446,91.5z"/>
	<path fill="#628460" d="M449.9,78c0,1-0.7,1.7-1.6,1.7c-0.9,0-1.8-0.7-1.8-1.7c0-1,0.8-1.8,1.8-1.7C449.2,76.3,449.9,77,449.9,78z"
		/>
	<path fill="#95AF7B" d="M383.4,163c0.3,0,0.5-0.1,0.8,0c0.9,0.1,1.5-0.2,2-0.8c0,0.5,0.5,0.3,0.8,0.5c1,0.5,1.3,1.3,0.8,2.3
		c-0.5,0.9-1.5,1.2-2.3,0.7c-0.5-0.3-0.9-0.9-0.8-1.5c0.2-0.8,0-1.1-0.9-1C383.6,163.2,383.4,163.1,383.4,163z"/>
	<path fill="#A6866C" d="M453.8,53.5c0.5,0.8,1.2,1,2.1,0.8c-0.4,0.1-0.5,0.3-0.4,0.7c0.3,1.1-0.2,1.8-1.3,2.1
		c-0.8,0.2-1.7-0.3-1.9-1.1c-0.3-0.9,0.1-1.8,1.1-2.2C453.6,53.8,453.8,53.7,453.8,53.5z"/>
	<path fill="#638662" d="M406.2,28.2c-0.1,0.1-0.1,0.1-0.1,0.2c-0.3,1.3-0.3,1.3-1.7,1.3c-0.1,0-0.3,0-0.5,0
		c-0.9-0.5-1.3-1.3-1.1-2.2c0.3-0.8,0.9-1.2,1.8-1.1C405.7,26.5,406.2,27.2,406.2,28.2z"/>
	<path fill="#9BB582" d="M435,34c0,0.9-0.8,1.7-1.7,1.7c-0.9,0-1.7-0.8-1.7-1.7s0.9-1.8,1.7-1.8C434.3,32.2,435,33,435,34z"/>
	<path fill="#63977F" d="M415.5,99c-1,0-1.7-0.7-1.6-1.7c0-1,0.8-1.7,1.8-1.6c0.9,0.1,1.6,0.8,1.6,1.7
		C417.3,98.3,416.5,99.1,415.5,99z"/>
	<path fill="#96B07D" d="M433.1,170.7c0.2-0.4,0.6-0.5,0.9-0.8c0.1,0.5,0.5,0.3,0.9,0.3c0.8,0,1.3,0.5,1.6,1.1
		c0.3,0.7,0.1,1.3-0.5,1.7c-0.6,0.5-1.3,0.5-1.9,0.1c-0.6-0.4-0.9-1-0.7-1.7C433.3,171.2,433.7,170.9,433.1,170.7z"/>
	<path fill="#99B17E" d="M395.3,66.4c0.1,0.1,0.2,0.1,0.3,0.1c-0.4,0.4,0.1,0.5,0.3,0.7c0.7,0.7,0.7,1.6,0.1,2.3
		c-0.7,0.7-1.7,0.7-2.3,0.1c-0.5-0.5-0.7-1.1-0.5-1.7c0.3-0.7,0.7-1.1,1.5-1.2C394.9,66.6,395.2,66.8,395.3,66.4z"/>
	<path fill="#C2A37D" d="M425,70.4c-0.9,0-1.7-0.7-1.7-1.6c0-0.9,0.9-1.7,1.7-1.7c0.9,0,1.6,0.8,1.6,1.7
		C426.6,69.7,425.9,70.4,425,70.4z"/>
	<path fill="#C4A57F" d="M390.2,87.6c0.9,0,1.7,0.7,1.7,1.5s-0.8,1.7-1.6,1.7c-0.9,0-1.7-0.7-1.7-1.6
		C388.5,88.3,389.3,87.6,390.2,87.6z"/>
	<path fill="#98B37E" d="M442.6,84.9c0-0.9,0.9-1.7,1.7-1.7c0.9,0,1.5,0.8,1.5,1.7s-0.8,1.7-1.7,1.7
		C443.3,86.6,442.6,85.7,442.6,84.9z"/>
	<path fill="#AD8463" d="M384.7,132.1c0.4-0.1,0.8,0.1,1.3,0.1c-0.1,0.3,0.2,0.5,0.4,0.7c0.5,0.8,0.3,1.7-0.4,2.2
		c-0.7,0.5-1.7,0.3-2.3-0.5c-0.5-0.7-0.3-1.7,0.5-2.2C384.3,132.5,384.6,132.5,384.7,132.1z"/>
	<path fill="#779162" d="M401.7,45.3c0,0.9-0.7,1.5-1.5,1.5c-1,0-1.7-0.7-1.7-1.6c0-0.9,0.8-1.7,1.6-1.7
		C401,43.5,401.7,44.3,401.7,45.3z"/>
	<path fill="#A8866A" d="M450.8,136.2c0.3-0.3,0.7-0.3,1.1-0.3c1.3,0.5,1.8,1.6,1.1,2.6c-0.4,0.6-1,0.7-1.7,0.7
		c-0.6-0.1-1-0.5-1.2-1.1C449.9,137.3,450.1,136.6,450.8,136.2z"/>
	<path fill="#768F61" d="M438.9,78.4c0,0.4-0.1,0.8-0.3,1.1c0.1,0.5-0.3,0.5-0.6,0.5c-0.4,0.2-0.7,0-1.1,0c-0.9-0.4-1.3-1.1-1.1-1.9
		c0.1-0.7,0.9-1.3,1.6-1.3C438.1,76.8,438.7,77.4,438.9,78.4z"/>
	<path fill="#95AF7B" d="M346.8,101c-0.9,0-1.5-0.7-1.6-1.6c0-0.9,0.7-1.7,1.6-1.6c1.1,0.1,1.6,0.7,1.7,1.7
		C348.5,100.2,347.7,101,346.8,101z"/>
	<path fill="#9CB684" d="M499.7,59.3c0.7-0.4,1.3-0.8,1.5-1.6c0.1,0.3,0.4,0.2,0.7,0.2c1,0.1,1.6,0.6,1.6,1.5
		c0.1,0.9-0.5,1.6-1.3,1.7c-0.8,0.1-1.5-0.4-1.7-1.3C500.3,59.3,500,59.3,499.7,59.3z"/>
	<path fill="#679882" d="M454.2,102.4c-0.1,0.1-0.1,0.3-0.1,0.4c-0.4,0.5-0.9,0.8-1.5,0.5c-0.4-0.1-0.8-0.3-1.1-0.6
		c-0.4-0.7-0.5-1.3-0.1-1.9c0.4-0.6,0.9-0.7,1.6-0.7C454,100.2,454.4,101.2,454.2,102.4z"/>
	<path fill="#7A9365" d="M382.7,107.9c-0.9,0-1.6-0.7-1.6-1.6c0-0.9,0.7-1.5,1.5-1.5c0.9,0,1.7,0.7,1.7,1.7
		C384.3,107.1,383.6,107.9,382.7,107.9z"/>
	<path fill="#638562" d="M433.2,125c0,0.9-0.7,1.6-1.7,1.6c-0.8,0-1.5-0.7-1.5-1.5s0.7-1.6,1.5-1.7C432.6,123.3,433.2,124,433.2,125
		z"/>
	<path fill="#648662" d="M360.4,83.4c-0.1,0.1-0.2,0.2-0.3,0.3c-1.3,0.9-2.7-0.3-2.6-1.3c0.1-1,0.7-1.7,1.7-1.6
		c1,0.1,1.6,0.9,1.4,1.9C360.7,83,360.6,83.2,360.4,83.4z"/>
	<path fill="#AD8363" d="M409.8,54.2c0-0.9,0.7-1.6,1.6-1.5c0.9,0,1.6,0.7,1.6,1.6s-0.8,1.7-1.7,1.6C410.4,55.8,409.7,55,409.8,54.2
		z"/>
	<path fill="#A7856A" d="M377.6,130.3c-0.1,0.7-0.5,1.3-1.3,1.4c-0.7,0.1-1.3,0-1.7-0.7c-0.3-0.6-0.4-1.3,0.1-1.9
		c0.6-0.9,1.9-0.7,2.7,0.3C377.8,129.6,377.8,129.9,377.6,130.3z"/>
	<path fill="#97B180" d="M469.1,133.7c0.4-0.4,0.8-0.9,0.9-1.4c0.1,0.2,0.3,0.1,0.5,0.1c1-0.2,1.7,0.3,1.9,1.2
		c0.1,0.9-0.3,1.7-1.3,1.9c-0.8,0.2-1.5-0.3-1.7-1.2C469.4,134,469.4,133.7,469.1,133.7z"/>
	<path fill="#789265" d="M356.2,102.4c0,0.9-0.8,1.6-1.7,1.6c-0.9,0-1.5-0.8-1.5-1.7c0-0.9,0.7-1.5,1.6-1.5
		C355.5,100.8,356.2,101.5,356.2,102.4z"/>
	<path fill="#9BB482" d="M392.1,27.9c0.8,0,1.5,0.8,1.5,1.6c0,0.7-0.9,1.6-1.7,1.6c-0.7-0.1-1.5-0.9-1.5-1.7
		C390.5,28.6,391.3,27.9,392.1,27.9z"/>
	<path fill="#97B07D" d="M442.6,107.9c0.7-0.3,1.1-0.9,1.4-1.6c0,0.4,0.2,0.4,0.5,0.5c0.7,0.1,1.3,0.5,1.4,1.3
		c0.1,0.9-0.3,1.6-1.3,1.7c-0.8,0.1-1.5-0.4-1.8-1.2C442.8,108.3,443,107.9,442.6,107.9z"/>
	<path fill="#9BB584" d="M433,28.6c0.8,0,1.5,0.7,1.5,1.5c0,0.9-0.7,1.6-1.5,1.7c-0.7,0-1.5-0.7-1.6-1.5
		C431.4,29.4,432.2,28.6,433,28.6z"/>
	<path fill="#94AE7B" d="M393.4,154.4c-0.9,0-1.5-0.7-1.5-1.6c0.1-0.8,0.7-1.5,1.5-1.5c0.9,0,1.5,0.7,1.5,1.6
		C395,153.7,394.2,154.4,393.4,154.4z"/>
	<path fill="#669982" d="M447.7,80.6c0.9,0,1.5,0.6,1.5,1.5s-0.6,1.5-1.4,1.5c-0.9,0-1.5-0.6-1.5-1.5
		C446.2,81.3,446.9,80.6,447.7,80.6z"/>
	<path fill="#669982" d="M463.3,100.4c0,0.9-0.6,1.5-1.5,1.5c-0.8,0-1.5-0.7-1.5-1.5c0-0.9,0.7-1.5,1.5-1.5
		C462.7,98.9,463.3,99.6,463.3,100.4z"/>
	<path fill="#96AF7B" d="M378.7,65.9c0-0.9,0.6-1.5,1.5-1.5s1.5,0.6,1.5,1.5c0,0.9-0.7,1.5-1.5,1.5S378.7,66.8,378.7,65.9z"/>
	<path fill="#96B07C" d="M400.9,181.4c-0.9,0-1.6-0.7-1.6-1.5c0-0.7,0.7-1.4,1.5-1.4c0.9,0,1.5,0.7,1.5,1.5
		C402.3,180.7,401.7,181.4,400.9,181.4z"/>
	<path fill="#9AB481" d="M368.5,35.7c-0.8,0-1.5-0.7-1.5-1.5c0-0.8,0.7-1.5,1.5-1.5s1.5,0.7,1.5,1.4C370.2,35,369.5,35.7,368.5,35.7
		z"/>
	<path fill="#638762" d="M347.4,84.7c0.9,0,1.5,0.6,1.5,1.5c0,0.8-0.7,1.5-1.5,1.5c-0.9,0-1.5-0.6-1.5-1.5
		C346,85.3,346.6,84.7,347.4,84.7z"/>
	<path fill="#A9876B" d="M380.1,119.4c0,0.8-0.7,1.5-1.5,1.5c-0.9,0-1.5-0.7-1.5-1.5c0.1-0.7,0.7-1.4,1.5-1.4
		C379.4,117.9,380.1,118.7,380.1,119.4z"/>
	<path fill="#95AF7D" d="M371.8,87.8c0.9,0.3,1.8,0.1,2.6-0.5c-0.1,0.3,0.1,0.5,0.2,0.8c0.3,0.6,0.4,1.2-0.1,1.7
		c-0.5,0.5-1.3,0.7-1.9,0.3c-0.6-0.3-1-0.8-0.8-1.5C371.9,88.4,372,88,371.8,87.8z"/>
	<path fill="#769062" d="M477,77.6c-0.4,0.3-0.9,0.3-1.3,0.3c-1.1-0.5-1.3-1.3-0.9-2.2c0.4-0.7,1.3-0.9,2.1-0.4
		C477.7,75.8,477.7,76.8,477,77.6z"/>
	<path fill="#A7866A" d="M372.4,136.2c0.8,0,1.5,0.7,1.5,1.5c0,0.7-0.7,1.4-1.4,1.4c-0.8,0-1.5-0.6-1.5-1.5
		C370.9,136.8,371.6,136.2,372.4,136.2z"/>
	<path fill="#9BB683" d="M503.2,135.7c0,0.8-0.7,1.5-1.5,1.5c-0.8,0-1.5-0.7-1.5-1.5c0-0.8,0.8-1.5,1.6-1.5
		C502.7,134.3,503.3,134.9,503.2,135.7z"/>
	<path fill="#5D9E90" d="M480.6,48.3c-0.8,0-1.4-0.5-1.5-1.3c0-0.7,0.7-1.5,1.5-1.5c0.7,0,1.4,0.7,1.4,1.5
		C482,47.7,481.4,48.3,480.6,48.3z"/>
	<path fill="#668763" d="M400.3,76.7c-0.8,0-1.5-0.7-1.5-1.5c0-0.7,0.7-1.4,1.4-1.4c0.9,0,1.5,0.6,1.5,1.4S401.1,76.6,400.3,76.7z"
		/>
	<path fill="#599B8D" d="M424.9,100.3c0-0.8,0.7-1.5,1.5-1.5c0.7,0,1.3,0.6,1.4,1.4c0,0.9-0.6,1.5-1.4,1.5
		C425.5,101.8,424.9,101.2,424.9,100.3z"/>
	<path fill="#628561" d="M441.6,37.5c0,0.8-0.6,1.4-1.4,1.4c-0.8,0-1.5-0.7-1.5-1.5c0-0.7,0.7-1.4,1.5-1.4
		C441.1,36,441.6,36.6,441.6,37.5z"/>
	<path fill="#579A8C" d="M436.9,44.2c0.1-0.8,0.7-1.3,1.4-1.3c0.8,0,1.5,0.7,1.5,1.5c0,0.7-0.7,1.4-1.5,1.4
		C437.5,45.7,436.9,45,436.9,44.2z"/>
	<path fill="#97B17E" d="M485.3,124c0.5,0,1,0,1.5,0c-0.1,0.3,0.1,0.3,0.3,0.5c0.7,0.5,0.8,1.4,0.3,2.1c-0.4,0.5-1.3,0.7-1.9,0.3
		c-0.7-0.5-0.8-1.2-0.3-2C485.6,124.5,485.9,124.2,485.3,124z"/>
	<path fill="#C4A780" d="M474.1,62.9c-0.5-0.2-1.1-0.4-1.6-0.3c0.4-0.1,0.6-0.3,0.3-0.7c-0.4-0.7-0.1-1.6,0.6-1.9
		c0.7-0.3,1.6,0,1.9,0.7c0.3,0.6-0.1,1.5-0.7,1.8C474.4,62.5,474.1,62.6,474.1,62.9z"/>
	<path fill="#618360" d="M447,51.7c-0.1,0.7,0.2,1.5-0.7,1.9c-0.9,0.3-1.6,0.1-1.9-0.7c-0.3-0.7-0.1-1.5,0.5-1.9
		C445.8,50.7,446.5,50.9,447,51.7z"/>
	<path fill="#94AE79" d="M379.8,146.5c0.3,0,0.7-0.1,1,0c0.6,0.1,1.1-0.1,1.4-0.7c0.1,0.2,0.3,0.3,0.5,0.3c0.6,0.3,0.9,0.9,0.8,1.5
		c-0.2,0.7-0.7,1.2-1.4,1.1s-1.3-0.5-1.3-1.1C380.8,146.9,380.5,146.5,379.8,146.5z"/>
	<path fill="#94AF7B" d="M411.5,149.2c0.1-0.2,0.3-0.3,0.5-0.3c0,0.5,0.4,0.3,0.6,0.3c0.7,0.1,1.3,0.8,1.3,1.4
		c-0.1,0.7-0.7,1.4-1.3,1.5c-0.7,0.1-1.3-0.5-1.5-1.3C410.9,150.2,411.5,149.8,411.5,149.2z"/>
	<path fill="#97B17E" d="M463,94.7c0.4,0,0.7,0,1.1,0c-0.1,0.5,0.3,0.3,0.5,0.4c0.6,0.3,1,0.7,0.9,1.5c-0.1,0.7-0.6,1.1-1.3,1.2
		s-1.2-0.4-1.5-1c-0.2-0.5-0.1-0.9,0.3-1.2C463.8,95.1,463.6,94.8,463,94.7z"/>
	<path fill="#7D9567" d="M489.9,130.1c-0.1,1.7-0.1,1.7-1.8,1.8c-0.7-0.3-1-0.9-0.9-1.6c0.1-0.7,0.5-1.1,1.2-1.2
		C489.1,129,489.7,129.3,489.9,130.1z"/>
	<path fill="#C4A680" d="M444.6,64.4c-0.3-0.1-0.5-0.4-0.7-0.6c0.5-0.1,0.3-0.3,0.3-0.6c-0.2-1,0.3-1.7,1.2-1.8
		c0.7-0.1,1.3,0.5,1.4,1.2c0.1,0.9-0.6,1.5-1.6,1.5C445.1,64.1,444.7,63.9,444.6,64.4z"/>
	<path fill="#98B280" d="M484.4,73.1c0-0.5,0-1.1,0-1.7c0.1,0.3,0.3,0.8,0.7,0.1c0.2-0.4,1-0.3,0.9-1.1c0.5,0.1,1,0.1,1.5,0.1
		c-0.6,0.1-0.9,0.3-0.3,0.8c0.5,0.5,0.3,1.4-0.2,1.8c-0.6,0.5-1.4,0.3-1.8-0.3C484.8,72.5,484.7,72.5,484.4,73.1z"/>
	<path fill="#96B07E" d="M423,125.8c0.8,0,1.3,0.6,1.3,1.4c0,0.8-0.7,1.3-1.5,1.3c-0.7,0-1.3-0.7-1.3-1.4
		C421.5,126.4,422.2,125.8,423,125.8z"/>
	<path fill="#97B27D" d="M367.1,57.4c0-0.9,0.5-1.3,1.3-1.3c0.8,0,1.5,0.6,1.5,1.4c0,0.7-0.7,1.4-1.4,1.4
		C367.6,58.8,367.1,58.2,367.1,57.4z"/>
	<path fill="#97B17F" d="M492.2,109c-0.7,0-1.4-0.6-1.4-1.3s0.7-1.5,1.4-1.4c0.7,0,1.3,0.7,1.3,1.5C493.6,108.5,493,109,492.2,109z"
		/>
	<path fill="#96B07D" d="M495.4,120.9c0.1-0.3,0.3-0.5,0.6-0.7c0.3,0.3,0.6,0.1,0.9,0.1c0.8-0.1,1.5,0.4,1.6,1.2
		c0.1,0.8-0.5,1.4-1.2,1.5c-0.8,0.1-1.3-0.5-1.4-1.3C495.8,121.3,496.1,120.8,495.4,120.9z"/>
	<path fill="#658864" d="M467.8,114.4c-0.8,0-1.3-0.6-1.3-1.4c0-0.7,0.6-1.3,1.3-1.3c0.7,0,1.4,0.6,1.4,1.3
		C469.1,113.8,468.5,114.4,467.8,114.4z"/>
	<path fill="#C5A580" d="M406.8,104.6c0-0.8,0.7-1.5,1.4-1.4c0.7,0.1,1.3,0.7,1.3,1.4c0,0.7-0.7,1.4-1.4,1.3
		C407.4,105.9,406.8,105.4,406.8,104.6z"/>
	<path fill="#96B07C" d="M439.2,122.1c0,0.7-0.6,1.3-1.3,1.3c-0.7,0-1.3-0.6-1.4-1.3c0-0.7,0.7-1.4,1.4-1.4
		C438.6,120.7,439.2,121.4,439.2,122.1z"/>
	<path fill="#9AB47F" d="M457.5,178c0,0.7-0.7,1.5-1.4,1.5c-0.7,0-1.3-0.5-1.3-1.3c-0.1-0.8,0.5-1.4,1.3-1.5
		C456.8,176.6,457.5,177.3,457.5,178z"/>
	<path fill="#7A9465" d="M490.7,72.9c-0.7,0-1.3-0.7-1.3-1.4c0-0.8,0.6-1.4,1.3-1.3c0.7,0,1.4,0.7,1.3,1.4
		C492.1,72.3,491.4,72.9,490.7,72.9z"/>
	<path fill="#97B17F" d="M504.8,87.1c-0.7,0-1.4-0.7-1.3-1.3c0-0.6,0.9-1.4,1.5-1.4c0.7,0,1.3,0.7,1.3,1.4
		C506.1,86.5,505.6,87.1,504.8,87.1z"/>
	<path fill="#62967F" d="M456.2,148.1c0.7,0,1.3,0.6,1.3,1.3s-0.6,1.3-1.4,1.3c-0.7,0-1.3-0.6-1.3-1.3S455.5,148.1,456.2,148.1z"/>
	<path fill="#9CB583" d="M511.7,94.5c-0.7,0-1.3-0.7-1.3-1.4c0-0.7,0.6-1.3,1.3-1.3c0.7,0,1.4,0.6,1.4,1.3
		C513.1,93.7,512.3,94.5,511.7,94.5z"/>
	<path fill="#A9876B" d="M475.4,68.5c0.9,0,1.3,0.5,1.3,1.3s-0.5,1.3-1.4,1.3c-0.8,0-1.3-0.6-1.3-1.4C474,69,474.6,68.5,475.4,68.5z
		"/>
	<path fill="#7B9466" d="M376.6,106.5c0,0.7-0.6,1.3-1.3,1.3c-0.7,0-1.3-0.6-1.3-1.3c0-0.7,0.6-1.4,1.3-1.4
		C376,105.1,376.6,105.7,376.6,106.5z"/>
	<path fill="#9BB582" d="M426.4,24.4c-0.7,0-1.3-0.6-1.2-1.3c0-0.7,0.7-1.5,1.3-1.4c0.7,0.1,1.4,0.7,1.4,1.5
		C427.9,23.9,427.3,24.4,426.4,24.4z"/>
	<path fill="#618461" d="M451.7,39.5c-0.1,0.1-0.1,0.1-0.2,0.1c-0.3,0-0.7,0.1-1,0c-0.6-0.2-1-0.9-0.9-1.5c0.1-0.7,0.7-1.1,1.4-1.1
		c0.3,0,0.6,0.1,0.8,0.2c0.3,0.3,0.3,0.7,0.5,0.9C452.5,38.7,452.2,39.1,451.7,39.5z"/>
	<path fill="#98B17D" d="M360.6,126.7c0.8,0,1.7,0.1,2.3-0.7c-0.1,0.4,0.1,0.5,0.5,0.6c0.9,0.1,1.1,1.1,0.9,1.7
		c-0.2,0.6-0.9,0.9-1.6,0.7c-0.7-0.2-1.1-0.9-0.8-1.7c0.2-0.5,0.1-0.7-0.5-0.6C361.2,126.8,360.9,126.9,360.6,126.7z"/>
	<path fill="#679B83" d="M499.3,106.1c0.1-0.7,0.6-1.3,1.4-1.2c0.7,0.1,1.3,0.6,1.2,1.4c0,0.7-0.7,1.3-1.4,1.3
		C499.8,107.5,499.3,106.9,499.3,106.1z"/>
	<path fill="#96B07E" d="M474.5,142.3c0.9-0.8,0.5-1.9,0.7-2.9c0.1,0.9,0.1,1.8,1.5,1.5c0.5-0.1,0.8,0.5,0.9,1.1
		c0,0.6-0.3,1.1-0.9,1.3c-0.5,0.2-1.1,0-1.4-0.5C474.9,142.7,474.9,142.2,474.5,142.3z"/>
	<path fill="#99B27F" d="M468.8,159c0.4-0.1,0.7-0.3,1.1-0.5c-0.1,0.3,0.1,0.4,0.5,0.5c0.7,0.2,1.1,0.9,0.9,1.5
		c-0.2,0.6-0.9,1.1-1.5,0.9c-0.8-0.2-1.1-0.9-1-1.7C468.8,159.6,469.2,159.3,468.8,159z"/>
	<path fill="#98B27E" d="M458.8,164.2c0.5,0.3,1,0,1.5-0.1c-0.1,0.4,0.2,0.5,0.4,0.8c0.3,0.5,0.4,1,0.1,1.5
		c-0.3,0.5-0.8,0.7-1.3,0.6c-0.5-0.1-0.9-0.5-1.1-1.1c-0.1-0.4,0.1-0.7,0.3-0.9C458.8,164.6,459,164.4,458.8,164.2z"/>
	<path fill="#94AF79" d="M351.7,80.8c0.2-0.5,0.1-1,0.1-1.5c0.3,0.3,0.5,0.1,0.7-0.1c0.6-0.4,1.4-0.3,1.8,0.1
		c0.4,0.5,0.3,1.3-0.1,1.7s-1.1,0.4-1.7-0.1C352.3,80.9,352,80.7,351.7,80.8z"/>
	<path fill="#98B07C" d="M377.6,130.3c0-0.3,0-0.6-0.2-0.8c0.3,0.1,0.5-0.2,0.6-0.4c0.4-0.6,1.3-0.8,1.8-0.4
		c0.6,0.4,0.7,1.2,0.3,1.7c-0.5,0.6-1.3,0.7-1.9,0.3C378.1,130.5,377.9,130.2,377.6,130.3z"/>
	<path fill="#9AB17E" d="M448.7,111.1c0,0.7-0.5,1.3-1.2,1.3c-0.7,0-1.4-0.6-1.3-1.3c0-0.7,0.6-1.3,1.3-1.3
		C448.2,109.9,448.7,110.3,448.7,111.1z"/>
	<path fill="#A9876B" d="M454,119.5c-0.3,0.3-0.1,0.6-0.3,0.9c-0.2-0.3-0.4-0.1-0.5,0c-0.8,0.3-1.5,0.1-1.8-0.6
		c-0.3-0.7,0-1.3,0.8-1.7c0.7-0.3,1.1,0.1,1.5,0.5C454,118.8,454,119.1,454,119.5z"/>
	<path fill="#96B17E" d="M349.2,72c0.3,0,0.7,0,1,0c-0.4,0.4,0.1,0.5,0.3,0.7c0.5,0.4,0.6,1,0.5,1.6c-0.1,0.5-0.5,0.7-1,0.8
		c-0.5,0.1-1-0.2-1.3-0.7c-0.3-0.6,0-1.3,0.6-1.7c0.1-0.1,0.4-0.1,0.4-0.3C349.6,72.1,349.4,72.1,349.2,72z"/>
	<path fill="#99B17D" d="M410.4,80.6c0.1,0,0.3,0,0.4,0c-0.1,0.4,0.2,0.4,0.4,0.6c0.5,0.4,0.7,0.9,0.5,1.5c-0.2,0.6-0.7,0.9-1.3,0.8
		c-0.5-0.1-1-0.4-1.1-1c-0.1-0.7,0.1-1.1,0.7-1.4C410.2,81.1,410.5,81,410.4,80.6z"/>
	<path fill="#96B07E" d="M490.1,140.2c0,0.7-0.6,1.3-1.3,1.2c-0.7,0-1.3-0.7-1.3-1.3c0-0.6,0.7-1.2,1.3-1.2
		C489.5,138.9,490.1,139.5,490.1,140.2z"/>
	<path fill="#9DB684" d="M380.5,29.8c0.5-0.1,0.7-0.5,0.9-0.8c0.1,0.4,0.4,0.3,0.6,0.3c0.7,0,1.1,0.5,1.1,1.1c0.1,0.5-0.5,1.2-1,1.3
		c-0.6,0.1-1.2-0.3-1.5-0.8C380.5,30.6,380.8,30.1,380.5,29.8z"/>
	<path fill="#9CB784" d="M484.4,46.1c0.6,0,1.1,0.6,1.1,1.3c0,0.7-0.5,1.3-1.3,1.3c-0.6,0-1.3-0.7-1.3-1.3
		C483,46.7,483.7,46.1,484.4,46.1z"/>
	<path fill="#7B9465" d="M485.7,60.7c-0.7,0-1.3-0.6-1.3-1.3c0-0.7,0.7-1.2,1.3-1.2c0.7,0.1,1.3,0.6,1.2,1.3
		C486.9,60.3,486.4,60.8,485.7,60.7z"/>
	<path fill="#9AB381" d="M466,44.9c0.7,0,1.3,0.7,1.3,1.3c-0.1,0.6-0.7,1.3-1.3,1.2c-0.6,0-1.3-0.7-1.3-1.3
		C464.6,45.6,465.4,44.9,466,44.9z"/>
	<path fill="#99B17F" d="M453.6,128.4c0.5-0.2,0.7-0.6,1.1-0.9c-0.1,0.3,0.1,0.4,0.5,0.5c0.7,0.1,1.2,0.7,1.1,1.3s-0.6,1.1-1.3,1.1
		c-0.7,0-1.1-0.5-1.2-1.3C453.8,128.8,454,128.5,453.6,128.4z"/>
	<path fill="#9AB583" d="M444.2,46.6c0.5,0,1.1,0,1.6,0c-0.5,0.3-0.4,0.4,0,0.7c0.4,0.3,0.6,0.7,0.5,1.3c-0.2,0.5-0.5,0.9-1,0.9
		c-0.5,0.1-0.9-0.1-1.1-0.6c-0.3-0.5-0.3-1.1,0.3-1.5C444.9,46.9,444.6,46.7,444.2,46.6z"/>
	<path fill="#96B07E" d="M429,54.9c0.5,0.1,1.1,0,1.6,0c-0.3,0.3,0,0.5,0.1,0.7c0.4,0.5,0.5,1.1-0.1,1.7c-0.5,0.5-0.9,0.5-1.5,0.1
		c-0.5-0.4-0.7-1.1-0.3-1.7C429.2,55.4,429.4,55.2,429,54.9z"/>
	<path fill="#7D9667" d="M492.4,47.9c-0.3-0.3-0.7-0.5-0.8-0.9c-0.1-0.6-0.1-1.1,0.5-1.5c0.5-0.3,1-0.3,1.4,0.1s0.6,0.8,0.5,1.3
		C493.8,47.7,493.2,47.9,492.4,47.9z"/>
	<path fill="#5F9B8D" d="M368.9,118.5c0,0.7-0.6,1.2-1.3,1.1s-1.1-0.7-1.1-1.3c0-0.6,0.6-1.1,1.2-1.1
		C368.4,117.2,369,117.9,368.9,118.5z"/>
	<path fill="#7D9568" d="M398.2,141c0-0.7,0.5-1.2,1.2-1.2c0.7,0,1.2,0.5,1.2,1.2c0,0.7-0.6,1.2-1.3,1.2
		C398.7,142.3,398.2,141.9,398.2,141z"/>
	<path fill="#97AE7A" d="M394.6,128.7c-0.5,0.5-0.7,1-0.7,1.6c0-0.4,0-0.7-0.6-0.5c-0.7,0.3-1.2-0.1-1.4-0.7
		c-0.2-0.6-0.1-1.1,0.6-1.4s1.2-0.2,1.5,0.5C394.1,128.4,394.2,128.8,394.6,128.7z"/>
	<path fill="#7C9264" d="M405.4,93.2c-0.1-0.1-0.3-0.1-0.5-0.2c-0.7-0.8-0.7-1.5-0.1-2c0.5-0.5,1.3-0.3,1.7,0.3
		c0.3,0.3,0.3,0.7,0.1,1.1C406.5,93,406,93.2,405.4,93.2z"/>
	<path fill="#62967E" d="M357.8,144.8c0.1-0.2,0.3-0.4,0.5-0.6c0.2,0.3,0.4,0.1,0.6,0c0.8-0.1,1.5,0.2,1.6,0.9
		c0.1,0.6-0.4,1.3-1,1.3c-0.7,0.1-1.3-0.3-1.4-1.1C358,145.1,358.2,144.9,357.8,144.8z"/>
	<path fill="#62967F" d="M356.3,105.9c0,0.6-0.6,1.2-1.3,1.2c-0.6,0-1.2-0.6-1.2-1.1c0-0.7,0.5-1.2,1.2-1.3
		C355.7,104.6,356.3,105.2,356.3,105.9z"/>
	<path fill="#7F9768" d="M393.2,108.2c0.6,0,1.3,0.6,1.3,1.2c0,0.6-0.7,1.2-1.3,1.1c-0.7,0-1.2-0.5-1.2-1.1
		C391.9,108.8,392.5,108.3,393.2,108.2z"/>
	<path fill="#99B27F" d="M491.4,68.2c0.5-1,0.2-2.1,0.3-3.1c0.3,0.3,0.2,0.7,0.2,1c0,0.6,0.1,0.9,0.8,0.7c0.5-0.2,0.9,0,1.3,0.5
		c0.3,0.5,0.1,0.8-0.1,1.2c-0.3,0.6-1.3,0.7-1.7,0.1C491.8,68.2,491.7,68,491.4,68.2z"/>
	<path fill="#648561" d="M404.8,74.2c0.7,0,1.2,0.5,1.3,1.1c0,0.7-0.5,1.2-1.2,1.2c-0.7,0-1.3-0.6-1.3-1.2
		C403.7,74.7,404.2,74.2,404.8,74.2z"/>
	<path fill="#7D9768" d="M471.5,116.7c0,0.7-0.5,1.1-1.2,1.1c-0.7,0-1.2-0.5-1.1-1.2c0-0.7,0.5-1.1,1.2-1.1
		C471,115.6,471.5,116,471.5,116.7z"/>
	<path fill="#94AE79" d="M378.9,155.6c0.5-0.4,1.1-0.7,1.3-1.3c0,0.2-0.1,0.4,0.3,0.5c0.8,0.1,1.1,0.5,1.1,1.3c0,0.6-0.3,0.9-0.9,1
		c-0.8,0.1-1.3-0.4-1.3-1.2C379.3,155.6,379.1,155.7,378.9,155.6z"/>
	<path fill="#98B27E" d="M374.5,54c0.3-0.4,0.6-0.9,0.7-1.5c0.7-0.1,1.3-0.3,1.8,0.4c0.5,0.6,0.2,1.1-0.3,1.5
		c-0.5,0.5-0.9,0.4-1.3,0C375.1,54.2,374.9,53.9,374.5,54z"/>
	<path fill="#99B27D" d="M390.7,85.9c0-0.7,0.5-1.1,1.1-1.2c0.6,0,1.1,0.5,1.1,1.2c0,0.6-0.5,1.2-1.1,1.2
		C391.3,87.1,390.7,86.5,390.7,85.9z"/>
	<path fill="#9AB380" d="M420,33.5c0,0.6-0.6,1.1-1.3,1.1c-0.6,0-1.1-0.6-1.1-1.2c0.1-0.6,0.5-1.1,1.1-1.1
		C419.6,32.2,420.1,32.8,420,33.5z"/>
	<path fill="#819A6F" d="M507.9,127.6c-0.7,0-1.2-0.5-1.2-1.1c0-0.5,0.6-1.1,1.1-1.1c0.7,0,1.2,0.5,1.2,1.1
		C509,127.2,508.5,127.6,507.9,127.6z"/>
	<path fill="#99B37F" d="M360.8,128.5c0,0.5-0.6,1.1-1.1,1.1c-0.6,0-1.1-0.6-1.1-1.2c0-0.7,0.5-1.1,1.3-1.1
		C360.4,127.3,360.8,127.9,360.8,128.5z"/>
	<path fill="#96B07D" d="M380,159.4c0,0.7-0.5,1.2-1.1,1.2s-1.1-0.5-1.1-1.2c0-0.7,0.5-1.1,1.1-1.1C379.5,158.3,380,158.8,380,159.4
		z"/>
	<path fill="#95AF7C" d="M403.4,175.5c-0.6,0-1.2-0.6-1.2-1.1c0-0.5,0.6-1.2,1.2-1.2c0.6,0,1.1,0.6,1.1,1.2
		C404.5,175,403.9,175.6,403.4,175.5z"/>
	<path fill="#99B380" d="M369.1,161.6c0,0.6-0.5,1.1-1.1,1.1c-0.7,0-1.1-0.4-1.2-1.1c-0.1-0.7,0.5-1.2,1.1-1.2
		C368.5,160.4,369,160.9,369.1,161.6z"/>
	<path fill="#7D9365" d="M401.5,52.2c-0.5,0-1.1-0.5-1.1-1.1c0-0.6,0.5-1.1,1.1-1.1s1.1,0.5,1.1,1.1
		C402.7,51.7,402.2,52.2,401.5,52.2z"/>
	<path fill="#9DB684" d="M479,44.4c0,0.6-0.5,1.1-1.1,1.1c-0.6-0.1-1.2-0.6-1.2-1.2c0-0.5,0.6-1.1,1.2-1.1
		C478.5,43.2,479,43.7,479,44.4z"/>
	<path fill="#9AB481" d="M424.3,48.5c0,0.6-0.5,1.1-1.1,1.1c-0.6,0-1.1-0.5-1.1-1.1c0-0.5,0.6-1.1,1.1-1.1
		C423.7,47.4,424.3,48,424.3,48.5z"/>
	<path fill="#9CB685" d="M460.2,30.2c-0.1,0.5-0.3,1.1-1,1.1c-0.7,0-1.1-0.5-1.1-1.1c0-0.7,0.5-1.2,1.2-1.1
		C459.9,29.1,460.1,29.6,460.2,30.2z"/>
	<path fill="#7B9566" d="M416.5,132c-0.6,0-1.1-0.5-1.1-1.1s0.5-1.1,1.1-1.1c0.6,0,1.1,0.5,1.1,1.1C417.7,131.5,417.2,132,416.5,132
		z"/>
	<path fill="#829B6D" d="M504.8,115.7c-0.6,0-1.1-0.5-1.1-1.1c0-0.6,0.5-1,1.1-1c0.6,0,1.1,0.5,1,1.1
		C505.8,115.3,505.4,115.8,504.8,115.7z"/>
	<path fill="#98B27F" d="M422.6,181.7c0,0.3,0,0.7,0,1c-0.3-0.1-0.3,0-0.5,0.3c-0.1,0.5-0.5,0.9-1.1,0.8c-0.5-0.1-0.8-0.3-0.9-0.8
		c-0.1-0.5,0.1-0.9,0.6-1.1c0.5-0.2,1,0,1.3,0.5c0.1,0.1,0.1,0.1,0.2,0.3C422.6,182.3,422.4,181.9,422.6,181.7z"/>
	<path fill="#9DB480" d="M386.6,103.6c-0.6,0-1-0.5-1-1.1c0.1-0.7,0.5-0.9,1.1-1c0.5-0.1,1.1,0.5,1,1
		C387.7,103.1,387.1,103.6,386.6,103.6z"/>
	<path fill="#9BB47F" d="M488.9,87.4c0.3-0.4,0.5-0.8,0.5-1.3c0.2,0.1,0.3,0.1,0.6,0.1c0.6-0.1,1.1,0.1,1.3,0.7
		c0.2,0.5,0,0.9-0.4,1.1c-0.5,0.3-1,0.3-1.3-0.2C489.3,87.6,489.1,87.4,488.9,87.4z"/>
	<path fill="#9BB581" d="M370.2,64.4c0.7,0,0.9,0.5,1,1.1c0.1,0.5-0.6,1.1-1.1,1c-0.6-0.1-1-0.4-1-1C369,64.8,369.5,64.4,370.2,64.4
		z"/>
	<path fill="#C4A580" d="M406.1,106.5c-0.1,0.5-0.6,1-1.1,0.9c-0.5-0.1-1-0.7-0.9-1.2c0.1-0.5,0.4-0.9,1-0.8
		C405.8,105.4,406.1,105.8,406.1,106.5z"/>
	<path fill="#9AB480" d="M372.5,77c-0.5,0-0.8-0.4-0.8-1c0-0.6,0.4-0.9,1.1-1c0.7,0,1,0.4,1,1C373.7,76.6,373.3,77,372.5,77z"/>
	<path fill="#98B27F" d="M342.2,78.3c0,0.5-0.4,0.9-1,0.9c-0.6,0-0.9-0.4-1-1c-0.1-0.5,0.5-1.1,1-1.1
		C341.7,77.1,342.2,77.7,342.2,78.3z"/>
	<path fill="#9FB683" d="M407.2,40c0-0.5,0-0.9,0-1.5c0.3,0,0.4-0.3,0.6-0.5c0.4-0.3,0.8-0.3,1.2,0c0.3,0.3,0.5,0.7,0.2,1.1
		c-0.3,0.4-0.7,0.7-1.1,0.4C407.4,39.1,407.3,39.5,407.2,40z"/>
	<path fill="#99B381" d="M424.9,117.9c0.1-0.3,0.1-0.7,0.3-0.9c0.1,0.3,0.3,0.3,0.5,0.1c0.6-0.3,1.1-0.1,1.3,0.5
		c0.2,0.4,0.1,0.9-0.4,1.1c-0.5,0.3-1,0.1-1.3-0.4C425.3,117.9,425.1,117.8,424.9,117.9z"/>
	<path fill="#9BB484" d="M371.2,37.3c-0.1,0.5-0.3,0.9-0.9,0.9c-0.5,0-0.9-0.3-0.9-0.9c0-0.6,0.4-0.9,0.9-0.9
		C370.8,36.5,371.1,36.9,371.2,37.3z"/>
	<path fill="#96AF7F" d="M415.7,177c-0.1,0.5-0.3,1-0.9,0.9c-0.5,0-0.9-0.3-0.9-0.9c0-0.5,0.3-0.9,0.9-0.9
		C415.4,176.2,415.7,176.5,415.7,177z"/>
	<path fill="#96B07D" d="M484.9,89c0.6,0,1.2,0,1.8,0C486.1,89.3,485.5,89.2,484.9,89z"/>
	<path fill="#98B27E" d="M375.2,52.5c-0.3-0.5-0.1-1.1-0.1-1.6C375.3,51.4,375.1,52,375.2,52.5z"/>
	<path fill="#F7F6F4" d="M452.5,103.3c0.5-0.1,1-0.3,1.5-0.5c0.1,0.3,0.1,0.5-0.1,0.7c-0.3,0.3-0.1,1.1-0.5,1.1
		C452.9,104.5,452.6,103.9,452.5,103.3z"/>
	<path fill="#EFF3F0" d="M378.2,57.5c0-0.5,0.3-0.3,0.5-0.2c0.3,0.1,0.6,0,0.6,0.5c0,0.3,0,0.6-0.5,0.5
		C378.7,58,378.5,57.7,378.2,57.5z"/>
	<path fill="#F7F6F4" d="M454,119.5c-0.3-0.2-0.2-0.6-0.3-0.9c0.4-0.5,1.2-0.5,1.7,0C454.8,118.8,454.4,119.2,454,119.5z"/>
	<path fill="#F7F8F5" d="M442.4,117.2c-0.3-0.3-0.7-0.7-1.1-0.8c-0.1-0.1-0.3-0.1-0.3-0.3c0-0.3,0.3-0.2,0.4-0.3
		c0.5-0.1,0.9-0.3,1.3-0.6c0.1,0,0.2,0.1,0.2,0.1C442.8,115.9,443,116.6,442.4,117.2z"/>
	<path fill="#5E825D" d="M440.7,109.8c0.2,0.5,0.4,1,0,1.4c-0.4,0.5,0.1,0.9,0.3,0.8c0.5,0,0.9,0.9,1.4,0.1c0,0,0.1,0,0.2,0.1
		c0.1,0.1,0.1,0.3-0.1,0.3c-0.5,0.3-0.5,0.8-0.5,1.3c-0.1,0.7-0.4,0.7-1,0.3c-0.4-0.3-0.4,0.1-0.6,0.3c-0.3,0.2-0.1,0.9-0.7,0.9
		c-0.5-0.1-0.4-0.6-0.7-0.8c-0.4-0.3-0.3-0.7-0.3-1.1c0.1-0.7,0.3-1.5-0.1-2.2c-0.1-0.2,0.1-0.3,0.3-0.3c0.7,0.6,0.9-0.1,1.1-0.5
		C440.3,110.3,440.5,110.1,440.7,109.8z"/>
	<path fill="#F2F5EF" d="M437.9,80c0.3-0.1,0.5-0.3,0.6-0.5c0.7,0,0.4,0.5,0.5,0.9c0.1,0.2,0.1,0.5-0.2,0.4
		C438.3,80.8,438,80.5,437.9,80z"/>
</g>
</svg>
