<?xml version="1.0" encoding="utf-8"?>
<!-- Generator: Adobe Illustrator 17.1.0, SVG Export Plug-In . SVG Version: 6.00 Build 0)  -->
<!DOCTYPE svg PUBLIC "-//W3C//DTD SVG 1.1//EN" "http://www.w3.org/Graphics/SVG/1.1/DTD/svg11.dtd">
<svg version="1.1" id="Calque_1" xmlns="http://www.w3.org/2000/svg" xmlns:xlink="http://www.w3.org/1999/xlink" x="0px" y="0px"
	 viewBox="332.3 5.4 184.3 181.7" enable-background="new 332.3 5.4 184.3 181.7" xml:space="preserve">
<g>
	<path fill="#5F9F93" d="M457.8,68c0.4,0.5,0.9,1,1.2,1.7c0.7,1.9-0.1,3.9-2,4.8c-0.2,0.1-0.5,0.1-0.5,0.4c0,0.3,0.3,0.3,0.5,0.3
		c0.5,0.3,0.9,0.7,1.3,1.1c0.5,0.2,0.8,0.5,0.5,1.1c0,0.6,0,1.2-0.1,1.7c0,0.2-0.3,0.5,0,0.6c0.2,0.1,0.5-0.1,0.7-0.2
		c1-0.5,2.2-0.3,3,0.5c0.7,0.8,0.9,2,0.3,2.9s-1.7,1.4-2.9,1.1c-1-0.3-1.7-1.1-1.7-2.3c0-0.4,0-0.8,0-1.3c-0.9,0.7-1.7,1.1-2.8,1.1
		c-1.6,0-2.9-1.3-3.2-2.6c-0.3-1.5,0.4-3.1,1.8-3.8c0.2-0.1,0.6-0.1,0.6-0.4c0-0.3-0.3-0.4-0.5-0.5c-1.9-1.2-2.2-2.8-1.7-4.3
		c0.6-1.8,2.3-2.8,4.2-2.5c0.5,0.1,0.9,0.5,1.5,0.3C457.8,67.8,457.8,67.8,457.8,68z"/>
	<path fill="#B69270" d="M468.9,64.8c-0.1-2.5,2-5.1,5.2-5.1c2.9,0,5.2,2.2,5.2,5.2c0,1.9-0.9,3.3-2.3,4.4c-0.2,0.1-0.5,0.3-0.4,0.5
		c0.1,0.3,0.4,0.2,0.6,0.2c0.7,0.1,1.3,0.7,1.5,1.4c0.1,0.9-0.3,1.6-1.1,1.9c-0.7,0.3-1.5,0.1-2.1-0.5c-0.5-0.5-0.5-1.4-0.2-2
		c0.1-0.3,0.6-0.4,0.3-0.7c-0.2-0.2-0.6-0.1-0.9-0.1c-1.4,0.1-2.7-0.1-3.8-1.1C469.6,67.8,468.8,66.6,468.9,64.8z"/>
	<path fill="#599B8F" d="M414.9,40c-2.6,0.1-5.4-2.3-5.3-5.4c0.1-2.9,2.5-5.4,5.5-5.2c3.2,0.1,5.3,2.5,5.3,5.6
		C420.3,38.1,417.4,40.2,414.9,40z"/>
	<path fill="#5D9F93" d="M474.6,84.4c0.7-0.1,1.2-0.7,1.9-0.8c1.5-0.2,3.3,0.8,3.7,2.2c0.5,1.8-0.3,3.4-1.9,4
		c-0.6,0.2-1.2,0.3-1.8,0.3c-0.2,0-0.5-0.3-0.6,0c-0.1,0.3,0.2,0.4,0.3,0.6c0.7,0.8,1.1,1.8,1.1,2.9c0,2-1.5,3.6-3.2,3.9
		c-2,0.5-4-0.6-4.8-2.5c-0.7-1.8,0-3.9,1.7-5c1.1-0.7,2.2-0.6,3.4-0.5c0.1,0,0.3,0.1,0.5,0c0.1-0.2-0.1-0.3-0.1-0.4
		c-1.2-1.5-1.3-2.7-0.3-4.4C474.5,84.7,474.5,84.5,474.6,84.4L474.6,84.4z"/>
	<path fill="#BC9775" d="M425.5,119.1c0.4-0.1,0.3-0.4,0.3-0.6c0.1-1.1,0.9-2.1,2-2.3c1.1-0.2,2.3,0.4,2.7,1.5
		c0.4,1,0.1,2.2-0.9,2.9c-0.2,0.1-0.6,0.2-0.5,0.5c0.1,0.3,0.5,0.3,0.7,0.3c2.1,0.5,3.7,2.5,3.6,4.7c-0.1,2.1-1.5,4-4,4.4
		c-2.3,0.3-4.4-0.9-5.2-3.2c-0.7-2.2,0.3-4.5,2.3-5.6c1.1-0.5,1.1-0.6,0.1-1.3c-0.4-0.3-0.5-0.9-1.1-0.9
		C425.5,119.5,425.4,119.3,425.5,119.1z"/>
	<path fill="#679C80" d="M369.9,39.8c0,2.8-2.3,5.2-5,5.3c-2.9,0.1-5.4-2.3-5.5-5.2c-0.1-2.8,2.3-5.2,5.2-5.3
		C367.6,34.5,370,37.1,369.9,39.8z"/>
	<path fill="#BA9774" d="M346.4,100.4c0.1,3.2-2.7,5.4-5.2,5.3c-3-0.1-5.3-2.4-5.3-5.4c0-2.7,2.5-5.2,5.3-5.2
		C344.1,95.1,346.6,97.8,346.4,100.4z"/>
	<path fill="#B99673" d="M389.2,81.8c2.9,0,5.3,2.1,5.3,5c0,2.9-2.3,5.2-5.2,5.2c-2.7,0.1-5.2-2.3-5.2-5.2
		C384,84.3,386.2,81.7,389.2,81.8z"/>
	<path fill="#BA9674" d="M467,94.5c0.2,2.5-2.4,5-5,5.1c-3.2,0.1-5.3-2.6-5.4-5c0-3.1,2.3-5.4,5.4-5.4
		C464.5,89.2,467.2,91.6,467,94.5z"/>
	<path fill="#659780" d="M454,162.4c0,2.8-2.3,5.2-5.1,5.2c-2.9,0-5.2-2.3-5.2-5.2c0-2.7,2.3-5.1,5-5.1
		C451.6,157.1,454,159.5,454,162.4z"/>
	<path fill="#5A9C8E" d="M412.5,74.6c1.9,1.1,2.9,2.9,2.6,5.1c-0.3,2.1-1.6,3.7-3.7,4.3c-2.8,0.7-5.4-0.9-6.2-3.4
		c-1.1-3.2,1.7-7.6,6.4-6.4C412,74.1,412.3,74.3,412.5,74.6z"/>
	<path fill="#B38F6D" d="M464.7,38.5c-0.3,0.3,0,0.5,0.2,0.8c1.2,1.7,1.3,4.1,0.2,5.7c-1.2,1.8-3.5,2.8-5.5,2.3
		c-2.3-0.7-4.3-2.5-3.9-5.8c0.3-2.2,2.3-4.2,4.9-4.2c0.7,0,1.4,0.1,2,0.3c0.3,0.1,0.6,0.4,0.9,0C464.1,37.9,464.5,38.1,464.7,38.5z"
		/>
	<path fill="#679B82" d="M401.5,111.4c0.5,0.1,0.5-0.3,0.6-0.5c1.1-3.1,4.2-4.2,7-3.1c1.8,0.7,3,2.6,2.9,4.7c0,2.1-1.3,3.8-3.3,4.6
		c-2.9,1.1-6-0.6-6.8-3.6c-0.1-0.5-0.2-0.7-0.6-0.3C401.1,112.6,401.5,112,401.5,111.4z"/>
	<path fill="#B99472" d="M385,119.9c0,2.8-2.2,5.1-5,5.1c-2.7,0-5.2-2.3-5.2-5c0-2.7,2.3-5.1,4.9-5.1C382.7,114.8,385,117,385,119.9
		z"/>
	<path fill="#9BB37C" d="M388.3,28.9c2.7-0.1,5,2.3,5,5c0.1,2.6-2.4,5-5,5c-2.9,0-5.2-2.2-5.2-5.2C383.2,31.2,385.5,28.7,388.3,28.9
		z"/>
	<path fill="#6DA085" d="M493.4,46.3c0.3,2.7-2.3,5.2-5,5.1c-2.6-0.1-5-2.3-5-5c0-2.8,2.2-5,5-5.1C490.8,41.2,493.7,43.4,493.4,46.3
		z"/>
	<path fill="#679D81" d="M424.2,15.6c0-2.8,2.1-4.9,5-4.9c2.7,0,4.9,2.1,5,5s-2.3,5-5,5C426.3,20.7,424.2,18.5,424.2,15.6z"/>
	<path fill="#54998C" d="M420,157.7c-0.1-2.7,2.3-5,4.8-5c2.9-0.1,5.2,2.3,5.2,5c-0.1,2.7-1.9,5-5.1,5
		C422,162.7,419.9,160.4,420,157.7z"/>
	<path fill="#B5916E" d="M437.1,50.1c-0.4,0.1-0.5,0.5-0.7,0.7c-1.1,1.9-3.2,3-5.2,2.6c-2.4-0.5-3.9-2-4.2-4.4
		c-0.5-3.1,2.3-5.3,4.4-5.6c3.2-0.3,5.7,2.3,5.6,5C437,49,436.7,49.5,437.1,50.1L437.1,50.1z"/>
	<path fill="#B89371" d="M396.2,59.1c-0.2-0.9-0.9-1.5-1-2.5c-0.1-1.5,0.1-2.7,1.1-3.9c0.9-1,1.9-1.7,3.2-1.9
		c1.8-0.2,3.4,0.4,4.5,1.8c2.3,2.9,0.7,6.8-2.3,7.8c-0.3,0.1-0.7,0.1-0.6,0.6c-0.2,0.2-0.3,0.2-0.5,0c-0.2-0.5-0.7-0.3-1.1-0.3
		c-0.8-0.1-1.5-0.6-2.3-0.7C396.8,59.9,396.5,59.5,396.2,59.1z"/>
	<path fill="#679981" d="M479.6,147.5c-1.9-0.7-3.2-1.9-3.6-4c-0.5-2.6,1.4-5.5,4.4-5.8c2.3-0.2,4.6,1.2,5.3,3.3
		c0.7,2.3-0.2,4.7-2.2,5.8c-0.7,0.4-1.5,0.6-2.3,0.7C480.4,148.2,480.2,148.1,479.6,147.5z"/>
	<path fill="#5D9E92" d="M485,80.2c0-2.9,2.1-5,5-5c2.7,0,4.9,2.2,4.9,5s-2.2,5-5.1,5C487.1,85.2,484.8,82.7,485,80.2z"/>
	<path fill="#BA9673" d="M419.1,90.9c0.1-2.9,2.5-5.2,5.4-4.9c2.8,0.3,4.7,2.5,4.6,5.3c-0.1,2.6-2.5,4.8-5.2,4.6
		C421.2,95.9,419,93.5,419.1,90.9z"/>
	<path fill="#9CB47F" d="M452.2,55.9c-0.3,0.3-0.5,0.5,0.1,0.7c2.9,0.9,4.2,3.6,3.6,6c-0.9,3.6-5.2,5.1-8.1,2.5
		c-1.9-1.7-2.2-5.2-0.4-7c0.7-0.7,1.5-1.2,2.5-1.5c0.3-0.1,0.5-0.1,0.5-0.5C451,55.8,451.6,55.7,452.2,55.9z"/>
	<path fill="#699D83" d="M446.1,78c2.4-0.1,4.9,2,4.9,5c0,2.7-2.3,5-5,4.9c-3.1-0.1-4.9-2.1-5-5C441.1,80,443.4,77.9,446.1,78z"/>
	<path fill="#A0B884" d="M362.1,115.8c-0.1,0.4,0.1,0.7,0.3,1.1c1.1,2,0.4,4.6-1.5,6c-1.5,1.1-3.2,1.3-5,0.6c-1.7-0.8-2.7-2.2-2.8-4
		c-0.1-1.8,0.5-3.3,2-4.4c1.6-1.2,3.3-1.1,5.1-0.5c0.3,0.1,0.6,0.5,0.8-0.1C361.6,114.8,362,115.2,362.1,115.8z"/>
	<path fill="#549A8D" d="M374.5,148.5c-2.7,0.1-4.9-2.3-5-4.6c-0.1-2.4,1.9-5,4.8-5c2.8-0.1,5.2,2.1,5.1,4.8
		C379.4,146.3,377.2,148.6,374.5,148.5z"/>
	<path fill="#BA9775" d="M465.8,128.7c-2.7,0-4.8-2.2-4.8-4.9c0-2.7,2.2-4.8,5-4.8c2.6,0,4.8,2.2,4.8,4.9
		C470.9,126.6,468.6,128.7,465.8,128.7z"/>
	<path fill="#7C976A" d="M447.8,140.4c-2.6,0-4.8-2.1-4.8-4.7s2.1-4.8,4.7-4.9c2.7,0,5,2.1,5,4.8
		C452.5,138.3,450.5,140.4,447.8,140.4z"/>
	<path fill="#7B9669" d="M355.3,70.9c-0.7-0.4-1.6-0.3-2.3-0.6c-1.9-0.9-3.2-3-2.8-5.1c0.4-2.3,2.2-3.9,4.5-4
		c1.9-0.1,3.4,0.7,4.4,2.3c0.9,1.6,0.9,3.3-0.1,4.9c-0.3,0.6-0.9,1.1-1.4,1.5c-0.3,0.2-0.7,0.2-0.7,0.6
		C356.3,70.8,355.8,71.1,355.3,70.9z"/>
	<path fill="#BC9977" d="M496.6,136.6c-2.4,0.1-4.7-2.3-4.6-4.8c0.1-2.7,2.1-4.7,4.8-4.7c2.9,0,4.6,2.3,4.7,4.6
		C501.4,134.2,499.5,136.7,496.6,136.6z"/>
	<path fill="#9EB781" d="M473.2,167c-2.4,0.2-4.8-1.9-4.9-4.6c-0.1-2.4,2.1-4.8,4.6-4.8c2.7,0,4.6,1.7,4.9,4.2
		C478.2,164.1,476.1,167.2,473.2,167z"/>
	<path fill="#669981" d="M402.7,168c-0.1,2.5-2.3,4.6-4.7,4.6c-2.7-0.1-4.8-2.1-4.7-4.8c0-2.6,2.1-4.6,4.8-4.6
		C400.7,163.3,402.7,165.4,402.7,168z"/>
	<path fill="#A0B883" d="M509.5,93c-0.3,0.2-0.5,0.3,0.1,0.5c1.4,0.7,2.5,1.7,2.9,3.4c0.4,1.7-0.1,3.7-1.9,5c-1.3,0.9-3.6,1-4.9,0.1
		c-2.3-1.5-3.2-4.5-1.3-6.8c0.9-1.1,1.9-1.7,3.3-1.9c0.3-0.1,0.5,0,0.5-0.4C508.5,92.5,509.1,92.6,509.5,93z"/>
	<path fill="#669A80" d="M389.9,69.2c0.1-0.4-0.1-0.5-0.4-0.7c-1.5-0.9-2.2-2.6-1.7-4.3c0.5-1.5,2-2.5,3.5-2.4
		c1.9,0.2,3.3,1.3,3.6,3.2c0.1,0.9-0.2,1.6-0.6,2.3c-0.1,0.2-0.4,0.4-0.2,0.6c0.1,0.2,0.4,0.1,0.6,0.1c1.5,0,2.5,0.7,3.1,1.9
		c0.7,1.7-0.6,3.7-2.5,3.8c-0.3,0-0.7-0.2-0.8,0.3c-0.7,0.3-1.4,0.4-2.1,0c0.1-0.1,0.3-0.1,0.3-0.1c0.3-0.1,0.9,0.2,1.1-0.2
		c0.1-0.3-0.5-0.5-0.8-0.8c-0.3-0.2-0.4-0.7-0.9-0.6c-0.2-0.6-0.1-1.3-0.4-1.9c0.3-0.3,0.6-0.7,0.7-1.3c-0.7,0-1.3-0.1-1.9,0.4
		C390.3,69.6,390.1,69.6,389.9,69.2z"/>
	<path fill="#9EB580" d="M418.8,65.9c0.3,0.1,0.5-0.1,0.7-0.4c0.8-0.8,1.7-1.4,2.8-1.7c2.3-0.5,4.6,1.1,5.3,3.2
		c0.7,2.2-0.4,4.6-2.6,5.5c-3.4,1.3-6.3-0.9-6.4-4c0-0.3,0-0.7,0-0.9c0-0.3-0.2-0.4-0.5-0.4C418.3,66.7,418.6,66.3,418.8,65.9z"/>
	<path fill="#689C82" d="M375.4,65.9c-2.5-0.1-4.6-2.1-4.6-4.6c0.1-2.4,2.1-4.6,4.4-4.5c2.7,0.1,4.8,2.1,4.8,4.7
		C379.9,63.9,377.8,66,375.4,65.9z"/>
	<path fill="#B28867" d="M480.7,125c1.8,0,3.3,1.3,3.4,2.9c0.1,1.8-1.1,3.4-2.9,3.6c-0.1,0-0.2,0-0.3,0c-0.8,0.1-0.8,0.2-0.3,0.9
		c0.7,1.1,0.9,2.2,0.2,3.4c-0.6,1.1-1.6,1.6-2.9,1.5c-1.5-0.1-2.9-1.5-2.9-3c-0.1-1.5,1.1-2.9,2.7-3.1c1-0.1,1.1-0.2,0.5-1
		c-0.7-1.1-0.9-2.3-0.2-3.4C478.5,125.5,479.5,124.8,480.7,125z"/>
	<path fill="#B89571" d="M398.5,138c2.3-0.2,4.6,2.1,4.6,4.5c-0.1,2.3-1.9,4.6-4.6,4.5c-2.6-0.1-4.5-1.9-4.6-4.3
		C393.8,139.7,396,137.9,398.5,138z"/>
	<path fill="#6A9C83" d="M482.5,105.2c0.1-3,2.3-4.6,4.5-4.6c2.5-0.1,4.7,2.1,4.7,4.6c0,2.3-2.1,4.5-4.4,4.5
		C484.5,109.7,482.5,107.5,482.5,105.2z"/>
	<path fill="#699B83" d="M469.6,169.7c-0.1,2.5-2.1,4.4-4.8,4.4c-2.5-0.1-4.4-2.1-4.3-4.8c0.1-2.3,2.1-4.3,4.4-4.3
		C467.6,165,469.6,167.1,469.6,169.7z"/>
	<path fill="#A0B984" d="M445,103.6c0,2.4-2,4.6-4.5,4.4c-2.7-0.1-4.4-1.9-4.6-4.5c-0.1-2.3,2.1-4.6,4.5-4.5
		C443.2,99.1,445.1,101.4,445,103.6z"/>
	<path fill="#55988B" d="M415.1,134.9c-2.3,0.2-4.5-2-4.5-4.4s2.1-4.6,4.5-4.5c2.7,0.1,4.4,1.9,4.5,4.5
		C419.6,133.2,417.2,135.1,415.1,134.9z"/>
	<path fill="#9FB883" d="M375.2,157.3c2.4,0,4.6,2.1,4.5,4.4c0,2.4-1.9,4.5-4.4,4.6c-2.7,0.1-4.6-2.3-4.6-4.6
		C370.6,159.3,372.8,157.3,375.2,157.3z"/>
	<path fill="#9EB680" d="M452.5,139.6c-0.2-1.9,2-4.5,4.5-4.3c2.3,0.1,4.4,2.1,4.4,4.6c-0.1,2.2-2.1,4.3-4.5,4.2
		C454.6,144.1,452.3,142.1,452.5,139.6z"/>
	<path fill="#A0B783" d="M364.7,84.6c0,0.7,0.6,1.1,0.9,1.7c0.7,1.7,0.5,3.3-0.7,4.6c-1.2,1.4-2.9,1.8-4.7,1.2
		c-1.5-0.5-2.5-1.7-2.8-3.4c-0.5-3.2,2.4-5.4,5.3-4.9c0.3,0.1,0.6,0.2,0.9-0.1C364.1,83.9,364.5,84.1,364.7,84.6z"/>
	<path fill="#7F986B" d="M452.3,27.7c0,2.5-1.9,4.3-4.4,4.2c-2.3,0-4.2-2.1-4.2-4.4c0-2.4,1.9-4.4,4.4-4.2
		C450.4,23.4,452.3,25.3,452.3,27.7z"/>
	<path fill="#5C9C8D" d="M389.2,96.7c1.1,0.1,2.3,0.7,2.9,2.1c0.3,0.7,0.5,0.7,1,0.2c0.9-0.9,2.3-0.9,3.2,0.1
		c0.9,0.9,0.9,2.3-0.1,3.2c-0.9,0.9-2.5,0.8-3.4-0.3c-0.5-0.5-0.6-0.6-0.9,0.1c-0.8,1.4-2.3,2-3.9,1.7c-1.4-0.3-2.5-1.5-2.8-2.9
		c-0.3-1.4,0.4-2.9,1.7-3.6C387.5,96.8,387.9,96.7,389.2,96.7z"/>
	<path fill="#7C9667" d="M431.3,181.8c0.1-0.7-0.3-1.1-0.3-1.7c-0.2-1.8,0.5-3.2,1.9-4.1c1.4-0.9,2.9-0.8,4.3,0
		c1.5,0.9,2.3,2.7,1.9,4.4c-0.5,1.9-1.9,3.3-3.8,3.4c-1.3,0.1-2.5-0.4-3.4-1.5c-0.1-0.1-0.2-0.3-0.5-0.3c-0.2,0.1-0.1,0.3-0.1,0.4
		c-0.1,0.8-0.4,1.1-1.1,1.1c-0.6-0.1-0.9-0.5-0.8-1.1c0.1-0.7,0.7-0.9,1.4-0.7C431,181.7,431.1,181.7,431.3,181.8z"/>
	<path fill="#819B6D" d="M486.9,156.5c-2.2,0.2-4.4-1.8-4.4-4.2c0-2.4,1.9-4.3,4.4-4.3c2.3,0,4.2,1.9,4.2,4.2
		C491.2,154.7,489.2,156.5,486.9,156.5z"/>
	<path fill="#7E986A" d="M468.8,149.4c2.4,0,4.2,1.7,4.2,4.2c0,2.2-1.9,4-4.2,4c-2.3,0-4.2-1.8-4.3-4.1
		C464.6,151.2,466.4,149.4,468.8,149.4z"/>
	<path fill="#66855F" d="M488.7,119c1.8,2.4,0.7,5.7-1.9,6.6c-2.3,0.8-4.8-0.5-5.5-2.9c-0.7-2.1,0.8-4.6,3.1-5.1
		c1.5-0.3,2.7,0,3.8,0.9C488.5,118.7,488.6,118.8,488.7,119z"/>
	<path fill="#6F9F85" d="M473.1,113.9c0,2.5-1.7,4.2-4.2,4.2c-2.1,0-4.2-1.9-4.2-4.1c0-2.5,1.8-4.2,4.4-4.3
		C471.3,109.8,473.1,111.7,473.1,113.9z"/>
	<path fill="#569B8E" d="M389.9,123.7c-2.4-0.1-4.1-1.9-4-4.4c0.1-1.9,2-3.8,4-3.8c2.5,0.1,4.4,1.8,4.3,4.1
		C394.1,122,392.3,123.8,389.9,123.7z"/>
	<path fill="#5B9C8F" d="M400.7,61.1c0.2,0,0.3,0,0.5,0c1.7,0.1,3.1,0.8,3.8,2.4c0.9,1.9,0.1,4.6-1.8,5.4c-2.3,1.1-4.8,0.1-5.8-2.1
		c-0.9-2,0.2-4.7,2.7-5.5C400.4,61.2,400.5,61.2,400.7,61.1z"/>
	<path fill="#669981" d="M369,129.8c-0.3-1.3-0.5-2.6,0.2-3.9c0.9-1.7,3.3-2.6,5.2-1.8s2.9,2.9,2.3,4.9c-0.3,0.9-0.7,1.6-1.4,2.1
		c-0.2,0.1-0.4,0.3-0.4,0.5c-0.9,0.5-1.9,0.5-2.9,0.7c0-0.2,0.1-0.5-0.1-0.5c-0.6-0.1-1.1-0.7-1.8-0.6
		C369.6,130.9,369.3,130.3,369,129.8z"/>
	<path fill="#9DB682" d="M481.8,34.2c2.3,0,4.2,1.7,4.2,4c0,2.3-1.7,4-4.2,4.2c-2.1,0.1-4.2-2.1-4.1-4
		C477.8,36.4,479.4,34.1,481.8,34.2z"/>
	<path fill="#5A9F92" d="M509.5,93c-0.5-0.1-1-0.1-1.5-0.1c-1.9-0.6-3.2-2.5-2.9-4.5c0.4-2.3,2.2-3.6,4.2-3.5
		c1.9,0.1,3.5,1.4,3.8,3.5c0.3,1.8-0.7,3.7-2.4,4.4C510.4,92.8,509.9,92.8,509.5,93z"/>
	<path fill="#B18666" d="M377.5,73.6c0-2.1,1.9-4,4-3.9c2.3,0,4.2,1.7,4.2,4.1c0,2.3-1.7,4-4.2,4C379.3,77.8,377.5,76,377.5,73.6z"
		/>
	<path fill="#A0826C" d="M486.8,130.1c2.3,0,4.1,1.7,4.1,4.1c0,2.1-1.9,4-4,4c-2.3,0-4.2-1.8-4.2-4.2
		C482.8,131.9,484.7,130.1,486.8,130.1z"/>
	<path fill="#B28868" d="M401.1,84.1c-0.1,0.3,0.3,0.5,0.5,0.6c1.7,1.1,2.3,3,1.5,4.9c-0.7,1.8-2.7,2.7-4.6,2.3
		c-1.7-0.4-2.7-1.5-3-3.1c-0.3-1.5,0.2-2.7,1.3-3.8c0.2-0.2,0.6-0.3,0.5-0.7c0.1-0.5,0.5-0.7,1-0.7c0,0.1-0.1,0.3,0,0.4
		c0.2,0.2,1.7,0.1,1.9-0.2C400.6,83.6,400.8,83.8,401.1,84.1z"/>
	<path fill="#7B9669" d="M392.2,111.1c0.3-0.1,0.5-0.2,0.1-0.4c-1.2-0.7-1.9-1.7-2.2-3c-0.1-0.5-0.4-0.1-0.5,0
		c-0.6,0.6-1.3,0.7-2.1,0.3c-0.8-0.4-1-1.4-0.5-2.1c0.5-0.7,1.6-0.9,2.3-0.3c0.1,0.1,0.3,0.2,0.3,0.3c0.4,0.7,0.6,0.5,0.9-0.1
		c0.6-1.2,1.5-1.9,2.9-2.1c3-0.3,5,2.5,3.7,5.3c-0.1,0.2-0.1,0.3-0.2,0.5c-0.1,0.5-0.4,0.8-0.9,0.9c-1,0.3-1.9,0.7-3.1,0.5
		c-0.2,0-0.3,0.1-0.3,0.3C392.6,111.4,392.3,111.5,392.2,111.1z"/>
	<path fill="#9AB37E" d="M416.3,25c0,2.1-1.9,4-4,4c-2.1,0-4.1-1.9-4-4c0.1-2.5,1.7-4.2,4.2-4.1C414.7,21,416.3,22.7,416.3,25z"/>
	<path fill="#9D7E68" d="M394,137.7c0.1,2.2-1.7,4.1-3.9,4.2c-2.2,0.1-4.2-1.7-4.2-3.9c-0.1-2.3,1.7-4.1,4-4.2
		C392.1,133.8,394,135.5,394,137.7z"/>
	<path fill="#699B82" d="M424.4,103.4c-0.3-0.1-0.5,0.1-0.7,0.3c-1.4,1.1-2.9,1.1-4.4,0.4c-0.3-0.1-0.7-0.5-0.7,0.3
		c-0.6-0.5-1.1-1.1-1.5-1.8c0.5,0.1,0.5-0.1,0.3-0.5c-0.3-0.9-0.3-1.9-0.1-2.8c0.7-1.9,2.9-3.2,4.8-2.5c2.1,0.7,3.4,2.9,2.7,5
		c-0.1,0.4-0.5,0.8-0.1,1.3C424.8,103.2,424.7,103.4,424.4,103.4z"/>
	<path fill="#B38B67" d="M430.8,103.1c-2.1,0-3.9-1.8-3.9-4s1.9-4,4.1-4c2.1,0,3.9,1.9,3.9,4.2C434.8,101.4,433,103.1,430.8,103.1z"
		/>
	<path fill="#679C82" d="M347.8,59.8c0.7-0.2,0.5-0.5,0.1-0.9c-2-1.8-1.5-5.1,0.5-6.4c1.4-0.8,3.3-0.7,4.6,0.4
		c1.2,0.9,1.7,2.9,1.2,4.4c-0.6,1.5-2.1,2.5-3.8,2.6c-0.4,0-0.8-0.4-1.1,0.1C348.8,60.1,348.3,60.1,347.8,59.8z"/>
	<path fill="#659881" d="M370.2,156.5c0.1,2.1-1.7,4-3.8,4c-2.1,0.1-4.1-1.4-4.2-4c-0.1-2.1,1.7-3.9,4-4
		C368.3,152.5,370.4,154.5,370.2,156.5z"/>
	<path fill="#9BB47E" d="M483.1,50.9c0,0.3,0.1,0.6,0.5,0.3c0.6-0.4,1.3-0.3,1.8,0.1c0.5,0.4,0.7,1,0.4,1.6
		c-0.3,0.7-0.8,1.1-1.5,1.1c-0.5,0-0.5,0.2-0.3,0.5c1.6,2.5,0.5,5.2-2.5,5.8c-1.3,0.3-3.2-0.9-3.8-2.3c-0.5-1.3-0.3-2.5,0.5-3.5
		c0.9-1.1,2.1-1.7,3.6-1.4c0.1,0,0.3,0.1,0.5,0.1c0.2,0,0.7,0.4,0.7-0.1c0-0.4,0.5-1.2-0.5-1.3C482.5,51.5,482.6,51.1,483.1,50.9z"
		/>
	<path fill="#B78F6E" d="M457,99.2c1.4,0,2.4,0.9,2.6,2.3c0.1,0.3-0.1,0.7,0.2,0.7c0.3,0.1,0.4-0.4,0.5-0.6c0.7-1.1,2.2-1.7,3.4-1.4
		c1.2,0.3,2.2,1.7,2.2,3c0,1.5-1.3,2.7-2.8,2.9c-1.4,0.1-2.9-1-3.2-2.4c0-0.1,0-0.3-0.1-0.4c-0.1-0.3,0-0.6-0.3-0.7
		c-0.4-0.1-0.3,0.3-0.5,0.5c-0.7,1-2.1,1.4-3.2,0.9c-1.1-0.5-1.7-1.6-1.5-2.9C454.7,100.1,455.8,99.2,457,99.2z"/>
	<path fill="#B38966" d="M373.4,110.5c0-2.1,1.9-3.9,4-3.8c2.1,0.1,3.8,1.5,3.8,4.1c0,1.9-1.9,3.8-4,3.8
		C375.3,114.5,373.2,112.6,373.4,110.5z"/>
	<path fill="#5E9F93" d="M481.9,100.8c-2.3,0-4-1.7-4-4c0-2,1.8-3.8,3.9-3.8c2.3,0,4,1.7,4,4C485.8,99.2,484.1,100.9,481.9,100.8z"
		/>
	<path fill="#679C81" d="M434.5,28.2c0.2-1.1,0.5-2.1,1.5-2.9c0.2-0.4,0.5-0.7,1-0.7c1.4-0.3,2.8-0.3,4,0.7c2.3,2,1.6,5.8-1.2,6.7
		c-1.4,0.5-2.7,0.1-4-0.7c-0.3-0.1-0.3-0.4-0.5-0.6c-0.2-0.4-0.5-0.9-0.7-1.3C434.3,29.2,434.2,28.7,434.5,28.2z"/>
	<path fill="#579B8E" d="M401.9,130.9c-2.1,0-4-1.7-4-3.8c0-2.2,1.8-4.1,4.1-4c1.9,0.1,3.7,1.3,3.8,3.9
		C405.8,129.2,404,130.9,401.9,130.9z"/>
	<path fill="#6B9D83" d="M453.9,52c0.4,0.1,0.4-0.2,0.5-0.4c0.4-1.6,1.4-2.6,3-3.1c2.3-0.6,5,1.7,4.6,4.1c-0.3,1.9-1.3,3.2-2.9,3.4
		c-1.9,0.3-3.3-0.3-4.4-2c-0.1-0.3-0.3-0.7-0.7-0.2C453.8,53.3,453.8,52.7,453.9,52z"/>
	<path fill="#5B9E91" d="M508.1,113.4c-0.3,0.6-0.5,1.1-1,1.6c-0.3,0.7-0.9,1.1-1.6,1c-1.3,0.3-2.6,0.1-3.7-0.8
		c-1.4-1.1-1.8-3.4-0.9-4.8c1.1-1.7,3.1-2.4,4.9-1.6c0.3,0.1,0.5,0.3,0.7,0.4c0.4,0.1,0.7,0.3,0.7,0.7c0.6,0.7,0.9,1.5,0.8,2.4
		C508.5,112.7,508.5,113,508.1,113.4z"/>
	<path fill="#B58E6C" d="M457.7,115.1c0.3,0.1,0.5,0.1,0.6-0.3c0.3-1.3,1.2-2.1,2.5-2.3c0.2-0.1,0.4,0.1,0.5-0.2
		c0.1-0.2-0.1-0.3-0.3-0.5c-1.1-1-0.9-2.1-0.5-3.2c0.5-0.9,1.8-1.3,2.9-1c0.7,0.2,1.5,1.4,1.5,2.3c0,1.1-0.7,1.9-1.7,2.3
		c-0.3,0.1-0.6,0-0.7,0.3c-0.1,0.3,0.3,0.4,0.5,0.5c0.9,0.8,1.3,2.1,0.8,3.3c-0.3,1.1-1.5,1.9-2.7,2c-1.3,0.1-2.3-0.6-2.9-1.7
		c-0.1-0.3-0.1-1.1-0.8-0.7C457.5,115.6,457.5,115.4,457.7,115.1z"/>
	<path fill="#B08765" d="M448.7,34.1c0.5-0.6,0.9-1.3,1.6-1.8c1.9-1.2,4.4-0.6,5.6,1.4c1.1,1.8,0.3,4.3-1.7,5.3
		c-1.9,1-4.5,0.1-5.4-1.9c-0.2-0.5-0.3-1-0.5-1.5C448.2,35.1,448.5,34.6,448.7,34.1z"/>
	<path fill="#579B8F" d="M368.5,50.5c-0.1,1.3-1.3,2.7-2.7,3c-2.4,0.5-4.8-1.1-5-3.5c-0.1-1.5,0.5-2.7,1.8-3.6
		c1.3-0.8,2.5-0.9,3.9-0.2c0.5,0.3,0.9,0.6,1.3,1c0.6,0.4,0.9,0.9,0.7,1.7C368.5,49.5,368.7,50,368.5,50.5z"/>
	<path fill="#B38867" d="M425.8,139.2c-2.2,0-4-1.7-4-3.8c0-2.1,1.7-4,3.9-4c2.1,0,4,1.7,4,3.9C429.6,137.4,427.9,139.1,425.8,139.2
		z"/>
	<path fill="#7D9869" d="M351.9,131.1c-2.1,0-3.9-1.7-3.9-3.8c0-2.1,1.8-4,3.8-4c2.3,0.1,4,1.5,4,4.1
		C355.9,129.4,354,131.1,351.9,131.1z"/>
	<path fill="#9EB782" d="M450.2,152c0.2,1.9-1.8,3.9-3.8,3.9c-2.3,0-4-1.8-4-3.9c-0.1-1.9,1.9-4,3.8-3.9
		C448.5,148.2,450.1,149.8,450.2,152z"/>
	<path fill="#5EA094" d="M487.8,71.5c0,2.1-1.8,3.8-3.9,3.8c-2.1-0.1-4-1.8-4-3.8c0-2.1,1.9-4,4-3.9
		C486.1,67.5,487.8,69.2,487.8,71.5z"/>
	<path fill="#A0B784" d="M401.9,107.5c-2.3,0.3-3.8-2.3-3.8-3.8c0.1-2.6,2-3.9,4.1-4c2.1-0.1,4,2.1,3.8,4.3
		C405.9,105.7,404.3,107.9,401.9,107.5z"/>
	<path fill="#7E986A" d="M376.9,70.8c0,2.2-1.7,4-3.9,3.9c-1.9,0-3.9-1.7-3.8-3.8c0.1-2.1,1.7-3.8,3.9-3.8
		C375.3,67,376.9,68.6,376.9,70.8z"/>
	<path fill="#689983" d="M442.6,172.4c0.3-0.1,0.3-0.3,0.3-0.6c0.1-1.9,1.7-3.4,3.7-3.5c1.9-0.1,3.6,1.3,3.9,3.2
		c0.4,2.3-1.1,4.2-3.8,4.5c-0.6,0.4-1,0.3-1.7-0.3c-0.7-0.3-1.1-1.1-1.7-1.3C443,173.6,442.6,173,442.6,172.4z"/>
	<path fill="#669A81" d="M342.8,120.7c-3,0-4.9-2.5-3.9-5.3c0.2-0.6,0.5-1.1,1.1-1.3s1-0.9,1.8-1.1c1.5-0.2,3.4,0.7,4.1,2.1
		c0.7,1.5,0.4,3.5-0.8,4.6c-0.3,0.3-0.6,0.5-0.9,0.7C343.9,120.8,343.3,120.9,342.8,120.7z"/>
	<path fill="#7D986A" d="M440.7,57.4c0,2.3-1.7,3.9-3.9,3.9c-2.1-0.1-3.8-1.6-3.8-4c0-2.1,1.8-3.8,4-3.8
		C439.1,53.6,440.7,55.2,440.7,57.4z"/>
	<path fill="#7A9566" d="M422,178.8c0.2,1.9-1.7,3.9-3.8,3.9c-2.2-0.1-4-1.7-4-3.8c0-2.1,1.7-3.8,3.9-3.9
		C420.4,174.9,422.2,177,422,178.8z"/>
	<path fill="#6A9E82" d="M394,17.8c0.6,0.1,0.4-0.5,0.5-0.7c0.4-1.7,1.6-2.9,3.2-3.1c1.8-0.2,3.3,0.5,4.1,2c0.9,1.6,0.3,3.8-1.2,4.8
		c-1.7,1.1-3.9,0.9-5.2-0.7c-0.2-0.3-0.4-0.9-0.8-0.2C394.3,19.2,394.2,18.5,394,17.8z"/>
	<path fill="#BA9674" d="M413.5,147.5c-1.9,0.1-3.9-1.6-3.9-3.8c0-2,1.9-3.8,4-3.8c2.1,0,3.8,1.7,3.8,4
		C417.3,145.9,415.6,147.5,413.5,147.5z"/>
	<path fill="#5B9C8F" d="M419.6,17.6c-2,0.1-3.8-1.9-3.8-3.8c0.1-2.1,1.7-3.8,3.8-3.8c2.1,0,3.9,1.8,3.8,4
		C423.4,16,421.7,17.6,419.6,17.6z"/>
	<path fill="#679981" d="M426.6,172.1c0.1-0.1,0.1-0.4-0.1-0.4c-0.9-0.1-1.7-0.6-2.5-1.1c-0.1,0-0.1,0-0.3,0c-0.3,0-0.4-0.1-0.5-0.4
		c0.4-0.4,0-0.7-0.1-1.1c-0.7-2,0.3-4,2.2-4.8c1.7-0.7,4,0.3,4.8,2c0.7,1.7,0.2,3.6-1.5,4.7c-0.5,0.4-0.5,0.6,0.1,0.9
		C428.1,172.4,427.3,172.2,426.6,172.1z"/>
	<path fill="#B18766" d="M473.9,56.1c-1.6,0.1-2.7-0.9-3.2-2.2c-0.5-1.3-0.1-2.9,1.1-3.8c0.2-0.1,0.5-0.1,0.5-0.5
		c-0.1-0.3-0.4-0.3-0.6-0.3c-0.7-0.3-1.2-0.8-1.3-1.6c0-0.7,0.3-1.3,0.9-1.6c0.7-0.3,1.6-0.2,2.1,0.4c0.5,0.6,0.6,1.5,0.1,2.2
		c-0.5,0.7-0.4,0.7,0.4,0.8c1.7,0.1,2.9,1.3,3.2,2.8c0.3,1.5-0.5,2.9-2,3.6C474.9,56.1,474.4,56.1,473.9,56.1z"/>
	<path fill="#9EB680" d="M369,32.4c0-2.2,1.7-3.9,3.9-3.8c2,0,3.7,1.7,3.7,3.6c0,2.7-2.1,4-3.9,4C370.7,36.1,369,34.5,369,32.4z"/>
	<path fill="#B08665" d="M435,34.9c1.5-0.2,2.9,0,4,1.3c1,1.1,1.2,2.5,0.7,3.9c-0.6,1.5-1.9,2.3-3.5,2.3c-1.5,0-2.6-0.7-3.4-2
		c-0.1-0.2-0.2-0.5-0.5-0.6c-0.2-0.3-0.3-0.5-0.3-0.9c0.4,0,0.3-0.3,0.3-0.5c0.1-1.5,0.8-2.5,2.1-3.2C434.6,35,434.8,34.9,435,34.9z
		"/>
	<path fill="#5A9E91" d="M413.6,100.2c-2.1,0-3.8-1.7-3.8-3.9c0-1.9,1.7-3.7,3.7-3.7c2.2,0,4,1.7,4,3.8
		C417.3,98.8,415.4,100.3,413.6,100.2z"/>
	<path fill="#66855E" d="M419.1,157.1c0,2.2-1.6,3.8-3.8,3.8c-2,0-3.8-1.8-3.8-3.8c0-2.1,1.7-3.8,3.9-3.8
		C417.6,153.4,419.2,155.1,419.1,157.1z"/>
	<path fill="#9CB57E" d="M418.2,161.4c2.1-0.1,4,2,3.8,4.1c-0.2,1.9-2.1,3.6-4,3.5c-2.3-0.1-3.8-1.9-3.7-4.3
		C414.5,163.3,415.9,161.4,418.2,161.4z"/>
	<path fill="#5A9D8F" d="M382.4,49.8c0,1.9-1.7,3.7-3.7,3.7c-2.1,0-3.9-1.7-4-3.8c-0.1-1.9,1.8-3.8,3.8-3.8
		C380.7,45.9,382.4,47.7,382.4,49.8z"/>
	<path fill="#7F9869" d="M396.6,152.2c0-2.1,1.6-3.8,3.8-3.8c2.1,0,3.8,1.6,3.8,3.7s-1.7,3.9-3.7,3.9
		C398.2,155.9,396.6,154.3,396.6,152.2z"/>
	<path fill="#B79371" d="M394,60.1c-0.5,0.3-1.1,0.7-1.7,0.9c-1.5,0.6-3.5,0-4.4-1.3c-1.1-1.5-0.9-3.4,0.3-4.7
		c1.3-1.3,3-1.6,4.6-0.8c1.7,0.9,2.3,2.5,1.8,4.4c-0.1,0.3-0.3,0.7-0.1,1C394.6,59.9,394.4,60.1,394,60.1z"/>
	<path fill="#62A297" d="M499.5,53.3c-0.1,2.3-1.7,3.7-3.7,3.7c-2.2-0.1-3.8-1.4-3.8-3.9c0-2.1,1.8-3.8,3.8-3.8
		C497.7,49.4,499.5,51.4,499.5,53.3z"/>
	<path fill="#B89270" d="M469.8,70.3c2.1-0.1,3.8,1.6,3.8,3.6c0,2.3-1.8,3.8-3.6,3.8c-2.4,0-4-1.6-4-3.8
		C465.9,71.8,467.7,70.1,469.8,70.3z"/>
	<path fill="#9CB47E" d="M418.9,41.8c0.6-0.1,0.3-0.5,0.3-0.9c0-2,0.9-3.3,2.8-3.9c2-0.6,3.8,0.5,4.6,2.5c0.7,1.8-0.5,4-2.3,4.6
		c-1.3,0.5-2.5,0.3-3.6-0.6c-0.8-0.6-0.8-0.6-1.1,0.3C419.3,43.2,419.2,42.4,418.9,41.8z"/>
	<path fill="#679C82" d="M340.1,73.4c0-2.1,1.7-3.8,3.8-3.8c2,0,3.7,1.7,3.7,3.9c0,1.9-1.7,3.7-3.7,3.7
		C341.7,77.2,340.1,75.5,340.1,73.4z"/>
	<path fill="#A1B885" d="M353.7,106.1c0.2,1.9-2.1,3.6-3.8,3.5c-2.3-0.3-3.9-1.7-3.6-4.3c0.2-1.9,1.9-3.4,3.8-3.3
		C352.1,102.2,353.9,104,353.7,106.1z"/>
	<path fill="#5C9D90" d="M443.8,17.5c1.7,1.1,2.1,2.9,1.3,4.8c-0.7,1.6-2.5,2.4-4.4,1.9c-1.7-0.5-2.9-2.3-2.7-4.1
		c0.3-1.5,1.1-2.7,2.7-3.2c0.7-0.1,1.4-0.1,2.1-0.1C443.4,16.9,443.6,17.3,443.8,17.5z"/>
	<path fill="#65835C" d="M384.3,27.8c0,1.9-1.7,3.7-3.7,3.7s-3.8-1.7-3.8-3.7c0-2,1.7-3.7,3.7-3.7C382.6,24.1,384.2,25.7,384.3,27.8
		z"/>
	<path fill="#68865F" d="M352,86.7c1.9,0,3.6,1.7,3.6,3.7c0,2.1-1.7,3.8-3.8,3.7c-2,0-3.6-1.7-3.6-3.8
		C348.2,88.3,349.8,86.7,352,86.7z"/>
	<path fill="#9CB47F" d="M465.3,21.8c2.1,0.1,3.6,1.6,3.7,3.6c0.1,2.1-1.7,3.8-3.8,3.8c-1.8,0.1-3.8-1.8-3.7-3.8
		C461.5,23.6,462.8,21.9,465.3,21.8z"/>
	<path fill="#5B9D90" d="M472.9,34.5c1.5,0.6,2.4,2.2,2.1,3.8c-0.3,1.5-1.7,2.8-3.2,2.9c-0.4,0.1-0.8,0.1-1.3,0
		c-0.3,0.2-0.7,0.1-0.9-0.2c-0.3-0.3-0.7-0.6-1.1-0.9c-1.2-1.3-1.3-2.9-0.4-4.4c0.1-0.2,0.5-0.4,0.1-0.7c0.4-0.5,0.9-0.8,1.4-1
		c0.4,0.1,0.9,0,1.3,0C471.7,33.9,472.4,34,472.9,34.5z"/>
	<path fill="#579B8C" d="M455,151c2-0.1,3.8,1.5,3.8,3.6c0.1,2-1.6,3.7-3.8,3.8c-1.9,0.1-3.6-1.5-3.7-3.6
		C451.3,152.7,452.8,151.1,455,151z"/>
	<path fill="#5A9C8F" d="M417.6,50c-0.7,1.5-1.8,2.3-3.5,2.3c-1.6,0-2.7-0.8-3.3-2.2c-0.6-1.4-0.3-3,0.8-4c0.9-0.9,2.1-1.3,3.4-0.9
		c0.3,0.1,0.6,0.3,0.7-0.2c0.5,0.1,0.9,0.2,1.1,0.6c0,0.7,0.6,1,0.9,1.5C418,48,418.4,49,417.6,50z"/>
	<path fill="#B28867" d="M367.5,96.8c0,2-1.7,3.6-3.7,3.7c-2,0-3.8-1.7-3.8-3.8c0-1.9,1.7-3.6,3.6-3.6
		C365.8,93,367.5,94.7,367.5,96.8z"/>
	<path fill="#7F996A" d="M408.8,160.2c2,0,3.7,1.7,3.7,3.7c-0.1,2-1.4,3.6-3.7,3.7c-2.4,0-3.7-1.9-3.7-3.6
		C405.1,161.8,406.8,160.2,408.8,160.2z"/>
	<path fill="#599C8F" d="M360.7,45.7c0,2-1.7,3.6-3.7,3.6c-2.1,0-3.7-1.7-3.7-3.7c0-2,1.6-3.7,3.6-3.6
		C359.2,41.9,360.7,43.4,360.7,45.7z"/>
	<path fill="#5C9E92" d="M345,80.4c0-2.1,1.8-3.8,3.8-3.7c1.9,0.1,3.6,1.9,3.6,3.9c-0.1,2.1-1.7,3.6-4,3.5
		C346.5,84.1,345,82.3,345,80.4z"/>
	<path fill="#7B9568" d="M428.1,81.6c0.1,1.9-1.5,3.6-3.7,3.6c-1.9,0.1-3.6-1.7-3.6-3.6c0-2.1,1.6-3.8,3.7-3.8
		C426.5,77.8,428.1,79.4,428.1,81.6z"/>
	<path fill="#BA9875" d="M474.1,132.1c0,2.1-1.7,3.7-3.8,3.6c-2.1,0-3.7-1.7-3.7-3.8c0-2,1.7-3.6,3.8-3.6
		C472.5,128.5,474.1,130.2,474.1,132.1z"/>
	<path fill="#54998D" d="M443.6,166.6c-0.1,2.3-1.8,3.6-3.6,3.7c-2.1,0.1-3.9-1.8-3.8-3.8c0.1-2.1,1.7-3.6,3.8-3.6
		C442,162.9,443.6,164.5,443.6,166.6z"/>
	<path fill="#579B8D" d="M439.4,162c-2.1,0-3.6-1.6-3.6-3.8c0-2,1.7-3.7,3.8-3.6c1.9,0.1,3.6,1.9,3.6,3.8
		C443,160.5,441.4,162,439.4,162z"/>
	<path fill="#668660" d="M439.2,85.3c2.1,0.1,3.7,1.7,3.6,3.9c-0.1,1.9-1.8,3.6-3.7,3.6c-2-0.1-3.7-1.7-3.7-3.8
		C435.6,86.9,437.2,85.3,439.2,85.3z"/>
	<path fill="#65825C" d="M431.2,72.2c1.5,0.6,2.4,1.7,2.4,3.4c0,1.5-0.6,2.7-2,3.4s-2.8,0.6-4-0.5c-1.1-1-1.5-2.3-1.1-3.8
		c0.4-1.5,1.5-2.5,3.3-2.7C430.2,71.9,430.7,71.8,431.2,72.2z"/>
	<path fill="#61815B" d="M390.7,42.2c-0.1-2,1.6-3.7,3.6-3.8c2-0.1,3.7,1.7,3.7,3.8c0,2-1.6,3.6-3.8,3.6
		C392.5,45.8,390.8,44.2,390.7,42.2z"/>
	<path fill="#679C81" d="M353.7,79.8c0-2.1,1.6-3.6,3.7-3.6c1.9,0,3.6,1.7,3.6,3.6c0,2.1-1.6,3.7-3.6,3.7
		C355.3,83.6,353.7,81.9,353.7,79.8z"/>
	<path fill="#A0B784" d="M484.7,90.5c0-2.2,1.5-3.7,3.8-3.7c1.9,0,3.6,1.7,3.6,3.7c0,2.1-1.9,3.8-3.7,3.7
		C486.2,94.2,484.7,92.5,484.7,90.5z"/>
	<path fill="#64815B" d="M375.6,43.6c-1-0.1-2.1-0.6-2.8-1.8c-0.7-1.3-0.7-2.5,0.1-3.8c0.3-0.4,0.6-0.8,1.2-0.9
		c0.3-0.1,0.7-0.1,1-0.3c0.8-0.6,1.6-0.6,2.5-0.2c0.9,0.4,1.6,1.1,1.9,2.1C380.3,41.2,378.5,43.6,375.6,43.6z"/>
	<path fill="#6DA084" d="M472.9,34.5c-0.7-0.3-1.3-0.3-2-0.3c0.2-0.3,0.3-0.6-0.2-0.8c-0.2-0.1-0.5-0.1-0.6-0.3
		c0.2-1.1-0.2-1.9-0.8-2.7c0.3-0.1,0.3-0.4,0.4-0.6c0.6-1.7,2.1-2.3,3.5-2.1c1.7,0.3,2.8,1.6,2.8,3.3c0,0.5-0.2,0.8-0.3,1.2
		c-0.2,0.5-0.2,0.7,0.5,0.5c0.8-0.2,1.7,0.4,2.1,1.1c0.3,0.7,0.1,1.5-0.5,2c-0.6,0.5-1.5,0.5-2.2,0c-0.8-0.6-0.7-1.4-0.5-2.3
		c-0.7-0.1-1.3,0.5-2.1,0.5C472.5,34,472.8,34.3,472.9,34.5z"/>
	<path fill="#659981" d="M352.6,136.9c1.9-0.1,3.7,1.6,3.7,3.6c0,1.8-1.4,3.6-3.6,3.6c-1.9,0.1-3.6-1.5-3.7-3.4
		C348.8,138.6,350.3,137,352.6,136.9z"/>
	<path fill="#5A9C8F" d="M406.9,24.6c0.1,1.9-1.5,3.7-3.5,3.7c-2.1-0.1-3.7-1.3-3.8-3.7c-0.1-1.9,1.5-3.6,3.4-3.6
		C405.4,21,406.9,22.5,406.9,24.6z"/>
	<path fill="#67855D" d="M373.2,80.8c1.8-0.1,3.5,1.5,3.6,3.3c0.1,2.1-1.4,3.8-3.5,3.9c-1.9,0.1-3.7-1.5-3.8-3.5
		C369.5,82.7,371,80.7,373.2,80.8z"/>
	<path fill="#7C9669" d="M400.9,79c-0.4-0.3-0.9-0.3-1.4-0.6c-1.4-0.9-2.1-2.6-1.6-4c0.7-1.9,2.2-2.6,3.8-2.5c1.7,0.1,3,1.5,3.3,3.2
		c0.2,1.5-0.7,3.1-2.3,3.8c-0.2,0.1-0.4,0.2-0.7,0.3C401.7,79.2,401.3,79.2,400.9,79z"/>
	<path fill="#7B9668" d="M368.6,146.8c0,1.9-1.5,3.6-3.5,3.6c-2,0-3.6-1.6-3.6-3.6c0-1.9,1.6-3.6,3.6-3.6
		C367,143.1,368.6,144.8,368.6,146.8z"/>
	<path fill="#7D9769" d="M379.8,94.1c-1.9,0-3.5-1.5-3.5-3.5c0-1.9,1.6-3.6,3.6-3.6c2,0,3.7,1.7,3.7,3.6
		C383.5,92.6,382,94.1,379.8,94.1z"/>
	<path fill="#B18665" d="M419.4,55.8c0.2,0.1,0.3,0.3,0.5,0.5c1.6,1.2,1.9,3.6,0.7,5.2c-1.3,1.7-3.7,1.8-5.2,0.5
		c-1.6-1.5-1.6-3.8-0.1-5.2c0.7-0.7,1.7-0.9,2.6-1.1C418.6,55.1,419,55.4,419.4,55.8z"/>
	<path fill="#9E7E67" d="M459,108.7c0,2-1.5,3.7-3.6,3.8c-1.9,0-3.7-1.6-3.7-3.6c0-1.9,1.7-3.6,3.7-3.6
		C457.3,105.2,459,106.9,459,108.7z"/>
	<path fill="#7C9769" d="M448.2,95.3c0-1.9,1.7-3.6,3.7-3.6c2.2,0.1,3.5,1.7,3.4,3.7c0,1.9-1.6,3.5-3.6,3.5
		C449.8,98.9,448.2,97.2,448.2,95.3z"/>
	<path fill="#589B8E" d="M417.2,102.6c0.6,0.5,1.1,1.1,1.5,1.8c0.7,2-0.1,3.5-1.6,4.4c-1.5,0.9-3.4,0.4-4.5-0.9
		c-1.1-1.3-1.1-3.2,0-4.4C413.7,102,415.5,101.6,417.2,102.6z"/>
	<path fill="#BB9774" d="M384.4,132.1c1.1-0.1,1.8,0.6,1.8,1.6c0,0.9-0.7,1.6-1.5,1.6c-0.9,0-1.7-0.8-1.6-1.7
		c0.1-0.9-0.3-0.6-0.7-0.4c-1.3,0.5-2.6,0.3-3.6-0.7c-0.9-1-1.1-2.5-0.5-3.7c0.6-1.1,2-1.7,3.3-1.6c2,0.3,3.2,2.4,2.5,4.3
		C384,131.6,383.4,132.3,384.4,132.1z"/>
	<path fill="#7C9668" d="M425.3,148.2c0-2,1.5-3.6,3.5-3.6s3.6,1.6,3.6,3.6s-1.6,3.6-3.6,3.6C427,151.8,425.3,150.2,425.3,148.2z"/>
	<path fill="#699B83" d="M503.6,127.6c-2.5-0.9-3.5-3.2-2.3-5.3c0.7-1.3,2.2-2,3.7-1.7c1.4,0.3,2.7,1.5,2.9,2.9
		c0.3,1.5-0.5,3.1-1.8,3.8c-0.4,0.2-0.9,0.5-1.3,0.4C504.3,127.8,503.9,127.8,503.6,127.6z"/>
	<path fill="#6B9E83" d="M463.5,32.9c0,2-1.6,3.6-3.7,3.6c-1.9,0-3.5-1.7-3.4-3.6c0-1.8,1.8-3.6,3.7-3.5
		C462,29.4,463.5,31,463.5,32.9z"/>
	<path fill="#679A82" d="M418.6,118.1c0.5-0.3,1.1,0,1.7-0.3c-0.8-0.7-1.4-1.5-1.6-2.5c-0.1-0.3-0.3-0.2-0.5-0.1
		c-0.1-0.1-0.1-0.3,0-0.4c0.5,0.1,0.5-0.2,0.5-0.5c0.3-1.5,1.1-2.5,2.6-2.9c1.4-0.4,2.9,0.2,3.8,1.5c0.8,1.3,0.7,3-0.3,4.1
		c-0.7,0.9-1.7,1.3-2.8,1.3c-0.3,0-0.7-0.3-0.7,0.3C420.3,118.4,419.4,118.4,418.6,118.1z"/>
	<path fill="#67855F" d="M465.5,132.7c0,2-1.5,3.4-3.6,3.4c-1.9-0.1-3.4-1.6-3.4-3.5c0-1.9,1.6-3.5,3.6-3.5
		C464.1,129.1,465.5,130.7,465.5,132.7z"/>
	<path fill="#9EB784" d="M407.4,120.3c0.3,0.3,0.5,0.1,0.7-0.3c0.9-2,2.8-2.5,4.5-1.8c1.2,0.5,1.9,1.4,2.2,2.6
		c0.3,1.4-0.4,2.5-1.5,3.5c-1.7,1.3-4.4,0.4-5.2-1.7c-0.1-0.3-0.2-0.7-0.6-0.5C407.4,121.5,407.3,120.9,407.4,120.3z"/>
	<path fill="#669A81" d="M398.6,123c-1.9,0-3.5-1.6-3.5-3.5c0-1.7,1.9-3.6,3.6-3.5c1.9,0.1,3.5,1.7,3.4,3.5
		C402.1,121.5,400.5,123.1,398.6,123z"/>
	<path fill="#689D82" d="M367,69.5c0,2-1.4,3.4-3.5,3.4c-1.9,0-3.4-1.5-3.4-3.4c0-2,1.4-3.5,3.3-3.5C365.5,65.9,367,67.4,367,69.5z"
		/>
	<path fill="#6A9D83" d="M450.9,87c0-2,1.5-3.5,3.4-3.5c1.9,0,3.6,1.5,3.6,3.4c0,1.9-1.5,3.6-3.5,3.6
		C452.5,90.4,450.9,88.9,450.9,87z"/>
	<path fill="#698760" d="M493.4,144.1c-1.1-0.9-1.5-2.1-1.1-3.6c0.3-1.3,1.3-2.2,2.6-2.5c1.4-0.3,2.5,0.2,3.4,1.3
		c0.9,1.1,1.1,2.3,0.4,3.6c-0.6,1.2-1.6,1.9-3.1,1.9c-0.4,0-0.9,0.1-1.3-0.1C493.9,144.8,493.6,144.5,493.4,144.1z"/>
	<path fill="#609F93" d="M445.9,43.9c0,0.3,0.3,0.3,0.5,0.3c1.9,0.2,2.7,1.5,3,3c0.3,1.3-0.7,2.9-1.9,3.5c-1.7,0.8-3.8,0.1-4.6-1.6
		c-0.8-1.7,0-3.9,1.7-4.6c0.3-0.1,0.9-0.1,0.9-0.6C445.6,43.8,445.8,43.8,445.9,43.9z"/>
	<path fill="#7F9A6C" d="M503.1,72.8c0,1.9-1.5,3.4-3.4,3.4c-1.9,0-3.5-1.6-3.5-3.6c0-1.7,1.7-3.4,3.6-3.4
		C501.6,69.4,503.1,70.9,503.1,72.8z"/>
	<path fill="#7D9769" d="M382.6,153c-1.9,0-3.4-1.5-3.4-3.5c0-1.7,1.6-3.4,3.4-3.4c1.9,0,3.5,1.5,3.5,3.4
		C386.1,151.4,384.6,152.9,382.6,153z"/>
	<path fill="#9C7E68" d="M465.3,53.5c0.1-0.5-0.4-0.7-0.7-0.9c-1-1-1.3-2.2-0.8-3.6s1.5-2.1,2.9-2.2c1.3-0.1,2.5,0.3,3.3,1.5
		c0.7,1.1,0.8,2.4,0.1,3.6c-0.9,1.4-2.2,1.8-3.8,1.5c-0.3-0.1-0.5-0.2-0.7,0C465.4,53.6,465.4,53.6,465.3,53.5z"/>
	<path fill="#9DB47F" d="M449.5,21.9c-1.9,0.1-3.4-1.4-3.5-3.4c-0.1-1.7,1.6-3.4,3.4-3.4c2,0,3.6,1.5,3.6,3.4
		C452.9,20.3,451.2,22,449.5,21.9z"/>
	<path fill="#5D9D90" d="M477.5,118.5c-0.1,0.7,0.3,1.3,0.2,1.9c-0.3,1.6-1.5,2.8-3.2,2.9s-3.2-1.1-3.6-2.7
		c-0.3-1.5,0.6-3.2,2.1-3.8c1.5-0.6,2.9-0.2,4.2,1.1C477.3,118.2,477.5,118.3,477.5,118.5z"/>
	<path fill="#9A7B68" d="M474.6,84.4c-0.5-0.1-0.9,0.3-1.3,0.4c-1.6,0.7-4.3-0.7-4.4-3.2c-0.1-1.3,1-2.8,2.3-3.3
		c1.3-0.5,3,0,3.9,1.1c0.9,1.2,0.9,2.8,0.1,4C475,83.8,474.5,84,474.6,84.4L474.6,84.4z"/>
	<path fill="#5A9C8E" d="M392.3,74.1c0.7,0,1.4,0,2.1,0c1.3,0.7,2.2,1.7,2.1,3.4c-0.1,1.7-1.3,3.1-3.2,3.3c-1.7,0.1-3.3-1.1-3.6-2.7
		C389.5,76,390.5,74.4,392.3,74.1z"/>
	<path fill="#A0B883" d="M502.6,80.3c0.2,1.7-1.6,3.5-3.2,3.5c-2.3,0-3.6-1.5-3.6-3.5c0-1.9,1.5-3.5,3.4-3.5
		C501,76.9,502.7,78.4,502.6,80.3z"/>
	<path fill="#9C7E68" d="M406.2,60c0-1.9,1.5-3.4,3.4-3.4c1.8,0,3.4,1.6,3.4,3.4c0,1.9-1.5,3.4-3.4,3.4
		C407.6,63.5,406.2,61.9,406.2,60z"/>
	<path fill="#9D7D66" d="M381.1,85.5c-1.9,0-3.5-1.5-3.5-3.4c0-1.8,1.5-3.4,3.4-3.4c1.8,0,3.4,1.5,3.5,3.3
		C384.5,83.9,383,85.5,381.1,85.5z"/>
	<path fill="#599A8C" d="M371,119.9c-1.9,0-3.4-1.5-3.3-3.6c0-1.7,1.7-3.3,3.5-3.2c1.7,0.1,3.4,1.6,3.4,3.4
		C374.5,118.5,373,119.9,371,119.9z"/>
	<path fill="#5A9C8F" d="M444.7,129.8c-1.8,0-3.4-1.6-3.4-3.5c0-1.7,1.6-3.3,3.5-3.3c1.9,0,3.4,1.5,3.4,3.4
		C448.1,128.2,446.5,129.8,444.7,129.8z"/>
	<path fill="#5E9E91" d="M340,83.5c0.7,0,1.1,0.3,1.4,0.9c0.3,0.6,0.2,1.3-0.3,1.7c-0.7,0.5-0.6,0.8,0.1,1.2
		c1.1,0.7,1.6,2.1,1.3,3.4c-0.3,0.9-1.5,1.9-2.6,2.1c-1.1,0.1-2.5-0.7-2.9-1.8c-0.6-1.5-0.1-3.4,1.8-4c0.7-0.2,0.7-0.3,0.2-0.9
		c-0.5-0.5-0.6-1.1-0.3-1.7C338.9,83.7,339.3,83.4,340,83.5z"/>
	<path fill="#679981" d="M399.8,134.5c0.5-0.1,0.5-0.6,0.7-0.9c0.7-1.2,1.7-1.9,3.2-1.9c1.4,0.1,2.4,0.8,2.9,2.1
		c0.7,1.7-0.1,3.7-1.7,4.4c-1.7,0.7-3.7-0.1-4.5-1.8c-0.2-0.5,0-1.1-0.5-1.5C399.7,134.7,399.7,134.6,399.8,134.5z"/>
	<path fill="#7E996A" d="M461.1,151.4c-2.4,0.3-3.9-1.5-4-3.2c-0.1-1.7,1-3.2,2.7-3.5c1.5-0.4,3.3,0.5,3.9,2.1
		c0.6,1.5-0.1,3.4-1.5,4.2c-0.2,0.1-0.4,0.2-0.6,0.3S461.3,151.5,461.1,151.4z"/>
	<path fill="#7D986A" d="M442.5,112.2c1.9,0,3.5,1.5,3.5,3.4c0,1.8-1.5,3.4-3.4,3.4c-1.9,0-3.4-1.5-3.4-3.5
		C439.2,113.8,440.7,112.2,442.5,112.2z"/>
	<path fill="#7E986C" d="M499.1,88c0.1,1.7-1.3,3.4-3.1,3.5c-1.9,0.1-3.5-1.4-3.6-3.3c-0.1-1.7,1.3-3.5,2.9-3.5
		C497.5,84.5,499,85.9,499.1,88z"/>
	<path fill="#689B82" d="M388.3,112.5c0,1.8-1.6,3.3-3.5,3.2c-1.8,0-3.3-1.5-3.3-3.4c0-1.8,1.6-3.3,3.5-3.3
		C386.9,109.1,388.4,110.5,388.3,112.5z"/>
	<path fill="#A1B985" d="M499.2,61.7c0.4,0.1,0.8-0.1,1.2-0.2c1.3-0.3,2.7,0.2,3.6,1.4c0.7,1,0.8,2.6,0.1,3.6c-1,1.5-2.7,2-4.4,1.3
		c-1.5-0.7-2.3-2.5-1.7-4.2c0.3-0.9,0-1-0.7-1.1C498.1,62.3,498.7,62.2,499.2,61.7z"/>
	<path fill="#809A6E" d="M493.2,65.1c-1.1,0.2-2.1,0.3-3.1-0.3c-1.5-1-2.1-3.1-1.1-4.7c0.9-1.5,2.9-2,4.4-1.1
		c1.7,0.9,2.2,2.9,1.3,4.6c-0.1,0.1-0.1,0.3-0.3,0.4C494.4,64.6,494.1,65.2,493.2,65.1z"/>
	<path fill="#659880" d="M366,142.7c-1.8,0-3.4-1.4-3.4-3.2c-0.1-1.9,1.5-3.4,3.4-3.4s3.4,1.5,3.4,3.3
		C369.4,141.2,367.9,142.7,366,142.7z"/>
	<path fill="#A0B884" d="M493.6,118.1c0-1.6,1.6-3.4,3.4-3.4c1.7,0.1,3.4,1.6,3.4,3.4c0,1.7-1.7,3.4-3.4,3.4
		C495,121.6,493.6,120.1,493.6,118.1z"/>
	<path fill="#669C81" d="M396.4,32.4c0-1.9,1.5-3.4,3.4-3.4c1.8,0,3.3,1.5,3.4,3.4c0,1.7-1.6,3.4-3.4,3.4
		C397.9,35.8,396.4,34.3,396.4,32.4z"/>
	<path fill="#A0B884" d="M496,106c-1.9,0-3.4-1.5-3.4-3.4c0-1.6,1.5-3.3,3-3.4c2.3-0.1,3.8,1.7,3.8,3.5
		C499.4,104.5,497.8,106,496,106z"/>
	<path fill="#6B9E83" d="M478.3,74.5c1.3,0.1,2.2,0.8,2.8,1.9c0.1,0.2,0,0.5,0.3,0.5c0.3,0,0.3-0.3,0.4-0.5c0.4-0.7,1.1-1,1.7-0.7
		c0.7,0.3,1,0.8,1,1.5c0,0.6-0.3,1-0.9,1.2c-0.7,0.3-1.3,0-1.7-0.5c-0.1-0.1-0.1-0.5-0.5-0.4c-0.3,0.1-0.3,0.4-0.3,0.6
		c-0.4,1.4-1.4,2.2-2.9,2.3c-1.3,0.1-2.6-0.9-2.9-2c-0.3-1.4-0.1-2.5,1.2-3.5C477.1,74.7,477.8,74.6,478.3,74.5z"/>
	<path fill="#9DB57F" d="M397.4,48.3c-0.6,0.1-0.3,0.6-0.3,0.9c0,2-1,3.3-3,3.6c-1.3,0.2-3-0.7-3.6-2c-0.5-1.2-0.1-2.9,1-3.8
		c1.6-1.2,3.2-1.1,4.6,0.3c0.2,0.2,0.3,0.7,0.9,0.3C397.4,47.8,397.4,48.1,397.4,48.3z"/>
	<path fill="#688860" d="M464.1,163.6c-1.9,0-3.4-1.5-3.4-3.3c0-1.7,1.6-3.4,3.3-3.3c1.9,0.1,3.4,1.5,3.4,3.3
		C467.4,162.2,466,163.6,464.1,163.6z"/>
	<path fill="#688860" d="M386.1,157.6c1.8,0,3.3,1.4,3.3,3.2c0,1.9-1.5,3.4-3.4,3.4c-1.8,0-3.2-1.5-3.3-3.3
		C382.8,159,384.2,157.6,386.1,157.6z"/>
	<path fill="#5B9D91" d="M358.2,101.6c1-0.8,2.1-1.3,3.5-0.9c1.3,0.4,2.2,1.5,2.3,2.9c0.1,1.5-0.7,2.8-2,3.3
		c-1.4,0.5-2.7,0.3-3.8-0.8c-1.1-1.1-1-2.4-0.5-3.7C357.8,102,357.8,101.7,358.2,101.6z"/>
	<path fill="#66835D" d="M445.8,63.7c0,1.9-1.5,3.3-3.3,3.3c-1.7,0-3.3-1.6-3.2-3.4c0-1.9,1.5-3.3,3.4-3.3
		C444.4,60.5,445.8,61.9,445.8,63.7z"/>
	<path fill="#689B82" d="M412.5,74.6c-0.3-0.1-0.7-0.2-1-0.5c0.1-0.4-0.3-0.5-0.5-0.7c-0.4-0.4-0.7-0.8-0.9-1.3
		c-0.6-0.7-0.6-0.9-0.2-1.6c0.7-1.9,1.7-2.7,3.4-2.7c1.7,0,3.2,1.4,3.2,3.2c0.1,1.7-1.2,3.2-2.9,3.4c-0.3,0-0.5,0-0.7,0
		C412.4,74.1,412.5,74.3,412.5,74.6z"/>
	<path fill="#7E9A6C" d="M443,69.9c0.4,0.3,0.5,0.1,0.5-0.3c0.3-1.3,1.1-2.3,2.5-2.7c1.3-0.3,2.8,0.2,3.6,1.4
		c0.8,1.3,0.7,2.8-0.3,3.9c-0.9,1-2.5,1.4-3.8,0.8c-0.7-0.3-1.3-0.7-1.6-1.4c-0.3-0.5-0.5-0.3-0.7,0C442.9,71.1,442.8,70.6,443,69.9
		z"/>
	<path fill="#699C83" d="M362.1,115.8c-0.4-0.4-0.8-0.8-1.1-1.3c-0.5-1.5-0.5-2.9,0.8-4c1.1-1,2.9-1.1,4.2-0.2s1.7,2.6,1.1,3.9
		c-0.7,1.6-2.1,2.3-3.8,1.9C362.9,116,362.5,115.9,362.1,115.8z"/>
	<path fill="#5B9D91" d="M441.4,77.1c0,1.9-1.4,3.4-3.3,3.4c-1.6,0-3.2-1.6-3.2-3.2c0-1.9,1.4-3.4,3.3-3.4
		C439.9,73.9,441.4,75.2,441.4,77.1z"/>
	<path fill="#7E986A" d="M364.7,84.6c-0.4-0.3-0.7-0.5-1.1-0.8c-1.5-1.9-0.9-4.1,0.5-5c1.2-0.8,2.9-0.7,4,0.1c1,0.8,1.5,2.4,1,3.6
		c-0.5,1.3-1.7,2.2-3.2,2.2C365.5,84.7,365.1,84.7,364.7,84.6z"/>
	<path fill="#B99573" d="M372,102c-1.7,0-3.3-1.6-3.3-3.3c0.1-1.7,1.6-3.3,3.4-3.3c1.7,0,3.3,1.7,3.2,3.4
		C375.3,100.5,373.7,102,372,102z"/>
	<path fill="#B38666" d="M407.1,142.7c-0.2,0.5,0.2,0.5,0.5,0.7c2.1,1.2,2.2,4.2,0.1,5.5c-1.1,0.7-2.3,0.7-3.4-0.1
		c-1-0.7-1.6-1.7-1.4-2.9c0.2-1.3,1-2.3,2.3-2.7c0.3-0.1,0.7,0.1,0.7-0.5C406.3,142.4,406.7,142.3,407.1,142.7z"/>
	<path fill="#9FB882" d="M480.8,154.3c0,1.8-1.4,3.2-3.2,3.2c-1.8,0-3.3-1.5-3.3-3.3c0-1.6,1.6-3.2,3.2-3.1
		C479.4,151.2,480.7,152.4,480.8,154.3z"/>
	<path fill="#589B8E" d="M357,106.9c1.9,0,3.3,1.4,3.2,3.2c0,1.7-1.5,3.1-3.3,3.1c-1.7-0.1-3.2-1.5-3.2-3.2
		C353.8,108.2,355.1,106.9,357,106.9z"/>
	<path fill="#589B8F" d="M371.9,132.3c0.9-0.5,1.9-0.5,2.9-0.7c1.4,0.5,2.2,1.5,2.3,2.9c0.1,1.2-0.4,2.2-1.4,2.9
		c-1.4,0.9-3.3,0.6-4.4-0.7C370.4,135.4,370.6,133.5,371.9,132.3z"/>
	<path fill="#B28867" d="M414.9,89.8c-1.6,0.1-3.2-1.3-3.2-3c-0.1-1.8,1.4-3.3,3.3-3.3c1.7,0,3.1,1.5,3.1,3.2
		C418.1,88.4,416.7,89.8,414.9,89.8z"/>
	<path fill="#6C9E85" d="M507.4,109.8c-0.3-0.3-0.5-0.5-0.7-0.7c0.3,0,0.3-0.2,0.2-0.4c-0.3-0.5-0.5-1.1-0.5-1.7
		c0-0.3-0.2-0.3-0.4-0.3c-0.1-0.7,0-1.3,0.3-1.9c0.1,0.1,0.1,0.3,0.1,0.4c0.1,0.1-0.1,0.3,0.1,0.4s0.3-0.1,0.4-0.2
		c0.5-0.6,1.1-1,1.8-1.2c1.3-0.3,2.5,0.1,3.4,1.3c0.7,1.1,0.7,2.4-0.3,3.6c-0.7,0.9-2.1,1.3-3.4,0.9
		C508.2,109.8,507.8,109.4,507.4,109.8z"/>
	<path fill="#67865F" d="M451.7,147c-1.7,1.1-3.8,0.7-4.7-0.9c-0.9-1.7-0.4-3.5,1.3-4.4c1.1-0.6,2.7-0.3,3.6,0.5
		c1.1,0.9,1.3,2.2,0.6,3.8C452.5,146.5,452.1,146.7,451.7,147z"/>
	<path fill="#9EB681" d="M436.5,144.3c0.3-0.3,0.1-0.5,0-0.8c-0.8-2.4,0.6-4.2,2.9-4.5c1.1-0.1,2.7,1.2,3.1,2.5
		c0.3,1.2-0.1,2.2-0.9,3.1c-0.8,0.8-1.9,1.1-3,0.7c-0.3-0.1-0.5-0.2-0.7-0.3c-0.3-0.1-0.5-0.1-0.5,0.3
		C436.7,145.2,436.5,144.8,436.5,144.3z"/>
	<path fill="#66835E" d="M458.8,24.1c-0.8-0.1-1.4-0.7-1.9-1.3c-0.3,0.2-0.2,0.5-0.3,0.7c-0.2,0.7-0.9,1.3-1.7,1.3s-1.5-0.5-1.8-1.2
		c-0.3-0.7,0-1.5,0.5-2c0.6-0.5,1.5-0.6,2.1-0.1c0.6,0.5,0.7,0.3,0.9-0.4c0.3-1.3,1.1-2,2.3-2.1c1.1-0.1,2.1,0.5,2.5,1.4
		c0.5,1,0.2,2.2-0.6,3c-0.3,0.3-0.8,0.5-1.2,0.6C459.5,24.3,459.1,24.2,458.8,24.1z"/>
	<path fill="#B38968" d="M350.3,101.4c-1.7,0-3.2-1.5-3.2-3.3c0-1.7,1.5-3,3.2-3.1c1.4-0.1,3.2,1.1,3.2,3.2
		C353.5,100.2,351.8,101.4,350.3,101.4z"/>
	<path fill="#9DB580" d="M379.6,43.3c0-1.2,0.9-2.3,2.1-2.7c0.2-0.1,0.5,0.1,0.5-0.3c0-0.3-0.3-0.3-0.4-0.3
		c-0.6-0.3-0.9-0.9-0.9-1.6c0.1-0.6,0.5-1.1,1.1-1.2c0.8-0.2,1.3,0.3,1.7,0.9c0.3,0.5,0.1,1.3-0.7,1.8c-0.6,0.4-0.5,0.5,0.1,0.8
		c2,0.9,2.6,2.7,1.5,4.4c-0.7,0.9-2,1.4-3.2,1.1C380.4,45.6,379.6,44.5,379.6,43.3z"/>
	<path fill="#7D986B" d="M497.1,111.1c0,1.7-1.3,3.2-3.1,3.2c-1.7,0-3.2-1.3-3.2-3.1c0-1.8,1.4-3.2,3.2-3.2
		C495.7,107.9,497.1,109.3,497.1,111.1z"/>
	<path fill="#6B9D83" d="M458.6,77.4c0.1-0.5-0.3-0.7-0.5-1.1c0.4-0.1,0.3-0.5,0.3-0.7c0.1-1.8,1.3-3,3.2-3c1.8,0,3.2,1.3,3.2,3.1
		s-1.3,3.1-3.1,3.2c-0.9,0-1.8-0.3-2.4-1C459.1,77.5,459,77.3,458.6,77.4z"/>
	<path fill="#9B7C67" d="M445.9,43.9c-0.1,0-0.3,0-0.4,0c-1.4-0.2-2.5-0.9-2.9-2.2c-0.3-1.1-0.2-2.1,0.5-2.9c1-1.3,2.7-1.5,4.3-0.6
		c1.1,0.7,1.7,2.4,1.1,3.8c-0.1,0.3-0.2,0.5-0.3,0.7c-0.1,0.6-0.5,0.7-0.9,0.8C446.8,43.6,446.4,43.7,445.9,43.9z"/>
	<path fill="#7B976B" d="M404.6,41.8c-0.7,0.8-1.6,1.5-2.8,1.5c-1.5,0.1-3-1-3.3-2.6c-0.3-1.5,0.7-3,2.1-3.4c1.7-0.5,3.2,0.1,4,1.7
		c0.1,0.1,0.2,0.2,0.3,0.3C405.4,40.2,405.3,41,404.6,41.8z"/>
	<path fill="#699C82" d="M406.3,50.3c-1.7,0-3.2-1.5-3.2-3.2c0.1-1.7,1.5-3.2,3.2-3.2c1.8,0,3.1,1.4,3.1,3.3
		C409.4,49,408,50.3,406.3,50.3z"/>
	<path fill="#A0B884" d="M428.4,84.7c-0.2-1.3,1.4-3.2,3.1-3.2c1.7,0,3.2,1.5,3.2,3.3c0,1.7-1.5,3.2-3.3,3.1
		C429.8,87.9,428.3,86.6,428.4,84.7z"/>
	<path fill="#B18866" d="M383.6,65.9c0.1-0.3,0.4-0.4,0.7-0.5c0.2-0.1,0.5-0.1,0.5-0.4c0-0.3-0.3-0.2-0.5-0.2
		c-2.1-0.4-3.2-2.1-2.5-4.1c0.5-1.4,2.2-2.4,3.8-1.9c1.6,0.5,2.4,2.1,2.3,3.3c-0.2,1.4-1,2.2-2.2,2.7c-0.3,0.1-0.6,0.1-0.5,0.5
		C384.9,66.2,384.5,66.4,383.6,65.9z"/>
	<path fill="#BA9674" d="M429.4,108c0-1.8,1.3-3.2,3.2-3.2c1.6,0,3.1,1.5,3.1,3.2s-1.5,3.1-3.2,3.1
		C430.8,111.1,429.4,109.7,429.4,108z"/>
	<path fill="#5C9E92" d="M436.9,131.5c-0.5,0.2-0.1,0.5,0,0.7c0.5,1.5-0.1,3.2-1.4,4c-1.4,0.7-3.3,0.2-4.1-1.1
		c-0.9-1.5-0.4-3.4,1.1-4.3c1.1-0.7,2.3-0.5,3.4,0.2c0.2,0.1,0.3,0.5,0.6,0.1C436.8,131.1,436.9,131.2,436.9,131.5z"/>
	<path fill="#679B81" d="M368.5,50.5c0-1.1,0.2-2.3-0.7-3.2c0.4-0.1,0.3-0.4,0.3-0.7c0.1-1.6,1.1-2.7,2.7-2.9
		c1.3-0.2,2.8,0.8,3.3,2.1c0.5,1.3-0.1,2.9-1.5,3.6c-1.2,0.7-2.3,0.5-3.5-0.3c-0.1-0.1-0.3-0.3-0.5-0.2c-0.2,0.1-0.1,0.3-0.1,0.5
		C368.7,49.8,368.8,50.1,368.5,50.5z"/>
	<path fill="#599D90" d="M356.3,128.7c0-1.7,1.3-3.1,2.9-3.1c1.7,0,3.2,1.3,3.2,3c0.1,1.5-1.1,3.2-3,3.2
		C357.6,131.9,356.3,130.5,356.3,128.7z"/>
	<path fill="#599E91" d="M347.2,130.9c0,0.5,0.4,0.4,0.7,0.5c1.5,0.1,2.5,1.1,2.8,2.7c0.2,1.3-0.5,2.6-1.7,3.2
		c-1.4,0.6-2.7,0.3-3.8-0.9c-0.9-1.1-0.9-2.6,0-3.8c0.2-0.3,0.5-0.4,0.5-0.8C346.2,131.5,346.6,131.1,347.2,130.9z"/>
	<path fill="#66865F" d="M436.5,162.8c0,1.7-1.3,3-3.1,3c-1.7,0-3.1-1.4-3.1-3.2c0-1.7,1.4-3,3-3C435.3,159.7,436.5,161,436.5,162.8
		z"/>
	<path fill="#9DB781" d="M393.8,172.2c0.2,1.6-1.5,3.2-3.1,3.2c-1.8-0.1-3-1.3-3.2-2.9c-0.1-2,1.6-3.3,3-3.3
		C392.2,169.1,394,170.4,393.8,172.2z"/>
	<path fill="#67865F" d="M498.9,97.5c-1.3,0.7-2.7,0.7-3.6,0c-1.1-0.9-1.5-2.2-1.1-3.4c0.5-1.6,2.3-2.5,3.8-2c1.7,0.6,2.6,2.3,1.9,4
		c-0.1,0.2-0.2,0.5-0.3,0.7C499.6,97.1,499.3,97.4,498.9,97.5z"/>
	<path fill="#65845E" d="M418.6,118.1c0.9,0,1.8-0.1,2.6,0.5c0.5,0.3,0.9,0.8,1.1,1.5c0.1,0.1,0.1,0.3,0.1,0.5
		c0.2,1.6-0.3,2.6-1.9,3.4c-0.5,0.4-1.1,0.3-1.6,0.1c-1.5-0.2-2.5-1.3-2.6-2.9C416.2,119.6,417.1,118.5,418.6,118.1z"/>
	<path fill="#9FB781" d="M406.4,168.2c1.7,0,3.2,1.3,3.2,3c0,1.5-1.4,3.2-3.2,3.2c-1.5-0.1-3.1-1.3-3-3.2
		C403.3,169.8,404.6,168.1,406.4,168.2z"/>
	<path fill="#699C82" d="M414.4,17.7c1.7-0.2,1.8-0.1,2.3,1.6c0.1,0.5,0.3,0.2,0.5,0.1c0.9-0.5,1.7-0.8,2.8-0.3
		c1.3,0.6,2,2.1,1.5,3.4c-0.5,1.4-2,2.1-3.4,1.7c-1.4-0.5-2.2-2-1.8-3.4c0.1-0.2,0.3-0.5,0.1-0.7c-0.2-0.2-0.5,0-0.7,0.1
		c-0.7,0.2-1.3-0.1-1.8-0.9C413.6,18.4,413.7,18.1,414.4,17.7z"/>
	<path fill="#699E83" d="M417.6,50c0.4-1.1,0.3-2.1-0.1-3.1c0.2-0.3,0.5-0.6,0.7-0.9c0.2-0.2,0.3-0.4,0.2-0.7
		c0.1-0.3,0.3-0.3,0.5-0.3c0.1,0.6,0.4,0.3,0.6,0.2c1.8-0.4,3,0.3,3.7,1.3c0.8,1.3,0.5,3.1-0.7,4c-1.2,0.9-2.9,0.8-4.1-0.3
		C418.2,50,418.1,49.6,417.6,50z"/>
	<path fill="#97B17B" d="M428.7,23.1c1.7-0.1,3.1,1.5,3.1,3.2c-0.1,1.9-1.4,2.9-3,3s-3.2-1.3-3.1-3.2
		C425.7,24.3,427,23.1,428.7,23.1z"/>
	<path fill="#53998C" d="M426.6,172.1c0.7-0.3,1.5-0.1,2.2-0.1c1.5,0.3,2.3,1.5,2.3,3.2c-0.1,1.4-1.2,2.5-2.5,2.7
		c-1.4,0.1-2.5-0.3-3.2-1.5c-0.6-1.1-0.5-2.2,0.1-3.3C425.7,172.6,426.1,172.3,426.6,172.1z"/>
	<path fill="#64805B" d="M424.1,29.9c-0.8,1.1-1.9,1.5-3.2,1.3c-1.3-0.3-2.1-1.2-2.4-2.5c-0.3-1.5,0.8-3.2,2.4-3.4
		c1.7-0.3,3.4,0.8,3.6,2.4c0.1,0.6,0.1,1.2-0.2,1.7C424.3,29.6,424.3,29.8,424.1,29.9z"/>
	<path fill="#599B8F" d="M394.3,160.2c0.1-0.8-0.1-1.6,0.3-2.4c0.8-1.5,2.5-2,4.2-1.2c1.3,0.7,1.9,2.5,1.2,4c-0.7,1.5-2.6,2.1-4,1.3
		c-0.3-0.2-0.7-0.4-1-0.6C394.4,161.1,394.3,160.6,394.3,160.2z"/>
	<path fill="#9FB781" d="M441.3,122.1c0,1.7-1.4,2.9-3,2.9s-3-1.5-2.9-3.2c0.1-1.7,1.5-3.1,3.1-2.9
		C440,119.1,441.3,120.3,441.3,122.1z"/>
	<path fill="#66855F" d="M475.7,104.6c1.7,0.1,2.9,1.5,2.8,3.1c-0.1,1.5-1.5,2.8-3.1,2.7c-1.7,0-2.9-1.3-3-2.9
		c0-1.5,1.2-2.8,2.8-2.9C475.5,104.6,475.6,104.6,475.7,104.6z"/>
	<path fill="#9EB783" d="M366.5,60.9c-1.7,0-3-1.3-3-2.9c0-1.7,1.4-3.2,3.1-3.1c1.5,0,2.9,1.4,2.9,3
		C369.4,59.7,368.1,60.9,366.5,60.9z"/>
	<path fill="#A1B884" d="M381.2,101c-1.7,0-2.9-1.3-2.9-3c0-1.5,1.3-2.9,2.8-2.9c1.9,0.1,3.2,1.3,3.2,3.1
		C384.2,99.6,383.1,101.1,381.2,101z"/>
	<path fill="#65815C" d="M441.6,15.3c-0.9,1.1-2.1,1.5-3.3,1.1c-1.1-0.3-1.9-1.4-2.1-2.6c-0.1-1.2,0.5-2.3,1.6-2.9
		c1.5-0.7,3.8-0.1,4.2,2.2c0.1,0.3,0.3,0.5,0.3,0.8C442.6,14.6,442.2,14.9,441.6,15.3z"/>
	<path fill="#5E9E91" d="M432,33.4c0.1,1-0.1,1.9-0.9,2.7c-1,0.9-2.3,1.1-3.5,0.5c-1.1-0.5-1.7-1.9-1.5-2.9c0.3-1.5,1.2-2.4,2.6-2.6
		c1.2-0.1,2.4,0.5,2.9,1.7C431.8,32.9,432.2,33,432,33.4z"/>
	<path fill="#9FB781" d="M375.8,155.1c-1.8,0-2.9-1.3-2.9-3.1c0-1.6,1.4-2.8,3.2-2.8c1.7,0,2.8,1.5,2.8,2.9
		C378.9,153.9,377.6,155.1,375.8,155.1z"/>
	<path fill="#B89472" d="M425.2,57.4c1.9,0,2.9,1.3,2.9,2.9c0,1.9-1.1,2.9-3,3c-1.7,0.1-2.9-1.6-2.9-2.9
		C422.3,58.7,423.5,57.4,425.2,57.4z"/>
	<path fill="#67875F" d="M402.7,97.6c-1,1.5-2.7,1.5-3.9,0.9c-1.2-0.7-1.7-2.1-1.3-3.4c0.4-1.1,1.6-2,2.8-1.9
		c1.4,0.1,2.4,0.9,2.8,2.5C403.7,96.4,403.6,97,402.7,97.6z"/>
	<path fill="#579C8E" d="M396.2,110.5c0.3-0.3,0.5-0.6,0.9-0.9c0.3,0.2,0.5-0.1,0.8-0.1c1.7-0.5,3.2,0.3,3.8,2
		c0.5,0.7-0.2,1.2-0.1,1.8c-0.7,1.4-2.1,2.1-3.6,1.7c-1.5-0.5-2.3-1.9-1.9-3.6C396,111,396.1,110.7,396.2,110.5z"/>
	<path fill="#67865E" d="M391.5,148.1c-2,0.8-3.8,0.1-4.4-1.7c-0.3-1.2,0.2-2.5,1.3-3.2c1.1-0.7,2.5-0.6,3.6,0.3
		c0.9,0.9,1.2,2.2,0.6,3.4c-0.1,0.2-0.3,0.4-0.4,0.6C392,147.7,391.9,148,391.5,148.1z"/>
	<path fill="#7E986B" d="M457.8,68c-0.1-0.1-0.1-0.2-0.1-0.3c-0.2-0.3-0.5-0.7-0.7-1.1c-0.7-1.3-0.4-2.7,0.7-3.6
		c1.1-0.9,2.7-0.9,3.7,0c1,0.9,1.3,2.5,0.7,3.6c-0.7,1.2-2.1,1.8-3.5,1.3C458.3,67.9,458,67.7,457.8,68z"/>
	<path fill="#64815C" d="M453.9,52c0.3,0.6,0.2,1.2,0.1,1.9c-0.2,1-0.8,1.7-1.8,2c-0.6,0.1-1.1,0.2-1.7,0.1c-1.8-0.9-2.6-2.4-1.9-4
		c0.5-1.1,1.3-1.7,2.5-1.8C452.3,50.3,453.3,50.9,453.9,52z"/>
	<path fill="#688660" d="M450.7,99.8c1.6,0,2.8,1.3,2.8,2.9c0,1.6-1.3,2.9-2.9,2.9s-2.9-1.4-2.9-3
		C447.8,101.1,449.1,99.8,450.7,99.8z"/>
	<path fill="#7E986B" d="M397.4,48.3c-0.1-0.2-0.2-0.4-0.3-0.6c-0.3-1.4,0-2.5,1-3.3c1.1-0.7,2.3-0.8,3.4-0.1c1.4,1,1.7,2.9,0.6,4.2
		c-1.1,1.3-3.1,1.4-4.3,0.3C397.6,48.7,397.5,48.5,397.4,48.3z"/>
	<path fill="#67865F" d="M353.9,113.8c0,1.6-1.3,2.9-2.9,2.9c-1.5,0-2.9-1.3-2.9-2.9c0-1.6,1.3-2.9,2.9-2.9
		C352.7,110.9,353.9,112.2,353.9,113.8z"/>
	<path fill="#9DB680" d="M444.3,58.5c-1.6,0-2.9-1.2-2.9-2.8c0-1.5,1.2-2.9,2.9-3c1.4-0.1,2.9,1.5,2.9,2.9
		C447.3,57.2,445.9,58.5,444.3,58.5z"/>
	<path fill="#9FB682" d="M393.7,91.5c1.5,0,3.1,1.4,3,2.8c-0.1,1.7-1.1,2.9-3,2.9c-1.2,0.1-2.9-1.3-2.8-3
		C391,92.7,392.1,91.5,393.7,91.5z"/>
	<path fill="#579C8F" d="M454.6,173.6c-1.6,0-2.9-1.3-2.9-2.9c0-1.5,1.3-2.8,2.9-2.8c1.6,0,2.9,1.3,2.9,2.9
		C457.6,172.4,456.3,173.6,454.6,173.6z"/>
	<path fill="#5C9F94" d="M347.7,65.5c0,1.6-1.3,2.9-2.9,2.9c-1.5,0-2.8-1.3-2.8-2.8c0-1.7,1.2-2.9,2.9-2.9
		C346.5,62.6,347.7,63.8,347.7,65.5z"/>
	<path fill="#9CB57F" d="M434.2,168.5c1.7,0,2.9,1.2,2.9,2.9c0,1.5-1.3,2.9-2.9,2.9c-1.5,0-2.9-1.4-2.9-2.9
		C431.4,169.9,432.6,168.5,434.2,168.5z"/>
	<path fill="#A0B884" d="M357.1,143.5c1.7-0.1,2.9,1.3,2.9,2.8c0,1.5-1,2.9-3,2.9c-1.4,0.1-2.7-1.5-2.7-2.9
		C354.2,144.6,355.5,143.5,357.1,143.5z"/>
	<path fill="#5C9B8E" d="M395,24.3c1.5-0.2,2.9,1.3,2.8,3c-0.1,1.4-1.4,2.6-2.7,2.5c-1.7-0.1-3-1.3-2.9-2.9
		C392.1,25.5,393.5,24.2,395,24.3z"/>
	<path fill="#A1B885" d="M382.7,107.8c-1.5,0-2.7-1.3-2.7-2.8s1.4-2.8,2.9-2.8c1.3,0,3,1.6,2.8,2.9
		C385.6,106.7,384.6,107.7,382.7,107.8z"/>
	<path fill="#579A8D" d="M418.1,114.8c0,0.1,0,0.3,0,0.4c-0.1,1.9-1.3,2.9-3.2,2.7c-1.5-0.1-2.5-1.6-2.3-3.3
		c0.1-1.1,1.3-2.1,2.4-2.2c0.5,0,1.1,0,1.7,0c0.3-0.2,0.5,0.1,0.6,0.3c-0.1,0.5,0.3,0.7,0.5,1.1C418,114.2,418.2,114.4,418.1,114.8z
		"/>
	<path fill="#67855F" d="M375.2,53.8c0,1.5-1.2,2.8-2.7,2.8c-1.6,0-2.9-1.2-2.9-2.7c0-1.5,1.3-2.8,2.7-2.8
		C373.9,50.9,375.2,52.2,375.2,53.8z"/>
	<path fill="#66845E" d="M366.9,124.9c-1.5,0-2.7-1.3-2.7-2.7c0-1.6,1.3-2.8,2.9-2.8c1.5,0,2.7,1.2,2.7,2.7
		C369.7,123.6,368.4,124.9,366.9,124.9z"/>
	<path fill="#9C7C66" d="M427.7,55.1c-1,1.3-2.1,1.5-3.6,0.9c-1.1-0.4-1.7-1.7-1.5-2.9c0.1-1.1,0.8-1.7,1.7-2.1
		c1.1-0.5,2.1-0.1,3,0.7c0.7,0.7,0.9,1.5,0.7,2.5C427.9,54.4,428.1,54.9,427.7,55.1z"/>
	<path fill="#9CB47D" d="M417.4,152.8c-1.5,0-2.7-1.3-2.7-2.7c0-1.5,1.3-2.9,2.7-2.9c1.7,0.1,2.9,1.3,2.9,2.9
		C420.4,151.6,419,152.8,417.4,152.8z"/>
	<path fill="#689D82" d="M404.6,41.8c0.4-0.8,0.3-1.7,0.3-2.5c0.7-0.8,1.5-1.3,2.5-1.2c1.5,0.1,2.4,0.9,2.7,2.5
		c0.2,1.1-0.7,2.5-1.9,2.9c-1.1,0.4-2.5-0.1-3.2-1.1C404.9,42.1,404.9,41.8,404.6,41.8z"/>
	<path fill="#9EB580" d="M421.4,75.1c0,1.5-1.4,3-2.7,2.9c-1.4,0-2.9-1.5-2.9-2.9c0.1-1.6,1-2.6,2.7-2.7
		C420.2,72.5,421.2,73.7,421.4,75.1z"/>
	<path fill="#65845F" d="M492.6,69.5c1.6,0,2.7,1.3,2.7,2.9c-0.1,1.5-1.3,2.6-2.8,2.5c-1.5,0-2.7-1.3-2.7-2.8
		C489.9,70.6,491.1,69.4,492.6,69.5z"/>
	<path fill="#7E986A" d="M346,109c0,1.7-1.1,2.8-2.7,2.8c-1.5,0-2.7-1.1-2.7-2.6c-0.1-1.6,1.1-2.8,2.7-2.9
		C344.5,106.3,346.1,107.6,346,109z"/>
	<path fill="#5C9D91" d="M436.9,24.7c-0.3,0.2-0.7,0.4-1,0.7c-0.1-0.3-0.3-0.2-0.5-0.2c-2.3,0.2-3.9-1.9-2.9-4.1
		c0.5-0.9,1.2-1.3,2.2-1.4c0.5-0.1,1-0.3,1.3,0.3c1.5,0.5,1.8,1.6,1.6,2.9C437.7,23.7,437.1,24.1,436.9,24.7z"/>
	<path fill="#A1B886" d="M506,79.1c-1.4,0.1-2.7-1.3-2.7-2.6c0-1.5,1.3-2.9,2.8-2.9c1.5,0,2.8,1.3,2.7,2.7
		C508.9,77.8,507.9,79.2,506,79.1z"/>
	<path fill="#599B8E" d="M399.8,134.5c0,0.1,0,0.3,0,0.3c-0.2,0.3-0.3,0.7-0.6,0.9c-0.7,0.9-1.9,1.3-3,1c-1-0.3-1.9-1.3-1.9-2.3
		c-0.1-1.3,0.5-2.3,1.7-2.7c0.2-0.1,0.4-0.1,0.5-0.3c0.1-0.1,0.1-0.1,0.1,0c0.6,0.2,1.3,0.1,1.8,0.5
		C399.3,132.5,399.9,133.4,399.8,134.5z"/>
	<path fill="#66845E" d="M469.3,30.4c1,0.8,1.3,1.8,0.9,2.8c0.2,0.5-0.1,0.7-0.4,0.9c-0.4,0.3-0.8,0.7-1.4,0.9
		c-1.3,0.3-2.5-0.1-3.2-1.1s-0.5-2.3,0.3-3.2C466.3,29.7,468,29.6,469.3,30.4z"/>
	<path fill="#698862" d="M482.9,156.7c1.6,0,2.7,1.1,2.7,2.7c0,1.4-1.2,2.6-2.7,2.6c-1.5,0-2.7-1.1-2.7-2.7
		C480.2,157.9,481.4,156.7,482.9,156.7z"/>
	<path fill="#68865F" d="M475,151c-1.5,0-2.7-1.2-2.7-2.7c0-1.5,1.3-2.7,2.8-2.7c1.5,0,2.6,1.1,2.6,2.6
		C477.8,149.9,476.6,151,475,151z"/>
	<path fill="#61805B" d="M394,17.8c0.5,0.6,0.6,1.3,0.5,2.1c0,0.3-0.2,0.7-0.3,0.9c-0.1,0.7-0.6,0.8-1.1,0.9c-2.1,0.7-4-0.5-3.9-2.5
		c0.1-1.2,0.7-2.1,1.9-2.5C392.2,16.4,393.3,16.8,394,17.8z"/>
	<path fill="#678660" d="M486,66.2c-1.3,0.9-2.5,0.9-3.6,0c-0.9-0.8-1.2-2.2-0.6-3.3c0.6-1,1.5-1.5,2.7-1.4c1.2,0.1,1.9,0.8,2.3,1.9
		c0.1,0.5,0.1,1.1,0.1,1.7C487,65.8,486.5,66.1,486,66.2z"/>
	<path fill="#7C9669" d="M369,129.8c0.5,0.4,0.9,0.9,1,1.5c0.4,1.7-0.5,3.2-2,3.6c-1.6,0.3-3-0.8-3.2-2.4c-0.2-1.7,1.5-3.2,3.3-2.8
		C368.4,129.6,368.7,129.8,369,129.8z"/>
	<path fill="#549C8E" d="M395.6,175.7c0-1.5,1.2-2.7,2.7-2.7c1.5,0,2.7,1.3,2.7,2.8c0,1.2-1.3,2.5-2.7,2.5
		C396.8,178.4,395.6,177.2,395.6,175.7z"/>
	<path fill="#5EA094" d="M471.9,106.3c0,1.4-1.3,2.6-2.7,2.5c-1.5,0-2.8-1.3-2.7-2.6c0-1.4,1.3-2.7,2.7-2.7
		C470.7,103.6,471.9,104.8,471.9,106.3z"/>
	<path fill="#819B6E" d="M475.7,104.6c-0.1,0-0.3,0-0.4,0c0.2-0.6-0.3-0.5-0.5-0.5c-1.7-0.5-2.5-1.9-2-3.5c0.4-1.3,1.5-1.9,2.9-1.8
		c1.1,0.1,2.1,1.1,2.3,2.2c0.2,1.3-0.5,2.5-1.7,2.9C476,104.2,475.5,104.1,475.7,104.6z"/>
	<path fill="#A3846B" d="M466.7,87.6c-1.3,1.6-2.5,1.9-4,1c-1-0.6-1.5-2-1.1-3.2c0.5-1.3,1.6-1.9,3.1-1.7c1.2,0.2,2.1,1.2,2.2,2.4
		c0,0.3,0,0.5,0,0.8C467,87.2,466.9,87.4,466.7,87.6z"/>
	<path fill="#6B9E83" d="M465.3,53.5c0.1,0,0.1,0,0.2,0c0.3,0.5,0.9,0.8,1.1,1.3c0.5,1.1,0.2,2.6-0.9,3.4c-0.2,0.1-0.4,0.3-0.7,0.5
		c-0.3,0.3-0.5,0.2-0.8,0c-0.5,0-1.1-0.1-1.5-0.4c-0.3-0.1-0.5-0.3-0.5,0.2c-0.5-0.2-0.7-0.6-0.8-1.1c0.6-0.1,0.2-0.5,0.2-0.7
		c-0.3-1.7,0.5-2.9,2.1-3.3C464.3,53.3,464.7,53.5,465.3,53.5z"/>
	<path fill="#A0B681" d="M451.5,118c1.8,0,2.7,1.4,2.7,2.7c0,1.6-1.3,2.7-2.9,2.7c-1.3,0-2.5-1.3-2.5-2.6
		C448.9,119.2,450.1,118,451.5,118z"/>
	<path fill="#A0B884" d="M342.8,120.7c0.5-0.1,1-0.1,1.5-0.3c0.1,0.5,0.6,0.4,0.9,0.5c1.1,0.4,1.9,1.5,1.8,2.5
		c-0.2,1.7-0.9,2.3-2.3,2.7c-0.9,0.3-2.3-0.6-2.8-1.5c-0.5-0.9-0.3-2.1,0.4-2.9C342.5,121.3,342.9,121.1,342.8,120.7z"/>
	<path fill="#A0B782" d="M466.4,143.5c0-1.3,1.3-2.6,2.7-2.6c1.5,0,2.7,1.1,2.7,2.6c0,1.4-1.3,2.7-2.7,2.7
		C467.6,146.2,466.4,144.9,466.4,143.5z"/>
	<path fill="#7D986B" d="M414.4,17.7c-0.5,0.4-0.5,1-0.5,1.5c-0.3-0.1-0.5,0.2-0.8,0.3c-1.3,0.9-3.2,0.5-4-0.9
		c-0.7-1.3-0.1-3.1,1.3-3.7c1.4-0.6,3.2,0.1,3.7,1.6C414.3,16.9,414.1,17.4,414.4,17.7z"/>
	<path fill="#9FB782" d="M435.3,63.3c1.5,0,2.7,1.2,2.7,2.6c0,1.1-0.9,2.8-2.7,2.7c-1.4-0.1-2.8-1.3-2.7-2.7
		C432.6,64.6,433.6,63.2,435.3,63.3z"/>
	<path fill="#6A9D83" d="M402.7,97.6c0.5-0.6,0.9-1.2,0.5-2c0.4,0.1,0.5-0.3,0.8-0.5c1.3-1.1,3-0.8,4,0.5c0.9,1.2,0.4,3-0.9,3.8
		c-1.3,0.8-3,0.2-3.7-1.3C403.1,98,403.2,97.5,402.7,97.6z"/>
	<path fill="#699D82" d="M338.6,80.2c0-1.5,1.1-2.7,2.5-2.6c2,0.1,2.7,1.2,2.8,3.1c0.1,1.1-1.4,2.3-2.7,2.3
		C339.7,82.8,338.6,81.7,338.6,80.2z"/>
	<path fill="#7C9668" d="M423.3,170.2c0.1,0.1,0.3,0.3,0.5,0.4c0.7,1.9,0.1,3.5-1.5,4c-1.6,0.5-3.1-0.5-3.3-2.2
		c-0.2-1.2,0.1-2.1,1.2-2.7C421.2,169.2,422.3,169.4,423.3,170.2z"/>
	<path fill="#A0B883" d="M406.8,153.4c1.7,0.1,2.7,1.3,2.7,2.7c0.1,1.5-1.3,2.7-2.7,2.7c-1.7-0.1-2.6-1.1-2.7-2.7
		C404.1,154.7,405.5,153.2,406.8,153.4z"/>
	<path fill="#64825D" d="M443,69.9c0.1,0.6,0.2,1.2,0.2,1.8c-0.3,1.3-1.4,2.1-2.8,1.9c-1.2-0.1-2.2-1.1-2.3-2.1
		c-0.2-1.5,0.5-2.7,1.9-3.1C441.1,68.1,442.4,68.7,443,69.9z"/>
	<path fill="#7B976A" d="M391.3,25.4c0,1.4-1.3,2.7-2.6,2.7c-1.5,0-2.7-1.3-2.7-2.7c0.1-1.4,1.3-2.5,2.6-2.5
		C390.1,22.8,391.3,24,391.3,25.4z"/>
	<path fill="#9EB47F" d="M464.3,58.7c0.3,0,0.5,0,0.8,0c0,0.3,0.2,0.4,0.5,0.5c1.3,0.3,2.1,1.3,2.1,2.6c0,1.3-1.1,2.3-2.3,2.5
		c-1.1,0.1-2.3-0.7-2.7-1.9c-0.4-1.2,0-2.2,1.1-3C463.9,59.3,464.4,59.2,464.3,58.7z"/>
	<path fill="#668661" d="M506.3,104.6c-0.1,0.7,0.1,1.3-0.3,1.9c-0.7,1.3-2.9,1.5-4,0.5c-1.1-1.1-1.1-2.9,0.2-4
		C503.6,101.8,505.9,102.7,506.3,104.6z"/>
	<path fill="#6A865F" d="M467.7,68.4c0,1.4-1.1,2.5-2.5,2.5c-1.5,0-2.7-1.1-2.6-2.6c0-1.4,1.1-2.5,2.5-2.5
		C466.6,65.8,467.7,66.8,467.7,68.4z"/>
	<path fill="#9B7E68" d="M359.8,94.8c0,1.4-1.1,2.6-2.5,2.6c-1.4,0.1-2.7-1.2-2.7-2.6c0-1.4,1.1-2.5,2.5-2.5
		C358.6,92.2,359.8,93.4,359.8,94.8z"/>
	<path fill="#9E8068" d="M420.6,143.7c-1.5,0-2.7-1.1-2.7-2.5c0-1.3,1.3-2.6,2.5-2.6c1.5,0,2.7,1.1,2.7,2.6
		C423.1,142.5,421.9,143.7,420.6,143.7z"/>
	<path fill="#5C9D90" d="M424.4,103.4c0.1-0.1,0.3-0.3,0.5-0.4c1.3-0.9,3-0.7,3.8,0.5c0.9,1.3,0.5,3-0.7,3.7
		c-0.4,0.2-0.9,0.3-1.3,0.5c-0.3,0.3-0.7,0.1-0.9-0.1C424.2,106.6,423.5,105.4,424.4,103.4z"/>
	<path fill="#A2BA89" d="M466.4,100.4c0-1.5,1.1-2.7,2.6-2.7c1.4,0,2.5,1.2,2.5,2.6c0,1.4-1.1,2.5-2.6,2.5
		C467.6,103,466.4,101.8,466.4,100.4z"/>
	<path fill="#6B8A62" d="M509.2,70.5c0,1.5-1,2.5-2.5,2.5c-1.5,0-2.6-1.1-2.6-2.5c0-1.3,1.2-2.5,2.5-2.5
		C508.2,67.8,509.2,68.9,509.2,70.5z"/>
	<path fill="#A0B783" d="M380.6,134.7c1.4-0.1,2.6,0.9,2.7,2.4c0.1,1.3-1.1,2.7-2.6,2.8c-1.1,0.1-2.5-1.1-2.5-2.3
		C378.1,136,378.9,134.9,380.6,134.7z"/>
	<path fill="#A2BA87" d="M394.5,155.7c0,1.4-1.1,2.5-2.5,2.5c-1.3,0-2.6-1.2-2.7-2.5c-0.1-1.3,1.3-2.6,2.7-2.6
		C393.4,153,394.5,154.3,394.5,155.7z"/>
	<path fill="#9EB682" d="M437.5,152.3c0,1.5-1.1,2.7-2.5,2.7c-1.3,0-2.6-1.3-2.5-2.6c0-1.5,1.2-2.7,2.6-2.7
		C436.1,149.8,437.7,150.9,437.5,152.3z"/>
	<path fill="#5F9D8F" d="M491,138.8c0.1,0.6,0.5,1.1,0.5,1.7c0,1.1-0.5,1.8-1.5,2.1c-0.9,0.3-1.9,0-2.5-0.7c-0.6-0.8-0.6-1.9,0-2.7
		c0.6-0.8,1.6-1.1,2.5-0.8c0.1,0.1,0.3,0.1,0.4,0.1c0.5,0.2,0.5,0.1,0.4-0.4c-0.3-0.9,0.5-1.7,1.3-1.5c0.6,0.2,0.9,0.6,0.8,1.3
		c-0.1,0.6-0.5,0.9-1.1,0.9C491.6,138.8,491.3,138.8,491,138.8z"/>
	<path fill="#9EB67F" d="M409.9,180.9c-1.6,0-2.7-1.1-2.7-2.5c0-1.4,1.3-2.5,2.9-2.5c1.1,0,2.3,1.3,2.3,2.5
		C412.3,179.8,411.3,180.9,409.9,180.9z"/>
	<path fill="#A1B985" d="M446.3,94.7c0.1,1.5-1.3,2.6-2.6,2.6c-1.2,0-2.5-1.3-2.5-2.5c0-1.3,1.3-2.7,2.7-2.7
		C445,92.1,446.4,93.3,446.3,94.7z"/>
	<path fill="#9FB783" d="M434.4,140.8c0,1.4-1.1,2.5-2.5,2.5c-1.5,0-2.7-1.1-2.7-2.5c0-1.4,1.2-2.6,2.7-2.6
		C433.2,138.2,434.4,139.5,434.4,140.8z"/>
	<path fill="#699A82" d="M490.7,125.3c-0.6-1.1-0.8-2.2-0.1-3.3c0.6-0.9,1.7-1.2,2.9-0.8c0.9,0.3,1.6,1.4,1.6,2.4c0,1-0.7,2-1.6,2.3
		c-0.5,0.2-1.1,0.2-1.6,0.2C491.3,126.2,490.9,126,490.7,125.3z"/>
	<path fill="#967864" d="M405.5,89c-1.1-0.6-1.7-1.8-1.3-2.9c0.4-1.3,1.3-2,2.7-1.9c1.2,0.1,2.2,1,2.3,2.3c0.1,0.9-0.2,1.7-0.9,2.2
		c-0.5,0-0.9,0-1.3,0.4C406.6,89.4,406,89.4,405.5,89z"/>
	<path fill="#66855F" d="M358,55.8c-1.5-0.7-2.1-1.7-1.9-2.9c0.2-1,1-1.8,2.1-2c1-0.2,1.9,0.3,2.5,1.2c0.5,0.8,0.5,1.9-0.1,2.7
		c-0.2,0.3-0.5,0.5-0.7,0.7C359.4,56.2,358.8,56.2,358,55.8z"/>
	<path fill="#9EB581" d="M458.3,162.1c-0.1,0.5,0.4,0.6,0.6,0.8c1,0.7,1.3,1.5,1,2.7c-0.3,1-1.2,1.7-2.3,1.8c-1.1,0.1-2-0.5-2.4-1.5
		c-0.4-1.1-0.2-1.9,0.7-2.8c0.3-0.3,0.7-0.3,0.7-0.8C457.2,162.3,457.8,162.4,458.3,162.1z"/>
	<path fill="#689B81" d="M400.9,79c0.4,0,0.8,0,1.2,0c0.2,0.4,0.7,0.4,0.9,0.7c0.9,0.7,1.1,1.7,0.8,2.8c-0.3,0.9-1.1,1.5-2.2,1.6
		c-0.2,0-0.4,0-0.7,0.1c-0.3-0.1-0.6-0.2-0.9-0.3c-0.3-0.7-1.1-1.1-1.1-2c0-1.1,0.5-1.8,1.3-2.4C400.6,79.2,400.9,79.2,400.9,79z"/>
	<path fill="#69865F" d="M452.2,115.1c0,1.3-1.2,2.5-2.5,2.5c-1.3,0-2.6-1.3-2.5-2.5c0.1-1.3,1.2-2.4,2.5-2.4
		C451.1,112.6,452.2,113.7,452.2,115.1z"/>
	<path fill="#A08169" d="M457.7,115.1c0,0.3,0,0.5,0,0.7c-0.1,1.4-1.1,2.1-2.7,2.1c-1.2-0.1-2.3-1.2-2.3-2.5c0-1.2,1.1-2.4,2.3-2.5
		C456.3,112.8,457.6,113.8,457.7,115.1z"/>
	<path fill="#66835C" d="M411.3,154c-1.5,0-2.5-1.1-2.5-2.5c0-1.3,1.1-2.4,2.5-2.4c1.4,0,2.5,1.2,2.5,2.5
		C413.7,152.9,412.7,154,411.3,154z"/>
	<path fill="#68855E" d="M452.1,125c1.5,0,2.5,1,2.5,2.5c0,1.4-1.1,2.4-2.5,2.4c-1.3,0-2.5-1.1-2.5-2.4
		C449.7,126,450.7,125,452.1,125z"/>
	<path fill="#7E986B" d="M473.3,141.7c-1.4,0-2.5-1.1-2.5-2.6c0-1.3,1.2-2.4,2.5-2.4c1.3,0,2.5,1.2,2.5,2.5
		C475.9,140.6,474.7,141.7,473.3,141.7z"/>
	<path fill="#67875F" d="M378.8,156.1c0-1.3,1.1-2.4,2.5-2.4c1.3,0,2.5,1.2,2.5,2.5c0,1.4-1.1,2.5-2.6,2.5
		C379.9,158.6,378.8,157.5,378.8,156.1z"/>
	<path fill="#A0B884" d="M493.4,144.1c0.3,0.2,0.7,0.4,1,0.7c-0.1,0.7,0.5,1.1,0.7,1.7c0.3,0.9-0.1,1.7-0.5,2.3
		c-0.5,0.6-1.2,1-2.1,0.8c-1.5-0.3-2.3-1.3-2.2-2.7c0.1-1.3,1.1-2.3,2.6-2.3C493.1,144.5,493.5,144.7,493.4,144.1z"/>
	<path fill="#A0B784" d="M485.3,113.5c0,1.5-1,2.5-2.4,2.5s-2.6-1.1-2.6-2.5c0-1.2,1.3-2.4,2.5-2.4
		C484.1,110.9,485.3,112,485.3,113.5z"/>
	<path fill="#B38868" d="M374.6,105c0,1.3-1.1,2.4-2.5,2.4c-1.5,0-2.5-1.1-2.5-2.5c0-1.2,1.3-2.5,2.4-2.4
		C373.5,102.5,374.6,103.6,374.6,105z"/>
	<path fill="#5C9E91" d="M358,55.8c0.7,0.1,1.3,0.2,1.9-0.3c0,0.4,0.3,0.5,0.5,0.6c1.3,0.7,1.7,2.3,0.9,3.5
		c-0.7,1.2-2.3,1.5-3.5,0.7c-1.2-0.9-1.4-2.4-0.5-3.6C357.5,56.4,357.9,56.2,358,55.8z"/>
	<path fill="#64835D" d="M391.7,70.4c0.5,0.6,0.5,1.3,0.3,2c-0.5,1.3-1.4,1.9-2.7,1.7c-1.1-0.1-2-1-2.1-2.1c-0.1-1,0.5-2.1,1.5-2.5
		c0.4-0.2,0.8-0.2,1.3-0.2c0.2,0.1,0.4,0.2,0.7,0.2C391.2,69.5,391.7,69.7,391.7,70.4z"/>
	<path fill="#6A8961" d="M438.1,93.4c1.4,0,2.5,1.1,2.4,2.5c0,1.3-1.1,2.4-2.3,2.5c-1.4,0-2.5-1.1-2.5-2.5
		C435.5,94.5,436.7,93.4,438.1,93.4z"/>
	<path fill="#66845F" d="M486.7,55.6c0-1.4,1.1-2.4,2.5-2.4c1.4,0,2.4,1.1,2.4,2.5c0,1.3-1.1,2.4-2.4,2.4
		C487.7,58.1,486.7,57,486.7,55.6z"/>
	<path fill="#809A6B" d="M384.6,166.8c1.4,0,2.5,1.1,2.5,2.5c0,1.3-1.2,2.5-2.5,2.5c-1.3,0-2.5-1.2-2.5-2.5
		C382.2,167.9,383.3,166.8,384.6,166.8z"/>
	<path fill="#7B9669" d="M352.5,120.4c0,1.3-1.1,2.5-2.4,2.5c-1.4,0-2.5-1.2-2.5-2.5c0.1-1.3,1.1-2.4,2.5-2.4
		C351.4,117.9,352.5,119,352.5,120.4z"/>
	<path fill="#7B9668" d="M442.6,172.4c0.4,0.6,0.7,1.2,0.7,2c-0.3,1.1-0.9,2-2.3,2.2c-1,0.1-1.9-0.4-2.5-1.3
		c-0.5-0.9-0.3-2.1,0.3-2.8c0.7-0.7,1.9-1,2.8-0.5C442,172,442.3,172.2,442.6,172.4z"/>
	<path fill="#7D9769" d="M384.2,145.2c-1.3,0-2.5-1.2-2.5-2.5c0-1.2,1.3-2.4,2.5-2.4c1.3,0,2.4,1.1,2.4,2.5
		C386.8,144.1,385.6,145.2,384.2,145.2z"/>
	<path fill="#BB9775" d="M460.5,120.7c0,1.3-1.1,2.5-2.5,2.5c-1.3,0-2.4-1.2-2.5-2.5c0-1.2,1.2-2.3,2.5-2.3
		C459.4,118.3,460.5,119.4,460.5,120.7z"/>
	<path fill="#819B6E" d="M493.3,97.8c0,1.4-1.1,2.5-2.5,2.5c-1.3,0-2.4-1.2-2.3-2.5c0-1.4,1.1-2.4,2.5-2.4
		C492.2,95.4,493.3,96.5,493.3,97.8z"/>
	<path fill="#9DB47E" d="M458.2,28c0,1.3-1.1,2.4-2.3,2.5c-1.3,0-2.5-1.1-2.6-2.4c0-1.2,1.2-2.5,2.3-2.5
		C457,25.5,458.2,26.7,458.2,28z"/>
	<path fill="#6A8760" d="M375.5,91.7c0,1.3-1.1,2.3-2.4,2.3c-1.3,0-2.4-1.1-2.4-2.4s1.1-2.4,2.3-2.4
		C374.4,89.2,375.5,90.3,375.5,91.7z"/>
	<path fill="#B89573" d="M444.8,35.1c0,1.3-1,2.3-2.3,2.3c-1.3,0-2.4-1.1-2.4-2.5c0-1.3,1.1-2.3,2.4-2.3
		C443.8,32.6,444.8,33.7,444.8,35.1z"/>
	<path fill="#5B9E92" d="M409.5,99.6c1.3,0,2.4,1.1,2.4,2.4c0,1.3-1.1,2.4-2.4,2.4c-1.3,0-2.3-1.1-2.3-2.4
		C407.1,100.6,408.1,99.6,409.5,99.6z"/>
	<path fill="#A1B883" d="M466.2,135.7c1.3,0,2.4,1.1,2.4,2.3c0,1.3-1.1,2.3-2.5,2.3c-1.3,0-2.4-1-2.4-2.3
		C463.8,136.7,464.8,135.7,466.2,135.7z"/>
	<path fill="#A0B782" d="M381.9,55c0-1.4,1.1-2.4,2.4-2.4c1.2,0,2.4,1.3,2.4,2.5c0,1.1-1.3,2.4-2.4,2.3
		C382.8,57.3,381.8,56.2,381.9,55z"/>
	<path fill="#9EB681" d="M423.1,180.3c0-1.3,1.1-2.5,2.4-2.4c1.5,0.1,2.3,1.1,2.4,2.5c0.1,1.1-1.3,2.3-2.4,2.3
		C424.3,182.7,423.1,181.6,423.1,180.3z"/>
	<path fill="#66865F" d="M437.4,149.2c0-1.3,1.1-2.3,2.3-2.3c1.3,0,2.4,1.1,2.4,2.4c0,1.2-1.1,2.3-2.4,2.3S437.4,150.5,437.4,149.2z
		"/>
	<path fill="#68865F" d="M440.3,111.3c0,1.4-1,2.4-2.3,2.4c-1.3,0-2.3-1-2.3-2.3s1.1-2.4,2.4-2.4C439.3,108.9,440.3,110,440.3,111.3
		z"/>
	<path fill="#7D996B" d="M483.1,50.9c-0.2,0.3-0.4,0.7-0.6,0.9c-1.5,1.3-3.3,0.5-3.9-0.7c-0.5-0.9-0.3-1.8,0.3-2.5
		c0.7-0.8,1.7-1.1,2.7-0.7c0.9,0.3,1.3,1.1,1.5,2C483.2,50.3,483.1,50.7,483.1,50.9z"/>
	<path fill="#9EB683" d="M370.7,64.1c0,1.3-1,2.3-2.3,2.3c-1.3,0-2.4-1-2.3-2.3c0-1.3,1.1-2.5,2.3-2.4
		C369.6,61.7,370.8,62.5,370.7,64.1z"/>
	<path fill="#B48A69" d="M434.8,115.6c-1.4,1.1-2.5,1.1-3.6,0c-0.7-0.7-0.9-1.8-0.3-2.7c0.5-0.9,1.5-1.4,2.5-1.2
		c1.1,0.3,1.9,1.1,1.9,2.1c0,0.3,0,0.7,0,0.9C435.4,115.2,435.2,115.4,434.8,115.6z"/>
	<path fill="#7E986B" d="M454.5,176.8c0,1.3-1,2.2-2.3,2.2c-1.3,0-2.4-1-2.4-2.3s1.1-2.4,2.4-2.4
		C453.6,174.4,454.5,175.4,454.5,176.8z"/>
	<path fill="#80996A" d="M432.2,94.7c-1.3,0-2.3-1.1-2.2-2.3c0.1-1.3,1.1-2.4,2.4-2.3c1.3,0,2.3,1.1,2.3,2.4
		C434.7,93.8,433.6,94.8,432.2,94.7z"/>
	<path fill="#5A9B8F" d="M406,17.2c-1.3,0-2.4-1.1-2.3-2.3c0.1-1.2,1.2-2.4,2.4-2.3c1.3,0.1,2.3,1.1,2.3,2.4
		C408.4,16.2,407.4,17.2,406,17.2z"/>
	<path fill="#6A9D82" d="M437.1,50.1L437.1,50.1c0.5-0.5,0.9-1.3,1.8-1.4c1.3-0.3,2.5,0.5,2.8,2c0.2,1.1-0.7,2.3-1.8,2.5
		c-1.3,0.3-2.7-0.6-2.8-1.9C437.1,50.9,437.1,50.5,437.1,50.1z"/>
	<path fill="#679A82" d="M436.9,131.5c-0.1-0.1-0.3-0.3-0.4-0.4c-0.8-1.7-0.3-3.2,1.1-3.7c0.9-0.3,2.1-0.1,2.7,0.7
		c0.6,0.9,0.6,2.2-0.1,3c-0.7,0.8-1.8,1.1-2.7,0.6C437.3,131.7,437.1,131.6,436.9,131.5z"/>
	<path fill="#A0B784" d="M450,108.8c0,1.3-1.1,2.3-2.4,2.3c-1.3,0-2.3-1.1-2.3-2.4c0-1.1,1.2-2.3,2.4-2.3
		C448.9,106.5,450,107.5,450,108.8z"/>
	<path fill="#6B9E83" d="M407,28.1c1.3,0.1,2.3,1,2.3,2.3c-0.1,1.3-1.1,2.3-2.3,2.3c-1.4-0.1-2.4-1.1-2.3-2.5
		C404.7,28.9,405.7,28,407,28.1z"/>
	<path fill="#80986A" d="M459.9,126.1c0,1.3-1,2.3-2.3,2.3c-1.3,0-2.4-1.1-2.4-2.3c0-1.3,1.1-2.3,2.4-2.3S459.9,124.8,459.9,126.1z"
		/>
	<path fill="#62805C" d="M476.3,45.1c-1.3,0-2.3-1.1-2.3-2.3c0-1.3,1.1-2.3,2.4-2.3c1.2,0.1,2.3,1.1,2.2,2.4
		C478.7,44.1,477.6,45.2,476.3,45.1z"/>
	<path fill="#68855E" d="M431.6,63.8c-1.1,0-2.2-1.1-2.3-2.3c0-1.2,1.1-2.3,2.3-2.3s2.3,1,2.3,2.2C434,62.7,433,63.8,431.6,63.8z"/>
	<path fill="#9FB581" d="M372.6,77.3c0.5,0.1,0.5-0.2,0.6-0.6c0.2-0.9,0.8-1.5,1.7-1.7c0.9-0.3,1.7,0,2.3,0.8c0.8,1,0.7,2.3-0.3,3.2
		c-0.9,0.8-2.3,0.7-3.2-0.3c-0.2-0.3-0.4-0.6-0.8-0.5C372.6,78,372.4,77.7,372.6,77.3z"/>
	<path fill="#67865F" d="M395,127c0,1.3-1,2.3-2.3,2.3c-1.2,0-2.3-1.1-2.3-2.3c0-1.2,1.1-2.3,2.4-2.3C394,124.7,395,125.7,395,127z"
		/>
	<path fill="#A0B784" d="M493.2,65.1c0.6-0.1,1-0.6,1.3-1.1c-0.1,0.6,0.3,0.5,0.7,0.5c1.7,0.1,2.7,1.6,2.1,3.1
		c-0.3,0.9-1.5,1.9-2.7,1.4c-1.2-0.5-1.9-1.7-1.5-2.9C493.2,65.8,493.3,65.4,493.2,65.1z"/>
	<path fill="#67845E" d="M461.4,57.4c0.3,0.3,0.6,0.7,0.8,1.1c0.3,1.1,0,2.2-0.9,2.7c-0.9,0.6-2.2,0.4-2.9-0.4s-0.8-1.9-0.2-2.9
		c0.6-0.9,1.8-1.2,2.9-0.7C461.2,57.2,461.3,57.3,461.4,57.4z"/>
	<path fill="#B4906F" d="M469.6,41.2c0.3,0.1,0.6,0.1,0.9,0.2c-0.1,0.3,0.1,0.6,0.3,0.9c0.7,0.9,0.7,1.9,0.1,2.7
		c-0.7,0.9-1.8,1.1-2.8,0.7c-0.8-0.3-1.5-1.5-1.3-2.3c0.1-1,1.1-1.9,2.1-2C469.2,41.3,469.4,41.4,469.6,41.2z"/>
	<path fill="#997B67" d="M386.4,128.2c-1.3,0-2.3-0.9-2.3-2.1c0-1.3,1-2.3,2.3-2.3s2.3,1,2.3,2.3
		C388.7,127.2,387.7,128.2,386.4,128.2z"/>
	<path fill="#5D9F93" d="M349.2,74c0-1.3,0.9-2.1,2.3-2.1c1.3,0,2.3,0.9,2.3,2.2s-1.1,2.3-2.3,2.3C350.1,76.4,349.2,75.3,349.2,74z"
		/>
	<path fill="#9EB682" d="M488.7,119c-0.2-0.1-0.4-0.3-0.5-0.5c0.5-0.1,0.3-0.4,0.2-0.7c-0.1-0.9-0.2-1.7,0.4-2.4
		c0.7-0.9,2-1.1,2.9-0.4c0.8,0.6,1.5,1.8,0.7,2.9c-0.8,1.3-1.9,1.6-3.3,0.9C489.1,118.8,488.9,118.5,488.7,119z"/>
	<path fill="#B18867" d="M410.6,53c0,1.3-1,2.3-2.3,2.3S406,54.4,406,53c0-1.3,1-2.3,2.3-2.3C409.6,50.7,410.6,51.8,410.6,53z"/>
	<path fill="#9FB682" d="M412.7,136.4c0,1.1-1.1,2.3-2.2,2.3c-1.3,0-2.5-1.2-2.5-2.3c0.1-1.1,1.2-2.3,2.3-2.3
		C411.6,134,412.7,135.1,412.7,136.4z"/>
	<path fill="#7F996C" d="M477.5,115.8c-2,0.1-3.3-1.3-2.7-2.9c0.3-0.9,0.9-1.4,1.9-1.5c0.9-0.1,1.7,0.3,2.2,1.1
		c0.5,0.8,0.5,1.6-0.1,2.4c-0.1,0.1-0.2,0.3-0.3,0.4C478.4,115.7,478,115.8,477.5,115.8z"/>
	<path fill="#9D8068" d="M407.1,142.7c-0.4,0-0.8,0-1.2,0c-1-0.3-1.5-1-1.5-2.1c0-0.9,0.4-1.6,1.1-2.1c0.9-0.5,1.7-0.4,2.5,0.1
		c0.8,0.6,1,1.4,0.8,2.3C408.6,142,408,142.5,407.1,142.7z"/>
	<path fill="#9EB782" d="M445,175.6c0.5,0.1,1,0.7,1.7,0.3c-0.1,0.4,0.3,0.6,0.4,0.9c0.5,0.8,0.6,1.5,0.1,2.4
		c-0.4,0.7-1.1,1.1-1.9,1.2c-0.9,0.1-2-0.8-2.3-1.7c-0.3-0.9,0.3-2.1,1.2-2.5C444.5,176,444.8,176,445,175.6z"/>
	<path fill="#699C82" d="M407.3,68.8c-0.9-0.7-1.3-1.7-1-2.7c0.2-0.7,1.1-1.5,1.9-1.5c0.9-0.1,1.8,0.4,2.3,1.2
		c0.7,1.4-0.1,2.9-1.9,3.3C408.1,69.5,407.7,69.2,407.3,68.8z"/>
	<path fill="#BA9775" d="M490.7,125.3c0.3,0.5,0.8,0.7,1.3,0.8c0.1,0.3,0.1,0.5,0.3,0.7c0.5,1.3,0,2.5-1.2,2.9s-2.4,0-2.9-1.3
		c-0.1-0.2-0.1-0.5-0.5-0.6c-0.1-0.1-0.1-0.3,0-0.4c0.1-0.1,0.3-0.1,0.3-0.2c0.3-1.3,1.3-1.9,2.5-1.9
		C490.6,125.4,490.6,125.4,490.7,125.3z"/>
	<path fill="#9FB783" d="M504.8,92c0,1.1-1.1,2.3-2.3,2.3c-1.1,0.1-2.3-1.1-2.3-2.3c0.1-1.3,1.1-2.3,2.2-2.3
		C503.5,89.6,504.8,91,504.8,92z"/>
	<path fill="#B69371" d="M442.2,44.8c0,1.3-1,2.3-2.2,2.3c-1.2,0-2.3-1.1-2.3-2.3c0.1-1.2,0.8-2.1,2.3-2.2
		C441.2,42.4,442.3,43.6,442.2,44.8z"/>
	<path fill="#9DB581" d="M407.3,68.8c0.4,0.1,0.9,0.3,1.3,0.3c0.2,0.6,0.5,1.2,1.3,1.3c-0.1,0.5-0.2,1.1,0.2,1.6
		c-0.5-0.1-0.5,0.3-0.7,0.6c-0.6,1-2,1.3-3,0.7c-0.8-0.5-1.1-1.1-1-2.1c0.1-0.9,0.6-1.5,1.3-1.8C407,69.3,407.4,69.3,407.3,68.8z"/>
	<path fill="#6A9B82" d="M368.6,107.5c0,1.3-0.9,2.1-2.1,2.2c-1.3,0-2.3-0.9-2.3-2.3c0-1.2,1-2.2,2.3-2.2
		C367.6,105.2,368.6,106.2,368.6,107.5z"/>
	<path fill="#B69270" d="M451.9,45.2c-1.4-0.6-2-1.6-1.7-2.8c0.3-0.9,1.1-1.5,2-1.6c0.9-0.1,1.7,0.5,2.1,1.3
		c0.4,0.9,0.2,1.9-0.5,2.5c-0.3,0.2-0.5,0.4-0.9,0.6C452.6,45.5,452.3,45.5,451.9,45.2z"/>
	<path fill="#9C7F6A" d="M474,124.3c1.2,0,2.2,0.9,2.2,2c0,1.3-0.9,2.3-2.3,2.3c-1.1,0-2.1-1-2.1-2.1
		C471.9,125.2,472.8,124.3,474,124.3z"/>
	<path fill="#67845D" d="M388.7,43.7c1.5,0,2.5,0.9,2.4,2.3c-0.1,1.2-1.1,2.1-2.4,2.1c-0.9-0.1-1.8-0.8-2-1.7
		c-0.2-1,0.3-1.9,1.3-2.5C388.2,43.7,388.5,43.6,388.7,43.7z"/>
	<path fill="#617D59" d="M418.9,45c-0.1,0.1-0.3,0.2-0.5,0.3c-0.5,0.6-1.1,0.6-1.6,0.1c-0.4-0.2-0.8-0.3-1.1-0.6
		c-1.3-1.8,0.1-3.5,1.4-3.7c0.7-0.1,1.3,0.1,1.7,0.6c0.6,0.6,0.7,1.3,0.7,2.1C419.5,44.3,419.3,44.7,418.9,45z"/>
	<path fill="#668660" d="M347.2,130.9c-0.4,0.3-0.7,0.9-1.4,0.8c-1.6-0.2-2.6-1.3-2.3-2.5c0.2-1,0.8-1.7,1.7-1.8
		c0.9-0.2,1.8,0.2,2.3,1C347.9,129,347.8,130.1,347.2,130.9z"/>
	<path fill="#76A48A" d="M466.7,87.6c0.1-0.2,0.1-0.4,0.1-0.6c0.3,0.1,0.4-0.1,0.5-0.3c0.7-0.8,1.6-1.1,2.5-0.7
		c0.8,0.3,1.4,1.1,1.4,2.1s-0.7,1.7-1.7,2c-1.1,0.3-2.5-0.5-2.7-1.7C467,88.1,467.2,87.7,466.7,87.6z"/>
	<path fill="#698961" d="M359.2,133.6c1.2,0,2.2,0.9,2.2,2.2c0,1.1-1.1,2.2-2.1,2.2c-1.2,0-2.3-1.1-2.3-2.2
		C357,134.5,358,133.6,359.2,133.6z"/>
	<path fill="#698761" d="M500.5,86.9c0.1-1.3,1-2.1,2.2-2.1c1.2,0.1,2.1,1,2.1,2.2s-1.1,2.1-2.3,2.1
		C501.3,89.2,500.4,88.2,500.5,86.9z"/>
	<path fill="#5E9F93" d="M364.3,74.3c0.3-0.1,0.3-0.4,0.5-0.6c0.6-1,1.5-0.9,2.5-0.9c0.8,0.1,1.2,0.7,1.4,1.5c0.3,0.9-0.2,2-1.1,2.5
		c-0.7,0.4-1.9,0.2-2.5-0.5c-0.2-0.2-0.3-0.5-0.6-0.5C364.1,75.3,364.1,74.8,364.3,74.3z"/>
	<path fill="#5A9D90" d="M355.3,70.9c0.5-0.2,1-0.4,1.5-0.3c1.8,0.5,2.5,2.1,1.6,3.4c-0.7,0.9-2,1.2-3,0.6c-1-0.7-1.3-2-0.6-3
		C354.9,71.3,355.1,71.1,355.3,70.9z"/>
	<path fill="#599B8D" d="M439.7,133.3c1.2,0.1,2.1,1.1,2.1,2.2s-1.1,2.2-2.3,2.1c-1.1-0.1-2.1-1.1-2.1-2.1
		C437.5,134.3,438.5,133.1,439.7,133.3z"/>
	<path fill="#7C976B" d="M490.4,112.4c-0.1,1.3-1.1,2.3-2.3,2.2c-1.1-0.1-2.1-1.3-2-2.3c0.1-0.9,0.9-2.2,2.4-2.1
		C489.6,110.3,490.5,111.3,490.4,112.4z"/>
	<path fill="#9FB683" d="M424.1,107.7c0,1.1-1,2.2-2.2,2.2c-1.1,0-2.2-1-2.3-2.1c-0.1-1.1,1.1-2.3,2.3-2.3
		C423,105.5,424.1,106.6,424.1,107.7z"/>
	<path fill="#A3BA89" d="M505.4,116c0.7-0.1,1.1-0.5,1.6-1c0.3,0.5,0.7,0.3,1.1,0.5c0.9,0.3,1.5,1.4,1.4,2.2c-0.3,1.2-1.2,2.1-2.2,2
		c-1.3-0.1-2.3-1.3-2.1-2.6C505.4,116.7,505.5,116.4,505.4,116z"/>
	<path fill="#6C9E84" d="M449.5,73.4c1.3,0,2.1,0.9,2.1,2.1c0,1.3-0.8,2.1-2.1,2.1c-1.3,0-2.1-0.9-2.1-2.1
		C447.4,74.2,448.2,73.4,449.5,73.4z"/>
	<path fill="#7D986B" d="M425.5,34.1c0,1.1-1,2.1-2.1,2.1c-1.1,0-2.2-1.1-2.2-2.1c0-1.1,1.1-2.2,2.2-2.2
		C424.7,32,425.5,32.9,425.5,34.1z"/>
	<path fill="#70A386" d="M441.6,15.3c0.7-0.6,0.6-1.3,0.5-2.1c0.3,0.5,0.5,0.2,0.8,0.1c0.9-0.5,1.9-0.3,2.6,0.3
		c0.7,0.7,0.7,1.7,0.3,2.5c-0.4,0.6-1,0.9-1.7,0.9c-0.4,0.1-0.5,0.2-0.3,0.5c-0.9-0.5-2-0.5-3.1-0.5c0.5-0.3,1.1-0.1,1.5-0.1
		c0.4,0,0.5-0.2,0.2-0.5C442.2,16.1,442.3,15.4,441.6,15.3z"/>
	<path fill="#689882" d="M403.8,179.7c-1.2,0-2.1-0.9-2.1-2.1c0-1.2,0.9-2.1,2.1-2.1c1.2,0,2.1,0.9,2.1,2.1
		C406,178.8,405.1,179.7,403.8,179.7z"/>
	<path fill="#A0B783" d="M461.1,151.4c0.2-0.1,0.3-0.2,0.5-0.1c-0.1,0.5,0.2,0.4,0.5,0.5c1.1,0.3,1.7,1.2,1.7,2.1c0,1-0.7,1.8-1.8,2
		c-0.7,0.1-1.6-0.3-2-0.9c-0.6-1-0.3-1.9,0.1-2.4C460.4,152.2,461.1,152,461.1,151.4z"/>
	<path fill="#688760" d="M386.6,96.3c-1.1,0-2.1-0.9-2.1-2.1c0-1.1,1-2.1,2.2-2.1c1.1,0,2.1,1,2.1,2.1
		C388.8,95.4,387.9,96.3,386.6,96.3z"/>
	<path fill="#5F9D90" d="M432,38.9c0.3,0.2,0.3,0.5,0.3,0.9c-0.3,0.1-0.3,0.5-0.5,0.7c-0.5,0.9-1.6,1.4-2.5,1.1
		c-0.8-0.3-1.5-1.4-1.4-2.2c0.2-1.1,1.1-1.9,2.1-1.9C430.9,37.6,431.6,38.1,432,38.9z"/>
	<path fill="#B28866" d="M427.7,55.1c0.1-0.3,0.1-0.7,0.3-0.9c0.1,0.2-0.1,0.5,0.1,0.6c0.3,0.1,0.4-0.2,0.6-0.3
		c0.7-0.5,1.5-0.7,2.3-0.3c0.8,0.5,1.1,1.1,1.1,2.1c-0.1,0.8-0.5,1.3-1.1,1.7c-1.5,0.7-2.9-0.3-2.9-1.9
		C428,55.6,428.3,55.2,427.7,55.1z"/>
	<path fill="#B38969" d="M390.5,130.5c0,1.2-0.9,2.1-2.1,2.1c-1.1,0-2.1-1.1-2.1-2.1c0-1.2,0.9-2,2.1-2
		C389.7,128.4,390.5,129.2,390.5,130.5z"/>
	<path fill="#569B8E" d="M358.1,140.8c0-1.2,0.9-2.1,2.2-2.1c1,0,2,1,2,2c0,1.2-0.9,2.1-2.1,2.1C359,142.9,358,142.1,358.1,140.8z"
		/>
	<path fill="#BA9876" d="M358.2,101.6c-0.3,0.1-0.3,0.5-0.5,0.7c-0.6-0.3-1.1,0.3-1.7,0.3c-0.3,0.2-0.5,0.1-0.6-0.1
		c-1.3-0.7-1.8-1.9-1.1-3c0.5-0.9,1.5-1.3,2.5-0.9c0.8,0.3,1.5,1.3,1.4,2.2C358.2,101.1,358,101.4,358.2,101.6z"/>
	<path fill="#67855E" d="M426.5,139.8c1.1,0,2.1,1,2.1,2.1c0,1.1-1,2-2.1,2c-1.1,0-2.1-1-2.1-2.1
		C424.5,140.7,425.5,139.8,426.5,139.8z"/>
	<path fill="#B89573" d="M388.5,79.7c0,1.1-0.9,2-2.1,2c-1.1,0-2.1-0.9-2.1-2.1c0-1.1,1.1-2.1,2.2-2.1
		C387.6,77.6,388.5,78.6,388.5,79.7z"/>
	<path fill="#67875F" d="M436.5,144.3c0.3,0.3,0.4,0.7,0.8,0.9c0.5,0.9,0.4,1.7-0.2,2.4c-0.7,0.7-1.7,0.9-2.5,0.4
		c-0.9-0.5-1.3-1.5-0.9-2.5c0.3-0.9,1.3-1.5,2.2-1.4C436,144.1,436.2,144.3,436.5,144.3z"/>
	<path fill="#A1B985" d="M391.9,166.2c0,1.2-0.9,2.1-2.1,2.1c-1,0-2.1-1.1-2.1-2.1c0-1,1.1-2.1,2.1-2.1
		C391,164.2,391.9,164.9,391.9,166.2z"/>
	<path fill="#6B9D84" d="M445.8,118.5c1.1,0,2.1,0.9,2.1,2c0,1.1-0.9,2.1-2.1,2.1c-1.1,0-2.1-0.9-2.1-2.1
		C443.8,119.3,444.6,118.5,445.8,118.5z"/>
	<path fill="#809A6C" d="M345.4,91.1c1.1,0,1.9,0.9,1.9,1.9c0,1.2-0.9,2.2-2.1,2.2c-1.1,0-2.1-1-2.1-2.1
		C343.2,91.9,344.1,91.1,345.4,91.1z"/>
	<path fill="#7E996B" d="M380,37c-1.2,0-2.1-0.9-2.1-2c0-1.1,0.9-2.1,2-2.1c1.1,0,2.1,0.9,2.2,2C382.1,36.1,381.2,37,380,37z"/>
	<path fill="#73A188" d="M465.4,82.5c-1.1,0-2-0.9-2.1-2c0-1.1,0.9-2.1,2-2.1c1.1,0,2.1,0.9,2.1,1.9
		C467.6,81.6,466.6,82.5,465.4,82.5z"/>
	<path fill="#A2B988" d="M345.2,84.2c1.1,0,2,0.9,2,2c0,1.1-0.9,2.1-2.1,2.1c-0.9,0.1-2.1-1.3-2-2.1
		C343.2,85.1,343.9,84.2,345.2,84.2z"/>
	<path fill="#BA9876" d="M410.2,88.9c1.2,0,2.1,0.9,2.1,2.1c0,1.1-0.9,2.1-2,2c-1.2,0-2.1-0.9-2.1-2.1
		C408.2,89.8,409.2,88.9,410.2,88.9z"/>
	<path fill="#9CB581" d="M451.7,147c0.3-0.4,0.6-0.7,0.9-1c0.1,0.6,0.6,0.3,0.9,0.2c0.9-0.2,1.7,0.1,2.1,0.8
		c0.5,0.9,0.4,1.9-0.3,2.5c-0.7,0.7-1.5,0.8-2.5,0.3c-0.7-0.4-1.1-1.3-0.9-2.3C452.2,147.2,452.3,146.9,451.7,147z"/>
	<path fill="#5A9C8F" d="M404.6,35.3c0-1.1,0.8-2,1.9-2c1.2,0,2.1,0.9,2.1,2c0,1.1-0.9,1.9-2,2C405.5,37.3,404.6,36.4,404.6,35.3z"
		/>
	<path fill="#809A6B" d="M497.5,126.4c-1.3,0-2-0.9-1.7-2.2c0.1-0.3,0.1-0.5,0.1-0.8c0-0.4,0.2-0.6,0.5-0.8c0.5-0.3,2-0.3,2.4,0.1
		c0.7,0.5,0.9,1.5,0.6,2.4C499.2,125.8,498.3,126.4,497.5,126.4z"/>
	<path fill="#699A82" d="M418.9,124c0.5-0.1,1.1-0.1,1.6-0.1c-0.3,0.4-0.1,0.4,0.3,0.5c1.6,0.3,2.3,1.8,1.3,3.1
		c-0.5,0.8-1.9,1.1-2.7,0.5c-0.9-0.7-1.1-1.9-0.5-2.8c0.1-0.1,0.2-0.2,0.3-0.3c0.1-0.1,0.5-0.2,0.3-0.5c-0.1-0.3-0.4-0.1-0.6-0.2
		C419,124.1,419,124,418.9,124z"/>
	<path fill="#9FB781" d="M391.5,148.1c0.2-0.3,0.4-0.5,0.7-0.6c-0.1,0.7,0.3,0.5,0.7,0.4c0.8-0.1,1.5,0.1,2,0.8
		c0.5,0.7,0.6,1.3,0.3,2c-0.4,0.8-1.3,1.2-2.1,1.1c-0.7-0.1-1.4-0.7-1.6-1.5c-0.2-0.6,0-1.1,0.3-1.7
		C391.8,148.6,392.1,148.2,391.5,148.1z"/>
	<path fill="#65865F" d="M392.2,111.1c0.2,0.2,0.4,0.1,0.7,0.1c0.9,0.6,1.3,1.2,1.1,2.2c-0.1,0.8-0.8,1.4-1.6,1.5
		c-0.9,0.1-1.7-0.2-2.1-0.9c-0.3-0.7-0.4-1.3,0-1.9C390.7,111.3,391.3,111,392.2,111.1z"/>
	<path fill="#829B6E" d="M394.3,160.2c0.3,0.3,0.3,0.7,0.7,1c-0.2,0.3-0.1,0.5-0.1,0.8c-0.1,1.1-1.2,1.9-2.3,1.7
		c-1.1-0.2-1.9-1.3-1.5-2.4c0.3-1.2,1.4-1.8,2.6-1.4C393.8,160,394,160.1,394.3,160.2z"/>
	<path fill="#7D976A" d="M416.2,81.2c0.1-1.2,0.9-2,2.1-2c1.1,0.1,1.9,1.1,1.9,2.1c-0.1,1.1-1.1,2-2.1,1.9
		C417.1,83.2,416.1,82.3,416.2,81.2z"/>
	<path fill="#699C82" d="M419.4,55.8c-0.5,0.1-0.9-0.5-1.4-0.3c0-0.3-0.2-0.4-0.3-0.6c-0.5-0.7-0.5-1.7-0.1-2.4
		c0.5-0.7,1.4-1,2.1-0.7c0.8,0.3,1.3,1,1.3,1.8c0,1.1-0.3,1.7-1.3,2C419.6,55.5,419.4,55.6,419.4,55.8z"/>
	<path fill="#7F996C" d="M408.6,125.6c1,0,1.9,0.9,1.9,2c0,1-0.9,2-2,2c-1,0-1.9-0.9-1.9-1.9C406.6,126.6,407.5,125.6,408.6,125.6z"
		/>
	<path fill="#7F996A" d="M414.9,169.1c0,1.2-0.7,1.9-1.9,1.9c-1.1,0-1.9-0.8-1.9-2c0-1.1,0.8-1.9,1.9-1.9
		C414.1,167.1,414.9,167.9,414.9,169.1z"/>
	<path fill="#9EB681" d="M457.2,131.9c0,1-1.1,2-2.1,2c-1.1,0-2.1-1.1-2-2.1c0.1-0.9,1.1-1.9,2-1.9
		C456.1,129.8,457.2,130.9,457.2,131.9z"/>
	<path fill="#7F9B6F" d="M485.1,86.9c0,1.2-0.8,2-1.9,2s-2-0.9-2-2c0-1.1,0.8-1.9,2-1.9C484.3,85,485.1,85.7,485.1,86.9z"/>
	<path fill="#9AB37F" d="M432,33.4c-0.1-0.2-0.2-0.5-0.3-0.7c0.5,0.1,0.5-0.3,0.6-0.5c0.5-1.2,1.3-1.5,2.5-1.2
		c0.3,0.1,0.5,0.3,0.6-0.2c0.3,0.1,0.3,0.4,0.5,0.6c-0.3,0.2-0.1,0.4-0.1,0.6c0.4,0.9,0.2,1.6-0.5,2.2c-0.2,0.2-0.3,0.3-0.3,0.6
		c-0.1,0.3-0.3,0.3-0.6,0.3c0-0.2,0-0.4-0.2-0.4c-0.9-0.1-1.4-0.5-1.9-1.2C432.2,33.5,432.1,33.5,432,33.4z"/>
	<path fill="#9C7E68" d="M383.6,65.9c0.7,0.3,1.1-0.1,1.5-0.7c1,0.1,1.8,0.7,1.9,1.6c0.1,0.9-0.3,1.8-1.2,2.2
		c-0.8,0.3-1.8,0.1-2.3-0.6C382.9,67.7,383,66.7,383.6,65.9z"/>
	<path fill="#9EB683" d="M486,66.2c1.1-0.7,0.7-1.8,0.8-2.7c0.1,1.1,0.3,1.7,1.6,1.2c0.8-0.3,1.8,0.9,1.9,1.9
		c0.1,0.7-0.9,1.8-1.7,1.9c-0.7,0.1-1.8-0.3-2.1-1.4C486.5,66.8,486.7,66.2,486,66.2z"/>
	<path fill="#9CB37E" d="M451.9,45.2c0.3,0,0.7,0,1.1,0c0.1,0.6,0.8,0.6,1.1,1.1c0.4,0.6,0.5,1.5,0.1,2.1c-0.5,0.7-1.3,1.1-2.1,0.9
		c-0.7-0.1-1.3-0.9-1.4-1.5c-0.1-0.8,0.1-1.5,0.9-1.9C451.8,45.7,451.9,45.5,451.9,45.2z"/>
	<path fill="#A1826A" d="M470,55.9c1.1,0,1.9,0.8,1.9,1.9c0,1-0.9,1.8-1.9,1.8c-1.1,0-2-0.9-2-1.9C468,56.6,468.8,55.9,470,55.9z"/>
	<path fill="#67865F" d="M364.3,74.3c0.3,0.5,0.1,1,0.1,1.5c-0.5,0.6-1,1.3-1.9,1.2c-0.9-0.1-1.5-0.5-1.8-1.4
		c-0.2-0.7,0.2-1.7,0.9-2.1s1.6-0.3,2.3,0.2C363.9,73.9,364.1,74.1,364.3,74.3z"/>
	<path fill="#7F9A6C" d="M458.3,162.1c-0.5,0.6-1.1,0.5-1.7,0.1c-0.5-0.5-1.1-0.8-1.1-1.6c-0.1-0.9,0.4-1.7,1.2-1.9
		c0.9-0.3,1.8,0,2.3,0.7c0.5,0.7,0.4,1.6-0.3,2.3C458.6,162,458.4,162,458.3,162.1z"/>
	<path fill="#67865F" d="M360.8,63.5c0-1.1,0.8-1.9,1.9-1.9c1,0,1.9,0.9,1.9,1.8c0,1.1-0.9,2-1.9,2
		C361.7,65.4,360.8,64.5,360.8,63.5z"/>
	<path fill="#9EB57F" d="M424.1,146.1c-0.1,1-1,1.9-2,1.9c-1.1-0.1-1.9-1.1-1.9-2c0.1-1,1-1.9,1.9-1.8
		C423,144.1,424.1,145.2,424.1,146.1z"/>
	<path fill="#678760" d="M407.4,120.3c0.3,0.6,0.5,1.2,0,1.7c-0.8,1.1-1.9,1.3-2.8,0.6c-0.8-0.6-0.9-1.9-0.3-2.7
		C405.1,118.9,406.5,119.1,407.4,120.3z"/>
	<path fill="#688762" d="M506.1,84.7c-1,0-1.9-0.9-1.9-1.9c0-1,0.9-1.9,1.8-1.9c1.1,0,2,0.9,2,1.9C508,83.9,507.1,84.7,506.1,84.7z"
		/>
	<path fill="#6A8962" d="M381.5,168c0,1.1-0.8,1.9-1.7,1.9c-1.1,0-1.9-0.8-1.9-1.9c0-1,0.9-1.9,1.9-1.9
		C380.7,166.1,381.5,166.9,381.5,168z"/>
	<path fill="#7D996A" d="M388.4,154.8c0,1.1-0.8,1.9-1.9,1.9s-1.9-0.9-1.9-1.9c0-1,0.8-1.8,1.8-1.9
		C387.6,152.9,388.4,153.6,388.4,154.8z"/>
	<path fill="#9C7D67" d="M428.5,113.8c-1.1,0-1.9-0.9-1.8-1.9c0-1,0.9-1.9,1.9-1.8c1.1,0,1.8,0.8,1.8,1.9
		C430.4,113,429.6,113.8,428.5,113.8z"/>
	<path fill="#67865F" d="M445.5,146.2c0,1.1-0.8,1.9-1.8,1.9c-1.1,0-1.9-0.8-1.9-1.9c0-0.8,1.1-1.9,2-1.9
		C444.7,144.3,445.5,145.2,445.5,146.2z"/>
	<path fill="#B38A69" d="M405.5,89c0.7,0.1,1.3,0.3,1.7-0.5c0.2-0.4,0.7,0.1,1.1,0.2c-0.3,0.4-0.7,0.5-1.1,0.6
		c-0.5,0.1-0.5,0.3-0.3,0.7c0.5,0.6,0.8,1.3,0.4,2.1c-0.3,0.7-1.1,1.1-1.8,0.9c-0.8-0.1-1.4-0.7-1.5-1.5c-0.1-0.8,0.3-1.4,0.9-1.8
		C405.2,89.4,405.7,89.5,405.5,89z"/>
	<path fill="#B99674" d="M379.9,65.6c1.1,0,2,0.9,1.9,1.9c0,0.9-0.9,1.8-1.8,1.8c-1,0-2-0.9-2-1.9C378.1,66.4,378.9,65.6,379.9,65.6
		z"/>
	<path fill="#B99674" d="M413.3,63.5c1.1,0,1.9,0.8,1.9,1.8s-0.8,1.9-1.7,1.9c-1,0.1-1.9-0.9-1.9-1.9
		C411.4,64.2,412.2,63.5,413.3,63.5z"/>
	<path fill="#A0B885" d="M497.4,107.7c0-0.9,0.9-1.7,1.8-1.8c1,0,1.9,0.9,1.9,1.9c0,0.9-0.9,1.8-1.9,1.8
		C498.2,109.7,497.4,108.8,497.4,107.7z"/>
	<path fill="#819B6D" d="M431.2,72.2c-0.5-0.1-1-0.1-1.5-0.1c0.1,0,0.1-0.1,0.2-0.1c0.2-0.1,0.5,0.1,0.6-0.1
		c0.1-0.3-0.2-0.4-0.3-0.5c-0.7-0.7-0.7-1.8-0.1-2.5s1.7-0.7,2.5-0.1c1,0.9,0.6,2.5-0.7,3C431.6,71.8,431.1,71.6,431.2,72.2z"/>
	<path fill="#698860" d="M362.8,151.9c0,1-0.8,1.9-1.8,1.9c-0.9,0-1.8-0.9-1.8-1.7c0-0.9,0.8-1.7,1.8-1.8
		C361.9,150.2,362.7,151,362.8,151.9z"/>
	<path fill="#698861" d="M480.8,110.6c-1,0-1.9-0.8-1.9-1.8c0-0.9,0.9-1.7,1.8-1.7s1.8,0.8,1.8,1.7
		C482.6,109.8,481.8,110.6,480.8,110.6z"/>
	<path fill="#9D7F69" d="M398.2,83.6c-0.3,0.2-0.7,0.5-1,0.7c-0.5,0-1.1-0.1-1.5-0.4c-0.8-0.7-0.9-1.7-0.3-2.5
		c0.6-0.7,1.7-0.9,2.5-0.3C398.8,81.7,398.9,82.7,398.2,83.6z"/>
	<path fill="#B78E6E" d="M503.6,127.6c0.3,0,0.7,0,1.1,0c-0.2,0.3,0.1,0.4,0.3,0.5c0.7,0.5,0.9,1.3,0.7,2.2
		c-0.3,0.7-0.9,1.1-1.6,1.1c-0.8,0-1.4-0.5-1.7-1.3c-0.2-0.7,0.1-1.5,0.8-1.9C503.3,128,503.6,127.9,503.6,127.6z"/>
	<path fill="#A08269" d="M367.3,104.2c-0.9-0.1-1.7-0.9-1.6-1.9c0.1-1,0.9-1.8,1.9-1.7c0.9,0.1,1.7,0.9,1.7,1.8
		C369.3,103.4,368.3,104.3,367.3,104.2z"/>
	<path fill="#7E996B" d="M388.7,43.7c-0.2,0.3-0.4,0.1-0.7,0.2c0.1-0.6-0.5-0.3-0.7-0.5c-0.7-0.3-1.3-1-1.3-1.7
		c0-0.7,0.6-1.5,1.2-1.6c0.8-0.2,1.6,0.1,2,0.7s0.4,1.5-0.1,2.1C388.9,43.1,388.5,43.3,388.7,43.7z"/>
	<path fill="#66855F" d="M424.7,150.6c0,1-0.8,1.7-1.8,1.7s-1.8-0.8-1.7-1.8c0-1.1,0.8-1.8,2.1-1.7
		C424.1,148.8,424.8,149.8,424.7,150.6z"/>
	<path fill="#5EA093" d="M442.2,75.3c0-1,0.7-1.7,1.7-1.7c0.9,0,1.8,0.8,1.8,1.7c0,1-0.8,1.9-1.8,1.9
		C443,77.2,442.2,76.4,442.2,75.3z"/>
	<path fill="#A1B988" d="M498.9,97.5c0.3-0.3,0.5-0.5,0.8-0.8c-0.1,0.5,0.3,0.4,0.6,0.3c0.8-0.1,1.7,0.3,2,1
		c0.3,0.8,0.1,1.6-0.5,2.1c-0.5,0.5-1.2,0.5-1.8,0.2c-0.6-0.3-0.9-0.7-1-1.4C499,98.4,499.2,97.9,498.9,97.5z"/>
	<path fill="#9FB681" d="M409.8,173.8c0-0.9,0.9-1.7,1.8-1.7c0.9,0,1.7,0.9,1.7,1.8c0,1-0.9,1.8-1.9,1.8
		C410.6,175.7,409.8,174.8,409.8,173.8z"/>
	<path fill="#9F8069" d="M377.2,101.2c0.9,0,1.8,0.8,1.8,1.7s-0.9,1.8-1.7,1.8c-1,0-1.9-0.8-1.8-1.8
		C375.5,102,376.2,101.2,377.2,101.2z"/>
	<path fill="#678760" d="M435.8,70.3c1,0,1.7,0.8,1.7,1.8c0,0.9-0.8,1.7-1.7,1.7c-1,0-1.8-0.8-1.8-1.7
		C433.9,71.1,434.8,70.3,435.8,70.3z"/>
	<path fill="#9EB784" d="M445.8,90c0-0.9,0.8-1.7,1.7-1.7c1.1,0,1.7,1,1.8,1.9c0,0.9-0.8,1.6-1.7,1.6C446.5,91.8,445.8,91,445.8,90z
		"/>
	<path fill="#BB9876" d="M421.4,136.2c0,0.9-0.9,1.8-1.8,1.7c-0.9,0-1.7-0.9-1.7-1.9s0.9-1.7,1.9-1.7
		C420.6,134.5,421.4,135.3,421.4,136.2z"/>
	<path fill="#9FB782" d="M477.5,115.8c0.4-0.1,0.8-0.3,1.1-0.6c0.1,0.5,0.5,0.4,0.8,0.5c0.9,0.2,1.5,0.9,1.5,1.8
		c0,0.7-0.7,1.4-1.5,1.5c-0.4,0.1-0.7-0.1-1-0.3c-0.3-0.1-0.5-0.3-0.8-0.2c-0.2-0.1-0.3-0.3-0.3-0.5c0.2,0,0.3-0.1,0.3-0.3
		c0-0.5-0.1-1.1,0.3-1.5C477.9,116,477.8,115.8,477.5,115.8z"/>
	<path fill="#6D9D84" d="M368.2,110.5c0-1,0.7-1.8,1.6-1.8c1,0,1.9,0.8,1.8,1.8c0,0.9-0.9,1.7-1.7,1.7
		C369,112.2,368.2,111.5,368.2,110.5z"/>
	<path fill="#819C70" d="M500,59.7c-1,0-1.7-0.7-1.7-1.7c0-1,0.7-1.7,1.7-1.7c0.9,0,1.7,0.8,1.7,1.7C501.8,58.9,501,59.7,500,59.7z"
		/>
	<path fill="#6A9E83" d="M411.7,12.7c0-1,0.8-1.8,1.7-1.7c1,0.1,1.7,0.8,1.7,1.7c0,1-0.9,1.8-1.9,1.7
		C412.4,14.3,411.7,13.5,411.7,12.7z"/>
	<path fill="#6A865F" d="M386.9,51.7c0-0.9,0.7-1.7,1.7-1.7c1,0,1.7,0.7,1.7,1.7c0,0.9-0.7,1.7-1.7,1.7
		C387.7,53.4,386.9,52.6,386.9,51.7z"/>
	<path fill="#9EB681" d="M481,46.5c-0.9,0-1.7-0.7-1.7-1.6c0-0.9,0.7-1.7,1.7-1.8c0.9,0,1.7,0.8,1.7,1.8
		C482.6,45.8,481.9,46.5,481,46.5z"/>
	<path fill="#66835F" d="M407.5,18.4c0.9,0,1.7,0.7,1.6,1.7c0,0.9-0.7,1.7-1.7,1.7c-1,0-1.7-0.7-1.7-1.7
		C405.8,19.2,406.5,18.4,407.5,18.4z"/>
	<path fill="#6A8860" d="M372.6,77.3c0.1,0.3,0.2,0.5,0.3,0.9c-0.2,1.5-1.5,2.3-2.6,1.5c-0.6-0.4-0.9-0.9-0.8-1.7
		c0.1-0.7,0.5-1.1,1.1-1.3C371.4,76.4,372.1,76.7,372.6,77.3z"/>
	<path fill="#9FB784" d="M428.2,65.6c0-0.9,0.9-1.7,1.7-1.7c1.1,0,1.6,0.8,1.7,1.7c0.1,0.9-0.9,1.7-1.7,1.7
		C428.9,67.3,428.2,66.6,428.2,65.6z"/>
	<path fill="#689981" d="M422.1,131.9c-0.9,0-1.6-0.7-1.6-1.6c0-0.9,0.7-1.7,1.7-1.7c0.9,0,1.7,0.7,1.7,1.6
		C423.9,131.2,423.1,131.9,422.1,131.9z"/>
	<path fill="#A0B783" d="M488.3,146.5c-0.9,0-1.7-0.7-1.7-1.7c0-0.9,0.8-1.7,1.7-1.7c0.7,0,1.7,1,1.7,1.7
		C490,145.8,489.4,146.5,488.3,146.5z"/>
	<path fill="#6B8A62" d="M464.1,144.3c-0.9,0-1.7-0.7-1.7-1.6c0-0.8,0.8-1.7,1.6-1.7c1,0,1.7,0.7,1.7,1.7
		C465.8,143.6,465.1,144.3,464.1,144.3z"/>
	<path fill="#9DB57F" d="M414.7,171.8c0-0.8,0.8-1.6,1.6-1.6s1.7,0.9,1.7,1.6c0,1.1-0.7,1.9-1.9,1.8
		C415.4,173.6,414.7,172.7,414.7,171.8z"/>
	<path fill="#B58B6A" d="M431.6,118.9c0-0.9,0.7-1.7,1.5-1.7c0.9,0,1.7,0.7,1.7,1.7c0,1-0.7,1.7-1.6,1.7
		C432.2,120.5,431.6,119.8,431.6,118.9z"/>
	<path fill="#BA9774" d="M414.6,55.5c0,1.1-0.7,1.6-1.7,1.7c-0.9,0.1-1.7-0.8-1.7-1.6c0-0.9,0.7-1.7,1.6-1.7
		C413.8,53.8,414.6,54.6,414.6,55.5z"/>
	<path fill="#7D996D" d="M501.1,118.2c-0.1-0.9,0.4-1.5,1.3-1.7c0.9-0.1,1.7,0.6,1.9,1.5c0.1,0.9-0.6,1.7-1.5,1.8
		C501.9,120,500.9,119.5,501.1,118.2z"/>
	<path fill="#5E9D8F" d="M394,60.1c0.2-0.2,0.4-0.3,0.6-0.5c0.5-0.4,1.1-0.4,1.6-0.3c0.5,0.1,0.7,0.6,1,1c0,0.5,0.1,0.9-0.1,1.4
		c-0.4,0.7-1.1,0.9-1.9,0.7c-0.8-0.2-1-0.9-1.1-1.5C394,60.5,394.2,60.3,394,60.1z"/>
	<path fill="#688560" d="M478.2,48c0,0.8-0.7,1.5-1.6,1.5c-0.9,0-1.6-0.7-1.6-1.5c0-0.9,0.7-1.6,1.5-1.6
		C477.5,46.3,478.2,47,478.2,48z"/>
	<path fill="#698862" d="M481.7,89.4c0.8,0,1.5,0.7,1.5,1.6c0,0.8-0.8,1.5-1.6,1.5c-0.9,0-1.6-0.7-1.6-1.7
		C480,90.2,480.8,89.4,481.7,89.4z"/>
	<path fill="#6B8A62" d="M389,149.1c0.9,0,1.6,0.7,1.6,1.5c0,0.9-0.7,1.7-1.6,1.7c-0.8,0-1.6-0.8-1.6-1.6
		C387.5,149.8,388.2,149.1,389,149.1z"/>
	<path fill="#809A6E" d="M426.5,22.2c0,0.9-0.7,1.5-1.5,1.6c-0.9,0-1.7-0.7-1.7-1.7c0-0.9,0.7-1.6,1.6-1.5
		C425.9,20.6,426.5,21.3,426.5,22.2z"/>
	<path fill="#5A9E90" d="M370.4,148.6c0.9,0,1.6,0.7,1.6,1.6c0,0.9-0.7,1.6-1.7,1.5c-0.9,0-1.5-0.6-1.5-1.5S369.5,148.6,370.4,148.6
		z"/>
	<path fill="#A0B886" d="M480.4,81.9c0-1.1,0.5-1.5,1.5-1.6c0.9-0.1,1.6,0.9,1.7,1.5c0,0.8-0.7,1.6-1.5,1.6
		C481,83.5,480.4,82.9,480.4,81.9z"/>
	<path fill="#B48B6B" d="M415.3,138.8c-0.9,0-1.5-0.7-1.5-1.6c0.1-0.9,0.8-1.5,1.7-1.5c0.8,0,1.5,0.8,1.5,1.5
		C416.9,138.2,416.2,138.8,415.3,138.8z"/>
	<path fill="#9EB482" d="M354,131.9c0.8,0,1.6,0.8,1.6,1.5c0,0.9-0.8,1.7-1.6,1.7c-0.7,0-1.6-1-1.6-1.7
		C352.3,132.6,353.2,131.9,354,131.9z"/>
	<path fill="#9DB582" d="M397.4,36.1c0,0.8-0.9,1.6-1.7,1.5c-0.8,0-1.6-0.9-1.5-1.6c0-0.8,0.8-1.5,1.5-1.5
		C396.6,34.5,397.4,35.3,397.4,36.1z"/>
	<path fill="#A1B989" d="M478.4,103.8c0-0.9,0.7-1.5,1.5-1.5c0.9,0,1.7,0.8,1.7,1.5c-0.1,0.9-0.9,1.6-1.7,1.6
		C479.1,105.3,478.4,104.6,478.4,103.8z"/>
	<path fill="#C1A07C" d="M501.8,137.8c0,0.8-0.7,1.5-1.5,1.5c-0.9,0-1.6-0.7-1.6-1.5s0.7-1.5,1.5-1.5
		C501.1,136.2,501.8,136.9,501.8,137.8z"/>
	<path fill="#A0B884" d="M434.8,115.6c0.1-0.3,0.3-0.5,0.5-0.8c0.3-0.1,0.6-0.1,0.9-0.2c0.9-0.2,1.7,0.3,1.9,1.2
		c0.1,0.7-0.4,1.5-1.2,1.7c-0.8,0.2-1.6-0.4-1.8-1.3C435.1,116,435.3,115.6,434.8,115.6z"/>
	<path fill="#5D9C8D" d="M422.4,120.5c-0.1-0.1-0.1-0.3-0.1-0.5c0.3,0.1,0.3-0.1,0.3-0.3c0.5-1.7,1.7-1.9,2.9-0.6
		c0.1,0.2,0.1,0.4,0.1,0.6c-0.5,1.8-1.5,2.1-2.8,0.8C422.7,120.3,422.6,120.2,422.4,120.5z"/>
	<path fill="#67855E" d="M424.1,77.1c-0.8,0-1.5-0.7-1.5-1.5c0-0.8,0.7-1.5,1.6-1.5c0.8,0,1.5,0.7,1.4,1.6
		C425.7,76.5,425,77.1,424.1,77.1z"/>
	<path fill="#80996E" d="M480.2,123.3c0,0.7-0.7,1.4-1.5,1.5c-0.9,0-1.6-0.7-1.5-1.5c0-0.8,0.7-1.5,1.5-1.5
		C479.5,121.8,480.2,122.5,480.2,123.3z"/>
	<path fill="#819B6E" d="M396.6,131.4L396.6,131.4h-0.1c-0.1-0.3-0.3-0.3-0.5-0.3c-0.7-0.3-1.1-1-1-1.7c0.1-0.7,0.7-1.2,1.4-1.2
		c0.7,0,1.3,0.3,1.5,1.1c0.2,0.6-0.1,1.4-0.7,1.8C397,131.1,396.7,131.1,396.6,131.4z"/>
	<path fill="#9EB581" d="M383.4,20.8c0.9,0,1.5,0.6,1.5,1.5c0,0.7-0.7,1.5-1.5,1.4c-0.9-0.1-1.4-0.6-1.4-1.5
		C381.9,21.3,382.4,20.8,383.4,20.8z"/>
	<path fill="#69855F" d="M378.4,95.3c0,0.9-0.7,1.5-1.6,1.4c-0.7,0-1.4-0.7-1.4-1.5c0-0.9,0.7-1.5,1.5-1.5
		C377.8,93.8,378.4,94.5,378.4,95.3z"/>
	<path fill="#65835E" d="M464.7,38.5c-0.4-0.2-0.8-0.4-1.1-0.7c-0.3-1,0.1-1.8,0.9-2.1c0.8-0.3,1.6,0.1,1.9,0.9
		C466.9,37.7,466.1,38.5,464.7,38.5z"/>
	<path fill="#819B6D" d="M384.8,47.7c0.9,0,1.5,0.6,1.5,1.5c0,0.8-0.7,1.4-1.5,1.4c-0.8,0-1.4-0.7-1.4-1.5
		C383.3,48.3,384,47.7,384.8,47.7z"/>
	<path fill="#A2B886" d="M368.5,86.7c0.6,0,1.4,0.7,1.5,1.3c0.1,0.7-0.7,1.6-1.4,1.7c-0.7,0.1-1.6-0.8-1.6-1.6
		C366.9,87.4,367.7,86.7,368.5,86.7z"/>
	<path fill="#A3BA88" d="M404.3,160.4c0,0.8-0.6,1.5-1.4,1.5c-0.9,0-1.5-0.7-1.5-1.5c0-0.8,0.6-1.5,1.3-1.5
		C403.6,158.9,404.3,159.5,404.3,160.4z"/>
	<path fill="#A1B986" d="M461.1,173.8c0,0.9-0.6,1.5-1.5,1.5c-0.7,0-1.4-0.7-1.4-1.5c0-0.8,0.7-1.5,1.6-1.5
		C460.5,172.3,461.1,173,461.1,173.8z"/>
	<path fill="#859E70" d="M446.8,97.3c0.7,0.1,1.3,0.8,1.2,1.5c-0.1,0.8-0.8,1.4-1.5,1.3c-0.7-0.1-1.3-0.8-1.3-1.5
		C445.2,98.1,446.2,97.3,446.8,97.3z"/>
	<path fill="#A0B885" d="M479.6,147.5c0.5,0.2,0.9,0.5,1.5,0.2c-0.1,0.3,0.1,0.4,0.2,0.7c0.5,0.6,0.3,1.6-0.3,2
		c-0.5,0.4-1.4,0.3-1.9-0.3c-0.5-0.6-0.5-1.3,0.1-1.9C479.4,148,479.6,147.8,479.6,147.5z"/>
	<path fill="#698862" d="M417.4,112.8c-0.2-0.1-0.3-0.3-0.6-0.3c-0.4-1.1-0.4-1.7,0.2-2.1c0.5-0.4,1.1-0.5,1.6-0.1
		c0.5,0.3,0.7,0.9,0.5,1.5c-0.1,0.6-0.6,0.9-1.2,1C417.7,112.8,417.5,112.8,417.4,112.8z"/>
	<path fill="#698661" d="M499.2,61.7c-0.3,1-1.1,0.8-1.8,0.8c-0.8-0.4-1.1-1-0.9-1.7c0.2-0.6,0.8-1.1,1.5-0.9
		c0.7,0.1,1.2,0.7,1.2,1.5C499.2,61.5,499.2,61.6,499.2,61.7z"/>
	<path fill="#A1B886" d="M410.2,131.7c0,0.7-0.7,1.4-1.4,1.4c-0.7,0-1.3-0.6-1.3-1.4c0-0.9,0.5-1.4,1.4-1.4
		C409.6,130.5,410.2,131.1,410.2,131.7z"/>
	<path fill="#698862" d="M347.8,59.8c0.5,0,1.1-0.1,1.5,0.3c0.5,0.6,0.5,1.2,0,1.8c-0.3,0.5-0.9,0.6-1.4,0.5
		c-0.5-0.2-0.9-0.5-0.9-1.1C346.9,60.6,347.2,60.1,347.8,59.8z"/>
	<path fill="#9FB783" d="M432.9,158.3c-0.7,0-1.5-0.7-1.5-1.4c0-0.6,0.7-1.3,1.3-1.3c0.7,0,1.5,0.7,1.5,1.5
		C434.4,157.7,433.7,158.3,432.9,158.3z"/>
	<path fill="#A2BB88" d="M508.1,113.4c0.2-0.3,0.1-0.7,0.1-1.1c0.3,0.1,0.6-0.2,0.9-0.3c0.7-0.3,1.4-0.1,1.8,0.5
		c0.4,0.6,0.3,1.3-0.4,1.7c-0.7,0.5-1.2,0.4-1.8-0.3C508.5,113.7,508.4,113.4,508.1,113.4z"/>
	<path fill="#9CB482" d="M412.2,44.7c-0.8,0-1.3-0.7-1.3-1.5c0-0.7,0.7-1.3,1.4-1.3c0.7,0,1.4,0.7,1.4,1.5
		C413.6,44.1,412.9,44.7,412.2,44.7z"/>
	<path fill="#9FB784" d="M365.4,128c-0.7,0-1.3-0.7-1.3-1.4c0-0.8,0.7-1.4,1.5-1.3c0.5,0,1.2,0.7,1.2,1.3
		C366.8,127.5,366.2,128,365.4,128z"/>
	<path fill="#9BB380" d="M434.5,28.2c0.1,0.5,0.1,0.9,0.1,1.3c-0.3-0.1-0.5,0.1-0.7,0.3c-0.7,0.6-1.4,0.5-1.9-0.1
		c-0.5-0.5-0.5-1.1-0.1-1.7c0.5-0.5,1.2-0.6,1.9-0.1C434.1,28,434.2,28.3,434.5,28.2z"/>
	<path fill="#829D70" d="M486.5,60.9c-0.7,0-1.3-0.6-1.3-1.3c0-0.7,0.7-1.5,1.3-1.4c0.7,0,1.4,0.7,1.4,1.4
		C487.9,60.5,487.3,60.9,486.5,60.9z"/>
	<path fill="#A2B988" d="M354.1,83.2c0.7,0,1.3,0.6,1.3,1.4c0,0.7-0.7,1.3-1.3,1.3c-0.8,0-1.4-0.5-1.4-1.3
		C352.6,83.8,353.3,83.2,354.1,83.2z"/>
	<path fill="#9BB37F" d="M436.1,20c-0.4-0.3-0.8-0.3-1.3-0.3c0.6-0.1,0.9-0.3,0.5-1c-0.3-0.7,0.2-1.3,1-1.5c0.7-0.1,1.4,0.3,1.5,0.9
		c0.1,0.7-0.3,1.4-1,1.5C436.6,19.8,436.2,19.5,436.1,20z"/>
	<path fill="#A0B683" d="M458.8,24.1c0.3,0,0.7,0,1,0c-0.1,0.4,0.2,0.5,0.5,0.7c0.8,0.6,0.9,1.3,0.3,1.9c-0.5,0.5-1.3,0.5-1.9,0
		c-0.5-0.5-0.4-1.3,0.1-1.9C459,24.6,459.4,24.4,458.8,24.1z"/>
	<path fill="#9BB481" d="M393,21.8c0.4-0.3,0.9-0.5,1.1-0.9c0.2,0.3,0.5,0.2,0.8,0.3c0.7,0.2,1.2,0.8,1.1,1.3
		c-0.1,0.7-0.7,1.3-1.3,1.2c-0.7-0.1-1.3-0.5-1.3-1.3C393.5,22,393.4,21.8,393,21.8z"/>
	<path fill="#9FB682" d="M495.4,74.6c0.7,0,1.3,0.5,1.3,1.3c0,0.8-0.6,1.4-1.3,1.3c-0.7,0-1.2-0.6-1.2-1.4
		C494,75.1,494.6,74.5,495.4,74.6z"/>
	<path fill="#A0B885" d="M355.5,102.6c0.2,0.1,0.4,0.1,0.6,0.1c0,0.3,0.2,0.5,0.4,0.7c0.5,0.6,0.5,1.4-0.1,1.8
		c-0.6,0.5-1.4,0.4-1.9-0.2c-0.5-0.6-0.3-1.5,0.4-1.9C355.2,103.1,355.6,103,355.5,102.6z"/>
	<path fill="#659F91" d="M448.7,34.1c0.1,0.5-0.1,1.1-0.3,1.5c-0.2,0.1-0.4,0.1-0.6,0.2c-0.7,0.3-1.2,0.1-1.5-0.5
		c-0.3-0.5-0.3-1.1,0.2-1.6c0.5-0.5,1.1-0.5,1.7-0.1C448.3,33.8,448.4,34.1,448.7,34.1z"/>
	<path fill="#819A6C" d="M383.2,164.9c0,0.7-0.6,1.3-1.3,1.2c-0.7,0-1.3-0.6-1.3-1.3c0-0.7,0.6-1.3,1.3-1.3
		C382.7,163.6,383.2,164.2,383.2,164.9z"/>
	<path fill="#A0B783" d="M393.1,130.4c0.7,0,1.2,0.5,1.2,1.1c0,0.8-0.6,1.5-1.3,1.4c-0.6,0-1.3-0.7-1.3-1.3
		C391.6,131,392.3,130.4,393.1,130.4z"/>
	<path fill="#6D9D85" d="M396.9,124.2c0,0.7-0.5,1.3-1.2,1.3c-0.7,0.1-1.3-0.5-1.3-1.3c0-0.7,0.6-1.3,1.3-1.3
		S396.9,123.4,396.9,124.2z"/>
	<path fill="#619D90" d="M487.6,127.6c0,0.1,0,0.3,0,0.4c-0.5,0.6-0.9,1.2-1.8,0.9c-0.6-0.2-0.8-0.6-0.8-1.2c0-0.6,0.3-1,0.9-1.2
		c0.5-0.2,1.1-0.1,1.4,0.4C487.4,127.1,487.5,127.4,487.6,127.6z"/>
	<path fill="#A2846C" d="M417.4,90.8c0.7,0,1.3,0.6,1.3,1.3c0,0.7-0.6,1.1-1.3,1.2c-0.7,0-1.3-0.5-1.3-1.2
		C416.1,91.4,416.6,90.8,417.4,90.8z"/>
	<path fill="#819B6F" d="M418.8,65.9c0.1,0.6-0.1,1-0.7,1.3c-0.6,0.3-1.2,0.2-1.6-0.3s-0.3-1.1,0-1.5
		C417.2,64.4,418.3,64.7,418.8,65.9z"/>
	<path fill="#A0B987" d="M394.8,114.4c0.8,0,1.3,0.5,1.3,1.2s-0.5,1.3-1.1,1.3s-1.4-0.8-1.4-1.4C393.5,115,394.1,114.5,394.8,114.4z
		"/>
	<path fill="#9EB581" d="M387.9,20.6c0,0.7-0.6,1.2-1.2,1.3c-0.7,0-1.3-0.7-1.3-1.3c0-0.6,0.7-1.3,1.3-1.3
		C387.3,19.2,387.9,19.8,387.9,20.6z"/>
	<path fill="#BA9775" d="M420,84.1c0.6,0,1.2,0.6,1.2,1.3c0,0.7-0.5,1.3-1.2,1.3c-0.7,0-1.3-0.5-1.3-1.3
		C418.8,84.7,419.3,84.1,420,84.1z"/>
	<path fill="#A1B986" d="M441.4,109.7c0-0.7,0.5-1.3,1.2-1.3c0.5,0,1.3,0.9,1.3,1.4s-0.8,1.2-1.4,1.2
		C442,110.9,441.4,110.3,441.4,109.7z"/>
	<path fill="#6E9F85" d="M437.6,84.2c-0.7,0-1.2-0.7-1.1-1.4c0.1-0.7,0.6-1.2,1.3-1.1c0.7,0.1,1.2,0.7,1.2,1.3
		C438.9,83.7,438.3,84.2,437.6,84.2z"/>
	<path fill="#9EB481" d="M454.2,18.9c0-0.7,0.5-1.3,1.1-1.3s1.3,0.7,1.3,1.4c0,0.6-0.5,1.1-1.2,1.1
		C454.7,20.2,454.2,19.6,454.2,18.9z"/>
	<path fill="#A3B887" d="M369.1,92.4c0,0.7-0.5,1.2-1.2,1.2c-0.7,0-1.3-0.6-1.3-1.3c0-0.6,0.7-1.3,1.3-1.3
		C368.5,91,369.1,91.6,369.1,92.4z"/>
	<path fill="#5EA093" d="M349.2,68.9c0.7,0,1.3,0.6,1.3,1.2s-0.5,1.1-1.2,1.1c-0.7,0-1.3-0.5-1.2-1.2
		C348,69.5,348.6,68.9,349.2,68.9z"/>
	<path fill="#9DB782" d="M435.7,139.4c-0.7,0-1.2-0.6-1.1-1.3c0-0.5,0.6-1.1,1.1-1.1c0.6,0,1.3,0.7,1.3,1.2
		C436.9,138.9,436.3,139.4,435.7,139.4z"/>
	<path fill="#9FB786" d="M353,51.8c-0.5,0-1.1-0.5-1.1-1.1c-0.1-0.6,0.6-1.3,1.3-1.3c0.6,0,1.1,0.6,1.1,1.2
		C354.2,51.1,353.5,51.8,353,51.8z"/>
	<path fill="#9EB782" d="M444.7,143c-0.6,0-1.1-0.5-1.1-1.1c0-0.6,0.6-1.3,1.2-1.3s1.3,0.7,1.2,1.3C445.9,142.5,445.3,143,444.7,143
		z"/>
	<path fill="#A1B885" d="M340.6,112c0,0.5-0.7,1.3-1.2,1.2c-0.5,0-1.1-0.7-1.1-1.3c0-0.5,0.7-1.1,1.2-1.1
		C340.1,110.8,340.6,111.3,340.6,112z"/>
	<path fill="#A1B988" d="M509.5,80.2c0.6,0.1,1.1,0.7,1.1,1.3c-0.1,0.5-0.7,1.1-1.2,1.1c-0.6-0.1-1.1-0.7-1.1-1.3
		C508.4,80.6,508.9,80.2,509.5,80.2z"/>
	<path fill="#9DB582" d="M424.1,29.9c0.1-0.2,0.2-0.3,0.3-0.5c0.1,0.5,0.3,0.3,0.5,0.1c0.7-0.3,1.3-0.1,1.6,0.6
		c0.3,0.6-0.1,1.1-0.6,1.3c-0.6,0.3-1.3-0.2-1.5-0.9C424.4,30.3,424.6,29.9,424.1,29.9z"/>
	<path fill="#9FB480" d="M426.7,45.5c0,0.5-0.5,1.1-1.1,1.1c-0.5,0-1-0.6-1-1.2s0.5-1.1,1.1-1.1S426.7,44.8,426.7,45.5z"/>
	<path fill="#A0B784" d="M466.1,146.5c0.6,0,1.1,0.5,1.1,1.1c0,0.6-0.5,1.1-1.1,1.1c-0.5,0-1.1-0.6-1.1-1.1
		C464.9,147,465.6,146.5,466.1,146.5z"/>
	<path fill="#A1B886" d="M432.1,80c0.1-0.6,0.6-1.1,1.1-1c0.5,0.1,1.1,0.7,1.1,1.2c-0.1,0.5-0.7,1.1-1.2,1
		C432.6,81.1,432,80.5,432.1,80z"/>
	<path fill="#A1B986" d="M363.1,131.9c0.5,0,1.1,0.7,1.1,1.2s-0.7,1.1-1.1,1c-0.6,0-1.1-0.5-1.1-1.1
		C362,132.5,362.5,131.9,363.1,131.9z"/>
	<path fill="#A0846E" d="M460.6,87.1c0,0.5-0.3,0.9-0.9,0.9c-0.5,0.1-1-0.4-1-1c0-0.6,0.3-0.9,0.9-0.9
		C460.1,86.1,460.6,86.5,460.6,87.1z"/>
	<path fill="#9FB885" d="M440.4,179.7c0.1-0.5,0.3-1,0.9-1c0.6,0,1,0.4,1.1,1c0.1,0.5-0.5,1-1.1,1
		C440.9,180.8,440.3,180.2,440.4,179.7z"/>
	<path fill="#9FB782" d="M378.7,55.5c0.1-0.5,0.3-0.9,0.9-0.9s1,0.3,1,0.9c0,0.5-0.4,0.9-0.9,1C379.2,56.6,378.7,56.1,378.7,55.5z"
		/>
	<path fill="#A1B986" d="M443.1,131.3c0,0.6-0.3,0.9-0.9,1c-0.5,0.1-1.1-0.5-1.1-0.9c0-0.5,0.5-1,1-1
		C442.7,130.5,443,130.8,443.1,131.3z"/>
	<path fill="#A2B785" d="M339.5,107.1c-0.1,0.5-0.4,0.9-0.9,0.9c-0.5,0-0.9-0.3-1-0.9c-0.1-0.5,0.6-1.1,1.1-1.1
		C339.2,106.1,339.5,106.4,339.5,107.1z"/>
	<path fill="#A2B887" d="M361.7,124.8c0.1-0.8,0.7-1.3,1.1-1.2c0.5,0.1,0.9,0.5,0.8,1.1c-0.1,0.5-0.5,0.9-1.1,0.8
		C362,125.4,361.8,125.1,361.7,124.8z"/>
	<path fill="#A2B788" d="M425.7,107.4c0.3,0.1,0.6,0.1,0.9,0.1c0,0.3,0.1,0.5,0.3,0.7c0.3,0.5-0.1,0.8-0.4,1.1s-0.7,0.1-1-0.1
		c-0.3-0.3-0.4-0.7-0.1-1.1C425.5,107.9,425.7,107.7,425.7,107.4z"/>
	<path fill="#A0B887" d="M478.6,81.9c0,0.6-0.3,0.9-0.9,0.9c-0.5,0-0.9-0.3-0.9-0.8c0-0.5,0.4-0.9,0.9-1
		C478.2,81,478.6,81.5,478.6,81.9z"/>
	<path fill="#A3B885" d="M372.6,120.6c0.5,0.1,0.8,0.5,0.8,1c0,0.6-0.4,0.8-0.9,0.8c-0.5,0-0.9-0.3-0.9-0.9
		C371.6,121,372,120.6,372.6,120.6z"/>
	<path fill="#A1BA88" d="M434.2,127.6c0-0.8,0.4-1,0.9-1c0.5,0,0.8,0.3,0.8,0.8c0,0.5-0.3,0.9-0.9,0.9
		C434.6,128.3,434.3,128,434.2,127.6z"/>
	<path fill="#9FB380" d="M447.3,43.4c0.4-0.2,0.7-0.5,0.9-0.8c0.2,0.1,0.5,0.2,0.7,0.3c0.3,0.1,0.5,0.4,0.4,0.7
		c-0.1,0.3-0.3,0.7-0.7,0.7c-0.3,0-0.6,0-0.8-0.4C447.7,43.8,447.7,43.4,447.3,43.4z"/>
	<path fill="#A3B986" d="M373.5,155.9c-0.1,0.3-0.3,0.5-0.7,0.6c-0.4,0-0.6-0.3-0.6-0.7c0-0.4,0.2-0.7,0.6-0.7
		C373.2,155.1,373.4,155.4,373.5,155.9z"/>
	<path fill="#F6F8F6" d="M391.7,70.4c-0.2-0.5-0.7-0.7-1.1-0.9c-0.1-0.3,0-0.5,0.3-0.5c0.6,0,1.2,0,1.9-0.1
		C392.3,69.3,392.6,70.3,391.7,70.4z"/>
	<path fill="#F6F8F7" d="M469.7,34.1c0.1-0.3,0.3-0.6,0.4-0.9c0.7-0.2,1.1,0.3,1.3,0.6c0.3,0.4-0.5,0.2-0.6,0.5
		C470.5,34,470,34.7,469.7,34.1z"/>
	<path fill="#F8FAF9" d="M416.8,45.5c0.6,0.3,1.1,0.1,1.6-0.1c0.2,0,0.5,0.1,0.3,0.3c-0.4,0.4-0.6,1.1-1.2,1.3
		c-0.2-0.3-0.4-0.5-0.6-0.8C416.7,45.9,416.5,45.7,416.8,45.5z"/>
</g>
</svg>
