<?xml version="1.0" encoding="utf-8"?>
<!-- Generator: Adobe Illustrator 17.1.0, SVG Export Plug-In . SVG Version: 6.00 Build 0)  -->
<!DOCTYPE svg PUBLIC "-//W3C//DTD SVG 1.1//EN" "http://www.w3.org/Graphics/SVG/1.1/DTD/svg11.dtd">
<svg version="1.1" id="Calque_1" xmlns="http://www.w3.org/2000/svg" xmlns:xlink="http://www.w3.org/1999/xlink" x="0px" y="0px"
	 viewBox="336 12.1 174.3 171.2" enable-background="new 336 12.1 174.3 171.2" xml:space="preserve">
<g>
	<path fill="#71A790" d="M454.8,157c-0.7,0.2-1.3,0.3-1.9,0.5c-2.1,0.6-5-1.3-5.4-3.7c-0.4-2.4,0.5-4.3,2.7-5.5
		c0.1-0.1,0.5-0.1,0.4-0.4c-0.1-0.2-0.3-0.1-0.5-0.1c-1,0.1-1.6-0.5-2.1-1.4c-0.5-0.9-0.1-1.6,0.5-2.3c0.3-0.4,0.4-0.6-0.2-0.7
		c-0.7-0.1-1.3-0.3-1.9-0.6c-2.7-1.3-2.9-5.6-1.2-7.2c1.9-1.8,3.7-2,5.6-1.3c2.6,1.1,3.6,3.7,2.3,6.3c-0.5,1-1.2,1.9-2.3,2.3
		c-0.5,0.2-0.7,0.5-0.1,0.8c0.5,0.3,0.7,0.7,1.1,1.1c0.6,0.7,0.4,1.9-0.3,2.5c-0.1,0.1-0.5,0.1-0.4,0.4c0.1,0.3,0.4,0.1,0.7,0.1
		c0.9,0,1.7,0,2.6,0.4c1.7,0.7,2.4,2.2,2.6,4c0.2,1.4-0.2,2.7-1.1,3.8c-0.2,0.2-0.5,0.5-0.4,0.7c0.1,0.3,0.5,0.1,0.8,0.1
		c1.3,0.1,2.5,0.8,2.7,1.8c0.3,1.1,0,2.5-0.8,3.1c-1,0.7-2.1,0.8-3.2,0.1c-1.4-0.9-1.6-3.2-0.4-4.4
		C454.8,157.4,454.9,157.3,454.8,157z"/>
	<path fill="#71A890" d="M361.5,141.9c0.8,0.3,1.5,0.5,2.2,0.8c1.5,0.7,1.9,2.1,2.3,3.6c0.1,0.5,0.1,1.2,0.4,1.3
		c0.5,0,0.3-0.7,0.5-1.1c0.6-1,1.2-2,2.5-2.1c0.2,0,0.5,0,0.5-0.3c0.1-0.3-0.2-0.3-0.3-0.4c-0.4-0.4-0.6-0.9-0.5-1.5
		c0.1-0.4,0.5-0.6,0.9-0.7c0.5-0.1,1,0,1.2,0.5c0.3,0.5,0.2,1.1-0.3,1.5c-0.8,0.5-0.5,0.7,0.1,1.1c0.9,0.5,1.4,1.3,1.7,2.4
		c0.2,0.8-0.5,2.3-1.3,2.7c-1.7,1-3.8,0.5-4.7-1.4c-0.3-0.7-0.5-0.5-0.8-0.1c-0.2,0.3-0.4,0.7-0.5,1c-1.3,2.5-4.3,3.3-6.6,1.8
		c-2.7-1.7-2.9-5-1-7.4c0.5-0.6,1.3-1.1,2.1-1.3c0.2-0.1,0.5-0.1,0.5-0.4c0-0.3-0.3-0.3-0.5-0.4c-1.1-0.3-1.5-1.3-1.9-2.1
		c-0.3-0.6,0-1.3,0.3-1.9c0.7-1.6,2.4-2.1,4.2-1.5c0.1,0.1,0.3,0.3,0.5,0.1c0.2-0.2,0.1-0.4,0-0.6c-0.1-0.3-0.3-0.5-0.3-0.7
		c-0.9-2.1,1-3.8,2.5-3.9c0.1,0,0.2,0,0.3,0c1.1,0,1.1,0,0.8-1.1c-0.3-0.9,0.3-2.3,1.1-2.7c1-0.4,2.5,0.3,2.9,1.3
		c0.4,1.1-0.3,2.4-1.4,2.8c-1,0.3-1.1,0.5-0.7,1.4c0.5,1.2,0.3,2.3-0.5,3.2c-0.9,0.9-2,1-3.2,0.7c-0.3-0.1-0.5-0.4-0.8-0.1
		c-0.2,0.3,0,0.6,0.1,0.9c0.4,1.1,0.5,2.2-0.3,3.2c-0.4,0.5-0.9,0.7-1.4,1C361.7,141.6,361.6,141.7,361.5,141.9z"/>
	<path fill="#70A68F" d="M359.5,104.6c-0.5,0-1-0.1-1.4-0.4c-0.4-0.3-0.6-0.1-0.7,0.3c-0.1,0.7,0.3,1.3,0.3,1.9
		c0.1,2-1.9,4.2-3.9,4.6c-0.3,0.1-0.7,0.1-0.9,0.5c-0.1,0.3,0.3,0.5,0.5,0.7c0.9,0.9,0.6,2.5-0.5,3.2c-0.5,0.3-0.5,0.5-0.1,0.9
		c0.4,0.3,0.8,0.5,1.1,0.9c1.1,1.5,1,3.5-0.4,4.8c-1.2,1.1-4,1.1-5.2-0.5c-1.5-2-0.5-4.6,1.3-5.4c0.4-0.2,1.1,0.1,1.3-0.5
		c0.1-0.5-0.5-0.7-0.7-1.1c-0.4-1.1-0.2-1.7,0.7-2.5c0.2-0.1,0.5-0.3,0.5-0.5c0-0.3-0.4-0.3-0.6-0.4c-0.9-0.5-2-0.9-2.4-1.9
		c-0.5-1.3-1.1-2.6-0.6-4.2c0.9-2.7,3.8-4,5.9-3.4c0.7,0.2,1.3,0.4,1.8,0.9c0.1,0.1,0.3,0.3,0.6,0.2c0.3-0.1,0.2-0.4,0.1-0.6
		c-0.5-2.5,1.2-4.7,3.8-4.5c1.4,0.1,2.6,0.8,3.2,2.3c0.5,1.3,0.1,2.5-0.9,3.6C361.6,104.4,360.6,104.6,359.5,104.6z"/>
	<path fill="#659E85" d="M467.8,43.9c-0.3-3.7,4-6,6.8-4.4c0.2,0.1,0.4,0.2,0.7,0.3c0.3,0.1,0.5,0.1,0.4-0.3c0-0.2-0.1-0.3-0.1-0.5
		c-0.1-0.4,0.4-0.8,0-1.1c-0.3-0.2-0.7-0.1-1.1-0.1c-1.2-0.1-2.2-0.6-2.7-1.7c-0.6-1.3-0.3-2.5,0.5-3.5c0.6-0.7,1.7-1,2.6-0.9
		c1.1,0.1,2,0.7,2.5,1.9c0.5,1.3,0.3,2.5-0.6,3.6c-0.3,0.3-0.4,0.5,0.2,0.7c0.8,0.2,1.5,0.6,1.5,1.6c0,0.2,0,0.5,0.3,0.3
		c0.4-0.2,0.8-0.5,1.1-0.9c0.3-0.2-0.2-0.4-0.4-0.4c-0.9-0.2-1.1-0.9-1.1-1.7c0-0.7,0.3-1.3,1-1.5s1.3,0.1,1.8,0.6
		c0.4,0.5,0.6,1,0.2,1.6c-0.5,0.9-0.5,1.1,0.5,1.3c1.8,0.5,2.5,2.3,2.2,3.7c-0.1,0.2-0.2,0.5,0.1,0.6c0.3,0.1,0.3-0.1,0.5-0.3
		c0.9-0.7,2.1-0.5,2.9,0c0.8,0.5,1.1,1.5,0.8,2.5c-0.2,0.8-0.9,1.1-1.6,1.3c-1.5,0.4-2.9-0.7-2.9-2.3c0-0.2,0.1-0.5-0.1-0.5
		c-0.3-0.1-0.3,0.1-0.5,0.3c-1.1,0.7-2.2,1.2-3.6,0.4c-1.3-0.8-1.9-2.1-1.5-3.8c0.1-0.2,0.3-0.4,0.1-0.6c-0.2-0.2-0.5-0.1-0.7,0.1
		c-0.3,0.4-1.1-0.1-1.2,0.5c-0.1,0.3,0.4,0.7,0.6,1.1c1.5,3.3-1.1,6.6-4.1,6.8c-1.8,0.1-3.2-0.5-4.2-1.7
		C468,46.1,467.6,45,467.8,43.9z"/>
	<path fill="#5F9981" d="M409.8,31.8c-1.9,0.1-4-1.4-4.6-3.5c-0.3-0.8-0.2-1.7,0.1-2.5c0.1-0.3,0.3-0.7-0.1-0.9
		c-0.3-0.3-0.6,0-0.9,0.2c-0.9,0.7-2.1,1-3.2,1.1c-1,0.1-1.9-0.4-2.7-0.9c-2.7-1.8-2.6-6.2,0.1-7.9c2.3-1.5,5.2-1.1,6.9,1.3
		c0.1,0.2,0.2,0.5,0.5,0.5c0.3-0.1,0.1-0.4,0.1-0.7c0.2-1.9,1.3-2.9,3.1-3.2c1.7-0.3,3.5,1.7,3.2,3.5c-0.3,1.5-1.1,2.5-2.5,2.7
		c-1.3,0.2-2.3-0.3-3.2-1.4c-0.1-0.2-0.2-0.5-0.5-0.3c-0.3,0.1-0.1,0.4-0.1,0.6c0.1,1.3-0.1,2.5-0.7,3.7c-0.1,0.1-0.3,0.3-0.1,0.5
		c0.2,0.1,0.3-0.1,0.5-0.3c0.7-0.6,1.3-1.2,2.1-1.6c1.1-0.6,2.3-0.6,3.5-0.1c1.6,0.5,2.5,1.7,3.1,3.2c0.6,1.6,0.1,3-0.9,4.4
		C412.5,31.2,411.4,31.8,409.8,31.8z"/>
	<path fill="#6BA38A" d="M344.3,81.7c-0.6-0.3-1.3-0.3-2-0.7c-1.8-1.1-2.1-3.9-0.7-5.3c1.6-1.5,3.2-1.7,4.8-0.4
		c1.7,1.3,1.9,3.4,0.3,5.1c-0.5,0.5-1.1,1-1.9,1.2c-0.1,0-0.3,0.1-0.4,0.3c0,0.3,0.2,0.3,0.4,0.3c0.9,0.3,1.9,0.8,2.6,1.5
		c0.1,0.1,0.2,0.2,0.3,0.1c0.2-0.1,0.1-0.3,0.1-0.5c-0.2-0.9-0.2-1.7,0.1-2.5c0.9-2.5,4.4-2.7,5.7-1.2c1.3,1.4,1.5,2.9,0.5,4.4
		c-0.9,1.3-3.1,1.9-4.6,1.1c-0.1-0.1-0.2-0.1-0.3-0.2c-0.2-0.1-0.5-0.2-0.7-0.1c-0.2,0.2-0.1,0.4-0.1,0.7c0.1,0.6,0.3,1.3,0.3,1.9
		c0.1,2.2-2.5,4.8-5.1,4.6c-1.8-0.2-3-1-3.9-2.4c-1.1-1.8-0.9-4.8,1.1-6.1c0.9-0.6,1.9-1,2.9-1.2c0.1,0,0.3-0.1,0.4-0.1
		C344.3,81.9,344.3,81.7,344.3,81.7z"/>
	<path fill="#619B82" d="M394.1,45c0.1,0.6,0.5,1.1,0.1,1.6c-0.3,0.4-0.6,0.8-1.2,0.5c-0.5-0.3-1-0.6-0.9-1.3c0.1-0.6,0.5-0.7,1-0.9
		c0.3-0.1,0.6,0.2,0.7-0.1s-0.3-0.5-0.5-0.7c-1.8-2.1-1.9-4.9,0-7c0.3-0.3,0.8-0.5,1.1-0.9c0.3-0.3,0.5-0.5-0.1-0.7
		c-1.5-0.5-2-1.7-1.5-3.2c0.2-0.6,0.7-0.8,1.3-1c0.5-0.1,0.8-0.3,0.5-0.9c-0.3-0.5-0.1-0.9,0.3-1.3c0.3-0.3,0.4-0.5,0-0.7
		c-0.2-0.1-0.3-0.3-0.5-0.5c-0.7-0.7-0.9-1.5-0.5-2.2c0.5-0.9,1.5-1.2,2.6-0.8c0.8,0.3,1.3,1.2,1.2,2.2c-0.1,0.7-0.9,1.3-1.7,1.5
		c-0.2,0-0.4-0.1-0.5,0.2c-0.1,0.2,0.1,0.3,0.3,0.4c0.7,0.7,0.7,0.9-0.1,1.5c-0.5,0.3-0.3,0.5,0,0.8c1.3,1.3,1.3,2,0.3,3.6
		c-0.2,0.3-0.2,0.5,0.2,0.5c0.8-0.1,1.6,0.1,2.3,0.5c0.1,0.1,0.3,0.2,0.5,0.1s0-0.3,0-0.5c-0.5-1.3-0.1-1.9,1.2-2.1
		c0-0.5-0.4-0.5-0.7-0.6c-1.5-0.6-2-2-2.1-3.4c0-1.3,0.9-2.3,2.2-2.9c1.8-1,4.5,0.5,4.7,2.5c0.1,1.3-0.2,2.5-1.5,3.4
		c-0.6,0.4-1.2,0.5-1.8,0.7c-0.5,0.1-0.7,0.2-0.3,0.7c0.4,0.4,0.6,0.9,0.2,1.5c-0.3,0.5-0.7,0.9-1.5,0.7c-0.1-0.1-0.2-0.1-0.3,0.1
		c-0.1,0.2,0.1,0.3,0.2,0.4c1,0.7,1.5,1.7,1.8,3c0.3,1.3-0.1,2.5-0.8,3.6c-1.4,2-3.6,2.2-5.4,1.7C395,45,394.6,44.9,394.1,45z"/>
	<path fill="#6BA289" d="M359.1,75.3c-0.9,0.5-1.6,1.1-2.5,1.5c-0.3,0.1-0.3,0.4,0.1,0.5c0.7,0.2,1.3,0.5,1.1,1.5
		c-0.1,0.6-0.4,0.9-0.9,1.1c-0.7,0.2-1.2-0.3-1.6-0.8c-0.4-0.5-0.1-0.9,0.2-1.2c0.1-0.1,0.2-0.2,0.3-0.3c0.1-0.1,0.3-0.2,0.3-0.4
		c-0.1-0.3-0.3-0.2-0.5-0.2c-0.9,0.1-1.7-0.2-2.6-0.6c-1.7-0.8-2.5-2.1-2.5-4c0-0.1,0-0.3,0-0.4c0-0.2,0.1-0.4-0.2-0.5
		c-0.3-0.1-0.3,0.2-0.4,0.3c-0.5,1.2-1.5,1.9-2.7,2.2c-1.5,0.5-3.4-0.3-4-2.3c-0.5-1.4-0.2-2.5,0.7-3.5c1.1-1.2,2.5-1.5,4-0.9
		c1.1,0.4,1.9,1.4,2.2,2.7c0.1,0.3,0.1,0.6,0.3,0.7c0.4,0.1,0.4-0.3,0.5-0.5c0.8-1.3,1.9-1.9,3.5-2.3c1.8-0.5,3.1,0.3,4.4,1.1
		c1.3,0.9,1.7,3.4,1,5.2c-0.1,0.2-0.3,0.5-0.1,0.7c0.2,0.1,0.5,0,0.7-0.1c1.4-1.1,2.8-0.8,4.1,0.2c0.9,0.7,0.9,1.7,0.7,2.8
		c-0.3,1.7-1.7,2.7-3.2,2.5c-2.1-0.5-3.3-1.9-2.9-3.8C359.2,76.2,359.2,75.8,359.1,75.3z"/>
	<path fill="#70A48D" d="M437.3,103.7c-0.1-0.3-0.3-0.3-0.5-0.4c-1.1-0.5-1.2-1.3-0.3-2c0.5-0.4,0.4-0.5-0.1-0.7
		c-3.1-1.3-3.8-4.4-2.4-7.3c0.7-1.3,3-2.3,4.4-2c0.5,0.1,1.1,0.4,1.5,0.1c0.3-0.2-0.3-0.9-0.4-1.3c-0.1-0.5-0.3-0.9-0.5-1.4
		c-0.5,0.1-0.5,0.7-0.8,0.9c-0.6,0.4-1,0.3-1.4-0.2c-0.5-0.5-0.4-1.1,0.1-1.5c0.4-0.5,0.9-0.4,1.4-0.1c0.3,0.2,0.3,0.9,0.8,0.6
		c0.3-0.1,0.3-0.7,0.5-1c0.7-1.6,2.5-2.5,4.1-1.9c1.9,0.7,2.9,2.4,2.4,4.3c-0.1,0.3-0.4,0.7-0.2,0.9c0.3,0.3,0.6-0.2,0.9-0.3
		c1.3-0.4,1.8-0.1,2.7,1.1c0.3,0.5,0.3,1.9-0.2,2.4c-0.6,0.7-1.8,0.9-2.7,0.5c-0.9-0.4-1.3-1.4-1.1-2.4c0.1-0.2,0.2-0.5-0.1-0.6
		c-0.2-0.1-0.3,0.1-0.5,0.1c-0.9,0.4-1.8,0.7-2.8,0.7c-0.5,0-0.7,0.1-0.3,0.6c0.5,0.7,0.9,1.5,1,2.3c0,0.2,0.1,0.6,0.4,0.6
		c0.3,0.1,0.4-0.2,0.5-0.4c0.4-0.7,1.1-0.7,1.7-0.5s0.8,0.6,0.8,1.2c0,0.2,0.1,0.3,0.3,0.5c0.1,0.1,0,0.2-0.1,0.2
		c-0.3,0-0.5,0.3-0.7,0.5c-0.5,0.3-1.4,0.1-1.9-0.5c-0.5-0.6-0.7-0.6-0.9,0.1c-0.2,0.5-0.4,1.1-0.7,1.5c-0.8,1.4-2,2.2-3.7,2.3
		c-0.3,0-0.6-0.1-0.7,0.3c-0.1,0.3,0.1,0.4,0.3,0.6c0.5,0.6,0.4,1.2-0.2,1.7C437.5,103.4,437.3,103.4,437.3,103.7L437.3,103.7z"/>
	<path fill="#619B82" d="M418.2,31.4c-1.8,0.1-3.4-1.9-2.9-3.6c0.3-1.2,1-2.1,2.2-2.5c0.2-0.1,0.5-0.1,0.5-0.4s-0.3-0.3-0.6-0.4
		c-1.1-0.5-1.8-1.4-1.8-2.4c0-1.1,0.8-2.3,1.7-2.7c1.5-0.7,3.5,0.6,3.6,2.4c0.1,1.3-0.5,2.2-1.7,2.7c-0.2,0.1-0.5,0.1-0.5,0.4
		c0,0.3,0.3,0.3,0.5,0.3c1.9,0.5,2.8,2.5,1.9,4.5l-0.1,0.1c-0.1,0.3-0.5,0.7-0.2,0.9c0.2,0.2,0.7,0.1,0.9-0.1
		c0.1-0.1,0.3-0.1,0.5-0.2c0.9-0.1,0.9-0.1,0.5-0.9c-0.3-0.6-0.3-1.1,0.1-1.7c0.4-0.5,1-0.7,1.6-0.6c0.7,0.2,1.1,0.8,1.2,1.5
		c0.1,0.7-0.5,1.1-1.1,1.5c-0.2,0.1-0.5,0.2-0.5,0.5c0.1,0.2,0.3,0.4,0.5,0.4c1.5,0.5,2.1,1.6,2.7,2.9c0.9,2.3-0.7,5.4-3.2,6.1
		c-3.1,0.9-6.2-1.5-6.2-4.7c0-1.1,0.5-2.1,1.1-3.1c0.5-0.8,0.5-0.8-0.5-0.9C418.5,31.4,418.4,31.4,418.2,31.4z"/>
	<path fill="#6FA48C" d="M459.4,100.8c-0.1-2.2,1.7-4.4,4-4.8c1.3-0.2,2.3,0,3.4,0.5c0.2,0.1,0.4,0.2,0.6,0.1
		c0.3-0.2-0.1-0.4-0.1-0.5c-0.4-1.3,0.3-3.2,1.5-3.7c1.5-0.6,2.9-0.1,3.7,1.2c0.5,0.9,0.5,1.9-0.1,2.8c-0.7,1-1.5,1.3-2.7,1.1
		c-0.3-0.1-0.5-0.1-0.8-0.1c-0.3-0.1-0.5-0.4-0.7-0.1c-0.1,0.2,0.1,0.5,0.3,0.7c0.3,0.6,0.9,1.2,0.9,1.9c0,0.1,0.1,0.3,0.3,0.3
		s0.3-0.1,0.4-0.3c0.3-0.9,0.9-1.3,1.7-1.7c1-0.7,2.1-0.5,3,0.1c1.2,0.8,1.8,1.9,1.4,3.4c-0.3,1.1-0.9,1.9-2.1,2.3
		c-1.9,0.5-3.4-0.3-4-2.2c-0.1-0.2-0.1-0.5-0.4-0.5c-0.3,0-0.4,0.3-0.5,0.6c-0.7,2.5-2.6,3.7-4.8,3.7c-2.3,0-4-1.3-4.7-3.6
		C459.4,101.5,459.4,101.2,459.4,100.8z"/>
	<path fill="#71A790" d="M412.6,153.7c0,1.2-0.5,2-1.4,2.3c-1.1,0.4-2.3,0.1-3-0.7c-0.7-0.9-0.9-1.9-0.3-2.8
		c0.2-0.3,0.5-0.5,0.7-0.9c0.1-0.1,0.3-0.2,0.2-0.4c-0.1-0.2-0.3-0.1-0.4-0.1c-1.5,0.3-2.5-0.3-3.2-1.5c-0.1-0.2-0.2-0.5-0.5-0.4
		c-0.3,0.1-0.2,0.4-0.2,0.6c-0.1,2.3-1,4-3.2,5c-1.9,0.8-3.7,0.3-5.2-1.1c-1.3-1.3-1.6-2.9-1.1-4.7c0.3-1.4,1.2-2.5,2.4-3
		c1.8-0.7,3.7-0.6,5.3,0.7c0.5,0.4,1,0.9,1.3,1.5c0.1,0.2,0.1,0.5,0.5,0.5c0.3,0,0.2-0.3,0.2-0.5c0.3-0.8,0.5-1.6,1.3-2.2
		c0.4-0.3,0.9-0.5,1.4-0.5c0.6,0,0.9-0.2,0.5-0.9c-0.3-0.5-0.3-1.1,0.2-1.5c0.4-0.4,0.8-0.3,1.3-0.1c0.5,0.2,0.7,0.7,0.7,1.1
		c-0.1,0.5-0.3,1-1,1c-0.2,0-0.4,0-0.5,0.3c0,0.2,0.1,0.3,0.3,0.3c2,1.2,2.3,3.1,0.9,4.8c-0.1,0.1-0.3,0.3-0.1,0.5
		c0.1,0.2,0.3,0.2,0.6,0.2C411.8,151.2,412.6,152,412.6,153.7z"/>
	<path fill="#67A088" d="M422.4,78.2c0,1.7-1.3,3-2.6,3.6c-1.1,0.5-2.7-0.2-3.7-1.3c-0.5-0.6-0.7-1.3-0.9-1.9
		c-0.1-0.1,0-0.4-0.3-0.4c-0.2,0-0.2,0.2-0.3,0.3c-0.9,1.2-2,1.4-3.1,0.5c-0.7-0.5-0.5-1.3-0.3-2c0.2-0.7,0.1-0.7-0.6-0.7
		c-1.6,0.2-3.2,0.1-4.5-1c-2.3-2.1-1.7-6.4,1.1-7.7c3.6-1.6,6.8,0.5,7,4c0.1,1.1-0.2,2.3-1.1,3.2c-0.1,0.1-0.3,0.3-0.4,0.5
		c-0.3,0.4-0.2,0.6,0.3,0.6c1.1,0,1.5,0.7,1.9,1.5c0.1,0.1,0,0.4,0.3,0.3c0.2,0,0.3-0.3,0.3-0.4c0.5-1.7,2.2-2.9,3.8-2.5
		C421,75.1,422.4,76.3,422.4,78.2z"/>
	<path fill="#6BA38A" d="M365.9,69.8c0.1,0,0.3,0,0.4,0c0.6,0.1,0.6-0.1,0.4-0.6c-0.5-1-0.8-2.1-0.3-3.2c0.5-1.3,1.5-1.8,2.8-1.9
		c1.3-0.1,2.3,0.4,3,1.5c0.7,1.3,0.7,2.7-0.3,4c-0.3,0.3-0.5,0.5-0.9,0.5c-0.9,0.1-1.8,0.5-2.7,0.3c-0.5-0.1-0.7,0.2-0.4,0.6
		c0.4,0.7,0.1,1.4-0.1,2.1c-0.1,0.1-0.2,0.3-0.1,0.4c0.1,0.1,0.3,0.1,0.5,0c0.3-0.1,0.5-0.2,0.7-0.3c2.1-1.3,3.8-0.3,5.3,1
		c1.4,1.3,1.8,4.2,0.5,5.8c-0.9,1.1-1.8,2.1-3.4,2.2c-2.3,0.1-4.6-1.4-5.1-4c-0.3-1.3,0-2.3,0.7-3.4c0.1-0.2,0.4-0.5,0.2-0.7
		c-0.1-0.2-0.5-0.1-0.7,0c-1,0.2-1.8-0.1-2.3-0.9c-0.6-0.9-0.5-1.8,0-2.7C364.4,69.9,365.1,69.7,365.9,69.8z"/>
	<path fill="#67A086" d="M361.8,55.4c0.1,1.5-2.4,4-4,3.9c-0.5,0-0.9,0.1-1.4,0.1c-0.5,0-0.6,0.2-0.4,0.7c0.6,1.1,0.4,1.9-0.5,2.4
		c-0.6,0.3-1.1,0-1.7-0.2c-0.5-0.2-0.7-0.2-0.6,0.5c0.7,2.8-2.3,5-4.8,4.2c-1-0.3-2-1.7-2.2-2.9c-0.1-0.9,0.1-1.7,0.5-2.5
		c0.7-1.5,3.2-2.1,4.8-1.2c0.1,0.1,0.3,0.2,0.5,0.3c0.9,0.6,0.9,0.6,1.4-0.4c0.2-0.3,0.4-0.6,0.8-0.7c0.7-0.3,0.7-0.5,0.1-1
		c-0.4-0.3-0.8-0.7-1.1-1.1c-1.6-1.7-1-5,0.7-6.4c2.2-1.7,4-1.5,6.1-0.3C361.2,51.8,361.6,53.4,361.8,55.4z"/>
	<path fill="#73A992" d="M374.2,150.2c0.9,0,0.9,0,0.7-0.9c-0.5-1.4-0.2-2.1,1-3c0.5-0.4,0.2-0.5-0.1-0.7c-1.3-0.3-2.2-1.2-2.9-2.3
		c-1.1-1.7-0.7-4.6,1.3-6.1c1.9-1.5,4.4-1.3,6.3,0.3c1.3,1.1,1.7,2.5,1.5,4c-0.2,1.8-1.2,3.4-3.2,4c-0.2,0.1-0.4,0.1-0.6,0.2
		c-0.3,0.1-0.5,0.3-0.1,0.7s0.7,0.7,0.9,1.2c0.7,1.5-0.1,2.8-1.7,3c-0.2,0-0.4,0-0.5,0c-0.4,0.1-0.5,0.2-0.3,0.6
		c0.7,1.1,0.9,2.3,0.3,3.4c-0.7,1.5-2.8,2.1-4.3,1.1c-1.3-0.9-1.8-3-1-4.1C372,150.7,373,150.2,374.2,150.2z"/>
	<path fill="#639B83" d="M458.6,33.5c-0.6-0.6-0.9-1.1-0.7-1.9c0.3-0.9,0.9-1.5,1.7-1.5c0.7,0,1.5,0.9,1.6,1.7
		c0.1,0.8-0.9,1.7-1.9,1.8c-0.2,0-0.4-0.1-0.5,0.1c-0.1,0.3,0.2,0.3,0.3,0.5c0.9,0.8,1.4,1.8,1.9,2.9c0.2,0.5,0.3,0.5,0.7,0.1
		c0.7-0.7,1.3-1.5,2.5-1.5c1.2-0.1,2.3,0.3,3.2,1.5c0.5,0.8,0.5,2.1-0.1,3c-1.5,2.2-4.4,1.9-5.6-0.5c-0.1-0.2-0.1-0.5-0.4-0.5
		c-0.3,0-0.3,0.3-0.4,0.5c-1.1,1.9-2.5,3.4-5,3.3c-1.4-0.1-2.5-0.8-3.4-1.8c-1.2-1.3-1.2-2.9-1.1-4.5c0.1-0.8,0.7-1.5,1.4-2.1
		c0.5-0.4,0.9-0.9,1.5-1.1c0.3-0.2,0.5-0.4,0-0.6c-0.2-0.1-0.3-0.2-0.4-0.4c-0.3-0.5-0.3-1,0.1-1.4c0.3-0.3,0.7-0.4,1-0.1
		c0.3,0.3,0.6,0.8,0.3,1.4c-0.3,0.9-0.3,0.9,0.6,0.9C456.8,33.3,457.6,33.7,458.6,33.5z"/>
	<path fill="#6CA48B" d="M506.8,94.1c0.3,1.9-1.8,3.4-3.4,3.4c-2.3,0-3.3-1.3-3.6-3.4c-0.1-0.3,0.4-0.9-0.1-1.1
		c-0.3-0.1-0.4,0.5-0.6,0.8c-1.9,2.5-4.8,3-7.4,1.3c-1.5-1-2.2-3.6-1.7-5.3c0.6-2.1,2.3-3.4,4.4-3.5c3.2-0.2,5.2,2,5.6,4.9
		c0.1,0.3-0.4,0.7,0,0.9c0.4,0.1,0.5-0.4,0.7-0.6c1.9-1.7,4.9-1.1,5.8,1.3C506.8,93.1,506.7,93.5,506.8,94.1z"/>
	<path fill="#6FA78F" d="M405.4,109c-0.5,0.3-1,0.6-1.5,0.9c-1.6,1.1-4.9,0.9-6.2-1.1c-1.2-1.7-1.5-3.8-0.5-5.5
		c0.9-1.5,3.2-2.6,5-2.3c2.1,0.4,3.4,1.7,4,4.4c0.2,0.9-0.1,1.5-0.3,2.3c-0.1,0.2-0.3,0.5,0,0.7c0.2,0.2,0.5,0.1,0.7-0.1
		c0.5-0.3,1.1-0.4,1.7-0.5c2.1-0.5,4.2,1.9,3.5,4c-0.6,2.1-2.5,3.3-4.4,2.6c-2.1-0.8-3-2.9-2.1-5C405.5,109.4,405.6,109.3,405.4,109
		z"/>
	<path fill="#639D84" d="M431.3,31c-0.2,0.5,0.1,0.5,0.4,0.5c0.7-0.1,1.3,0,1.8,0.4c-0.2,0.5-0.4,0.7-0.9,0.3
		c-0.3-0.2-0.6-0.4-1-0.3c-0.5,0.1-0.9,0.2-1,0.8c-0.1,0.8-0.3,0.9-1.1,0.6c-0.1,0.5-0.1,1.1-0.1,1.6c0.4,0.1,0.8-0.5,1.1,0.1
		c0.1,0.3,0.1,0.6-0.1,0.9c-0.3,0.5-0.7,0.3-1.1,0.3c0.2,0.5,0.4,0.5,0.7,0.4c1.1-0.4,1.7,0.2,1.6,1.3c0.5,0.1,1.1-0.1,1.5,0.4
		c-0.2,0.2-0.7,0.2-0.6,0.5c0.1,0.5,0.6,0.3,0.9,0.6c-0.5,0.4-0.8,0.9-1.5,1c-0.3,0.1-0.3,0.5-0.3,0.8c-0.1,0.3,0.1,0.5,0.4,0.5
		c0.1,0.1,0.2,0.1,0.3,0.1c0.3,0.2,0.6,0.3,0.4,0.7s-0.5,0.5-0.9,0.3c-0.4-0.2-0.7-0.4-1.1,0c-0.3,0.3-0.7,0.5-0.4,0.9
		c0.3,0.4,0.6,0.9,1.1,0.6c0.5-0.2,0.9-0.2,1.5-0.1c0.4,0.1,0.7,0.1,1-0.3c0.3-0.4,0-0.7-0.3-1c-0.1-0.1-0.2-0.3-0.3-0.4
		c-0.3-0.3-0.3-0.6,0.1-0.9c0.4-0.3,0.5-0.5,0.2-0.9c-0.3-0.5-0.3-1-0.1-1.5c1.7,0.5,2,1.9,2.2,3.4c0,0.3-0.1,0.6,0.3,0.6
		c-0.1,0.5-0.1,0.5-0.7,0.2c0.6,0.7,1.3,1.1,1.2,2.1c0,0.3,0.3,0.5,0.5,0.5c0.4,0.1,0.3-0.3,0.4-0.5c0.1-0.2,0.3-0.3,0.4-0.5
		c0.1-0.2,0.1-0.4-0.1-0.5c-1-0.1-1.2-0.9-1.5-1.7c0.4-0.9,1.1-1.2,1.9-1.7c0.1-0.1,0.4-0.1,0.4-0.3c0-0.3-0.3-0.2-0.5-0.2
		c-0.7-0.1-1.3-0.3-1.8-0.9c-0.6-0.7-0.7-1.7-0.2-2.6c0.5-0.9,1.3-1,2.2-0.9c0.9,0,1.5,0.6,1.7,1.5c0.3,1,0.1,2-1.1,2.8
		c-0.1,0.1-0.3,0.1-0.3,0.3c0.1,0.3,0.3,0.2,0.5,0.1c1.9-0.5,3.2,0.5,4.5,1.6c1.4,1.3,1.5,4.2,0.5,5.8c-1.2,1.7-3.6,2.6-5.5,1.9
		c-2.1-0.8-3.2-2.3-3.2-4.6c0-0.1,0-0.2,0-0.3c0-0.3,0.1-0.7-0.2-0.9c-0.3-0.2-0.5,0.2-0.8,0.4c-1.9,1.5-5.1,0.9-5.6-1.9
		c-0.3-1.2,0.2-2.7,1.1-3.2c0.1,0.1,0.1,0.1,0.2,0.1c-0.1-0.1-0.1-0.1-0.2-0.1c0.1-0.6,0.8-0.5,1.1-0.9c0.1-0.1,0.5-0.1,0.5-0.4
		c0-0.2-0.3-0.2-0.4-0.3c-0.9-0.5-1.8-1.2-2.1-2.3c-0.5-1.4-0.1-2.9,1.1-3.8c0.2-0.1,0.5-0.3,0.4-0.5c-0.1-0.3-0.4-0.2-0.6-0.3
		c-0.8-0.1-1.5-0.3-2.1-1c0.7-0.4,1.5-0.5,1.9,0s0.9,0.5,1.4,0.4C430.9,30.9,431.2,30.8,431.3,31z"/>
	<path fill="#CD6153" d="M466.6,80.2c-1.7-0.1-2.9-1.1-3.2-3c-0.2-1.1,1.1-2.9,2.3-3.3c0.3-0.1,0.5,0.1,0.7,0
		c0.3-0.1,0.7-0.1,0.8-0.5c0.1-0.3-0.2-0.5-0.3-0.7c-1.1-1.1-1.7-2.3-1.6-3.8c0.1-1.6,0.7-3.2,2.2-3.9c1.8-0.9,3.7-0.9,5.5,0.3
		c1.3,0.9,1.9,2.1,2.1,3.6c0.3,2.1-1.5,4.6-3.6,5c-0.8,0.2-1.6,0.3-2.5,0.1c-0.2-0.1-0.5-0.1-0.7,0.1c-0.1,0.3,0.1,0.5,0.2,0.6
		c0.3,0.3,0.6,0.7,0.8,1.1C470.6,77.7,468.8,80.7,466.6,80.2z"/>
	<path fill="#67A087" d="M480.5,72.3c-0.1-1.1,0.3-2,0.8-2.9c0.3-0.7,1.2-1.1,2.1-1.4c0.3-0.1,0.7-0.1,1.1-0.2
		c1.1-0.2,1.1-0.3,0.5-1.1c-0.3-0.5-0.4-0.9,0.1-1.3c0.5-0.4,0.4-0.7-0.2-0.9c-0.5-0.2-0.9-0.5-1.1-1c-0.3-0.5-0.3-1.1,0.3-1.6
		c0.8-0.6,1.8-0.6,2.4-0.1c0.5,0.5,0.6,1.3,0.1,2c-0.1,0.1-0.2,0.3-0.3,0.4c-0.4,0.3-0.2,0.5,0.1,0.6c0.9,0.5,1.1,1,0.3,1.8
		c-0.4,0.4-0.4,0.5,0.2,0.9c1.3,0.8,2.5,1.7,2.8,3.3c0.3,1,0.4,1.9,0.1,2.9c-0.1,0.5,0.1,0.5,0.5,0.4c0.8-0.3,1.6-0.6,2.5-0.3
		c1.9,0.6,2.5,2.7,1.1,4.1c-1.5,1.5-3.7,0.9-4.3-1.1c-0.1-0.5,0.2-1,0.1-1.5c0-0.2,0.1-0.5-0.2-0.6c-0.3-0.1-0.5,0.1-0.5,0.3
		c-1,1.7-2.6,2.1-4.5,1.9C481.8,76.8,480.7,74.6,480.5,72.3z"/>
	<path fill="#639B83" d="M433.1,38.3c-0.5-0.1-1-0.3-1.6-0.1c-0.3,0.1-0.5-0.2-0.2-0.5c0.1-0.2,0.5-0.5,0.1-0.7
		c-0.3-0.2-0.7-0.8-1.1-0.3c-0.3,0.3-0.6,0.4-0.9,0.1c-0.3-0.3-0.3-0.6-0.1-1c0.8,0.5,1.1,0.5,1.2-0.4c0-0.2,0.1-0.3-0.1-0.4
		c-0.2-0.1-0.3,0-0.4,0.1c-0.1,0.1-0.3,0.4-0.5,0.3c-0.3-0.1-0.2-0.5-0.1-0.7c0.1-0.4,0.2-0.7,0-1.1c-0.1-0.1,0-0.3,0.1-0.4
		c0.2-0.1,0.3-0.1,0.5,0.1c0.5,0.6,0.6-0.1,0.6-0.3c0-0.5,0.1-0.9,0.7-1.1c0.5-0.1,1.1-0.3,1.6,0.3c0.3,0.4,0.6,0.3,0.8-0.1
		c0.4,0.1,0.7,0.4,1,0.7c0.1,0.1,0.2,0.4,0.5,0.3c0.2-0.1,0.1-0.4,0.1-0.6c0.1-0.9-0.1-1.9,0.2-2.7c0.6-1.5,1.7-2.4,3.2-2.9
		c3.4-1.1,5.9,1.9,6.2,4.4c0.3,1.9-1.3,4.1-3,4.7c-2.2,0.7-4,0.3-5.6-1.4c-0.1-0.1-0.1-0.1-0.2-0.2c-0.2-0.1-0.3-0.5-0.6-0.3
		c-0.3,0.1-0.1,0.4-0.1,0.7c0.3,1.4-0.5,3.1-1.7,3.7C433.4,38.2,433.2,38.2,433.1,38.3z"/>
	<path fill="#71A891" d="M379.2,167.9c-2.3,0.3-5-2-4.8-4.6c0.1-0.9,0.1-1.9,0.6-2.6c0.9-1.1,1.8-2.3,3.5-2.2c0.4,0,1.1,0,1.1-0.3
		c0.1-0.5-0.5-0.6-0.8-0.8c-0.9-0.6-1.3-2.3-0.7-3.6c0.7-1.4,1.8-2,3.4-1.7c1.1,0.1,2.3,1.6,2.4,2.8c0.1,1.3-1.4,3.2-2.7,3.3
		c-0.2,0-0.5-0.1-0.5,0.2c-0.1,0.3,0.2,0.4,0.4,0.5c1,0.6,2,1.3,2.5,2.5c1.2,2.8-0.6,6.8-4.2,6.7
		C379.3,167.9,379.2,167.9,379.2,167.9z"/>
	<path fill="#71A790" d="M467,130.7c1.2,0.5,2.1,1.3,2.5,2.6c0.3,1-0.3,2.5-1.1,2.9c-0.3,0.2-0.7,0.3-0.7,0.7s0.5,0.2,0.9,0.2
		c2.1,0.1,3.6,1.1,4.4,2.9c1,2.2-0.2,5-2.4,6c-2.1,0.9-5.2,0.3-6.3-2.1c-0.5-1.1-0.7-2.3-0.3-3.6c0.4-1.3,1.2-2.3,2.3-3
		c0.1-0.1,0.3-0.1,0.2-0.3c0-0.2-0.2-0.2-0.3-0.3c-0.6-0.1-1.1-0.3-1.6-0.7c-1.5-0.9-1.7-3.3-0.4-4.5c0.5-0.4,1-0.7,1.5-1.1
		C466.2,130.5,466.6,130.5,467,130.7z"/>
	<path fill="#72A892" d="M398.5,139.9c-0.2-2.2,1.1-3.6,3-4.5c0.5-0.3,1.1-0.5,1.7-0.4c0.2,0,0.5-0.1,0.6-0.3
		c0.1-0.3-0.2-0.3-0.4-0.5c-0.9-0.7-1.5-2.4-1.2-3.4c0.5-1.4,1.5-2.1,3-2.1c1.3-0.1,3.3,2,2.7,3.5c-0.6,1.7-1.4,2.5-3.2,2.5
		c-0.2,0-0.4-0.1-0.5,0.2c-0.1,0.2,0.1,0.3,0.3,0.3c3.4,0.9,3.9,5.3,2.3,7.6c-0.6,0.9-1.5,1.3-2.4,1.6c-2.5,0.8-5-0.7-6-2.9
		C398.5,141,398.6,140.5,398.5,139.9z"/>
	<path fill="#629D84" d="M374.8,32.6c0.1,0.7-0.4,1.2-0.9,1.7c-0.3,0.3-0.4,0.5,0.1,0.5c0.9,0.1,1.7,0.3,2.4,0.7
		c1.6,1.1,2.5,2.5,2.3,4.5c-0.1,0.9,0,0.9,0.9,0.6c0.5-0.2,0.9-0.3,1.2,0.3c0.2,0.5,0.3,1-0.2,1.3c-0.5,0.3-0.9,0.1-1.3-0.3
		c-0.7-0.7-0.7-0.7-1.2,0.1c-0.7,1.1-1.7,1.7-2.9,2.1c-0.2,0.1-0.5,0.1-0.5,0.3s0.2,0.3,0.3,0.4c0.5,0.5,0.9,1,0.8,1.7
		c-0.1,0.7-0.6,0.9-1.1,1.1c-0.7,0.3-1.2,0.1-1.5-0.5c-0.4-0.6-0.5-1.3,0-1.9c0.2-0.3,0.5-0.5,0.8-0.6c0.1-0.1,0.3-0.1,0.3-0.3
		c-0.1-0.2-0.2-0.1-0.3-0.1c-2.3,0.2-3.6-1.2-4.6-3.1c-0.8-1.6,0.1-4.3,1.6-5.3c0.1-0.1,0.2-0.1,0.3-0.1c1.2-0.7,1.2-0.8,0.1-1.6
		c-0.7-0.5-0.9-1.7-0.5-2.5c0.4-0.9,1.1-1.4,2-1.2C374.1,30.6,374.8,31.4,374.8,32.6z"/>
	<path fill="#659F86" d="M407.9,55.4c0.2-2,0.9-3.6,2.7-4.5c0.7-0.4,1.5-0.3,2.3-0.4c0.5-0.1,0.5-0.1,0.3-0.6
		c-0.2-0.4-0.6-0.9,0.2-1.2c0.3-0.1,0.6,0.1,0.7,0.3c0.1,0.3,0.2,0.7-0.1,0.9c-0.5,0.5-0.4,0.7,0.2,0.9c1.3,0.4,2.1,1.3,2.6,2.5
		c0.1,0.3,0.2,0.6,0.5,0.6c0.4,0,0.3-0.5,0.4-0.7c0.3-0.9,1-1.5,1.9-1.6c1.1-0.1,2.1,0.2,2.8,1.1c0.5,0.8,0.4,2.2-0.1,2.9
		c-1,1.4-3.2,1.5-4.4,0c-0.1-0.2-0.3-0.5-0.6-0.5c-0.3,0.1-0.3,0.5-0.4,0.7c-0.3,2.6-3.8,4.9-6.8,3.3
		C408.8,58.5,408.1,57,407.9,55.4z"/>
	<path fill="#659D85" d="M386,46.3c-0.2,1.3,0.1,2.3-0.4,3.4c-1.3,3-5.4,3.9-7.6,1.5c-2.1-2.2-1.7-5.8,0.9-7.4
		c1.9-1.2,4.3-0.8,6,1.2c0.3,0.3,0.4,0.9,0.8,0.9c0.3-0.1,0.3-0.7,0.3-1.1c0.4-1.3,1.2-2,2.2-2.1c1.5-0.1,2.4,0.5,2.9,1.8
		c0.5,1.1,0,2.3-1.2,3.2c-0.9,0.6-2.5,0.4-3.2-0.3C386.6,47.1,386.4,46.8,386,46.3z"/>
	<path fill="#71A790" d="M372.7,117c0,2-1.6,3.7-3.5,3.8c-1.9,0.1-3.9-1.9-3.4-4.4c0.4-2,2.4-2.9,4.2-2.9c0.1,0,0.3,0.2,0.5-0.1
		c0.1-0.2-0.1-0.3-0.1-0.4c-0.4-0.5-0.5-1.1-0.5-1.7c0.1-0.5-0.2-0.7-0.7-0.5c-0.5,0.3-1.1,0.6-1.6,0.7c-0.9,0.2-1.6,0.3-1.1,1.5
		c0.1,0.3-0.2,0.6-0.5,0.7s-0.5-0.2-0.7-0.5c-0.2-0.4-0.1-0.8,0.2-1c0.9-0.5,0.4-0.7-0.1-0.9c-1.2-0.6-2-1.5-2-2.9
		c0-1.5,0.6-2.6,1.9-3.4c0.9-0.5,2.9-0.4,3.6,0.1c1.6,1.3,1.7,2.7,1.3,4c-0.1,0.1-0.1,0.3-0.1,0.5c0,0.1-0.1,0.3,0,0.5
		c0.2,0.1,0.3,0,0.5-0.1c0.9-0.5,2.1-0.2,2.5,0.6c0.7,1.2,0,2.7-1.5,2.9c-0.2,0-0.4-0.1-0.5,0.2c-0.1,0.3,0.1,0.3,0.3,0.4
		C372.5,115.4,372.8,115.9,372.7,117z"/>
	<path fill="#6FA58D" d="M481.1,127.2c0.1,2.4-1.9,4.9-4.3,5.2c-1.1,0.1-1.9-0.1-2.9-0.5c-0.8-0.4-1.6-1-2-1.9
		c-0.7-1.7-0.9-3.4,0.3-5c1.2-1.5,2.6-2.5,4.8-2.1c1.7,0.3,2.7,1.4,3.6,2.7c0.1,0.1,0.1,0.5,0.4,0.4c0.2-0.1,0.1-0.3,0.1-0.5
		c0-0.6,0.3-1.1,0.5-1.7c0.2-0.7,0.9-0.7,1.4-0.7c0.6-0.1,1.9,0.6,2.1,1.1c0.4,0.8,0.3,2-0.3,2.6c-0.5,0.5-1.6,0.8-2.3,0.6
		c-0.4-0.1-0.6-0.4-0.8-0.7c-0.1-0.2-0.3-0.5-0.6-0.4c-0.3,0.1-0.1,0.4-0.1,0.7C481.1,127,481.1,127.2,481.1,127.2z"/>
	<path fill="#71A891" d="M480.2,146c1.6-0.1,3.5,1.3,4.2,3.2c0.1,0.2,0.1,0.5,0.3,0.5s0.3-0.3,0.4-0.4c0.5-1.1,1.9-1.7,2.8-1.3
		c0.7,0.3,1.3,0.7,1.3,1.6c0.1,0.9,0,1.7-0.9,2.1c-0.9,0.5-1.7,0.4-2.6-0.1c-1.1-0.7-1-0.7-1.5,0.5c-0.6,1.7-1.8,2.7-3.6,3.2
		c-2.3,0.6-4-0.5-5-2.3c-0.7-1.2-0.9-2.6-0.2-4.1C476.3,146.8,478,146,480.2,146z"/>
	<path fill="#73A790" d="M430.1,132.9c-0.2,2.3-1.3,4.2-3.9,4.6c-3,0.5-5.1-1.1-5.6-3.6c-0.1-0.2,0-0.5-0.3-0.6
		c-0.3-0.1-0.4,0.3-0.5,0.5c-0.8,1.2-1.9,1.5-2.9,0.9c-0.5-0.3-1.1-1.3-0.9-2c0.1-0.9,0.9-1.7,1.7-1.9c0.9-0.1,1.6,0.1,2,0.9
		c0.1,0.1,0.1,0.2,0.1,0.3c0.1,0.2,0.2,0.5,0.5,0.5c0.3,0,0.3-0.3,0.3-0.6c0.3-1.3,0.9-2.3,2.1-3.1c1.8-1.2,4.4-0.9,5.9,0.5
		C429.6,130.5,430,131.7,430.1,132.9z"/>
	<path fill="#6EA68D" d="M403.1,166.8c-0.1-1.9,1.3-4,3.3-4.6c1.9-0.6,4.1,0,5.4,1.9c0.3,0.4,0.5,0.9,0.7,1.3
		c0.1,0.2,0.1,0.5,0.4,0.4c0.3-0.1,0.1-0.3,0.2-0.5c0.2-1.1,0.9-1.9,1.7-1.9c0.9-0.1,1.8,0.5,2.1,1.3c0.3,0.7-0.1,1.9-0.7,2.2
		c-0.7,0.5-1.9,0.3-2.5-0.2c-0.3-0.2-0.4-0.8-0.8-0.6c-0.3,0.1-0.1,0.7-0.1,1.1c-0.4,3.2-3.7,5.6-6.9,4
		C403.9,170.3,403,168.9,403.1,166.8z"/>
	<path fill="#659F85" d="M490.4,46.6c2.3,0.3,4.6,2.9,3.8,6c-0.1,0.4-0.3,0.8-0.4,1.2c-0.1,0.4-0.1,0.6,0.5,0.5
		c0.9-0.2,1.7,0.2,2.2,0.9c0.5,0.8,0.3,1.7-0.1,2.5c-0.3,0.5-1.5,0.9-2.1,0.7c-1-0.3-1.6-0.9-1.7-1.8c0-0.1,0-0.3,0-0.4
		c0-0.9-0.1-0.9-0.9-0.6c-2.5,0.9-5-0.1-6.4-2.3c-0.9-1.5-0.4-4.4,1.1-5.5C487.3,47.1,488.5,46.5,490.4,46.6z"/>
	<path fill="#619B82" d="M471.8,30.6c-0.1,1.2-0.2,2.3-1.3,3.1c-0.4,0.3-0.7,0.8-1.2,1.1c-0.1,0.1-0.3,0.2-0.2,0.4s0.3,0.1,0.4,0.1
		c0.7,0.1,1.5,0.2,1.8,1.1c0.3,0.7-0.1,1.8-0.9,2.1c-0.7,0.3-1.8,0-2.1-0.7c-0.5-0.8-0.3-1.4,0.3-2.1c0.1-0.2,0.5-0.3,0.3-0.5
		c-0.1-0.3-0.4-0.1-0.6,0c-1.5,0.2-2.9,0.3-4.1-0.7c-1.1-0.9-1.9-1.9-2-3.4c-0.1-1.5,0.3-2.8,1.2-4c1.5-1.9,4.3-1.9,6.3-0.8
		C471.2,27.3,471.9,28.8,471.8,30.6z"/>
	<path fill="#72A992" d="M417.6,155.3c-1.9-0.1-3.4-1-4.2-2.7c-0.7-1.6-0.5-3.2,0.5-4.7c0.7-1.1,1.7-1.5,2.8-2
		c0.1-0.1,0.4-0.1,0.4-0.3c0-0.3-0.3-0.3-0.5-0.3c-1.1-0.2-1.7-0.9-1.7-1.7c0-0.7,0.7-1.8,1.7-2c1-0.1,1.9,0.2,2.2,1.1
		c0.4,1,0.1,1.8-1,2.5c-0.2,0.1-0.5,0.1-0.5,0.4c0.1,0.3,0.4,0.2,0.6,0.2c0.9,0.3,1.9,0.5,2.7,1c1.3,0.8,2.1,2.8,1.7,4.4
		c-0.2,0.8-0.3,1.5-0.7,2.2C420.7,154.8,419.3,155.4,417.6,155.3z"/>
	<path fill="#71A68F" d="M410,128.6c-0.2-0.2-0.5-0.1-0.7-0.1c-2.8,0.5-5.4-1.9-5.4-4.4c0-2.6,1.7-5,4.7-5c0.1,0,0.2,0,0.3,0
		c0.3-0.1,0.7,0.1,0.8-0.2c0.1-0.3-0.2-0.5-0.4-0.7c-1.2-1.5-0.5-2.9,1-3.4c0.6-0.2,1.3,0.1,1.7,0.7c0.5,0.6,0.9,1.3,0.4,2.1
		c-0.3,0.5-0.7,0.9-1.3,1.1c-0.2,0.1-0.6,0.1-0.6,0.5c0,0.3,0.3,0.4,0.5,0.5c1.2,0.7,2,1.7,2.2,3.1c0.3,1.8-0.1,3.4-1.6,4.7
		c-0.1,0.1-0.3,0.3-0.3,0.5C411.1,128.5,410.7,128.8,410,128.6z"/>
	<path fill="#6CA48A" d="M359.2,85.8c0-0.5,0.1-0.9,0.2-1.3c0.1-0.2,0.1-0.5-0.1-0.7c-0.2-0.2-0.5,0-0.7,0.1
		c-1.1,0.5-1.9,0.3-2.7-0.6c-0.5-0.7-0.5-1.3-0.1-2c0.4-0.7,1.3-1,2.3-0.9c0.7,0.1,1.3,0.9,1.3,1.6c0.1,0.3-0.1,0.8,0.2,0.9
		c0.3,0.1,0.7-0.3,0.9-0.5c0.9-0.8,1.9-1.3,3.2-1.3c2.1-0.1,4.8,1.9,4.8,4.4c0.1,2.5-2,4.9-4,5C361.6,90.8,359.3,88.8,359.2,85.8z"
		/>
	<path fill="#6EA58C" d="M409.9,96.9c-2.2-0.1-3.8-0.7-4.6-2.4c-0.5-0.8-0.5-1.8-0.6-2.7c-0.1-0.7-0.2-0.7-0.6-0.3
		c-0.2,0.2-0.5,0.2-0.7,0.3c-0.9,0.3-1.5,0.1-1.8-0.7c-0.3-0.9,0.1-2,1-2.3c0.6-0.2,1.6,0.4,1.9,1.1c0.1,0.3,0,0.7,0.4,0.7
		c0.3,0,0.4-0.3,0.5-0.6c0.7-1.3,1.9-1.9,3.3-2.4c2.7-0.9,4.9,1.1,5.6,3.1C415.1,93.7,413.1,96.9,409.9,96.9z"/>
	<path fill="#6FA68E" d="M412.3,107.9c-3.2-0.1-5.1-2.1-5-5.3c0-1.7,1.9-4,3.9-4.2c2.3-0.3,4,0.5,5.3,2.5c0.3,0.4,0.4,0.5,0.8,0.1
		c0.5-0.5,1.1-0.6,1.7-0.3c0.7,0.3,1,1,0.7,1.6c-0.4,0.9-1,1.1-1.8,0.7c-0.9-0.5-0.9-0.5-1.1,0.6C416.7,106,414.6,107.9,412.3,107.9
		z"/>
	<path fill="#679E86" d="M427.1,54.8c-0.1,0-0.2,0-0.3,0c-1,0-1,0-0.7,0.9c0.3,0.7-0.1,1.2-0.5,1.6s-1,0.4-1.5,0.1
		c-0.6-0.3-0.6-0.9-0.5-1.4s0.4-1,1.1-1c0.2,0,0.5,0.1,0.6-0.2c0.1-0.3-0.3-0.3-0.5-0.5c-1.7-0.9-2.5-2.5-2.5-4.2
		c0.1-2,1-3.8,3.1-4.6c1.9-0.7,4.2-0.2,5.8,1.9c1.1,1.6,0.9,4.2-0.5,5.7C429.5,54.6,428.9,54.8,427.1,54.8z"/>
	<path fill="#72A58D" d="M429.8,107.9c-2-0.1-4.1-1.7-4.5-4c-0.2-0.9-0.3-1.8,0.2-2.7c0.7-1.3,1.7-2.2,3-2.7
		c0.4-0.1,0.8-0.1,1.2-0.1c0.3,0,0.5-0.1,0.6-0.3c0.1-0.3-0.2-0.4-0.4-0.5c-0.8-0.6-0.9-1.3-0.3-2.1c0.5-0.5,1.3-0.5,1.9,0
		c0.5,0.5,0.5,1.1,0.1,1.6c-0.2,0.3-0.5,0.5-0.7,0.6c-0.1,0.1-0.4,0.1-0.3,0.4c0.1,0.2,0.3,0.2,0.5,0.3c0.1,0.1,0.2,0.1,0.3,0.1
		c1.7,0.5,2.9,1.6,3.3,3.2c0.5,1.9,0.1,3.8-1.5,5.2C432.2,107.5,431.1,107.9,429.8,107.9z"/>
	<path fill="#669E86" d="M437.5,68.2c0-2.4,1-3.9,2.9-4.8c0.6-0.3,0.7-0.5,0.1-0.9c-0.4-0.3-0.8-0.6-0.5-1.2
		c0.1-0.3,0.3-0.8,0.8-0.8c0.4,0,0.7,0.2,0.9,0.5c0.2,0.4,0.3,0.8,0,1.2c-0.1,0.2-0.5,0.3-0.4,0.7s0.5,0.1,0.8,0.1
		c1.9-0.1,3.2,0.9,4.2,2.3c0.1,0.2,0.2,0.5,0.4,0.5c0.3,0,0.2-0.3,0.3-0.5c0.2-0.5,0.5-0.7,1-0.8c0.4,0,0.7,0.1,0.9,0.5
		c0.3,0.5,0.1,0.9-0.1,1.3c-0.3,0.5-0.9,0.4-1.3,0.3c-0.7-0.2-0.9-0.1-0.7,0.7c0.2,1,0,1.9-0.4,2.7c-1.2,2.7-4.4,3.3-6.6,1.9
		C438.3,71,437.4,69.7,437.5,68.2z"/>
	<path fill="#72A891" d="M344.3,118.2c-2.9-0.4-4.9-2-5-5.2c-0.1-2.7,2.4-4.6,4.9-4.7c2.9-0.2,5.2,2.2,5.2,5
		C349.4,115.8,347,118.2,344.3,118.2z"/>
	<path fill="#CB6152" d="M464.9,130.3c-1.9-0.3-3.1-1.6-3.6-3.4c-0.6-1.8-0.3-3.4,1-5c1.8-2.1,5.2-1.7,7-0.1
		c2.5,2.3,1.9,6.2-0.7,7.9c-0.4,0.3-0.9,0.2-1.3,0.5C466.4,130.8,465.6,130.3,464.9,130.3z"/>
	<path fill="#CD6151" d="M459.2,55.6c-0.1-3.2,2.1-4.7,4.2-5c1.8-0.3,3.3,0.3,4.4,1.6c0.6,0.7,1.3,1.5,1.3,2.5
		c-0.1,3.6-1.9,5.4-4.6,5.5C461.4,60.3,459.1,58,459.2,55.6z"/>
	<path fill="#71A890" d="M508.7,105.1c0,2.9-2,4.8-4.6,4.8c-3.1,0.1-5.2-1.9-5.1-5c0.1-2.6,1.9-4.9,5.2-4.8
		C506.6,100.3,508.9,102.7,508.7,105.1z"/>
	<path fill="#CC6151" d="M455.4,133.8c-2.7,0-5-2.3-5-5.2c0.1-2.5,2.3-4.7,5-4.6s4.7,2,4.7,4.7C460.2,131.8,458.5,133.5,455.4,133.8
		z"/>
	<path fill="#68A187" d="M363.7,54c-0.8,0-1.7,0.1-1.8-0.8c-0.1-0.5,0.2-1,0.9-1c0.9,0.1,1,0.2,1,1.7c3.2-1.3,6-0.9,7.2,2.5
		c1,2.5,0.1,4.4-2.4,5.9c-1.5,0.9-4.2,0.3-5.4-1.1C361.7,59.7,361.1,57.2,363.7,54z"/>
	<path fill="#70A58D" d="M355.1,115.4c0-2.6,1.9-4.7,4.7-4.8c2.8-0.1,4.8,1.7,5,4.5c0.2,3.2-1.7,5-4.8,5.2
		C357.5,120.4,355,118.2,355.1,115.4z"/>
	<path fill="#70A58D" d="M465.9,119.9c-2.3-0.1-4.3-1.6-4.7-4.6c-0.3-2.3,2.1-5,4.6-5c2.3-0.1,5,1.3,5.2,4.3
		C471.1,117.3,469.4,119.7,465.9,119.9z"/>
	<path fill="#6DA58C" d="M394.4,172.5c0.1-2.9,2.5-4.8,4.8-4.6c3.2,0.1,4.9,1.7,4.9,5.2c0,2.3-2.3,4.4-4.4,4.5
		C396.2,177.6,394.6,175,394.4,172.5z"/>
	<path fill="#689F87" d="M415.3,68.8c0.2-2.3,1.8-4.8,5.2-4.6c2.4,0.1,4.7,1.8,4.6,5c-0.1,2.6-1.9,4.4-4.8,4.5
		C417.6,73.8,415.3,71.9,415.3,68.8z"/>
	<path fill="#CC6151" d="M460.1,94.6c0.1,2.5-2.3,4.6-4.9,4.7c-2.2,0.1-5.1-2.1-4.8-5.3c0.3-2.3,2-4.3,4.7-4.4
		C457.6,89.5,460.2,91.4,460.1,94.6z"/>
	<path fill="#70A78F" d="M445.4,166.3c-2.3,0.3-4.9-2.4-4.7-5.1c0.1-2.3,2.1-4.7,5-4.6c2.9,0.1,4.4,1.9,4.6,4.8
		C450.4,164.4,447.9,166.6,445.4,166.3z"/>
	<path fill="#6FA78F" d="M394.6,154.8c0.1,1.4-0.6,2.3-1.5,3.4c-0.7,0.7-1.5,1.3-2.5,1.3c-1.7,0.1-4.4-0.5-5-2.5
		c-0.1-0.3-0.2-0.5-0.4-0.8c-0.8-1.1-0.3-2.1,0.3-3.1c0.5-0.9,1-1.7,1.8-2.3c1.5-1.1,3.2-0.9,4.8-0.2
		C393.8,151.4,394.8,152.9,394.6,154.8z"/>
	<path fill="#6FA58D" d="M359.1,132.4c0.1,1.7-0.7,3-1.8,4.1c-0.9,0.9-2.1,1.2-3.4,1.1c-3-0.3-4.3-2.2-4.3-4.7c0-3.7,2.6-5,5.2-4.9
		C357,127.9,359.4,130,359.1,132.4z"/>
	<path fill="#609B82" d="M455.1,22.1c0.1,2.7-2.1,4.8-4.8,4.7c-2.7,0-5-1.9-4.8-4.8c0.1-2.2,1.5-4.6,4.6-4.7
		C453.1,17.2,455.3,19.8,455.1,22.1z"/>
	<path fill="#6FA68D" d="M379.5,124.8c0.2,2.2-2.3,4.8-4.2,4.8c-3.2,0.1-5.1-1.9-5.4-4c-0.4-3.6,2.3-5.6,4.8-5.6
		C377.4,119.9,379.5,121.8,379.5,124.8z"/>
	<path fill="#6DA48B" d="M483.5,89c-0.1,3.2-2.3,4.8-5,5c-1.9,0.1-4.6-2.3-4.6-4.2c-0.1-3.6,2-5.3,4.8-5.5
		C481.2,84.1,483.7,86.5,483.5,89z"/>
	<path fill="#6CA48A" d="M419,177.1c0-2.6,2.1-4.8,4.6-4.8c3.1,0.1,5.2,2.1,5.1,4.9c-0.1,2.7-2.1,4.6-4.8,4.6
		C421.1,181.9,419.2,179.8,419,177.1z"/>
	<path fill="#6AA38A" d="M430.6,176.5c0-2.8,2.3-4.8,4.5-4.9c2.9-0.1,5.3,2.1,5.1,4.8c-0.2,3-1.9,4.6-5.2,4.8
		C433,181.3,430.5,179.1,430.6,176.5z"/>
	<path fill="#70A790" d="M373.6,109.1c-0.3-2.7,2.5-4.8,4.8-4.8c2.5,0,4.6,2.1,4.7,4.4c0.1,2.8-1.9,5.2-4.8,5.2
		C375.9,114,373.4,111.5,373.6,109.1z"/>
	<path fill="#CD6151" d="M436.9,63.6c-0.2,2.5-2.2,4.7-4.8,4.7c-2.7,0-5-2.3-4.9-5c0.2-2.5,1.7-4.4,4.5-4.6
		C435,58.6,436.8,60.8,436.9,63.6z"/>
	<path fill="#72A891" d="M484.9,137c0.1,2.3-2.1,5-5.3,4.8c-2.6-0.1-4.4-2.5-4.3-5.2c0.1-2.7,2.1-4.4,5-4.4
		C482.7,132.3,484.7,133.9,484.9,137z"/>
	<path fill="#71A68F" d="M447.3,147.2c-0.3,3.1-1.7,5-4.7,5.1c-2.6,0.1-4.7-2-4.9-4.4c-0.2-2.5,1.9-5.1,4.1-5.2
		C445,142.4,447.3,144.7,447.3,147.2z"/>
	<path fill="#6EA68E" d="M481.5,100.6c2.7,0,4.6,2,4.7,5c0,1.9-2.1,4.4-4.6,4.4c-3.2,0-4.9-2.1-5-4.3
		C476.3,103,478.5,100.4,481.5,100.6z"/>
	<path fill="#5C977F" d="M425.3,17.8c-0.2-2.7,1.9-4.8,4.6-4.9c2.7-0.1,4.7,2.3,5,4.2c0.4,2.9-2.4,5.6-5.2,5.4
		C427.8,22.4,424.9,20.2,425.3,17.8z"/>
	<path fill="#6DA58C" d="M434.6,165.2c-2.9,0.1-4.8-2.7-4.7-4.7c0.1-3,2.1-4.8,4.5-4.9c3.1-0.1,5.2,2.5,5,5.4
		C439.3,163.4,437,165.4,434.6,165.2z"/>
	<path fill="#72A891" d="M430.6,143.8c0.1,2.7-2.5,4.6-4.9,4.6c-2.8-0.1-4.6-2-4.7-4.8c-0.1-2.7,2.1-4.7,4.8-4.8
		C428.2,138.7,431,141,430.6,143.8z"/>
	<path fill="#6EA58D" d="M492.1,122.2c-3.2,0-4.8-1.9-5-4.8c-0.1-2.3,1.8-4.7,4.8-4.7c2.7,0,4.6,2.1,4.7,4.1
		C496.7,120.1,495,122.1,492.1,122.2z"/>
	<path fill="#679E86" d="M453.8,58c2.9,0,5,1.9,5,4.7c0,2.5-2.1,4.9-5.4,4.7c-2.5-0.1-4.3-2.1-4.3-5C449.1,60.1,451.1,58,453.8,58z"
		/>
	<path fill="#70A690" d="M397.2,129.6c0-0.3-0.1-0.5-0.5-0.5c-1.9-0.4-2.9-1.7-3.2-3.5c-0.3-1.8,0.1-3.4,1.7-4.7
		c2.1-1.6,4.7-1.3,6.2,0.3c1.1,1.1,1.7,2.5,1.3,4c-0.5,2.1-1.5,3.7-3.9,4c-0.3,0.1-0.6,0-0.7,0.4C398,129.9,397.6,129.7,397.2,129.6
		z"/>
	<path fill="#70A78F" d="M469.4,162.3c0.2,2.6-2.3,4.6-4.9,4.5c-2.5,0-4.8-1.8-4.6-4.8c0.1-2.7,1.8-4.6,4.5-4.6
		C467.5,157.4,469.4,159.4,469.4,162.3z"/>
	<path fill="#67A086" d="M480.6,53.2c2.5-0.2,4.6,2.4,4.7,4.3c0.3,2.8-2,5.1-4.3,5.2c-3.1,0.2-5-2.1-5.2-4.1
		C475.5,55.3,477.6,53.1,480.6,53.2z"/>
	<path fill="#72A992" d="M500.5,134.7c0,2.7-2.3,4.8-4.6,4.9c-2.6,0.1-4.8-2-5-4.4c-0.2-3,2.5-5.2,4.7-5.2
		C498.3,130.1,500.7,132.5,500.5,134.7z"/>
	<path fill="#69A088" d="M448.2,85.6c-3,0.1-4.9-2.1-4.8-4.9c0.1-2.7,1.7-4.6,5-4.5c2.5,0.1,4.3,1.9,4.4,4.9
		C452.8,83.5,450.7,85.7,448.2,85.6z"/>
	<path fill="#639D84" d="M404.5,45.4c0-2.6,1.9-4.5,4.7-4.6c3-0.1,4.8,2.4,4.8,4.6c0,2.4-1.9,4.9-5,4.8
		C406.4,50.1,404.6,48.3,404.5,45.4z"/>
	<path fill="#70A48C" d="M382.8,91.3c-3.1,0-4.8-2.3-5-4.4c-0.2-2.7,2.2-5.3,4.6-5.2c3.1,0.1,4.6,2.2,4.9,4.6
		C387.5,88.6,385,91.4,382.8,91.3z"/>
	<path fill="#CC6153" d="M434.2,77.7c2.7-0.1,4,2,4.4,3.6c0.3,1.7,0.2,3.4-1.2,4.6c-0.9,0.9-2.1,1.3-3.4,1.3
		c-2.7,0.1-4.7-2.3-4.6-4.8C429.5,79.6,431.1,77.7,434.2,77.7z"/>
	<path fill="#CD6152" d="M436.2,118.5c2.5,0,4.8,2,4.8,4.3c-0.1,3-1.7,5-4.5,5.2c-2.9,0.1-4.8-2.2-4.9-4.7
		C431.6,120.5,433.8,118.7,436.2,118.5z"/>
	<path fill="#CB6153" d="M444.3,117.4c0.9,0.1,1.5-0.4,2.4-0.3c1.9,0.2,3.3,0.9,4,2.7c0.8,1.9,0.5,4-1,5.4c-1.9,1.7-4.7,1.9-6.7-0.4
		c-1.7-1.9-1.3-5.3,0.8-6.8c0.1-0.1,0.3-0.3,0.4-0.4C444.2,117.4,444.2,117.4,444.3,117.4z"/>
	<path fill="#CE6052" d="M401.3,85.7c-0.1,2.8-2.3,5-4.8,5c-2.3-0.1-4.9-2.7-4.7-5c0.3-3,2.1-4.5,5-4.5
		C399.3,81.2,401.4,83.4,401.3,85.7z"/>
	<path fill="#70A78F" d="M367.2,100.2c-2.5,0-4.7-2.1-4.7-4.5c0-2.7,2.1-4.7,4.4-4.8c3.2-0.2,5,2.5,5,4.6
		C372,97.6,370.2,100.5,367.2,100.2z"/>
	<path fill="#73A68F" d="M441.2,111.4c-0.1-2.5,2.2-4.7,4.8-4.7c2.5,0,4.7,2.3,4.7,4.1c0,3.2-1.6,5-4.7,5.2
		C443.6,116.3,440.9,114,441.2,111.4z"/>
	<path fill="#68A087" d="M497.9,75.7c-2.5-0.1-4.6-2.3-4.5-4.8c0.1-2.6,2-4.6,5-4.6c2.5,0,4.6,2.3,4.4,4.8
		C502.6,74.1,500.8,75.5,497.9,75.7z"/>
	<path fill="#CE6050" d="M393.1,130.9c-0.2,3.5-2.2,4.6-4.7,4.6c-2.5,0.1-5-2.4-4.8-4.7c0.2-3,2.5-4.7,5.1-4.6
		C391,126.3,393.2,128.6,393.1,130.9z"/>
	<path fill="#CD6151" d="M426.7,112.3c2.2,0.1,4.9,2.7,4.6,4.7c-0.4,2.9-1.9,4.8-4.8,4.7c-2.9,0-4.6-2.4-4.5-5.2
		C422.1,114.4,424.3,112,426.7,112.3z"/>
	<path fill="#6AA188" d="M376.4,65c-0.1-2.9,2.3-4.6,4.5-4.6c3.1-0.1,4.8,2.2,4.8,4.5c-0.1,2.9-1.6,4.9-5.2,4.8
		C378.4,69.6,376.2,67.6,376.4,65z"/>
	<path fill="#609B82" d="M380.2,35.5c-2.6,0.3-4.7-2.3-4.7-4.5c0-2.6,1.9-4.7,4.8-4.7c2.6,0,4.5,1.9,4.6,4.8
		C385,33.5,382.4,35.8,380.2,35.5z"/>
	<path fill="#6AA289" d="M503.3,89.6c-2.3,0.1-4.5-2.1-4.6-4.4c-0.1-2.4,1.7-5,4.9-4.9c2.2,0,4.2,1.9,4.3,4.6
		C508,87.3,506,89.6,503.3,89.6z"/>
	<path fill="#CC6153" d="M403.8,58.7c0,2.4-1.9,4.6-4.8,4.6c-2.4,0-4.5-2.1-4.5-4.6c0-2.7,1.7-4.6,4.8-4.7
		C401.8,54,403.8,56.1,403.8,58.7z"/>
	<path fill="#CE6050" d="M382.8,113.4c0-2.4,1.9-4.2,4.4-4.2c2.9-0.1,4.9,2.3,4.8,4.6c-0.1,2.5-2.1,4.4-4.4,4.4
		C384.7,118.3,382.8,116.3,382.8,113.4z"/>
	<path fill="#CC6152" d="M423.5,124.5c0.1,2.9-2.1,4.6-4.5,4.7c-2.3,0.1-4.7-1.9-4.7-4.7c0-2.3,1.9-4.4,4.4-4.4
		C421.3,120,423.6,121.8,423.5,124.5z"/>
	<path fill="#699F87" d="M457,81.9c-3.5-0.7-4.9-4.3-3.2-7.2c0.6-1,1.6-1.7,2.8-2c0.3-0.1,0.7-0.1,0.9,0.2c0.5,0.8,1.3,0.9,2,1.3
		c0.3,0.2,0.5,0.3,0.8,0.1c0.2-0.1,0.4-0.1,0.5,0.1c0.1,0.1,0.2,0.3,0.1,0.3c-0.5,0.5,0.6,1.1-0.1,1.6c-0.1,0.1-0.3,0.2-0.3,0.3
		s-0.1,0.3,0.1,0.5c0.3,0.2,0.3-0.1,0.4-0.2c0.4-0.5,1.1-0.5,1.4,0.1c0.1,0.2,0.2,0.4,0.1,0.6c-0.3,0.3-0.4,0.8-0.6,1.2
		c-0.3,0.4-0.7,0.7-0.8,1.3c0,0.1-0.1,0.2-0.2,0.2c-0.6,0.1-1.2,0.2-1.2,1.1c0,0.1-0.1,0.2-0.3,0.1c-0.7-0.3-1.3,0.5-2,0.3
		C457.2,81.8,457.1,81.9,457,81.9z"/>
	<path fill="#629B83" d="M452.9,29c0.1,0.8,0.2,1.4,0.2,2c0,1.4-0.8,2.4-2,2.9c-1.1,0.5-2.3,0.5-3.5-0.3c-2.4-1.3-1.7-5.4,0.3-6.2
		c1.4-0.5,2.7-0.7,4.2,0.7c0.1,0.1,0.2,0.4,0.5,0.3c0.3-0.1,0.2-0.4,0.2-0.6c0.1-1.7,0.9-2.3,2.7-2.3c1.1,0.1,1.9,1.1,1.8,2.5
		c-0.1,1.3-1.8,2.4-3,1.9C454,29.9,453.6,29.6,452.9,29z"/>
	<path fill="#71A58E" d="M459.1,103.8c0,1.3-0.9,2.6-1.8,3c-1.9,0.8-3.6,0.3-4.4-0.8c-0.1-0.3-0.3-0.5-0.5-0.7
		c-0.5-0.7-0.6-0.7-1,0.1c-0.7,1.2-1.3,1.4-2.5,1.1c-0.8-0.2-1.4-1-1.4-1.8c0-1,0.7-1.9,1.8-2.2c0.7-0.2,1.7,0.2,2.1,1
		c0.1,0.2,0.2,0.5,0.5,0.5c0.3-0.1,0.3-0.3,0.3-0.6c0.5-2.2,2.1-2.9,3.7-2.9C458.2,100.5,459,102.4,459.1,103.8z"/>
	<path fill="#6BA289" d="M490,79.9c-0.1,0.7-0.6,1.4-1.3,1.8c-0.7,0.5-1.5,0.5-2.3,0c-0.2-0.1-0.3-0.3-0.5-0.3
		c-0.8-0.6-0.9-0.5-1.2,0.4c-0.6,2.2-3.2,2.9-4.9,1.5c-1.1-0.9-1.4-3.4-0.5-4.4c1.6-1.5,3.5-1.3,4.8,0c0.1,0.1,0.1,0.1,0.2,0.3
		c0.3,0.5,0.6,0.6,0.9-0.1c0.3-0.7,0.9-1.3,1.7-1.5C488.5,77.2,489.8,78.4,490,79.9z"/>
	<path fill="#72A992" d="M487.7,140.8c-0.1,0-0.3,0-0.4,0c-0.1,0-0.3,0-0.3,0.1c0,0.1,0.1,0.3,0.2,0.3c2.1,0.6,2.7,3.4,1.2,5
		c-0.5,0.6-1.2,0.8-1.9,0.9c-1.5,0.2-3.2-0.8-3.7-2.2c-0.3-0.9,0.3-2.6,1.2-3.2c0.7-0.5,1.5-0.8,2.3-0.8c0.5,0,0.5-0.2,0.2-0.5
		c-0.3-0.3-0.5-0.7-0.7-1.1c-0.3-0.9-0.1-1.9,0.5-2.3c1-0.7,1.9-0.8,2.6-0.2c1,0.9,1.1,1.7,0.7,2.8
		C489.3,140.4,488.6,140.8,487.7,140.8z"/>
	<path fill="#6FA48B" d="M417.3,84.6c1.1-1.8,4.2-2.9,6.2-1.5c0.3,0.5,0.5,1,0.5,1.6c0,0.3,0,0.5,0.4,0.5c0.5,0,0.8,0.3,0.8,0.8
		c0.1,0.5-0.3,0.7-0.7,0.8c-0.5,0.1-1-0.1-1.3,0.3c0.1,0.2,0.2,0.1,0.3,0.1c0.4-0.2,0.7-0.1,0.9,0.3c0.2,0.4,0,0.7-0.3,0.9
		c-0.4,0.3-0.9,0.5-1.4,0.4c-0.7-0.2-0.9,0.1-1,0.7c0.5-0.3,0.9-0.5,1.5-0.5c0.5-0.1,0.7,0.2,0.9,0.5c0.1,0.4-0.1,0.6-0.5,0.7
		c-0.2,0.1-0.4,0.2-0.5,0.4c-0.2,0.7-0.7,0.7-1.2,0.5c-0.3-0.1-0.6-0.1-0.9,0c-0.2,0.1-0.3,0.1-0.5,0.1c-0.3-0.1-0.6-0.4-0.7-0.7
		c-0.1-0.4,0.4-0.3,0.6-0.6c-0.5-0.3-1-0.5-1.3-1c-0.2-0.3-0.5-0.2-0.8-0.2c-0.8,0.1-1.4-0.3-1.3-1.1
		C417,86.4,416.7,85.5,417.3,84.6z"/>
	<path fill="#71A890" d="M418.5,157.4c-0.1-0.9,0.6-1.4,1.3-1.8c0.6-0.3,1.7,0,2.3,0.5c0.7,0.6,1.1,1.3,0.8,2.1
		c-0.1,0.1-0.1,0.3,0.1,0.5c0.3,0.1,0.3-0.1,0.4-0.3c0.7-1.1,1.6-1.7,3-1.6c1.9,0.1,3.2,2.3,2.3,4c-0.9,1.7-2.5,2.3-4.2,1.4
		c-0.8-0.5-1.5-1.9-1.4-2.8c0-0.1,0.1-0.3-0.1-0.5c-0.3-0.1-0.4,0.1-0.6,0.3c-1.1,0.9-2.2,1-3.2,0.3
		C418.6,158.9,418.5,158.2,418.5,157.4z"/>
	<path fill="#629B83" d="M441.4,38.7c-0.1-1.3,0.7-2.3,1.9-2.8c1-0.5,2.2-0.6,3.3,0.1c0.4,0.3,0.8,0.4,1.1,0.8
		c0.3,0.3,0.5,0.2,0.5-0.2c0-0.3,0.2-0.6,0.5-0.8c0.5-0.6,1.1-0.7,1.7-0.3c0.5,0.3,0.7,1.3,0.5,1.7c-0.2,0.5-1.1,0.9-1.7,0.7
		c-0.9-0.2-0.9-0.2-0.8,0.7c0.3,2-1.8,3.8-3.8,3.4c-0.6-0.1-1.1-0.3-1.6-0.6C441.8,40.8,441.4,40,441.4,38.7z"/>
	<path fill="#659E85" d="M418.2,43.7c1.1,0.1,2.1,0.5,2.7,1.5c0.3,0.4,0.6,0.7,0.7,1.1c0.2,0.5,0.3,1,0.1,1.5
		c-0.7,1.6-1.7,2.8-3.6,2.9c-0.5,0.1-0.7,0.2-0.3,0.7c0.2,0.3,0.1,0.5-0.1,0.8c-0.3,0.2-0.5,0.1-0.7-0.1c-0.3-0.3-0.1-0.5,0-0.7
		c0.5-0.5,0.3-0.7-0.3-0.9c-1.3-0.6-2-1.7-2.1-3.2c-0.1-1.2,1.1-3.4,2.7-3.5C417.5,43.9,417.8,43.8,418.2,43.7z"/>
	<path fill="#72A790" d="M337.9,104.2c0-1.1,1.1-2.5,2.2-2.9c2.2-0.9,5,1,4.8,3.3c-0.1,0.7,0.2,0.9,0.9,0.5c0.4-0.2,0.9-0.3,1.3,0.1
		c0.1,0.2,0.3,0.5,0.2,0.8c-0.2,0.3-0.6,0.5-1.1,0.5c-0.3,0-0.6-0.1-0.7-0.5c-0.1-0.2,0-0.5-0.3-0.5c-0.3,0-0.4,0.3-0.5,0.5
		c-0.9,1.6-2.5,2.2-4.4,1.7C338.9,107.4,337.9,105.8,337.9,104.2z"/>
	<path fill="#6DA58B" d="M413,79.9c1.8,0,3.6,1.5,3.6,3.1c-0.1,2.7-1.3,3.9-3.5,4c-2.5,0.1-3.4-1.3-3.7-3.4
		C409.2,81.7,411.3,79.6,413,79.9z"/>
	<path fill="#68A187" d="M362,62.7c2,0,3.6,1.7,3.6,3.9c0,1.5-1.9,3.4-3.6,3.2c-2.1-0.1-3.5-1.1-3.6-3.8
		C358.3,64.7,359.8,62.7,362,62.7z"/>
	<path fill="#70A68F" d="M459.3,173.8c-1.6,0-3.4-1.7-3.4-3.4c0-2.5,1.5-3.8,3.7-3.9c1.6-0.1,3.5,1.9,3.5,3.5
		C463.1,172.2,461.5,173.8,459.3,173.8z"/>
	<path fill="#6FA78E" d="M410.7,159.1c0-1.7,1.5-3.4,3.4-3.4c1.9,0,3.8,1.6,3.8,3.4c-0.1,2-1.5,3.8-3.6,3.8
		C412.5,162.8,410.7,161.1,410.7,159.1z"/>
	<path fill="#71A68E" d="M354.6,93.6c-0.1-2.1,1.9-3.7,3.7-3.6c1.9,0.1,3.6,1.6,3.5,3.5c-0.1,1.7-1.5,3.6-3.1,3.6
		C356.3,97.1,354.7,95.6,354.6,93.6z"/>
	<path fill="#6EA58C" d="M489.2,97.1c-0.2,1.5-1.3,3.5-4,3.5c-1.6,0-3.4-1.9-3.3-3.8c0.1-2,1.6-3.2,4.1-3.2
		C487.5,93.4,489.2,95.4,489.2,97.1z"/>
	<path fill="#73A78F" d="M431.4,132.6c-0.1-1.9,1.4-3.7,3.8-3.6c1.9,0.1,3.4,1.7,3.2,4c-0.1,1.4-1.3,3.1-3.6,3
		C433.2,136.1,431.2,134.6,431.4,132.6z"/>
	<path fill="#72A790" d="M423.4,106.9c0,0.9-0.9,2.2-1.7,2.5c-0.2,0.1-0.5,0-0.5,0.3c0,0.4,0.3,0.4,0.6,0.5c1.7,0.5,1.7,2.3,0.7,3.2
		c-0.7,0.6-2.1,0.6-2.7-0.1c-0.6-0.8-0.5-2.1,0.3-2.7c0.1-0.1,0.3-0.1,0.3-0.2c0.2-0.1,0.6-0.1,0.5-0.5c-0.1-0.3-0.5-0.1-0.7-0.2
		c-1.2-0.2-2.1-0.8-2.7-1.9c-0.1-0.3-0.2-0.5-0.2-0.7c0-1.3,0.8-2.6,1.9-2.9c1.5-0.5,2.9-0.1,3.7,1.1
		C423.3,105.7,423.4,106.3,423.4,106.9z"/>
	<path fill="#639D84" d="M405.8,40.8c-2.1,0-3.8-1.6-3.7-3.6c0.1-1.9,1.6-3.4,3.4-3.4c2.2,0,3.6,1.6,3.6,3.2
		C409.2,39.4,408,40.6,405.8,40.8z"/>
	<path fill="#71A890" d="M399.6,111.9c1.8-0.1,3.6,1.2,3.4,3.7c-0.1,1.7-1.7,3.3-3.5,3.3c-1.9,0-3.6-1.7-3.6-3.4
		C396,113.6,397.7,111.9,399.6,111.9z"/>
	<path fill="#71A78F" d="M465.6,153.8c0,1.9-1.3,3.4-3.1,3.4c-2.5,0.1-3.9-2.1-3.9-3.7c0-1.9,1.7-3.4,4-3.4
		C463.9,150.1,465.6,152.1,465.6,153.8z"/>
	<path fill="#6DA58C" d="M444.5,179.8c-1.9,0-3.7-1.7-3.6-3.5c0.1-1.7,1.5-3.7,3.6-3.6c2.3,0.2,3.4,1.5,3.4,3.8
		C448,177.8,446.2,179.9,444.5,179.8z"/>
	<path fill="#6DA48C" d="M373,89.6c-1.7-0.1-3.4-1.5-3.4-3.6c0-1.6,1.5-3.5,3.4-3.4c1.9,0.1,3.6,1.4,3.6,3.2
		C376.7,88,375.3,89.4,373,89.6z"/>
	<path fill="#6CA48B" d="M493.2,109c0,1.7-1.5,3.2-3.2,3.2c-1.9,0-3.8-1.7-3.9-3.5c-0.1-1.9,1.5-3.4,3.8-3.5
		C491.7,105.2,493.2,107,493.2,109z"/>
	<path fill="#76A68F" d="M382.4,98.9c-1.8,0.1-3.4-2-3.4-3.6c0.1-1.9,1.9-3.6,3.7-3.4c1.4,0.1,3.4,1.4,3.3,3.9
		C385.8,97.5,384.2,98.9,382.4,98.9z"/>
	<path fill="#74A790" d="M420.6,116.2c0.1,1.6-1.4,3.5-3.6,3.6c-1.5,0.1-3.4-1.8-3.4-3.4c0-2.1,1.5-3.8,3.5-3.7
		C419.1,112.8,420.6,114.3,420.6,116.2z"/>
	<path fill="#609B82" d="M393.8,29.2c0,2.4-1.3,3.4-3.2,3.6c-1.8,0.1-3.7-1.6-3.7-3.2c0-2.1,1.4-3.8,3.2-3.8
		C392.3,25.9,393.8,27.3,393.8,29.2z"/>
	<path fill="#69A088" d="M454.3,70.5c-0.1,2.3-1.5,3.6-3.4,3.8c-1.7,0.1-3.8-1.8-3.7-3.4c0.1-2.2,1.6-3.6,3.6-3.7
		C452.4,67.2,454.2,69,454.3,70.5z"/>
	<path fill="#70A48B" d="M433,90.9c0.1,2.3-1.9,3.6-3.3,3.6c-1.9-0.1-3.6-1.5-3.6-3.6c0.1-2.2,1.6-3.3,3.4-3.4
		C431.4,87.4,433.2,88.9,433,90.9z"/>
	<path fill="#649D85" d="M387.9,39.1c0.2,1.9-1.9,3.4-3.4,3.4c-1.9-0.1-3.6-1.4-3.6-4c0-1.3,1.9-2.7,3.6-2.8
		C386.1,35.6,388.1,37.3,387.9,39.1z"/>
	<path fill="#6FA78E" d="M393.8,171.5c0.1,2-1.6,3.5-3.4,3.5c-2-0.1-3.2-1.3-3.4-3.6c-0.1-1.5,1.5-3.2,3.2-3.2
		C392.2,168.1,393.8,169.5,393.8,171.5z"/>
	<path fill="#5F9981" d="M440.8,25.5c-2.1,0-3.4-1.4-3.5-3.8c-0.1-1.5,1.6-2.9,3.2-3c2.3-0.1,3.5,1.5,3.4,3.6
		C443.9,24,443.2,25.6,440.8,25.5z"/>
	<path fill="#669D85" d="M397.5,51.1c0,2-1.4,3.5-3.3,3.4c-2.1-0.1-3.4-1.5-3.4-3.8c0-1.4,1.8-2.9,3.4-2.9
		C395.6,47.7,397.8,49.3,397.5,51.1z"/>
	<path fill="#71A68E" d="M417.3,84.6c-0.4,0.8,0.1,1.7-0.3,2.6c-0.2,0.3,0,0.7,0.3,1s0.5,0.3,0.9,0.1c0.5-0.3,0.7,0.1,1,0.5
		c0.3,0.3,0.4,0.7,0.9,0.6c0.3-0.1,0.4,0.3,0.3,0.6c-0.1,0.5-0.5,0.1-0.7,0.3c0.3,0.5,0.6,1.1,1.3,0.6c0.3-0.2,0.6,0,0.9,0.1
		c0.4,0.2,0.8,0.3,0.9-0.4c0-0.4,0.4-0.4,0.6-0.5c0.2-0.1,0.5-0.1,0.5-0.3c0-0.3-0.3-0.6-0.5-0.5c-0.5,0.1-1.1-0.1-1.4,0.5
		c-0.1,0.2-0.3,0.4-0.5,0.3c-0.2-0.1-0.1-0.4-0.1-0.5c0.1-0.2,0.2-0.3,0.3-0.6c0.1-0.3,0.3-0.5,0.6-0.3c0.7,0.5,1.2,0,1.7-0.2
		c0.3-0.1,0.5-0.4,0.3-0.7c-0.1-0.3-0.3-0.4-0.7-0.1c-0.1,0.1-0.3,0.4-0.6,0.2c-0.1-0.1-0.1-0.4,0-0.5c0.2-0.2,0.4-0.6,0.7-0.4
		c0.5,0.4,0.8-0.3,1.3-0.1c0.1,0.1,0.3-0.5,0.1-0.7c-0.1-0.2-0.3-0.7-0.7-0.4c-0.5,0.3-0.7,0.1-0.5-0.5c0.2-0.6-0.5-1.1-0.3-1.8
		c1.5,0.7,2.2,1.9,2.4,3.5c0.3,2.3-0.7,4-2.7,5c-0.1,0.1-0.3,0.1-0.3,0.3c0,0.3,0.3,0.2,0.4,0.3c0.7,0.2,0.9,0.8,0.8,1.5
		c0,0.6-0.5,0.8-0.9,0.9c-0.6,0.1-1.1-0.2-1.3-0.7c-0.3-0.6-0.1-1.1,0.4-1.5c0.1-0.1,0.4-0.2,0.3-0.4c-0.1-0.2-0.3-0.1-0.4-0.1
		c-0.3,0-0.5-0.1-0.8,0c-1.6,0.3-2.7-0.7-3.8-1.6c-0.4-0.3-0.4-0.9-0.7-1.3c-0.3-0.4-0.5-0.5-0.7-0.1c-0.3,0.5-0.7,0.7-1.2,0.6
		c-0.5-0.1-0.8-0.4-0.9-0.9c-0.1-0.5,0.2-0.7,0.5-0.9c0.5-0.2,0.9-0.3,1.3,0.1c0.1,0.1,0.3,0.3,0.5,0.3c0.2-0.1,0.2-0.3,0.1-0.4
		C416.4,86.7,416.7,85.6,417.3,84.6z"/>
	<path fill="#6EA58D" d="M407.4,178.8c-0.7,0-1.3-0.4-1.9-0.9c-0.5-0.3-0.7-0.3-0.7,0.3c0.1,0.7-0.4,1.1-1.1,1.4
		c-0.5,0.2-0.9,0-1.2-0.3c-0.5-0.5-0.5-1.1-0.2-1.6c0.2-0.5,1.1-0.7,1.7-0.4c0.2,0.1,0.4,0.4,0.6,0.2c0.2-0.2,0-0.5-0.1-0.7
		c-0.3-1.2-0.2-2.3,0.8-3.2c1.4-1.3,2.9-1.3,4.3-0.1c0.9,0.8,1.2,2.3,0.7,3.6C410,177.9,408.4,178.9,407.4,178.8z"/>
	<path fill="#669F86" d="M387.1,56.4c0.1,1.8-1.4,3.4-3.3,3.4c-1.6,0.1-3.4-1.3-3.3-3.5c0.1-2,1.1-3.1,3.4-3.2
		C385.2,53,387.3,54.7,387.1,56.4z"/>
	<path fill="#6EA48C" d="M340.5,93.8c1.1-0.1,3.2,1.5,3.3,2.3c0.1,2.3-1.5,4.1-3.6,4.2c-1.6,0.1-3.2-1.6-3.3-3.4
		C336.8,95,338,93.9,340.5,93.8z"/>
	<path fill="#679E85" d="M449.4,48.7c-1.9,0.1-3.3-1.7-3.2-3.4c0.1-1.9,1.9-2.9,3.4-2.9c2.2,0.1,3.1,1.6,3.1,3.4
		C452.6,47.3,451.4,48.8,449.4,48.7z"/>
	<path fill="#6FA58D" d="M349.7,89.6c0-1.7,0.5-2.3,2.1-2.7c0.5-0.1,0.9,0.1,1.3,0.3c1.1,0.7,1.1,0.7,1.5-0.5
		c0.4-1.3,1.2-1.7,2.5-1.7c0.9,0.1,1.1,0.7,1.5,1.3c0.3,0.7,0.3,1.4-0.3,2c-0.9,1.1-2.1,1.1-3.3,0.2c-0.2-0.1-0.4-0.5-0.7-0.3
		c-0.3,0.1-0.1,0.5-0.1,0.7c-0.1,1.6-0.6,2.3-1.9,2.6C351.1,91.8,349.7,90.7,349.7,89.6z"/>
	<path fill="#639C84" d="M411.5,37.6c-1.5-1.4-1.1-4,0.7-5.2c1.8-1.1,4.6,0,5,1.9c0.1,0.8,0.2,1.6-0.3,2.3c-0.5,0.3-0.7-0.3-1.1-0.4
		c-0.2,0.3-0.2,0.6-0.2,0.9c-0.1,1.1-0.9,1.7-1.9,1.2C412.9,38.1,412.2,37.9,411.5,37.6z"/>
	<path fill="#74A992" d="M408.6,139.8c0.1-2.1,1.3-3.2,3.1-3.2c1.9,0,3.2,1.3,3.2,3.5c0,1.5-1.6,2.9-3.2,2.9
		C410,142.9,408.6,141.4,408.6,139.8z"/>
	<path fill="#71A68E" d="M347.1,97.9c-1.7,0-3.2-1.6-3.2-3.4c0.1-1.3,1.7-2.8,3.1-2.9c1.7,0,3.6,1.5,3.5,2.9
		C350.3,96.4,349.2,97.8,347.1,97.9z"/>
	<path fill="#669F86" d="M364.6,52c-1.6-0.1-2.9-1.6-2.9-3.4c0.1-1.5,1.7-3,3.1-2.9c1.9,0.1,3.3,1.5,3.2,3.3
		C368,50.7,366.5,52,364.6,52z"/>
	<path fill="#CD6152" d="M464.5,88.1c0-1.6,1.5-3.2,3.2-3c1.5,0.1,3.1,1.3,3.1,3.2c0,1.7-1.5,3.1-3.4,3.2
		C465.9,91.5,464.5,89.9,464.5,88.1z"/>
	<path fill="#71A68F" d="M378.7,99.8c0,1.3-1.7,3-2.8,3.1c-2,0.1-3.6-1.5-3.6-3.4c0-1.4,1.7-3,3.2-3C377,96.5,378.7,98.2,378.7,99.8
		z"/>
	<path fill="#73A68F" d="M382.6,117.7c-0.1,1.8-1.5,3-3.2,2.9c-2-0.1-2.9-1.1-3-3c-0.1-1.5,1.6-3.2,2.9-3.2
		C381.3,114.4,382.7,115.8,382.6,117.7z"/>
	<path fill="#76AA94" d="M459.8,134.2c1.8,0,3.7,1.4,3.6,2.8c-0.1,2.5-1.5,3.4-3.5,3.6c-1.3,0.1-2.8-1.9-2.8-3.4
		C457.1,135.8,458.6,134.1,459.8,134.2z"/>
	<path fill="#71A790" d="M452.1,170c1.7-0.1,3.3,1.5,3.4,3.4c0.1,1.5-1.5,2.9-3.4,3.1c-1.2,0.1-2.8-1.6-2.9-2.9
		C449.1,171.1,450.5,170.3,452.1,170z"/>
	<path fill="#73AA93" d="M492.1,146.8c0,1-0.6,1.5-1.6,1.5s-1.6-0.6-1.6-1.5c0-0.6,0.9-1.5,1.7-1.5c0.2,0,0.5,0.1,0.7-0.1
		c0.1-0.3-0.2-0.5-0.4-0.6c-0.8-0.7-1.1-1.7-0.9-2.6c0.3-1.1,1.2-1.9,2.4-2c1.5-0.1,2.8,1,2.9,2.5c0,1.3-0.8,2.6-2.4,2.8
		c-0.1,0-0.2,0-0.3,0c-0.9,0-0.9,0-0.5,0.8C492.1,146.2,492.1,146.5,492.1,146.8z"/>
	<path fill="#72A891" d="M466.3,150.9c-0.3-1.9,1.5-3.2,2.9-3.2c2.1,0,3.4,1.5,3.2,3.3c-0.1,1.6-1.4,2.9-3,2.9
		C467.5,153.9,466.3,152.8,466.3,150.9z"/>
	<path fill="#CB6255" d="M440.7,52c1.8-0.1,3.1,1.3,3,3.4c-0.1,1.5-1.2,2.9-3.3,2.8c-1.5,0-3-1.4-2.9-2.9
		C437.7,53.8,438.5,51.8,440.7,52z"/>
	<path fill="#71A78F" d="M469.6,110.3c-2,0.1-2.9-1.3-3.1-2.7c-0.1-1.9,1.3-3.2,3.4-3.2c1.6,0,2.9,1.6,2.9,2.7
		C473,109.1,471.7,110.3,469.6,110.3z"/>
	<path fill="#639B83" d="M431.3,31c-0.4,0.2-0.9,0-1.3,0.3c-0.1,0.1-0.3,0-0.4-0.1c-0.5-1-1.4-0.8-2.3-0.7c-0.9-0.9-1.1-2.1-0.5-3.3
		c0.6-1.3,1.6-1.9,3.1-1.9c1.4,0.1,2.7,1.4,2.8,2.9c0,0.5,0,1,0.7,0.4c0.3-0.3,0.7-0.2,1.1,0.1c0.3,0.3,0.3,0.8,0.1,1.2
		c-0.3,0.5-0.9,0.3-1.3-0.3c-0.1-0.2-0.1-0.5-0.4-0.5c-0.3,0-0.3,0.3-0.5,0.6C432.2,30.2,431.8,30.7,431.3,31z"/>
	<path fill="#6EA48D" d="M477.6,119.6c0-1.7,1.6-2.7,3.3-2.8c1.5-0.1,3.2,1.6,2.9,3.1c-0.3,1.9-1.2,3.1-3.2,3.2
		C479.1,123,477.5,121.8,477.6,119.6z"/>
	<path fill="#68A289" d="M416.3,63.8c0,1.7-1.3,3-3.1,3c-1.6,0-3.3-1.5-3.2-2.9c0-1.6,1.5-3.4,3-3.4
		C414.7,60.7,416.4,61.9,416.3,63.8z"/>
	<path fill="#6FA68D" d="M414.8,175.2c1.7,0.2,2.9,1.2,3.1,3.2c0.1,1.5-1.4,2.9-2.9,3c-1.7,0.1-3.4-1.2-3.4-2.7
		C411.6,176.9,412.6,175.2,414.8,175.2z"/>
	<path fill="#6FA68F" d="M486.1,126.8c0.2-1.5,1.3-3.2,2.9-3.2c1.8,0,3.4,1.5,3.4,3c0,1.5-1.5,3.2-3.1,3.2
		C487.9,130,486.1,128.4,486.1,126.8z"/>
	<path fill="#70A790" d="M483.7,110.7c1.9,0.1,3.2,1.4,3.2,3.5c0,1.3-1.8,2.9-3.3,2.7c-1.3-0.1-2.9-1.2-2.8-3.2
		C480.9,112,482.1,110.5,483.7,110.7z"/>
	<path fill="#67A187" d="M368,41.8c0,2-1.5,2.9-3,3.1c-1.7,0.1-3.3-1.5-3.2-3.1c0.1-1.6,1.5-3.2,3-3.1
		C366.5,38.9,368.1,39.7,368,41.8z"/>
	<path fill="#71A790" d="M434.4,154.6c-1.9,0-3.1-1.1-3-3.4c0-1.7,1-2.6,2.9-2.8c1.6-0.1,3.2,1.4,3.2,2.9
		C437.5,153,436.1,154.5,434.4,154.6z"/>
	<path fill="#6BA38A" d="M487.4,89c-1.7,0-3.1-1.4-3-3.1c0.1-1.7,1.3-2.9,3.2-3c1.5-0.1,3.1,1.3,3,2.7
		C490.6,87.7,489.7,88.7,487.4,89z"/>
	<path fill="#CC6153" d="M471.8,62.9c-2.1,0-3.2-1.2-3.2-3.6c0-1,1.6-2.5,2.7-2.4c1.9,0.1,3.7,1.1,3.6,3.5
		C474.7,61.6,473.3,62.9,471.8,62.9z"/>
	<path fill="#669D84" d="M461.9,48.8c-1.5,0-2.8-1.4-2.7-3c0.1-1.7,1.1-3.2,3.3-3c1.5,0.1,2.9,1.1,2.9,3
		C465.5,47.7,464.1,48.8,461.9,48.8z"/>
	<path fill="#70A78F" d="M432,143.1c0-1.9,1.3-3.1,3.4-3c1.5,0.1,2.8,1.3,2.9,3.3c0.1,1.3-2.1,2.8-3.3,2.8
		C433.1,146.2,432,144.9,432,143.1z"/>
	<path fill="#6AA289" d="M500.3,61.9c0.1,1.7-1.1,3-2.9,3.1c-1.6,0.1-3.2-1.4-3.2-3.2c0-1.2,1-2.9,2.7-3
		C498.5,58.8,500.3,59.8,500.3,61.9z"/>
	<path fill="#74A891" d="M459.2,115.5c-0.1,1.7-1.2,2.9-3,2.9c-1.5,0.1-3.2-1.4-3.2-2.7c0-1.8,1.3-3.2,2.9-3.3
		C457.9,112.4,459,113.8,459.2,115.5z"/>
	<path fill="#68A087" d="M480.5,45.8c1.5-0.2,2.9,1.5,2.9,2.9c0,1.6-1.5,3.3-2.9,3.2c-1.9-0.1-3.2-1.1-3.3-2.9
		C477.3,47.1,478.6,45.7,480.5,45.8z"/>
	<path fill="#CB6254" d="M410,128.6c0.5-0.2,0.9-0.4,1.3-0.6c0.8,0.2,1.6,0.1,2.3,0.7c0.6,0.5,1.5,2.1,1.4,2.9
		c-0.2,1.2-1.3,2.4-2.4,2.7c-1,0.3-2.2-0.2-2.9-1.1c-0.5-0.5-0.7-1.1-0.8-1.9c-0.1-0.7,0.1-1.3,0.5-1.9
		C409.8,129.2,409.9,128.9,410,128.6z"/>
	<path fill="#6EA68E" d="M388.1,166.7c-1.9,0.1-3.2-1.7-3.3-2.9c-0.1-1.7,1.6-3,3.2-3.1c1.7,0,2.9,1.2,2.9,3
		C390.9,165.5,389.8,166.7,388.1,166.7z"/>
	<path fill="#67A087" d="M374.6,50.7c-0.1,1.7-1.3,3.2-2.9,3.2c-1.8,0.1-3.2-1.5-3.2-3.6c0-1.3,1.7-2.6,3.3-2.5
		C373.4,47.8,374.6,48.8,374.6,50.7z"/>
	<path fill="#71A78F" d="M475,109.3c2.3,0.1,3.1,1.1,3.2,2.8c0.1,1.9-1.3,3-2.9,3.2c-1.7,0.1-3.3-1.5-3.2-3
		C472.3,110.5,473.3,109.3,475,109.3z"/>
	<path fill="#71A891" d="M399,161c1.1-0.3,3,1.7,3,2.9c0,1.9-1.3,3.3-3.2,3.2c-1.5,0-3.1-1.5-3-2.7C395.8,162.5,397.2,161,399,161z"
		/>
	<path fill="#CA6353" d="M447.7,55.8c-1.9-0.1-2.9-1.2-3.1-3.1c-0.1-1.3,1.5-3.2,2.7-3.1c1.7,0.1,3.3,1.1,3.4,3.4
		C450.7,54.2,449.1,55.7,447.7,55.8z"/>
	<path fill="#69A087" d="M423.7,64.2c-1.5,0-2.9-1.4-2.9-2.9c0-2.2,1.4-3.2,3.3-3.2c1.3,0,2.7,1.3,2.7,2.9
		C426.7,62.9,425.7,64,423.7,64.2z"/>
	<path fill="#6B9F86" d="M464.7,67c-0.1,1.8-1.3,3-3,3.2c-1.5,0.1-3.2-1.6-3.2-3c0.1-2.2,1.4-2.9,3.4-3.1
		C463.3,63.9,464.7,65.6,464.7,67z"/>
	<path fill="#CD6152" d="M398.1,73.3c0,1.7-1.3,3-3.1,3c-1.7,0-3.2-1.3-3.1-3c0.1-1.8,1.3-2.9,3.2-3.1
		C396.5,70.2,398.1,71.9,398.1,73.3z"/>
	<path fill="#71A790" d="M391.9,143.2c0.1-2.1,1.1-3,3.2-2.9c1.3,0.1,2.9,1.6,2.8,2.9c-0.1,1.9-1,3.1-3.4,3.1
		C393,146.2,391.9,144.8,391.9,143.2z"/>
	<path fill="#6EA48C" d="M492,104.4c-1.7,0.3-3.1-1.5-3.1-2.8c0-1.7,1.3-3,2.8-3.1c1.7-0.1,3.2,1.4,3.2,2.5
		C495,103.3,493.8,104.6,492,104.4z"/>
	<path fill="#CE6151" d="M386.3,123.1c-0.2,2.1-1.6,2.9-3.2,2.9c-1.4,0.1-2.9-1.7-2.8-3.4c0.1-1.5,1.6-2.9,3.2-2.7
		C385,120.1,386.4,121.5,386.3,123.1z"/>
	<path fill="#CB6250" d="M397.2,129.6c0.4-0.3,0.8,0.1,1.2,0c1.5,0.6,2.3,1.6,2.3,3.3c0,1.2-1.1,2.4-2.3,2.5c-1.1,0.1-2.3,0.3-3.2-1
		C394.2,132.6,394.6,130.1,397.2,129.6z"/>
	<path fill="#679E85" d="M445.5,63.1c-1.7,0-2.9-1.3-2.8-3c0.1-1.6,1.1-3,2.9-3c1.7,0,3.1,1.5,3.1,3.1
		C448.7,61.7,447,63.2,445.5,63.1z"/>
	<path fill="#6FA58D" d="M416.3,96.9c0.1-2.1,1.1-2.8,3.2-3.1c1.3-0.1,2.9,1.7,2.9,3.2c0,1.3-1.7,2.8-3.2,2.8
		C417.8,99.9,416.1,98.5,416.3,96.9z"/>
	<path fill="#74A992" d="M354.6,138.6c1.5,0,3.1,1.3,2.9,2.7c-0.1,1.7-0.9,3.4-3.4,3.3c-1.4-0.1-2.7-1.4-2.7-2.9
		C351.5,139.8,353.2,138.5,354.6,138.6z"/>
	<path fill="#72A790" d="M382.6,151.2c-1.3,0.2-2.9-1.5-2.9-2.9c0.1-1.5,1.4-2.9,2.9-3c1.7-0.1,3.3,1.4,3.3,2.9
		C385.9,149.7,384.5,151.3,382.6,151.2z"/>
	<path fill="#CD6151" d="M376.6,131.9c-0.1-1.2,1.5-2.9,3-2.8c1.9,0.1,2.9,1.3,3.1,3.2c0.1,1.4-1.7,2.9-3.4,2.9
		C377.7,135,376.7,134,376.6,131.9z"/>
	<path fill="#CB6155" d="M443.7,105.1c-1.9-0.1-2.8-1.1-2.9-2.9c-0.1-1.4,1.3-2.9,2.8-2.9c1.7-0.1,3.1,1.2,3.2,2.9
		C446.8,103.8,445.5,105,443.7,105.1z"/>
	<path fill="#70A68E" d="M378.5,93c0,1.5-1.5,3.1-2.9,3c-1.5,0-2.9-1.5-2.9-3c0-1.5,1.5-3.2,2.8-3.1C377.4,89.9,378.5,91.6,378.5,93
		z"/>
	<path fill="#73AA93" d="M370.2,161.9c-1.6,0.2-3-1.9-2.9-3c0.1-1.8,1.3-2.9,3.4-2.9c1.3,0,2.7,1.7,2.6,3.2
		C373.2,160.2,371.9,162.1,370.2,161.9z"/>
	<path fill="#6CA38B" d="M405.6,81c1.3,0,3.1,1.5,3.1,2.7c0.1,1.9-1.2,3.2-3.1,3.3c-1.7,0.1-2.9-1.3-2.9-2.4
		C402.6,82.4,404,81.1,405.6,81z"/>
	<path fill="#71A790" d="M402.7,94.2c1.6-0.1,2.9,1.4,2.9,2.7c0,2.1-1.1,3.2-3.1,3.2c-1.5,0-2.8-1.5-2.9-3.2
		C399.7,95.7,401.3,94,402.7,94.2z"/>
	<path fill="#70A68E" d="M460,112.1c-1.5,0.1-3.1-1.1-3.2-2.4c-0.1-1.7,1.4-3.2,3.2-3.4c1.6-0.1,2.9,1.5,3,2.7
		C463.1,110.6,461.6,112,460,112.1z"/>
	<path fill="#75AA94" d="M387.7,137.6c1.9,0,3.2,1.3,3.2,2.9c0,1.3-1.4,2.9-2.5,2.9c-2.3-0.1-3.3-1.1-3.5-2.9
		C384.8,139,386.3,137.6,387.7,137.6z"/>
	<path fill="#CC6153" d="M426,82.7c-1.4-0.1-2.9-1.4-2.9-2.6c0-1.8,1.4-3.5,2.9-3.3c1.6,0.2,3,1.1,2.9,3.4
		C428.9,81.4,427.6,82.9,426,82.7z"/>
	<path fill="#CC6152" d="M458,54.2c0,1.9-1.2,2.9-2.9,2.9s-2.9-1.3-2.9-3c0-1.5,1.3-2.9,2.8-2.9C456.6,51.2,458.2,52.3,458,54.2z"/>
	<path fill="#CD6151" d="M393.1,66.6c0.1-1.5,1.5-2.8,3-2.7c1.5,0.1,2.8,1.5,2.7,2.9c-0.1,1.9-1.6,3.1-3.4,3
		C394.4,69.7,393.1,68,393.1,66.6z"/>
	<path fill="#6FA78F" d="M416,168.5c1.9,0.1,3,1.3,3,2.8c0.1,1.7-1.5,3.1-3,3.1c-1.2,0-2.9-1.4-2.7-3
		C413.3,169.7,414.4,168.5,416,168.5z"/>
	<path fill="#73A891" d="M350,126.7c0,1.5-1.4,2.9-2.9,2.8c-1.7,0-3-1.3-2.9-3c0.1-1.8,1.1-2.8,2.8-2.9
		C348.7,123.6,350,125,350,126.7z"/>
	<path fill="#CB6252" d="M442.7,76.4c0,1.6-1.3,2.9-2.9,3c-1.6,0-2.9-1.3-2.9-2.9c0-1.5,1.3-2.9,2.7-2.9
		C441.2,73.5,442.7,74.8,442.7,76.4z"/>
	<path fill="#71A891" d="M407,158.9c0,1.4-1.5,3-2.9,2.9c-1.9-0.2-3.1-1.2-3-3.2c0.1-1.5,1.3-2.7,2.9-2.7
		C405.6,155.8,407,157.5,407,158.9z"/>
	<path fill="#6FA58D" d="M356.1,121.7c1.6,0,2.7,1.1,2.8,2.5c0.1,1.9-1.5,3.2-3.2,3.3c-1.4,0.1-2.7-1.5-2.6-2.5
		C353.2,123.2,354.1,121.5,356.1,121.7z"/>
	<path fill="#CB6154" d="M479.8,75.3c0,1.5-1.2,2.9-2.7,2.9c-1.6,0-3.2-1.4-3.2-3c0-1.4,1.1-2.8,3-2.8
		C478.4,72.3,479.8,73.7,479.8,75.3z"/>
	<path fill="#CC6153" d="M437.4,71.7c0,1.6-1.3,3-2.9,3c-1.5,0-3.1-1.6-3-3c0.1-1.6,1.5-2.9,3.2-2.9C436,68.8,437.4,70.2,437.4,71.7
		z"/>
	<path fill="#6FA78E" d="M429.4,152.2c0,1.7-1.3,2.9-3,2.9c-1.6,0-2.9-1.4-2.8-3.2c0.1-1.5,1.5-2.7,3.4-2.7
		C428.1,149.4,429.4,150.8,429.4,152.2z"/>
	<path fill="#CB6154" d="M437.3,103.7C437.3,103.7,437.3,103.7,437.3,103.7c0.5,0.1,0.9,0,1.4,0.1c1.3,0.3,2.5,1.7,2.3,3
		c-0.1,1.6-1.3,2.7-2.9,2.8c-1.1,0.1-2.2-0.7-2.6-1.8c-0.5-1.3-0.2-2.7,0.7-3.4C436.7,104.2,436.9,103.9,437.3,103.7z"/>
	<path fill="#71A891" d="M473.5,165c-1.3,0-2.8-1.2-2.8-2.3c0-1.9,1.1-3.5,2.5-3.5c2,0,3.4,1.2,3.3,3
		C476.5,163.9,475.2,165,473.5,165z"/>
	<path fill="#CB6154" d="M386.4,67.3c0-1.5,1.1-2.8,2.4-2.8c1.9,0,3.3,1.3,3.3,3.1c0,1.5-1.3,2.7-2.7,2.7
		C387.7,70.3,386.5,69,386.4,67.3z"/>
	<path fill="#6EA189" d="M388.4,82.1c-0.3-0.2-0.7,0-1.1,0c-1.3,0.2-2.6-0.6-3-1.5c-0.5-1.2-0.2-2.8,0.8-3.7
		c0.9-0.8,2.8-0.7,3.9,0.4c0.9,0.9,1.1,2.5,0.3,3.5c-0.2,0.3-0.3,0.5-0.4,0.7C388.9,81.9,388.7,82.1,388.4,82.1z"/>
	<path fill="#CC6152" d="M429.6,111.1c0-1.9,1.2-2.9,2.7-3c1.9-0.1,3.1,1.6,3.1,2.8c0,1.3-1.4,2.9-2.5,2.9
		C431,113.8,429.6,112.7,429.6,111.1z"/>
	<path fill="#CB6153" d="M372.3,130.1c1.7,0,2.9,1.3,2.9,3c0,1.2-1.1,2.7-3,2.7c-1.5,0-2.6-1.3-2.7-3.2
		C369.5,131.1,370.6,130.1,372.3,130.1z"/>
	<path fill="#CD6154" d="M391.7,109.2c-1.6,0.1-2.7-1.5-2.7-2.7c0-1.7,1.3-3,2.8-2.9c1.8,0.1,2.9,0.8,2.9,2.9
		C394.8,108.1,393.5,109.2,391.7,109.2z"/>
	<path fill="#CC6154" d="M394.4,102.9c-1.3,0.3-2.7-1.3-2.7-2.7c-0.1-1.5,1.2-2.8,2.9-2.9c1.3-0.1,2.7,1.3,2.9,2.6
		C397.6,101.8,396.1,103,394.4,102.9z"/>
	<path fill="#699F87" d="M403.5,47.8c-0.1,1.9-1.5,3-3.2,2.9c-1.6-0.1-2.7-1.3-2.6-2.6c0.1-2.3,1.4-2.9,3.3-3
		C402.1,45,403.6,46.7,403.5,47.8z"/>
	<path fill="#CE6252" d="M387.6,97.9c1.7,0,2.9,1.3,2.9,3.1c0,1.3-1.3,2.6-2.6,2.6c-1.8,0-3.1-1.3-3.1-3
		C384.8,99.1,386,97.9,387.6,97.9z"/>
	<path fill="#639C84" d="M461.7,24.2c0,0.9-0.7,1.7-1.7,2.2c-0.1,0.1-0.4,0.1-0.3,0.3c0.1,0.2,0.3,0.1,0.4,0.1c0.7,0,1.1,0.5,1.3,1
		c0.1,0.5,0,1.1-0.5,1.4c-0.6,0.4-1.2,0.5-1.8,0c-0.6-0.4-0.7-1.4-0.1-2.1c0.6-0.7,0.6-0.7-0.3-1c-1.5-0.6-2-1.3-1.9-2.7
		c0.1-1.2,1.3-2.2,2.3-2.1C460.6,21.5,461.7,22.5,461.7,24.2z"/>
	<path fill="#CB6153" d="M386.7,72.6c-0.1,1.5-1.2,2.7-2.7,2.7c-1.8-0.1-2.9-0.9-3.1-2.8c-0.1-1.4,1.3-2.9,2.7-2.9
		C385.3,69.7,386.7,71.1,386.7,72.6z"/>
	<path fill="#72A790" d="M459,144.9c0,1.4-0.9,3.1-2.8,2.9c-1.8-0.1-2.7-1.3-2.9-2.9c-0.1-1.4,1.4-2.7,2.9-2.7
		C457.8,142.2,459,143.2,459,144.9z"/>
	<path fill="#CE6153" d="M390.1,91.8c2.3,0.1,2.7,1.3,2.8,3.1c0.1,1.3-1.4,2.5-2.8,2.5c-1.5,0-2.9-1.3-2.9-2.9
		C387.3,93,388.5,91.8,390.1,91.8z"/>
	<path fill="#CD6251" d="M459.6,84.9c1-0.1,2-0.3,2.9,0.5c0.8,0.7,1.2,1.6,1.1,2.6c-0.1,1.2-1.2,2.3-2.5,2.5c-1,0.2-2.3-0.5-2.8-1.6
		c-0.5-1.1-0.3-2.1,0.3-3c0.1-0.1,0.1-0.3,0.3-0.5C458.8,84.9,459.2,84.9,459.6,84.9z"/>
	<path fill="#6FA68F" d="M490,132.9c0,1.5-1.3,2.8-2.7,2.8c-1.6-0.1-2.9-1.3-2.9-2.7c0-1.4,1.5-2.9,2.9-2.9
		C488.7,130.1,490,131.5,490,132.9z"/>
	<path fill="#6EA189" d="M454.1,89c-1.3,0.3-2.9-1.5-2.7-2.9c0.1-1.3,1.5-2.6,2.9-2.6c1.5,0,2.6,1.2,2.6,2.8
		C456.8,87.6,455.4,89,454.1,89z"/>
	<path fill="#73A992" d="M455.6,165.9c0.1,1.2-1.2,2.7-2.7,2.7c-1.2,0-2.7-1.5-2.7-2.6c0-1.5,1.4-2.9,2.8-2.9
		C454.4,163.1,455.6,164.4,455.6,165.9z"/>
	<path fill="#5D967F" d="M421.8,19.4c-1.5,0-2.7-1.3-2.7-2.7c0.1-1.8,1.1-2.6,2.9-2.7c1.1,0,2.5,1.3,2.5,2.5
		C424.5,18,423.3,19.4,421.8,19.4z"/>
	<path fill="#69A188" d="M495.8,82.1c0,1.4-1.3,2.7-2.7,2.7c-1.4,0-2.7-1.2-2.7-2.5c0-1.5,1.3-2.9,2.7-2.9
		C494.5,79.2,495.7,80.5,495.8,82.1z"/>
	<path fill="#609B83" d="M393.2,24.9c-1.7,0.1-2.8-1.3-2.8-2.7c0.1-1.5,1.4-2.7,2.8-2.6c1.5,0.1,2.6,1.3,2.5,2.9
		C395.6,23.6,394.7,25.1,393.2,24.9z"/>
	<path fill="#73A992" d="M419.1,136.1c1.7,0.1,2.9,1.1,2.8,2.4c-0.1,1.6-1.3,2.9-2.9,2.9c-1.2,0-2.5-1.4-2.3-2.9
		C416.7,137.2,417.8,136,419.1,136.1z"/>
	<path fill="#74A993" d="M440.5,136.2c1.4,0,2.7,1.2,2.7,2.5c-0.1,1.5-1.2,2.9-2.5,2.9c-1.6-0.1-2.9-1.1-2.8-2.9
		C437.9,137.4,439.1,136.2,440.5,136.2z"/>
	<path fill="#70A78E" d="M423.2,166.5c1.3,0,2.4,1.3,2.4,2.7c0,1.2-1.3,2.7-2.3,2.7c-1.5,0-2.8-1.2-2.8-2.7
		C420.4,167.5,421.5,166.5,423.2,166.5z"/>
	<path fill="#CA6157" d="M474.7,84.2c-1.5,0-2.5-1.3-2.5-2.6c0.1-1.6,1-2.5,2.6-2.6c1.2-0.1,2.8,1.5,2.7,2.6
		C477.3,83.3,476.8,84.1,474.7,84.2z"/>
	<path fill="#609A81" d="M421.9,23.8c0-1.3,1.2-2.5,2.6-2.5c1.5,0.1,2.6,0.9,2.6,2.6c0.1,1.3-0.9,2.6-2.8,2.7
		C423.3,26.6,421.9,25.1,421.9,23.8z"/>
	<path fill="#72A790" d="M350.3,98.3c0-1.4,1.3-2.8,2.5-2.7c1.6,0.1,2.8,1.1,2.7,2.7c-0.1,1.4-1.3,2.6-2.9,2.6
		C351.3,100.8,350.3,99.7,350.3,98.3z"/>
	<path fill="#71A78E" d="M368.3,123.2c0.1,1.8-1.5,2.6-2.8,2.7c-1.3,0.1-2.4-1.2-2.4-2.7c0-1.3,1.5-2.6,2.8-2.5
		C367.1,120.7,368.3,122,368.3,123.2z"/>
	<path fill="#CB6255" d="M402.5,68.6c-1.5,0.1-2.7-1.1-2.8-2.4c0-1.3,1.1-2.6,2.3-2.6c1.6-0.1,2.9,0.9,2.9,2.2
		C405.2,67.6,404.3,68.6,402.5,68.6z"/>
	<path fill="#72A991" d="M503.4,114c0.2,1.5-1.3,2.5-2.5,2.5c-1.7,0.1-2.7-1.5-2.7-2.8c0.1-1.4,1.1-2.4,2.7-2.4
		C502.4,111.3,503.4,112.4,503.4,114z"/>
	<path fill="#70A78F" d="M420.6,166.2c-1.9,0.2-2.7-1.3-2.8-2.4c-0.1-1.6,1.1-2.7,2.9-2.7c1.1,0,2.5,1.4,2.5,2.6
		C423.2,164.8,421.8,166.2,420.6,166.2z"/>
	<path fill="#73A993" d="M502.8,127.6c0.2,1.4-1.1,2.8-2.5,2.7c-1.3-0.1-2.6-1.3-2.6-2.7c0-1.3,1.5-2.7,2.8-2.7
		C501.6,125,502.8,126.3,502.8,127.6z"/>
	<path fill="#70A790" d="M502.6,124.2c-1.7,0-2.7-0.9-2.7-2.5c0-1.4,1.1-2.7,2.3-2.7c1.6,0,2.9,1.1,2.9,2.4
		C505,122.9,504.3,124.2,502.6,124.2z"/>
	<path fill="#CA6253" d="M402.1,52.6c0-1.5,1.3-3,2.6-2.9c1.3,0.1,2.5,1,2.5,2.7c0.1,1.5-1.2,2.7-2.6,2.7
		C403.5,55.2,402.1,53.8,402.1,52.6z"/>
	<path fill="#6DA088" d="M391.1,59.7c-1.7,0-3.1-1.3-3.1-2.8c0-1.1,1.3-2.5,2.3-2.5c1.5,0,3,1.3,2.9,2.5
		C393.2,58.3,392,59.7,391.1,59.7z"/>
	<path fill="#72A38B" d="M459.6,84.9c-0.3,0.1-0.6,0.2-0.8,0.5c-0.5-0.2-1-0.1-1.4-0.5c-0.5-0.7-0.3-1.7,0.4-2.1
		c0.2-0.1,0.5-0.1,0.5-0.5c-0.1-0.3-0.5-0.1-0.7-0.2c-0.2,0-0.4,0-0.6-0.2c0.3-0.1,0.5-0.5,0.8-0.1c0.1,0.1,0.3,0.1,0.4-0.1
		c0.3-0.5,0.5-0.5,0.9-0.2c0.4,0.2,0.4-0.1,0.4-0.4c0-0.5,0.1-0.9,0.7-0.6c0.2,0.1,0.5,0,0.5-0.1c0.1-0.8,1-1.1,1-1.8
		c0-0.2,0.1-0.4,0.3-0.5c0.2-0.1,0.4-0.2,0.3-0.5c-0.1-0.3-0.3-0.5-0.7-0.5c-0.3,0-0.5,0-0.5,0.3c-0.1,0.2-0.1,0.6-0.5,0.5
		c-0.1,0-0.3-0.3-0.4-0.5c-0.1-0.3,0-0.5,0.3-0.7c0.7-0.6,0.7-0.7-0.2-1c0-0.3,0.3-0.2,0.5-0.4c0.1-0.1,0.1-0.3,0-0.5
		c-0.1-0.1-0.2-0.1-0.3-0.1c-0.7,0.7-1.1-0.2-1.6-0.3c-0.3-0.1-0.5-0.4-0.9-0.3c-0.3,0.1-0.3-0.2-0.3-0.3c-0.2-0.5-0.5-0.9-1.1-0.9
		c1.6-0.5,3,0,4.4,0.9c1.3,1,1.9,2.4,1.7,4c-0.3,2-1.4,3.4-3.4,4.1c-0.2,0.1-0.4,0.1-0.6,0.2c-0.3,0.1-0.3,0.3,0,0.5
		c1.2,0.8,1.2,0.9,0.8,2.1C459.5,84.7,459.5,84.9,459.6,84.9z"/>
	<path fill="#70A78F" d="M437.7,165.6c1.5,0.1,2.9,1.3,2.7,2.5c-0.3,1.5-1.1,2.9-2.9,2.7c-1.2-0.1-2.3-1.3-2.3-2.5
		C435.4,166.7,436.5,165.5,437.7,165.6z"/>
	<path fill="#6CA48B" d="M500.9,77c-0.1-1.5,1.1-2.5,2.4-2.5c1.3-0.1,2.7,0.9,2.7,2.2c0.1,1.5-1,2.9-2.4,2.9
		C502.4,79.6,500.7,78.6,500.9,77z"/>
	<path fill="#6FA58D" d="M497.9,101.6c-1.5,0.1-2.8-1.5-2.7-2.4c0.1-1.5,0.8-2.7,2.7-2.7c1.4,0,2.5,1.1,2.5,2.6
		C500.5,100.4,499.2,101.6,497.9,101.6z"/>
	<path fill="#68A187" d="M490.3,67.1c-1.2,0-2.5-1.3-2.5-2.5c0.1-1.4,1.3-2.6,2.7-2.6c1.3,0,2.6,1.3,2.5,2.5
		C493,66.1,492,67.1,490.3,67.1z"/>
	<path fill="#CD6153" d="M428,73.3c-1.5,0.1-2.5-1.3-2.5-2.6c0-1.4,1.1-2.6,2.4-2.5c1.5,0,2.7,1.3,2.7,2.7
		C430.6,72.3,429.4,73.3,428,73.3z"/>
	<path fill="#70A58E" d="M359.3,128c-0.1-1.8,1.2-2.5,2.5-2.5c1.3-0.1,2.7,1.1,2.6,2.3c-0.1,1.4-0.7,2.8-2.5,2.7
		C360.3,130.4,359.3,129.5,359.3,128z"/>
	<path fill="#74A992" d="M362,154.7c0-1,1.3-2.4,2.2-2.4c1.3,0,3.1,1.3,3,2.3c-0.1,1.5-1.1,2.8-2.4,2.9
		C363.3,157.6,362,156.3,362,154.7z"/>
	<path fill="#669F86" d="M411.5,37.6c0.7,0,1.4-0.1,2,0.6c0.3,0.4,1,0.2,1.5,0.1c0.5-0.1,0.3-0.6,0.3-0.9c0-0.1,0-0.1,0-0.3
		c0.1-0.4,0.1-1,0.3-1.1c0.3-0.2,0.4,0.5,0.7,0.7c0.2,0.1,0.3,0.1,0.5,0.1c-0.4,0.6-0.8,1.1-1.4,1.5c-0.1,0.1-0.4,0.1-0.3,0.4
		c0.1,0.2,0.3,0.1,0.4,0.1c0.9,0.1,1.7,0.4,2.1,1.4c0.3,0.7,0.1,1.5-0.5,2.2c-0.5,0.5-1.3,0.8-2,0.5c-0.7-0.3-1.3-0.7-1.3-1.6
		c-0.1-0.9,0.1-1.7,0.9-2.2c0.1-0.1,0.2-0.2,0.1-0.3s-0.2-0.1-0.3-0.1c-0.6,0.3-1.1-0.1-1.6-0.2c-0.9-0.2-0.9-0.2-0.9,0.7
		c0,0.7-0.4,1.1-1.1,1.1c-0.6-0.1-1-0.3-1-1c0-0.7,0.3-1.1,1-1.1C411.3,38.2,411.9,38.3,411.5,37.6z"/>
	<path fill="#CD6152" d="M396.6,96.5c-1.5,0-2.6-1.1-2.6-2.6c0-0.9,1.5-2.4,2.5-2.4c1.6,0.1,2.9,1.3,2.8,2.7
		C399.2,95.5,398.1,96.5,396.6,96.5z"/>
	<path fill="#CC6154" d="M402.3,78c0.1,1.7-1.2,2.3-2.3,2.4c-1.4,0.1-2.9-1-2.8-2.1c0.1-1.7,0.7-2.7,2.5-2.7
		C400.9,75.5,402.5,76.6,402.3,78z"/>
	<path fill="#5C977F" d="M435.2,16.2c0-1.5,0.9-2.3,2.5-2.4c1.2-0.1,2.3,1.1,2.4,2.6c0.1,1.2-1.3,2.4-2.4,2.4
		C436.3,18.8,435.2,17.6,435.2,16.2z"/>
	<path fill="#71A890" d="M397.8,155.4c1.3,0,2.4,1.1,2.4,2.5c0,1.1-1,2.5-2.5,2.5c-1.3,0-2.4-1.2-2.4-2.5
		C395.2,156.6,396.4,155.4,397.8,155.4z"/>
	<path fill="#68A087" d="M490.8,59.1c0,1.3-1.1,2.5-2.3,2.5c-1.5-0.1-2.5-0.9-2.7-2.5c-0.1-1.1,1.3-2.3,2.7-2.3
		C489.7,56.8,490.8,57.9,490.8,59.1z"/>
	<path fill="#6FA48C" d="M374.9,68.2c1.3,0.2,2.2,0.7,2.2,2.2c0,0.2-0.1,0.5,0.1,0.6c0.3,0.1,0.4-0.2,0.5-0.4
		c0.3-0.5,0.9-0.5,1.3-0.4c0.5,0.1,0.7,0.6,0.7,1.1c0,0.5-0.3,0.9-0.7,1.1c-0.3,0.2-1.3-0.2-1.5-0.7c-0.3-0.9-0.6-0.6-1-0.1
		c-0.8,0.9-1.7,1.1-2.5,0.6c-1-0.7-1.5-1.9-1-2.9C373.2,68.7,374.1,68.2,374.9,68.2z"/>
	<path fill="#72A891" d="M391.5,146.5c0,1.5-0.9,2.3-2.6,2.3c-1.3,0-2.3-1-2.3-2.5c0-1,1.4-2.1,2.6-2.1
		C390.5,144.1,391.5,145.1,391.5,146.5z"/>
	<path fill="#679F86" d="M472.6,51.7c0-1.3,1-2.4,2.1-2.4c1.4,0,2.7,1.1,2.7,2.3c0,1.4-1.2,2.5-2.7,2.5
		C473.7,54.1,472.6,52.8,472.6,51.7z"/>
	<path fill="#CC6153" d="M427.3,122.4c1.2,0,2.2,1.1,2.2,2.5c0,1.1-1.3,2.4-2.3,2.4c-0.9,0-2.5-1.5-2.5-2.3
		C424.7,123.7,425.9,122.4,427.3,122.4z"/>
	<path fill="#6DA58D" d="M428.9,168c1.4,0,2.5,1.1,2.5,2.4c0,1.3-1.1,2.3-2.3,2.3c-1.3,0-2.4-1.3-2.4-2.8
		C426.7,168.9,427.7,168,428.9,168z"/>
	<path fill="#76AA96" d="M342.4,121.2c0-1.1,1.2-2.5,2.1-2.5c1,0.1,2.6,1.5,2.6,2.3c0,1.1-1.1,2.5-2.1,2.5
		C343.7,123.5,342.5,122.4,342.4,121.2z"/>
	<path fill="#69A187" d="M359.3,44.5c1.3-0.1,2.1,1.1,2.1,2.5c0,1-1.1,1.9-2.1,1.9c-1.4,0-2.3-0.9-2.3-2.2
		C356.9,45.3,357.8,44.5,359.3,44.5z"/>
	<path fill="#6BA28A" d="M498.1,76.8c1.1,0,2.3,1,2.3,1.9c-0.1,1.3-0.9,2.5-2.5,2.4c-1.2-0.1-2.2-1.1-2.1-2.3
		C495.7,77.7,496.8,76.8,498.1,76.8z"/>
	<path fill="#6BA289" d="M378.1,59.3c0,1.5-0.7,2.2-2,2.3c-1.3,0.1-2.3-1.1-2.2-2.2c0.1-1.4,0.9-2.3,2.2-2.3
		C377.3,57,378.1,57.9,378.1,59.3z"/>
	<path fill="#659F85" d="M377,56.3c-1.2,0-2.1-0.9-2.1-2.2c0-1.2,0.9-2.3,2-2.3c1.4,0,2.4,1,2.4,2.3C379.3,55.4,378.4,56.3,377,56.3
		z"/>
	<path fill="#74A892" d="M393.9,139.6c-1.3-0.1-2.3-1.2-2.2-2.5c0.1-0.9,1.3-1.9,2.2-1.8c1.1,0.1,2.4,1.3,2.3,2.3
		C396,138.8,395.1,139.7,393.9,139.6z"/>
	<path fill="#75A790" d="M379.4,101.8c0-1.3,0.7-2.2,2-2.3c1.1,0,2.3,1,2.2,2.1c-0.1,1.2-0.7,2.4-2.5,2.4
		C380,104,379.4,103.2,379.4,101.8z"/>
	<path fill="#71A790" d="M478.1,144c0,1.2-0.9,2.3-1.9,2.3c-1.1,0-2.4-1.2-2.5-2.2c-0.1-1.3,1.1-2.3,2.5-2.3
		C477.3,141.9,478.1,142.7,478.1,144z"/>
	<path fill="#71A78F" d="M349,101c0.1,1-0.7,2-1.6,2.1c-1.4,0.1-2.5-0.6-2.6-1.6c-0.1-1.5,0.7-2.7,2-2.9C348,98.5,349,99.6,349,101z
		"/>
	<path fill="#72A791" d="M370,100.5c1.4,0,2.4,0.9,2.4,1.9c-0.1,1.3-1,2.5-2.1,2.5c-1.3,0-2.4-1-2.4-2.2
		C367.8,101.4,368.8,100.4,370,100.5z"/>
	<path fill="#76A993" d="M371.2,138.7c0,1.1-0.9,2.3-1.8,2.3c-1.3,0.1-2.6-1-2.6-2.1s1.2-2.4,2.2-2.4
		C370.2,136.6,371.2,137.6,371.2,138.7z"/>
	<path fill="#6A9F88" d="M385.7,51.4c0-1.1,0.9-2,2.2-2c1.1,0,2.2,1,2.2,2.2c0,0.9-1.1,2.1-2,2.1C386.6,53.6,385.7,52.7,385.7,51.4z
		"/>
	<path fill="#72A890" d="M463.1,149.8c-1,0-1.9-1.1-1.9-2.1c0-1,1.2-2.4,2.4-2.3s1.9,0.9,1.9,2.3
		C465.5,148.8,464.3,149.8,463.1,149.8z"/>
	<path fill="#5E9780" d="M443.8,15.1c1.5,0,2.3,0.9,2.3,2.3c0,1-1,2-1.9,2c-1.3,0-2.5-1-2.5-2.1C441.6,16.1,442.6,15,443.8,15.1z"/>
	<path fill="#CC6252" d="M449.7,130.3c0,1.1-1,2.1-2.1,2.1c-1.3,0-2.2-0.9-2.2-2.3c0-1.1,0.9-2,2-2
		C448.9,128.2,449.7,129,449.7,130.3z"/>
	<path fill="#669C85" d="M455.8,48.3c-1.3,0.1-2-0.7-2.1-2.1c0-1.1,0.9-2.3,2-2.3c1.2-0.1,2.2,1,2.3,2.3
		C458,47.1,456.8,48.5,455.8,48.3z"/>
	<path fill="#71A68F" d="M427.5,96.9c0,0.9-1.1,2.1-2.1,2.1c-1.4,0-2.2-0.9-2.3-2.4c0-1,0.9-1.9,2.1-1.9
		C426.6,94.8,427.5,95.7,427.5,96.9z"/>
	<path fill="#669C84" d="M434.8,54c-1.1,0-2.3-1-2.3-2.1s1.1-2.3,2.1-2.3c1.4,0.1,2.3,0.9,2.3,2.2C436.9,52.8,435.8,54.2,434.8,54z"
		/>
	<path fill="#72A58E" d="M462.3,119.5c0,1.3-1.1,2.4-2.1,2.4c-1.4-0.1-2.3-1-2.2-2.3c0.1-1.2,1.1-2.1,2.3-2
		C461.3,117.7,462.3,118.6,462.3,119.5z"/>
	<path fill="#75A690" d="M428.2,109.7c0,1.2-0.9,2-2.3,2c-1,0-2.1-1-2.1-1.9c0-1.2,1.1-2.3,2.2-2.3
		C427.1,107.4,428.2,108.5,428.2,109.7z"/>
	<path fill="#5E9880" d="M434.4,26.7c-1.2,0-2.2-1-2.2-2.1c0-1.2,0.9-2.1,2.1-2.1c1.4,0,2.3,0.8,2.3,2.1
		C436.5,25.8,435.6,26.7,434.4,26.7z"/>
	<path fill="#75AB95" d="M478.5,160.4c-1.4,0-2.3-0.9-2.3-2.1c0-1.1,1.1-2.1,2.2-2.1c1.1,0,2.2,1.1,2.1,2.2
		C480.5,159.5,479.6,160.4,478.5,160.4z"/>
	<path fill="#CC6153" d="M444.4,128.4c0,1-1.1,2.1-2.1,2.1c-1,0-2.1-1.1-2.1-2.2c-0.1-1.1,1.1-2.1,2.1-2.1
		C443.4,126.1,444.4,127.1,444.4,128.4z"/>
	<path fill="#72A891" d="M415,108c1.3,0,2.3,0.8,2.2,1.8c0,1.3-1.1,2.5-2.1,2.4c-1-0.1-2.2-1.1-2.1-2C413,109.1,413.6,107.9,415,108
		z"/>
	<path fill="#CC6254" d="M463.7,84.4c-1.1,0-2.3-0.9-2.2-2c0.1-1.2,0.8-2.2,2.2-2.2c1.1-0.1,2.1,1.1,2.1,2.3
		C465.8,83.5,464.7,84.4,463.7,84.4z"/>
	<path fill="#70A78F" d="M449.7,169.3c0,1-1.2,2.1-2.2,2.1c-0.7,0-2-1.1-2-1.7c0-1.2,1.1-2.7,2.1-2.7
		C448.6,167,449.7,168.2,449.7,169.3z"/>
	<path fill="#CA6257" d="M476.3,66.7c-1.1,0-2.1-0.9-2-2c0.1-1.5,0.7-2,2.2-2.1c1.3-0.1,2,1,2.1,2.3
		C478.7,65.8,477.6,66.7,476.3,66.7z"/>
	<path fill="#70A68E" d="M481.2,98.1c0,1-1.1,2-2.1,2c-1.3,0-2.1-0.8-2.1-2.1c0-1.3,0.8-2.1,1.9-2.1
		C480.1,95.8,481.1,96.9,481.2,98.1z"/>
	<path fill="#CB6254" d="M456.3,121.2c0,1.3-0.8,2.1-2.1,2.1c-1.2,0-2.2-1-2.2-2.1c0-1.1,1.1-2,2.2-2.1
		C455.3,119.1,456.3,120.2,456.3,121.2z"/>
	<path fill="#73A891" d="M474.4,135c0,1.2-0.9,2.2-2,2.2c-1.1,0-2.1-0.9-2.1-2.1c0-1.1,0.8-2.2,1.6-2.3
		C473.5,132.8,474.4,133.7,474.4,135z"/>
	<path fill="#639C83" d="M388,35.6c0-1,1-2,2-2c1.3,0,2.2,0.9,2.2,2.1c0,1.2-1,2.1-2.3,2.1C388.7,37.7,388,36.9,388,35.6z"/>
	<path fill="#70A78F" d="M405.9,119c-1,0-2.1-1.1-2.1-1.9c0-1.1,1.1-2.3,1.9-2.3c1.4,0,2.4,1.1,2.4,2.3C408,118,407,119,405.9,119z"
		/>
	<path fill="#CD6153" d="M466.8,82.6c-0.1-1.5,1.1-2.1,2.3-2.1c0.9,0,1.8,0.9,1.8,1.9c0,1.5-0.9,2.3-2.4,2.3
		C467.6,84.7,466.8,83.7,466.8,82.6z"/>
	<path fill="#5F9981" d="M415.6,18.7c-1.3,0-1.9-0.7-2-2.3c0-0.9,1-1.9,1.9-1.9c1.1,0,2.3,0.8,2.3,2.1
		C417.9,17.7,416.7,18.7,415.6,18.7z"/>
	<path fill="#CD6054" d="M468.4,62.9c0,1.1-1,2-2.1,2c-0.9,0-2-1.2-2.1-2.1c0-0.9,0.8-2.2,2.1-2.2C467.3,60.6,468.4,61.8,468.4,62.9
		z"/>
	<path fill="#609B82" d="M382.8,25.5c0-1.2,0.9-2.1,2.2-2.1c0.9,0,2.1,1.1,2.1,2.1c0,0.9-1.1,2-2,2.1
		C383.8,27.5,382.9,26.7,382.8,25.5z"/>
	<path fill="#73AA93" d="M471.9,156.7c-0.1,1.2-1,2.1-2.2,2c-1.1-0.1-1.9-1-1.9-2.1c0.1-1.3,0.8-2.2,1.8-2.1
		C471,154.7,471.9,155.5,471.9,156.7z"/>
	<path fill="#72A68F" d="M451.5,109.9c-0.2-1.3,0.9-2.1,1.9-2c1.4,0.1,2.2,0.7,2.2,1.9c0,1.3-0.9,2.2-2.1,2.2
		C452.2,111.9,451.5,111.1,451.5,109.9z"/>
	<path fill="#72A992" d="M506,114.5c-0.9,0-2-1.1-1.9-2c0.2-1.4,0.7-2.1,2.2-2.2c0.8,0,2.1,1.2,2,2
		C508.1,113.6,507.6,114.5,506,114.5z"/>
	<path fill="#CC6153" d="M394,62.3c0,1-0.9,2.1-1.8,2.1c-1.3,0-2.3-1-2.3-2.3c0-0.9,0.9-1.9,1.9-1.9C393,60.3,394,60.8,394,62.3z"/>
	<path fill="#70A78F" d="M497.6,111c0,1-1.1,2.1-2.1,2.1c-1.1-0.1-1.9-1.1-1.9-2.2c0-1.1,0.9-2,1.9-2
		C496.8,108.9,497.6,109.7,497.6,111z"/>
	<path fill="#CB6254" d="M446.2,96.8c0.1-0.1,0.1-0.1,0.1-0.2c0.6-0.4,1.1-0.9,2-0.7c1.3,0.2,1.9,1.1,1.7,2.4
		c-0.1,1.1-1.1,1.9-2.2,1.7c-1.1-0.1-1.9-1.1-1.7-2.3C446.2,97.3,446.2,97.1,446.2,96.8z"/>
	<path fill="#71A78F" d="M438.1,154.9c0.1-1.5,1.1-2.2,2.6-2c0.7,0.1,1.5,1.4,1.4,2.2c-0.1,1-1.3,2-2.3,1.9
		C438.8,156.9,437.9,155.9,438.1,154.9z"/>
	<path fill="#CC6254" d="M387.8,88.9c0-1.2,0.7-1.9,1.9-1.9c1.2,0,2,0.9,2,2.2c0,0.9-1,2-1.8,2C388.7,91.1,387.8,90.2,387.8,88.9z"
		/>
	<path fill="#659E84" d="M424.9,44.7c-1.1,0-2-1.1-1.9-2.2c0.1-1,0.9-1.9,1.9-1.9c1.4,0,2.3,0.8,2.1,2.1
		C426.9,43.7,426.3,44.8,424.9,44.7z"/>
	<path fill="#75A993" d="M431.2,135.9c1.1,0,1.9,0.8,1.9,1.9c0,1-1.1,2.2-1.9,2.2c-1.1,0-2.1-0.7-2.2-2.5
		C429,136.6,430,135.9,431.2,135.9z"/>
	<path fill="#CC6156" d="M430,73.9c1.3,0,2.1,0.9,2.1,2.1c0,0.9-0.9,1.9-1.9,1.9c-1.2,0-2.1-0.9-2.1-2
		C428.1,74.8,428.9,73.9,430,73.9z"/>
	<path fill="#CC6155" d="M465.1,92.8c0,1.1-0.9,2-2,2s-2.1-1-2.1-2.1c0-0.9,1-2.1,1.8-2.1C464.1,90.7,465.1,91.7,465.1,92.8z"/>
	<path fill="#74A58E" d="M440.3,112.6c0,1.2-0.8,2.1-2,2.1c-1.1,0-1.9-0.9-1.9-2c0-1.1,1-2.2,2-2.1
		C439.5,110.5,440.5,111.4,440.3,112.6z"/>
	<path fill="#6CA38B" d="M405.5,75.9c1,0,1.9,0.9,1.9,2c0,0.9-1,2-1.9,2.1c-1.1,0-2.1-0.9-2.1-2.1C403.4,76.7,404.3,75.9,405.5,75.9
		z"/>
	<path fill="#74A993" d="M395.4,161.5c0,1.5-0.9,1.9-1.9,1.9c-1.1,0.1-2.1-0.9-2.1-2.1c0-0.9,1-1.9,1.9-1.9
		C394.5,159.4,395.4,160.2,395.4,161.5z"/>
	<path fill="#6AA188" d="M357.8,65.2c0.1,1-0.7,1.8-2.1,1.9c-0.7,0.1-2-1.2-2-2c0-0.9,1.1-2.1,2-2C356.8,63.2,357.8,63.8,357.8,65.2
		z"/>
	<path fill="#74A891" d="M360.2,105.8c1.2,0,2.1,0.9,2.1,2.1c0,1-1,1.8-2.2,1.7c-1.1,0-1.9-0.9-1.9-2.1
		C358.2,106.7,359.2,105.8,360.2,105.8z"/>
	<path fill="#72A790" d="M393,168.3c-1,0.2-1.9-0.9-1.9-1.9c0.1-0.9,1-1.9,1.9-2c1.1,0,2.1,0.9,2.1,2
		C395.2,167.4,394.2,168.3,393,168.3z"/>
	<path fill="#70A68E" d="M495.7,107.7c-0.9,0.2-1.8-0.9-1.9-2c-0.1-0.9,1.2-2,2.2-1.9c0.9,0,1.9,0.9,1.9,1.9
		C497.9,106.9,496.9,107.7,495.7,107.7z"/>
	<path fill="#73A991" d="M386.6,169.1c0,1.1-0.9,1.9-2.1,1.9c-0.9,0-1.9-1-1.9-2.1c0-1,1-1.9,2.1-2
		C385.7,167.1,386.6,168,386.6,169.1z"/>
	<path fill="#CA6158" d="M378.4,77.4c-1.1,0-2-0.9-2-1.9c0-1.2,0.8-2.1,1.9-2.1c0.9,0,2.1,1.1,2.1,2.1
		C380.4,76.3,379.3,77.4,378.4,77.4z"/>
	<path fill="#CD6254" d="M394.2,78.4c0,0.9-1,2.1-1.8,2c-1.4-0.1-2.1-1-2.1-2.1c-0.1-0.9,1.1-1.9,2.1-1.9
		C393.2,76.4,394.2,77.5,394.2,78.4z"/>
	<path fill="#75A892" d="M422.5,103.4c-0.9,0-1.9-0.9-1.9-1.8c0-1.2,0.8-2.1,1.9-2.2c1,0,2,1,2,2
		C424.5,102.4,423.5,103.4,422.5,103.4z"/>
	<path fill="#70A78F" d="M425.8,165.3c0-1.1,0.9-2,1.9-2c0.9,0,1.9,0.9,1.9,1.7c0,1.3-0.7,2.3-1.7,2.3
		C426.9,167.2,425.7,166.4,425.8,165.3z"/>
	<path fill="#6CA189" d="M483.2,65.4c0,1.1-0.8,1.8-1.9,1.8c-0.9,0-1.9-1.1-1.9-1.9c0-1.2,0.9-2.1,2.1-2.1
		C482.4,63.3,483.2,64.3,483.2,65.4z"/>
	<path fill="#6CA38A" d="M373.1,61.1c0.9-0.1,1.7,0.6,1.8,1.6c0.1,1.1-0.7,2.1-1.7,2.2c-0.8,0.1-2.1-0.9-2.1-1.7
		C371,61.9,371.6,61.3,373.1,61.1z"/>
	<path fill="#CE6152" d="M385.7,104.5c1.2,0.1,2.1,0.9,2,2.2c-0.1,0.9-1.1,1.7-2,1.7c-1.1-0.1-1.9-1.1-1.9-2.2
		C383.8,105.3,384.8,104.4,385.7,104.5z"/>
	<path fill="#72A18A" d="M389.3,75.6c-0.9,0-1.8-0.9-1.8-1.9c0-1.2,0.9-2,2.1-2c0.7,0,1.7,1.1,1.7,1.7
		C391.3,74.8,390.5,75.6,389.3,75.6z"/>
	<path fill="#CB6255" d="M401.5,74.6c-1.1,0.1-2-0.7-1.9-1.5c0.1-1.2,0.8-2.1,1.8-2c1.2,0,2,0.6,2.1,1.6
		C403.5,73.9,402.8,74.5,401.5,74.6z"/>
	<path fill="#CA6355" d="M471.5,118.4c1,0,1.9,1,1.9,1.9c0,0.7-1.1,1.6-2,1.6c-1.1,0-1.9-0.7-2-1.7
		C469.4,119.3,470.3,118.4,471.5,118.4z"/>
	<path fill="#70A68E" d="M443,171.3c-1,0-1.8-0.8-1.8-1.9c-0.1-1.3,0.7-1.7,1.9-1.9c0.9-0.1,1.7,0.9,1.7,1.9
		C444.8,170.3,443.9,171.3,443,171.3z"/>
	<path fill="#6AA188" d="M407.6,66c-1.1,0-1.7-0.7-1.7-1.8c0-0.9,1-1.8,1.9-1.8c1,0,1.8,0.9,1.8,1.9C409.6,65.4,408.8,66,407.6,66z"
		/>
	<path fill="#689F87" d="M369.5,47.2c-1,0-2-1-2-2c0-0.7,1.2-1.5,2.1-1.5c0.9,0,1.8,0.9,1.8,1.7C371.4,46.5,370.6,47.2,369.5,47.2z"
		/>
	<path fill="#78A893" d="M383.2,138.8c-1.1,0-1.9-0.6-1.9-1.3c0-1.3,0.9-2.3,2-2.3c0.9,0,1.7,0.9,1.7,1.9
		C385,138.2,384.3,138.8,383.2,138.8z"/>
	<path fill="#74A993" d="M412.6,147.2c-1.3,0-2-0.7-1.9-1.8c0.1-1,0.9-1.8,1.9-1.8c1.1,0,1.8,0.8,1.8,1.9
		C414.3,146.4,413.6,147.2,412.6,147.2z"/>
	<path fill="#CA6356" d="M479.6,69.6c0,0.7-1.1,1.7-1.9,1.7c-0.6,0-1.7-1.1-1.6-1.7c0.1-1,0.9-2,1.7-2
		C478.7,67.6,479.6,68.6,479.6,69.6z"/>
	<path fill="#CA6258" d="M391.6,118.1c1.1,0.1,2,0.8,2,1.7c-0.1,0.9-1,1.7-2,1.7c-0.7,0-1.5-0.9-1.5-1.9
		C390.1,118.9,390.8,118.1,391.6,118.1z"/>
	<path fill="#70A28B" d="M387.4,62.8c-1.1,0-1.8-0.5-1.8-1.7c0-0.9,1-1.8,1.9-1.8c0.7,0,1.6,0.9,1.6,1.5
		C389.1,61.8,388.3,62.8,387.4,62.8z"/>
	<path fill="#77A993" d="M440.4,133.4c0-1.1,0.7-1.7,1.7-1.7c0.9,0,1.6,0.7,1.7,1.9c0,0.9-0.8,1.6-1.7,1.5
		C440.9,135.1,440.4,134.5,440.4,133.4z"/>
	<path fill="#CB6258" d="M440.8,118.7c-1.1,0-1.7-0.7-1.7-1.8c0-0.8,0.7-1.6,1.5-1.6c1.1,0,1.9,0.8,1.9,1.7
		C442.6,118,441.8,118.7,440.8,118.7z"/>
	<path fill="#74A992" d="M498.9,123.1c0,1-0.5,1.5-1.5,1.6c-0.9,0.1-1.8-0.7-1.9-1.6c0-0.9,0.7-1.7,1.6-1.7
		C498.3,121.4,498.9,122.1,498.9,123.1z"/>
	<path fill="#74AA93" d="M506.7,117.2c0,0.9-0.7,1.6-1.7,1.6c-0.9,0-1.5-0.8-1.5-1.7s0.7-1.7,1.5-1.7
		C505.9,115.4,506.8,116.3,506.7,117.2z"/>
	<path fill="#CD6256" d="M388.4,82.1c0.1-0.1,0.3-0.3,0.5-0.5c0.9-0.1,1.7-0.3,2.3,0.7c0.3,0.7,0.2,1.5-0.3,1.9
		c-0.6,0.5-1.4,0.6-2.1,0.1c-0.5-0.3-0.8-1.1-0.5-1.8C388.3,82.5,388.3,82.3,388.4,82.1z"/>
	<path fill="#6CA189" d="M443.5,74.2c0-1.1,0.6-1.6,1.7-1.5c0.9,0,1.5,0.7,1.5,1.7c0,0.9-0.8,1.6-1.7,1.6
		C444.2,75.9,443.5,75.1,443.5,74.2z"/>
	<path fill="#CC6158" d="M433.6,114.5c0.9,0,1.9,0.8,1.9,1.5c0,0.8-0.9,1.7-1.6,1.7c-0.9,0-1.7-0.7-1.7-1.5
		C432.2,115.4,432.9,114.5,433.6,114.5z"/>
	<path fill="#6FA48C" d="M448.6,86.5c0.9,0,1.6,0.7,1.6,1.7c0,0.8-0.8,1.5-1.7,1.5c-0.7,0-1.7-1-1.7-1.8
		C446.9,87.3,447.8,86.5,448.6,86.5z"/>
	<path fill="#6A9E87" d="M467.1,50.5c-1,0-1.8-0.8-1.7-1.7c0.1-0.8,0.9-1.5,1.9-1.5c0.7,0.1,1.5,0.9,1.5,1.7
		C468.8,49.7,467.9,50.5,467.1,50.5z"/>
	<path fill="#CC6352" d="M459.1,51.6c-1,0-1.6-0.7-1.6-1.9c0-0.7,0.7-1.3,1.5-1.3c0.9,0,1.8,0.9,1.8,1.7
		C460.8,50.9,460,51.6,459.1,51.6z"/>
	<path fill="#70A58D" d="M473.4,95.5c0-0.9,0.6-1.6,1.5-1.6c0.9,0,1.7,0.7,1.7,1.7c0,0.9-0.7,1.6-1.6,1.6
		C473.9,97.1,473.4,96.6,473.4,95.5z"/>
	<path fill="#73A891" d="M444.6,155.9c-0.9,0-1.7-0.7-1.7-1.5c0-0.6,1.1-1.7,1.7-1.7c0.7,0,1.7,0.9,1.7,1.5
		C446.3,155,445.4,155.9,444.6,155.9z"/>
	<path fill="#70A58E" d="M487.9,91.2c0,0.9-0.9,1.8-1.8,1.8c-0.6,0-1.3-0.9-1.3-1.7c0-1,0.5-1.7,1.6-1.7
		C487.3,89.6,487.9,90.2,487.9,91.2z"/>
	<path fill="#73A891" d="M459.3,164.8c0,0.9-0.6,1.5-1.5,1.5c-0.9,0-1.7-0.7-1.7-1.5c0-1,0.7-1.9,1.5-1.8
		C458.4,163,459.3,163.9,459.3,164.8z"/>
	<path fill="#72A891" d="M494.8,129.4c-0.7,0-1.6-0.9-1.6-1.6c0-0.8,0.9-1.6,1.7-1.6s1.6,0.9,1.6,1.6
		C496.5,128.7,495.7,129.5,494.8,129.4z"/>
	<path fill="#CC6255" d="M389.9,125.4c-0.9,0-1.5-0.7-1.5-1.6c0-0.8,0.8-1.7,1.5-1.7c0.9,0,1.6,0.9,1.5,1.8
		C391.5,124.8,390.9,125.4,389.9,125.4z"/>
	<path fill="#72A790" d="M484.9,129.9c0,0.9-0.7,1.8-1.5,1.8s-1.6-0.9-1.6-1.9c0-0.7,0.7-1.5,1.5-1.5
		C483.9,128.3,484.8,129.2,484.9,129.9z"/>
	<path fill="#6EA28A" d="M457.1,68c0.7,0,1.3,0.7,1.3,1.6c0,0.7-0.9,1.6-1.7,1.5c-0.8,0-1.5-0.8-1.5-1.5C455.2,68.7,456,68,457.1,68
		z"/>
	<path fill="#72A890" d="M365.4,104.2c-1-0.1-1.5-0.6-1.5-1.6c0.1-1,0.6-1.6,1.4-1.6c1,0.1,1.7,0.8,1.7,1.7
		C367.1,103.4,366.2,104.2,365.4,104.2z"/>
	<path fill="#70A18A" d="M431.2,56.6c0,0.9-0.8,1.6-1.6,1.5c-0.7,0-1.7-1-1.6-1.8c0-0.6,1.1-1.5,1.7-1.5
		C430.6,55,431.2,55.8,431.2,56.6z"/>
	<path fill="#70A78F" d="M486.7,123.7c-1,0-1.6-0.5-1.7-1.5c0-0.7,0.7-1.5,1.3-1.5c1.1,0,1.9,0.6,1.9,1.5
		C488.2,123,487.5,123.7,486.7,123.7z"/>
	<path fill="#639C84" d="M446.4,26.1c0,0.9-0.8,1.7-1.6,1.8c-0.7,0.1-1.6-0.9-1.6-1.9c0-0.7,0.8-1.3,1.7-1.3
		C445.5,24.7,446.4,25.5,446.4,26.1z"/>
	<path fill="#6CA38A" d="M420,59.5c0,0.7-0.7,1.4-1.5,1.4c-0.9,0-1.6-0.7-1.6-1.6c0-0.9,0.6-1.4,1.6-1.4
		C419.6,57.9,420,58.5,420,59.5z"/>
	<path fill="#73A993" d="M365.5,142.8c-0.7,0-1.5-0.8-1.5-1.5c0-0.9,0.6-1.5,1.5-1.5c0.9,0,1.7,0.7,1.7,1.5
		C367.1,142.1,366.3,142.8,365.5,142.8z"/>
	<path fill="#73A891" d="M458.7,150.6c-0.7,0.2-1.5-0.5-1.5-1.3c-0.1-0.9,0.7-1.7,1.6-1.7s1.6,0.7,1.6,1.5
		C460.4,150.2,459.8,150.6,458.7,150.6z"/>
	<path fill="#73A992" d="M470,167.8c-0.8,0-1.5-0.6-1.5-1.3c0-0.8,0.9-1.7,1.7-1.7c0.7,0,1.5,0.8,1.5,1.6
		C471.7,167.1,470.8,167.8,470,167.8z"/>
	<path fill="#CA6358" d="M434.8,55.1c1,0,1.7,0.7,1.7,1.7c0,0.8-0.7,1.5-1.5,1.5c-0.7,0-1.5-0.8-1.5-1.5
		C433.4,55.8,434,55.1,434.8,55.1z"/>
	<path fill="#C9635A" d="M439.7,82.7c0.1-0.9,0.7-1.6,1.5-1.5c0.7,0.1,1.5,1,1.5,1.7c-0.1,0.7-0.9,1.5-1.6,1.5
		C440.4,84.3,439.6,83.3,439.7,82.7z"/>
	<path fill="#6DA289" d="M350.6,59.3c-0.8,0-1.5-0.7-1.5-1.6c0-0.7,0.9-1.4,1.7-1.4c0.6,0,1.4,0.9,1.4,1.4
		C352.3,58.7,351.6,59.3,350.6,59.3z"/>
	<path fill="#74A993" d="M463.9,169.1c0-1.1,0.5-1.5,1.4-1.5c0.8,0,1.6,0.8,1.6,1.5c0,0.8-0.8,1.5-1.7,1.5
		C464.4,170.7,463.9,170,463.9,169.1z"/>
	<path fill="#6CA48A" d="M428.4,180.6c0.1-0.9,0.5-1.3,1.5-1.3c0.9,0,1.5,0.7,1.5,1.4c0,0.9-0.9,1.7-1.7,1.7
		C429.1,182.3,428.3,181.3,428.4,180.6z"/>
	<path fill="#70A68E" d="M432.8,168.7c-0.9,0-1.6-0.7-1.5-1.6c0-0.6,0.7-1.3,1.3-1.3c1,0,1.7,0.7,1.7,1.5
		C434.2,168.3,433.8,168.7,432.8,168.7z"/>
	<path fill="#CA6458" d="M379.5,80c0,0.7-0.7,1.4-1.5,1.4c-0.6,0-1.6-0.9-1.7-1.5c0-0.5,0.9-1.5,1.4-1.5
		C378.7,78.3,379.5,79,379.5,80z"/>
	<path fill="#73A992" d="M498.8,120.1c-0.7,0-1.4-0.8-1.4-1.5c0-0.9,0.5-1.5,1.4-1.5s1.7,0.8,1.6,1.7
		C500.4,119.4,499.6,120.1,498.8,120.1z"/>
	<path fill="#6FA088" d="M459.9,61.8c0-0.9,0.5-1.5,1.4-1.5c0.8,0,1.5,0.6,1.5,1.5c0,0.9-0.6,1.5-1.4,1.5
		C460.5,63.4,459.9,62.7,459.9,61.8z"/>
	<path fill="#76A690" d="M430.8,130c-0.9,0-1.5-0.5-1.5-1.5c0-0.9,0.6-1.5,1.5-1.5c0.9,0,1.5,0.6,1.4,1.5
		C432.2,129.4,431.7,130,430.8,130z"/>
	<path fill="#74A993" d="M482.1,144c0,0.8-0.7,1.5-1.5,1.5c-0.7,0-1.5-0.8-1.5-1.5c0-0.7,0.9-1.7,1.6-1.7
		C481.4,142.4,482.1,143.3,482.1,144z"/>
	<path fill="#6DA38B" d="M361.2,61.1c0,0.7-0.9,1.5-1.5,1.5c-0.8-0.1-1.5-0.7-1.5-1.5c0-0.8,0.9-1.6,1.7-1.5
		C360.4,59.7,361.2,60.5,361.2,61.1z"/>
	<path fill="#77A892" d="M456.6,136.2c0,0.7-0.7,1.3-1.4,1.3c-0.8,0-1.5-0.7-1.5-1.5c0-0.7,0.7-1.4,1.5-1.3
		C455.9,134.6,456.6,135.3,456.6,136.2z"/>
	<path fill="#74AA94" d="M370.3,152.4c0,0.8-0.8,1.7-1.5,1.7c-0.7,0-1.2-0.5-1.2-1.5c0-1,0.5-1.6,1.2-1.5
		C369.5,151,370.3,151.7,370.3,152.4z"/>
	<path fill="#659D84" d="M413.8,22.9c-0.9,0-1.5-0.6-1.5-1.4c0-0.9,0.6-1.5,1.5-1.5c0.7,0,1.4,0.7,1.4,1.4
		C415.1,22.2,414.5,22.9,413.8,22.9z"/>
	<path fill="#669D85" d="M388.5,24.9c-0.7,0-1.5-0.6-1.5-1.3c0-0.7,0.8-1.6,1.4-1.6c0.7,0,1.5,0.9,1.5,1.5
		C390,24.3,389.3,24.9,388.5,24.9z"/>
	<path fill="#659D85" d="M386.5,35.1c-0.9,0-1.6-0.8-1.6-1.7c0-0.6,0.7-1.1,1.5-1.1c0.6,0,1.5,0.9,1.4,1.5
		C387.8,34.5,387.3,35.1,386.5,35.1z"/>
	<path fill="#CB6257" d="M393.9,114.6c0.7,0,1.5,0.9,1.5,1.5c0,0.7-0.8,1.4-1.6,1.3c-0.8-0.1-1.4-0.7-1.3-1.5
		C392.5,115.2,393.2,114.5,393.9,114.6z"/>
	<path fill="#CA6258" d="M438.1,58.3c1,0,1.5,0.5,1.5,1.4c0,0.5-0.8,1.4-1.3,1.5c-0.8,0-1.6-0.7-1.6-1.5
		C436.7,58.9,437.3,58.3,438.1,58.3z"/>
	<path fill="#75AB94" d="M505.6,98.5c0-0.7,0.7-1.1,1.5-1.1c0.7,0.1,1.5,0.7,1.5,1.3c0,0.8-0.7,1.5-1.6,1.5
		C506.2,100.2,505.6,99.3,505.6,98.5z"/>
	<path fill="#70A088" d="M463.3,73.7c-0.8,0-1.4-0.6-1.4-1.4s0.6-1.5,1.3-1.5c0.7,0,1.6,0.8,1.6,1.4C464.8,73,464.1,73.7,463.3,73.7
		z"/>
	<path fill="#69A088" d="M369,37.1c0,0.7-0.7,1.3-1.5,1.3c-0.5,0-1.3-0.8-1.3-1.3c0-0.7,0.7-1.6,1.3-1.6
		C368.3,35.5,369,36.2,369,37.1z"/>
	<path fill="#679F86" d="M389.5,38.7c0.9,0,1.5,0.6,1.6,1.3c0,0.7-0.6,1.3-1.3,1.3c-0.9,0-1.5-0.5-1.5-1.2
		C388.3,39.4,388.8,38.7,389.5,38.7z"/>
	<path fill="#679F86" d="M419.1,42.1c0-0.7,0.7-1.4,1.3-1.4c0.8,0,1.5,0.7,1.5,1.4c-0.1,0.7-0.7,1.5-1.4,1.5
		C419.8,43.6,419.1,42.8,419.1,42.1z"/>
	<path fill="#CA6457" d="M425.7,74.9c0,0.7-0.6,1.3-1.3,1.3c-0.7,0-1.5-0.8-1.5-1.5c0.1-0.8,0.6-1.3,1.4-1.3
		C425.1,73.5,425.7,74.1,425.7,74.9z"/>
	<path fill="#75AB94" d="M475.5,157c0,0.8-0.5,1.4-1.2,1.4c-0.7,0-1.5-0.8-1.5-1.5c0-0.7,0.7-1.3,1.5-1.3
		C475.1,155.7,475.5,156.3,475.5,157z"/>
	<path fill="#79A994" d="M452.5,116.4c0,0.6-0.7,1.3-1.3,1.3c-0.7,0-1.3-0.7-1.3-1.5c0-0.7,0.6-1.4,1.3-1.4
		C451.8,114.9,452.5,115.6,452.5,116.4z"/>
	<path fill="#CD6151" d="M470.4,55.4c-0.4-0.2-0.9-0.5-0.9-0.9c-0.1-0.9,0.7-1.7,1.4-1.7c0.6,0,1.5,0.7,1.5,1.3
		C472.3,54.8,471.6,55.4,470.4,55.4z"/>
	<path fill="#74A992" d="M417.8,92.8c0,0.7-0.5,1.3-1.2,1.3c-0.9,0-1.4-0.5-1.4-1.4c0-0.7,0.5-1.3,1.1-1.3
		C417.2,91.3,417.8,91.9,417.8,92.8z"/>
	<path fill="#6CA28A" d="M410.5,79.4c0,0.9-0.6,1.5-1.5,1.5c-0.6,0-1.2-0.8-1.3-1.5c0-0.6,0.5-1.1,1.2-1.1
		C409.8,78.2,410.5,78.8,410.5,79.4z"/>
	<path fill="#6EA38B" d="M490.1,69.2c0-0.7,0.5-1.3,1.3-1.3s1.3,0.5,1.3,1.3c0,0.8-0.6,1.4-1.4,1.3
		C490.4,70.6,490.1,70.2,490.1,69.2z"/>
	<path fill="#79AB97" d="M385,142.9c0,0.8-0.5,1.3-1.2,1.3c-0.9,0-1.3-0.5-1.3-1.5c0-0.7,0.5-1.3,1.2-1.3
		C384.5,141.5,385,142,385,142.9z"/>
	<path fill="#75AA93" d="M375.9,115.4c0,0.7-0.6,1.3-1.3,1.3c-0.7,0-1.3-0.7-1.3-1.3c0-0.6,0.7-1.3,1.3-1.3
		C375.4,114,376,114.6,375.9,115.4z"/>
	<path fill="#76AA94" d="M506.4,90.2c0-0.7,0.6-1.3,1.3-1.3c0.5,0,1.3,0.8,1.3,1.3c-0.1,0.8-0.7,1.5-1.4,1.4
		C507,91.6,506.4,90.8,506.4,90.2z"/>
	<path fill="#6FA68D" d="M502.6,65.4c0,0.5-0.8,1.2-1.5,1.2c-0.5,0-1.2-0.7-1.2-1.2c0-0.7,0.7-1.3,1.3-1.3
		C502.1,64,502.7,64.6,502.6,65.4z"/>
	<path fill="#77AB94" d="M405.3,155c-0.7,0-1.1-0.5-1.1-1.3c0-0.7,0.5-1.3,1.1-1.3c0.7,0,1.5,0.5,1.4,0.9
		C406.6,154.5,406.2,155.1,405.3,155z"/>
	<path fill="#77AA95" d="M462.4,143.4c0,0.5-0.6,1.1-1.2,1.1c-0.7,0-1.3-0.7-1.3-1.3c0-0.7,0.7-1.5,1.3-1.4
		C461.9,141.8,462.5,142.5,462.4,143.4z"/>
	<path fill="#CB6658" d="M407.3,58c0,0.7-0.6,1.3-1.3,1.3s-1.3-0.7-1.3-1.4c0-0.7,0.5-1.3,1.2-1.3C406.6,56.5,407.2,57.2,407.3,58z"
		/>
	<path fill="#C96358" d="M381.5,79.4c-0.9,0-1.4-0.5-1.4-1.2c0-0.9,0.5-1.3,1.5-1.3c0.6,0,1.1,0.5,1.1,1.1
		C382.7,78.9,382.2,79.4,381.5,79.4z"/>
	<path fill="#CC6359" d="M473.4,77.2c0,0.7-0.5,1.2-1.3,1.1c-0.7,0-1.3-0.6-1.3-1.3s0.7-1.3,1.4-1.2C472.9,76,473.5,76.5,473.4,77.2
		z"/>
	<path fill="#6CA188" d="M404.3,42.4c0,0.8-0.5,1.5-1.1,1.5c-0.7,0-1.4-0.4-1.4-0.9c0-0.7,0.9-1.9,1.3-1.8
		C403.7,41.2,404.3,41.8,404.3,42.4z"/>
	<path fill="#77AB95" d="M454.4,140c0-0.9,0.5-1.5,1.1-1.5c0.6,0,1.3,0.8,1.3,1.5c0,0.5-0.7,1.2-1.4,1.2
		C454.9,141.2,454.4,140.6,454.4,140z"/>
	<path fill="#75AA93" d="M431.8,148.5c0,0.7-0.6,1.3-1.3,1.2c-0.6-0.1-1.2-0.8-1.2-1.5c0-0.6,0.7-1.2,1.2-1.1
		C431.2,147.1,431.8,147.8,431.8,148.5z"/>
	<path fill="#6FA48C" d="M350.8,76.2c0,0.6-0.7,1.3-1.3,1.3c-0.7,0-1.2-0.7-1.2-1.4c0-0.6,0.6-1.1,1.2-1.1
		C350,75,350.8,75.6,350.8,76.2z"/>
	<path fill="#CA6759" d="M472.6,117.1c0-0.7,0.5-1.1,1.1-1.1c0.6,0,1.4,0.7,1.5,1.3c0,0.5-0.9,1.3-1.3,1.3
		C473.2,118.6,472.6,117.9,472.6,117.1z"/>
	<path fill="#78AC96" d="M349.1,138.9c0-0.9,0.7-1.4,1.6-1.3c0.7,0.1,0.9,0.6,0.9,1.1c0.1,0.7-0.6,1.4-1.3,1.4
		C349.7,140,349.1,139.4,349.1,138.9z"/>
	<path fill="#6DA38B" d="M493.8,60.2c0,0.7-0.5,1.2-1,1.2c-0.7,0-1.5-0.8-1.5-1.3c0-0.5,0.9-1.2,1.4-1.2
		C493.4,58.9,493.8,59.5,493.8,60.2z"/>
	<path fill="#79AC97" d="M347.4,133.1c-0.7,0-1.3-0.5-1.3-1.3c0-0.5,0.7-1.2,1.2-1.1c0.5,0,1.4,0.9,1.4,1.3
		C348.8,132.4,348,133.1,347.4,133.1z"/>
	<path fill="#74A992" d="M493.5,125.5c-0.7-0.1-1.3-0.9-1.3-1.5c0.1-0.5,0.9-1.1,1.3-1.1c0.6,0.1,1.2,0.8,1.2,1.3
		C494.7,125,494,125.6,493.5,125.5z"/>
	<path fill="#75A992" d="M362.1,122.4c0,0.7-0.1,1.1-0.8,1.1c-1.1,0-1.8-0.5-1.8-1.1c0-0.5,0.8-1.3,1.4-1.3
		C361.4,121.1,362.1,121.8,362.1,122.4z"/>
	<path fill="#75AA94" d="M410.2,158.8c0,0.7-0.6,1.2-1.3,1.2c-0.7-0.1-1.4-0.7-1.4-1.2c0-0.6,0.7-1.2,1.3-1.1
		C409.6,157.7,410.3,158.1,410.2,158.8z"/>
	<path fill="#639B83" d="M436.1,43.2c0.3,0.1,0.3,0.5,0.5,0.7c0.3,0.3,0.3,0.9,1,0.6c0.3-0.1,0.3,0.2,0.4,0.4c0.1,0.3,0,0.4-0.2,0.5
		c-0.2,0.2-0.5,0.3-0.5,0.7c0.1,0.3-0.4,0.5-0.6,0.3c-0.3-0.3-0.9-0.5-0.7-0.9c0.1-0.9-0.5-1.3-1-1.7c-0.2-0.2-0.4-0.3-0.1-0.6
		c0.3-0.3,0.3-0.1,0.5,0.2c0.1,0.3,0.3,0.3,0.4-0.1C436,43.3,436,43.2,436.1,43.2z"/>
	<path fill="#CA6555" d="M452.9,48.5c0.7,0,1.3,0.5,1.3,1.1s-0.6,1.2-1.3,1.2c-0.7,0-1.1-0.5-1.1-1.3
		C451.6,49,452.1,48.5,452.9,48.5z"/>
	<path fill="#6CA38A" d="M371.7,56c0-0.9,0.5-1.3,1.4-1.3c0.6,0,1.1,0.6,1.1,1.3c0,0.5-0.7,1.2-1.2,1.2
		C372.4,57.1,371.7,56.4,371.7,56z"/>
	<path fill="#79AA95" d="M409.9,135.5c0,0.7-0.4,1.1-1,1.1c-0.7,0-1.3-0.5-1.4-1.1c0-0.7,0.6-1.4,1.2-1.4
		C409.4,134.2,409.9,134.7,409.9,135.5z"/>
	<path fill="#74A992" d="M351.3,93.7c0-0.9,0.3-1.3,1.1-1.3c0.6,0,1.3,0.7,1.3,1.2c0,0.6-0.7,1.3-1.2,1.3
		C351.7,95.1,351.3,94.5,351.3,93.7z"/>
	<path fill="#73A891" d="M431.6,155.4c0,0.8-0.3,1.1-1.1,1.1c-0.7,0-1.3-0.5-1.3-1c0-0.5,0.9-1.4,1.3-1.4
		C431,154.1,431.6,154.7,431.6,155.4z"/>
	<path fill="#6DA38A" d="M410.2,60.7c0,0.8-0.5,1.4-1.1,1.4c-0.7,0-1.1-0.5-1.1-1.2c0-0.7,0.4-1.2,1.1-1.2
		C409.8,59.7,410.2,60.1,410.2,60.7z"/>
	<path fill="#CD6357" d="M381.3,128.5c-0.7,0-1.2-0.5-1.1-1.1c0-0.6,0.5-1.1,1.2-1.1c0.6,0,1.3,0.5,1.3,1.1
		C382.6,128,382,128.5,381.3,128.5z"/>
	<path fill="#78AA93" d="M466,107.8c0,0.5-0.7,1.3-1.1,1.3c-0.6,0-1.2-0.7-1.3-1.3c0-0.5,0.5-1,1-1.1
		C465.1,106.6,465.9,107.3,466,107.8z"/>
	<path fill="#CB645B" d="M426.6,85c-0.1-0.7,0.3-1,0.9-1.1c0.5-0.1,1.3,0.7,1.3,1.3c0,0.5-0.6,1.1-1.2,1
		C426.9,86.2,426.5,85.8,426.6,85z"/>
	<path fill="#77AA94" d="M384.6,160.4c-0.7,0-1.1-0.4-1.1-1.1c0-0.6,0.5-1.1,1.1-1.1c0.7,0,1.3,0.6,1.3,1.2
		C385.9,159.9,385.2,160.4,384.6,160.4z"/>
	<path fill="#75A992" d="M471.9,131.5c0,0.7-0.4,1.1-0.9,1.1c-0.6,0-1.4-0.7-1.3-1.3c0.1-0.5,0.3-1,1.1-0.9
		C471.4,130.3,471.9,130.7,471.9,131.5z"/>
	<path fill="#74A790" d="M400.9,93.9c-0.6,0-1.3-0.6-1.2-1.2c0.1-0.5,0.4-0.9,0.9-1c0.7-0.1,1.5,0.6,1.5,1.2
		C402,93.3,401.4,93.9,400.9,93.9z"/>
	<path fill="#75AA94" d="M405.9,101.6c-0.5,0-1.1-0.5-1.1-1.1s0.6-1.1,1.1-1.1c0.5,0,1.3,0.7,1.3,1.1
		C407.2,101,406.5,101.6,405.9,101.6z"/>
	<path fill="#77AC96" d="M472.5,153.4c0.1-0.6,0.9-1.2,1.5-1.1c0.6,0.1,0.7,0.7,0.7,1.3c0,0.5-0.7,1.1-1.2,1.1
		C472.9,154.7,472.4,154,472.5,153.4z"/>
	<path fill="#75A891" d="M475.8,121.6c-0.5-0.1-1-0.3-1.1-0.9c-0.1-0.7,0.5-1.5,1.1-1.5c0.5,0,1,0.6,1,1.2
		C476.9,121.1,476.4,121.6,475.8,121.6z"/>
	<path fill="#7AAC95" d="M435.9,139.4c-0.6,0-1.1-0.5-1.1-1.2c-0.1-0.7,0.4-0.9,1.2-1.1c0.7-0.1,0.9,0.5,1,1
		C437.1,138.8,436.6,139.4,435.9,139.4z"/>
	<path fill="#74A792" d="M396.8,111.6c-0.7,0-1.3-0.5-1.3-1.1c0.1-0.5,0.7-1.1,1.2-1.1c0.5,0,1.2,0.7,1.2,1.2
		C397.9,111.1,397.4,111.6,396.8,111.6z"/>
	<path fill="#C96556" d="M460.7,131.5c0-0.7,0.5-1.2,1.1-1.3c0.6,0,1.1,0.5,1.1,1.1c0,0.7-0.5,1.1-1.2,1.1
		C461,132.5,460.6,132.1,460.7,131.5z"/>
	<path fill="#75AA91" d="M411.4,171.6c0.6,0,1.2,0.5,1.2,1.1c0,0.6-0.3,1.1-0.9,1.1c-0.7,0.1-1.2-0.5-1.2-1.1
		C410.5,172,410.8,171.6,411.4,171.6z"/>
	<path fill="#79AB95" d="M453.1,159.9c0,0.5-0.5,1.1-1.1,1.1c-0.6,0-1.2-0.7-1.1-1.4c0.1-0.5,0.4-0.9,0.9-0.9
		C452.5,158.6,453.1,159.3,453.1,159.9z"/>
	<path fill="#76A68E" d="M434.7,88.6c0.6,0,1.1,0.5,1.1,1.1c0,0.6-0.5,1.1-1.2,1.1c-0.5,0-1-0.6-0.9-1.3
		C433.6,89,434.1,88.6,434.7,88.6z"/>
	<path fill="#73A790" d="M504.3,71.5c0.5,0,1.2,0.7,1.3,1.1c0,0.4-0.7,1.1-1.1,1.1c-0.6,0-1.2-0.6-1.2-1.2
		C503.2,72,503.7,71.5,504.3,71.5z"/>
	<path fill="#74A58E" d="M472.2,89.6c0.7,0,1.2,0.5,1.2,1.1c0,0.4-0.7,1.1-1.1,1.1c-0.6,0-1-0.6-1-1.3
		C471.2,89.7,471.8,89.6,472.2,89.6z"/>
	<path fill="#77AB96" d="M372.2,107.1c-0.6,0-1.1-0.5-1.1-1.1c0-0.6,0.4-1.1,0.9-1.1c0.6,0,1.1,0.5,1.1,1.1
		C373.2,106.6,372.7,107.1,372.2,107.1z"/>
	<path fill="#76AB94" d="M403.9,119.9c0,0.7-0.4,1.2-1.1,1.1c-0.5-0.1-1.1-0.3-1-1c0-0.7,0.4-1.2,0.9-1.2
		C403.5,118.9,403.9,119.3,403.9,119.9z"/>
	<path fill="#76AA95" d="M478.2,115.1c0-0.7,0.3-0.9,0.9-0.9s1.1,0.3,1.1,0.9c0.1,0.6-0.5,1.2-1.1,1.2
		C478.6,116.3,478.2,115.9,478.2,115.1z"/>
	<path fill="#6B9F88" d="M433.5,49.1c-0.5,0-1.1-0.5-1.1-1.1c0-0.5,0.6-1.1,1.2-1.1c0.4,0,1.1,0.7,1.1,1.1
		C434.6,48.5,434,49.1,433.5,49.1z"/>
	<path fill="#74A991" d="M491,97.6c-0.5,0-1.1-0.7-1.1-1.1c0-0.5,0.7-0.9,1.2-0.9c0.5,0,1.1,0.6,1.1,1.1
		C492.1,97.1,491.5,97.6,491,97.6z"/>
	<path fill="#72A790" d="M486.4,102.4c0.1-0.5,0.2-0.9,0.9-0.9c0.7,0.1,1.2,0.5,1.1,1.1c0,0.5-0.7,1.1-1.2,1
		C486.7,103.7,486.4,103.3,486.4,102.4z"/>
	<path fill="#7AAB95" d="M416.1,136.2c0,0.5-0.6,1.1-1.2,1.1c-0.7,0-0.8-0.6-0.9-1.1c-0.1-0.4,0.6-1.1,1.1-1.1
		C415.5,135.1,416.1,135.7,416.1,136.2z"/>
	<path fill="#CC6358" d="M387.6,119.2c0.6,0,1.3,0.5,1.2,1.1c-0.1,0.7-0.6,0.9-1.1,0.9c-0.5,0.1-1.3-0.5-1.3-0.9
		C386.4,119.8,387.1,119.2,387.6,119.2z"/>
	<path fill="#77AA96" d="M473.5,106.3c0-0.4,0.3-0.8,1-0.8c0.6,0.1,1.1,0.3,1.2,0.9c0.1,0.5-0.5,1.1-1.1,1.1
		C474.1,107.6,473.5,107.1,473.5,106.3z"/>
	<path fill="#76AA94" d="M485.3,117.6c0.5,0,1.1,0.5,1.1,1.1c0,0.5-0.6,1.2-1,1.1c-0.3,0-1.1-0.9-1.1-1.2
		C484.2,118.1,484.7,117.6,485.3,117.6z"/>
	<path fill="#C9645D" d="M452.1,100.6c0,0.8-0.5,1.2-1.3,1.1c-0.6-0.1-0.7-0.6-0.7-1.1c0-0.7,0.5-0.9,1.1-0.9
		C451.9,99.7,452.1,100.2,452.1,100.6z"/>
	<path fill="#71A38B" d="M450.2,56.1c0.5,0.1,0.9,0.5,1,1c0.1,0.5-0.5,1.2-1.1,1.1c-0.6-0.1-1-0.4-1.1-1
		C449.1,56.7,449.6,56.2,450.2,56.1z"/>
	<path fill="#76AA93" d="M375.9,156.8c0.6-0.1,1,0.2,1.1,0.9c0.1,0.4-0.7,0.9-1.2,0.9c-0.7,0-1.2-0.3-1.1-1
		C374.6,157,375,156.8,375.9,156.8z"/>
	<path fill="#6FA28B" d="M471.3,50.4c-0.1,0.5-0.3,1-0.9,1c-0.7,0-1.3-0.5-1.3-1.1c0-0.7,0.5-0.9,1.1-0.9
		C470.9,49.3,471.2,49.7,471.3,50.4z"/>
	<path fill="#79AB96" d="M473,148.5c-0.5,0-1.1-0.6-1.1-1c0.1-0.5,0.3-1,0.9-1c0.8,0,1.2,0.3,1.2,1.1
		C474,148.1,473.6,148.5,473,148.5z"/>
	<path fill="#CB6557" d="M400.7,52.1c0,0.7-0.3,1.1-0.9,1.1c-0.6,0-1.1-0.5-1.1-1.1s0.5-1.1,1.1-1C400.5,51.1,400.7,51.5,400.7,52.1
		z"/>
	<path fill="#76AA93" d="M352.5,125.8c0.1,0.7-0.3,0.8-0.9,0.7c-0.5,0-1.2-0.6-1.2-1.1c0-0.4,0.8-1.1,1.1-1.1
		C352,124.5,352.5,125.2,352.5,125.8z"/>
	<path fill="#73A690" d="M497.1,82.8c0.6,0,1.1,0.5,1.1,1c-0.1,0.6-0.4,0.9-1.1,0.9c-0.6-0.1-1-0.5-0.9-1.1
		C496.2,83.1,496.6,82.7,497.1,82.8z"/>
	<path fill="#C9655A" d="M459.1,57.7c0,0.7-0.5,1.1-1.1,1.1c-0.7,0-0.9-0.4-0.9-0.9c-0.1-0.7,0.3-1,1.1-1
		C458.8,56.9,459.1,57.1,459.1,57.7z"/>
	<path fill="#CA6B5F" d="M404.9,62.7c-0.5,0-1-0.5-1-1.1c0-0.5,0.5-1,1.1-1c0.6,0,0.9,0.5,0.9,1C406,62.1,405.4,62.7,404.9,62.7z"/>
	<path fill="#CA655D" d="M392.7,112.2c0-0.7,0.4-1.3,0.9-1.2c0.5,0.1,1.1,0.3,1,0.9c0,0.5-0.6,1.1-1.1,1
		C393.2,112.9,392.8,112.6,392.7,112.2z"/>
	<path fill="#71A68E" d="M416.4,74.1c-0.1,0.5-0.3,0.8-1,0.8c-0.6-0.1-1-0.3-0.9-1c0.1-0.6,0.4-0.9,0.9-0.9
		C416.1,72.9,416.5,73.5,416.4,74.1z"/>
	<path fill="#659B84" d="M436.5,20.4c0.1,0.5-0.2,0.9-0.8,0.9c-0.5,0-1-0.6-1-1.2c0.1-0.6,0.4-0.9,0.9-0.9
		C436.2,19.2,436.5,19.8,436.5,20.4z"/>
	<path fill="#CC655B" d="M400.2,70.3c-0.1,0.4-0.3,0.8-0.8,0.8c-0.6,0-1.2-0.5-1.2-1.1c0-0.6,0.4-0.9,0.9-0.9
		C399.7,69.1,400.2,69.7,400.2,70.3z"/>
	<path fill="#75A992" d="M414,96.1c0.7,0,1.3,0.2,1.3,0.9c0,0.5-0.5,0.9-1.1,0.9c-0.8,0-0.8-0.6-0.9-1.1
		C413.2,96.3,413.6,96.1,414,96.1z"/>
	<path fill="#71A48D" d="M418.1,63.7c-0.7-0.1-0.9-0.5-0.9-1c-0.1-0.7,0.5-0.9,1-0.9c0.7,0,0.9,0.5,0.9,1.1
		C419.1,63.5,418.6,63.6,418.1,63.7z"/>
	<path fill="#CC655A" d="M427.1,66.4c0,0.3-0.3,0.7-0.9,0.7c-0.7,0-0.9-0.5-0.9-1.1c0-0.5,0.3-0.9,0.9-0.9
		C426.7,65,427.1,65.5,427.1,66.4z"/>
	<path fill="#79AC95" d="M393,149c-0.6,0-0.9-0.3-0.9-0.9c0-0.7,0.5-0.8,1-0.8c0.6,0,1.1,0.4,1.1,0.9C394.1,148.6,393.5,149,393,149
		z"/>
	<path fill="#76AA93" d="M499.8,109.4c-0.1,0.5-0.4,0.8-0.9,0.9c-0.5,0-1.1-0.6-1-1.1c0.1-0.5,0.4-0.9,1-0.8
		C499.5,108.4,499.8,108.7,499.8,109.4z"/>
	<path fill="#679C84" d="M429.6,24.9c-0.7-0.1-1-0.3-1.1-0.9c-0.1-0.5,0.5-1,0.9-0.9c0.6,0.1,0.9,0.5,0.9,1.1
		C430.5,24.7,430,24.7,429.6,24.9z"/>
	<path fill="#6FA38B" d="M495.4,65.6c0,0.6-0.2,0.9-0.8,0.9c-0.5,0-1.1-0.5-1.1-1.1c0.1-0.5,0.5-0.9,0.9-0.9
		C495.2,64.7,495.4,65.2,495.4,65.6z"/>
	<path fill="#CB645B" d="M437.1,115c0.4,0,1.1,0.6,1,1c-0.1,0.5-0.4,0.9-1,0.9c-0.6,0-0.7-0.4-0.7-0.9
		C436.3,115.4,436.6,115.1,437.1,115z"/>
	<path fill="#CA665B" d="M458.1,122c0.5,0,0.9,0.3,0.9,0.9c0.1,0.6-0.4,0.9-0.9,0.9c-0.5,0-1-0.3-1-0.9
		C457.2,122.3,457.6,122.1,458.1,122z"/>
	<path fill="#75AA93" d="M369.4,90.4c0-0.7,0.3-0.9,0.9-0.9c0.6-0.1,0.9,0.4,0.9,0.9c0.1,0.6-0.5,0.8-0.9,0.9
		C369.6,91.2,369.6,90.8,369.4,90.4z"/>
	<path fill="#CC645C" d="M434.6,76.9c-0.5,0-0.9-0.1-0.9-0.7s0.4-0.8,1-0.8c0.5,0,1,0.1,1,0.7C435.8,76.7,435.3,76.9,434.6,76.9z"/>
	<path fill="#CC6559" d="M394.9,79.6c0-0.5,0.3-0.9,0.9-0.9c0.5,0,0.8,0.3,0.9,0.7c0.1,0.5-0.5,1-1,1
		C395.2,80.5,394.9,80.2,394.9,79.6z"/>
	<path fill="#72A58D" d="M362.6,71.6c-0.1,0.5-0.2,0.9-0.8,0.9c-0.5-0.1-1-0.3-1-0.9c0-0.5,0.3-0.9,0.8-0.9
		C362.1,70.8,362.5,71,362.6,71.6z"/>
	<path fill="#CC6961" d="M471.2,85.5c-0.1-0.6,0.2-0.8,0.7-0.8c0.5,0,0.9,0.4,1,0.9c0,0.5-0.3,0.9-0.9,0.9
		C471.6,86.4,471.2,86.2,471.2,85.5z"/>
	<path fill="#6B9F86" d="M450.6,40.4c0,0.6-0.3,0.9-0.8,0.9c-0.5-0.1-0.9-0.2-0.9-0.8c0-0.5,0.2-0.9,0.9-0.9
		C450.3,39.6,450.5,40,450.6,40.4z"/>
	<path fill="#6FA28A" d="M428.3,39.8c0.1,0.7-0.5,0.7-0.9,0.7c-0.5,0-0.9-0.3-0.9-0.8c0-0.5,0.4-0.9,0.9-0.9
		C427.9,38.8,428.3,39.1,428.3,39.8z"/>
	<path fill="#71A58D" d="M483.3,51.6c0.5,0,0.7,0.4,0.8,0.8c0,0.5-0.3,0.9-0.8,0.9c-0.6,0-0.7-0.5-0.8-1
		C482.4,51.7,483,51.7,483.3,51.6z"/>
	<path fill="#7AAC97" d="M360.8,132.7c0.4-0.1,0.8,0.1,0.9,0.5c0.1,0.3-0.7,0.9-1.1,0.9c-0.5-0.1-0.7-0.4-0.7-0.8
		C360,132.7,360.4,132.6,360.8,132.7z"/>
	<path fill="#6AA088" d="M408.9,33c0.1,0.5-0.3,0.8-0.7,0.8c-0.5,0-0.9-0.2-0.9-0.8c0-0.5,0.4-0.8,0.9-0.8
		C408.7,32.2,409,32.5,408.9,33z"/>
	<path fill="#78AA92" d="M503.8,67.3c0,0.5-0.2,0.8-0.7,0.8s-0.9-0.3-0.9-0.8c0-0.4,0.3-0.7,0.8-0.7C503.6,66.6,503.7,67,503.8,67.3
		z"/>
	<path fill="#77AC95" d="M403.5,111c0.5,0.1,0.6,0.7,0.7,1.1c0.1,0.4-0.3,0.7-0.7,0.7c-0.5-0.1-0.8-0.5-0.7-0.9
		C402.7,111.3,403,111.1,403.5,111z"/>
	<path fill="#70A48B" d="M423.5,45.7c0.1,0.5-0.2,0.7-0.7,0.7c-0.5,0-0.7-0.3-0.7-0.7s0.2-0.8,0.7-0.8
		C423.3,45,423.6,45.3,423.5,45.7z"/>
	<path fill="#70A48B" d="M451.4,76.4c-0.4-0.1-0.7-0.3-0.8-0.8c0-0.5,0.4-0.7,0.8-0.7s0.8,0.2,0.8,0.7
		C452.1,76.2,451.9,76.4,451.4,76.4z"/>
	<path fill="#76A890" d="M465.6,43.4c0-0.5,0.1-0.9,0.7-0.9c0.5,0,0.7,0.3,0.7,0.7c0,0.5-0.3,0.7-0.7,0.8S465.7,43.8,465.6,43.4z"/>
	<path fill="#80AE9A" d="M368.7,125.2c0.4,0,0.5,0.4,0.5,0.7c0.1,0.5-0.3,0.7-0.6,0.7c-0.4,0-0.6-0.3-0.6-0.7
		C368,125.4,368.3,125.3,368.7,125.2z"/>
	<path fill="#86B19E" d="M414.7,120.3c-0.1,0.3-0.3,0.5-0.7,0.5c-0.5,0-0.6-0.3-0.6-0.7c0-0.3,0.2-0.5,0.5-0.5
		C414.3,119.7,414.5,120,414.7,120.3z"/>
	<path fill="#C2A28E" d="M464.9,130.3c0.7,0,1.5,0,2.3-0.1c-0.1,0.1-0.1,0.3-0.1,0.5c-0.4,0-0.9,0-1.3,0
		C465.6,130.2,465,130.6,464.9,130.3z"/>
	<path fill="#87AE99" d="M444.3,117.4c-0.1,0.1-0.1,0.1-0.1,0.1c-0.1-0.1-0.2-0.3-0.3-0.3c-0.3-0.1-0.3-0.4-0.1-0.7
		c0.1-0.2,0.3-0.3,0.5-0.1s0.4,0.3,0.3,0.7C444.4,117.1,444.3,117.2,444.3,117.4z"/>
	<path fill="#5C967F" d="M409.3,19.6c-0.1-0.6-0.6-0.7-1.1-0.5c-0.5,0.1-1.1,0.1-1.2-0.3c-0.1-0.5-0.4-0.9-0.1-1.5
		c0.4-0.8,1.7-1.8,2.5-1.6c0.5,0.1,1.1,0.3,1.6,0.7c0.4,0.3,0.1,0.7,0.3,1c0.1,0.1,0.1,0.3-0.1,0.3
		C410.1,18.1,410.1,19.2,409.3,19.6z"/>
	<path fill="#639B83" d="M433.4,39.4c0.1,0.7,0,1.3,0.5,1.9c0.2,0.2,0,0.4-0.2,0.5c-0.5,0.3-0.9,0.4-0.2,0.9
		c0.2,0.2,0.7,0.5,0.7,0.9c0,0.7-0.7,1.2-1.5,1c-0.5-0.1-0.8-0.3-1.3,0.1c-0.7,0.4-1.1-0.3-1.5-0.8c-0.3-0.4,0.1-0.7,0.3-1
		c0.5-0.5,0.9-0.7,1.5-0.1c0.3,0.2,0.5,0.1,0.7-0.1c0.2-0.4-0.1-0.5-0.3-0.5c-0.9-0.4-1-0.7-0.6-1.6c0-0.1,0.1-0.2,0.1-0.2
		C432.4,40.4,432.6,39.4,433.4,39.4L433.4,39.4z"/>
	<path fill="#639B83" d="M440.2,45.1c0.4,0.5,0.5,1,0.5,1.5c0,0.2,0,0.4,0.1,0.6c0.1,0.3,0.7,0.5,0.3,0.7c-0.3,0.3-0.8,0.5-1.3,0.5
		c-0.5,0-0.5-0.4-0.6-0.7c-0.3-0.7-0.3-1.3,0.5-1.6C440.1,46,440.1,45.7,440.2,45.1z"/>
	<path fill="#639B83" d="M443.2,44.2c-0.1,0.5-0.1,1.2-0.9,1.2c-0.4,0-0.7-0.6-0.7-0.9c0.1-0.6,0.9-0.4,1.3-0.9
		C443.1,43.4,443.1,44,443.2,44.2z"/>
	<path fill="#639B83" d="M438.1,43c-0.2-0.5,0.1-0.7,0.3-0.7s0.5,0,0.6,0.3s0.1,0.7-0.3,0.7c-0.5,0.1-0.5,1-0.9,0.7
		C437.3,43.6,438.6,43.4,438.1,43z"/>
	<path fill="#639B83" d="M437.9,46.9c0-0.3,0-0.7,0.4-0.7c0.3,0,0.4,0.3,0.4,0.6s-0.1,0.7-0.4,0.7C437.9,47.5,437.9,47.1,437.9,46.9
		z"/>
	<path fill="#639B83" d="M440,43.8c0.1,0.4-0.3,0.4-0.5,0.5c-0.1,0.1-0.3,0.1-0.3,0c-0.2-0.2,0-0.4,0.1-0.5c0-0.1,0.1-0.1,0.1-0.1
		c0.1-0.2-0.1-0.6,0.3-0.5C440.1,43.2,439.9,43.6,440,43.8z"/>
	<path fill="#639B83" d="M442,45.5c0.2,0.6,0.5,0.9,0.3,1.3c-0.1,0.2-0.3,0-0.5-0.1C441.4,46.3,441.7,46.1,442,45.5z"/>
	<path fill="#639B83" d="M441.1,43.1c0.2,0.1,0.3,0.2,0.3,0.4c-0.1,0.3-0.3,0.3-0.5,0.4c-0.1,0-0.3-0.1-0.2-0.3
		C440.8,43.4,440.9,43.1,441.1,43.1z"/>
	<path fill="#639B83" d="M429.6,40c0.2,0,0.5-0.2,0.5,0.2c0,0.1,0.1,0.4-0.1,0.4C429.6,40.6,429.7,40.2,429.6,40L429.6,40z"/>
	<path fill="#6FA48B" d="M417.4,89.2c0-0.3,0.1-0.5,0.2-0.4c0.3,0.2,0.9,0.1,0.9,0.7c0,0.2,0,0.5-0.3,0.5
		C417.8,89.8,417.6,89.5,417.4,89.2z"/>
	<path fill="#639C84" d="M410.5,40c-0.2-0.6-0.3-1.1,0.4-1.3c0.1-0.1,0.3-0.1,0.4,0.1c0.1,0.1-0.1,0.3-0.2,0.3
		C410.6,39.1,411,39.8,410.5,40z"/>
</g>
</svg>
