<?xml version="1.0" encoding="utf-8"?>
<!-- Generator: Adobe Illustrator 17.1.0, SVG Export Plug-In . SVG Version: 6.00 Build 0)  -->
<!DOCTYPE svg PUBLIC "-//W3C//DTD SVG 1.1//EN" "http://www.w3.org/Graphics/SVG/1.1/DTD/svg11.dtd">
<svg version="1.1" id="Calque_1" xmlns="http://www.w3.org/2000/svg" xmlns:xlink="http://www.w3.org/1999/xlink" x="0px" y="0px"
	 viewBox="335 10.4 178.3 178.3" enable-background="new 335 10.4 178.3 178.3" xml:space="preserve">
<g>
	<path fill="#68A087" d="M437.5,61.1c0,0.1,0.1,0.4,0,0.6c-0.2,0.7-0.5,1.4,0.7,1.5c0.3,0,0.7,0.5,0.5,1c-0.1,0.3-0.3,0.7-0.7,0.7
		s-0.9-0.1-1-0.7c-0.1-0.6-0.5-0.5-0.8-0.1c-1.1,1-2.4,1.4-3.9,1.2c-0.4-0.1-0.7,0.1-0.4,0.6c0.3,0.5,0.2,1.1-0.3,1.5
		c-0.4,0.3-1,0.3-1.3-0.3c-0.3-0.5-0.2-1.3,0.3-1.6c0.5-0.3,0.3-0.5,0-0.8c-1.1-0.9-1.9-2-2.2-3.5c-0.5-2.7,1.9-6,5-5.2
		c0.9,0.2,1.8,0.3,2.4,1.1C436.6,58.4,437.7,59.4,437.5,61.1z"/>
	<path fill="#6FA58D" d="M348.1,86.6c0.1,0.8,0.5,1.5,0.8,2.2c0.9,2.5-1.5,5.2-3.6,5.4c-3.2,0.3-5.5-1.4-5.9-4.6
		c-0.2-1.6,1.2-3.8,2.7-4.5c1.8-0.7,3.3-0.1,4.8,0.7C347.3,86.1,347.6,86.5,348.1,86.6L348.1,86.6z"/>
	<path fill="#619C83" d="M426.5,37.7c-0.1-2.5,2.1-4.4,4.5-4.4c3.1,0,4.7,2.3,4.8,5.6c0.1,1.6-2,4.2-4.7,4
		C428.3,42.6,426.5,40.8,426.5,37.7z"/>
	<path fill="#6DA289" d="M447.9,68.1c0.1,2.5-2.1,4.8-4.7,4.8c-2.7-0.1-4.7-2.4-4.7-4.6c0-2.8,2.7-4.8,4.5-4.9
		C445.4,63.3,448.1,65.7,447.9,68.1z"/>
	<path fill="#649F86" d="M489.3,47.9c-0.1,2.9-2.1,4.6-4.7,4.6c-2.8,0-4.6-1.9-4.6-4.8c0-2.6,1.8-4.6,4.4-4.7
		C487.3,43,489.3,44.9,489.3,47.9z"/>
	<path fill="#D06357" d="M457.8,63.9c2.7,0,4.8,2.1,4.8,4.8c0,2.4-2.2,4.8-4.4,4.7c-2.7-0.1-5-1.9-5-4.7
		C453.1,65.8,455.2,64.1,457.8,63.9z"/>
	<path fill="#629C83" d="M446.3,34c-2.9,0-4.8-1.9-4.9-4.8c-0.1-2.5,2.3-4.9,4.8-4.7c2.5,0.2,4.4,1.8,4.5,4.8
		C450.9,31.9,448.9,34,446.3,34z"/>
	<path fill="#69A389" d="M454.7,163.3c-0.2-2.4,2.1-4.6,4.2-4.8c2.8-0.2,5,2.1,5,5c0,2.3-2.2,4.5-4.8,4.4
		C456.8,167.9,454.6,165.8,454.7,163.3z"/>
	<path fill="#69A187" d="M439.1,163.3c0-2.6,1.8-5,4.9-4.8c2.1,0.1,4.4,2,4.4,4.8c-0.1,2.9-2,4.5-4.4,4.6
		C441.2,168.1,439.1,166,439.1,163.3z"/>
	<path fill="#CE6255" d="M444.5,56.5c-3,0.1-4.6-2.1-4.7-4.8c-0.1-2.4,2.1-4.6,4.5-4.6c2.8,0.1,4.6,1.9,4.8,4.8
		C449.2,54.5,447.1,56.4,444.5,56.5z"/>
	<path fill="#C9625B" d="M453.6,143.3c3.2-0.1,4.6,2,4.6,4.6c0.1,2.8-1.7,4.5-4.6,4.7c-2.1,0.1-5-1.8-4.8-4.5
		C449,145.3,450.2,143.5,453.6,143.3z"/>
	<path fill="#70A68E" d="M464.9,124.6c0.4,2.1-2.5,4.4-4.5,4.3c-2.5-0.1-4.8-2.3-4.7-5.2c0.1-1.9,2.6-4.6,4.4-4.4
		C462.7,119.6,464.9,120.9,464.9,124.6z"/>
	<path fill="#639F85" d="M409.7,172.2c0.1,2.6-2,4.7-4.4,4.8c-2.9,0.1-5-2.2-5-4.8c0-2.3,2.3-4.7,4.6-4.6
		C407.5,167.7,409.6,169.5,409.7,172.2z"/>
	<path fill="#6CA58C" d="M360.8,156.1c-2.6,0.1-4.7-2-4.7-4.8c0-2.5,1.8-4.4,4.8-4.6c2.5-0.1,4.6,2.4,4.6,4.6
		C365.5,153.9,363.7,156.2,360.8,156.1z"/>
	<path fill="#6AA289" d="M477.4,76.2c0,2.7-2.3,4.7-4.6,4.7c-2.5,0-4.8-2.2-4.7-4.7c0.2-3.2,1.9-4.5,4.7-4.7
		C475.5,71.3,477.8,74,477.4,76.2z"/>
	<path fill="#6AA289" d="M488.7,66.1c0.2,2.7-2.3,4.8-4.7,4.8c-2.2,0-4.7-2.3-4.6-4.1c0.1-2.9,1.8-5.3,5-5.2
		C486.9,61.7,488.9,63.8,488.7,66.1z"/>
	<path fill="#6EA68E" d="M485.8,132.8c2.4-0.1,4.8,2.2,4.4,5.4c-0.2,1.9-1.9,4.1-4.9,4c-2.2-0.1-4.6-2.4-4.4-4.6
		C481.2,134.9,483,132.8,485.8,132.8z"/>
	<path fill="#6AA188" d="M391.3,60.3c0-2.3,1.9-4.4,4-4.5c3.3-0.2,5.3,2.5,5.3,4.8c0,2.7-2.1,4.6-4.8,4.5
		C393.2,65,391.3,62.8,391.3,60.3z"/>
	<path fill="#68A187" d="M378.1,66.8c-2.5,0-4.4-1.9-4.6-4.3c-0.1-2.5,1.9-5,4.5-5.1c2.7-0.1,4.7,2.3,4.8,4.8
		C382.8,64.8,380.7,66.8,378.1,66.8z"/>
	<path fill="#659E85" d="M396,44.5c-0.1,2.2-2.4,4.5-4.7,4.4c-2.9-0.1-4.8-2.3-4.7-4.4c0.1-3.2,1.9-5.1,5-5
		C393.7,39.7,396,42.3,396,44.5z"/>
	<path fill="#6EA38B" d="M361.7,83.7c-0.1,3-2.2,4.6-4.8,4.6c-2.3-0.1-4.5-2.2-4.6-5c-0.1-1.9,2.5-4.3,4.7-4.3
		C359.8,79,361.8,81,361.7,83.7z"/>
	<path fill="#CE655B" d="M434,105.8c-0.1,2.9-2.2,4.7-4.6,4.8c-2.3,0.1-4.7-2.4-4.6-4.8c0-2.3,2.3-4.6,4.8-4.6
		C431.8,101.1,434,103.4,434,105.8z"/>
	<path fill="#CD6056" d="M427.1,50.4c0.4,2.5-2.7,4.8-4.8,4.6c-2.5-0.3-4.4-2.1-4.5-5.2c0-2.1,2.3-4.2,4.6-4.1
		C425.2,45.9,427.1,47.4,427.1,50.4z"/>
	<path fill="#5D9A81" d="M415.5,180.5c0-2.7,1.8-4.6,4.4-4.5c2.8,0.1,5.2,2.8,4.6,5.8c-0.7,3.2-3.8,4.4-6.6,3.1
		C416.7,184.4,415.2,182.5,415.5,180.5z"/>
	<path fill="#639F85" d="M448.1,182.7c-2.3,0.1-4.6-2.1-4.6-4.5c0.1-2.7,1.9-4.7,4.6-4.8c2.3-0.1,4.7,2.1,4.7,4.4
		C452.8,180.7,450.9,182.6,448.1,182.7z"/>
	<path fill="#6CA48B" d="M475,150.6c0,3-1.9,4.9-4.9,4.8c-2.3,0-4.3-2.2-4.4-4.6c-0.1-2.7,2.5-4.8,4.8-4.8
		C472.7,146,475.1,148.4,475,150.6z"/>
	<path fill="#6BA38A" d="M499.1,76.5c-2.7,0.2-4.5-2.3-4.5-4.6c0.1-2.7,1.6-4.6,4.6-4.8c2.4-0.1,4.6,2.1,4.5,4.8
		C503.7,74.1,502.1,76.6,499.1,76.5z"/>
	<path fill="#70A890" d="M346.6,119.7c0-2.2,1.5-4.8,4.5-4.6c2.7,0.1,4.8,2,4.8,4.6c-0.1,2.5-2.1,4.4-4.7,4.6
		C348.4,124.4,346.5,121.5,346.6,119.7z"/>
	<path fill="#64A086" d="M388.4,177.2c-2.6,0.1-4.6-2.3-4.6-4.1c-0.1-2.9,2.1-5.3,4.5-5.2c2.7,0.2,5,1.9,4.9,5.2
		C393,175.3,390.9,177.2,388.4,177.2z"/>
	<path fill="#CD635D" d="M411.9,110.7c-2.7-0.1-4.8-2.3-4.6-4.9c0.3-2.9,2.1-4.4,4.8-4.4c2.5,0,4.6,2.2,4.5,5
		C416.5,108.8,414.3,110.8,411.9,110.7z"/>
	<path fill="#CA6157" d="M428.3,153.5c-0.3-2.6,2.3-4.6,4.7-4.6c2.3,0.1,4.6,2.2,4.6,4.8c-0.1,2.4-1.8,4.8-5.3,4.5
		C430.1,158,428.2,156.5,428.3,153.5z"/>
	<path fill="#649E85" d="M472.7,53.5c0.1,2.9-2.1,4.6-4.4,4.6c-2.6,0-4.8-2.1-4.8-4.7c0-2.6,2.1-4.8,4.7-4.6
		C470.6,48.9,472.6,50.5,472.7,53.5z"/>
	<path fill="#6DA68D" d="M445.9,124.9c-2.7-0.1-4.6-2.1-4.6-4.9c0.1-2.7,2.1-4.4,5-4.3c2.7,0.1,4.2,1.9,4.3,4.5
		C450.7,122.7,448.7,125.1,445.9,124.9z"/>
	<path fill="#6DA48B" d="M499.8,86c-0.2-2.2,2-4.7,4.9-4.5c2.7,0.2,4.2,2.1,4.3,4.7c0.2,3.1-2.7,4.5-4.9,4.7
		C502.1,91.2,499.4,88.1,499.8,86z"/>
	<path fill="#C96257" d="M412.9,142.5c3.3-0.1,4.8,2.3,5,4.8c0.1,2.2-2.3,4.6-4.3,4.5c-2.5-0.1-5.2-1.5-5-5.4
		C408.7,144.1,410.4,142.5,412.9,142.5z"/>
	<path fill="#CA635C" d="M403.1,137.2c0.1,2.5-2.2,4.4-4.6,4.4c-2.5,0-4.5-1.9-4.7-4.6c-0.2-2.9,2.1-4.8,4.4-4.8
		C400.9,132.4,402.9,133.9,403.1,137.2z"/>
	<path fill="#CC635C" d="M471.1,138.2c-1.9,0.3-4.2-1.6-4.6-4.3c-0.5-2.7,2.5-5.4,5.2-4.8c2.9,0.6,4.1,2.8,4.1,4.9
		c0,1.9-0.9,3.2-2.7,3.8C472.4,138.1,471.7,138.4,471.1,138.2z"/>
	<path fill="#629E85" d="M474.9,34.4c-0.1,2.7-2.3,4.4-4.8,4.4c-2.7-0.1-4.4-2.1-4.5-4.8c-0.1-2.3,2.3-4.6,4.6-4.5
		C472.9,29.5,475,31.7,474.9,34.4z"/>
	<path fill="#619B83" d="M427.5,20.3c0.1-2.9,2-4.5,4.7-4.6c2.4-0.1,4.6,2.5,4.6,5c0,2.5-1.7,4.3-4.7,4.4
		C429.8,25.1,427.5,22.7,427.5,20.3z"/>
	<path fill="#639D84" d="M430.1,166.1c2.3-0.1,4.7,2.2,4.6,5c-0.1,2.3-2.1,4.4-4.4,4.3c-2.9-0.1-4.7-2.1-4.7-4.6
		C425.5,168.1,427.2,166.1,430.1,166.1z"/>
	<path fill="#6FA68D" d="M370.2,111.6c0.1,2.5-2,4.2-4.2,4.3c-3.2,0.1-5-2.2-5.2-4.4c-0.1-2.6,2.1-4.8,4.7-4.8
		C367.8,106.7,370.4,108.8,370.2,111.6z"/>
	<path fill="#66A186" d="M358.8,60.4c0.1,1.9-1.7,4.4-4.4,4.4c-3.3,0-4.8-2.5-4.9-4.6c0-2.3,2.1-4.4,4.5-4.6
		C357.2,55.5,358.8,58.2,358.8,60.4z"/>
	<path fill="#6FA68E" d="M408,133.3c-0.4-2.5,2.1-4.6,3.8-4.8c3.2-0.3,5.2,2.1,5.4,4.6c0.1,1.9-1.4,4.7-4.3,4.8
		C410.4,138.1,408.1,136.3,408,133.3z"/>
	<path fill="#CE625A" d="M372.4,81.2c-2.8,0.1-4.5-2-4.6-4.2c-0.2-2.9,2.2-4.9,4.4-4.9c2.9,0,4.9,2.1,4.8,4.6
		C377.1,79.1,375.5,81.2,372.4,81.2z"/>
	<path fill="#6DA48B" d="M424.2,138.6c2.6-0.2,4.8,2.3,4.5,5.2c-0.3,2.1-2.1,4.4-5.1,3.9c-2.8-0.5-4.2-1.7-4-5.1
		C419.7,140.4,421.9,138.5,424.2,138.6z"/>
	<path fill="#CE6358" d="M394.6,72.1c0.1,2.4-2.1,4.3-4.2,4.4c-2.7,0.2-5-2.1-5.2-4.3c-0.1-2.4,1.9-4.8,4.7-4.9
		C392.3,67.4,394.8,70.1,394.6,72.1z"/>
	<path fill="#D1665A" d="M444.6,84.9c-0.3,2.6-1.7,4.4-4.6,4.4c-2.9-0.1-4.6-2-4.6-4.7c0-2.5,1.9-4.4,4.7-4.5
		C442.4,80,444.6,82.3,444.6,84.9z"/>
	<path fill="#6DA58D" d="M363.2,140.8c-2.5,0-4.8-1.9-4.7-4.5c0.1-3,1.8-4.4,4.4-4.6c2.7-0.2,5,2.1,5,4.9
		C367.7,138.8,366.1,140.8,363.2,140.8z"/>
	<path fill="#CC635B" d="M353.8,95.9c2.9,0.1,4.8,1.9,4.8,4.6c0.1,2.7-2.2,4.6-4.6,4.7c-2.6,0.1-4.7-2.1-4.7-4.8
		C349.4,98.1,351.5,95.9,353.8,95.9z"/>
	<path fill="#609B82" d="M411.5,30.6c0-2.6,2-4.8,4.6-4.6c3.2,0.2,4.4,1.9,4.6,4.9c0.1,2.2-2.1,4.4-4.2,4.4
		C413.6,35.3,411.5,33.2,411.5,30.6z"/>
	<path fill="#6FA68F" d="M369.8,123c0-2.5,1.9-4.4,4.4-4.5c2.4-0.1,4.6,2.3,4.8,4.4c0.1,3-1.9,4.6-4.4,4.8
		C372,128,369.5,125.2,369.8,123z"/>
	<path fill="#639F86" d="M372.1,50.4c0.3,3.1-2.3,4.7-4.4,4.8c-2.4,0.1-4.8-2.3-4.8-4.8c0.1-2.5,1.9-4.6,4.5-4.6
		C370.1,45.9,372.4,48.1,372.1,50.4z"/>
	<path fill="#6EA58C" d="M408,116c-0.1,2.7-2,4.4-4.8,4.5c-1.6,0-2.8-1-3.9-2c-0.9-0.9-0.7-2.1-0.7-3.1c0.2-1.9,1.8-4.1,4.6-4.1
		C406,111.3,408.1,113.5,408,116z"/>
	<path fill="#689F86" d="M411.7,162.6c-0.3-2.1,2.4-4.7,4.6-4.6c2.5,0.1,4.6,2.1,4.7,4.7c0,2.9-2.1,4.6-5,4.6
		C413.7,167.3,411.5,165.1,411.7,162.6z"/>
	<path fill="#69A289" d="M420,58.5c2.5,0.1,4.6,2.1,4.8,4.8c0.1,2.2-2.2,4.6-4.6,4.6c-2.1,0.1-4.4-2.3-4.5-4.6
		C415.5,60.6,417.4,58.7,420,58.5z"/>
	<path fill="#6EA58C" d="M487.7,106.5c0.2,2.6-2.2,4.4-4.2,4.5c-3.2,0.1-5-2.2-4.9-4.6c0.1-2.5,1.7-4.6,4.9-4.6
		C485.5,101.8,487.9,103.6,487.7,106.5z"/>
	<path fill="#6EA68E" d="M476.4,120.6c0-2.5,1.9-4.5,4.6-4.6c2.9-0.1,4.6,2.3,4.6,4.5c0,2.7-1.9,4.8-4.4,4.8
		C478.6,125.3,476.5,123.6,476.4,120.6z"/>
	<path fill="#6FA78E" d="M439.9,105.3c-0.2-2.9,2.2-4.6,4.6-4.5c2.3,0,4.6,1.5,4.6,5.1c-0.1,2.3-2.2,4.2-4.6,4.2
		C441.8,110,439.9,108.3,439.9,105.3z"/>
	<path fill="#6BA389" d="M429.5,68.4c2.4-0.2,4.4,2.1,4.5,4.7c0.1,2.3-2.1,4.8-4.4,4.6c-2.7-0.1-4.6-1.8-4.7-4.7
		C424.8,70.5,426.5,68.2,429.5,68.4z"/>
	<path fill="#629E84" d="M371.7,37.1c-0.3-2.2,2-4.3,4.1-4.4c3.2-0.2,5.1,2.3,5.1,4.8s-2.2,4.3-4.4,4.4
		C373.5,41.9,371.5,39.8,371.7,37.1z"/>
	<path fill="#6DA389" d="M385.5,88.1c-2.5,0.3-4.7-2.1-4.8-4.7c-0.1-1.8,2.3-4.6,4.4-4.6c2.7,0.1,4.7,1.7,4.8,4.4
		C390.2,85.8,388.3,88.2,385.5,88.1z"/>
	<path fill="#6FA78F" d="M497.1,125.9c0-2.7,2.2-4.4,4.4-4.6c2.9-0.2,4.8,2.6,4.8,4.6c-0.1,2.5-1.7,4.7-4.6,4.6
		C499.7,130.5,496.9,128.7,497.1,125.9z"/>
	<path fill="#6DA48A" d="M382.4,135.4c3.1,0.1,4.8,2.5,4.6,5.1c-0.1,2.5-2.3,4.2-4.7,4.2c-2.7,0-4.6-2.4-4.6-5.1
		C377.8,137.4,380.1,135.3,382.4,135.4z"/>
	<path fill="#649D84" d="M451.5,39.1c2.2-0.3,4.5,1.9,4.5,4.7c0,2.4-1.9,4.5-4.7,4.5c-2.4,0-4.4-2.1-4.4-4.6
		C447,41,448.7,38.9,451.5,39.1z"/>
	<path fill="#5E9A81" d="M399.3,29c-2.7,0.1-4.6-2.2-4.6-4.7c0-2.4,1.9-4.4,4.6-4.4c2.5-0.1,4.6,2.1,4.6,5
		C403.9,26.9,401.5,29.3,399.3,29z"/>
	<path fill="#6DA48B" d="M379.5,98c0.1,2.2-2.1,4.4-4.6,4.4c-2.5-0.1-4.7-2.3-4.6-4.8c0.1-2.6,1.9-4.4,4.4-4.4
		C377.6,93.2,379.8,95.4,379.5,98z"/>
	<path fill="#6FA68E" d="M436.3,126.2c-0.1,2.9-1.7,4.5-4.4,4.6c-2.5,0.1-4.8-2-4.8-4.7s1.9-4.4,4.6-4.4
		C434.3,121.6,436.3,123.5,436.3,126.2z"/>
	<path fill="#D0665C" d="M464.9,113.3c-2.9,0.1-4.8-2.5-4.6-5.1c0.2-2.3,1.7-4,4.4-4c3.2-0.1,4.8,2.5,4.8,4.6
		C469.4,111.6,467.2,113.4,464.9,113.3z"/>
	<path fill="#6CA48C" d="M375.9,158.1c-0.3-2.3,2.3-4.4,4.6-4.5c2.3-0.1,4.6,2.3,4.6,4.6c0,2.9-2.5,4.8-4.6,4.7
		C378.4,162.8,375.6,161.2,375.9,158.1z"/>
	<path fill="#6BA48B" d="M417.1,81.7c0.1,1.9-1.9,4.4-4.6,4.4c-2.5,0.1-4.8-2.3-4.6-4.8c0.1-2.7,1.9-4.3,4.6-4.4
		C415.1,76.8,417.2,79.4,417.1,81.7z"/>
	<path fill="#6FA78F" d="M487.6,157.1c-0.1,2.8-2.3,4.4-4.6,4.4c-2.6,0-4.6-2-4.6-5c0.1-2.3,2.1-4.2,4.8-4.2
		C485.7,152.3,487.5,154.1,487.6,157.1z"/>
	<path fill="#6EA48C" d="M441.7,137.2c3.2,0.2,4.4,1.8,4.4,4.9c0.1,2.1-1.8,4.4-4.5,4.4c-2.6,0-4.6-2.1-4.6-4.8
		C437.1,139,439,137.3,441.7,137.2z"/>
	<path fill="#6DA48B" d="M462.9,94.8c0,2.4-2.2,4.5-4.8,4.4c-2.5,0-4.8-2.3-4.6-4.8c0.2-2.6,2.2-4.3,4.6-4.3
		C460.9,90.1,462.6,92,462.9,94.8z"/>
	<path fill="#6EA58D" d="M498.7,114.8c-2,0.2-4.5-2.2-4.5-4.6c0.1-2.3,1.8-4.6,4.6-4.6c2.6,0,4.5,1.9,4.6,4.4
		C503.5,112.8,501.6,114.8,498.7,114.8z"/>
	<path fill="#CF655B" d="M386.5,116c-2.5,0.3-4.7-2.1-4.8-4.2c-0.1-2.8,2-4.9,5-4.8c2,0.1,4.4,2,4.2,4.9
		C391,114.2,389.1,116.2,386.5,116z"/>
	<path fill="#649C84" d="M411.9,45.7c0.1,2.5-2.1,4.5-4.4,4.6c-2.5,0.1-5-2.2-4.9-4.6c0.1-2.5,2-4.5,4.6-4.6
		C409.5,41,412.2,43.6,411.9,45.7z"/>
	<path fill="#6EA58D" d="M417.1,118.9c-0.2-2.4,2.1-4.6,4.6-4.5c2.4,0.1,4.5,2,4.4,4.6c-0.1,2.7-1.9,4.6-4.6,4.6
		C419.2,123.6,416.9,121.6,417.1,118.9z"/>
	<path fill="#6DA28A" d="M428.1,85.1c3.1-0.1,4.7,2.3,4.7,4.6c0,2.5-2,4.5-4.6,4.6c-2.3,0.1-4.8-2.4-4.6-4.8
		C423.7,87.1,425.4,85,428.1,85.1z"/>
	<path fill="#6FA48D" d="M401.4,90.1c2.3-0.3,4.6,2.8,4.5,4.6c-0.3,2.9-2.1,4.6-4.6,4.4c-3.2-0.1-4.6-2.3-4.6-5
		C396.7,91.8,399.1,89.8,401.4,90.1z"/>
	<path fill="#6AA188" d="M399,157.5c-2.5,0-4.6-2-4.6-4.6c0-2.3,2.2-4.6,4.4-4.5c2.8,0.1,4.8,1.9,4.7,4.6
		C403.5,155.6,401.7,157.5,399,157.5z"/>
	<path fill="#CD635C" d="M497.1,94.4c0,2.5-2.1,4.5-4.7,4.5c-2.2,0-4.4-2.3-4.4-4.5c0-2.6,2-4.6,4.6-4.6
		C494.9,89.8,497.4,92,497.1,94.4z"/>
	<path fill="#CE6357" d="M405,57.9c0-1.7,1-2.7,2.7-2.8c0.3,0,0.6,0.1,0.7-0.1c0.1-0.3-0.2-0.4-0.3-0.6c-0.6-0.8-0.7-1.7-0.3-2.6
		c0.4-0.7,1.1-1.2,1.9-1.1c1.1,0.1,2.5,1.5,2.1,2.5c-0.1,0.2-0.2,0.4,0,0.6c0.3,0.2,0.4,0,0.7-0.1c1.5-0.9,2.5-0.9,3.7,0.2
		c0.7,0.7,1,1.6,0.7,2.6c-0.3,1-1.1,1.6-2.1,1.9c-1.4,0.3-2.3-0.4-3.2-1.4c-0.4-0.5-0.3-1.1-0.2-1.7c0.1-0.5-0.1-0.7-0.5-0.5
		c-0.5,0.3-0.9,0.4-1.5,0.3c-0.2,0-0.4,0-0.5,0.2c-0.1,0.2,0.1,0.3,0.2,0.4c0.6,0.5,1.1,1.1,1.1,1.9c0.1,1.2-1.4,3.2-2.5,3.2
		C406.2,60.7,404.8,59.4,405,57.9z"/>
	<path fill="#CD635A" d="M477.7,85.7c2.3-0.1,4.5,2,4.6,4.6c0.1,2.2-2.1,4.4-4.4,4.5c-2.8,0.1-4.7-2-4.8-4.5
		C473.1,88,474.7,85.6,477.7,85.7z"/>
	<path fill="#CE6359" d="M405.3,69.9c-2.4,0.3-4.6-1.9-4.6-4.4c0.1-2.8,1.7-4.3,4.7-4.5c2.1-0.1,4.3,2.1,4.3,4.4
		C409.7,67.8,407.8,69.8,405.3,69.9z"/>
	<path fill="#6EA58D" d="M345.4,76.3c0.1,0.3,0.5,0.3,0.7,0.5c1,0.6,1.9,2.5,1.7,3.5c-0.4,1.4-1.6,2.6-3.1,2.7
		c-1.3,0.1-3.2-0.7-3.8-2.7c-0.3-1.3,0.3-2.7,1.7-3.6c0.6-0.3,1.2-0.7,1.9-0.4c0.1,0.1,0.3,0,0.3-0.1c0.1-0.1,0-0.3-0.1-0.3
		c-0.1-0.2-0.3-0.3-0.5-0.5c-0.7-0.8-0.7-2.1,0.1-2.9c0.7-0.7,1.9-0.7,2.7-0.1c0.8,0.7,1,2,0.3,2.8c-0.4,0.5-1,0.8-1.7,0.9
		C345.7,76.1,345.5,76,345.4,76.3z"/>
	<path fill="#C9645D" d="M446.4,157.4c-1.7,0-3.1-1.1-3.5-2.8c-0.3-1.3,0-2.8,1.4-3.6c0.4-0.3,1.1-0.1,1.1-0.7
		c0-0.5-0.6-0.6-0.9-0.9c-0.6-0.7-0.6-2,0.1-2.5c0.9-0.7,2.1-0.6,2.7,0.3c0.5,0.7,0.3,2.1-0.4,2.6c-0.3,0.2-0.7,0.2-0.7,0.5
		c0.1,0.4,0.6,0.4,0.9,0.5c1.3,0.4,2.4,1.7,2.5,3.1C449.9,155.8,448.3,157.4,446.4,157.4z"/>
	<path fill="#6DA38A" d="M457,85.6c-1.9,0-3.9-1.7-3.8-3.6c0.1-1.9,1.6-4.4,4-4.2c2.2,0.1,3.7,1.7,3.8,3.8
		C461.2,83.7,459.4,85.7,457,85.6z"/>
	<path fill="#CC635B" d="M390.1,132.2c-0.1,0.5-0.1,0.9-0.2,1.3c-0.2,0.8,0.2,0.8,0.7,0.5c0.4-0.2,0.8-0.2,1.2,0.1
		c0.7,0.4,1,0.9,0.7,1.7c-0.3,0.7-0.9,1.1-1.7,1.1c-0.7-0.1-1-0.7-1.1-1.3c-0.2-1-0.2-1-1-0.4c-1.9,1.3-4.5,0.4-5.2-1.8
		c-0.4-1.5,0.4-3.3,1.8-3.9c1.7-0.7,3.2-0.3,4.2,1.3C389.9,131.2,389.9,131.7,390.1,132.2z"/>
	<path fill="#CF665D" d="M346,99c-0.1,2.1-1.6,3.5-3.2,3.6c-2.9,0.1-4-1.9-4.1-3.8c-0.1-1.8,1.8-3.6,3.6-3.5
		C344.4,95.5,346,97,346,99z"/>
	<path fill="#D16456" d="M452.9,59.8c-0.2-1.9,1.6-3.6,3.4-3.5c1.7,0.1,3.8,1.5,3.6,4.1c-0.1,1.5-1.8,3-3.5,2.9
		C454.2,63.3,452.8,61.6,452.9,59.8z"/>
	<path fill="#6AA48A" d="M373,166.7c-2.3-0.2-3.6-1.3-3.7-3.6c-0.1-1.7,1.9-3.5,3.4-3.6c1.7-0.1,3.7,1.9,3.8,3.8
		C376.5,164.9,374.7,166.7,373,166.7z"/>
	<path fill="#6BA58B" d="M392.3,162.6c0,2.2-1.3,3.7-3.1,3.8c-2.1,0.1-3.7-1.4-3.8-3.6c-0.1-2.2,1.5-3.4,3.4-3.6
		C390.5,159.2,392.7,160.9,392.3,162.6z"/>
	<path fill="#6EA38A" d="M380.7,102.7c0-1.9,1.5-3.4,3.6-3.4c1.7,0,3.6,1.8,3.6,3.4c0,1.8-1.9,3.8-3.8,3.7
		C382.5,106.3,380.6,104.4,380.7,102.7z"/>
	<path fill="#CE655A" d="M386,119.7c0,2.4-1.7,3.4-3.6,3.6c-1.5,0.2-3.4-1.7-3.4-3.4c0-2.1,1.3-3.6,3.1-3.6
		C384.6,116.3,386,117.7,386,119.7z"/>
	<path fill="#6AA388" d="M375.9,168.1c0-2.1,1.8-3.5,3.4-3.6c1.8-0.1,3.7,1.9,3.7,3.9c0,1.6-1.7,3.3-3.5,3.3
		C377.7,171.6,375.9,169.9,375.9,168.1z"/>
	<path fill="#CF655A" d="M472.9,125c0,1.8-1.5,3.2-3.4,3.2c-2.3,0.1-3.6-1.7-3.6-3.4c0-1.8,1.2-3.5,3.5-3.5
		C471.4,121.3,472.9,122.9,472.9,125z"/>
	<path fill="#D0665D" d="M465.9,101.1c0-2.4,1.7-3.8,3.7-3.6c1.8,0.1,3.5,1.9,3.3,3.7c-0.2,1.9-1.7,3.3-3.9,3.4
		C467.7,104.6,465.7,102.6,465.9,101.1z"/>
	<path fill="#6CA48B" d="M491.4,80.6c-1.9,0-3.7-1.6-3.6-3.4c0.1-2.1,1.2-3.4,3.6-3.6c1.8-0.1,3.5,1.6,3.4,3.4
		C494.8,79.2,493,80.8,491.4,80.6z"/>
	<path fill="#D46B60" d="M510.3,95.2c0,1.9-1.5,3.4-3.4,3.4c-2,0-3.5-1.5-3.4-3.5c0-1.7,1.6-3.6,3.2-3.5
		C508.7,91.6,510.3,92.8,510.3,95.2z"/>
	<path fill="#CD655D" d="M421,113.4c-2,0.1-3.5-1.5-3.6-3.5c-0.1-1.8,1.5-3.4,3.3-3.4c1.9,0,3.7,1.5,3.7,3.4
		C424.4,111.7,423.2,113.4,421,113.4z"/>
	<path fill="#CC625A" d="M460.7,61.6c-0.1-0.9,0.5-1.5,1.1-2.1c0.4-0.4,0.7-0.7-0.3-0.9c-1.1-0.2-1.5-1.2-1.1-2.1
		c0.4-0.8,1.1-1.1,1.7-0.7c0.8,0.4,1.1,1.3,0.7,2.1c-0.1,0.2-0.5,0.4-0.3,0.7c0.2,0.3,0.5,0,0.8,0c1.3-0.2,2.3,0.5,2.9,1.5
		c1.5,2.2,0.1,4.6-2.3,4.9C462.4,65.2,460.8,63.5,460.7,61.6z"/>
	<path fill="#D1675C" d="M436.6,97.5c0.2,1.7-1.3,3.5-3.7,3.4c-1.9-0.1-3.1-1.6-3.2-3.6c-0.1-1.9,1.5-3.4,3.2-3.4
		C434.8,93.9,436.5,95.6,436.6,97.5z"/>
	<path fill="#6DA68D" d="M370.8,154c-2.3,0.1-3.4-1.4-3.5-3.4c-0.1-2.2,1.3-3.5,3.7-3.5c1.7,0,3.2,1.7,3.2,3.6
		C374.3,152.4,372.8,154.3,370.8,154z"/>
	<path fill="#6CA48B" d="M345.2,68.2c0.2-2.2,1.2-3.6,3.3-3.6c2.1,0,3.6,1.5,3.7,3.8c0.1,1.6-1.8,3.2-3.4,3.2
		C346.9,71.5,345,70.1,345.2,68.2z"/>
	<path fill="#71A68E" d="M377.9,108.9c1.7-0.1,3,1.8,2.9,3.3c-0.1,2.5-0.7,3.5-3.2,3.6c-1.7,0.1-3.6-1.5-3.6-3.2
		C374.1,110.4,375.6,108.9,377.9,108.9z"/>
	<path fill="#6CA58C" d="M501.9,62.8c0.1,1.9-1.6,3.6-3.5,3.4c-1.9-0.1-3.4-1.6-3.4-3.8c0-1.6,1.7-3.3,3.4-3.2
		C500.3,59.3,502,60.8,501.9,62.8z"/>
	<path fill="#CA625A" d="M460.1,144.7c-1.9,0-3.5-1.4-3.6-3.1c-0.1-2.4,1.5-3.8,3.3-3.8c1.9,0,3.6,1.3,3.6,3.4
		C463.5,143.3,462.1,144.7,460.1,144.7z"/>
	<path fill="#6FA48C" d="M494.2,88.7c-1.9,0.1-3.5-1.7-3.6-3.7c-0.1-1.6,1.7-3.3,3.4-3.2c2.3,0.1,3.4,1.6,3.5,3.5
		C497.6,87.3,496.1,88.7,494.2,88.7z"/>
	<path fill="#6DA58D" d="M351.9,133.2c2.1-0.2,3.5,1.7,3.6,3.4c0.1,1.8-1.5,3.4-3.4,3.4c-2,0-3.6-1.5-3.6-3.4
		C348.5,134.7,349.7,133.1,351.9,133.2z"/>
	<path fill="#68A288" d="M462.5,170.4c-0.3-1.8,1.9-3.5,3.2-3.5c1.9-0.1,3.5,1.5,3.6,3.4c0.1,1.9-1.2,3.5-2.9,3.5
		C463.8,173.8,462.5,172.7,462.5,170.4z"/>
	<path fill="#6CA48A" d="M359.8,71.5c-2.1,0.1-3.5-2.3-3.4-3.8c0.1-1.4,1.4-3.3,3.4-3c2.5,0.3,3.8,1.9,3.5,4
		C363.1,70.2,361.8,71.7,359.8,71.5z"/>
	<path fill="#6DA58C" d="M385.5,153.9c-1.9,0-3.7-1.7-3.6-3.6c0.1-2,1.6-3.2,3.5-3.2c2-0.1,3.4,1.3,3.4,3.4
		C388.8,152.6,387.4,154,385.5,153.9z"/>
	<path fill="#6EA48C" d="M406.8,96.9c0.2-2,1.3-3.4,3.8-3.5c1.7-0.1,3.2,1.5,3.2,3.3c0,2-1.4,3.4-3.4,3.5
		C408.4,100.4,406.8,98.8,406.8,96.9z"/>
	<path fill="#CD645C" d="M391.7,125.4c0.1,1.9-1.5,3.4-3.6,3.2c-1.9-0.1-3.3-1.5-3.2-3.4c0.1-2,1.2-3.3,3.6-3.3
		C390.1,121.8,391.9,123.4,391.7,125.4z"/>
	<path fill="#CA625C" d="M401.5,143.1c0-2,1.7-3.2,3.4-3.2c1.8,0,3.5,1.6,3.6,3.5c0.1,1.8-1.7,3.5-3.6,3.4
		C402.8,146.6,401.4,145,401.5,143.1z"/>
	<path fill="#5E9981" d="M424.5,18.5c0,1.7-1.7,3.4-3.4,3.4c-2-0.1-3.4-1.7-3.3-3.4c0.1-2.1,1.5-3.5,3.4-3.6
		C422.7,14.8,424.6,16.2,424.5,18.5z"/>
	<path fill="#C9625C" d="M427.4,157.1c0.2,2.1-2,3.6-3.4,3.5c-2.1-0.1-3.6-1.3-3.5-3.5c0.1-1.7,1.4-3.4,3.9-3.3
		C425.8,153.9,427.7,155.5,427.4,157.1z"/>
	<path fill="#CF655B" d="M364.1,94.1c-2.1,0-3.6-1.5-3.6-3.7c0-1.9,1.7-3.2,3.5-3.1c1.9,0.1,3.4,1.7,3.4,3.6
		C367.3,92.6,365.7,94.3,364.1,94.1z"/>
	<path fill="#639F85" d="M393.4,176.5c-0.3-1.7,1.8-3.3,3.3-3.3c1.9,0,3.4,1.5,3.6,3.5c0.1,1.7-1.4,3.4-3.4,3.4
		C395,180.1,393.3,178.5,393.4,176.5z"/>
	<path fill="#6BA38A" d="M419,92.2c-1.8,0-3.4-1.3-3.4-2.9c0-2.1,1.5-3.9,3.4-3.8c2.1,0.1,3.5,1.5,3.6,3.5
		C422.6,90.7,420.9,92.2,419,92.2z"/>
	<path fill="#669F86" d="M477.8,57.4c-1.8-0.1-3-1.2-3.2-3.4c-0.1-1.7,1.4-3.4,3-3.4c2.3-0.1,3.6,1,3.7,3.5
		C481.4,55.8,480,57.4,477.8,57.4z"/>
	<path fill="#6CA289" d="M411.7,155.7c0.1,1.5-1.6,3.3-3.4,3.2c-1.9-0.1-3.3-1.6-3.4-3.6c0-1.9,1.4-3.2,3.4-3.2
		C410.2,152,411.7,153.6,411.7,155.7z"/>
	<path fill="#6AA388" d="M400.7,160.6c1.6-0.3,3.6,1.7,3.5,3.4c-0.1,1.7-1.5,3.3-3.4,3.3c-1.7,0.1-3.6-1.8-3.6-3.7
		C397.3,161.9,398.8,160.6,400.7,160.6z"/>
	<path fill="#6EA68E" d="M368.5,126.6c-0.1,2.1-1.4,3.5-3.4,3.4c-2.2-0.1-3.4-1.4-3.5-3.4c-0.1-1.7,1.9-3.6,3.6-3.4
		C367.1,123.4,368.5,125.1,368.5,126.6z"/>
	<path fill="#67A187" d="M472.7,58.1c2.1-0.1,3.2,1.7,3.2,3.4c0,1.9-1.1,3.4-3.4,3.4c-2,0-3.3-1.8-3.3-3.4
		C469.2,59.3,470.6,58,472.7,58.1z"/>
	<path fill="#5C9981" d="M407.6,23.2c-1.9-0.1-3.4-1.7-3.3-3.5c0.1-2.1,1.5-3.4,3.4-3.3c1.8,0.1,3.4,1.7,3.3,3.5
		C411,21.9,409.5,23.3,407.6,23.2z"/>
	<path fill="#659D85" d="M442.5,41.6c-0.1,2.1-1.4,3.4-3.4,3.4c-1.9,0-3.4-1.3-3.4-3.4c0.1-1.9,1.5-3.3,3.1-3.2
		C441.1,38.2,442.2,39.4,442.5,41.6z"/>
	<path fill="#659D85" d="M424.9,26.3c1.8,0,3.2,1.5,3.2,3.5c0,1.7-1.5,3.3-3.2,3.3c-2,0-3.5-1.6-3.6-3.4
		C421.5,27.9,422.8,26.1,424.9,26.3z"/>
	<path fill="#6FA289" d="M363.2,73.4c2.1,0,3.6,1.2,3.6,3c-0.1,2.1-1,3.4-3.4,3.4c-1.8,0-3.4-1.5-3.5-3.3
		C359.9,75,361.2,73.1,363.2,73.4z"/>
	<path fill="#649E85" d="M372,45.8c-0.1-2.1,1.7-3.2,3.4-3.2c1.7-0.1,3.4,1.6,3.4,3.4c0,1.7-1.5,3.2-2.9,3.3
		C373.6,49.3,372,47.8,372,45.8z"/>
	<path fill="#629D84" d="M386.2,29.8c0.3,1.6-1.5,3.5-3.2,3.4c-1.8-0.1-3.5-1.6-3.4-3.6c0.1-1.9,1.4-3,3.5-3.1
		C384.8,26.3,386.2,28,386.2,29.8z"/>
	<path fill="#CE655C" d="M396,105.4c0,1.9-1.4,3.4-3.1,3.4c-1.9,0-3.5-1.5-3.5-3.3c0-1.8,1.6-3.4,3.6-3.4
		C394.6,102.1,396,103.7,396,105.4z"/>
	<path fill="#649E85" d="M456.2,35c0.2,1.9-1.5,3.2-2.9,3.2c-2.1-0.1-3.5-1.3-3.6-3.4c-0.1-1.7,1.5-3.2,3.2-3.2
		C454.8,31.5,456.5,33.4,456.2,35z"/>
	<path fill="#659F85" d="M460.2,50.5c-1.3,0.2-3.2-1.6-3.2-3.3c0-1.8,1.5-3.2,3.4-3.3c1.5-0.1,3.4,1.5,3.3,3.4
		C463.5,49.2,462.2,50.5,460.2,50.5z"/>
	<path fill="#70A78F" d="M359.8,129.5c0,2-1.5,3.4-3.7,3.3c-1.5-0.1-3.1-1.3-3.2-3.3c-0.1-1.7,1.7-3.1,3.5-3.1
		C358.4,126.4,359.8,127.8,359.8,129.5z"/>
	<path fill="#609C82" d="M407.3,180.9c0-1.9,1.4-3.4,3.2-3.4c1.6,0,3.1,1.6,3.2,3.4c0.1,1.7-1.7,3.5-3.5,3.5
		C408.9,184.4,407.3,182.5,407.3,180.9z"/>
	<path fill="#68A187" d="M454.4,168c0,1.8-1.2,3.1-2.9,3c-2.1,0-3.8-1.5-3.8-3.4c0-1.5,1.9-3.1,3.8-3
		C453.3,164.7,454.6,166,454.4,168z"/>
	<path fill="#6EA68D" d="M444.8,133.3c0,2.1-1.4,3-3.3,3c-1.8,0-3.4-2-3.2-3.9c0.2-1.4,1.7-2.8,3.2-2.7
		C443.5,129.9,444.9,131.5,444.8,133.3z"/>
	<path fill="#6FA58C" d="M403.8,132.6c-1.6,0.2-3.4-1.6-3.4-3.2c0.1-1.8,1.4-3.3,3.4-3.3c1.9,0,3.4,1.3,3.3,3.1
		C407,131.2,405.7,132.6,403.8,132.6z"/>
	<path fill="#67A087" d="M368,62.5c-1.7-0.1-3.3-1.8-3.2-3.5c0.1-2,2-3,3.5-2.9c1.8,0.1,3.4,1.8,3.2,3.5
		C371.4,61.3,369.8,62.6,368,62.5z"/>
	<path fill="#639E85" d="M435.7,179.5c0-1.6,1.6-3.3,3.2-3.3c1.4,0,3.3,1.3,3.3,3.6c0,1.6-1.6,2.9-3.6,3
		C437.1,182.8,435.7,181.3,435.7,179.5z"/>
	<path fill="#6BA48A" d="M469.8,164.9c-0.1-1.6,1.4-3.2,3-3.2c1.5-0.1,3.4,1.5,3.4,2.7c-0.1,2.3-1.3,3.8-3.2,3.9
		C471.6,168.3,469.8,167.1,469.8,164.9z"/>
	<path fill="#5F9A81" d="M425.6,182.2c0-1.7,1.6-3.1,3.6-3c1.7,0,2.8,1.8,2.9,3.4c0.1,1.3-1.3,3-3.4,2.9
		C426.8,185.5,425.6,184.2,425.6,182.2z"/>
	<path fill="#6EA58D" d="M413.9,124c0,2-1.3,3.3-3.2,3.3c-2.3,0-3.2-1.3-3.2-3.1c-0.1-1.7,1.5-3.2,3.2-3.2
		C412.4,120.9,414.1,122.5,413.9,124z"/>
	<path fill="#629F86" d="M455,174.4c-0.2-1.8,1.1-3,3.2-3c1.9,0,3.2,1.3,3.2,3.2c0,2.1-1.5,3.2-3.2,3.2
		C456.6,177.8,454.9,176.6,455,174.4z"/>
	<path fill="#659F85" d="M466.2,28.2c0.3,1.5-1.2,3-2.8,3.1c-1.3,0.1-3.5-1.3-3.4-3.2c0.1-1.9,1.2-3.4,2.9-3.4
		C464.7,24.5,466.2,26.1,466.2,28.2z"/>
	<path fill="#6FA68D" d="M479.6,142.1c0,1.8-1.3,3.2-3.1,3.2c-1.7,0-3.2-1.5-3.2-3.4c0-1.9,1.2-3.2,3.2-3.1
		C478.3,138.8,479.6,140.1,479.6,142.1z"/>
	<path fill="#639E85" d="M467.2,45.7c-1.5-0.1-3.3-1.4-3.4-3.4c-0.1-1.4,1.7-3,3.4-3c1.5,0,2.9,1.3,3,2.9
		C470.2,44.3,469,45.7,467.2,45.7z"/>
	<path fill="#CF6459" d="M366.3,86.5c-2-0.3-3.2-1.5-3.2-3.3c0.1-2.1,1.4-3.1,3.2-3.1s3.3,1.7,3.2,3.3
		C369.5,85.4,367.7,86.5,366.3,86.5z"/>
	<path fill="#66A087" d="M475.3,38.4c0-2,1.1-3.2,3.2-3.1c1.8,0.1,3,1.3,3.1,3.2c0.1,1.7-1.3,3.1-3.2,3.1
		C476.7,41.6,475.1,40.2,475.3,38.4z"/>
	<path fill="#649F85" d="M362.1,51.5c0,1.6-1.6,3.3-3.2,3.2c-1.9-0.2-3.2-1.4-3.2-3.5c-0.1-1.5,1.2-2.9,2.9-2.9
		C360.4,48.3,362.1,49.8,362.1,51.5z"/>
	<path fill="#68A188" d="M494,54.2c0.1,1.8-1.3,3.2-2.8,3.3c-1.8,0.1-3.4-1.5-3.4-3.4c0-1.5,1.5-3,3.1-3
		C492.6,51,494.2,52.5,494,54.2z"/>
	<path fill="#6FA78E" d="M489.6,120.9c-1.7,0.1-3.1-1.4-3.2-3c-0.1-1.5,1.5-3.2,3.1-3.2c1.7-0.1,3.4,1.4,3.3,3
		C492.8,119.5,491.6,120.9,489.6,120.9z"/>
	<path fill="#6DA58D" d="M481.2,132.9c-1.4,0.3-3.1-1.5-3-2.9c0.1-2.3,1.2-3.2,3.3-3.3c1.7-0.1,3.2,1.6,3,3.4
		C484.4,131.5,483.4,133,481.2,132.9z"/>
	<path fill="#66A086" d="M411.2,171.2c0.1-2.3,1.3-2.9,2.9-3c2.1-0.1,3.3,1.6,3.2,3.2c0,1.8-1.1,2.9-3.2,3
		C412.5,174.5,411.2,173,411.2,171.2z"/>
	<path fill="#69A288" d="M439.1,175.2c-1.8,0-3.2-1.4-3.2-3.3c0-1.6,1.4-3.2,2.9-3.2c2.2,0.1,3.2,1.5,3.2,3.2
		C442.1,173.8,441.1,175.3,439.1,175.2z"/>
	<path fill="#6FA890" d="M492.2,132.6c-1.7,0-3.2-1.5-3.2-3.3c0-1.7,1.4-3.1,3-3c2.2,0.1,3.1,1.3,3.2,3.3
		C495.4,131.2,493.8,132.6,492.2,132.6z"/>
	<path fill="#6EA68E" d="M354.8,147.1c-1.9,0-3.2-1.3-3.2-3.2c0-1.7,1.4-2.9,3.2-2.9c1.9,0,3.2,1.4,3.2,3.3
		C357.9,145.9,356.5,147.2,354.8,147.1z"/>
	<path fill="#6AA188" d="M369.8,65.2c1.9,0,3.1,1.3,3.1,3.3c0,1.7-1.4,3.1-3.1,3c-1.9-0.1-3-1.5-3-3.2
		C366.7,66.4,367.9,65.2,369.8,65.2z"/>
	<path fill="#619B83" d="M404.1,35.7c-2,0-3.2-1.2-3.2-3.2c0-2,1.7-3.2,3.2-3.2c1.5-0.1,3,1.7,3,3.4C407,34.4,405.6,35.7,404.1,35.7
		z"/>
	<path fill="#6DA58D" d="M448.4,93c1.6-0.1,3,1.3,3.2,3.2c0.1,1.9-1.5,2.9-2.9,3c-2.1,0.2-3.3-1.7-3.3-3.2
		C445.2,94.1,446.4,93,448.4,93z"/>
	<path fill="#659F86" d="M384.4,54c-0.1,1.6-1.4,3.2-2.7,3.2c-1.9-0.2-3.5-1.5-3.4-3.6c0-1.5,1.5-2.9,3.1-2.9
		C383.2,50.7,384.5,52.2,384.4,54z"/>
	<path fill="#6EA48B" d="M492.1,107.1c-2,0.2-3.3-1.7-3.3-3.2c0-1.9,1.1-2.9,2.9-3c2.1-0.1,3.2,1.3,3.3,2.9
		C495.1,105.8,493.6,107.2,492.1,107.1z"/>
	<path fill="#71A68D" d="M390.9,144.9c-1.6,0-2.9-1.3-2.9-2.8c0-2.1,1.1-3.4,3.2-3.4c1.7,0,2.9,1.3,2.9,3.1S392.7,144.9,390.9,144.9
		z"/>
	<path fill="#6FA68D" d="M486.4,150.3c0-1.6,1.4-3,2.8-3c2.1,0,3.4,1.2,3.5,3.2c0,1.5-1.7,3.1-3.3,3
		C487.9,153.4,486.4,151.8,486.4,150.3z"/>
	<path fill="#71A68E" d="M381.9,131.5c0.1,1-0.3,1.9-1.1,2.5c-1.2,0.7-2.4,0.7-3.6-0.1c-2.2-1.5-1.7-4,0.2-5.4
		c0.3-0.3,0.7-0.3,1.1-0.1c0.2,0.1,0.4,0.1,0.6,0.1C380.8,128.6,381.9,129.8,381.9,131.5z"/>
	<path fill="#649E85" d="M456.5,39.2c-0.3-1.7,1.7-3.1,2.9-3.2c1.3-0.1,3.2,1.9,3.2,3.3c-0.1,1.7-1.2,3-3.1,3.1
		C457.8,42.6,456.5,41.1,456.5,39.2z"/>
	<path fill="#CE645E" d="M503.5,99.5c0,1.7-1.2,3-3,3c-1.6,0-3.1-1.5-3-3.2c0-1.7,1.3-3.1,2.9-3.1C502.2,96.2,503.5,97.6,503.5,99.5
		z"/>
	<path fill="#CA635B" d="M467.8,139.3c1.6,0,3.2,1.5,3.2,3c0,2.1-1.4,3.3-3.2,3.3c-1.6,0-2.9-1.5-2.9-3.3
		C464.9,140.6,466.2,139.3,467.8,139.3z"/>
	<path fill="#6DA38A" d="M356.1,91.4c0,1.5-1.5,3.1-2.9,3.1c-1.8,0-3.4-1.4-3.4-3.1c0.1-1.7,1.4-3.1,3.2-3.1
		C354.6,88.4,356.1,89.8,356.1,91.4z"/>
	<path fill="#74AB94" d="M504.7,120.5c-1.6,0.1-3.2-1.1-3.2-3.2c-0.1-1.3,1.5-2.9,2.8-2.9c1.8,0,3.4,1.5,3.4,3.2
		C507.7,119.3,506.4,120.5,504.7,120.5z"/>
	<path fill="#6FA78F" d="M357.2,119.2c0-1.6,1.3-2.9,2.9-2.9c1.7,0,3.4,1.6,3.4,3.2c0,1.5-1.3,2.9-2.7,2.9
		C358.7,122.3,357.2,121.1,357.2,119.2z"/>
	<path fill="#6EA48B" d="M396.2,98.5c0.2,1.5-1.7,2.7-3.4,2.6c-1.6-0.1-3.1-1.7-2.9-3.4c0.1-1.5,1.7-2.8,3.4-2.7
		C395.3,95.3,396.4,96.6,396.2,98.5z"/>
	<path fill="#70A790" d="M495.2,143.7c-2,0-3-1.5-3.1-3.2c-0.1-1.5,1.4-2.9,3.1-2.9c1.4,0.1,3.2,1.5,3.2,3.1
		C498.3,142.3,496.9,143.7,495.2,143.7z"/>
	<path fill="#669F85" d="M393.3,53.3c0.1,1.8-1.1,3.2-2.9,3.2c-1.6,0-3-1.5-3-3.2c0-1.9,1.4-3.2,3.1-3.1
		C391.9,50.3,393.6,51.4,393.3,53.3z"/>
	<path fill="#629D84" d="M439.2,30.3c0,1.8-1.1,3-2.9,3c-1.7,0-3.2-1.2-3.2-2.7c0.1-2.5,1.1-3.4,3-3.4
		C437.9,27.2,439.3,28.5,439.2,30.3z"/>
	<path fill="#6CA38A" d="M377.7,86.1c1.7-0.1,2.9,1.7,2.9,3.1c0.1,1.7-1.5,3-3.2,3c-1.6,0-3.1-1.6-3-3.4
		C374.4,87.4,376,86.1,377.7,86.1z"/>
	<path fill="#6BA38A" d="M482.1,78.6c-1.7,0.3-3.2-1.6-3.2-3.1s1.5-2.9,2.9-3c1.7,0,3.2,1.3,3.2,2.7C485.1,77,484,78.9,482.1,78.6z"
		/>
	<path fill="#D1675B" d="M466,120.4c-1.7,0-3.3-1.3-3.4-3c-0.1-1.3,1.5-2.7,3.1-2.8c2,0,3.2,1,3.2,2.7
		C469,119.2,467.9,120.4,466,120.4z"/>
	<path fill="#6EA48C" d="M388.7,94.3c-1.8,0-3.1-1.2-3.2-2.8c-0.1-1.9,1.5-3.2,3.3-3.2c1.4,0,2.9,1.7,2.8,3.4
		C391.7,93.2,390.4,94.3,388.7,94.3z"/>
	<path fill="#6DA68D" d="M369,139.4c-0.1-1.9,1.5-2.8,2.9-2.9c1.7-0.1,3.2,1.4,3.2,3.2c0,1.5-1.4,2.7-3.1,2.7
		C370.2,142.5,369,141.2,369,139.4z"/>
	<path fill="#71A68E" d="M463.2,132.6c0.1,1.5-1.4,3.3-2.9,3.2c-1.7-0.1-3.2-1.3-3.3-3.1c-0.1-1.6,1.2-2.9,2.9-2.9
		C461.9,129.8,463.1,130.9,463.2,132.6z"/>
	<path fill="#6FA78F" d="M350.5,128.2c0,1.7-0.7,2.5-2.2,3c-1.2,0.3-2.7-0.3-3.5-1.4c-0.7-1.1-0.7-2.6,0.3-3.7
		c0.5-0.6,1.9-0.9,2.7-0.5c0.4,0.1,0.7,0.3,1.1,0.5C350.3,126.6,350.5,126.8,350.5,128.2z"/>
	<path fill="#609B83" d="M451.6,19.5c1.7-0.2,3.4,1.3,3.3,3.4c-0.1,1.3-0.9,2.5-2.6,2.5c-2,0-3.4-1.1-3.4-2.9
		C448.9,20.5,449.8,19.5,451.6,19.5z"/>
	<path fill="#D06459" d="M449.7,70.3c1.6,0,3.2,1.4,3,2.9c-0.1,1.7-1.2,3-3.1,3c-1.7,0-3-1.4-3-3.1C446.6,71.7,448,70.2,449.7,70.3z
		"/>
	<path fill="#669D85" d="M416.4,45.5c-1.9,0.3-3.2-1.5-3.2-2.9c-0.1-1.5,1.3-2.9,3-2.9c1.7,0,3.1,1.7,3.1,3
		C419.3,44.4,418.2,45.5,416.4,45.5z"/>
	<path fill="#669D85" d="M399.5,53.1c-0.3-1.3,1.3-2.7,2.7-2.7c2,0,3.3,1.7,3.3,3c0,1.5-1.3,3.1-2.7,3.1
		C401,56.4,399.5,55,399.5,53.1z"/>
	<path fill="#72A68F" d="M462.1,114.9c0,1.7-1.2,2.9-2.8,2.9c-1.8,0.1-3.2-1.6-3.2-2.9c-0.1-1.6,1.2-2.9,2.9-2.9
		C460.7,112,462.2,113.2,462.1,114.9z"/>
	<path fill="#6EA68E" d="M449.9,115.2c-1.5,0-2.9-1.4-2.9-3.1c0-1.6,1.3-2.8,2.9-2.8c1.7,0,3.1,1.6,3.1,3.4
		C453,114.3,451.8,115.3,449.9,115.2z"/>
	<path fill="#71A790" d="M346.4,110.9c0.1,1.6-1.1,2.7-3.1,2.7c-1.5,0-2.8-1.3-2.9-2.9c-0.1-1.7,1.3-2.9,3.1-2.9
		C345.1,107.8,346.6,109.5,346.4,110.9z"/>
	<path fill="#70A88F" d="M367.9,131.7c-0.2-1.6,1.6-3,2.7-3c2.2,0,3.2,1.3,3.4,3.2c0.1,1.3-1.4,2.6-2.9,2.6
		C369.4,134.3,367.9,133.1,367.9,131.7z"/>
	<path fill="#639E84" d="M390.5,38.6c-1.5,0-3-1.4-2.9-3c0.1-2.1,0.9-2.7,2.9-2.8c1.9-0.1,2.9,1.3,2.9,2.9
		C393.5,37.3,392.1,38.7,390.5,38.6z"/>
	<path fill="#6FA58C" d="M462.1,87.8c0-1.8,1.3-2.9,2.9-3c1.4-0.1,2.9,1.5,2.9,2.9c-0.1,1.5-1.7,3.3-2.7,3.2
		C463.4,90.7,462,89.4,462.1,87.8z"/>
	<path fill="#6CA48B" d="M407.1,89.4c-0.2-1.9,1.5-3.1,3.2-3.2c1.1-0.1,2.7,1.5,2.7,2.6c0,2.1-1.2,3.4-2.9,3.4
		C408.5,92.2,406.8,90.9,407.1,89.4z"/>
	<path fill="#70A890" d="M451.5,128.7c-0.1,2-1.2,3.2-3,3.1c-1.4-0.1-2.8-1.7-2.7-3.3c0.1-1.2,1.6-2.7,2.7-2.7
		C450.2,125.9,451.5,127.2,451.5,128.7z"/>
	<path fill="#6CA289" d="M390.3,64c0,1.5-1.3,2.8-2.9,2.8c-1.5,0-3-1.5-3-3.2c-0.1-1.5,1.3-2.6,3.2-2.6
		C388.9,60.9,390.2,62.5,390.3,64z"/>
	<path fill="#71A790" d="M434.4,112.2c-0.2-1.7,1.1-2.8,3-2.8c1.5,0,2.7,1.1,2.7,2.7c0,1.7-1.1,3.2-2.5,3.2
		C435.7,115.2,434.4,114,434.4,112.2z"/>
	<path fill="#6FA68E" d="M430.9,114.6c1.3,0,3.2,1.1,3,3.1c-0.1,1.5-1,2.7-2.9,2.7c-1.5,0-3.2-1.7-3.1-3
		C428.1,115.8,429.4,114.6,430.9,114.6z"/>
	<path fill="#649E85" d="M399.6,44.1c-1.6,0-2.9-1.3-2.9-2.9c0-1.5,1.2-2.9,2.7-2.8c1.5,0.1,3.2,1.2,3.2,3
		C402.5,43,401.3,44.1,399.6,44.1z"/>
	<path fill="#639E85" d="M470.8,47.3c0-1.3,1.5-2.9,2.8-2.9c1.4,0,3.2,1.5,3.1,2.8c-0.1,1.6-1.5,3.1-2.9,3.1
		C472.3,50.3,470.8,48.9,470.8,47.3z"/>
	<path fill="#6BA48B" d="M420.4,80c-1.4,0.2-2.8-1.4-2.8-2.8c0-1.6,1.3-2.9,2.9-2.9c1.5,0,2.9,1.3,2.9,2.7
		C423.4,78.6,422,80.1,420.4,80z"/>
	<path fill="#68A087" d="M486.9,57.5c0.3,1.6-1.4,2.9-2.5,2.9c-1.9-0.1-3.2-1.1-3.2-2.9c0-1.5,1.4-2.9,2.9-2.9
		C485.9,54.6,486.9,55.7,486.9,57.5z"/>
	<path fill="#6CA38A" d="M382.8,92.5c2-0.1,2.9,1.2,2.9,2.9c0.1,1.7-1.4,2.8-2.6,2.8c-1.6,0-3.2-1.6-3.2-3.2
		C380,93.7,381.6,92.2,382.8,92.5z"/>
	<path fill="#5F9A81" d="M443,23.1c-0.1,1.7-1.2,2.8-2.7,2.9c-1.6,0.1-2.9-1.4-2.9-3.2c0-1.4,1.3-2.7,2.7-2.7
		C441.6,20.1,443,21.5,443,23.1z"/>
	<path fill="#6AA289" d="M410.5,69c0-1.6,1.1-2.9,2.4-2.9c1.8-0.1,3,1.7,3,3.1c0,1.5-1.2,2.7-2.7,2.8C411.7,72,410.2,70.7,410.5,69z
		"/>
	<path fill="#68A086" d="M433.7,159.6c1.7,0.1,2.9,1.5,2.8,2.9c-0.1,1.8-1.3,2.7-2.9,2.7c-1.4,0-3-1.5-2.8-3.2
		C430.9,160.7,432.2,159.5,433.7,159.6z"/>
	<path fill="#CD645C" d="M486.3,91.4c-1.9,0.1-2.9-1.3-2.9-2.7c-0.1-1.7,1.3-3,2.9-2.9c1.5,0.1,2.7,1.3,2.7,3
		C489,90.4,487.7,91.6,486.3,91.4z"/>
	<path fill="#69A289" d="M491.2,64.4c-1.5,0.3-2.9-1.5-2.9-2.7c-0.1-1.7,1-3,2.5-3c1.7,0,3.1,1.5,3.2,3
		C494.1,63.1,492.8,64.4,491.2,64.4z"/>
	<path fill="#5F9A81" d="M417.3,22.2c-0.1,1.7-1.3,3-2.9,2.9c-1.5-0.1-2.8-1.9-2.7-3c0.1-1.7,0.9-2.7,2.5-2.8
		C415.9,19.3,417.3,20.7,417.3,22.2z"/>
	<path fill="#6EA58D" d="M400.7,85.5c0-1.6,1.2-2.9,2.9-2.9s2.6,1.1,2.7,2.8c0.1,1.3-1.4,2.8-2.7,2.9
		C401.9,88.4,400.7,87.2,400.7,85.5z"/>
	<path fill="#649E84" d="M448.1,37.9c0,1.6-1,2.7-2.6,2.7c-1.5,0.1-3.2-1.4-3.1-2.8c0.1-1.7,1.2-2.7,2.8-2.8
		C446.8,34.9,448,36.1,448.1,37.9z"/>
	<path fill="#6EA48C" d="M431.1,84.2c-1.9,0.2-2.7-1.4-2.7-2.7c0-1.5,1.3-2.7,2.7-2.8c1.9-0.1,3,1.4,2.9,2.7
		C434,82.9,433,84.3,431.1,84.2z"/>
	<path fill="#6BA38A" d="M348.6,75.8c-0.1-1.4,1.3-2.7,2.9-2.7c1.2,0,2.7,1.4,2.7,2.9c-0.1,1.5-1.3,2.8-2.8,2.8
		C350,78.8,348.6,77.3,348.6,75.8z"/>
	<path fill="#72A68E" d="M451.6,142.3c-1.7,0-2.9-1.2-3-2.9c0-1.6,1.2-2.5,2.6-2.5c1.7-0.1,3.3,1.4,3.2,3.1
		C454.3,141.3,452.9,142.5,451.6,142.3z"/>
	<path fill="#639E85" d="M367.2,44.4c-1.7,0-3.1-1.5-3.1-3.1c0.1-1.4,1.3-2.5,2.7-2.5c1.8,0.1,2.9,1.8,3,3.2
		C370,43.2,368.5,44.4,367.2,44.4z"/>
	<path fill="#619C84" d="M453.1,28.2c0.1-1.9,1.1-2.9,2.9-2.7c1.3,0.1,2.7,1.5,2.6,2.7c-0.1,1.8-1.5,3.1-3.3,2.9
		C454,31,453,29.8,453.1,28.2z"/>
	<path fill="#669E86" d="M414,38.2c0,1.5-1.2,2.8-2.7,2.8c-1.5,0-2.8-1.3-2.8-3.1c0-1.3,1.3-2.6,2.6-2.5
		C412.8,35.5,413.9,36.4,414,38.2z"/>
	<path fill="#6AA389" d="M461,151.4c1.5-0.3,2.8,1.5,2.7,3c-0.1,1.2-1.4,2.5-2.6,2.5c-1.6,0-3.1-1.4-3-2.9
		C458.2,152.8,459,151.3,461,151.4z"/>
	<path fill="#649E85" d="M384.4,41.7c-1.3,0.1-2.7-1.4-2.7-2.9c0-1.3,1.3-2.6,2.6-2.7c1.6-0.1,3,1.2,3,2.9
		C387.3,40.6,386.5,41.4,384.4,41.7z"/>
	<path fill="#70A58D" d="M430.2,144.9c-0.1-1.3,1.5-2.6,2.7-2.6c1.3,0,2.8,1.8,2.8,3.3c0,1.2-1.3,2.5-2.7,2.5
		C431.6,148,430.2,146.5,430.2,144.9z"/>
	<path fill="#69A389" d="M467.1,161.1c-1.4,0-2.5-1.3-2.5-3c0-1.5,1.5-2.6,2.7-2.6c1.4,0,2.8,1.3,2.8,2.9
		C470.2,159.9,468.8,161.1,467.1,161.1z"/>
	<path fill="#6FA78F" d="M496.6,134.4c0-1.7,1.1-2.7,2.8-2.8c1.4-0.1,2.7,1.1,2.7,3c0,1.3-1.2,2.5-2.6,2.5
		C498,137.2,496.3,135.9,496.6,134.4z"/>
	<path fill="#639E84" d="M382.7,50.1c-1.5,0-2.9-1.3-2.9-2.9c0-1.4,1.1-2.5,2.7-2.6c1.4-0.1,3,1.4,2.9,2.7
		C385.3,48.9,384.6,50.1,382.7,50.1z"/>
	<path fill="#6DA58D" d="M425.8,135c0-1.5,1.1-2.9,2.4-2.9c1.5-0.1,2.9,1.3,3,2.9c0,1.5-1,2.7-2.5,2.7
		C427.1,137.8,425.9,136.6,425.8,135z"/>
	<path fill="#70A58D" d="M464.1,78.4c-1.7,0-2.7-1.2-2.8-2.9c-0.1-1.9,1.4-2.6,2.7-2.7c1.3-0.1,2.8,1.7,2.7,3
		C466.8,76.8,465.6,78.6,464.1,78.4z"/>
	<path fill="#6DA38B" d="M411.1,73.8c0.2,1.8-1.3,2.7-2.7,2.7c-1.5,0.1-2.5-1.3-2.7-2.9c-0.1-1.3,1.5-2.7,2.6-2.7
		C410.1,71,411,71.9,411.1,73.8z"/>
	<path fill="#609A82" d="M408,29.6c-1.6,0-2.9-1.3-2.9-2.8c0.1-1.4,1.5-2.8,2.8-2.8c1.4,0.1,2.7,1.5,2.7,2.8
		C410.6,28.2,409.4,29.6,408,29.6z"/>
	<path fill="#70A68D" d="M480,82.8c0-1.4,1.3-2.5,2.9-2.5c1.3,0,2.6,1.3,2.6,2.6c0,1.7-1.5,2.9-3.1,2.9C481,85.8,480,84.5,480,82.8z
		"/>
	<path fill="#6EA48B" d="M418.1,96.4c1.5-0.1,2.7,1.5,2.7,2.6c0.1,1.4-1.3,2.8-2.7,2.9c-1.6,0.1-2.9-1.1-2.9-2.7
		C415.1,97.8,416.5,96.4,418.1,96.4z"/>
	<path fill="#70A88F" d="M499.7,119.1c0.1,1.2-1.3,2.5-2.5,2.6c-1.5,0.1-3.1-1.3-3.2-2.7c-0.1-1.5,1.2-2.7,2.9-2.7
		C498.5,116.1,499.7,117.5,499.7,119.1z"/>
	<path fill="#70A890" d="M440.3,120c-0.1,1.6-1.2,2.6-2.8,2.5c-1.4-0.1-2.7-1.5-2.7-2.9c0.1-1.4,1.5-2.7,2.7-2.5
		C439.3,117.2,440.4,118.3,440.3,120z"/>
	<path fill="#6DA58C" d="M423,80.3c1.6,0,2.6,1,2.7,2.5c0.1,1.5-1.4,2.9-3,2.9c-1.3,0-2.5-1.2-2.5-2.5
		C420.1,81.7,421.5,80.3,423,80.3z"/>
	<path fill="#72A891" d="M509.8,110.7c0.2,1.7-1.3,2.5-2.6,2.5c-1.5,0-2.7-1.2-2.7-2.9c0-1.7,1-2.4,2.7-2.5
		C508.7,107.7,509.8,109.1,509.8,110.7z"/>
	<path fill="#6DA68D" d="M479,151.6c-1.5,0-2.8-1.2-2.8-2.5c0-1.6,1.1-2.9,2.6-2.9c1.5,0,2.9,1.3,2.9,2.9
		C481.6,150.4,480.4,151.6,479,151.6z"/>
	<path fill="#D1685D" d="M445.7,76.7c0,1.5-1.1,2.7-2.7,2.8c-1.3,0.1-2.7-1.5-2.7-2.9c0-1.3,1.3-2.7,2.5-2.7
		C444.4,73.9,445.7,75.1,445.7,76.7z"/>
	<path fill="#6AA289" d="M472.3,68c0,1.7-1.1,2.8-2.9,2.9c-1.4,0.1-2.5-1.3-2.6-2.7c0-1.5,1.3-2.7,2.7-2.7
		C471.1,65.5,472.3,66.6,472.3,68z"/>
	<path fill="#6DA48B" d="M474.4,160.9c-1.3,0.2-2.9-1.1-2.9-2.5c0-1.5,1.2-2.9,2.5-2.9c1.5,0,3.2,1.5,3.1,2.9
		C477,159.9,475.7,161,474.4,160.9z"/>
	<path fill="#CF6659" d="M472.1,94.2c0,1.5-0.4,2.1-1.4,2.5c-1.5,0.5-2.4,0.3-3.2-0.9c-0.6-0.9-0.8-2.1-0.1-3.2
		c0.5-0.9,1.2-1.2,2.2-1.2c1.2,0,1.9,0.7,2.4,1.6C472.2,93.4,472.1,93.9,472.1,94.2z"/>
	<path fill="#6AA389" d="M475.9,70.5c-1.3,0.2-2.6-1.3-2.6-2.6c0.1-1.5,1.2-2.7,2.7-2.8c1.4,0,2.9,1.3,2.7,2.7
		C478.8,69.2,477.9,70.7,475.9,70.5z"/>
	<path fill="#6DA58C" d="M396.2,89.7c-1.6,0-2.6-1-2.7-2.4c0-1.7,1.5-3,2.8-3c1.5,0,2.7,1.4,2.6,3C399,88.7,397.6,89.7,396.2,89.7z"
		/>
	<path fill="#6BA38A" d="M420.8,125.4c1.4-0.2,2.9,1.4,2.7,2.9c-0.1,1.5-1.4,2.5-3.1,2.3c-1.5-0.2-2.4-1.4-2.3-2.9
		C418.2,126.4,419,125.2,420.8,125.4z"/>
	<path fill="#CD625A" d="M435.5,54.7c-1.7,0-2.6-1.2-2.7-2.8c-0.1-1.3,1.3-2.6,2.7-2.6c1.3,0,2.7,1.5,2.7,2.7
		C438.1,53.5,436.9,54.7,435.5,54.7z"/>
	<path fill="#71A68E" d="M395,123.4c-1.3,0.2-2.6-1.6-2.6-2.5c0-1.4,1.4-2.9,2.8-2.9c1.7,0.1,2.8,1,2.7,2.5
		C397.9,122.4,396.4,123.5,395,123.4z"/>
	<path fill="#70A68E" d="M473.9,104.6c1.6,0,2.8,1.1,2.8,2.7s-1,2.7-2.4,2.7c-1.7,0.1-2.7-1.4-2.9-2.9
		C471.3,106,472.3,104.3,473.9,104.6z"/>
	<path fill="#6EA58E" d="M477.4,115.9c-1.5,0.1-2.7-1.1-2.7-2.8c0-1.5,1-2.6,2.4-2.5c1.9,0.1,2.9,1,3,2.9
		C480.2,114.8,478.9,115.9,477.4,115.9z"/>
	<path fill="#6EA58C" d="M363.7,158.6c-0.1-1.9,1.3-2.7,2.6-2.8c1.5-0.1,2.9,1.2,2.8,2.5c-0.1,1.5-1.1,2.8-3.1,2.8
		C364.7,161,363.7,160,363.7,158.6z"/>
	<path fill="#6FA68E" d="M446.8,86.4c0-1.7,0.8-2.6,2.3-2.6c1.6,0,3,1.3,3,2.7c0,1.5-1.2,2.7-2.7,2.6
		C447.9,89.1,446.7,88.2,446.8,86.4z"/>
	<path fill="#6DA58C" d="M381.2,147.3c0,1.6-1.1,2.7-2.8,2.7c-1.5,0-2.6-1.1-2.6-2.6c0-1.5,1.3-2.6,3.1-2.6
		C380.4,144.8,381.4,146.2,381.2,147.3z"/>
	<path fill="#71A48C" d="M425.5,95.3c1.1,0,2.7,1.7,2.7,2.8c-0.1,1.3-1.2,2.6-2.5,2.5c-1.7-0.1-2.8-0.7-2.8-2.5
		C422.7,96.5,423.9,95.3,425.5,95.3z"/>
	<path fill="#CF655B" d="M400.1,68.9c-0.1,1.5-1.2,2.7-2.7,2.7c-1,0-2.7-1.7-2.5-2.8c0.2-1.7,0.9-2.6,3.1-2.5
		C399.1,66.4,400.1,67.5,400.1,68.9z"/>
	<path fill="#CC6254" d="M433.2,47.7c0.1,1.5-1.3,2.5-2.6,2.5c-1.4,0-2.7-1.3-2.7-2.7c0.1-1.3,0.9-2.6,2.5-2.6
		C432.1,44.9,433.2,46,433.2,47.7z"/>
	<path fill="#6FA68F" d="M357,115.6c-1.9-0.1-2.7-1.1-2.7-2.7c-0.1-1.2,1.3-2.5,2.5-2.5c1.5,0,2.9,1.3,2.9,2.5
		C359.6,114.6,358.6,115.6,357,115.6z"/>
	<path fill="#6FA48B" d="M474,84.8c0.1,1.5-1.4,2.7-2.8,2.7c-1.1,0.1-2.3-1.2-2.3-2.7c0-1.3,1.4-2.7,2.7-2.7
		C472.9,82.2,474.1,83.3,474,84.8z"/>
	<path fill="#6FA48C" d="M413.7,117c-1.6,0-2.6-1-2.5-2.6c0-1.5,1.2-2.5,2.8-2.5c1.5,0,2.6,1.7,2.5,2.7
		C416.4,115.7,415,117,413.7,117z"/>
	<path fill="#CF675E" d="M402.5,107.7c0,1.3-1.3,2.7-2.7,2.7c-1.1,0-2.7-1.2-2.7-2.1c-0.1-1.7,1.1-3.2,2.5-3.2
		C401.1,105.1,402.4,106.2,402.5,107.7z"/>
	<path fill="#70A78F" d="M366.3,147.1c-1.2,0.3-2.7-1.4-2.6-2.5c0-1.3,1.2-2.4,2.7-2.5c1.8-0.1,2.7,0.9,2.7,2.2
		C369,145.9,367.9,147.1,366.3,147.1z"/>
	<path fill="#71A68E" d="M454.9,103.6c0-1.6,0.8-2.4,2.3-2.4c1.7,0,2.8,1.1,2.8,2.6c0,1.4-1.2,2.5-2.6,2.5
		C456.2,106.4,454.7,105.4,454.9,103.6z"/>
	<path fill="#6A9F87" d="M438.8,60.1c0-1.7,1-2.7,2.6-2.7c1.5,0,2.7,1.1,2.7,2.4c0,1.5-1.1,2.6-2.8,2.6
		C439.7,62.5,438.8,61.6,438.8,60.1z"/>
	<path fill="#70A891" d="M366.9,121.7c-1.7,0-2.7-0.9-2.8-2.5c0-1.3,1.3-2.5,2.7-2.5c1.5,0,2.6,1.3,2.6,3
		C369.5,120.8,368.4,121.7,366.9,121.7z"/>
	<path fill="#CC645D" d="M393.6,127.9c1.3-0.1,2.6,1.4,2.6,2.7c0,1.5-1.1,2.3-2.6,2.4c-1.7,0.1-2.5-1.5-2.5-2.6
		C391,128.9,392.1,127.9,393.6,127.9z"/>
	<path fill="#CD645A" d="M381.6,73.3c1.5,0,2.7,1.1,2.6,2.5c-0.1,1.6-1.1,2.6-2.7,2.6c-1.3,0-2.4-1.3-2.4-2.8
		C379.1,74.1,380.1,73.2,381.6,73.3z"/>
	<path fill="#C9635B" d="M417.9,151c-0.1-1.9,1.2-2.5,2.4-2.5c1.3,0,2.6,1.2,2.7,2.5c0,1.4-1.2,2.7-2.5,2.7
		C419,153.6,417.9,152.5,417.9,151z"/>
	<path fill="#6DA58C" d="M367.6,100.3c1.3,0,2.6,1.3,2.7,2.7c0,1.3-1.1,2.5-2.3,2.5c-1.7-0.1-2.9-1.1-2.9-2.5
		C365.2,101.6,366.4,100.3,367.6,100.3z"/>
	<path fill="#CC6255" d="M414.7,51.7c-1.1,0.3-2.4-1.1-2.5-2.6c-0.1-1.1,1.2-2.3,2.4-2.4c1.5-0.1,2.7,1,2.7,2.5
		C417.4,50.5,416.1,51.6,414.7,51.7z"/>
	<path fill="#CE6354" d="M452.8,49.7c1.4,0,2.4,1.1,2.4,2.6c0,1.3-1.2,2.5-2.4,2.5c-1.3,0-2.6-1.3-2.5-2.5
		C450.4,50.8,451.2,49.7,452.8,49.7z"/>
	<path fill="#6CA48B" d="M421,132.7c1.8,0.1,2.6,1.3,2.6,2.7c0.1,1.3-1.2,2.4-2.5,2.3c-1.5-0.1-2.5-1.1-2.5-2.7
		C418.7,133.7,419.7,132.7,421,132.7z"/>
	<path fill="#6DA38B" d="M403.3,79.1c0,1.4-1.3,2.7-2.7,2.7c-1.3,0-2.3-1-2.3-2.3c0-1.5,1.3-2.8,2.7-2.7
		C402.3,76.8,403.4,77.9,403.3,79.1z"/>
	<path fill="#70A78F" d="M440,123.9c1.4,0,2.5,1.1,2.5,2.5c0,1.2-1.2,2.5-2.3,2.5c-1.5,0-2.7-1.3-2.7-2.9
		C437.6,124.8,438.7,123.9,440,123.9z"/>
	<path fill="#70A890" d="M454.3,121.7c-1.3,0-2.5-1.1-2.5-2.4s1.1-2.6,2.4-2.5c1.4,0,2.6,1.3,2.6,2.6
		C456.8,120.6,455.7,121.7,454.3,121.7z"/>
	<path fill="#68A087" d="M421.8,33.8c1.4,0,2.7,1.2,2.7,2.5s-1.1,2.4-2.5,2.5c-1.2,0-2.5-1.1-2.4-2.3
		C419.6,34.8,420.4,33.8,421.8,33.8z"/>
	<path fill="#6DA58C" d="M390.3,153.2c1.6,0.1,2.6,1.1,2.6,2.5c0,1.1-1.6,2.4-2.7,2.3c-1.2-0.1-2.4-1.3-2.3-2.5
		C387.8,154.3,389.1,153,390.3,153.2z"/>
	<path fill="#6CA389" d="M454.2,154.3c1.3,0,2.5,1,2.5,2.2c0,1.4-1.3,2.7-2.6,2.7c-1.1,0-2.3-1.1-2.3-2.3
		C451.7,155.5,452.9,154.1,454.2,154.3z"/>
	<path fill="#68A087" d="M421.6,171.7c-1.3,0.1-2.3-0.8-2.5-2.3c-0.1-1.2,1.2-2.4,2.5-2.5c1.4,0,2.4,1,2.4,2.4
		C424,170.7,423,171.7,421.6,171.7z"/>
	<path fill="#6FA78F" d="M486.5,145.5c0.1,1.7-1.2,2.5-2.4,2.5c-1.2,0-2.3-1-2.3-2.6c0-1.1,1.1-2.3,2.1-2.3
		C485.5,143.1,486.5,144.1,486.5,145.5z"/>
	<path fill="#6CA38B" d="M417,137.6c1.4-0.1,2.2,1,2.3,2.4c0.1,1.3-0.9,2.3-2.3,2.4c-1.5,0.1-2.5-0.9-2.6-2.3
		C414.5,138.8,415.5,137.7,417,137.6z"/>
	<path fill="#CD655D" d="M359.7,100.2c0.1-1.6,1-2.6,2.4-2.5c1.4,0.1,2.4,1.1,2.3,2.6c-0.1,1.3-1,2.2-2.3,2.2
		C360.9,102.4,359.7,101.3,359.7,100.2z"/>
	<path fill="#67A187" d="M361.9,59.9c-1.2,0-2.6-1.4-2.6-2.6c0-1.3,1-2.2,2.3-2.2c1.8,0,2.4,1.3,2.5,2.6
		C364.2,58.7,363,60,361.9,59.9z"/>
	<path fill="#6EA68E" d="M437.9,136.6c0.1,1.5-1.1,2.3-2.2,2.3c-1.4,0-2.5-1.2-2.5-2.7c0-1.2,0.9-2.1,2.1-2.1
		C436.9,134.1,437.9,135.1,437.9,136.6z"/>
	<path fill="#C9635B" d="M440.7,152.6c-1.4,0-2.3-1-2.3-2.5c0-1.4,0.9-2.3,2.5-2.3c1.1,0,2.1,1.2,2.1,2.6
		C442.9,151.5,442,152.8,440.7,152.6z"/>
	<path fill="#69A087" d="M424.2,161.7c1.3,0,2.4,1,2.4,2.2c0,1.4-1.1,2.5-2.3,2.5c-1.3,0-2.3-1-2.3-2.3
		C422,162.6,422.8,161.7,424.2,161.7z"/>
	<path fill="#CF665E" d="M404.3,105.2c-1.2,0-2.4-1.2-2.4-2.4c0-1.1,1.1-2.3,2.3-2.3c1.3,0,2.5,1.1,2.5,2.3
		C406.6,104.1,405.6,105.2,404.3,105.2z"/>
	<path fill="#6DA189" d="M452.3,64.2c-0.5,0.8-1.1,1.5-2.1,1.6c-1.3,0.2-2.4-0.3-2.7-1.5c-0.3-1.3,0.6-2.8,1.8-2.9
		c0.7-0.1,1.3-0.1,2,0.3c0.5,0.4,0.9,0.8,0.9,1.5c0,0.2,0,0.5,0.3,0.5C452.9,64,452.5,64,452.3,64.2z"/>
	<path fill="#70A58D" d="M480.3,96.3c1.3,0,2.3,1.1,2.4,2.4c0,1.1-1.2,2.3-2.4,2.3c-1.3,0-2.5-1-2.5-2.3
		C477.8,97.6,479.2,96.3,480.3,96.3z"/>
	<path fill="#CE655C" d="M377.9,68.7c1.1,0,2.3,1.1,2.3,2.3c0,1.3-1.1,2.5-2.4,2.5c-1.2-0.1-2.3-1.2-2.3-2.5
		C375.6,69.7,376.6,68.7,377.9,68.7z"/>
	<path fill="#6EA68D" d="M490.4,113.2c-1.3,0-2.3-0.9-2.3-2.2c0-1.3,1.3-2.6,2.6-2.5c1.1,0.1,2.2,1.2,2.2,2.4
		C492.9,112,491.6,113.2,490.4,113.2z"/>
	<path fill="#6DA28A" d="M438.7,77.2c0.1,1.6-1.5,2.3-2.4,2.3c-1.3-0.1-2.3-1.4-2.2-2.7c0.1-1.1,1.3-2.1,2.7-1.9
		C437.8,74.7,438.7,76,438.7,77.2z"/>
	<path fill="#CA645D" d="M475.7,129.4c-1.5,0.1-2.3-1.2-2.4-2.5c-0.1-1,1.3-2.3,2.3-2.3c1.1,0,2.3,1.3,2.3,2.4
		C477.9,128.2,477,129.6,475.7,129.4z"/>
	<path fill="#70A58D" d="M393.3,77.9c1.1,0,2.3,1.1,2.3,2.3c0,1.1-1.3,2.4-2.5,2.4s-2.3-1-2.3-2.1C390.8,78.9,391.8,77.9,393.3,77.9
		z"/>
	<path fill="#659E85" d="M398.5,45.9c1.4,0,2.4,0.9,2.4,2.1c0,1.3-1.1,2.4-2.2,2.5c-1.4,0.1-2.5-1-2.5-2.5
		C396.2,46.9,397.3,45.9,398.5,45.9z"/>
	<path fill="#D1675D" d="M437.7,93.8c0-1.3,1.1-2.4,2.3-2.4c1,0,2.3,1.5,2.3,2.5c0,1.1-1.2,2.3-2.3,2.2
		C439,96.2,437.5,95.2,437.7,93.8z"/>
	<path fill="#619C83" d="M399.2,33.3c0,1.1-0.9,2.1-1.9,2.1c-1.5,0-2.7-1.1-2.5-2.7c0.1-1.3,0.6-1.9,2.1-1.9
		C398,30.8,399.5,31.6,399.2,33.3z"/>
	<path fill="#69A087" d="M373.9,53c1.3,0,2.4,1.1,2.4,2.5c-0.1,1-1.2,2.1-2.2,2.1c-1.3,0-2.4-1.3-2.4-2.6
		C371.7,53.8,372.7,53,373.9,53z"/>
	<path fill="#71A790" d="M372.6,109.6c-1.3,0-2.4-1.1-2.3-2.3c0-1.3,1.1-2.2,2.4-2.2c1.1,0,2.1,1,2.1,2.1
		C374.8,108.7,374,109.6,372.6,109.6z"/>
	<path fill="#6EA48B" d="M421,68.8c1.4,0,2.4,0.9,2.4,2.2c0,1.3-0.9,2.3-2.3,2.2c-1.1,0-2.2-1.2-2.2-2.2
		C418.9,69.7,419.7,68.8,421,68.8z"/>
	<path fill="#6DA28A" d="M397.9,143.3c1.3,0,2.1,0.9,2.1,2.1c0,1-0.8,2.4-2.2,2.3c-1.1-0.1-2.2-1.1-2.1-2.1
		C395.7,144.1,396.6,143.3,397.9,143.3z"/>
	<path fill="#629D84" d="M403.6,182.3c-1.2,0-2.1-0.9-2.1-2.1c-0.1-0.9,1-2.3,2.2-2.3c1.2,0,2.3,1.1,2.3,2.1
		C406,181.3,404.9,182.3,403.6,182.3z"/>
	<path fill="#69A289" d="M407.5,159.8c1.3,0.1,2.2,0.9,2.1,2.1c-0.1,1.1-1.3,2.5-2.4,2.4c-1.1,0-2.1-1.1-2.1-2.2
		C405.2,160.8,406.2,159.7,407.5,159.8z"/>
	<path fill="#CD655D" d="M368.5,89.4c0-1.3,0.8-2.1,2.1-2.1c1.5,0,2.3,0.9,2.3,2.5c0,1-1,1.9-2.1,1.9
		C369.5,91.8,368.5,90.8,368.5,89.4z"/>
	<path fill="#639D84" d="M432.9,180.1c-1.1,0-2.1-1.1-2.1-2.3c0-1.1,1.3-2.2,2.3-2.2c1.1,0,2.2,1.3,2.2,2.5
		C435.4,179,434,180.1,432.9,180.1z"/>
	<path fill="#6EA58C" d="M496.6,80.2c0-1.3,0.9-2.3,2.1-2.3c1.2,0,2.3,1.1,2.3,2.1c0,1.2-1.1,2.2-2.5,2.2
		C497.4,82.3,496.6,81.5,496.6,80.2z"/>
	<path fill="#6FA58C" d="M466,83.9c-1.4,0-2.5-1-2.5-2.3c0-1.1,0.9-2,2.1-2c1.3,0,2.4,1,2.4,2.2C468,83.1,467.2,83.9,466,83.9z"/>
	<path fill="#6FA68D" d="M394.6,148.6c0,1.3-1,1.8-2.3,1.9c-1.3,0.1-2.2-0.9-2.3-2.1c0-1.1,0.9-2.1,2.1-2.1
		C393.6,146.4,394.6,147.2,394.6,148.6z"/>
	<path fill="#619B82" d="M391.5,26.1c-1.2,0-2.1-0.9-2.1-2.2c0-1.1,1-2.1,2.1-2.1s2.3,1.1,2.3,2.1C393.8,25.1,392.8,26.1,391.5,26.1
		z"/>
	<path fill="#71A78E" d="M401.1,121.3c1.4,0,2.2,0.7,2.2,2c0,1.4-0.7,2.2-2,2.2s-2.2-0.9-2.2-2.2
		C399.1,121.9,399.7,121.3,401.1,121.3z"/>
	<path fill="#C9625A" d="M417.2,154.6c0,1.1-1.1,2.1-2.1,2.1c-1.2-0.1-2.1-1.1-2.1-2.6c0-0.9,1-1.8,2.2-1.7
		C416.4,152.4,417.3,153.4,417.2,154.6z"/>
	<path fill="#CF6860" d="M474.7,118.9c0,1.2-0.9,2-2.1,2c-0.9,0-2.2-0.9-2.1-2.4c0.1-1,0.9-1.9,1.9-1.9
		C473.8,116.5,474.7,117.4,474.7,118.9z"/>
	<path fill="#6AA289" d="M445.1,173c-1.2,0-1.9-0.8-1.9-2.2c0-1.1,1.1-2.1,2.2-2.1c1.1,0,2.1,1,2.1,2.2
		C447.4,172.1,446.4,173,445.1,173z"/>
	<path fill="#CF655B" d="M448.2,82.7c-1.2,0-2.5-1.1-2.5-2.1c0-1,1.1-2.2,2.1-2.2s2.3,1.1,2.3,2.1C450.1,81.7,449.5,82.7,448.2,82.7
		z"/>
	<path fill="#D0665A" d="M402,70.5c1.1,0,2,0.9,2.1,2c0,1.2-0.9,2.2-2.3,2.1c-1.1,0-2.1-0.9-2.1-2C399.7,71.5,400.8,70.5,402,70.5z"
		/>
	<path fill="#6CA48A" d="M357.1,73.4c1.3,0,2.1,0.9,2.1,2.3c0,1-1.1,2.1-2,2.1c-1.1,0-2.2-1.1-2.1-2.3
		C355.1,74.2,355.9,73.4,357.1,73.4z"/>
	<path fill="#639D84" d="M391.9,29.4c0,1.1-0.9,2.2-1.9,2.3c-0.9,0-2.2-1.4-2.2-2.5c0-1,1.1-2,2.1-1.9
		C390.9,27.4,391.9,28.2,391.9,29.4z"/>
	<path fill="#659F87" d="M461.5,33.3c0,1-0.9,2.1-1.7,2c-1.6-0.1-2.3-1.3-2.3-2.3c0-1.1,0.9-2.1,1.9-2.1
		C460.5,30.9,461.5,32,461.5,33.3z"/>
	<path fill="#73AA92" d="M345.1,117.9c0,1.2-0.7,1.9-1.9,1.9c-1.1,0-2.3-1.1-2.3-2.3c0-1,1-2.1,2-2
		C344.1,115.6,345.2,116.6,345.1,117.9z"/>
	<path fill="#CD6256" d="M431.6,53c0,1.3-0.9,2.3-1.9,2.3c-1.3,0-2.1-0.9-2.1-2.3c0-0.9,1-2.1,1.6-2.1C430.3,50.9,431.6,52,431.6,53
		z"/>
	<path fill="#D0685F" d="M358.7,92.7c1.3,0,2.3,0.9,2.2,2c-0.1,1.3-0.8,2.1-2.1,2.1c-1.1,0-2-1-2-2.1
		C356.8,93.5,357.6,92.7,358.7,92.7z"/>
	<path fill="#6FA68E" d="M348.1,86.6c-0.2-0.8-0.7-1.6-0.3-2.5c0.5-1,1.7-1.5,2.6-1.1c1.1,0.5,1.6,1.7,1.1,2.6
		c-0.6,1.3-1.5,1.7-2.7,1.1C348.6,86.7,348.4,86.5,348.1,86.6L348.1,86.6z"/>
	<path fill="#6CA48A" d="M394.8,161.8c-1.1,0-2.1-0.9-2.1-2c0-1,1.3-2.1,2.5-2.1c0.7,0,1.8,1.2,1.7,1.9
		C396.8,161.1,395.9,161.8,394.8,161.8z"/>
	<path fill="#72A78F" d="M352.6,108.7c0.1,1.5-0.8,1.9-2,2c-1.1,0.1-2-0.9-2.1-2.1c-0.1-1,0.9-2.1,2.1-2.1
		C351.8,106.6,352.7,107.5,352.6,108.7z"/>
	<path fill="#CD665C" d="M400.9,102.2c0,1-1.1,2.1-2.1,2.1c-1.1,0-2-0.9-2.1-2c0-1.1,1-2.1,1.9-2.1
		C399.7,100.2,400.8,101.2,400.9,102.2z"/>
	<path fill="#68A288" d="M396.8,167.7c1,0,2.2,1.1,2.2,1.9c0,1.1-1.3,2.2-2.5,2.2c-0.9,0-1.7-0.9-1.7-1.9
		C394.8,168.6,395.6,167.7,396.8,167.7z"/>
	<path fill="#6EA58C" d="M354.5,69.2c1.1,0,1.9,0.9,2,1.9c0.1,1.1-0.8,2.1-1.9,2.1c-1,0.1-2.2-1.1-2.3-2.1
		C352.3,70.2,353.3,69.2,354.5,69.2z"/>
	<path fill="#71A992" d="M344.1,121.1c1.3,0,2.1,0.8,2.1,2.3c0,0.9-0.9,1.6-1.8,1.7c-1.7,0.1-2.3-1-2.3-2.1
		C342.1,121.7,342.7,121.1,344.1,121.1z"/>
	<path fill="#679E86" d="M422.8,40.1c1.1,0,2.1,0.9,2.2,2c0.1,0.9-0.9,2.1-1.8,2.1c-1.1,0-2.3-1.1-2.3-2.2
		C420.8,40.8,421.5,40.2,422.8,40.1z"/>
	<path fill="#67A087" d="M473.2,39.4c1.5,0,2.1,0.8,2.1,2.5c0,0.9-1.1,1.5-2.4,1.5c-1,0-1.5-0.7-1.6-2.1
		C471.2,40.3,472.2,39.4,473.2,39.4z"/>
	<path fill="#6FA68D" d="M504.4,80.4c-1,0-2-1-2-1.9c0-1.1,1-2.3,2-2.3c1.1,0,2.1,1.1,2.1,2.1C506.5,79.3,505.4,80.4,504.4,80.4z"/>
	<path fill="#72A991" d="M495.3,123.3c0,1.3-1,2-2,2.1s-2-1.1-2-2.1c0-1,1-2,1.9-2C494.4,121.3,495.3,122.1,495.3,123.3z"/>
	<path fill="#CC645B" d="M502.2,93.5c0,1.1-0.9,1.9-1.9,1.9c-1.1,0-2.1-0.9-2.1-2.1c-0.1-0.9,1.1-1.9,2-1.9
		C501.3,91.4,502.2,92.4,502.2,93.5z"/>
	<path fill="#CE665C" d="M391.1,118.5c0,1.1-0.8,2-1.9,2.1c-1.1,0-2.1-1.1-2.1-2.1c0-0.9,1-1.9,1.8-1.9
		C390.1,116.5,391.1,117.4,391.1,118.5z"/>
	<path fill="#71A78E" d="M453.8,131.7c1,0,2.1,1,2,1.9c-0.1,1.1-0.7,2.1-2.2,2.1c-1.1,0-1.9-0.9-1.8-2.3
		C451.9,132.5,452.7,131.7,453.8,131.7z"/>
	<path fill="#71A890" d="M491.8,135.1c0-1.1,0.7-1.9,1.5-1.9c1.2,0,2.3,1,2.3,2c0,1.1-0.8,1.9-1.9,1.9
		C492.4,137.3,491.8,136.6,491.8,135.1z"/>
	<path fill="#619C83" d="M444,21.2c0-1.2,0.7-2,1.8-2c1.1,0,2,0.9,2.1,1.9c0,0.9-1.1,2.2-1.9,2.2C444.9,23.4,444,22.3,444,21.2z"/>
	<path fill="#CE6760" d="M346.4,106.5c-1.1,0.1-1.9-0.7-2-1.8c-0.1-0.9,0.8-1.9,1.7-2c1.3-0.1,2.2,0.7,2.3,1.8
		C348.4,105.7,347.8,106.4,346.4,106.5z"/>
	<path fill="#71A790" d="M490.1,124.6c0,1-0.9,1.9-1.9,1.9c-1.2-0.1-2.1-1.1-2-2.5c0-0.7,0.9-1.5,1.7-1.5
		C489,122.5,490.2,123.5,490.1,124.6z"/>
	<path fill="#CE665C" d="M414.1,62c0.2,1-0.7,1.9-2.1,1.9c-1.1,0-1.8-0.9-1.8-2.1c0-1,1-1.9,2.1-1.9C413.1,59.9,414.1,61.1,414.1,62
		z"/>
	<path fill="#6CA58C" d="M480.8,162.9c0,1.1-0.7,1.9-1.7,1.8c-1.1,0-2.1-0.9-2.1-2.1c0-0.9,0.7-1.8,1.9-1.9
		C479.9,160.7,480.8,161.8,480.8,162.9z"/>
	<path fill="#6DA48B" d="M493,70.5c0,0.9-1.1,2.1-2,2c-0.9,0-1.9-1.1-1.9-1.9c-0.1-1.1,0.9-2.1,2-2C492.4,68.6,493,69.2,493,70.5z"
		/>
	<path fill="#D16A61" d="M341.4,107.3c-1.2,0-2-0.8-2-2c0-1.1,0.8-1.9,2-1.9c1,0,1.8,0.9,1.8,2.1
		C343.2,106.5,342.5,107.3,341.4,107.3z"/>
	<path fill="#639D84" d="M438.1,34.9c0-1.2,0.7-1.9,1.7-1.9c1,0,1.9,0.9,1.9,1.9c0,1.1-1,2.2-1.9,2.2
		C439.1,37.1,438.1,35.9,438.1,34.9z"/>
	<path fill="#CF675E" d="M395.2,74.6c0-1.1,0.8-1.9,1.9-1.9c1.1,0,1.9,0.9,1.9,1.9c0,1.1-1,2-2,2C396.1,76.6,395.2,75.6,395.2,74.6z
		"/>
	<path fill="#72A890" d="M377,107.2c-1.1,0-1.9-0.7-1.9-1.7c0-1.3,0.7-2.1,1.8-2.1c0.9-0.1,1.9,1,1.9,1.7
		C378.9,106.2,378,107.2,377,107.2z"/>
	<path fill="#CD665F" d="M366.7,94.8c0.9,0,1.8,0.9,1.8,1.7c0,1.2-0.9,2.1-2.1,2.1c-1-0.1-1.9-1-1.9-1.9
		C364.7,95.7,365.7,94.7,366.7,94.8z"/>
	<path fill="#72A58D" d="M486.9,97.7c1,0,1.7,0.7,1.7,1.7c-0.1,1.1-0.9,1.9-2.1,1.9c-0.8,0.1-1.9-1.1-1.9-1.9
		C484.7,98.5,485.8,97.7,486.9,97.7z"/>
	<path fill="#CC645B" d="M372.2,82.5c1.1,0,1.7,0.7,1.7,1.9c0,1-0.8,1.9-1.8,1.9s-2.1-1-2.1-1.9C370.1,83.3,371,82.5,372.2,82.5z"/>
	<path fill="#CA655D" d="M462.1,145.7c1.1,0,2,0.9,2,1.9c0,0.9-1,1.9-2,1.9c-0.9,0-1.8-1-1.9-2C460.1,146.6,461,145.7,462.1,145.7z"
		/>
	<path fill="#70A891" d="M444,111c1.1,0,1.9,0.9,1.9,2.1c0,0.8-0.9,1.7-1.7,1.7c-1.4-0.1-2.3-0.8-2.2-1.9C442,111.8,443,111,444,111
		z"/>
	<path fill="#72A890" d="M456.3,107.7c1-0.2,1.8,0.8,1.8,2.1c0,0.9-0.9,1.7-1.8,1.7c-1,0-1.9-1-1.9-2
		C454.4,108.4,455.2,107.7,456.3,107.7z"/>
	<path fill="#69A086" d="M426.2,59.4c-1.3,0-1.9-0.9-2-2c0-0.8,1.1-1.7,2-1.6c0.9,0,1.8,0.9,1.8,1.8C428,58.5,427.1,59.4,426.2,59.4
		z"/>
	<path fill="#D1685E" d="M464.5,101.6c-0.1,1.1-0.8,1.9-1.9,1.9c-0.8-0.1-1.8-1.1-1.8-1.9c0-1,1-2,1.9-1.9
		C463.7,99.7,464.5,100.6,464.5,101.6z"/>
	<path fill="#6FA78E" d="M374.4,156.5c0,1.1-0.9,2.1-2,2.1c-0.8,0-1.6-0.9-1.7-1.8c0-1.1,0.8-2,1.8-2
		C373.6,154.9,374.4,155.6,374.4,156.5z"/>
	<path fill="#70A78E" d="M454,106.5c0,0.9-0.9,1.8-1.7,1.9c-1,0-2.1-1.1-2.1-2.2c0-0.7,1-1.5,1.9-1.5
		C453,104.6,453.9,105.4,454,106.5z"/>
	<path fill="#D1675C" d="M437.4,91c0,1.1-0.6,1.7-1.7,1.7c-1,0-1.9-0.9-1.9-1.9c0-0.9,0.9-1.9,1.8-1.7
		C436.7,89.1,437.5,89.8,437.4,91z"/>
	<path fill="#CF6458" d="M452,57.6c0,1.1-0.7,1.8-1.8,1.8c-1.1,0-1.7-0.7-1.7-1.8c0-1.1,0.7-1.9,1.7-1.9
		C451.3,55.7,452,56.4,452,57.6z"/>
	<path fill="#D36D61" d="M436.3,101c1.3-0.1,1.9,0.9,1.9,1.9s-0.5,1.7-1.8,1.7c-1,0-1.8-0.8-1.9-1.8
		C434.4,102,435.3,100.9,436.3,101z"/>
	<path fill="#70A58D" d="M437.1,68c0,1.2-0.6,1.8-1.7,1.8c-1.1,0-1.7-0.7-1.7-1.9c0-1.1,0.7-1.9,1.9-1.8
		C436.5,66.2,437.2,66.9,437.1,68z"/>
	<path fill="#72A790" d="M360.4,104.1c1.1,0,1.8,0.7,1.8,1.8c0,1.1-0.7,1.8-1.8,1.8c-0.9,0-1.9-0.9-1.9-1.9
		C358.5,104.8,359.3,104,360.4,104.1z"/>
	<path fill="#619B82" d="M414.2,18.7c-0.8,0-1.6-1.1-1.6-2c0-1,0.8-1.8,1.7-1.8c0.9,0,1.7,0.7,1.7,1.7
		C416.1,17.9,415.4,18.7,414.2,18.7z"/>
	<path fill="#70A890" d="M489.2,142.1c1.1,0,1.7,0.7,1.7,1.9c0,0.8-0.8,1.7-1.8,1.7c-0.8,0.1-1.9-1.1-1.9-1.9
		C487.3,143,488.2,142.1,489.2,142.1z"/>
	<path fill="#67A087" d="M361.9,47.4c-1.1,0-1.8-0.7-1.8-1.8c0-1,0.9-1.9,1.7-1.9c0.9,0.1,1.8,1,1.8,1.9
		C363.7,46.5,362.9,47.4,361.9,47.4z"/>
	<path fill="#6EA68E" d="M453.5,101.4c0,0.9-0.7,1.7-1.6,1.7c-0.9,0-2.1-1-2.1-1.9c0-1,0.9-1.8,1.9-1.8
		C452.7,99.4,453.5,100.3,453.5,101.4z"/>
	<path fill="#CD645B" d="M383,71.9c-1.1,0-1.9-0.7-1.9-1.7c0-1,0.7-1.8,1.7-1.8s2,0.9,2,2C384.9,71.2,384,71.9,383,71.9z"/>
	<path fill="#69A38A" d="M478.8,58.9c1,0,1.7,0.8,1.7,1.9c0,1-0.8,1.7-1.9,1.7c-0.9,0-1.7-0.7-1.7-1.7
		C476.9,59.7,477.8,58.9,478.8,58.9z"/>
	<path fill="#C9635C" d="M441.8,155.9c0,1.1-0.7,1.8-1.7,1.8c-0.9,0-1.8-0.8-1.8-1.6c0-1.5,0.5-2,1.8-2
		C441.1,154.1,441.8,154.8,441.8,155.9z"/>
	<path fill="#6AA289" d="M385.7,58.2c0-1,0.8-1.7,1.9-1.7c0.9,0,1.7,0.8,1.7,1.7c0,0.9-0.9,1.9-1.9,1.9
		C386.6,60,385.7,59.2,385.7,58.2z"/>
	<path fill="#68A187" d="M394.9,53c0-1.1,0.7-1.7,1.7-1.7c1.1,0,1.7,0.7,1.7,1.9c0,0.9-0.7,1.8-1.5,1.8C395.8,55,394.9,54,394.9,53z
		"/>
	<path fill="#73A790" d="M357.6,107.6c-0.1,1.1-0.7,1.7-1.7,1.7c-1.2-0.1-1.8-0.8-1.8-2c0.1-0.9,0.8-1.7,1.7-1.6
		C356.9,105.8,357.7,106.6,357.6,107.6z"/>
	<path fill="#CD655C" d="M381.6,127.4c-1,0-1.7-0.7-1.7-1.7c0-0.9,0.7-1.7,1.5-1.8c1.1,0,1.9,0.8,1.9,1.8
		C383.3,126.6,382.6,127.4,381.6,127.4z"/>
	<path fill="#6BA38A" d="M452.1,163.5c-1.1,0-1.9-0.8-1.8-2c0-0.7,1-1.5,1.8-1.5c0.9,0,1.9,0.9,1.9,1.7
		C454,162.6,452.9,163.5,452.1,163.5z"/>
	<path fill="#CE675F" d="M469.4,113.6c0-1.1,0.9-1.9,2-1.9c0.8,0,1.5,0.8,1.5,1.7c0,0.9-1.1,1.9-1.9,1.9
		C470,115.2,469.4,114.6,469.4,113.6z"/>
	<path fill="#D06761" d="M474.4,95.4c0.9,0,1.7,0.8,1.7,1.7c0,1-0.8,1.9-1.7,1.9c-1.1,0-1.8-0.9-1.7-2.1
		C472.7,96.1,473.5,95.4,474.4,95.4z"/>
	<path fill="#CD645C" d="M458.3,52.2c0.9,0,1.8,0.7,1.8,1.7s-0.9,1.9-1.8,1.9c-0.9,0-1.8-1.1-1.7-1.9
		C456.6,52.8,457.3,52.2,458.3,52.2z"/>
	<path fill="#D0675F" d="M437.4,99c0-0.9,0.9-1.8,1.7-1.8c1,0,1.7,0.8,1.7,1.7c-0.1,1.2-0.6,1.9-1.7,1.9
		C438.3,100.8,437.3,99.9,437.4,99z"/>
	<path fill="#69A087" d="M446.2,43.8c0,1-0.9,2-1.9,1.9c-0.9-0.1-1.6-0.9-1.7-1.9c0-0.9,1-1.8,1.9-1.7
		C445.3,42.1,446.2,43,446.2,43.8z"/>
	<path fill="#619B83" d="M426.9,23.3c0,0.9-0.6,1.6-1.4,1.7c-1.1,0-2-0.9-2-1.9c0-1,0.6-1.7,1.5-1.7
		C426.2,21.5,426.9,22.1,426.9,23.3z"/>
	<path fill="#70A58D" d="M478.6,82.7c0,1-0.8,1.9-1.7,1.8c-1.1-0.1-1.6-0.3-1.6-1.7c-0.1-1,0.7-1.9,1.6-1.8
		C477.8,81,478.5,81.7,478.6,82.7z"/>
	<path fill="#CB645F" d="M407.4,137c0,1.1-0.7,1.8-1.7,1.8c-0.8,0-1.7-1.1-1.7-2.1c0-0.8,0.7-1.5,1.6-1.5
		C406.4,135.1,407.4,136,407.4,137z"/>
	<path fill="#CF675F" d="M454,75.4c0-0.7,0.9-1.7,1.5-1.7c0.7,0,2,1.1,2,1.6c0,1-0.8,1.9-1.7,1.9C454.7,77.3,454,76.5,454,75.4z"/>
	<path fill="#6DA389" d="M426.9,67.3c-1.3-0.1-1.7-0.6-1.6-1.8c0.1-0.9,0.8-1.7,1.7-1.6c0.9,0.1,1.7,1,1.6,2
		C428.6,66.8,427.9,67.4,426.9,67.3z"/>
	<path fill="#72A992" d="M493.7,147.9c-1,0-1.7-0.7-1.7-1.9c0-0.9,0.6-1.4,1.5-1.4c0.9,0,1.9,0.9,1.9,1.9
		C495.4,147.3,494.7,147.8,493.7,147.9z"/>
	<path fill="#70A48C" d="M376.1,83.3c0-1.3,0.5-1.7,1.8-1.7c0.9,0,1.5,0.6,1.5,1.5c0,1.1-0.8,1.7-2,1.7
		C376.5,84.8,376.1,84.3,376.1,83.3z"/>
	<path fill="#71A78F" d="M453.1,128.8c0-1,0.6-1.6,1.6-1.6s1.8,0.9,1.7,1.9c0,0.9-0.8,1.5-1.6,1.5
		C453.8,130.7,453.1,129.9,453.1,128.8z"/>
	<path fill="#659E85" d="M406.6,38.6c0,0.9-0.7,1.8-1.6,1.7c-0.9,0-1.7-0.9-1.6-1.9c0-0.9,0.9-1.8,1.7-1.7
		C406,36.7,406.7,37.6,406.6,38.6z"/>
	<path fill="#D16860" d="M466.5,97.2c0,0.8-0.9,1.6-1.7,1.7c-0.8,0.1-1.7-0.9-1.7-1.8s0.7-1.6,1.5-1.7
		C465.6,95.4,466.5,96.3,466.5,97.2z"/>
	<path fill="#CC655E" d="M464.7,138.9c-0.9,0.1-1.6-0.5-1.7-1.3c-0.1-0.9,0.8-1.9,1.7-2c0.9-0.1,1.7,0.6,1.7,1.5
		C466.6,138.3,466.1,138.8,464.7,138.9z"/>
	<path fill="#6BA389" d="M360.2,61.9c0-0.9,0.7-1.7,1.7-1.6c0.9,0,1.6,0.9,1.6,1.8c0,1.1-0.8,1.7-1.9,1.7
		C360.8,63.8,360.2,63,360.2,61.9z"/>
	<path fill="#C9645C" d="M408.6,140.3c0-0.9,0.7-1.6,1.7-1.7c0.9-0.1,1.7,0.7,1.6,1.8c0,0.9-0.7,1.6-1.5,1.7
		C409.3,142.2,408.6,141.5,408.6,140.3z"/>
	<path fill="#CA645B" d="M427.4,150.8c0,0.8-0.7,1.6-1.5,1.5c-0.9-0.1-1.9-0.5-1.9-1.5c0.1-0.9,0.8-1.9,1.7-1.9
		C426.7,149,427.4,149.7,427.4,150.8z"/>
	<path fill="#619C84" d="M418.8,24.9c0-0.8,0.8-1.6,1.6-1.6s1.6,0.9,1.6,1.8c0,0.8-0.7,1.7-1.4,1.7C419.7,26.9,418.8,26,418.8,24.9z
		"/>
	<path fill="#73A790" d="M395.4,114.8c-0.1,1-0.9,1.7-1.8,1.7c-0.7-0.1-1.7-0.9-1.7-1.6c0-0.9,0.9-1.7,1.9-1.6
		C394.7,113.4,395.4,114,395.4,114.8z"/>
	<path fill="#73A891" d="M451.5,124.5c0-0.9,0.7-1.7,1.5-1.7c0.8,0,1.7,1,1.7,1.8s-0.8,1.5-1.6,1.5
		C452.3,126.2,451.5,125.4,451.5,124.5z"/>
	<path fill="#72A68E" d="M394.1,94.3c-1.1-0.1-1.7-0.8-1.7-1.9c0.1-0.8,0.9-1.3,1.9-1.4c0.7,0,1.4,0.7,1.4,1.7
		C395.7,93.6,394.9,94.4,394.1,94.3z"/>
	<path fill="#72A68E" d="M438.1,72.1c0,1.1-0.5,1.7-1.6,1.7c-0.9,0-1.5-0.7-1.5-1.6c0-1.1,0.6-1.7,1.5-1.7
		C437.4,70.5,438.1,71.1,438.1,72.1z"/>
	<path fill="#71A78E" d="M447.5,90.8c0,0.9-0.7,1.6-1.6,1.6c-0.9,0-1.7-0.7-1.7-1.5c0.1-1,0.4-1.7,1.5-1.8
		C446.8,89.1,447.5,89.8,447.5,90.8z"/>
	<path fill="#68A187" d="M476.6,44.2c0-1.1,0.7-1.9,1.7-1.9c0.7,0,1.5,0.9,1.5,1.7c0,0.9-0.9,1.7-1.7,1.7
		C477.2,45.7,476.6,45.1,476.6,44.2z"/>
	<path fill="#D16961" d="M482.8,94.6c0-0.9,0.6-1.6,1.4-1.6c0.9,0,1.8,0.7,1.8,1.6c0,0.8-0.9,1.7-1.7,1.7
		C483.5,96.3,482.8,95.5,482.8,94.6z"/>
	<path fill="#6EA58C" d="M395.8,166.3c0,0.9-0.7,1.6-1.5,1.5c-0.9,0-1.7-0.7-1.7-1.6c0-0.8,0.8-1.6,1.7-1.6
		C395.2,164.6,395.8,165.4,395.8,166.3z"/>
	<path fill="#72A991" d="M483.3,115.4c-1,0-1.7-0.6-1.7-1.6c0-0.8,0.7-1.5,1.6-1.5c0.9,0,1.6,0.6,1.6,1.4
		C484.9,114.7,484.2,115.4,483.3,115.4z"/>
	<path fill="#D06A5F" d="M420.5,103.3c0-0.9,0.7-1.6,1.5-1.6s1.6,0.9,1.6,1.7c0,0.7-0.9,1.7-1.7,1.7
		C421.2,105,420.5,104.1,420.5,103.3z"/>
	<path fill="#D26C61" d="M506.7,102.8c-0.8,0-1.4-0.7-1.5-1.7c0-0.8,0.6-1.5,1.4-1.5c1-0.1,1.7,0.6,1.8,1.6
		C508.5,102.1,507.8,102.7,506.7,102.8z"/>
	<path fill="#73A992" d="M448.8,136.2c-0.9,0-1.6-0.6-1.6-1.5c0-1.1,0.5-1.6,1.5-1.6c0.9,0,1.7,0.7,1.6,1.7
		C450.3,135.6,449.7,136.2,448.8,136.2z"/>
	<path fill="#71A68E" d="M477.8,102.4c0,0.9-0.7,1.7-1.5,1.7c-0.8,0-1.5-0.7-1.5-1.5c0-0.9,0.9-1.7,1.9-1.7
		C477.3,100.9,477.8,101.5,477.8,102.4z"/>
	<path fill="#6AA289" d="M436.9,168.3c-0.9,0-1.5-0.6-1.5-1.5c0-0.9,0.8-1.6,1.7-1.6c0.6,0,1.4,0.9,1.4,1.5
		C438.6,167.5,437.8,168.3,436.9,168.3z"/>
	<path fill="#679F86" d="M427.5,177c0,0.9-0.7,1.6-1.5,1.5c-0.7,0-1.5-0.9-1.5-1.6s0.9-1.7,1.5-1.7
		C426.9,175.3,427.5,176.1,427.5,177z"/>
	<path fill="#6FA58B" d="M409.8,168.1c-0.9,0-1.5-0.7-1.5-1.6c0-0.8,0.7-1.5,1.5-1.4c1,0,1.7,0.7,1.7,1.6
		C411.5,167.4,410.4,168.2,409.8,168.1z"/>
	<path fill="#649D84" d="M434.6,181.9c0.9,0,1.3,0.5,1.3,1.4c0,0.9-0.7,1.7-1.6,1.7c-0.8,0-1.5-0.8-1.5-1.7
		C432.9,182.5,433.7,181.9,434.6,181.9z"/>
	<path fill="#73A78F" d="M504,106.3c-0.7,0-1.5-0.7-1.5-1.3c0-0.7,1.1-1.7,1.8-1.7c0.7,0,1.4,0.8,1.4,1.5
		C505.6,105.6,504.9,106.3,504,106.3z"/>
	<path fill="#72A790" d="M431.3,138.5c0.8,0.1,1.5,0.9,1.4,1.8c-0.1,0.5-0.9,1.3-1.5,1.3c-0.9-0.1-1.7-0.8-1.6-1.7
		C429.6,139.1,430.5,138.4,431.3,138.5z"/>
	<path fill="#71A38C" d="M447.8,60.8c-0.1,1.2-0.4,1.4-1.9,1.3c-0.5,0-1.2-0.9-1.2-1.5c0-0.7,1-1.5,1.8-1.5
		C447.3,59.3,447.9,60,447.8,60.8z"/>
	<path fill="#CF6961" d="M406.5,108.3c0,0.7-0.8,1.4-1.6,1.3c-0.8,0-1.5-0.7-1.5-1.6c0-0.7,0.8-1.5,1.5-1.5
		C405.7,106.5,406.5,107.4,406.5,108.3z"/>
	<path fill="#6BA38A" d="M497.1,57.9c0,0.7-0.8,1.4-1.5,1.5c-0.7,0-1.5-0.7-1.5-1.5c0-0.8,0.7-1.5,1.5-1.5
		C496.3,56.3,497.1,57.2,497.1,57.9z"/>
	<path fill="#6CA48A" d="M363.9,64.2c0-0.7,0.7-1.3,1.5-1.3c0.9,0,1.5,0.6,1.5,1.6c0,0.9-0.5,1.5-1.3,1.5
		C364.7,66,363.9,65.1,363.9,64.2z"/>
	<path fill="#6CA58B" d="M467,165.4c-0.8,0-1.5-0.7-1.6-1.6c-0.1-0.7,0.7-1.4,1.4-1.4c0.9-0.1,1.5,0.6,1.6,1.6
		C468.5,164.7,467.8,165.4,467,165.4z"/>
	<path fill="#75AA94" d="M507.2,105.2c0-0.8,0.7-1.5,1.6-1.5c0.7,0,1.5,0.7,1.5,1.3c0,0.9-0.7,1.7-1.7,1.7
		C507.7,106.7,507.2,106.1,507.2,105.2z"/>
	<path fill="#72A892" d="M479,134.5c1,0,1.4,0.5,1.4,1.5c0,0.8-0.7,1.5-1.5,1.5c-0.7,0-1.5-0.7-1.4-1.5
		C477.5,135.1,478.2,134.5,479,134.5z"/>
	<path fill="#6DA38B" d="M419.9,93.2c0.8,0,1.5,0.7,1.5,1.4c0,0.9-0.6,1.5-1.5,1.5c-0.8,0.1-1.4-0.6-1.4-1.6
		C418.5,93.8,419,93.2,419.9,93.2z"/>
	<path fill="#6FA58C" d="M417.1,94.1c0,0.9-0.5,1.4-1.2,1.4c-0.9,0-1.7-0.8-1.7-1.6c0-0.7,0.8-1.5,1.3-1.5
		C416.3,92.2,417.1,93.1,417.1,94.1z"/>
	<path fill="#CE6960" d="M425,112.8c0-0.9,0.6-1.5,1.5-1.5c0.7,0,1.4,0.8,1.4,1.5c0,0.8-0.6,1.5-1.3,1.5
		C425.6,114.4,425,113.8,425,112.8z"/>
	<path fill="#69A188" d="M370.8,37.3c0,0.9-0.7,1.7-1.3,1.7c-0.8-0.1-1.5-0.9-1.4-1.9c0-0.8,0.6-1.4,1.4-1.3
		C370.2,35.8,370.8,36.5,370.8,37.3z"/>
	<path fill="#649E85" d="M458.2,22.2c0.7,0,1.4,0.7,1.5,1.3c0,0.7-0.9,1.6-1.7,1.5c-0.7,0-1.3-0.7-1.4-1.4
		C456.6,23.1,457.5,22.2,458.2,22.2z"/>
	<path fill="#72A48D" d="M407.2,149.6c0,0.7-0.8,1.4-1.5,1.4c-0.7,0-1.5-0.7-1.5-1.3c0-0.7,0.8-1.5,1.5-1.6
		C406.5,148.2,407.2,148.8,407.2,149.6z"/>
	<path fill="#71A890" d="M358.4,122.9c0.9,0,1.4,0.5,1.4,1.5c0,0.8-0.6,1.4-1.4,1.4c-0.6,0-1.5-0.9-1.5-1.5
		C357,123.4,357.6,122.9,358.4,122.9z"/>
	<path fill="#6FA68D" d="M415.1,73.1c0.7,0,1.4,0.7,1.4,1.5c0,0.7-0.9,1.5-1.6,1.5c-0.7,0-1.3-0.6-1.3-1.4
		C413.5,73.9,414.3,73.1,415.1,73.1z"/>
	<path fill="#67A086" d="M465.2,35.6c0,0.9-0.7,1.5-1.5,1.5c-0.7,0-1.4-0.7-1.4-1.5c0-0.7,0.8-1.4,1.5-1.4
		C464.5,34.2,465.2,34.9,465.2,35.6z"/>
	<path fill="#72AA93" d="M369.5,116.2c0-0.7,0.7-1.3,1.4-1.3c0.6,0,1.5,0.9,1.5,1.5c0,0.6-0.7,1.3-1.2,1.3
		C370.2,117.7,369.5,117,369.5,116.2z"/>
	<path fill="#689F86" d="M425.5,43.8c0-0.8,0.5-1.3,1.2-1.3c0.8,0,1.5,0.7,1.5,1.5c0,0.7-0.5,1.3-1.2,1.4
		C426.2,45.5,425.5,44.7,425.5,43.8z"/>
	<path fill="#72A68D" d="M488.7,81.9c0.9,0,1.3,0.5,1.3,1.4c0,0.7-0.9,1.5-1.5,1.5c-0.5,0-1.3-0.9-1.2-1.5
		C487.3,82.4,487.9,81.9,488.7,81.9z"/>
	<path fill="#73A78E" d="M366.7,71.3c0,0.7-0.6,1.3-1.2,1.3c-0.7,0-1.5-0.7-1.5-1.5c0-0.7,0.6-1.3,1.3-1.3
		C366,69.9,366.7,70.6,366.7,71.3z"/>
	<path fill="#6EA48C" d="M404.5,158.7c-0.1,0.9-0.7,1.5-1.5,1.4c-0.7-0.1-1.3-0.8-1.3-1.4c0.1-0.7,0.9-1.3,1.5-1.3
		C404.1,157.5,404.6,158,404.5,158.7z"/>
	<path fill="#73A991" d="M360.8,145c-0.9,0-1.5-0.5-1.5-1.3c0-0.7,0.6-1.2,1.4-1.2s1.5,0.6,1.5,1.3C362.2,144.5,361.7,145,360.8,145
		z"/>
	<path fill="#71A68E" d="M493.8,65.2c0.7,0,1.3,0.6,1.3,1.3c0,0.7-0.7,1.5-1.3,1.5c-0.6,0-1.2-0.7-1.2-1.3
		C492.5,65.9,493.1,65.2,493.8,65.2z"/>
	<path fill="#74A790" d="M396.5,126.3c0-0.8,0.5-1.4,1.2-1.4c0.6,0,1.3,0.8,1.3,1.5c0,0.7-0.7,1.3-1.3,1.3
		C397,127.8,396.5,127.2,396.5,126.3z"/>
	<path fill="#669E85" d="M409.7,34.8c-0.5,0-1.4-0.8-1.4-1.3c0-0.8,0.6-1.5,1.4-1.5c0.9,0,1.3,0.5,1.2,1.4
		C410.9,34.1,410.2,34.8,409.7,34.8z"/>
	<path fill="#74AA93" d="M349.7,113.3c0,0.7-0.4,1.1-1.1,1.1c-0.9,0-1.5-0.6-1.5-1.4c0-0.7,0.7-1.3,1.4-1.2
		C349.2,111.8,349.7,112.4,349.7,113.3z"/>
	<path fill="#68A087" d="M400.5,37.5c-0.9-0.1-1.5-0.6-1.4-1.3c0.1-0.7,0.6-1.3,1.3-1.3c0.6,0,1.3,0.8,1.3,1.4
		C401.6,37.1,401.2,37.5,400.5,37.5z"/>
	<path fill="#6BA189" d="M375.4,51.2c0-0.8,0.5-1.3,1.2-1.3c0.6,0.1,1.3,0.7,1.2,1.3c0,0.7-0.7,1.3-1.2,1.3
		C375.8,52.6,375.4,52.1,375.4,51.2z"/>
	<path fill="#70A58E" d="M427.1,79.1c0,0.8-0.5,1.3-1.1,1.2c-0.7,0-1.3-0.6-1.3-1.4c0-0.7,0.5-1.1,1.3-1.1
		C426.5,77.7,427.1,78.4,427.1,79.1z"/>
	<path fill="#71A58E" d="M488.4,73.1c0,0.9-0.3,1.3-1.3,1.3c-0.7,0-1.1-0.5-1.1-1.2c0-0.8,0.5-1.4,1.3-1.4
		C488.1,71.7,488.4,72.1,488.4,73.1z"/>
	<path fill="#6EA58C" d="M455,179.8c-0.6,0-1.4-0.7-1.4-1.3c0-0.5,0.7-1.3,1.2-1.3c0.7,0,1.3,0.7,1.3,1.4
		C456.2,179.3,455.7,179.8,455,179.8z"/>
	<path fill="#78A993" d="M449.5,143.8c0,0.7-0.5,1.3-1.1,1.3s-1.3-0.7-1.3-1.3c0-0.8,0.5-1.3,1.3-1.3
		C448.9,142.5,449.5,143.1,449.5,143.8z"/>
	<path fill="#6FA58D" d="M351.9,80.9c0,0.7-0.5,1.3-1.1,1.3s-1.4-0.9-1.4-1.5c0-0.6,0.5-1.1,1.3-1.1
		C351.3,79.7,351.9,80.3,351.9,80.9z"/>
	<path fill="#689F87" d="M432.1,27.2c0,0.7-0.6,1.4-1.2,1.4s-1.3-0.7-1.3-1.5c0-0.6,0.5-1.1,1.2-1.1
		C431.6,26.1,432.1,26.5,432.1,27.2z"/>
	<path fill="#73A78F" d="M407,79.2c0,0.7-0.5,1.3-1.2,1.3c-0.6,0-1.2-0.7-1.2-1.3c0-0.7,0.5-1.2,1.2-1.2S407,78.4,407,79.2z"/>
	<path fill="#74A78F" d="M348.4,94.1c0.7,0,1.3,0.5,1.3,1.3c0,0.7-0.5,1.2-1.2,1.2c-0.6,0-1.4-0.8-1.3-1.3
		C347.2,94.6,347.7,94.1,348.4,94.1z"/>
	<path fill="#73AA92" d="M436.1,130.7c0.7,0,1.2,0.5,1.1,1.2c0,0.7-0.5,1.3-1.2,1.3c-0.7,0-1.1-0.5-1.1-1.3
		C434.8,131.1,435.3,130.7,436.1,130.7z"/>
	<path fill="#69A088" d="M382,42.7c0,0.7-0.5,1.3-1.2,1.4c-0.6,0.1-1.1-0.5-1.2-1.3c-0.1-0.7,0.5-1.3,1.1-1.3S382,42,382,42.7z"/>
	<path fill="#6EA38B" d="M418.1,37.5c0,0.7-0.5,1.3-1.1,1.3c-0.6,0-1.3-0.7-1.3-1.3c0-0.6,0.6-1.3,1.1-1.2
		C417.5,36.3,418.1,36.9,418.1,37.5z"/>
	<path fill="#73A68E" d="M389.1,97.1c0,0.6-0.5,1.2-1.1,1.2c-0.7,0-1.4-0.7-1.4-1.4c0-0.5,0.7-1.1,1.3-1.1
		C388.5,95.9,389.1,96.5,389.1,97.1z"/>
	<path fill="#70A58C" d="M466.7,70.9c0,0.5-0.6,1.3-1.1,1.3s-1.2-0.7-1.3-1.3c0-0.7,0.5-1.2,1.1-1.3
		C466.2,69.7,466.6,70.2,466.7,70.9z"/>
	<path fill="#69A188" d="M395.5,36.4c0.7,0,1.2,0.7,1.2,1.5c0,0.7-0.5,1.1-1.2,1.1c-0.6,0-1.1-0.6-1.1-1.3
		C394.4,36.9,394.9,36.4,395.5,36.4z"/>
	<path fill="#6EA189" d="M419.7,56.8c0-0.7,0.5-1.3,1.3-1.3c0.6,0,1.1,0.5,1.1,1.2c0,0.6-0.7,1.3-1.3,1.3
		C420.3,58.1,419.7,57.4,419.7,56.8z"/>
	<path fill="#669E85" d="M419.4,175.2c-0.6,0-1.1-0.5-1.1-1.1c0-0.7,0.5-1.3,1.3-1.3c0.6,0,1.1,0.4,1.1,1
		C420.6,174.7,420.2,175.1,419.4,175.2z"/>
	<path fill="#74A891" d="M444.6,98.5c0,0.6-0.5,1.1-1.2,1.2c-0.6,0-1.2-0.5-1.2-1.1c0-0.7,0.5-1.3,1.2-1.3
		C444,97.3,444.6,97.9,444.6,98.5z"/>
	<path fill="#77AB96" d="M376.5,135.6c0.7,0,1.1,0.4,1.1,1.2c0,0.6-0.6,1.1-1.3,1.1c-0.5,0-1.1-0.5-1.1-1.1
		C375.1,136.1,375.7,135.6,376.5,135.6z"/>
	<path fill="#679F87" d="M395.4,29.1c0,0.7-0.3,1.1-0.9,1.1c-0.7,0.1-1.3-0.5-1.3-1.3c0-0.7,0.4-1.1,1.1-1.1
		C395,27.8,395.4,28.3,395.4,29.1z"/>
	<path fill="#76A890" d="M381,108.7c-0.7,0-1.2-0.5-1.2-1c0-0.7,0.5-1.3,1.3-1.3c0.7,0,1.1,0.5,1.2,1.1
		C382.2,108,381.6,108.7,381,108.7z"/>
	<path fill="#73A990" d="M478,153.6c0,0.6-0.5,1.1-1.1,1.1c-0.7,0-1.3-0.5-1.2-1.1c0-0.7,0.5-1.3,1.1-1.3
		C477.3,152.4,478,153.1,478,153.6z"/>
	<path fill="#70A890" d="M356.9,138c0.8,0,1.1,0.3,1.1,1c0,0.7-0.6,1.3-1.2,1.3s-1.2-0.7-1.2-1.3C355.6,138.4,356.1,138,356.9,138z"
		/>
	<path fill="#6FA189" d="M403.9,58.8c0,0.5-0.5,1.1-1.1,1.1c-0.7,0-1.2-0.6-1.2-1.3c0-0.5,0.5-1.1,1-1.1
		C403.3,57.5,403.9,58.1,403.9,58.8z"/>
	<path fill="#72A991" d="M355.3,149.7c0,0.6-0.5,1.1-1.1,1.1c-0.7,0-1.3-0.6-1.3-1.3c0-0.6,0.5-1.1,1.2-1.1S355.3,149,355.3,149.7z"
		/>
	<path fill="#74AA93" d="M347.5,132.5c0.8,0,1.2,0.4,1.2,1c0,0.5-0.8,1.2-1.4,1.2c-0.5,0-1.1-0.6-1.1-1.2
		C346.3,132.9,346.8,132.5,347.5,132.5z"/>
	<path fill="#75A991" d="M459.4,86.9c0.7,0,1.2,0.5,1.2,1.2c0,0.7-0.5,1.1-1.1,1.1c-0.7,0-1.2-0.5-1.2-1.2
		C458.3,87.3,458.7,86.9,459.4,86.9z"/>
	<path fill="#73A791" d="M416.4,125.2c-0.7,0-1.1-0.4-1.1-1.1c0-0.7,0.5-1.3,1.1-1.3c0.5,0,1.2,0.7,1.2,1.3
		C417.6,124.7,417,125.2,416.4,125.2z"/>
	<path fill="#69A088" d="M424.3,174c0,0.6-0.5,1.1-1.1,1.1s-1.1-0.5-1.1-1.1c0-0.7,0.6-1.3,1.3-1.3
		C423.9,172.7,424.3,173.4,424.3,174z"/>
	<path fill="#74A992" d="M487.7,128.1c0,0.7-0.3,1.1-1.1,1.1c-0.6,0-1.1-0.5-1.1-1.1c0-0.7,0.4-1.2,1-1.2
		C487.1,126.9,487.7,127.4,487.7,128.1z"/>
	<path fill="#639D84" d="M427.4,16.7c0,0.6-0.5,1.2-1.1,1.2c-0.5,0-1-0.6-1.1-1.2c0-0.7,0.5-1.3,1-1.3
		C427,15.4,427.4,15.9,427.4,16.7z"/>
	<path fill="#74AA92" d="M372.2,144.1c0.9-0.1,1.1,0.5,1.1,1c0.1,0.6-0.5,1.1-1,1.2c-0.7,0-1.3-0.4-1.3-1
		C371,144.6,371.6,144.1,372.2,144.1z"/>
	<path fill="#6EA58C" d="M484.3,41c0,0.6-0.6,1.3-1.2,1.2c-0.6-0.1-0.9-0.5-1.1-1.1c-0.1-0.7,0.5-1.3,1.1-1.3
		C483.8,40,484.3,40.4,484.3,41z"/>
	<path fill="#67A087" d="M386.8,24.6c0.7,0,1.1,0.3,1.1,1c0,0.8-0.4,1.3-1.1,1.3c-0.7,0-1.2-0.6-1.2-1.3
		C385.6,25.1,386.2,24.6,386.8,24.6z"/>
	<path fill="#74A993" d="M352.1,127.3c-0.8,0-1.1-0.4-1.1-1.1c0-0.6,0.5-1.1,1.1-1.1c0.7,0,1.3,0.5,1.3,1.3
		C353.3,127.2,352.7,127.4,352.1,127.3z"/>
	<path fill="#75A68F" d="M428.1,147.7c0-0.5,0.5-1.1,1.1-1.2c0.5-0.1,1.1,0.5,1.1,1.1c0.1,0.7-0.4,1.3-1,1.3
		C428.7,148.9,428.1,148.3,428.1,147.7z"/>
	<path fill="#75AB93" d="M441.2,117c-0.8,0-1.4-0.5-1.5-1.1c0-0.6,0.5-1.2,1-1.2c0.5,0,1.3,0.7,1.3,1.3
		C442,116.5,441.7,117,441.2,117z"/>
	<path fill="#74AA93" d="M377.2,143c0,0.5-0.6,1.2-1.1,1.2c-0.5,0-1.2-0.7-1.2-1.2s0.6-1,1.2-1.1C376.6,141.9,377.2,142.4,377.2,143
		z"/>
	<path fill="#73A891" d="M450.6,91.2c0-0.5,0.5-1.1,1.1-1.1c0.7,0,1.1,0.5,1.1,1.1c0,0.7-0.5,1.1-1.1,1.1
		C451.2,92.4,450.6,91.8,450.6,91.2z"/>
	<path fill="#7EAA95" d="M464.1,129.8c0-0.6,0.5-1.1,1-1.1c0.7,0,1.2,0.5,1.2,1.2c0,0.6-0.5,1.1-1,1.1
		C464.5,131,464.1,130.5,464.1,129.8z"/>
	<path fill="#72A78F" d="M415.3,119.1c0,0.6-0.5,1.3-0.9,1.3c-0.6,0-1.1-0.5-1.1-1.2c0-0.6,0.4-1.3,0.9-1.2
		C414.7,117.9,415.3,118.5,415.3,119.1z"/>
	<path fill="#D16C61" d="M418.5,103.9c0.6,0,1.1,0.5,1.1,1.1c0,0.6-0.5,1.2-1,1.3c-0.5,0-1.2-0.7-1.2-1.3
		C417.4,104.4,418,103.9,418.5,103.9z"/>
	<path fill="#6DA189" d="M439.5,56.5c0,0.6-0.6,1.2-1.2,1.2c-0.5,0-1.1-0.5-1.1-1.1c0-0.5,0.7-1.2,1.2-1.2
		C438.9,55.4,439.5,56,439.5,56.5z"/>
	<path fill="#73A992" d="M454.2,113.7c0.4,0,1.1,0.7,1.1,1.1c0,0.5-0.5,1.1-1.1,1.1c-0.7,0-1.3-0.5-1.3-1.1
		C453,114.2,453.6,113.7,454.2,113.7z"/>
	<path fill="#6EA58C" d="M375.1,168.8c0,0.5-0.5,1.1-1.1,1.1c-0.5-0.1-1.1-0.2-1.3-0.9c-0.1-0.5,0.7-1.3,1.1-1.3
		C374.5,167.7,375.1,168.2,375.1,168.8z"/>
	<path fill="#659E85" d="M439.8,18.2c-0.1,0.7-0.5,1.1-1.1,1.1s-1-0.7-1-1.3c0.1-0.7,0.5-1,1.1-0.9
		C439.5,17.1,439.9,17.6,439.8,18.2z"/>
	<path fill="#74AA91" d="M456,88c0,0.7-0.5,1.3-1.2,1.2c-0.6-0.1-0.9-0.4-0.9-1c0-0.7,0.5-1.3,0.9-1.3C455.4,86.8,456,87.4,456,88z"
		/>
	<path fill="#6BA28A" d="M411.5,174.6c0.6,0,1.1,0.6,1.1,1.2c-0.1,0.6-0.5,0.9-1.1,1c-0.5,0.1-1.2-0.7-1.1-1.2
		C410.4,175,410.7,174.5,411.5,174.6z"/>
	<path fill="#D16C63" d="M451.9,79c-0.7,0-1.1-0.4-1.1-1.1c0-0.7,0.5-0.9,1.1-1c0.5,0,1.2,0.7,1.2,1.1C453.1,78.5,452.5,79,451.9,79
		z"/>
	<path fill="#7AAB95" d="M457.8,137c0,0.5-0.5,1.1-1,1c-0.7-0.1-1.1-0.6-1.1-1.2c0-0.5,0.6-1.1,1.1-1.1
		C457.3,135.8,457.8,136.5,457.8,137z"/>
	<path fill="#6FA58D" d="M454.2,173.1c-0.1,0.5-0.4,0.9-1,0.9s-1.2-0.5-1.2-1.1c0-0.5,0.5-1,1.1-1
		C453.6,171.9,454.1,172.4,454.2,173.1z"/>
	<path fill="#CF6C62" d="M368.1,93.8c0-0.5,0.5-1.1,1-1.1c0.7,0,1.1,0.4,1.1,1c0,0.6-0.5,1.2-1.1,1.2
		C368.7,94.9,368.2,94.4,368.1,93.8z"/>
	<path fill="#75A994" d="M371.2,112.6c0-0.7,0.3-1.1,1-1.1c0.5,0,1.1,0.5,1.1,1c0,0.5-0.6,1.1-1.2,1.1
		C371.5,113.6,371.2,113.3,371.2,112.6z"/>
	<path fill="#75AA92" d="M411,118.7c-0.1,0.5-0.3,0.9-0.9,1c-0.5,0.1-1.2-0.5-1.2-1c0-0.6,0.5-1.2,1-1.2
		C410.4,117.4,411,118,411,118.7z"/>
	<path fill="#CE675E" d="M439.9,47.2c0,0.5-0.5,1.1-1.1,1.1c-0.4,0-1.1-0.7-1-1.1c0-0.5,0.7-1.1,1.1-1.1
		C439.4,46,439.9,46.7,439.9,47.2z"/>
	<path fill="#78A992" d="M497.6,104.7c-0.4-0.2-1-0.2-1-0.9c0-0.5,0.7-1.1,1.3-1.1s0.9,0.3,0.9,0.9
		C498.9,104.2,498.3,104.7,497.6,104.7z"/>
	<path fill="#689F87" d="M430.3,30.7c0-0.5,0.1-1,0.7-1.1c0.5-0.1,1.2,0.7,1.2,1.3c0,0.5-0.5,1.1-0.9,1.1
		C430.8,32,430.3,31.3,430.3,30.7z"/>
	<path fill="#69A088" d="M413.1,176.7c0-0.6,0.3-1.1,0.9-1.1c0.5-0.1,1,0.5,1,1.2c0,0.7-0.4,1.1-1,1.1
		C413.2,177.8,413.1,177.3,413.1,176.7z"/>
	<path fill="#76A790" d="M498.4,90.3c-0.6,0-1.1-0.1-1.1-0.8c-0.1-0.6,0.5-1.1,1.1-1.1c0.7,0,1.1,0.4,1.1,1.1
		C499.5,90,499.1,90.3,498.4,90.3z"/>
	<path fill="#D16E64" d="M348,97.3c0.5,0,1.1,0.5,1.1,1.1s-0.6,1.1-1.1,1c-0.4,0-1.1-0.7-1.1-1.1C346.9,97.7,347.4,97.3,348,97.3z"
		/>
	<path fill="#74A991" d="M424.9,126c-0.5,0-1.1-0.5-1-1.1c0.1-0.6,0.3-1,0.9-1c0.5,0,1.1,0.6,1.1,1.1C426,125.4,425.5,126,424.9,126
		z"/>
	<path fill="#69A189" d="M467,47.1c-0.1,0.6-0.2,1.1-0.9,1.1c-0.6,0.1-1.1-0.5-1.1-1.1c0-0.7,0.5-1.1,1.1-1.1
		C466.8,46.1,467,46.5,467,47.1z"/>
	<path fill="#78AA93" d="M438.1,147.5c0,0.6-0.3,0.9-0.9,0.9c-0.5,0-1.1-0.5-1.1-1.1c0-0.5,0.7-1.1,1.1-1
		C437.9,146.4,438.2,146.8,438.1,147.5z"/>
	<path fill="#70A68D" d="M384.6,59.1c-0.1,0.5-0.3,0.9-0.9,0.9s-1-0.5-1.1-1c0-0.5,0.1-1.1,0.9-1.1
		C384.1,57.9,384.6,58.3,384.6,59.1z"/>
	<path fill="#D47166" d="M436.2,105.9c0.7-0.1,0.9,0.4,0.9,0.9c0,0.6-0.5,1.1-1.1,1c-0.7-0.1-0.9-0.5-0.9-1.1
		C435,106.2,435.5,105.9,436.2,105.9z"/>
	<path fill="#CE6861" d="M378.6,80.6c-0.7,0.1-0.9-0.5-0.9-1s0.3-0.9,0.9-1c0.5-0.1,1.1,0.5,1.1,1C379.7,80.2,379.3,80.6,378.6,80.6
		z"/>
	<path fill="#73A891" d="M386.8,146.5c-0.3,0-0.7-0.2-0.8-0.9c-0.1-0.6,0.4-1.1,1.1-1.1c0.6,0,1.1,0.3,1,0.9
		C388.1,145.9,387.8,146.5,386.8,146.5z"/>
	<path fill="#CB675F" d="M465.3,66.9c0,0.7-0.5,0.9-1,1c-0.5,0-1-0.3-1-0.9c0-0.6,0.5-1.2,1.1-1.2C464.7,65.8,465.2,66.4,465.3,66.9
		z"/>
	<path fill="#78A992" d="M378.7,117.7c0,0.6-0.5,1.2-1.1,1.1c-0.5-0.1-0.9-0.4-0.9-1s0.4-1.1,1-1.1
		C378.4,116.6,378.5,117.2,378.7,117.7z"/>
	<path fill="#CD685F" d="M435.7,45.9c0.5,0.1,1.1,0.2,1.1,1c0,0.7-0.4,0.9-1,0.9c-0.5,0-1.2-0.6-1.1-1.1
		C434.7,46.2,435.1,45.9,435.7,45.9z"/>
	<path fill="#72A78F" d="M384.7,166.5c-0.9,0-1.4-0.4-1.3-0.9c0.1-0.7,0.5-0.9,1.1-0.9s1,0.3,1,0.9
		C385.4,166.1,385.2,166.5,384.7,166.5z"/>
	<path fill="#CF6A62" d="M429.5,112.7c-0.1-0.9,0.3-1.3,0.9-1.4c0.4-0.1,0.9,0.5,1,1.1c0,0.7-0.3,1.1-0.9,1
		C429.9,113.3,429.6,113,429.5,112.7z"/>
	<path fill="#73A78F" d="M423.5,93.2c0,0.4-0.3,0.7-0.9,0.7c-0.7,0-1.1-0.4-1.1-1.1c0-0.6,0.4-0.9,0.9-0.9
		C423,92,423.5,92.5,423.5,93.2z"/>
	<path fill="#74A892" d="M428.7,120.5c0.1,0.7-0.3,1-0.9,1s-1.1-0.2-1.1-0.9s0.4-1.1,1.1-1C428.3,119.7,428.8,119.9,428.7,120.5z"/>
	<path fill="#72A78E" d="M371.6,62.3c0.4,0.1,0.8,0.3,0.9,0.9c0.1,0.5-0.5,1.2-0.9,1.1c-0.5-0.1-1-0.4-1.1-1
		C370.4,62.8,370.9,62.3,371.6,62.3z"/>
	<path fill="#75A790" d="M437.1,160c0-0.6,0.5-1.2,1-1.1c0.5,0.1,0.9,0.3,1,0.9c0.1,0.5-0.5,1-1.1,1
		C437.4,160.8,437.1,160.4,437.1,160z"/>
	<path fill="#75AB93" d="M472.5,170.1c0,0.6-0.4,0.9-0.9,0.9c-0.5,0.1-1.1-0.5-1.1-1.1c0-0.6,0.5-0.9,0.9-0.9
		S472.5,169.5,472.5,170.1z"/>
	<path fill="#74A992" d="M377.7,152.4c0,0.4-0.2,0.7-0.7,0.7c-0.7,0-1.2-0.4-1.1-1.1c0-0.5,0.3-0.9,0.9-0.9
		C377.1,151.1,377.7,151.7,377.7,152.4z"/>
	<path fill="#71A78D" d="M460.5,169c0.3,0,1.1,0.8,1,1.2s-0.3,0.9-0.8,0.9c-0.6,0-1.1-0.5-1.1-1C459.6,169.5,460,169,460.5,169z"/>
	<path fill="#78AB97" d="M425.1,130.3c0-0.5,0.3-0.9,0.9-0.9c0.5,0,1.1,0.5,1,1.1c-0.1,0.5-0.4,0.9-0.9,0.9
		C425.4,131.3,425.1,130.9,425.1,130.3z"/>
	<path fill="#CF6F64" d="M474.4,123.5c-0.5-0.1-0.9-0.3-0.9-0.9c0-0.5,0.3-0.9,0.9-0.9c0.6,0,0.9,0.4,1,0.9
		C475.3,123.1,474.9,123.4,474.4,123.5z"/>
	<path fill="#74A68E" d="M375.5,67.8c0,0.6-0.1,1.1-0.7,1.1s-0.9-0.5-0.9-1.2c0.1-0.5,0.3-0.9,0.8-0.9
		C375.3,66.8,375.6,67.2,375.5,67.8z"/>
	<path fill="#78AB95" d="M352.9,112.9c0,0.3-0.2,0.8-0.8,0.7c-0.5-0.1-1-0.3-1-1c0-0.5,0.1-0.9,0.7-0.9
		C352.3,111.8,353,111.9,352.9,112.9z"/>
	<path fill="#75A990" d="M393,85.8c-0.1,0.5-0.3,1-0.8,1c-0.5,0-1-0.4-1-0.9c-0.1-0.5,0.3-0.9,0.9-0.9S392.9,85.3,393,85.8z"/>
	<path fill="#73A790" d="M419.5,82.9c0,0.5-0.4,0.6-0.9,0.6c-0.6,0-0.9-0.4-0.9-0.9c0-0.5,0.3-0.9,0.8-1
		C419,81.6,419.5,82.2,419.5,82.9z"/>
	<path fill="#78AB94" d="M435,140c0.5,0,0.9,0.3,0.9,0.9c0,0.6-0.3,1-0.9,1c-0.7,0.1-0.8-0.5-0.8-0.9C434.2,140.4,434.4,140,435,140
		z"/>
	<path fill="#78A88F" d="M358.1,91.3c-0.7,0-0.9-0.4-0.9-0.9s0.2-0.9,0.8-0.9c0.5,0,1.1,0.2,1.1,0.8C359,90.9,358.6,91.2,358.1,91.3
		z"/>
	<path fill="#7AAC97" d="M445.4,137.3c0-0.7,0.3-1,0.9-1s0.8,0.6,0.8,1.1c0,0.5-0.4,0.9-0.9,0.8
		C445.8,138.2,445.4,137.9,445.4,137.3z"/>
	<path fill="#77AC96" d="M443.2,127c-0.1-0.5,0.3-0.7,0.9-0.8c0.4-0.1,0.9,0.6,0.9,1.1c-0.1,0.5-0.5,0.8-1,0.9
		C443.5,128.1,443.2,127.6,443.2,127z"/>
	<path fill="#73A891" d="M406.2,122.6c0,0.5-0.2,0.9-0.8,0.9c-0.5,0-0.9-0.3-1-0.9c0-0.5,0.2-1,0.9-1
		C405.9,121.8,406.2,122,406.2,122.6z"/>
	<path fill="#79A891" d="M389.1,100.4c0.7,0,1.1,0.3,1.1,0.9c0,0.5-0.4,0.9-0.9,0.9c-0.5,0-1-0.4-0.9-1
		C388.3,100.7,388.7,100.4,389.1,100.4z"/>
	<path fill="#73A58D" d="M428.9,165.1c-0.5-0.1-1.1-0.3-1-0.8c0-0.5,0.4-0.9,0.9-0.9c0.6,0,0.9,0.3,0.9,0.9
		C429.8,164.7,429.4,165,428.9,165.1z"/>
	<path fill="#72A68E" d="M427.2,61.8c0.1,0.5-0.1,0.8-0.7,0.8c-0.6,0-0.9-0.3-1.1-0.8c-0.1-0.5,0.5-1,0.9-1
		C426.9,60.9,427.3,61.2,427.2,61.8z"/>
	<path fill="#79AA93" d="M449.5,159.5c-0.5,0-0.9-0.3-0.8-0.9c0-0.6,0.5-0.9,1-0.9c0.5,0,0.9,0.3,0.9,0.9
		C450.4,159.1,450.1,159.5,449.5,159.5z"/>
	<path fill="#75A990" d="M398.8,82.9c0,0.4-0.1,0.9-0.7,0.8c-0.5,0-0.9-0.3-0.9-0.9c-0.1-0.6,0.4-0.9,0.9-0.9
		C398.5,81.9,398.8,82.3,398.8,82.9z"/>
	<path fill="#79A890" d="M465.9,93.2c-0.1,0.5-0.3,0.9-0.8,0.9c-0.5,0-0.9-0.3-0.9-0.9c0-0.5,0.3-0.9,0.8-0.9
		C465.5,92.2,465.8,92.6,465.9,93.2z"/>
	<path fill="#70A48C" d="M386,49.7c0.6-0.1,0.9,0.2,1,0.8c0.1,0.5-0.3,0.9-0.8,0.9c-0.6,0-0.9-0.4-0.9-0.9
		C385.2,49.9,385.5,49.7,386,49.7z"/>
	<path fill="#D26E67" d="M384.1,128.6c-0.1,0.5-0.3,0.9-0.9,0.9c-0.5,0-0.9-0.4-0.9-0.9c0-0.5,0.5-0.9,1.1-0.9
		C383.8,127.8,384,128.1,384.1,128.6z"/>
	<path fill="#7AAD97" d="M493.8,113.6c0.5,0.1,0.9,0.3,0.9,0.8c0,0.5-0.3,0.9-0.9,1c-0.5,0-0.9-0.2-0.9-0.7
		C492.8,114,493.2,113.6,493.8,113.6z"/>
	<path fill="#78AC96" d="M486.3,111.8c0.7-0.1,1.1,0.3,1.1,0.8c0.1,0.6-0.4,0.8-0.9,0.8c-0.5,0-0.9-0.3-0.9-0.8
		S485.9,111.9,486.3,111.8z"/>
	<path fill="#7AAE98" d="M351.7,132.3c-0.4-0.1-0.9-0.3-0.8-0.9c0-0.6,0.4-0.9,0.9-0.9c0.5,0,0.9,0.4,0.8,0.9
		S352.1,132.2,351.7,132.3z"/>
	<path fill="#78A791" d="M470.2,89.3c0-0.5,0.2-1,0.7-1c0.5,0,0.9,0.3,1,0.9c0,0.6-0.4,0.9-0.9,0.9
		C470.4,90.2,470.2,89.8,470.2,89.3z"/>
	<path fill="#75A58C" d="M450.3,67.1c0.6-0.1,0.9,0.3,0.9,0.8c0,0.5-0.4,0.9-0.9,0.9c-0.6,0-0.8-0.4-0.8-0.9
		C449.5,67.3,449.8,67,450.3,67.1z"/>
	<path fill="#77A891" d="M487.1,79.6c-0.1,0.5-0.3,0.9-0.9,0.9c-0.5,0-0.8-0.4-0.8-0.9c0-0.5,0.3-0.9,0.9-0.9
		C486.7,78.7,487.1,79,487.1,79.6z"/>
	<path fill="#7BAC95" d="M478.8,80.7c-0.4-0.1-0.7-0.3-0.7-0.8c-0.1-0.4,0.5-1.1,0.9-1.1c0.5,0,0.7,0.4,0.8,0.8
		S479.2,80.7,478.8,80.7z"/>
	<path fill="#D17062" d="M362.7,94.9c0.7-0.1,0.9,0.3,0.9,0.9c0,0.5-0.3,0.9-0.8,0.8c-0.5-0.1-0.8-0.4-0.8-1
		C362.1,95.2,362.2,94.8,362.7,94.9z"/>
	<path fill="#78AA94" d="M398.8,130.5c-0.5-0.1-0.9-0.2-0.9-0.9c0-0.5,0.4-0.7,0.9-0.7c0.5,0,0.9,0.2,0.9,0.8
		C399.6,130.3,399.3,130.5,398.8,130.5z"/>
	<path fill="#D16F64" d="M395.3,110.9c0,0.6-0.3,0.9-0.9,0.9c-0.5,0-0.9-0.2-0.9-0.7c0-0.6,0.3-0.9,0.9-0.9S395.2,110.3,395.3,110.9
		z"/>
	<path fill="#75A68D" d="M429.6,161.1c0,0.6-0.4,0.9-0.9,0.9c-0.5,0-0.8-0.5-0.8-0.9c0-0.5,0.4-0.7,0.9-0.7
		C429.4,160.4,429.7,160.6,429.6,161.1z"/>
	<path fill="#72A78E" d="M455.7,169.7c0-0.5,0.1-0.9,0.7-0.9c0.6,0,0.9,0.4,0.9,0.9c0.1,0.6-0.5,0.8-0.9,0.8
		C456,170.5,455.6,170.2,455.7,169.7z"/>
	<path fill="#76A892" d="M406,166.7c-0.5,0-0.8-0.3-0.8-0.7c0-0.5,0.3-0.9,0.9-0.9c0.4,0,0.7,0.3,0.7,0.8
		C406.8,166.3,406.6,166.7,406,166.7z"/>
	<path fill="#7BAE99" d="M483.7,151c-0.5,0.1-0.7-0.4-0.7-0.8c0-0.5,0.3-0.7,0.8-0.7s0.9,0.3,0.9,0.8
		C484.7,150.8,484.3,150.9,483.7,151z"/>
	<path fill="#73A790" d="M478.8,72.7c-0.7,0.1-0.9-0.3-0.9-0.7c0.1-0.5,0.1-1.1,0.7-1.1c0.5,0,0.9,0.4,0.8,0.9
		C479.5,72.5,479.1,72.7,478.8,72.7z"/>
	<path fill="#CC6C62" d="M417.9,155.5c0-0.5,0.1-0.9,0.7-0.9s0.8,0.4,0.9,0.9c0,0.6-0.3,0.8-0.9,0.8
		C417.9,156.4,417.8,156,417.9,155.5z"/>
	<path fill="#77A992" d="M409.4,112.1c0,0.3-0.1,0.7-0.7,0.6c-0.6,0-0.9-0.4-1-0.9c-0.1-0.5,0.3-0.7,0.8-0.7
		C409.1,111,409.4,111.3,409.4,112.1z"/>
	<path fill="#CF7063" d="M452.3,64.2c0.1-0.2,0.2-0.3,0.3-0.5c0.2-0.1,0.5-0.2,0.7-0.2c0.5-0.1,0.8,0.2,0.9,0.6
		c0.1,0.4-0.1,0.7-0.5,0.9c-0.4,0.2-0.7,0-0.9-0.3C452.6,64.5,452.6,64.2,452.3,64.2z"/>
	<path fill="#7AAA93" d="M383,65.5c0.6,0,0.9,0.3,0.9,0.7c0,0.4-0.1,0.9-0.6,0.9c-0.6,0-0.7-0.5-0.8-1
		C382.4,65.7,382.7,65.6,383,65.5z"/>
	<path fill="#7BAD96" d="M383.2,91.2c-0.6,0-0.9-0.4-0.9-0.8c0-0.4,0.3-0.7,0.8-0.7c0.4,0,0.7,0.3,0.7,0.8
		C383.9,90.9,383.6,91.2,383.2,91.2z"/>
	<path fill="#7DAB97" d="M495.9,101.6c-0.5,0.1-0.8-0.3-0.8-0.7c0-0.4,0.5-0.7,0.8-0.7c0.4,0,0.8,0.3,0.8,0.8
		C496.7,101.5,496.4,101.6,495.9,101.6z"/>
	<path fill="#7AAA95" d="M395.2,125.6c-0.1,0.4-0.2,0.7-0.7,0.7s-0.9-0.3-0.8-0.8c0-0.5,0.4-0.8,0.8-0.9
		C395,124.6,395.1,125.2,395.2,125.6z"/>
	<path fill="#79AB95" d="M398.6,112.8c0.1,0.5-0.3,0.7-0.7,0.7s-0.8-0.3-0.8-0.7c0-0.5,0.3-0.8,0.9-0.7
		C398.4,112,398.6,112.3,398.6,112.8z"/>
	<path fill="#78AD97" d="M496.3,130.1c-0.1-0.5,0.3-0.6,0.7-0.5c0.5,0,0.9,0.1,0.9,0.7c0,0.5-0.3,0.8-0.7,0.8
		C496.5,131,496.3,130.5,496.3,130.1z"/>
	<path fill="#77AA93" d="M415.8,126.7c0.3,0.2,0.9,0.3,0.8,0.9c-0.1,0.5-0.2,0.7-0.7,0.7c-0.5-0.1-0.7-0.5-0.7-0.9
		C415.1,127,415.5,126.8,415.8,126.7z"/>
	<path fill="#6DA58D" d="M386.2,34.4c0.1,0.5-0.1,0.7-0.6,0.7c-0.5,0-0.7-0.4-0.7-0.8c0-0.4,0.2-0.8,0.7-0.7
		C386.1,33.5,386.2,33.9,386.2,34.4z"/>
	<path fill="#6FA68E" d="M372.4,42.2c0,0.4-0.1,0.7-0.6,0.7c-0.6-0.1-0.7-0.5-0.7-1c0-0.4,0.3-0.6,0.6-0.6
		C372.2,41.3,372.4,41.6,372.4,42.2z"/>
	<path fill="#7BAD99" d="M487.5,130.7c0.5,0.1,0.9,0.3,0.9,0.8c0,0.4-0.3,0.7-0.7,0.7c-0.5,0-0.8-0.3-0.8-0.8
		C486.9,130.9,487.1,130.7,487.5,130.7z"/>
	<path fill="#77A78F" d="M393,65.8c-0.1,0.5-0.3,0.9-0.8,0.9s-0.6-0.5-0.6-0.9c0-0.4,0.3-0.7,0.7-0.7S393,65.4,393,65.8z"/>
	<path fill="#87B4A0" d="M473.2,144.9c-0.1,0.3-0.3,0.6-0.5,0.5c-0.3-0.1-0.7-0.3-0.7-0.7c0-0.3,0.1-0.5,0.5-0.5
		C473.1,144.1,472.9,144.7,473.2,144.9z"/>
	<path fill="#7BAA94" d="M382.4,34.1c0.5,0.1,0.7,0.3,0.7,0.7c0.1,0.3-0.1,0.7-0.4,0.7c-0.4,0-0.7-0.3-0.7-0.7
		C382,34.5,382.1,34.2,382.4,34.1z"/>
	<path fill="#7FAC98" d="M433.6,85.6c-0.1,0.4-0.1,0.7-0.5,0.7c-0.5,0-0.5-0.5-0.6-0.8c0-0.3,0.3-0.5,0.6-0.5
		C433.4,85,433.6,85.3,433.6,85.6z"/>
</g>
</svg>
